<svg width="63" height="63" viewBox="0 0 63 63" fill="none" xmlns="http://www.w3.org/2000/svg">
<mask id="path-1-inside-1_377_102" fill="white">
<path d="M63 31.5C63 25.2699 61.1526 19.1797 57.6913 13.9995C54.23 8.81939 49.3104 4.78196 43.5545 2.39779C37.7987 0.0136343 31.4651 -0.610171 25.3547 0.605264C19.2443 1.8207 13.6315 4.82078 9.22614 9.22614C4.82078 13.6315 1.8207 19.2443 0.605264 25.3547C-0.610171 31.4651 0.0136343 37.7987 2.39779 43.5545C4.78196 49.3104 8.81939 54.23 13.9995 57.6913C19.1797 61.1526 25.2699 63 31.5 63V43.2711C29.1719 43.2711 26.8961 42.5807 24.9603 41.2873C23.0246 39.9939 21.5159 38.1555 20.6249 36.0046C19.734 33.8537 19.5009 31.4869 19.9551 29.2036C20.4093 26.9202 21.5304 24.8228 23.1766 23.1766C24.8228 21.5304 26.9202 20.4093 29.2036 19.9551C31.4869 19.5009 33.8537 19.734 36.0046 20.6249C38.1555 21.5159 39.9939 23.0246 41.2873 24.9603C42.5807 26.8961 43.2711 29.1719 43.2711 31.5H63Z"/>
</mask>
<path d="M63 31.5C63 25.2699 61.1526 19.1797 57.6913 13.9995C54.23 8.81939 49.3104 4.78196 43.5545 2.39779C37.7987 0.0136343 31.4651 -0.610171 25.3547 0.605264C19.2443 1.8207 13.6315 4.82078 9.22614 9.22614C4.82078 13.6315 1.8207 19.2443 0.605264 25.3547C-0.610171 31.4651 0.0136343 37.7987 2.39779 43.5545C4.78196 49.3104 8.81939 54.23 13.9995 57.6913C19.1797 61.1526 25.2699 63 31.5 63V43.2711C29.1719 43.2711 26.8961 42.5807 24.9603 41.2873C23.0246 39.9939 21.5159 38.1555 20.6249 36.0046C19.734 33.8537 19.5009 31.4869 19.9551 29.2036C20.4093 26.9202 21.5304 24.8228 23.1766 23.1766C24.8228 21.5304 26.9202 20.4093 29.2036 19.9551C31.4869 19.5009 33.8537 19.734 36.0046 20.6249C38.1555 21.5159 39.9939 23.0246 41.2873 24.9603C42.5807 26.8961 43.2711 29.1719 43.2711 31.5H63Z" fill="#FFF8E1" stroke="black" stroke-width="6" mask="url(#path-1-inside-1_377_102)"/>
</svg>
