<svg width="75" height="75" viewBox="0 0 75 75" fill="none" xmlns="http://www.w3.org/2000/svg">
<circle cx="37.5" cy="37.5" r="30" fill="#550000" stroke="black" stroke-width="3"/>
<path d="M34.2441 12.3439C35.4093 9.38941 39.5907 9.38941 40.7559 12.3439L45.9145 25.4236C46.5752 27.0988 47.9012 28.4248 49.5764 29.0855L62.6561 34.2441C65.6106 35.4093 65.6106 39.5907 62.6561 40.7559L49.5764 45.9145C47.9012 46.5752 46.5752 47.9012 45.9145 49.5764L40.7559 62.6561C39.5907 65.6106 35.4093 65.6106 34.2441 62.6561L29.0855 49.5764C28.4248 47.9012 27.0988 46.5752 25.4236 45.9145L12.3439 40.7559C9.38941 39.5907 9.38941 35.4093 12.3439 34.2441L25.4236 29.0855C27.0988 28.4248 28.4248 27.0988 29.0855 25.4236L34.2441 12.3439Z" fill="#FFD95C" stroke="black" stroke-width="3"/>
</svg>
