<svg width="116" height="99" viewBox="0 0 116 99" fill="none" xmlns="http://www.w3.org/2000/svg">
<path d="M67.772 4.26644C67.772 4.26644 65.7545 2.54113 61.8364 1.28333V23.4368L68.0698 4.5141C67.9664 4.43664 67.867 4.35398 67.772 4.26644Z" fill="#7A8590"/>
<path d="M67.2155 86.43C69.6504 87.0951 70.2348 88.851 70.2348 88.851C70.2348 88.851 69.2608 85.1471 70.6271 85.7315C71.9935 86.3159 73.1594 88.851 73.1594 88.851C73.1594 88.851 73.1594 78.5186 75.6945 82.4173C76.5083 83.6199 77.0854 84.9667 77.3948 86.3855C78.2154 84.9402 78.9063 83.4251 79.4596 81.8579C80.851 77.7951 81.6858 64.4407 81.6858 53.4071V4.60596C76.1732 5.86376 72.1437 6.27561 69.592 5.37121L61.8364 29.3112V62.3981C61.8364 75.4993 64.1155 82.7707 65.8909 86.4495C66.1024 86.2909 66.5114 86.2408 67.2155 86.43Z" fill="#7A8590"/>
<path d="M12.554 81.7244C12.1593 82.7675 11.6945 83.7828 11.1626 84.7631C11.2516 85.0971 11.3407 85.4032 11.4409 85.6981L13.5085 84.1732C13.5085 84.1732 12.9797 83.0183 12.554 81.7244Z" fill="#7A8590"/>
<path d="M93.2482 4.5002C91.2046 3.95024 89.0863 3.72949 86.9731 3.84626V19.9027L87.026 19.1041L93.2482 4.5002Z" fill="#7A8590"/>
<path d="M114.801 55.1907C113.966 46.5642 105.617 41.5552 103.391 32.9287C103.391 32.8953 103.377 32.8647 103.369 32.8341V62.4064C103.342 66.9412 103.556 71.4743 104.012 75.9862C107.129 70.4959 115.605 63.4945 114.801 55.1907Z" fill="#7A8590"/>
<path d="M94.2079 79.6789C94.5975 81.6269 93.2228 86.4187 93.2228 86.4187C93.2228 86.4187 95.5742 81.4321 95.3794 83.38C95.1847 85.3279 94.7923 87.2758 94.7923 87.2758C94.7923 87.2758 96.3868 85.4949 97.3635 84.8604C97.6863 83.9143 97.9925 82.8874 98.2373 81.8439C99.189 77.7811 99.7623 64.4267 99.7623 53.3931V8.40151C98.1269 6.64622 96.0589 5.35165 93.7655 4.64758L86.9839 24.6834V62.4064C86.9839 73.696 88.545 80.5416 90.0894 84.5515C91.6311 81.9663 93.9296 78.4072 94.2079 79.6789Z" fill="#7A8590"/>
<path d="M103.369 14.9521V25.1788C104.051 22.4044 104.972 19.9027 103.369 14.9521Z" fill="#7A8590"/>
<path d="M56.5489 0.172977C54.8233 -0.00953884 53.0855 -0.0477033 51.3535 0.0588832L56.5489 8.44053V0.172977Z" fill="#7A8590"/>
<path d="M5.34927 53.4071V45.0978C3.43195 47.6023 1.75952 50.6633 1.54246 54.9125C1.30315 59.5764 2.96723 63.2079 5.11552 66.2133C5.26857 62.028 5.34927 57.5534 5.34927 53.4071Z" fill="#7A8590"/>
<path d="M106.015 86.3214C106.847 88.8621 107.565 89.6969 107.565 89.6969H108.957C107.883 88.6564 106.899 87.5273 106.015 86.3214Z" fill="#7A8590"/>
<path d="M12.9517 75.7831C13.2646 76.4916 13.4075 77.2635 13.3691 78.0371C15.253 78.7356 15.253 82.612 15.253 82.612C15.253 82.612 17.7881 75.2043 18.3725 76.9602C18.9569 78.7161 18.3725 82.0276 18.3725 82.0276C18.3725 82.0276 21.0996 77.9342 21.2944 79.4953C21.4892 81.0564 21.6868 82.4172 21.6868 82.4172C21.6868 82.4172 22.2711 78.7133 23.4399 79.6901C23.6321 79.8537 23.8032 80.0407 23.9491 80.2466C25.0845 74.9594 25.7524 63.2579 25.7524 53.3986V28.7546L15.9404 15.7703C9.26177 21.5194 11.0316 29.0774 11.5603 34.8766C11.7607 37.0889 10.5808 38.9005 8.9668 40.8262V62.4064C8.9668 65.6316 9.05306 68.4895 9.20333 71.0329C10.8229 72.7694 12.256 74.3027 12.9517 75.7831Z" fill="#7A8590"/>
<path d="M25.7523 12.1276C23.5261 11.8828 20.9938 12.1276 17.418 14.6321L25.7662 25.5628L25.7523 12.1276Z" fill="#7A8590"/>
<path d="M35.1358 86.121C35.1358 86.121 33.967 80.4692 36.1097 80.8588C38.2524 81.2484 38.45 84.9662 38.45 84.9662C38.45 84.9662 41.5667 80.6779 41.1771 82.4311C40.9618 83.439 40.6351 84.4199 40.2032 85.3557C40.2032 85.3557 43.907 77.948 44.099 80.6779C44.2493 82.7956 43.1111 84.6767 42.5935 85.4086C43.0583 84.8326 44.0795 83.789 44.8392 84.6267C45.8521 85.7398 46.4393 87.6877 46.4393 87.6877C46.4393 87.6877 46.2445 83.0071 47.6081 83.9838C48.9716 84.9606 48.9716 87.4901 48.9716 87.4901C48.9716 87.4901 51.0448 83.7807 51.8601 85.2472C52.0883 85.6591 52.2525 85.9512 52.3721 86.1627C53.1432 84.788 53.7949 83.3496 54.3201 81.8634C55.7114 77.8006 56.5463 64.4461 56.5463 53.4125V11.7798L50.2656 0.139526C43.3978 0.829649 40.9406 4.59193 38.4973 7.82827L31.0396 21.6613V62.4064C31.0396 75.0679 33.1656 82.2836 34.9131 86.0737L35.1358 86.121Z" fill="#7A8590"/>
<path d="M33.8223 12.0581C32.9416 12.445 31.9996 12.6739 31.0396 12.7343V17.6514L34.4039 11.7798C34.2175 11.8772 34.0227 11.9718 33.8223 12.0581Z" fill="#7A8590"/>
<g opacity="0.7">
<path d="M67.772 4.26644C67.772 4.26644 65.7545 2.54113 61.8364 1.28333V23.4368L68.0698 4.5141C67.9664 4.43664 67.867 4.35398 67.772 4.26644Z" fill="white"/>
<path d="M67.2155 86.43C69.6504 87.0951 70.2348 88.851 70.2348 88.851C70.2348 88.851 69.2608 85.1471 70.6271 85.7315C71.9935 86.3159 73.1594 88.851 73.1594 88.851C73.1594 88.851 73.1594 78.5186 75.6945 82.4173C76.5083 83.6199 77.0854 84.9667 77.3948 86.3855C78.2154 84.9402 78.9063 83.4251 79.4596 81.8579C80.851 77.7951 81.6858 64.4407 81.6858 53.4071V4.60596C76.1732 5.86376 72.1437 6.27561 69.592 5.37121L61.8364 29.3112V62.3981C61.8364 75.4993 64.1155 82.7707 65.8909 86.4495C66.1024 86.2909 66.5114 86.2408 67.2155 86.43Z" fill="white"/>
<path d="M12.554 81.7244C12.1593 82.7675 11.6945 83.7828 11.1626 84.7631C11.2516 85.0971 11.3407 85.4032 11.4409 85.6981L13.5085 84.1732C13.5085 84.1732 12.9797 83.0183 12.554 81.7244Z" fill="white"/>
<path d="M93.2482 4.5002C91.2046 3.95024 89.0863 3.72949 86.9731 3.84626V19.9027L87.026 19.1041L93.2482 4.5002Z" fill="white"/>
<path d="M114.801 55.1907C113.966 46.5642 105.617 41.5552 103.391 32.9287C103.391 32.8953 103.377 32.8647 103.369 32.8341V62.4064C103.342 66.9412 103.556 71.4743 104.012 75.9862C107.129 70.4959 115.605 63.4945 114.801 55.1907Z" fill="white"/>
<path d="M94.2079 79.6789C94.5975 81.6269 93.2228 86.4187 93.2228 86.4187C93.2228 86.4187 95.5742 81.4321 95.3794 83.38C95.1847 85.3279 94.7923 87.2758 94.7923 87.2758C94.7923 87.2758 96.3868 85.4949 97.3635 84.8604C97.6863 83.9143 97.9925 82.8874 98.2373 81.8439C99.189 77.7811 99.7623 64.4267 99.7623 53.3931V8.40151C98.1269 6.64622 96.0589 5.35165 93.7655 4.64758L86.9839 24.6834V62.4064C86.9839 73.696 88.545 80.5416 90.0894 84.5515C91.6311 81.9663 93.9296 78.4072 94.2079 79.6789Z" fill="white"/>
<path d="M103.369 14.9521V25.1788C104.051 22.4044 104.972 19.9027 103.369 14.9521Z" fill="white"/>
<path d="M56.5489 0.172977C54.8233 -0.00953884 53.0855 -0.0477033 51.3535 0.0588832L56.5489 8.44053V0.172977Z" fill="white"/>
<path d="M5.34927 53.4071V45.0978C3.43195 47.6023 1.75952 50.6633 1.54246 54.9125C1.30315 59.5764 2.96723 63.2079 5.11552 66.2133C5.26857 62.028 5.34927 57.5534 5.34927 53.4071Z" fill="white"/>
<path d="M106.015 86.3214C106.847 88.8621 107.565 89.6969 107.565 89.6969H108.957C107.883 88.6564 106.899 87.5273 106.015 86.3214Z" fill="white"/>
<path d="M12.9517 75.7831C13.2646 76.4916 13.4075 77.2635 13.3691 78.0371C15.253 78.7356 15.253 82.612 15.253 82.612C15.253 82.612 17.7881 75.2043 18.3725 76.9602C18.9569 78.7161 18.3725 82.0276 18.3725 82.0276C18.3725 82.0276 21.0996 77.9342 21.2944 79.4953C21.4892 81.0564 21.6868 82.4172 21.6868 82.4172C21.6868 82.4172 22.2711 78.7133 23.4399 79.6901C23.6321 79.8537 23.8032 80.0407 23.9491 80.2466C25.0845 74.9594 25.7524 63.2579 25.7524 53.3986V28.7546L15.9404 15.7703C9.26177 21.5194 11.0316 29.0774 11.5603 34.8766C11.7607 37.0889 10.5808 38.9005 8.9668 40.8262V62.4064C8.9668 65.6316 9.05306 68.4895 9.20333 71.0329C10.8229 72.7694 12.256 74.3027 12.9517 75.7831Z" fill="white"/>
<path d="M25.7523 12.1276C23.5261 11.8828 20.9938 12.1276 17.418 14.6321L25.7662 25.5628L25.7523 12.1276Z" fill="white"/>
<path d="M35.1358 86.121C35.1358 86.121 33.967 80.4692 36.1097 80.8588C38.2524 81.2484 38.45 84.9662 38.45 84.9662C38.45 84.9662 41.5667 80.6779 41.1771 82.4311C40.9618 83.439 40.6351 84.4199 40.2032 85.3557C40.2032 85.3557 43.907 77.948 44.099 80.6779C44.2493 82.7956 43.1111 84.6767 42.5935 85.4086C43.0583 84.8326 44.0795 83.789 44.8392 84.6267C45.8521 85.7398 46.4393 87.6877 46.4393 87.6877C46.4393 87.6877 46.2445 83.0071 47.6081 83.9838C48.9716 84.9606 48.9716 87.4901 48.9716 87.4901C48.9716 87.4901 51.0448 83.7807 51.8601 85.2472C52.0883 85.6591 52.2525 85.9512 52.3721 86.1627C53.1432 84.788 53.7949 83.3496 54.3201 81.8634C55.7114 77.8006 56.5463 64.4461 56.5463 53.4125V11.7798L50.2656 0.139526C43.3978 0.829649 40.9406 4.59193 38.4973 7.82827L31.0396 21.6613V62.4064C31.0396 75.0679 33.1656 82.2836 34.9131 86.0737L35.1358 86.121Z" fill="white"/>
<path d="M33.8223 12.0581C32.9416 12.445 31.9996 12.6739 31.0396 12.7343V17.6514L34.4039 11.7798C34.2175 11.8772 34.0227 11.9718 33.8223 12.0581Z" fill="white"/>
</g>
<path d="M12.7681 32.5504C12.7681 32.5504 11.8971 31.8742 12.9601 30.4272C14.0231 28.9801 15.9543 28.4931 15.7623 29.6536C15.5703 30.814 14.7967 33.132 12.7681 32.5504Z" fill="#7A8590"/>
<path d="M14.1205 30.7166C13.1767 31.8859 12.305 33.1117 11.5103 34.387Z" fill="#7A8590"/>
<path d="M14.1205 30.7166C13.1767 31.8859 12.305 33.1117 11.5103 34.387" stroke="#263238" stroke-linecap="round" stroke-linejoin="round"/>
<path d="M90.368 50.8943C90.368 50.8943 89.9757 49.8647 91.637 49.1801C93.2983 48.4956 95.2017 49.0883 94.4336 49.976C93.6656 50.8637 91.7984 52.4443 90.368 50.8943Z" fill="#7A8590"/>
<path d="M92.4773 50.0288C91.0637 50.5382 89.6819 51.132 88.3394 51.807Z" fill="#7A8590"/>
<path d="M92.4773 50.0288C91.0637 50.5382 89.6819 51.132 88.3394 51.807" stroke="#263238" stroke-linecap="round" stroke-linejoin="round"/>
<path d="M108.323 76.7738C108.323 76.7738 107.209 76.746 107.209 74.9483C107.209 73.1507 108.467 71.609 109.002 72.6637C109.536 73.7184 110.298 76.0336 108.323 76.7738Z" fill="#7A8590"/>
<path d="M108.319 74.4948C108.257 75.995 108.285 77.4976 108.403 78.9945Z" fill="#7A8590"/>
<path d="M108.319 74.4948C108.257 75.995 108.285 77.4976 108.403 78.9945" stroke="#263238" stroke-linecap="round" stroke-linejoin="round"/>
<path d="M39.2542 57.9736C39.2542 57.9736 40.1698 57.3586 41.2022 58.8223C42.2346 60.286 42.0982 62.2701 41.0575 61.7247C40.0167 61.1793 38.0688 59.7016 39.2542 57.9736Z" fill="#7A8590"/>
<path d="M40.5736 59.8185C39.7583 58.5603 38.8681 57.3522 37.9077 56.2009Z" fill="#7A8590"/>
<path d="M40.5736 59.8185C39.7583 58.5603 38.8681 57.3522 37.9077 56.2009" stroke="#263238" stroke-linecap="round" stroke-linejoin="round"/>
<path d="M4.26996 24.7754C4.54223 23.9342 4.93598 23.1373 5.43871 22.41C6.21232 21.322 8.47191 21.9815 8.47191 21.9815C9.08968 22.0232 8.86985 25.4544 6.88574 25.9831C6.05092 26.2085 7.22802 26.4812 7.99884 26.3254C8.76967 26.1695 10.4838 26.637 9.86329 27.5693C9.24274 28.5015 7.52856 29.5895 6.59634 29.5895C5.48703 29.6238 4.39677 29.2956 3.49079 28.6545C2.40551 27.8781 1.47607 25.6937 1.47607 24.3023C1.47607 22.9109 2.87302 21.8256 4.26996 24.7754Z" fill="#7A8590"/>
<path d="M5.71661 25.2095C5.71661 25.2095 2.91437 28.7853 2.43018 30.4244Z" fill="#7A8590"/>
<path d="M5.71661 25.2095C5.71661 25.2095 2.91437 28.7853 2.43018 30.4244" stroke="#263238" stroke-linecap="round" stroke-linejoin="round"/>
<path d="M80.5867 25.5073C80.0913 24.7775 79.7042 23.9798 79.4374 23.1391C79.0617 21.8563 80.9735 20.4872 80.9735 20.4872C81.3853 20.0252 83.9538 22.3154 83.1468 24.2021C82.7989 25.0091 83.7507 24.2411 84.1068 23.5343C84.463 22.8275 85.8822 21.77 86.2329 22.833C86.5835 23.896 86.3831 25.9108 85.8099 26.6454C85.1535 27.5394 84.2234 28.195 83.1607 28.5126C81.8806 28.8883 79.596 28.2817 78.4968 27.419C77.3976 26.5564 77.4032 24.7893 80.5867 25.5073Z" fill="#7A8590"/>
<path d="M81.8223 24.639C81.8223 24.639 82.9075 29.0469 83.901 30.4411" stroke="#263238" stroke-linecap="round" stroke-linejoin="round"/>
<path d="M109.714 59.2731C109.217 58.5428 108.83 57.7441 108.564 56.9022C108.189 55.6221 110.098 54.2502 110.098 54.2502C110.512 53.7911 113.078 56.0785 112.271 57.968C111.926 58.775 112.875 58.0042 113.231 57.2973C113.587 56.5905 115.009 55.5359 115.36 56.5989C115.71 57.6619 115.51 59.6738 114.937 60.4085C114.279 61.3013 113.35 61.9566 112.288 62.2757C111.008 62.6541 108.723 62.0447 107.624 61.1848C106.525 60.325 106.53 58.5524 109.714 59.2731Z" fill="#7A8590"/>
<path d="M110.949 58.4021C110.949 58.4021 112.034 62.8128 113.028 64.2041Z" fill="#7A8590"/>
<path d="M110.949 58.4021C110.949 58.4021 112.034 62.8128 113.028 64.2041" stroke="#263238" stroke-linecap="round" stroke-linejoin="round"/>
<path d="M42.6246 7.75603C43.4925 7.89248 44.3361 8.15399 45.129 8.53241C46.3228 9.12792 46.0251 11.4599 46.0251 11.4599C46.078 12.0776 42.6552 12.3949 41.8231 10.5165C41.4697 9.71508 41.3834 10.9339 41.6589 11.6769C41.9344 12.4199 41.7369 14.1814 40.7211 13.7111C39.7054 13.2408 38.3669 11.7242 38.2167 10.8031C38.0178 9.71634 38.177 8.59436 38.6703 7.60576C39.2686 6.41196 41.2694 5.15415 42.6496 4.9371C44.0298 4.72004 45.321 5.91663 42.6246 7.75603Z" fill="#7A8590"/>
<path d="M42.4183 9.25315C42.4183 9.25315 38.4528 7.02694 36.7554 6.81824Z" fill="#7A8590"/>
<path d="M42.4183 9.25315C42.4183 9.25315 38.4528 7.02694 36.7554 6.81824" stroke="#263238" stroke-linecap="round" stroke-linejoin="round"/>
<path d="M25.1655 70.699C25.7577 70.79 26.3333 70.9672 26.8741 71.225C27.6867 71.6313 27.4836 73.2146 27.4836 73.2146C27.5197 73.6348 25.1933 73.8491 24.6284 72.5746C24.3863 72.0181 24.3307 72.8529 24.5171 73.3621C24.7036 73.8714 24.57 75.0624 23.8799 74.7535C23.1898 74.4446 22.2798 73.4039 22.1824 72.7805C22.0399 72.0406 22.1435 71.2744 22.4774 70.5989C22.8837 69.7863 24.2444 68.9292 25.1822 68.7845C26.12 68.6398 26.9966 69.4496 25.1655 70.699Z" fill="#7A8590"/>
<path d="M25.0263 71.7148C25.0263 71.7148 22.3298 70.2122 21.1777 70.0619Z" fill="#7A8590"/>
<path d="M25.0263 71.7148C25.0263 71.7148 22.3298 70.2122 21.1777 70.0619" stroke="#263238" stroke-linecap="round" stroke-linejoin="round"/>
<path d="M3.96061 53.9275C4.40099 53.5172 4.89876 53.1732 5.43825 52.9062C6.27307 52.5194 7.38617 53.6576 7.38617 53.6576C7.73958 53.8858 6.47343 55.8504 5.12101 55.5081C4.5422 55.3606 5.15997 55.9172 5.67756 56.0814C6.19516 56.2455 7.04946 57.0887 6.37047 57.4366C5.69148 57.7844 4.32236 57.8623 3.7686 57.5534C3.09957 57.2068 2.5614 56.6521 2.2353 55.9728C1.8485 55.1547 2.01546 53.5546 2.4774 52.7254C2.93934 51.8961 4.10809 51.7152 3.96061 53.9275Z" fill="#7A8590"/>
<path d="M4.67602 54.6649C4.67602 54.6649 1.82091 55.8587 1 56.6741Z" fill="#7A8590"/>
<path d="M4.67602 54.6649C4.67602 54.6649 1.82091 55.8587 1 56.6741" stroke="#263238" stroke-linecap="round" stroke-linejoin="round"/>
<path d="M108.092 23.576C108.684 23.6687 109.259 23.8468 109.8 24.1047C110.613 24.511 110.41 26.0944 110.41 26.0944C110.446 26.5146 108.119 26.7289 107.554 25.4544C107.312 24.8978 107.257 25.7326 107.443 26.2419C107.63 26.7511 107.496 27.9421 106.806 27.6333C106.116 27.3244 105.206 26.2836 105.108 25.6575C104.966 24.9176 105.07 24.1515 105.403 23.4758C105.81 22.666 107.17 21.8062 108.108 21.6643C109.046 21.5223 109.923 22.3265 108.092 23.576Z" fill="#7A8590"/>
<path d="M107.952 24.5945C107.952 24.5945 105.256 23.0918 104.104 22.9415Z" fill="#7A8590"/>
<path d="M107.952 24.5945C107.952 24.5945 105.256 23.0918 104.104 22.9415" stroke="#263238" stroke-linecap="round" stroke-linejoin="round"/>
<path d="M9.92725 19.1347C9.92725 19.1347 11.7277 18.414 14.9696 19.1347C18.2115 19.8554 21.2725 22.1957 26.1368 22.9192C31.001 23.6427 34.0621 22.0176 34.6019 19.3156C35.1418 16.6135 32.6206 16.2545 30.9843 17.5151C29.3481 18.7757 30.9843 20.9379 30.9843 20.9379" stroke="#263238" stroke-width="0.75" stroke-linecap="round" stroke-linejoin="round" stroke-dasharray="2 2"/>
<path d="M25.2349 24.7197C25.2349 24.7197 27.5779 25.6186 31.5406 24.7197C35.5032 23.8209 35.8622 19.3156 38.9232 16.9753C41.9842 14.635 44.5082 17.1534 44.5082 19.3156C44.5082 21.4778 42.8859 21.8368 41.2663 21.8368" stroke="#263238" stroke-width="0.75" stroke-linecap="round" stroke-linejoin="round" stroke-dasharray="2 2"/>
<path d="M70.4771 66.5083C70.4771 66.5083 72.8173 65.4286 75.8812 68.3087C78.945 71.1889 82.5458 74.4308 87.4073 74.0718C92.2688 73.7128 94.2529 69.3829 98.3825 68.4896C102.512 67.5964 104.505 70.1092 104.505 71.7315C104.505 73.3539 101.802 75.5133 100.361 73.8937" stroke="#263238" stroke-width="0.75" stroke-linecap="round" stroke-linejoin="round" stroke-dasharray="2 2"/>
<path d="M64.7109 70.1092C64.7109 70.1092 70.6549 68.3088 73.7159 70.8299C76.7769 73.3511 79.479 77.1356 83.9815 77.1356" stroke="#263238" stroke-width="0.75" stroke-linecap="round" stroke-linejoin="round" stroke-dasharray="2 2"/>
<path d="M56.0598 98.2455C61.4204 98.2455 65.766 97.6462 65.766 96.907C65.766 96.1677 61.4204 95.5685 56.0598 95.5685C50.6991 95.5685 46.3535 96.1677 46.3535 96.907C46.3535 97.6462 50.6991 98.2455 56.0598 98.2455Z" fill="#7A8590"/>
<path d="M52.1611 60.2248C52.1611 60.2248 53.0627 65.6428 52.4978 68.9181C51.9329 72.1934 51.2567 72.9809 50.5805 75.1236C49.9043 77.2664 49.9043 79.9768 49.9043 79.9768L52.0637 80.205C52.0637 80.205 54.8687 73.7712 55.0941 68.4645C55.3195 63.1578 54.3038 59.9994 54.3038 59.9994L52.1611 60.2248Z" fill="white"/>
<mask id="mask0_1616_1289" style="mask-type:luminance" maskUnits="userSpaceOnUse" x="49" y="59" width="7" height="22">
<path d="M52.1611 60.2248C52.1611 60.2248 53.0627 65.6428 52.4978 68.9181C51.9329 72.1934 51.2567 72.9809 50.5805 75.1236C49.9043 77.2664 49.9043 79.9768 49.9043 79.9768L52.0637 80.205C52.0637 80.205 54.8687 73.7712 55.0941 68.4645C55.3195 63.1578 54.3038 59.9994 54.3038 59.9994L52.1611 60.2248Z" fill="white"/>
</mask>
<g mask="url(#mask0_1616_1289)">
<path opacity="0.5" d="M52.1611 60.2248C52.1611 60.2248 53.0627 65.6428 52.4978 68.9181C51.9329 72.1934 51.2567 72.9809 50.5805 75.1236C49.9043 77.2664 49.9043 79.9768 49.9043 79.9768L52.0637 80.205C52.0637 80.205 54.8687 73.7712 55.0941 68.4645C55.3195 63.1578 54.3038 59.9994 54.3038 59.9994L52.1611 60.2248Z" fill="#7A8590" stroke="#263238" stroke-miterlimit="10"/>
</g>
<path d="M52.1611 60.2248C52.1611 60.2248 53.0627 65.6428 52.4978 68.9181C51.9329 72.1934 51.2567 72.9809 50.5805 75.1236C49.9043 77.2664 49.9043 79.9768 49.9043 79.9768L52.0637 80.205C52.0637 80.205 54.8687 73.7712 55.0941 68.4645C55.3195 63.1578 54.3038 59.9994 54.3038 59.9994L52.1611 60.2248Z" stroke="#263238" stroke-miterlimit="10"/>
<path d="M50.1909 95.791C50.1909 95.791 49.6344 96.0693 50.5805 96.3476C51.2169 96.4975 51.8817 96.4744 52.5062 96.2808C52.5062 96.2808 52.7093 96.1834 52.4338 95.8745C52.1583 95.5656 50.1909 95.791 50.1909 95.791Z" fill="#263238" stroke="#263238" stroke-miterlimit="10"/>
<path d="M49.1889 79.498C49.1889 79.498 49.6675 78.7189 53.3018 79.1947C55.4807 79.473 55.7868 79.2476 55.9538 80.2828C56.1207 81.318 54.3092 91.0242 54.2841 91.6921C54.2973 92.3212 54.5251 92.927 54.9297 93.409C55.208 93.7151 57.2617 94.9896 58.0659 95.0314C58.8701 95.0731 59.1345 95.5879 59.115 95.9636C59.0955 96.3393 57.9462 96.6621 56.3322 96.5814C54.7182 96.5007 52.6701 95.9274 52.1581 95.9024C51.6461 95.8773 50.8975 96.2029 50.1879 95.8022C49.4783 95.4015 50.2937 93.6845 50.4829 92.8914C50.6721 92.0983 49.7149 86.4132 49.2668 83.6833C48.8188 80.9534 49.086 80.0796 49.1889 79.498Z" fill="#7A8590" stroke="#263238" stroke-miterlimit="10"/>
<path opacity="0.1" d="M49.1889 79.498C49.1889 79.498 49.6675 78.7189 53.3018 79.1947C55.4807 79.473 55.7868 79.2476 55.9538 80.2828C56.1207 81.318 54.3092 91.0242 54.2841 91.6921C54.2973 92.3212 54.5251 92.927 54.9297 93.409C55.208 93.7151 57.2617 94.9896 58.0659 95.0314C58.8701 95.0731 59.1345 95.5879 59.115 95.9636C59.0955 96.3393 57.9462 96.6621 56.3322 96.5814C54.7182 96.5007 52.6701 95.9274 52.1581 95.9024C51.6461 95.8773 50.8975 96.2029 50.1879 95.8022C49.4783 95.4015 50.2937 93.6845 50.4829 92.8914C50.6721 92.0983 49.7149 86.4132 49.2668 83.6833C48.8188 80.9534 49.086 80.0796 49.1889 79.498Z" fill="black"/>
<path d="M49.1889 79.498C49.1889 79.498 49.6675 78.7189 53.3018 79.1947C55.4807 79.473 55.7868 79.2476 55.9538 80.2828C56.1207 81.318 54.3092 91.0242 54.2841 91.6921C54.2973 92.3212 54.5251 92.927 54.9297 93.409C55.208 93.7151 57.2617 94.9896 58.0659 95.0314C58.8701 95.0731 59.1345 95.5879 59.115 95.9636C59.0955 96.3393 57.9462 96.6621 56.3322 96.5814C54.7182 96.5007 52.6701 95.9274 52.1581 95.9024C51.6461 95.8773 50.8975 96.2029 50.1879 95.8022C49.4783 95.4015 50.2937 93.6845 50.4829 92.8914C50.6721 92.0983 49.7149 86.4132 49.2668 83.6833C48.8188 80.9534 49.086 80.0796 49.1889 79.498Z" stroke="#263238" stroke-miterlimit="10"/>
<path d="M50.9531 59.849C51.7884 61.4813 52.3273 63.2489 52.5448 65.0695C52.8454 67.9469 53.0736 70.5181 52.2415 72.3353C51.4095 74.1524 50.9531 76.8016 51.1062 77.9369C51.2144 78.7009 51.3659 79.4581 51.5597 80.2049L56.1763 80.5138C56.1763 80.5138 56.9332 75.1403 58.2968 72.0375C59.6603 68.9347 60.1863 63.5612 60.1863 61.3684C60.2068 60.306 60.1566 59.2435 60.036 58.1877L50.4995 58.7193L50.9531 59.849Z" fill="white"/>
<mask id="mask1_1616_1289" style="mask-type:luminance" maskUnits="userSpaceOnUse" x="50" y="58" width="11" height="23">
<path d="M50.9531 59.849C51.7884 61.4813 52.3273 63.2489 52.5448 65.0695C52.8454 67.9469 53.0736 70.5181 52.2415 72.3353C51.4095 74.1524 50.9531 76.8016 51.1062 77.9369C51.2144 78.7009 51.3659 79.4581 51.5597 80.2049L56.1763 80.5138C56.1763 80.5138 56.9332 75.1403 58.2968 72.0375C59.6603 68.9347 60.1863 63.5612 60.1863 61.3684C60.2068 60.306 60.1566 59.2435 60.036 58.1877L50.4995 58.7193L50.9531 59.849Z" fill="white"/>
</mask>
<g mask="url(#mask1_1616_1289)">
<g style="mix-blend-mode:multiply" opacity="0.5">
<path d="M50.4995 58.7136L50.9531 59.849C51.7884 61.4813 52.3273 63.2488 52.5448 65.0694C52.8454 67.9468 53.0736 70.5181 52.2415 72.3352C51.4095 74.1523 50.9531 76.8015 51.1062 77.9369C51.2088 78.6648 51.351 79.3866 51.5319 80.0991H52.3974C52.0668 79.0112 51.9654 77.8666 52.0996 76.7375C52.3222 74.8703 53.4437 72.9307 53.7414 69.1211C53.8841 66.696 53.476 64.27 52.5476 62.0251C54.1811 62.2523 55.8269 62.3805 57.4759 62.4091C58.3947 62.3944 59.3058 62.2395 60.1779 61.95C60.1779 61.7357 60.1779 61.5381 60.1779 61.3628C60.1985 60.3004 60.1483 59.2378 60.0277 58.1821L50.4995 58.7136Z" fill="#7A8590"/>
</g>
</g>
<path d="M50.9531 59.849C51.7884 61.4813 52.3273 63.2489 52.5448 65.0695C52.8454 67.9469 53.0736 70.5181 52.2415 72.3353C51.4095 74.1524 50.9531 76.8016 51.1062 77.9369C51.2144 78.7009 51.3659 79.4581 51.5597 80.2049L56.1763 80.5138C56.1763 80.5138 56.9332 75.1403 58.2968 72.0375C59.6603 68.9347 60.1863 63.5612 60.1863 61.3684C60.2068 60.306 60.1566 59.2435 60.036 58.1877L50.4995 58.7193L50.9531 59.849Z" stroke="#263238" stroke-miterlimit="10"/>
<path d="M55.8985 60.8843C55.8985 60.8843 56.2491 63.859 56.2491 66.4247C56.2583 67.9176 56.0816 69.4057 55.7231 70.8549" stroke="#263238" stroke-linecap="round" stroke-linejoin="round"/>
<path d="M55.4308 71.7898C55.4308 71.7898 54.3177 74.3555 54.1479 75.5799" stroke="#263238" stroke-linecap="round" stroke-linejoin="round"/>
<path d="M57.0448 18.7506C57.0448 18.7506 58.3304 17.952 57.3954 17.0169C56.4604 16.0819 53.1128 15.5365 49.8402 18.0299C46.5677 20.5232 48.0481 22.7021 48.3598 24.0267C48.6715 25.3513 48.4377 25.7409 46.103 27.8419C43.7683 29.9428 44.9342 32.9844 46.5705 34.6958C48.2068 36.4072 52.1889 37.3449 54.4346 37.1028C56.6802 36.8607 57.8629 38.1158 58.72 39.0508C59.5771 39.9858 61.3664 39.9051 62.3793 39.7492C63.3922 39.5934 64.7113 39.6073 66.7399 40.9987C68.7685 42.3901 71.1923 41.5553 72.8174 39.9079C74.4425 38.2605 73.1263 35.6252 74.2088 35.4694C75.2913 35.3135 75.5334 35.3915 75.3775 34.4565C75.3402 34.2218 75.2458 34 75.1026 33.8104C74.9594 33.6209 74.7718 33.4694 74.5563 33.3694C74.3408 33.2693 74.104 33.2238 73.8668 33.2367C73.6296 33.2496 73.3992 33.3207 73.1959 33.4435C72.1857 34.0001 70.3936 35.2356 69.3807 34.1448C68.3678 33.0539 69.9373 30.7192 67.3549 28.8576C64.7725 26.9959 63.459 28.8576 61.2022 28.8576C58.9454 28.8576 57.5429 28.0784 57.2312 26.6787C56.9196 25.2789 57.6208 23.7957 57.8546 22.3153C58.0883 20.8349 57.0448 18.7506 57.0448 18.7506Z" fill="#263238" stroke="#263238" stroke-miterlimit="10"/>
<path d="M57.045 18.7506C57.045 18.7506 55.5702 17.8685 54.2177 19.9333C52.8653 21.9981 54.3764 23.5898 52.2309 26.2919C50.0854 28.9939 45.3964 28.9939 45.7916 31.7767C46.1867 34.5594 48.0985 33.8443 48.0985 33.8443" stroke="white" stroke-width="0.75" stroke-linecap="round" stroke-linejoin="round"/>
<path d="M53.7418 18.425C53.7418 18.425 51.6742 19.5381 51.6742 21.4443C51.6742 23.3505 52.7067 24.0657 51.5936 25.4988C50.4805 26.9319 49.7681 27.085 49.7681 27.085" stroke="white" stroke-width="0.75" stroke-linecap="round" stroke-linejoin="round"/>
<path d="M49.5284 29.8677C49.5284 29.8677 47.1436 31.618 47.6194 32.7311C48.0953 33.8442 49.0498 33.1263 49.0498 33.1263" stroke="white" stroke-width="0.75" stroke-linecap="round" stroke-linejoin="round"/>
<path d="M64.9478 29.6312C64.9478 29.6312 67.5691 29.5505 67.8084 31.8574C68.0477 34.1643 67.5691 35.7533 69.0801 35.9926C70.5912 36.2319 72.0215 34.4008 73.0539 34.4008" stroke="white" stroke-width="0.75" stroke-linecap="round" stroke-linejoin="round"/>
<path d="M67.1738 36.0677C67.1738 36.0677 67.4104 36.8636 68.6821 37.1808C69.9538 37.498 70.5103 36.1484 71.6234 35.8312" stroke="white" stroke-width="0.75" stroke-linecap="round" stroke-linejoin="round"/>
<path d="M57.0449 18.7506C57.663 19.0946 58.2447 19.5002 58.7813 19.9611C59.31 20.487 59.5187 21.2245 59.8944 21.4861C60.2701 21.7476 61.4193 21.909 61.4193 22.1177C61.4193 22.3264 60.9463 22.9526 60.9463 22.9526C60.9463 22.9526 61.4193 24.7947 61.578 25.3207C61.7366 25.8466 61.8423 26.4338 61.3665 26.6898C60.6916 27.0685 59.9309 27.2678 59.157 27.2686L57.9993 27.3215V29.6367C57.9993 30.6886 58.4724 32.848 58.4724 32.848L55.25 31.2257C55.25 31.2257 55.4086 29.3835 55.4086 28.6461C55.3764 27.923 55.3058 27.2022 55.1971 26.4867C55.1971 26.4867 53.5135 26.278 53.6722 25.1175C53.8085 24.1046 54.7853 24.433 55.0914 24.433H55.4086C55.4086 24.433 55.3029 23.4869 55.5672 23.0138C55.8316 22.5407 56.8306 22.1177 56.9864 21.1187C57.0816 20.333 57.1012 19.54 57.0449 18.7506Z" fill="white"/>
<mask id="mask2_1616_1289" style="mask-type:luminance" maskUnits="userSpaceOnUse" x="53" y="18" width="9" height="15">
<path d="M57.0449 18.7506C57.663 19.0946 58.2447 19.5002 58.7813 19.9611C59.31 20.487 59.5187 21.2245 59.8944 21.4861C60.2701 21.7476 61.4193 21.909 61.4193 22.1177C61.4193 22.3264 60.9463 22.9526 60.9463 22.9526C60.9463 22.9526 61.4193 24.7947 61.578 25.3207C61.7366 25.8466 61.8423 26.4338 61.3665 26.6898C60.6916 27.0685 59.9309 27.2678 59.157 27.2686L57.9993 27.3215V29.6367C57.9993 30.6886 58.4724 32.848 58.4724 32.848L55.25 31.2257C55.25 31.2257 55.4086 29.3835 55.4086 28.6461C55.3764 27.923 55.3058 27.2022 55.1971 26.4867C55.1971 26.4867 53.5135 26.278 53.6722 25.1175C53.8085 24.1046 54.7853 24.433 55.0914 24.433H55.4086C55.4086 24.433 55.3029 23.4869 55.5672 23.0138C55.8316 22.5407 56.8306 22.1177 56.9864 21.1187C57.0816 20.333 57.1012 19.54 57.0449 18.7506Z" fill="white"/>
</mask>
<g mask="url(#mask2_1616_1289)">
<g style="mix-blend-mode:multiply" opacity="0.5">
<path d="M56.505 26.0415C55.3919 24.9284 55.9067 23.9488 56.4299 23.0528C56.7538 22.4562 56.9437 21.7962 56.9864 21.1188C56.8306 22.1178 55.8288 22.538 55.5672 23.0138C55.3056 23.4897 55.4086 24.433 55.4086 24.433H55.0914C54.7769 24.433 53.8085 24.1047 53.6722 25.1176C53.5135 26.278 55.1971 26.4867 55.1971 26.4867C55.3058 27.2023 55.3764 27.9231 55.4086 28.6461C55.4086 29.0997 55.3474 29.9707 55.3029 30.5746C56.018 30.1961 57.0115 29.6618 57.9882 29.1053V27.3299L59.1458 27.277C59.9197 27.2762 60.6805 27.0769 61.3553 26.6982C61.2886 25.9357 57.6265 27.1601 56.505 26.0415Z" fill="#7A8590"/>
</g>
</g>
<path d="M57.0449 18.7506C57.663 19.0946 58.2447 19.5002 58.7813 19.9611C59.31 20.487 59.5187 21.2245 59.8944 21.4861C60.2701 21.7476 61.4193 21.909 61.4193 22.1177C61.4193 22.3264 60.9463 22.9526 60.9463 22.9526C60.9463 22.9526 61.4193 24.7947 61.578 25.3207C61.7366 25.8466 61.8423 26.4338 61.3665 26.6898C60.6916 27.0685 59.9309 27.2678 59.157 27.2686L57.9993 27.3215V29.6367C57.9993 30.6886 58.4724 32.848 58.4724 32.848L55.25 31.2257C55.25 31.2257 55.4086 29.3835 55.4086 28.6461C55.3764 27.923 55.3058 27.2022 55.1971 26.4867C55.1971 26.4867 53.5135 26.278 53.6722 25.1175C53.8085 24.1046 54.7853 24.433 55.0914 24.433H55.4086C55.4086 24.433 55.3029 23.4869 55.5672 23.0138C55.8316 22.5407 56.8306 22.1177 56.9864 21.1187C57.0816 20.333 57.1012 19.54 57.0449 18.7506Z" stroke="#263238" stroke-miterlimit="10"/>
<path d="M58.5726 21.2773L59.1458 21.909C59.1458 21.909 58.8815 22.3292 58.5142 22.3292" stroke="#263238" stroke-width="0.75" stroke-linecap="round" stroke-linejoin="round"/>
<path d="M58.361 20.5399C58.2896 20.5034 58.2107 20.4842 58.1306 20.4838C58.0504 20.4833 57.9713 20.5017 57.8996 20.5375C57.8278 20.5732 57.7655 20.6253 57.7175 20.6895C57.6696 20.7537 57.6374 20.8283 57.6235 20.9072" stroke="#263238" stroke-width="0.75" stroke-linecap="round" stroke-linejoin="round"/>
<path d="M60.782 24.1714C60.632 24.3027 60.4521 24.3952 60.2581 24.4408C60.064 24.4864 59.8617 24.4837 59.6689 24.433" stroke="#263238" stroke-width="0.75" stroke-linecap="round" stroke-linejoin="round"/>
<path d="M52.4673 96.4005C52.4673 96.4005 51.9108 96.7261 52.9014 96.9571C53.5681 97.0789 54.2553 97.0193 54.8911 96.7845C54.8911 96.7845 55.097 96.6732 54.7937 96.3727C54.4904 96.0722 52.4673 96.4005 52.4673 96.4005Z" fill="#263238" stroke="#263238" stroke-miterlimit="10"/>
<path d="M50.5777 79.6011C50.5777 79.6011 51.0313 78.7662 54.8159 79.0723C57.0838 79.2532 57.3871 78.9944 57.6153 80.0547C57.8435 81.1149 56.4799 91.2552 56.4799 91.937C56.526 92.5862 56.7932 93.2001 57.2369 93.6762C57.5402 93.9795 59.7413 95.19 60.5762 95.19C61.411 95.19 61.7115 95.7216 61.7115 96.1C61.7115 96.4785 60.54 96.8847 58.8731 96.8847C57.2062 96.8847 55.0524 96.4005 54.5237 96.4005C53.9949 96.4005 53.2353 96.779 52.4783 96.4005C51.7214 96.0221 52.4783 94.2077 52.6314 93.3757C52.7844 92.5436 51.496 86.7138 50.8894 83.9143C50.2828 81.1149 50.4998 80.2049 50.5777 79.6011Z" fill="#7A8590" stroke="#263238" stroke-miterlimit="10"/>
<path opacity="0.1" d="M50.5777 79.6011C50.5777 79.6011 51.0313 78.7662 54.8159 79.0723C57.0838 79.2532 57.3871 78.9944 57.6153 80.0547C57.8435 81.1149 56.4799 91.2552 56.4799 91.937C56.526 92.5862 56.7932 93.2001 57.2369 93.6762C57.5402 93.9795 59.7413 95.19 60.5762 95.19C61.411 95.19 61.7115 95.7216 61.7115 96.1C61.7115 96.4785 60.54 96.8847 58.8731 96.8847C57.2062 96.8847 55.0524 96.4005 54.5237 96.4005C53.9949 96.4005 53.2353 96.779 52.4783 96.4005C51.7214 96.0221 52.4783 94.2077 52.6314 93.3757C52.7844 92.5436 51.496 86.7138 50.8894 83.9143C50.2828 81.1149 50.4998 80.2049 50.5777 79.6011Z" fill="black"/>
<path d="M50.5777 79.6011C50.5777 79.6011 51.0313 78.7662 54.8159 79.0723C57.0838 79.2532 57.3871 78.9944 57.6153 80.0547C57.8435 81.1149 56.4799 91.2552 56.4799 91.937C56.526 92.5862 56.7932 93.2001 57.2369 93.6762C57.5402 93.9795 59.7413 95.19 60.5762 95.19C61.411 95.19 61.7115 95.7216 61.7115 96.1C61.7115 96.4785 60.54 96.8847 58.8731 96.8847C57.2062 96.8847 55.0524 96.4005 54.5237 96.4005C53.9949 96.4005 53.2353 96.779 52.4783 96.4005C51.7214 96.0221 52.4783 94.2077 52.6314 93.3757C52.7844 92.5436 51.496 86.7138 50.8894 83.9143C50.2828 81.1149 50.4998 80.2049 50.5777 79.6011Z" stroke="#263238" stroke-miterlimit="10"/>
<path d="M60.2033 36.1205C60.2033 36.1205 61.4138 39.0145 61.3609 39.9635C61.308 40.9124 59.6912 44.3853 59.6912 44.8055C59.6912 45.2257 63.7457 59.017 63.7457 59.017C63.7457 59.017 59.1653 60.4918 55.0079 60.6477C52.3722 60.7109 49.7478 60.2825 47.269 59.3843L50.5193 43.7536L50.2549 36.3821C50.2549 36.3821 51.5712 31.9603 53.8725 31.6514C56.1738 31.3425 59.7302 35.2773 60.2033 36.1205Z" fill="#7A8590" stroke="#263238" stroke-miterlimit="10"/>
<path opacity="0.1" d="M60.2033 36.1205C60.2033 36.1205 61.4138 39.0145 61.3609 39.9635C61.308 40.9124 59.6912 44.3853 59.6912 44.8055C59.6912 45.2257 63.7457 59.017 63.7457 59.017C63.7457 59.017 59.1653 60.4918 55.0079 60.6477C52.3722 60.7109 49.7478 60.2825 47.269 59.3843L50.5193 43.7536L50.2549 36.3821C50.2549 36.3821 51.5712 31.9603 53.8725 31.6514C56.1738 31.3425 59.7302 35.2773 60.2033 36.1205Z" fill="#263238"/>
<path d="M59.4048 33.9027C59.4048 33.9027 59.6441 34.3785 60.8323 33.9806C62.0206 33.5827 62.143 33.1458 63.0947 33.3879C64.0464 33.63 64.3637 33.9444 65.115 33.9027C65.8663 33.861 65.9888 33.6634 65.9888 33.6634C65.9888 33.6634 66.306 33.5048 66.1864 33.783C66.0667 34.0613 65.5129 34.181 64.795 34.181C64.077 34.181 63.4036 33.7051 62.655 33.6634C61.9065 33.6216 61.5419 34.181 60.7516 34.3785C60.4021 34.4805 60.0432 34.5467 59.6803 34.5761L59.4048 33.9027Z" fill="#7A8590" stroke="#263238" stroke-width="0.5" stroke-miterlimit="10"/>
<path opacity="0.1" d="M59.4048 33.9027C59.4048 33.9027 59.6441 34.3785 60.8323 33.9806C62.0206 33.5827 62.143 33.1458 63.0947 33.3879C64.0464 33.63 64.3637 33.9444 65.115 33.9027C65.8663 33.861 65.9888 33.6634 65.9888 33.6634C65.9888 33.6634 66.306 33.5048 66.1864 33.783C66.0667 34.0613 65.5129 34.181 64.795 34.181C64.077 34.181 63.4036 33.7051 62.655 33.6634C61.9065 33.6216 61.5419 34.181 60.7516 34.3785C60.4021 34.4805 60.0432 34.5467 59.6803 34.5761L59.4048 33.9027Z" fill="black"/>
<path d="M59.4048 33.9027C59.4048 33.9027 59.6441 34.3785 60.8323 33.9806C62.0206 33.5827 62.143 33.1458 63.0947 33.3879C64.0464 33.63 64.3637 33.9444 65.115 33.9027C65.8663 33.861 65.9888 33.6634 65.9888 33.6634C65.9888 33.6634 66.306 33.5048 66.1864 33.783C66.0667 34.0613 65.5129 34.181 64.795 34.181C64.077 34.181 63.4036 33.7051 62.655 33.6634C61.9065 33.6216 61.5419 34.181 60.7516 34.3785C60.4021 34.4805 60.0432 34.5467 59.6803 34.5761L59.4048 33.9027Z" stroke="#263238" stroke-width="0.5" stroke-miterlimit="10"/>
<path d="M59.9224 35.8061C59.9224 35.8061 60.081 36.0844 61.1106 36.7968C62.1402 37.5091 63.4119 36.7188 64.2829 36.8775C64.2902 36.8219 64.2853 36.7655 64.2687 36.712C64.252 36.6585 64.2239 36.6093 64.1863 36.5677C64.1487 36.5262 64.1025 36.4933 64.051 36.4713C63.9995 36.4494 63.9438 36.4389 63.8878 36.4406C63.4509 36.4406 63.1337 36.9971 61.8647 36.6381C60.5958 36.2792 59.9613 34.9741 59.9224 35.8061Z" fill="#7A8590" stroke="#263238" stroke-width="0.5" stroke-miterlimit="10"/>
<path opacity="0.1" d="M59.9224 35.8061C59.9224 35.8061 60.081 36.0844 61.1106 36.7968C62.1402 37.5091 63.4119 36.7188 64.2829 36.8775C64.2902 36.8219 64.2853 36.7655 64.2687 36.712C64.252 36.6585 64.2239 36.6093 64.1863 36.5677C64.1487 36.5262 64.1025 36.4933 64.051 36.4713C63.9995 36.4494 63.9438 36.4389 63.8878 36.4406C63.4509 36.4406 63.1337 36.9971 61.8647 36.6381C60.5958 36.2792 59.9613 34.9741 59.9224 35.8061Z" fill="black"/>
<path d="M59.9224 35.8061C59.9224 35.8061 60.081 36.0844 61.1106 36.7968C62.1402 37.5091 63.4119 36.7188 64.2829 36.8775C64.2902 36.8219 64.2853 36.7655 64.2687 36.712C64.252 36.6585 64.2239 36.6093 64.1863 36.5677C64.1487 36.5262 64.1025 36.4933 64.051 36.4713C63.9995 36.4494 63.9438 36.4389 63.8878 36.4406C63.4509 36.4406 63.1337 36.9971 61.8647 36.6381C60.5958 36.2792 59.9613 34.9741 59.9224 35.8061Z" stroke="#263238" stroke-width="0.5" stroke-miterlimit="10"/>
<path d="M64.9559 36.5463C64.9559 36.4636 64.9314 36.3828 64.8854 36.3141C64.8394 36.2454 64.774 36.1919 64.6976 36.1604C64.6212 36.1289 64.5371 36.1208 64.456 36.1371C64.375 36.1535 64.3006 36.1935 64.2424 36.2522C64.1841 36.3108 64.1446 36.3854 64.1288 36.4666C64.113 36.5477 64.1216 36.6318 64.1537 36.708C64.1857 36.7842 64.2396 36.8492 64.3086 36.8947C64.3776 36.9403 64.4586 36.9643 64.5413 36.9637C64.596 36.9637 64.6501 36.9529 64.7006 36.9319C64.7511 36.9109 64.7969 36.8801 64.8355 36.8413C64.874 36.8025 64.9045 36.7565 64.9252 36.7058C64.9458 36.6552 64.9563 36.601 64.9559 36.5463Z" fill="#7A8590" stroke="#263238" stroke-width="0.5" stroke-miterlimit="10"/>
<path opacity="0.1" d="M64.9559 36.5463C64.9559 36.4636 64.9314 36.3828 64.8854 36.3141C64.8394 36.2454 64.774 36.1919 64.6976 36.1604C64.6212 36.1289 64.5371 36.1208 64.456 36.1371C64.375 36.1535 64.3006 36.1935 64.2424 36.2522C64.1841 36.3108 64.1446 36.3854 64.1288 36.4666C64.113 36.5477 64.1216 36.6318 64.1537 36.708C64.1857 36.7842 64.2396 36.8492 64.3086 36.8947C64.3776 36.9403 64.4586 36.9643 64.5413 36.9637C64.596 36.9637 64.6501 36.9529 64.7006 36.9319C64.7511 36.9109 64.7969 36.8801 64.8355 36.8413C64.874 36.8025 64.9045 36.7565 64.9252 36.7058C64.9458 36.6552 64.9563 36.601 64.9559 36.5463Z" fill="black"/>
<path d="M64.9559 36.5463C64.9559 36.4636 64.9314 36.3828 64.8854 36.3141C64.8394 36.2454 64.774 36.1919 64.6976 36.1604C64.6212 36.1289 64.5371 36.1208 64.456 36.1371C64.375 36.1535 64.3006 36.1935 64.2424 36.2522C64.1841 36.3108 64.1446 36.3854 64.1288 36.4666C64.113 36.5477 64.1216 36.6318 64.1537 36.708C64.1857 36.7842 64.2396 36.8492 64.3086 36.8947C64.3776 36.9403 64.4586 36.9643 64.5413 36.9637C64.596 36.9637 64.6501 36.9529 64.7006 36.9319C64.7511 36.9109 64.7969 36.8801 64.8355 36.8413C64.874 36.8025 64.9045 36.7565 64.9252 36.7058C64.9458 36.6552 64.9563 36.601 64.9559 36.5463Z" stroke="#263238" stroke-width="0.5" stroke-miterlimit="10"/>
<path d="M66.7425 33.6828C66.7425 33.6002 66.7181 33.5195 66.6722 33.4509C66.6263 33.3823 66.5611 33.3288 66.4849 33.2972C66.4086 33.2656 66.3247 33.2573 66.2437 33.2734C66.1627 33.2895 66.0884 33.3293 66.03 33.3876C65.9716 33.446 65.9318 33.5204 65.9157 33.6014C65.8996 33.6823 65.9079 33.7663 65.9395 33.8425C65.9711 33.9188 66.0246 33.984 66.0932 34.0299C66.1619 34.0757 66.2426 34.1002 66.3251 34.1002C66.4358 34.1002 66.542 34.0562 66.6203 33.978C66.6986 33.8997 66.7425 33.7935 66.7425 33.6828Z" fill="#7A8590" stroke="#263238" stroke-width="0.5" stroke-miterlimit="10"/>
<path opacity="0.1" d="M66.7425 33.6828C66.7425 33.6002 66.7181 33.5195 66.6722 33.4509C66.6263 33.3823 66.5611 33.3288 66.4849 33.2972C66.4086 33.2656 66.3247 33.2573 66.2437 33.2734C66.1627 33.2895 66.0884 33.3293 66.03 33.3876C65.9716 33.446 65.9318 33.5204 65.9157 33.6014C65.8996 33.6823 65.9079 33.7663 65.9395 33.8425C65.9711 33.9188 66.0246 33.984 66.0932 34.0299C66.1619 34.0757 66.2426 34.1002 66.3251 34.1002C66.4358 34.1002 66.542 34.0562 66.6203 33.978C66.6986 33.8997 66.7425 33.7935 66.7425 33.6828Z" fill="black"/>
<path d="M66.7425 33.6828C66.7425 33.6002 66.7181 33.5195 66.6722 33.4509C66.6263 33.3823 66.5611 33.3288 66.4849 33.2972C66.4086 33.2656 66.3247 33.2573 66.2437 33.2734C66.1627 33.2895 66.0884 33.3293 66.03 33.3876C65.9716 33.446 65.9318 33.5204 65.9157 33.6014C65.8996 33.6823 65.9079 33.7663 65.9395 33.8425C65.9711 33.9188 66.0246 33.984 66.0932 34.0299C66.1619 34.0757 66.2426 34.1002 66.3251 34.1002C66.4358 34.1002 66.542 34.0562 66.6203 33.978C66.6986 33.8997 66.7425 33.7935 66.7425 33.6828Z" stroke="#263238" stroke-width="0.5" stroke-miterlimit="10"/>
<path d="M60.2034 35.6475C60.0829 34.655 59.6389 33.7298 58.94 33.015C57.7824 31.8574 56.0459 31.0142 54.8354 30.3296C53.6249 29.6451 52.4144 29.6451 51.5713 30.171C50.7281 30.697 49.3618 33.2766 48.3071 34.2784C47.2524 35.2802 46.938 35.8562 47.8869 36.5407C48.8358 37.2253 49.4647 37.1724 50.6251 36.3292C51.7855 35.4861 52.4673 32.6978 53.6862 32.489C54.905 32.2803 56.8947 33.015 58.0022 33.9611C59.1098 34.9073 60.106 36.3292 60.2117 36.1205C60.2683 35.9674 60.2654 35.7985 60.2034 35.6475Z" fill="#7A8590" stroke="#263238" stroke-miterlimit="10"/>
<path opacity="0.1" d="M60.2034 35.6475C60.0829 34.655 59.6389 33.7298 58.94 33.015C57.7824 31.8574 56.0459 31.0142 54.8354 30.3296C53.6249 29.6451 52.4144 29.6451 51.5713 30.171C50.7281 30.697 49.3618 33.2766 48.3071 34.2784C47.2524 35.2802 46.938 35.8562 47.8869 36.5407C48.8358 37.2253 49.4647 37.1724 50.6251 36.3292C51.7855 35.4861 52.4673 32.6978 53.6862 32.489C54.905 32.2803 56.8947 33.015 58.0022 33.9611C59.1098 34.9073 60.106 36.3292 60.2117 36.1205C60.2683 35.9674 60.2654 35.7985 60.2034 35.6475Z" fill="black"/>
<path d="M60.2034 35.6475C60.0829 34.655 59.6389 33.7298 58.94 33.015C57.7824 31.8574 56.0459 31.0142 54.8354 30.3296C53.6249 29.6451 52.4144 29.6451 51.5713 30.171C50.7281 30.697 49.3618 33.2766 48.3071 34.2784C47.2524 35.2802 46.938 35.8562 47.8869 36.5407C48.8358 37.2253 49.4647 37.1724 50.6251 36.3292C51.7855 35.4861 52.4673 32.6978 53.6862 32.489C54.905 32.2803 56.8947 33.015 58.0022 33.9611C59.1098 34.9073 60.106 36.3292 60.2117 36.1205C60.2683 35.9674 60.2654 35.7985 60.2034 35.6475Z" stroke="#263238" stroke-miterlimit="10"/>
<path d="M54.2034 34.2255C54.2034 34.2255 53.2016 33.6995 52.0969 34.5928C50.9921 35.486 47.3662 40.9096 46.3588 42.2259C45.3515 43.5421 44.8868 44.0152 45.2012 44.9112C45.5157 45.8073 50.3076 50.858 50.6248 51.331C50.8598 51.6692 51.1233 51.9866 51.4123 52.28L52.7286 52.3328L54.0977 51.0166C53.6247 49.8776 53.08 48.7697 52.467 47.6995C51.4652 45.9631 50.4133 44.3324 50.4133 44.3324C50.4133 44.3324 55.3082 38.8031 55.6755 37.4896C55.8922 36.6736 55.8563 35.811 55.5725 35.0158" fill="#7A8590"/>
<path d="M54.2034 34.2255C54.2034 34.2255 53.2016 33.6995 52.0969 34.5928C50.9921 35.486 47.3662 40.9096 46.3588 42.2259C45.3515 43.5421 44.8868 44.0152 45.2012 44.9112C45.5157 45.8073 50.3076 50.858 50.6248 51.331C50.8598 51.6692 51.1233 51.9866 51.4123 52.28L52.7286 52.3328L54.0977 51.0166C53.6247 49.8776 53.08 48.7697 52.467 47.6995C51.4652 45.9631 50.4133 44.3324 50.4133 44.3324C50.4133 44.3324 55.3082 38.8031 55.6755 37.4896C55.8922 36.6736 55.8563 35.811 55.5725 35.0158" stroke="#263238" stroke-miterlimit="10"/>
<path opacity="0.1" d="M54.2034 34.2255C54.2034 34.2255 53.2016 33.6995 52.0969 34.5928C50.9921 35.486 47.3662 40.9096 46.3588 42.2259C45.3515 43.5421 44.8868 44.0152 45.2012 44.9112C45.5157 45.8073 50.3076 50.858 50.6248 51.331C50.8598 51.6692 51.1233 51.9866 51.4123 52.28L52.7286 52.3328L54.0977 51.0166C53.6247 49.8776 53.08 48.7697 52.467 47.6995C51.4652 45.9631 50.4133 44.3324 50.4133 44.3324C50.4133 44.3324 55.3082 38.8031 55.6755 37.4896C55.8922 36.6736 55.8563 35.811 55.5725 35.0158" fill="black"/>
<path d="M54.2034 34.2255C54.2034 34.2255 53.2016 33.6995 52.0969 34.5928C50.9921 35.486 47.3662 40.9096 46.3588 42.2259C45.3515 43.5421 44.8868 44.0152 45.2012 44.9112C45.5157 45.8073 50.3076 50.858 50.6248 51.331C50.8598 51.6692 51.1233 51.9866 51.4123 52.28L52.7286 52.3328L54.0977 51.0166C53.6247 49.8776 53.08 48.7697 52.467 47.6995C51.4652 45.9631 50.4133 44.3324 50.4133 44.3324C50.4133 44.3324 55.3082 38.8031 55.6755 37.4896C55.8922 36.6736 55.8563 35.811 55.5725 35.0158" stroke="#263238" stroke-miterlimit="10"/>
<path d="M54.0976 51.0166L55.2553 52.3857C55.2553 52.3857 53.5188 52.4915 52.7285 52.3328L54.0976 51.0166Z" fill="white" stroke="#263238" stroke-miterlimit="10"/>
<path d="M55.9399 52.3329H57.3619C57.3619 52.3329 58.0465 55.8586 57.835 57.3864" stroke="#263238" stroke-linecap="round" stroke-linejoin="round"/>
<path d="M50.8502 55.8057C50.8502 56.0617 50.8335 56.3093 50.8335 56.5431" stroke="#263238" stroke-linecap="round" stroke-linejoin="round"/>
<path d="M51.1508 52.4915C51.1508 52.4915 50.97 53.752 50.8726 55.174" stroke="#263238" stroke-linecap="round" stroke-linejoin="round"/>
<path d="M52.8013 44.0431C53.5126 44.6613 54.4275 44.9943 55.3697 44.9781" stroke="#263238" stroke-linecap="round" stroke-linejoin="round"/>
<path d="M53.9673 45.6014C54.771 45.7787 55.6085 45.7247 56.3827 45.4456" stroke="#263238" stroke-linecap="round" stroke-linejoin="round"/>
<path d="M56.4603 37.8125C56.4603 37.8125 56.6161 38.9813 54.7461 39.2039" stroke="#263238" stroke-linecap="round" stroke-linejoin="round"/>
<path d="M54.5127 39.6073C54.5127 39.6073 55.5256 40.0748 56.149 39.841" stroke="#263238" stroke-linecap="round" stroke-linejoin="round"/>
<path d="M47.5278 58.2517C47.5278 58.2517 50.9451 59.4093 54.3623 59.5179" stroke="#263238" stroke-linecap="round" stroke-linejoin="round"/>
<path d="M55.6841 59.5095C55.6841 59.5095 57.7238 59.401 58.9371 59.1812" stroke="#263238" stroke-linecap="round" stroke-linejoin="round"/>
<path d="M60.1504 58.85C61.1598 58.7188 62.1554 58.4971 63.1252 58.1877" stroke="#263238" stroke-linecap="round" stroke-linejoin="round"/>
<path d="M50.4134 44.338C50.3232 44.065 50.1778 43.8135 49.9863 43.599C49.7949 43.3846 49.5613 43.2118 49.3003 43.0913" stroke="#263238" stroke-linecap="round" stroke-linejoin="round"/>
<path d="M53.6777 32.489C53.6777 32.489 51.791 32.6226 51.1231 33.3489C50.4552 34.0752 49.2837 35.2968 49.2837 35.2968" stroke="#263238" stroke-linecap="round" stroke-linejoin="round"/>
</svg>
