<svg width="297" height="390" viewBox="0 0 297 390" fill="none" xmlns="http://www.w3.org/2000/svg">
<path d="M191.915 79.9763C191.915 79.9763 183.263 78.2732 175.676 90.2884C168.088 102.304 168.548 118.389 169 133.717C169.451 149.045 168.608 168.885 168.148 175.868C167.688 182.851 160.084 189.569 160.084 189.569L268.672 192.124C264.666 179.892 260.03 167.875 254.784 156.121C246.456 137.549 239.243 107.745 239.243 107.745C239.243 107.745 249.87 110.172 248.959 104.109C248.048 98.046 241.976 91.2081 225.286 82.565C208.596 73.9219 197.526 74.2114 191.915 79.9763Z" fill="black" stroke="black" stroke-width="2" stroke-miterlimit="10"/>
<path d="M151.449 388.753L155.724 357.586L283.915 348.032L294.729 389L151.449 388.753Z" fill="black" stroke="black" stroke-width="2" stroke-miterlimit="10"/>
<path d="M276.847 312.574C273.674 306.144 270.859 299.543 268.417 292.801C270.673 287.36 278.252 273.497 278.252 273.497L282.748 265.399C282.748 265.399 281.896 262.904 282.109 256.279C282.256 252.871 282.168 249.457 281.845 246.06C281.845 246.06 286.571 207.596 286.571 202.198C286.571 196.799 286.571 190.506 285.226 188.701C283.881 186.896 274.65 180.611 255.763 174.531C236.876 168.451 230.566 168.238 229.22 167.787C227.875 167.336 204.032 169.362 204.032 169.362C204.032 169.362 166.692 175.655 164.861 177.682C163.03 179.709 169.842 278.904 169.842 278.904C169.842 278.904 167.041 286.151 166.377 291.584C163.192 300.636 153.374 329.435 152.241 343.17C150.896 359.588 151.117 364.314 151.117 364.314C151.117 364.314 180.802 377.802 195.397 380.731C209.992 383.661 222.842 386.13 222.842 386.13L227.79 372.855L234.083 385.9C234.083 385.9 259.271 376.457 268.042 370.155C276.813 363.854 288.291 349.241 288.291 349.241C288.291 349.241 282.237 323.372 276.847 312.574Z" fill="#FFD95C" stroke="black" stroke-width="2" stroke-miterlimit="10"/>
<path d="M271.695 191.196C271.695 191.196 263.98 201.414 262.328 206.617" stroke="black" stroke-width="2" stroke-miterlimit="10"/>
<path d="M236.416 296.582C236.416 296.582 247.554 299.094 249.709 300.712C251.863 302.33 260.31 304.842 263.904 304.842C266.973 304.748 270.033 304.464 273.066 303.991L267.318 297.519C267.318 297.519 245.042 294.232 241.627 294.232C240.64 294.223 239.663 294.428 238.763 294.834C237.863 295.24 237.063 295.836 236.416 296.582Z" fill="black" stroke="black" stroke-width="2" stroke-miterlimit="10"/>
<path d="M226.402 356.803C226.862 361.444 227.16 364.467 227.16 364.782" stroke="black" stroke-width="2" stroke-miterlimit="10"/>
<path d="M220.705 301.487C220.705 301.487 224.111 334.271 225.985 352.656" stroke="black" stroke-width="2" stroke-miterlimit="10"/>
<path d="M226.419 247.653C226.521 248.504 226.632 249.279 226.742 249.884C227.645 254.601 226.521 260.451 224.273 262.027C222.025 263.602 220.015 270.542 220.867 271.47" stroke="black" stroke-width="2" stroke-miterlimit="10"/>
<path d="M225.397 230.988C225.397 230.988 225.61 237.69 226.036 243.412" stroke="black" stroke-width="2" stroke-miterlimit="10"/>
<path d="M209.805 160.855C209.805 160.855 206.782 160.668 206.024 161.613C205.267 162.559 199.425 169.729 199.212 171.236C198.999 172.743 198.642 195.93 198.642 197.838C198.642 199.745 201.281 205.766 202.601 202.368C203.921 198.97 204.866 194.636 206.195 192.371C207.523 190.106 210.904 194.823 210.904 194.823L233.172 200.861C233.172 200.861 240.341 196.705 241.687 194.048C243.032 191.392 242.819 201.976 244.523 202.351C246.226 202.726 247.733 199.899 246.03 193.486C244.327 187.074 244.71 174.804 242.257 167.446C239.805 160.089 238.102 159.519 234.142 159.331C230.183 159.144 209.805 160.855 209.805 160.855Z" fill="#FFD95C" stroke="black" stroke-width="2" stroke-miterlimit="10"/>
<path d="M206.782 147.137C206.782 147.137 208.298 165.019 208.298 168.076C208.298 171.133 207.54 183.549 210.572 191.741C213.603 199.932 222.255 226.79 224.077 227.854C225.899 228.919 227.866 226.339 231.204 217.687C234.542 209.035 242.13 196.305 240.767 183.532C239.405 170.759 233.478 145.451 233.478 145.451L206.782 147.137Z" fill="white" stroke="black" stroke-width="2" stroke-miterlimit="10"/>
<path d="M225.346 162.823L208.29 169.746L207.302 158.863L225.346 162.823Z" fill="black" stroke="black" stroke-width="2" stroke-miterlimit="10"/>
<path d="M213.075 198.86C216.907 209.972 222.629 227.003 224.077 227.812C225.899 228.876 227.866 226.296 231.204 217.645C232.967 213.089 235.896 207.426 238.085 201.167C234.072 202.976 229.659 203.714 225.276 203.309C220.893 202.905 216.689 201.372 213.075 198.86Z" fill="black" stroke="black" stroke-width="2" stroke-miterlimit="10"/>
<path d="M188.126 129.885C188.126 129.885 197.561 153.209 201.751 156.572C205.94 159.936 220.22 165.335 225.202 164.934C230.183 164.534 235.31 161.29 236.664 158.19C238.018 155.091 243.672 147.12 242.727 140.674C241.781 134.228 235.582 110.479 235.582 110.479C235.582 110.479 222.894 108.597 214.132 105.616C205.37 102.636 200.388 94.5463 200.388 94.5463C200.388 94.5463 198.77 110.181 194.998 118.67C191.226 127.16 188.126 129.885 188.126 129.885Z" fill="white" stroke="black" stroke-width="2" stroke-miterlimit="10"/>
<path d="M220.841 123.43C220.841 123.43 222.135 130.481 224.545 131.946C226.955 133.41 227.892 134.177 226.963 135.846C226.035 137.515 223.251 138.4 222.51 138.4" stroke="black" stroke-width="2" stroke-miterlimit="10"/>
<path d="M213.229 141.985C213.229 141.985 218.799 147.367 224.368 146.439" stroke="black" stroke-width="2" stroke-miterlimit="10"/>
<path d="M199.654 124.316C199.654 124.316 205.794 120.74 210.469 122.545" stroke="black" stroke-width="2" stroke-miterlimit="10"/>
<path d="M221.319 122.298C221.319 122.298 219.854 116.022 227.212 114.259" stroke="black" stroke-width="2" stroke-miterlimit="10"/>
<path d="M213.39 129.885C213.935 131.384 213.637 132.874 212.726 133.206C211.815 133.538 210.623 132.593 210.078 131.086C209.533 129.578 209.831 128.105 210.751 127.773C211.67 127.441 212.845 128.369 213.39 129.885Z" fill="black"/>
<path d="M230.174 124.086C230.719 125.585 230.421 127.075 229.501 127.407C228.582 127.739 227.406 126.794 226.861 125.295C226.316 123.796 226.614 122.306 227.526 121.974C228.437 121.642 229.629 122.587 230.174 124.086Z" fill="black"/>
<path d="M188.125 129.885L184.719 139.499C184.719 139.499 188.355 144.812 190.484 145.724C192.613 146.635 195.031 144.659 195.031 144.659L188.125 129.885Z" fill="white" stroke="black" stroke-width="2" stroke-miterlimit="10"/>
<path d="M187.163 272.143C187.163 272.143 232.371 279.568 242.513 279.568C252.655 279.568 261.63 279.117 262.754 278.666C263.878 278.215 278.082 276.869 279.172 278.896C280.262 280.922 279.853 284.746 279.853 284.746C280.377 286.954 280.603 289.222 280.526 291.49C280.408 293.344 279.787 295.131 278.729 296.659C278.989 297.21 279.085 297.824 279.005 298.428C278.925 299.033 278.673 299.601 278.278 300.065C276.924 301.862 276.702 303.471 274.224 303.888C271.746 304.306 266.135 302.986 265.232 302.764C264.329 302.543 254.886 301.41 252.408 300.065C250.689 299.074 248.881 298.245 247.009 297.587C245.157 297.168 243.28 296.866 241.389 296.684C241.389 296.684 197.279 299.341 190.799 298.907C184.319 298.473 180.231 298.464 180.231 298.464L187.163 272.143Z" fill="white" stroke="black" stroke-width="2" stroke-miterlimit="10"/>
<path d="M250.943 262.963C250.943 262.963 254.596 278.93 257.756 283.639C260.915 288.348 267.787 295.339 274.02 292.912C280.253 290.485 281.922 291.09 282.987 279.534C284.051 267.979 283.745 259.472 282.076 256.279C280.785 253.994 279.255 251.853 277.511 249.892L250.943 262.963Z" fill="#FFD95C" stroke="black" stroke-width="2" stroke-miterlimit="10"/>
<path d="M255.2 179.819C255.2 179.819 246.685 172.377 242.427 169.03C237.885 165.345 233.571 161.387 229.509 157.177C226.469 153.984 224.639 152.315 224.341 155.201C224.043 158.088 228.445 164.926 229.356 166.144C230.267 167.361 235.436 173.135 235.436 173.135C235.436 173.135 229.356 177.392 227.832 178.61C226.308 179.828 226.316 181.165 225.856 184.69C225.397 188.215 227.074 189.706 229.654 190.464C230.459 190.667 231.299 190.691 232.114 190.533C232.93 190.376 233.7 190.041 234.372 189.552C234.372 189.552 240.452 193.657 244.25 194.261C248.047 194.866 251.547 197.761 251.547 197.761C251.547 197.761 250.33 253.963 250.176 255.368C250.023 256.773 258.232 256.432 266.134 253.844C274.036 251.255 276.174 248.223 276.174 248.223C276.174 248.223 265.955 199.89 263.401 193.044C260.846 186.197 258.07 181.497 255.2 179.819Z" fill="white" stroke="black" stroke-width="2" stroke-miterlimit="10"/>
<path d="M234.381 189.552L230.43 186.359C230.43 186.359 230.276 187.73 229.519 188.181" fill="white"/>
<path d="M234.381 189.552L230.43 186.359C230.43 186.359 230.276 187.73 229.519 188.181" stroke="black" stroke-width="2" stroke-miterlimit="10"/>
<path d="M247.452 251.723C247.452 251.723 247.903 263.875 249.427 264.794C250.952 265.714 262.498 262.964 268.578 260.835C274.658 258.706 279.069 256.126 279.223 254.15C279.376 252.175 277.852 247.338 276.787 244.724C275.723 242.109 274.233 242.748 273.594 243.361C272.955 243.974 267.514 245.916 259.305 248.07C251.096 250.225 247.298 249.441 247.452 251.723Z" fill="#FFD95C" stroke="black" stroke-width="2" stroke-miterlimit="10"/>
<path d="M172.78 226.211C172.499 223.12 172.269 220.301 172.09 217.943L172.78 226.211Z" fill="#FFD95C"/>
<path d="M172.78 226.211C172.499 223.12 172.269 220.301 172.09 217.943" stroke="black" stroke-width="2" stroke-miterlimit="10"/>
<path d="M177.268 175.434C177.268 175.434 154.098 176.788 153.195 180.611C152.292 184.435 149.602 214.792 148.699 244.707C147.796 274.621 149.372 296.438 151.398 297.11C153.425 297.783 176.587 297.783 176.587 297.783L179.516 271.7L177.038 267.877C177.038 267.877 174.688 238.26 173.138 222.09" fill="#FFD95C"/>
<path d="M177.268 175.434C177.268 175.434 154.098 176.788 153.195 180.611C152.292 184.435 149.602 214.792 148.699 244.707C147.796 274.621 149.372 296.437 151.398 297.11C153.425 297.783 176.587 297.783 176.587 297.783L179.516 271.7L177.038 267.877C177.038 267.877 174.688 238.26 173.138 222.09" stroke="black" stroke-width="2" stroke-miterlimit="10"/>
<path d="M174.791 266.753C174.791 266.753 170.295 296.216 169.622 297.561C168.949 298.907 168.498 301.385 171.189 301.164C173.88 300.942 181.314 302.96 182.216 300.934C183.119 298.907 190.314 276.869 189.633 273.684C188.952 270.5 185.81 269.427 184.686 268.967C183.562 268.507 176.145 265.62 174.791 266.753Z" fill="#FFD95C" stroke="black" stroke-width="2" stroke-miterlimit="10"/>
<path d="M164.921 253.809C163.908 252.515 163.082 251.493 162.647 251.008" stroke="black" stroke-width="2" stroke-miterlimit="10"/>
<path d="M158.823 263.151L174.79 266.753C174.79 266.753 170.626 261.201 167.126 256.628" stroke="black" stroke-width="2" stroke-miterlimit="10"/>
<path d="M180.239 148.432C180.239 148.432 173.648 186.802 173.427 204.446C173.206 222.09 180.239 232.248 189.947 235.476C199.654 238.703 208.085 233.057 206.066 230.239C204.048 227.42 195.993 233.057 193.174 222.984C190.356 212.91 200.429 204.446 200.838 184.664C201.247 164.883 200.838 159.68 200.838 159.68" fill="black"/>
<path d="M180.239 148.432C180.239 148.432 173.648 186.802 173.427 204.446C173.206 222.09 180.239 232.248 189.947 235.476C199.654 238.703 208.085 233.057 206.066 230.239C204.048 227.42 195.993 233.057 193.174 222.984C190.356 212.91 200.429 204.446 200.838 184.664C201.247 164.883 200.838 159.68 200.838 159.68" stroke="black" stroke-width="2" stroke-miterlimit="10"/>
<path d="M163.967 56.6525C163.971 52.6748 162.98 48.7593 161.084 45.2624C159.189 41.7656 156.448 38.7987 153.112 36.6319C149.777 34.465 145.952 33.1672 141.986 32.8565C138.021 32.5458 134.04 33.2322 130.408 34.8531C128.849 31.7973 126.649 29.1139 123.958 26.9862C121.267 24.8584 118.149 23.3363 114.816 22.5239C111.483 21.7115 108.014 21.6278 104.646 22.2787C101.277 22.9295 98.0892 24.2995 95.2989 26.2952C94.1341 23.2133 92.3432 20.4062 90.0392 18.0511C87.7353 15.6959 84.9682 13.8439 81.9126 12.6117C78.857 11.3795 75.5791 10.794 72.2859 10.8921C68.9927 10.9902 65.7555 11.7697 62.7786 13.1815C59.1075 9.46804 54.3187 7.06246 49.148 6.33423C43.9772 5.606 38.7103 6.59538 34.1563 9.15042C29.6023 11.7055 26.013 15.6849 23.9397 20.4774C21.8664 25.27 21.4237 30.6106 22.6797 35.6791C17.2982 37.6551 12.5225 40.9955 8.8209 45.373C5.11926 49.7505 2.61869 55.0148 1.56433 60.6498C0.509977 66.2848 0.938023 72.097 2.80651 77.5168C4.67499 82.9365 7.91979 87.7776 12.2228 91.5656C10.6049 96.4815 10.6304 101.79 12.2954 106.69C13.9604 111.591 17.1745 115.816 21.4524 118.728C25.7304 121.641 30.8398 123.082 36.0091 122.835C41.1785 122.588 46.1271 120.666 50.1077 117.359C52.4882 123.167 56.4717 128.179 61.5934 131.809C66.7151 135.439 72.7636 137.537 79.0329 137.858C85.3022 138.18 91.5335 136.711 96.9996 133.624C102.466 130.537 106.941 125.959 109.903 120.424C115.23 122.609 121.124 122.998 126.692 121.532C132.259 120.067 137.198 116.827 140.76 112.303C144.321 107.779 146.311 102.218 146.428 96.4614C146.546 90.705 144.784 85.0672 141.41 80.402C147.492 80.0735 153.217 77.43 157.412 73.0137C161.606 68.5974 163.952 62.7433 163.967 56.6525Z" fill="black" stroke="black" stroke-width="2" stroke-miterlimit="10"/>
<path d="M147.626 131.425C152.795 128.902 155.438 123.687 153.529 119.778C151.621 115.869 145.884 114.745 140.715 117.268C135.547 119.791 132.903 125.006 134.812 128.915C136.72 132.824 142.457 133.948 147.626 131.425Z" fill="black" stroke="black" stroke-width="2" stroke-miterlimit="10"/>
<path d="M146.902 143.16C148.333 146.09 152.633 146.933 156.508 145.042C160.382 143.152 162.358 139.243 160.927 136.314C159.496 133.385 155.196 132.542 151.322 134.432C147.447 136.323 145.472 140.231 146.902 143.16Z" fill="black" stroke="black" stroke-width="2" stroke-miterlimit="10"/>
<path d="M166.785 51.5434C166.79 47.5657 165.799 43.6501 163.903 40.1533C162.007 36.6565 159.266 33.6895 155.931 31.5227C152.595 29.3559 148.77 28.058 144.805 27.7474C140.839 27.4367 136.859 28.1231 133.226 29.744C131.664 26.6904 129.46 24.0099 126.767 21.8855C124.074 19.7612 120.954 18.243 117.62 17.4347C114.286 16.6263 110.817 16.5468 107.45 17.2016C104.083 17.8563 100.897 19.2299 98.1088 21.2286C96.9435 18.1511 95.1538 15.3481 92.8523 12.996C90.5507 10.644 87.7872 8.79385 84.7357 7.56205C81.6842 6.33024 78.4107 5.74344 75.1213 5.83859C71.8319 5.93374 68.5978 6.70877 65.6226 8.1149C61.954 4.38884 57.1622 1.97211 51.9851 1.23689C46.808 0.501672 41.5328 1.48873 36.9718 4.04606C32.4108 6.60339 28.817 10.5892 26.7437 15.3896C24.6705 20.1901 24.2328 25.5389 25.4981 30.6126C20.1125 32.5874 15.3328 35.9284 11.6279 40.3076C7.92296 44.6869 5.42004 49.954 4.36468 55.5923C3.30932 61.2307 3.73777 67.0465 5.608 72.4693C7.47823 77.8921 10.726 82.7356 15.0327 86.5246C13.412 91.4418 13.4359 96.753 15.1008 101.655C16.7658 106.558 19.9812 110.785 24.2612 113.698C28.5412 116.612 33.6533 118.053 38.8247 117.804C43.9962 117.555 48.946 115.629 52.9262 112.318C55.305 118.125 59.2864 123.137 64.4058 126.767C69.5253 130.398 75.5716 132.498 81.8393 132.822C88.107 133.146 94.3376 131.681 99.8041 128.598C105.271 125.514 109.748 120.94 112.713 115.409C118.04 117.593 123.934 117.982 129.501 116.517C135.069 115.051 140.008 111.811 143.569 107.287C147.131 102.764 149.121 97.2022 149.238 91.4459C149.356 85.6895 147.594 80.0517 144.22 75.3865C150.319 75.0592 156.061 72.4035 160.259 67.967C164.458 63.5305 166.794 57.6518 166.785 51.5434Z" fill="white" stroke="black" stroke-width="2" stroke-miterlimit="10"/>
<path d="M150.433 126.363C155.601 123.84 158.244 118.625 156.336 114.716C154.428 110.807 148.691 109.683 143.522 112.206C138.353 114.729 135.71 119.944 137.618 123.853C139.527 127.762 145.264 128.886 150.433 126.363Z" fill="white" stroke="black" stroke-width="2" stroke-miterlimit="10"/>
<path d="M149.722 138.094C151.152 141.023 155.452 141.866 159.318 139.984C163.184 138.102 165.168 134.185 163.738 131.247C162.307 128.31 158.016 127.475 154.141 129.365C150.267 131.256 148.291 135.164 149.722 138.094Z" fill="white" stroke="black" stroke-width="2" stroke-miterlimit="10"/>
<path d="M106.718 56.4651C106.721 52.3522 105.733 48.2992 103.837 44.6491C101.942 40.999 99.1954 37.8591 95.8297 35.4952C92.4641 33.1313 88.5785 31.6129 84.5018 31.0686C80.4251 30.5242 76.2773 30.9698 72.4093 32.3678C68.5413 33.7657 65.067 36.0748 62.2803 39.0997C59.4936 42.1246 57.4765 45.7763 56.3998 49.7457C55.3231 53.7152 55.2184 57.8856 56.0946 61.904C56.9708 65.9225 58.8021 69.6707 61.4335 72.8316C65.2034 77.3539 67.2676 83.0553 67.2666 88.9428V92.4511H94.9501V88.9428C94.9442 83.061 97.0059 77.3643 100.775 72.8487C104.615 68.253 106.719 62.4542 106.718 56.4651Z" fill="#FFD95C" stroke="black" stroke-width="2" stroke-miterlimit="10"/>
<path opacity="0.44" d="M81.0865 74.4583C90.055 74.4583 97.3253 67.1879 97.3253 58.2194C97.3253 49.251 90.055 41.9806 81.0865 41.9806C72.118 41.9806 64.8477 49.251 64.8477 58.2194C64.8477 67.1879 72.118 74.4583 81.0865 74.4583Z" fill="white"/>
<path d="M94.9501 92.4768H67.2666V99.3232H94.9501V92.4768Z" fill="#D9D9D9" stroke="black" stroke-width="2" stroke-linecap="round" stroke-linejoin="round"/>
<path d="M67.2666 99.3401H94.9501V102.167C94.9501 103.235 94.5258 104.26 93.7704 105.015C93.0151 105.771 91.9906 106.195 90.9224 106.195H71.2944C70.2261 106.195 69.2017 105.771 68.4463 105.015C67.691 104.26 67.2666 103.235 67.2666 102.167V99.3401Z" fill="#D9D9D9" stroke="black" stroke-width="2" stroke-linecap="round" stroke-linejoin="round"/>
<path d="M70.7324 106.178H91.4248V107.566C91.4248 109.014 90.8497 110.402 89.8261 111.426C88.8025 112.449 87.4141 113.024 85.9664 113.024H76.2163C74.7687 113.024 73.3803 112.449 72.3567 111.426C71.333 110.402 70.758 109.014 70.758 107.566V106.178H70.7324Z" fill="white" stroke="black" stroke-width="2" stroke-linecap="round" stroke-linejoin="round"/>
<path d="M110.346 56.6013H122.08" stroke="black" stroke-width="2" stroke-linecap="round" stroke-linejoin="round"/>
<path d="M39.0381 56.6013H50.9171" stroke="black" stroke-width="2" stroke-linecap="round" stroke-linejoin="round"/>
<path d="M80.5596 26.8486V15.0803" stroke="black" stroke-width="2" stroke-linecap="round" stroke-linejoin="round"/>
<path d="M101.822 35.3385L109.92 27.2404" stroke="black" stroke-width="2" stroke-linecap="round" stroke-linejoin="round"/>
<path d="M51.1982 85.9625L59.4156 77.7451" stroke="black" stroke-width="2" stroke-linecap="round" stroke-linejoin="round"/>
<path d="M59.0665 35.1086L51.1982 27.2404" stroke="black" stroke-width="2" stroke-linecap="round" stroke-linejoin="round"/>
<path d="M109.92 85.9623L102.086 78.1282" stroke="black" stroke-width="2" stroke-linecap="round" stroke-linejoin="round"/>
</svg>
