<svg width="325" height="195" viewBox="0 0 325 195" fill="none" xmlns="http://www.w3.org/2000/svg">
<path d="M29.701 0.5H295.966C297.571 0.5 299.111 1.13777 300.246 2.27301C301.382 3.40825 302.019 4.94797 302.019 6.55345V181.201H23.6533V6.55345C23.6533 4.94898 24.2903 3.41014 25.4243 2.27506C26.5583 1.13999 28.0965 0.501534 29.701 0.5Z" fill="#636363" stroke="black" stroke-linejoin="round"/>
<path d="M162.79 8.40494C164.139 8.40494 165.232 7.31152 165.232 5.96272C165.232 4.61392 164.139 3.52051 162.79 3.52051C161.441 3.52051 160.348 4.61392 160.348 5.96272C160.348 7.31152 161.441 8.40494 162.79 8.40494Z" fill="black"/>
<path d="M26.2824 51.3522C26.0976 51.3507 25.921 51.2762 25.7909 51.1451C25.6609 51.0139 25.5879 50.8367 25.5879 50.6519V30.3966C25.5879 30.2124 25.6611 30.0358 25.7913 29.9056C25.9215 29.7753 26.0982 29.7021 26.2824 29.7021C26.4671 29.7021 26.6443 29.7751 26.7755 29.9052C26.9066 30.0353 26.9811 30.2119 26.9826 30.3966V50.6519C26.9826 50.8377 26.9088 51.0158 26.7775 51.1471C26.6462 51.2784 26.4681 51.3522 26.2824 51.3522Z" fill="black"/>
<path d="M290.747 14.6152H34.9453V159.175H290.747V14.6152Z" fill="black" stroke="black" stroke-linejoin="round"/>
<path d="M259.148 178.29H67.8223V181.93H259.148V178.29Z" fill="black" stroke="black" stroke-linejoin="round"/>
<path d="M1.1416 187.515C1.1416 187.515 4.28407 191.357 13.7115 194.5H313.265C313.265 194.5 320.25 192.764 323.392 187.862L1.1416 187.515Z" fill="black" stroke="black" stroke-linejoin="round"/>
<path d="M322.971 180.633H1.59379C0.989705 180.633 0.5 181.123 0.5 181.727V186.877C0.5 187.481 0.989705 187.971 1.59379 187.971H322.971C323.575 187.971 324.064 187.481 324.064 186.877V181.727C324.064 181.123 323.575 180.633 322.971 180.633Z" fill="#636363" stroke="black" stroke-linejoin="round"/>
<path d="M287.425 88.2285H206.925V154.845H287.425V88.2285Z" fill="white"/>
<path d="M239.125 132.709L232.377 138.155L232.262 154.909H262.326L260.787 136.615L253.802 131.766L239.125 132.709Z" fill="black" stroke="black" stroke-linejoin="round"/>
<path d="M238.673 125.967C238.673 125.967 238.204 133.78 238.673 135.082C239.142 136.384 240.924 140.869 247.082 141.448C254.299 142.183 256.035 133.895 256.035 133.895L255.56 125.967C255.56 125.967 250.931 127.032 247.042 126.546C243.153 126.059 238.534 125.504 238.534 125.504" fill="white"/>
<path d="M238.673 125.967C238.673 125.967 238.204 133.78 238.673 135.082C239.142 136.384 240.924 140.869 247.082 141.448C254.299 142.183 256.035 133.895 256.035 133.895L255.56 125.967C255.56 125.967 250.931 127.032 247.042 126.546C243.153 126.059 238.534 125.504 238.534 125.504" stroke="black" stroke-linejoin="round"/>
<path d="M248.165 128.762L241.475 125.868L238.535 125.498L238.65 125.973C238.65 125.973 238.407 130.024 238.448 132.796L248.165 131.152V128.762Z" fill="black" stroke="black" stroke-linejoin="round"/>
<path d="M232.146 111.997C232.146 111.997 231.312 114.601 231.787 116.627C232.261 118.652 236.283 120.296 236.283 120.296C236.283 120.296 236.642 124.677 237.707 125.857C238.772 127.038 243.494 130.828 245.52 131.424C247.545 132.021 249.189 132.003 250.491 131.187C251.793 130.371 256.643 127.044 257.355 125.267C257.96 123.559 258.474 121.821 258.894 120.058C258.894 120.058 261.261 119.705 262.21 117.807C263.159 115.909 263.275 113.073 263.275 112.246C263.275 111.418 260.908 109.641 259.369 108.461C257.829 107.28 248.477 101.591 246.822 101.476C245.167 101.36 243.031 101.95 242.325 102.633C241.619 103.316 232.146 111.997 232.146 111.997Z" fill="white" stroke="black" stroke-linejoin="round"/>
<path d="M245.08 120.521C245.842 121.16 246.812 121.495 247.806 121.465C249.345 121.349 249.814 120.521 249.814 120.521" stroke="black" stroke-linejoin="round"/>
<path d="M244.137 123.126C244.137 123.126 246.978 125.018 251 123.126" stroke="black" stroke-linejoin="round"/>
<path d="M244.606 115.087C244.606 115.087 242.361 112.246 239.397 114.138" stroke="black" stroke-linejoin="round"/>
<path d="M250.885 115.191C251.346 114.495 252.03 113.975 252.825 113.718C253.619 113.46 254.478 113.48 255.26 113.773" stroke="black" stroke-linejoin="round"/>
<path d="M243.303 114.364C243.303 114.2 243.255 114.04 243.164 113.904C243.073 113.768 242.943 113.662 242.792 113.599C242.641 113.536 242.474 113.52 242.314 113.552C242.153 113.584 242.006 113.663 241.89 113.779C241.774 113.894 241.695 114.042 241.663 114.203C241.631 114.363 241.648 114.53 241.71 114.681C241.773 114.832 241.879 114.961 242.015 115.052C242.152 115.143 242.312 115.192 242.475 115.192C242.695 115.192 242.906 115.105 243.061 114.949C243.216 114.794 243.303 114.584 243.303 114.364Z" fill="black"/>
<path d="M253.72 114.364C253.72 114.2 253.672 114.04 253.581 113.904C253.49 113.768 253.36 113.662 253.209 113.599C253.058 113.536 252.891 113.52 252.731 113.552C252.57 113.584 252.423 113.663 252.307 113.779C252.191 113.894 252.112 114.042 252.08 114.203C252.048 114.363 252.065 114.53 252.127 114.681C252.19 114.832 252.296 114.961 252.432 115.052C252.569 115.143 252.729 115.192 252.892 115.192C253.112 115.192 253.323 115.105 253.478 114.949C253.633 114.794 253.72 114.584 253.72 114.364Z" fill="black"/>
<path d="M245.618 112.118C244.584 111.575 243.422 111.321 242.256 111.383C241.09 111.445 239.962 111.821 238.991 112.471" stroke="black" stroke-width="2" stroke-miterlimit="10"/>
<path d="M256.527 112.118C255.493 111.575 254.331 111.321 253.165 111.383C251.999 111.445 250.871 111.821 249.9 112.471" stroke="black" stroke-width="2" stroke-miterlimit="10"/>
<path d="M245.283 103.472C245.283 103.472 243.628 107.263 242.089 108.802C240.549 110.342 237.586 111.285 237.586 111.285C237.205 112.028 236.77 112.742 236.284 113.421C235.931 113.774 236.053 117.559 236.053 117.917C236.053 118.276 234.629 116.853 234.629 116.025C234.604 115.348 234.524 114.675 234.392 114.011C233.717 113.741 233.081 113.382 232.499 112.946C232.025 112.472 231.435 112.587 231.435 111.407V109.393C231.435 109.393 228.83 109.04 229.305 106.551C229.779 104.063 234.866 95.5555 239.485 93.7672C244.103 91.979 247.06 93.8888 247.06 93.8888C249.366 92.6055 252.012 92.0677 254.636 92.3494C259.011 92.8239 264.931 101.105 266.117 105.012C267.304 108.918 266.117 111.997 265.539 112.119C264.793 112.201 264.043 112.24 263.293 112.234C263.293 112.234 263.172 112.587 262.228 113.299C261.43 113.804 260.548 114.165 259.624 114.364C259.754 115.232 259.713 116.116 259.503 116.968C259.329 117.471 259.092 117.95 258.797 118.392L258.322 112.119C256.228 111.438 254.269 110.396 252.535 109.04C251.089 107.907 249.846 106.538 248.86 104.989C248.86 104.989 249.931 107.356 249.439 107.593C248.947 107.83 245.758 105.828 245.283 103.472Z" fill="black" stroke="black" stroke-linejoin="round"/>
<path d="M238.419 134.133L236.996 154.846H210.953C210.953 154.846 215.218 144.787 216.989 143.723C218.76 142.658 233.193 137.09 233.193 137.09C233.193 137.09 234.137 135.672 235.323 134.249C236.51 132.825 238.182 133.184 238.419 134.133Z" fill="#550000" stroke="black" stroke-linejoin="round"/>
<path d="M233.21 137.078C232.737 139.603 232.103 142.094 231.312 144.538C230.368 147.021 229.182 148.444 229.304 148.919C229.425 149.393 230.959 149.498 231.908 148.207C232.857 146.916 235.218 143.473 235.959 143.473C236.7 143.473 237.261 148.444 237.261 148.444" stroke="black" stroke-linejoin="round"/>
<path d="M255.937 134.133L257.354 154.846H283.397C283.397 154.846 279.138 144.787 277.361 143.723C275.584 142.658 261.157 137.09 261.157 137.09C261.157 137.09 260.207 135.672 259.021 134.249C257.835 132.825 256.174 133.184 255.937 134.133Z" fill="#550000" stroke="black" stroke-linejoin="round"/>
<path d="M261.146 137.078C261.146 137.078 262.089 142.049 263.038 144.538C263.987 147.026 265.168 148.444 265.052 148.919C264.936 149.393 263.391 149.498 262.448 148.207C261.505 146.916 259.132 143.473 258.397 143.473C257.662 143.473 257.095 148.444 257.095 148.444" stroke="black" stroke-linejoin="round"/>
<path d="M202.822 88.2285H122.321V154.845H202.822V88.2285Z" fill="white"/>
<path d="M197.006 151.46C197.006 151.46 196.462 147.895 196.283 147.357C196.103 146.819 193.73 145.754 189.917 143.433C186.103 141.112 172.809 133.45 172.809 133.45H151.119C151.119 133.45 137.831 141.13 134.012 143.445C130.192 145.76 127.825 146.836 127.646 147.368C127.467 147.901 126.917 151.472 126.917 151.472L126.737 154.857H197.168L197.006 151.46Z" fill="black" stroke="black" stroke-linejoin="round"/>
<path d="M152.41 127.923C152.41 127.923 149.377 128.814 149.198 130.058C149.019 131.303 147.062 135.591 147.062 135.591C147.062 135.591 149.198 139.335 150.807 142.536C152.416 145.736 152.41 146.639 152.942 146.639C153.475 146.639 159.007 139.503 159.54 138.971C160.072 138.438 163.464 139.33 163.464 139.33C163.464 139.33 168.99 147.889 169.887 147.889C170.784 147.889 175.055 137.009 175.055 134.335C175.055 131.661 171.49 128.27 171.49 128.27L152.41 127.923Z" fill="white" stroke="black" stroke-linejoin="round"/>
<path d="M151.864 125.603C151.864 125.603 151.332 129.526 152.044 131.488C152.755 133.45 159.179 143.641 161.494 143.641C163.809 143.641 170.053 133.803 171.124 132.767C172.195 131.731 172.374 126.343 172.374 126.343C172.374 126.343 165.429 129.735 159.712 127.952C153.994 126.17 151.864 125.603 151.864 125.603Z" fill="#B8B8B8" stroke="black" stroke-linejoin="round"/>
<path d="M157.652 127.275C153.514 126.008 151.899 125.603 151.899 125.603C151.899 125.603 151.367 129.526 152.079 131.488C152.444 132.324 152.87 133.133 153.352 133.907L161.911 130.713L157.652 127.275Z" fill="black" stroke="black" stroke-linejoin="round"/>
<path d="M150.447 109.195C150.447 109.195 148.306 104.027 146.882 108.125C145.458 112.222 149.017 115.069 149.914 115.619C150.811 116.169 150.447 109.195 150.447 109.195Z" fill="#B8B8B8" stroke="black" stroke-linejoin="round"/>
<path d="M174.163 109.195C174.163 109.195 176.304 104.027 177.728 108.125C179.152 112.222 175.593 115.069 174.696 115.619C173.799 116.169 174.163 109.195 174.163 109.195Z" fill="#B8B8B8" stroke="black" stroke-linejoin="round"/>
<path d="M174.695 110.805C174.695 110.805 175.413 103.489 174.521 97.7832C173.63 92.077 165.962 89.0445 160.256 90.1152C154.55 91.1858 150.805 94.2183 150.088 99.3747C149.37 104.531 149.914 120.411 150.267 122.911C150.62 125.411 156.494 130.597 163.283 130.597C170.071 130.597 173.804 123.999 174.342 122.038C174.88 120.076 174.695 110.805 174.695 110.805Z" fill="#B8B8B8" stroke="black" stroke-linejoin="round"/>
<path d="M161.524 116.58C161.524 116.58 154.18 118.716 152.577 119.381C150.974 120.047 150.042 121.25 150.042 123.918C150.042 126.586 153.242 129.393 154.845 130.464C156.448 131.534 161.391 133.664 165.262 132.599C169.134 131.534 173.405 128.727 174.875 126.193C176.345 123.658 174.47 121.65 174.071 121.117C173.671 120.585 167.398 116.58 165.39 116.58H161.524Z" fill="white" stroke="black" stroke-linejoin="round"/>
<path d="M159.787 114.306C159.787 114.306 159.255 115.776 159.787 116.175C160.872 116.833 162.125 117.159 163.393 117.112C165.129 117.112 165.395 116.308 165.795 115.776C166.194 115.243 165.528 114.306 165.528 114.306" fill="#B8B8B8"/>
<path d="M159.787 114.306C159.787 114.306 159.255 115.776 159.787 116.175C160.872 116.833 162.125 117.159 163.393 117.112C165.129 117.112 165.395 116.308 165.795 115.776C166.194 115.243 165.528 114.306 165.528 114.306" stroke="black" stroke-linejoin="round"/>
<path d="M157.519 120.296C159.067 121.066 160.737 121.563 162.455 121.766C165.129 122.032 168.196 120.296 168.196 120.296C168.196 120.296 168.462 121.1 166.998 122.57C165.534 124.04 164.863 124.087 162.988 124.168C160.053 124.347 157.918 121.783 157.519 120.296Z" fill="#B8B8B8" stroke="black" stroke-linejoin="round"/>
<path d="M157.519 120.295C157.519 120.295 160.186 120.295 161.923 120.162C163.659 120.029 168.196 120.295 168.196 120.295C168.196 120.295 163.659 123.652 157.519 120.295Z" fill="#B8B8B8" stroke="black" stroke-linejoin="round"/>
<path d="M157.918 108.901C157.885 109.052 157.809 109.191 157.7 109.3C157.591 109.41 157.453 109.487 157.302 109.522C157.151 109.557 156.994 109.549 156.847 109.499C156.701 109.448 156.572 109.357 156.475 109.236C156.378 109.116 156.317 108.97 156.299 108.816C156.282 108.663 156.307 108.507 156.374 108.367C156.441 108.228 156.546 108.11 156.676 108.027C156.807 107.944 156.959 107.9 157.114 107.899C157.352 107.927 157.571 108.048 157.721 108.235C157.872 108.423 157.943 108.662 157.918 108.901Z" fill="black"/>
<path d="M168.196 109.903C168.638 109.903 168.995 109.454 168.995 108.901C168.995 108.348 168.638 107.899 168.196 107.899C167.755 107.899 167.397 108.348 167.397 108.901C167.397 109.454 167.755 109.903 168.196 109.903Z" fill="black"/>
<path d="M159.921 110.168C158.677 111.247 157.147 111.943 155.517 112.17" stroke="black" stroke-linejoin="round"/>
<path d="M165.662 110.839C166.257 111.435 166.965 111.907 167.743 112.228C168.522 112.549 169.357 112.712 170.199 112.708" stroke="black" stroke-linejoin="round"/>
<path d="M159.788 104.426C158.676 103.943 157.452 103.775 156.251 103.941C155.05 104.106 153.917 104.598 152.977 105.364" stroke="black" stroke-width="2" stroke-linejoin="round"/>
<path d="M165.396 104.56C166.379 104.112 167.472 103.962 168.54 104.129C169.607 104.295 170.603 104.771 171.403 105.498" stroke="black" stroke-width="2" stroke-linejoin="round"/>
<path d="M118.21 88.2285H37.71V154.845H118.21V88.2285Z" fill="white"/>
<path d="M75.083 93.4604C75.083 93.4604 72.0042 91.186 68.1383 93.7324C64.2725 96.2788 64.122 97.7487 63.85 101.366C63.578 104.983 63.5838 105.781 61.4425 108.062C59.3012 110.342 56.234 112.743 56.7549 117.836C57.2757 122.929 64.2783 124.532 66.2633 124.532C68.2483 124.532 75.2335 124.931 75.2335 124.931C75.2335 124.931 84.3426 126.668 89.7016 125.064C92.8386 124.165 95.6369 122.351 97.7401 119.856C97.7401 119.856 103.498 119.451 103.099 112.09C102.7 104.728 97.8905 104.722 95.5756 102.448C93.2607 100.174 93.9899 93.4604 89.0129 90.7809C84.0359 88.1014 75.2161 87.7021 75.083 93.4604Z" fill="black" stroke="black" stroke-linejoin="round"/>
<path d="M109.5 143.33C107.093 140.118 103.875 139.985 98.1169 138.509C92.3586 137.033 86.8723 135.037 86.3341 133.3C85.7959 131.564 84.5979 122.721 84.5979 122.721L78.1625 122.611H77.7863L71.3567 122.739C71.3567 122.739 70.153 131.576 69.6205 133.318C69.0881 135.06 63.596 137.068 57.8377 138.526C52.0794 139.985 48.8675 140.135 46.4542 143.347C44.041 146.559 42.7041 154.864 42.7041 154.864H113.251C113.251 154.864 111.931 146.547 109.5 143.33Z" fill="white" stroke="black" stroke-linejoin="round"/>
<path d="M78.5851 128.936L71.3337 122.709C71.3337 122.709 70.5582 128.386 69.9795 131.535L78.5851 128.936Z" fill="black" stroke="black" stroke-linejoin="round"/>
<path d="M109.501 143.329C107.094 140.117 103.876 139.984 98.1175 138.508C97.7876 138.427 97.4578 138.341 97.1337 138.248C92.0275 142.953 85.3771 145.629 78.4351 145.771C67.231 146.101 60.7204 140.285 58.8106 138.248L57.8094 138.508C52.0511 139.984 48.8392 140.117 46.4259 143.329C44.0126 146.541 42.6758 154.846 42.6758 154.846H113.251C113.251 154.846 111.932 146.547 109.501 143.329Z" fill="#550000" stroke="black" stroke-linejoin="round"/>
<path d="M75.7553 101.094C74.7726 102.737 73.5023 104.189 72.0051 105.382C69.5919 107.257 68.3881 106.852 67.3175 108.195C66.2469 109.537 67.1844 116.632 67.4506 119.306C67.7168 121.98 72.9427 127.073 74.3953 128.282C75.8479 129.492 77.7461 130.962 79.0829 130.29C80.4198 129.619 82.7 128.554 87.2545 122.767C88.4988 121.193 88.1921 119.416 88.4583 118.484C88.6113 118.006 88.7027 117.51 88.7303 117.009C88.7303 117.009 87.5207 117.68 86.7163 115.672C85.9119 113.664 86.8552 110.047 85.1132 108.727C83.3713 107.408 80.1594 106.187 78.1686 105.382C76.1777 104.578 75.7553 101.094 75.7553 101.094Z" fill="white" stroke="black" stroke-linejoin="round"/>
<path d="M76.4268 119.039C76.6728 119.426 77.0073 119.75 77.4027 119.982C77.7982 120.215 78.2432 120.35 78.7011 120.376C79.1048 120.378 79.4943 120.227 79.7924 119.955C80.0904 119.683 80.2751 119.308 80.31 118.906" stroke="black" stroke-linejoin="round"/>
<path d="M75.3506 121.719C75.3506 121.719 78.7014 123.993 81.3809 121.719" stroke="black" stroke-linejoin="round"/>
<path d="M73.8808 112.772C73.8808 113.513 73.5799 114.115 73.2095 114.115C72.8391 114.115 72.5439 113.536 72.5439 112.772C72.5439 112.008 72.8391 111.436 73.2095 111.436C73.5799 111.436 73.8808 112.008 73.8808 112.772Z" fill="black"/>
<path d="M84.0594 112.772C84.0594 113.513 83.7585 114.115 83.3881 114.115C83.0177 114.115 82.7168 113.536 82.7168 112.772C82.7168 112.008 83.0177 111.436 83.3881 111.436C83.7585 111.436 84.0594 112.008 84.0594 112.772Z" fill="black"/>
<path d="M73.2087 116.494C75.4269 116.494 77.2251 114.695 77.2251 112.477C77.2251 110.259 75.4269 108.461 73.2087 108.461C70.9906 108.461 69.1924 110.259 69.1924 112.477C69.1924 114.695 70.9906 116.494 73.2087 116.494Z" stroke="black" stroke-linejoin="round"/>
<path d="M83.655 116.494C85.8732 116.494 87.6713 114.695 87.6713 112.477C87.6713 110.259 85.8732 108.461 83.655 108.461C81.4369 108.461 79.6387 110.259 79.6387 112.477C79.6387 114.695 81.4369 116.494 83.655 116.494Z" stroke="black" stroke-linejoin="round"/>
<path d="M77.3643 111.672C77.3643 111.672 78.8348 110.601 79.6395 111.672" stroke="black" stroke-linejoin="round"/>
<path d="M69.1935 112.477H66.7793" stroke="black" stroke-linejoin="round"/>
<path d="M70.1299 108.722C70.8388 108.165 71.6783 107.798 72.5687 107.658C73.4591 107.517 74.3707 107.606 75.2169 107.917" stroke="black" stroke-linejoin="round"/>
<path d="M80.6807 108.391C81.4565 107.931 82.3371 107.677 83.2387 107.654C84.1402 107.631 85.0328 107.839 85.8313 108.258" stroke="black" stroke-linejoin="round"/>
<path d="M287.425 18.1738H206.925V84.7907H287.425V18.1738Z" fill="white"/>
<path d="M284.284 84.791C284.203 83.7146 283.746 77.8463 282.999 76.3416C282.172 74.6923 278.369 72.9214 275.088 71.0347C271.807 69.1481 261.28 62.6548 259.746 61.7115C258.43 60.9874 257.046 60.3943 255.614 59.9406L247.356 59.4834H247.176H247.003L238.738 59.9406C237.306 60.3943 235.922 60.9874 234.606 61.7115C233.073 62.6548 222.569 69.1423 219.264 71.0347C215.96 72.9272 212.181 74.6923 211.359 76.3416C210.607 77.8463 210.149 83.7146 210.068 84.791H284.284Z" fill="black" stroke="black" stroke-linejoin="round"/>
<path d="M245.816 84.7902H249.543C252.124 80.5424 256.603 73.1174 257.269 71.6243C258.212 69.5004 258.328 63.8347 257.506 61.5892C256.684 59.3438 255.377 59.1123 255.377 59.1123L239.213 58.875C239.213 58.875 236.852 62.1795 236.852 63.5974C236.852 65.0153 239.919 74.5931 241.337 77.29C242.176 78.8988 244.259 82.2902 245.816 84.7902Z" fill="white" stroke="black" stroke-linejoin="round"/>
<path d="M244.832 83.2048L245.816 84.7905H249.543L250.799 82.7129L248.767 79.0554L252.072 74.4256L247.118 70.415L244.051 75.2532L246.643 79.3853L244.832 83.2048Z" fill="#550000" stroke="black" stroke-linejoin="round"/>
<path d="M257.269 71.6243C258.212 69.5004 258.328 63.8347 257.506 61.5892C256.684 59.3438 255.377 59.1123 255.377 59.1123L239.213 58.875C239.213 58.875 236.852 62.1795 236.852 63.5974C236.852 65.0153 239.919 74.5931 241.337 77.29C241.51 77.6256 241.748 78.0481 242.014 78.5227L247.593 73.2736L253.42 78.3548C255.238 75.305 256.887 72.4866 257.269 71.6243Z" fill="white" stroke="black" stroke-linejoin="round"/>
<path d="M238.384 55.4785C238.384 55.4785 239.541 63.1466 240.27 65.039C241 66.9315 246.526 73.2974 247.591 73.2974C248.656 73.2974 255.259 65.6293 255.85 64.4487C256.44 63.2681 257.505 56.3003 257.505 56.3003C257.505 56.3003 251.718 58.43 248.535 58.43C245.352 58.43 238.384 55.4785 238.384 55.4785Z" fill="white" stroke="black" stroke-linejoin="round"/>
<path d="M248.367 62.3708L240.774 56.3926C239.373 55.8718 238.384 55.4551 238.384 55.4551C238.384 55.4551 238.997 59.4425 239.605 62.3708H248.367Z" fill="black" stroke="black" stroke-linejoin="round"/>
<path d="M236.26 43.9038C236.26 43.9038 235.195 41.6641 233.546 43.5508C231.897 45.4374 233.187 47.4456 234.252 49.4537C235.317 51.4619 236.498 52.168 236.966 51.8149C237.435 51.4619 236.26 43.9038 236.26 43.9038Z" stroke="black" stroke-linejoin="round"/>
<path d="M260.249 43.9038C260.249 43.9038 261.314 41.6641 262.963 43.5508C264.613 45.4374 263.316 47.4456 262.257 49.4537C261.198 51.4619 260.012 52.168 259.543 51.8149C259.074 51.4619 260.249 43.9038 260.249 43.9038Z" fill="white" stroke="black" stroke-linejoin="round"/>
<path d="M240.862 28.6605C240.862 28.6605 236.139 32.0866 235.318 35.0265C234.496 37.9664 236.475 52.0178 236.73 53.9102C236.984 55.8026 243.674 61.8156 245.821 62.7589C247.969 63.7022 250.897 63.2335 251.956 62.7589C253.015 62.2844 257.975 56.8559 258.901 55.3223C259.827 53.7887 261.383 40.8079 261.383 37.8564C261.383 34.9049 259.375 30.6571 256.754 28.8862C254.132 27.1153 250.388 25.7032 246.724 26.4093C244.648 26.7905 242.66 27.5538 240.862 28.6605Z" fill="white" stroke="black" stroke-linejoin="round"/>
<path d="M244.987 50.7333C244.987 50.7333 244.281 50.8491 245.34 51.5609C246.399 52.2727 247.702 53.3318 249.351 52.8573C251 52.3827 252.302 51.9139 252.071 50.2588" stroke="black" stroke-linejoin="round"/>
<path d="M243.923 54.981C246.909 55.87 250.106 55.7459 253.015 54.6279" stroke="black" stroke-linejoin="round"/>
<path d="M242.922 46.0172C243.28 46.0172 243.57 45.5403 243.57 44.952C243.57 44.3637 243.28 43.8867 242.922 43.8867C242.564 43.8867 242.273 44.3637 242.273 44.952C242.273 45.5403 242.564 46.0172 242.922 46.0172Z" fill="black"/>
<path d="M254.132 44.952C254.132 45.5309 253.842 46.0115 253.483 46.0115C253.124 46.0115 252.835 45.5367 252.835 44.952C252.835 44.3672 253.124 43.8867 253.483 43.8867C253.842 43.8867 254.132 44.3615 254.132 44.952Z" fill="black"/>
<path d="M240.41 41.8788C241.067 41.36 241.837 41.004 242.658 40.84C243.479 40.676 244.327 40.7088 245.133 40.9355" stroke="black" stroke-linejoin="round"/>
<path d="M251.25 40.9351C251.25 40.9351 254.433 39.9918 256.557 42.353" stroke="black" stroke-linejoin="round"/>
<path d="M235.316 35.0381C235.316 35.0381 236.612 35.2696 236.849 38.4583C237.086 41.6471 237.318 45.7734 236.728 45.9818C236.137 46.1901 236.149 45.403 235.078 43.1518C234.008 40.9006 234.621 35.3911 235.316 35.0381Z" fill="black" stroke="black" stroke-linejoin="round"/>
<path d="M260.809 35.2693C260.809 35.2693 259.652 38.2208 259.507 39.6387C259.363 41.0566 259.27 46.0046 260.086 46.2477C260.902 46.4908 261.151 45.3044 261.741 40.8193C262.331 36.3342 261.278 34.8006 260.809 35.2693Z" fill="black" stroke="black" stroke-linejoin="round"/>
<path d="M232.956 62.7705C232.353 63.2799 231.884 63.9298 231.59 64.6629C230.514 69.339 230.514 73.6505 229.438 78.3208C231.232 80.1206 234.108 79.3972 236.382 80.7109M236.382 80.7109C234.779 80.2422 234.854 81.7584 236.382 80.7109ZM236.382 80.7109L231.799 83.836" stroke="#6B6B6B" stroke-linejoin="round"/>
<path d="M261.4 62.6543C261.4 62.6543 264.705 67.3709 265.295 70.1777C265.885 72.9845 267.772 78.4419 267.772 78.4419L259.982 80.942L266.348 84.0092" stroke="#6B6B6B" stroke-linejoin="round"/>
<path d="M202.822 18.1738H122.321V84.7907H202.822V18.1738Z" fill="white"/>
<path d="M159.389 29.2681C159.389 29.2681 157.23 26.2125 154.539 28.7299C151.848 31.2474 146.09 38.9733 146.437 43.1054C146.784 47.2375 149.851 52.6254 149.851 54.6046C149.851 56.5839 148.596 62.128 150.569 64.3041C152.542 66.48 159.736 66.1039 159.736 66.1039L163.33 65.9245C163.33 65.9245 171.432 68.0773 175.367 65.9245C179.303 63.7716 177.682 53.7018 177.167 52.0872L176.623 50.4726C176.623 50.4726 177.885 42.3704 175.547 37.5323C173.209 32.6942 169.979 30.3445 166.744 29.8063C164.308 29.459 161.85 29.2791 159.389 29.2681Z" fill="black" stroke="black" stroke-linejoin="round"/>
<path d="M192.798 77.2443C190.819 75.0856 185.969 74.0092 179.32 70.7741C172.67 67.5391 169.979 65.9244 169.979 65.9244C167.19 64.8943 163.44 65.5483 162.161 65.8203C160.882 65.5483 157.137 64.8943 154.342 65.9244C154.342 65.9244 151.651 67.5391 145.001 70.7741C138.352 74.0092 133.502 75.0856 131.523 77.2443C129.544 79.4029 129.208 84.7677 129.208 84.7677H195.13C195.13 84.7677 194.772 79.3971 192.798 77.2443Z" fill="#550000" stroke="black" stroke-linejoin="round"/>
<path d="M157.218 63.2274C157.218 63.2274 155.962 61.6127 154.527 62.3303C153.092 63.048 150.21 68.6153 150.21 68.6153C150.21 68.6153 150.569 78.3205 152.01 79.0323C153.451 79.7441 154.527 73.465 154.903 72.7474C155.28 72.0297 161.547 75.7972 161.547 75.7972L166.941 73.2856C166.941 73.2856 169.256 79.7499 170.355 79.9351C171.455 80.1203 171.791 70.7681 171.432 68.6095C171.073 66.4509 168.538 63.0422 166.223 62.8628C164.599 62.8284 162.993 63.1983 161.547 63.9392L157.218 63.2274Z" fill="white" stroke="black" stroke-linejoin="round"/>
<path d="M155.604 57.6599C155.604 57.6599 155.784 66.2829 156.322 68.2564C156.86 70.2298 160.275 76.3585 161.895 76.7057C163.516 77.053 168.18 67.7181 168.18 67.7181L169.077 56.9365C169.077 56.9365 164.945 59.454 155.604 57.6599Z" fill="white" stroke="black" stroke-linejoin="round"/>
<path d="M162.688 59.6857L160.663 58.2736C158.964 58.193 157.273 57.988 155.604 57.6602C155.604 57.6602 155.68 61.3119 155.882 64.4023L164.019 61.9253L162.688 59.6857Z" fill="black" stroke="black" stroke-linejoin="round"/>
<path d="M159.197 30.7034C159.197 30.7034 161.512 25.4949 166.923 25.3155C172.334 25.1361 176.443 29.0887 177.705 32.6826C178.966 36.2765 183.631 51.2018 185.807 57.4809C187.983 63.7601 187.78 69.5184 184.192 75.4214C180.604 81.3243 171.969 82.9448 168.734 79.918C165.499 76.8913 164.064 67.516 166.223 62.8457C168.381 58.1754 168.376 55.6579 168.196 50.8082C168.017 45.9585 160.47 37.868 159.573 35.5357C159.038 33.9834 158.908 32.3199 159.197 30.7034Z" fill="black" stroke="black" stroke-linejoin="round"/>
<path d="M151.831 46.5199C151.831 46.5199 149.134 45.0789 149.313 47.5964C149.493 50.1138 151.628 52.2667 152.369 52.6255L153.087 52.9843L151.831 46.5199Z" stroke="black" stroke-linejoin="round"/>
<path d="M159.389 32.3291C159.389 32.3291 154.18 37.1788 152.919 40.0551C152.063 42.0992 151.695 44.3142 151.842 46.5252C152.222 50.0908 152.821 53.6297 153.636 57.1216C154.174 58.9215 158.006 62.5095 162.265 62.8741C166.953 63.2735 170.529 56.9422 170.529 56.9422C170.529 56.9422 171.785 47.2428 171.785 46.1606C171.785 45.0784 160.992 40.9463 159.389 32.3291Z" fill="white" stroke="black" stroke-linejoin="round"/>
<path d="M162.612 44.541C162.612 44.541 163.33 49.7495 163.33 50.8317C163.33 51.914 160.095 51.3699 160.095 51.3699" stroke="black" stroke-linejoin="round"/>
<path d="M159.197 53.5222C159.197 53.5222 162.432 55.322 163.868 53.3428" stroke="black" stroke-linejoin="round"/>
<path d="M158.301 45.1716C158.27 45.3255 158.196 45.4674 158.088 45.5809C157.98 45.6944 157.842 45.7748 157.689 45.8128C157.537 45.8508 157.377 45.8447 157.228 45.7954C157.08 45.746 156.948 45.6554 156.848 45.534C156.749 45.4126 156.686 45.2655 156.667 45.1098C156.648 44.9541 156.674 44.7962 156.741 44.6545C156.808 44.5128 156.915 44.3931 157.047 44.3094C157.18 44.2257 157.334 44.1814 157.49 44.1816C157.729 44.2065 157.948 44.3245 158.099 44.5099C158.251 44.6953 158.324 44.9331 158.301 45.1716Z" fill="black"/>
<path d="M166.566 45.1716C166.535 45.3255 166.461 45.4674 166.353 45.5809C166.245 45.6944 166.106 45.7748 165.954 45.8128C165.802 45.8508 165.642 45.8447 165.493 45.7954C165.344 45.746 165.212 45.6554 165.113 45.534C165.014 45.4126 164.951 45.2655 164.932 45.1098C164.913 44.9541 164.939 44.7962 165.006 44.6545C165.073 44.5128 165.179 44.3931 165.312 44.3094C165.444 44.2257 165.598 44.1814 165.755 44.1816C165.993 44.2065 166.212 44.3245 166.364 44.5099C166.516 44.6953 166.588 44.9331 166.566 45.1716Z" fill="black"/>
<path d="M155.245 42.9258C155.245 42.9258 155.783 40.9466 159.736 41.8436" stroke="black" stroke-linejoin="round"/>
<path d="M163.509 42.3823C163.509 42.3823 166.026 40.2294 169.076 42.9263" stroke="black" stroke-linejoin="round"/>
<path d="M118.21 18.1738H37.71V84.7907H118.21V18.1738Z" fill="white"/>
<path d="M112.176 79.7845C110.139 74.7554 107.621 72.481 107.621 72.481L87.9734 62.064L79.1131 60.6866V60.6172L78.8701 60.6519L78.6328 60.6172V60.6866L69.7667 62.0524L50.1249 72.4694C50.1249 72.4694 47.6074 74.7438 45.5703 79.7729L43.5332 84.8078H114.213L112.176 79.7845Z" fill="white" stroke="black" stroke-linejoin="round"/>
<path d="M79.4707 68.5V83.7146" stroke="black" stroke-linejoin="round"/>
<path d="M52.1611 74.4893C52.1611 74.4893 55.0548 81.4339 55.2747 84.669" stroke="black" stroke-linejoin="round"/>
<path d="M105.346 74.3682C105.346 74.3682 101.509 80.4795 100.195 84.6694" stroke="black" stroke-linejoin="round"/>
<path d="M79.3495 53.7656C89.8682 53.7656 98.3953 45.8552 98.3953 36.0971C98.3953 26.3391 89.8682 18.4287 79.3495 18.4287C68.8308 18.4287 60.3037 26.3391 60.3037 36.0971C60.3037 45.8552 68.8308 53.7656 79.3495 53.7656Z" fill="black" stroke="black" stroke-linejoin="round"/>
<path d="M70.8418 52.4463L71.3221 59.5125L79.349 68.1413L87.3759 60.1144V52.9266L78.8687 54.7207L70.8418 52.4463Z" fill="#B8B8B8" stroke="black" stroke-linejoin="round"/>
<path d="M75.298 53.7079L70.8418 52.4463L71.3221 59.5125L71.5247 59.7324L79.4879 57.7011L75.298 53.7079Z" fill="black" stroke="black" stroke-linejoin="round"/>
<path d="M69.6436 41.2937C69.6436 41.2937 67.4561 39.7312 67.4561 42.7C67.4715 43.592 67.6742 44.4707 68.0511 45.2792C68.4279 46.0878 68.9705 46.8081 69.6436 47.3935V41.2937Z" fill="#B8B8B8" stroke="black" stroke-linejoin="round"/>
<path d="M88.4062 41.2937C88.4062 41.2937 90.5938 39.7312 90.5938 42.7C90.5784 43.592 90.3757 44.4707 89.9988 45.2792C89.622 46.0878 89.0794 46.8081 88.4062 47.3935V41.2937Z" fill="#B8B8B8" stroke="black" stroke-linejoin="round"/>
<path d="M69.6447 38.3711C69.6447 38.3711 69.3322 49.9456 70.2698 52.4457C71.2073 54.9457 76.5258 58.2329 78.5571 58.6959C80.5884 59.1589 87.0007 55.4145 88.0944 52.9086C89.1882 50.4028 88.7195 36.4903 88.7195 36.4903C88.7195 36.4903 87.6257 29.9217 79.6509 29.6092C71.6761 29.2967 69.9572 34.4647 69.6447 38.3711Z" fill="#B8B8B8" stroke="black" stroke-linejoin="round"/>
<path d="M76.8371 48.377C76.8371 48.377 76.5246 48.8457 77.4621 49.4707C78.3997 50.0958 80.5872 50.7208 81.8373 48.6895" stroke="black" stroke-linejoin="round"/>
<path d="M75.7441 51.1904C75.7441 51.1904 79.338 52.6025 82.7756 51.1904" stroke="black" stroke-linejoin="round"/>
<path d="M75.4026 42.2028C75.4026 42.8454 75.0668 43.3607 74.6442 43.3607C74.2215 43.3607 73.8857 42.8397 73.8857 42.2028C73.8857 41.566 74.2273 41.0449 74.6442 41.0449C75.061 41.0449 75.4026 41.5891 75.4026 42.2028Z" fill="black"/>
<path d="M84.2454 42.2028C84.2454 42.8454 83.9096 43.3607 83.4869 43.3607C83.0643 43.3607 82.7285 42.8397 82.7285 42.2028C82.7285 41.566 83.0701 41.0449 83.4869 41.0449C83.9038 41.0449 84.2454 41.5891 84.2454 42.2028Z" fill="black"/>
<path d="M77.2084 40.2471H71.0507C71.0507 40.2471 69.8065 40.5191 70.4257 43.2217C70.8424 45.0447 75.2986 44.628 76.213 44.628C78.0128 44.628 78.3079 42.3131 78.0186 40.93C77.9788 40.7422 77.8775 40.5731 77.7307 40.4494C77.584 40.3257 77.4001 40.2545 77.2084 40.2471Z" stroke="black" stroke-linejoin="round"/>
<path d="M81.0102 40.2471H87.1505C87.1505 40.2471 88.4005 40.5191 87.7755 43.2217C87.3588 45.0447 82.9084 44.628 81.9883 44.628C80.1884 44.628 79.8875 42.3131 80.1768 40.93C80.2185 40.7389 80.3235 40.5675 80.4748 40.4436C80.626 40.3196 80.8147 40.2504 81.0102 40.2471Z" stroke="black" stroke-linejoin="round"/>
<path d="M77.4805 40.3447H80.5882" stroke="black" stroke-linejoin="round"/>
<path d="M78.168 41.5195C78.168 41.5195 78.8569 40.3616 80.1017 41.5195" stroke="black" stroke-linejoin="round"/>
<path d="M71.0507 40.2471L69.667 41.0402" stroke="black" stroke-linejoin="round"/>
<path d="M87.4277 40.4141L88.8809 41.242" stroke="black" stroke-linejoin="round"/>
<path d="M81.3857 39.6268C81.3857 39.6268 83.1856 38.3131 86.6579 39.6268" stroke="black" stroke-width="2" stroke-linejoin="round"/>
<path d="M77.3126 39.6268C77.3126 39.6268 74.419 38.3131 71.6816 39.6268" stroke="black" stroke-width="2" stroke-linejoin="round"/>
<path d="M71.2069 57.5967L79.3495 68.141L75.2753 72.9329L68.6895 62.7473L71.2069 57.5967Z" fill="white" stroke="black" stroke-linejoin="round"/>
<path d="M79.4707 68.5001L84.3783 73.4135L90.4896 62.6318L87.6133 58.5576L79.4707 68.5001Z" fill="white" stroke="black" stroke-linejoin="round"/>
</svg>
