<svg width="239" height="245" viewBox="0 0 239 245" fill="none" xmlns="http://www.w3.org/2000/svg">
<path d="M232.148 90.8461H124.585C121.445 90.8461 118.9 93.3911 118.9 96.5305V238.315C118.9 241.455 121.445 244 124.585 244H232.148C235.288 244 237.833 241.455 237.833 238.315V96.5305C237.833 93.3911 235.288 90.8461 232.148 90.8461Z" fill="white"/>
<mask id="mask0_843_1847" style="mask-type:luminance" maskUnits="userSpaceOnUse" x="118" y="90" width="120" height="154">
<path d="M232.147 90.8463H124.584C121.444 90.8463 118.899 93.3913 118.899 96.5307V238.315C118.899 241.455 121.444 244 124.584 244H232.147C235.287 244 237.832 241.455 237.832 238.315V96.5307C237.832 93.3913 235.287 90.8463 232.147 90.8463Z" fill="white"/>
</mask>
<g mask="url(#mask0_843_1847)">
<path opacity="0.3" d="M132.69 178.677V198.496C132.69 198.496 125.455 197.319 118.861 195.568V153.384C122.096 143.604 124.976 135.872 124.976 135.872C124.976 135.872 122.594 131.738 118.861 125.929V110.933L123.503 117.632L127.761 119.058L131.446 135.087L125.522 174.323L132.69 178.677Z" fill="black" fill-opacity="0.7"/>
</g>
<path d="M232.148 90.8461H124.585C121.445 90.8461 118.9 93.3911 118.9 96.5305V238.315C118.9 241.455 121.445 244 124.585 244H232.148C235.288 244 237.833 241.455 237.833 238.315V96.5305C237.833 93.3911 235.288 90.8461 232.148 90.8461Z" stroke="black" stroke-linecap="round" stroke-linejoin="round"/>
<path d="M124.585 90.8364H232.149C233.656 90.8364 235.102 91.4353 236.168 92.5014C237.234 93.5674 237.833 95.0132 237.833 96.5208V106.789H118.91V96.5783C118.903 95.8278 119.044 95.0832 119.326 94.3875C119.607 93.6918 120.024 93.0588 120.552 92.525C121.079 91.9912 121.707 91.5671 122.4 91.2773C123.092 90.9875 123.835 90.8377 124.585 90.8364Z" fill="#FFD95C" stroke="black" stroke-linecap="round" stroke-linejoin="round"/>
<path d="M138.174 231.808C143.924 231.808 148.585 227.146 148.585 221.396C148.585 215.646 143.924 210.984 138.174 210.984C132.423 210.984 127.762 215.646 127.762 221.396C127.762 227.146 132.423 231.808 138.174 231.808Z" fill="#FFD95C" stroke="black" stroke-linecap="round" stroke-linejoin="round"/>
<path d="M157.896 213.606H185.859" stroke="black" stroke-width="2" stroke-linecap="round" stroke-linejoin="round"/>
<path d="M157.896 223.176H226.1" stroke="black" stroke-width="2" stroke-linecap="round" stroke-linejoin="round"/>
<path d="M157.896 230.43H211.152" stroke="black" stroke-width="2" stroke-linecap="round" stroke-linejoin="round"/>
<path d="M142.431 227.894C141.809 227.894 139.963 226.506 140.594 225.368C141.226 224.229 142.431 222.344 142.431 222.344C142.974 221.287 143.278 220.124 143.321 218.937C143.57 217.166 142.565 214.152 138.173 214.152C133.78 214.152 132.776 217.176 133.034 218.937C133.077 220.123 133.378 221.285 133.914 222.344C133.914 222.344 135.12 224.257 135.752 225.368C136.383 226.478 134.546 227.894 133.914 227.894C132.891 228.118 131.891 228.438 130.929 228.851C130.929 228.851 135.12 231.798 138.173 231.798C141.226 231.798 145.427 228.851 145.427 228.851C144.461 228.439 143.458 228.118 142.431 227.894Z" fill="black"/>
<path d="M150.71 98.8273H206.032" stroke="white" stroke-width="3" stroke-linecap="round" stroke-linejoin="round"/>
<path d="M230.742 115.115H127.58V203.127H230.742V115.115Z" fill="white"/>
<mask id="mask1_843_1847" style="mask-type:luminance" maskUnits="userSpaceOnUse" x="127" y="115" width="104" height="89">
<path d="M230.742 115.115H127.58V203.127H230.742V115.115Z" fill="white"/>
</mask>
<g mask="url(#mask1_843_1847)">
<path opacity="0.4" d="M230.742 115.115H127.58V203.127H230.742V115.115Z" fill="#FFD95C"/>
</g>
<path d="M230.742 115.115H127.58V203.127H230.742V115.115Z" stroke="black" stroke-linecap="round" stroke-linejoin="round"/>
<path d="M125.121 124.225C124.148 132.257 122.22 140.144 119.379 147.719C114.9 159.116 109.446 173.882 109.455 182.993C109.455 189.816 144.423 194.161 144.423 194.161L147.045 172.418L128.862 171.787C128.862 171.787 130.776 165.021 131.532 151.317C131.963 143.594 137.762 127.488 137.762 127.488" fill="white"/>
<path d="M125.121 124.225C124.148 132.257 122.22 140.144 119.379 147.719C114.9 159.116 109.446 173.882 109.455 182.993C109.455 189.816 144.423 194.161 144.423 194.161L147.045 172.418L128.862 171.787C128.862 171.787 130.776 165.021 131.532 151.317C131.963 143.594 137.762 127.488 137.762 127.488" stroke="black" stroke-linecap="round" stroke-linejoin="round"/>
<path d="M162.979 167.136H180.683C180.683 167.136 183.42 161.959 197.047 163.002C210.674 164.045 214.081 167.136 214.081 167.136C214.081 167.136 226.196 169.825 230.742 172.418V203.127H158.366L155.409 199.242L131.552 195.548C131.552 195.548 131.552 172.504 135.38 167.136C135.38 167.136 139.542 167.069 139.925 169.72C139.887 169.72 156.921 167.136 162.979 167.136Z" fill="black"/>
<path d="M181.41 154.15C181.767 154.797 182.215 155.39 182.74 155.91C186.616 159.738 186.96 162.877 186.329 165.069C185.925 166.421 185.133 167.626 184.051 168.533C184.051 168.533 183.831 174.619 191.382 175.356C200.463 176.236 205.564 166.743 205.564 166.743C194.252 151.212 202.76 144.647 202.76 144.647C191.783 138.522 177.247 146.781 181.41 154.15Z" fill="white" stroke="black" stroke-linecap="round" stroke-linejoin="round"/>
<path opacity="0.2" d="M182.74 155.911C186.616 159.739 186.96 162.877 186.329 165.069C197.037 161.471 194.846 153.269 194.846 153.269C192.969 155.13 190.771 156.634 188.358 157.71C186.836 158.246 182.74 155.911 182.74 155.911Z" fill="black" fill-opacity="0.7"/>
<path d="M204.463 137.575C208.578 119.938 200.061 112.301 194.473 109.986C185.525 106.282 173.898 112.101 171.256 121.9C168.615 131.699 170.998 133.929 170.874 137.929C170.788 140.743 169.055 142.13 170.96 149.183C172.223 153.834 174.319 161.298 182.281 159.959C184.719 159.533 187.084 158.763 189.305 157.671" fill="white"/>
<path d="M204.463 137.575C208.578 119.938 200.061 112.301 194.473 109.986C185.525 106.282 173.898 112.101 171.256 121.9C168.615 131.699 170.998 133.929 170.874 137.929C170.788 140.743 169.055 142.13 170.96 149.183C172.223 153.834 174.319 161.298 182.281 159.959C184.719 159.533 187.084 158.763 189.305 157.671" stroke="black" stroke-linecap="round" stroke-linejoin="round"/>
<path d="M181.256 131.843C181.256 131.843 184.567 130.608 186.328 134.493" stroke="black" stroke-linecap="round" stroke-linejoin="round"/>
<path d="M170.013 129.785C170.013 129.785 173.467 129.039 174.941 131.546" stroke="black" stroke-linecap="round" stroke-linejoin="round"/>
<path d="M175.821 136.541C175.821 136.541 176.118 139.632 174.941 140.216C173.764 140.8 171.926 139.565 172.472 142.015C173.017 144.465 175.85 144.628 175.85 144.628" stroke="black" stroke-linecap="round" stroke-linejoin="round"/>
<path d="M181.917 137.355C181.917 138.178 182.281 138.838 182.73 138.838C183.18 138.838 183.553 138.178 183.553 137.355C183.553 136.532 183.19 135.872 182.73 135.872C182.271 135.872 181.917 136.532 181.917 137.355Z" fill="black" stroke="black" stroke-linecap="round" stroke-linejoin="round"/>
<path d="M172.472 136.541C172.472 137.364 172.845 138.025 173.295 138.025C173.744 138.025 174.118 137.364 174.118 136.541C174.118 135.718 173.744 135.058 173.295 135.058C172.845 135.058 172.472 135.728 172.472 136.541Z" fill="black" stroke="black" stroke-linecap="round" stroke-linejoin="round"/>
<path d="M181.917 147.039C181.917 147.039 178.309 149.039 174.94 148.169" stroke="black" stroke-linecap="round" stroke-linejoin="round"/>
<path d="M181.256 147.719C181.153 148.444 180.817 149.116 180.3 149.634C179.782 150.152 179.11 150.487 178.385 150.59C178.069 150.634 177.748 150.612 177.441 150.523C177.135 150.435 176.851 150.283 176.608 150.076C176.365 149.87 176.168 149.615 176.031 149.328C175.893 149.04 175.818 148.727 175.811 148.408" stroke="black" stroke-linecap="round" stroke-linejoin="round"/>
<path d="M167.992 128.005C167.992 128.005 163.619 123.909 167.323 115.239C171.026 106.569 202.061 105.048 208.692 115.182C215.324 125.316 210.042 144.743 199.735 151.317C199.735 151.317 201.754 142.924 195.027 140.58C195.027 140.58 189.036 133.881 191.438 125.919C191.438 125.919 188.127 126.484 187.237 129.029C187.237 129.029 182.672 128.072 182.376 124.005C181.762 125.739 181.476 127.573 181.534 129.412C181.534 129.412 174.835 127.795 174.356 124.799C174.06 125.415 173.957 126.105 174.062 126.78C174.166 127.455 174.472 128.082 174.94 128.579C173.719 128.564 172.517 128.275 171.424 127.731C170.33 127.188 169.373 126.405 168.624 125.441L167.992 128.005Z" fill="black"/>
<path d="M194.482 140.657C194.482 140.657 197.717 134.637 201.095 136.101C204.473 137.566 202.119 144.772 199.181 147.126C196.243 149.48 194.482 147.126 194.482 147.126" fill="white"/>
<path d="M194.482 140.657C194.482 140.657 197.717 134.637 201.095 136.101C204.473 137.566 202.119 144.772 199.181 147.126C196.243 149.48 194.482 147.126 194.482 147.126" stroke="black" stroke-linecap="round" stroke-linejoin="round"/>
<path d="M135.312 131.45C137.379 131.326 139.083 129.173 139.877 128.111C140.622 127.09 141.23 125.977 141.686 124.799C142.099 123.738 142.601 122.713 143.188 121.737C143.571 121.077 143.982 120.436 144.375 119.823C145.194 118.608 146.079 117.439 147.025 116.321C147.025 116.321 146.384 114.014 144.547 115.153C144.048 115.485 143.599 115.888 143.217 116.349C142.528 117.144 141.915 118.072 141.379 118.77C141.113 119.206 140.733 119.56 140.279 119.794C140.09 119.834 139.898 119.857 139.705 119.861H139.647H139.437C139.024 119.844 138.624 119.715 138.279 119.488C138.123 119.39 137.987 119.263 137.877 119.115C137.838 119.079 137.806 119.037 137.781 118.991C137.71 118.87 137.646 118.746 137.59 118.617C137.301 117.897 137.114 117.14 137.035 116.368C136.897 115.213 136.842 114.049 136.872 112.885C136.872 112.454 136.872 112.014 136.92 111.603C136.965 110.536 137.064 109.473 137.217 108.416C137.322 107.67 137.427 106.856 137.513 106.052C137.599 105.248 137.647 104.492 137.657 103.775C137.657 101.679 137.36 100.071 136.135 100.435C134.91 100.799 134.958 101.535 134.757 103.363C134.681 104.004 134.594 104.76 134.451 105.679C134.179 107.278 133.802 108.857 133.322 110.407C133.264 110.598 133.197 110.799 133.13 111.009H132.374C132.326 111.153 132.231 110.856 132.135 110.253C131.902 108.636 131.762 107.006 131.714 105.373C131.714 104.626 131.714 103.842 131.714 103.047C131.714 102.253 131.714 101.622 131.781 100.913C131.963 97.4013 129.752 98.4348 129.178 99.4875C128.807 100.665 128.667 101.903 128.766 103.134C128.766 103.918 128.766 104.732 128.766 105.497C128.766 105.89 128.766 106.263 128.766 106.617C128.68 108.091 128.613 109.622 128.556 110.675C128.556 110.828 128.556 110.962 128.556 111.086L127.599 111.507C127.533 111.354 127.476 111.197 127.427 111.038C126.921 109.638 126.534 108.197 126.269 106.732C126.087 105.727 126.001 104.923 125.915 104.301C125.752 103.114 125.589 102.54 124.766 102.387C123.943 102.234 123.417 103.469 123.302 105.019C123.214 106.234 123.301 107.455 123.561 108.646C123.618 108.875 123.675 109.076 123.742 109.268C124.059 110.329 124.242 111.425 124.288 112.531C124.288 112.742 124.288 112.971 124.336 113.201L123.809 113.89C123.647 113.612 123.513 113.335 123.379 113.077C122.944 112.205 122.557 111.311 122.221 110.397C121.972 109.646 121.684 108.908 121.359 108.186C121.082 107.66 120.785 107.392 120.307 107.421C119.57 107.421 119.35 108.502 119.513 109.746C119.589 110.491 119.743 111.225 119.972 111.938C120.129 112.461 120.344 112.965 120.613 113.44C121.071 114.355 121.427 115.318 121.675 116.311C121.781 116.713 121.895 117.134 122.001 117.546C122.383 119.029 122.69 120.416 122.785 120.914C122.785 121.029 122.785 121.096 122.785 121.096C122.843 122.254 122.91 123.23 123.005 124.082C123.151 126.093 123.722 128.05 124.68 129.824C125.159 130.78 126.479 131.288 128.068 131.584" fill="white"/>
<path d="M135.312 131.45C137.379 131.326 139.083 129.173 139.877 128.111C140.622 127.09 141.23 125.977 141.686 124.799C142.099 123.738 142.601 122.713 143.188 121.737C143.571 121.077 143.982 120.436 144.375 119.823C145.194 118.608 146.079 117.439 147.025 116.321C147.025 116.321 146.384 114.014 144.547 115.153C144.048 115.485 143.599 115.888 143.217 116.349C142.528 117.144 141.915 118.072 141.379 118.77C141.113 119.206 140.733 119.56 140.279 119.794C140.09 119.834 139.898 119.857 139.705 119.861H139.647H139.437C139.024 119.844 138.624 119.715 138.279 119.488C138.123 119.39 137.987 119.263 137.877 119.115C137.838 119.079 137.806 119.037 137.781 118.991C137.71 118.87 137.646 118.746 137.59 118.617C137.301 117.897 137.114 117.14 137.035 116.368C136.897 115.213 136.842 114.049 136.872 112.885C136.872 112.454 136.872 112.014 136.92 111.603C136.965 110.536 137.064 109.473 137.217 108.416C137.322 107.67 137.427 106.856 137.513 106.052C137.599 105.248 137.647 104.492 137.657 103.775C137.657 101.679 137.36 100.071 136.135 100.435C134.91 100.799 134.958 101.535 134.757 103.363C134.681 104.004 134.594 104.76 134.451 105.679C134.179 107.278 133.802 108.857 133.322 110.407C133.264 110.598 133.197 110.799 133.13 111.009H132.374C132.326 111.153 132.231 110.856 132.135 110.253C131.902 108.636 131.762 107.006 131.714 105.373C131.714 104.626 131.714 103.842 131.714 103.047C131.714 102.253 131.714 101.622 131.781 100.913C131.963 97.4013 129.752 98.4348 129.178 99.4875C128.807 100.665 128.667 101.903 128.766 103.134C128.766 103.918 128.766 104.732 128.766 105.497C128.766 105.89 128.766 106.263 128.766 106.617C128.68 108.091 128.613 109.622 128.556 110.675C128.556 110.828 128.556 110.962 128.556 111.086L127.599 111.507C127.533 111.354 127.476 111.197 127.427 111.038C126.921 109.638 126.534 108.197 126.269 106.732C126.087 105.727 126.001 104.923 125.915 104.301C125.752 103.114 125.589 102.54 124.766 102.387C123.943 102.234 123.417 103.469 123.302 105.019C123.214 106.234 123.301 107.455 123.561 108.646C123.618 108.875 123.675 109.076 123.742 109.268C124.059 110.329 124.242 111.425 124.288 112.531C124.288 112.742 124.288 112.971 124.336 113.201L123.809 113.89C123.647 113.612 123.513 113.335 123.379 113.077C122.944 112.205 122.557 111.311 122.221 110.397C121.972 109.646 121.684 108.908 121.359 108.186C121.082 107.66 120.785 107.392 120.307 107.421C119.57 107.421 119.35 108.502 119.513 109.746C119.589 110.491 119.743 111.225 119.972 111.938C120.129 112.461 120.344 112.965 120.613 113.44C121.071 114.355 121.427 115.318 121.675 116.311C121.781 116.713 121.895 117.134 122.001 117.546C122.383 119.029 122.69 120.416 122.785 120.914C122.785 121.029 122.785 121.096 122.785 121.096C122.843 122.254 122.91 123.23 123.005 124.082C123.151 126.093 123.722 128.05 124.68 129.824C125.159 130.78 126.479 131.288 128.068 131.584" stroke="black" stroke-linecap="round" stroke-linejoin="round"/>
<path d="M137.781 119.029C137.781 119.029 133.265 118.857 131.925 123.192" stroke="black" stroke-linecap="round" stroke-linejoin="round"/>
<path d="M128.863 171.787C128.608 172.716 128.15 173.577 127.521 174.307C126.892 175.037 126.108 175.618 125.227 176.007" stroke="black" stroke-linecap="round" stroke-linejoin="round"/>
<path d="M143.807 76.8415H209.017L216.312 86.418V52.7886C216.312 51.2656 215.707 49.8049 214.63 48.7275C213.554 47.6501 212.094 47.0441 210.571 47.0427H143.807C142.284 47.0441 140.824 47.6501 139.747 48.7275C138.671 49.8049 138.066 51.2656 138.066 52.7886V71.1063C138.068 72.6278 138.673 74.0866 139.75 75.162C140.826 76.2375 142.285 76.8415 143.807 76.8415Z" fill="#FFD95C" stroke="black" stroke-linecap="round" stroke-linejoin="round"/>
<path d="M145.579 61.5032C145.577 62.8031 145.832 64.0906 146.328 65.2921C146.825 66.4936 147.553 67.5855 148.471 68.5055C149.39 69.4254 150.48 70.1554 151.681 70.6537C152.882 71.152 154.169 71.4088 155.469 71.4095C155.824 71.4085 156.18 71.3889 156.533 71.351C158.432 71.1434 160.23 70.3905 161.71 69.1832C163.19 67.9758 164.289 66.3657 164.874 64.5474C165.458 62.7291 165.504 60.7803 165.005 58.9365C164.507 57.0927 163.485 55.4328 162.063 54.1572C160.641 52.8817 158.88 52.0452 156.994 51.7487C155.107 51.4522 153.174 51.7084 151.43 52.4864C149.685 53.2644 148.203 54.5309 147.163 56.1329C146.123 57.7348 145.569 59.6037 145.568 61.5138L145.579 61.5032Z" fill="#999999" stroke="black" stroke-linecap="round" stroke-linejoin="round"/>
<path d="M205.771 53.9271H189.566" stroke="white" stroke-width="2" stroke-linecap="round" stroke-linejoin="round"/>
<path d="M205.771 57.9653H173.036" stroke="white" stroke-width="2" stroke-linecap="round" stroke-linejoin="round"/>
<path d="M205.771 62.0033H177.186" stroke="white" stroke-width="2" stroke-linecap="round" stroke-linejoin="round"/>
<path d="M205.771 66.036H173.036" stroke="white" stroke-width="2" stroke-linecap="round" stroke-linejoin="round"/>
<path d="M205.771 70.0742H185.778" stroke="white" stroke-width="2" stroke-linecap="round" stroke-linejoin="round"/>
<path d="M149.963 69.7175C151.588 70.8195 153.506 71.4088 155.469 71.4094C155.825 71.4084 156.18 71.3888 156.533 71.3509L156.895 70.2123L157.47 68.9514L156.757 68.3768L151.304 64.0195L150.623 66.2115C150.724 66.4615 150.271 68.43 149.963 69.7175Z" fill="white" stroke="black" stroke-linecap="round" stroke-linejoin="round"/>
<path d="M153.425 67.35C153.425 67.35 154.41 70.0101 156.905 70.2016L157.479 68.9407L156.767 68.3661C155.218 67.8075 153.425 67.35 153.425 67.35Z" fill="black"/>
<path d="M151.559 55.1293C153.528 52.3947 159.859 54.8792 160.817 58.0608C161.774 61.2423 160.997 68.4938 158.747 69.2599C153.022 71.2231 146.84 61.7158 151.559 55.1293Z" fill="white" stroke="black" stroke-linecap="round" stroke-linejoin="round"/>
<path d="M154.996 58.6409C154.996 58.6409 156.246 57.5023 159.529 57.7737L158.544 58.8696C158.544 58.8696 161.263 59.3485 161.902 57.8694C162.54 56.3904 158.38 49.5858 151.261 53.8207C145.052 57.513 150.639 66.185 150.639 66.185L151.24 65.0624L152.165 64.0835C152.165 64.0835 150.346 62.3225 151.633 60.8913C152.921 59.4602 154.081 61.5883 154.081 61.5883C154.081 61.5883 155.475 60.0082 154.996 58.6409Z" fill="black"/>
<path d="M155.708 60.5827C156.292 60.46 156.895 60.46 157.479 60.5827" stroke="black" stroke-linecap="round" stroke-linejoin="round"/>
<path d="M159.875 60.5349C160.186 60.4066 160.517 60.3328 160.854 60.3168" stroke="black" stroke-linecap="round" stroke-linejoin="round"/>
<path d="M156.948 62.2428C156.948 62.5992 156.789 62.8865 156.597 62.8865C156.406 62.8865 156.246 62.5992 156.246 62.2428C156.246 61.8863 156.406 61.599 156.597 61.599C156.789 61.599 156.948 61.8863 156.948 62.2428Z" fill="black"/>
<path d="M160.227 62.2428C160.227 62.5992 160.072 62.8865 159.875 62.8865C159.679 62.8865 159.53 62.5992 159.53 62.2428C159.53 61.8863 159.684 61.599 159.875 61.599C160.067 61.599 160.227 61.8863 160.227 62.2428Z" fill="black"/>
<path d="M159.252 62.2427C159.412 63.0277 159.62 63.8024 159.874 64.5623L159.252 65.0943" fill="white"/>
<path d="M159.252 62.2427C159.412 63.0277 159.62 63.8024 159.874 64.5623L159.252 65.0943" stroke="black" stroke-linecap="round" stroke-linejoin="round"/>
<path d="M159.252 65.7542C158.254 65.8806 157.244 65.8806 156.246 65.7542C156.273 66.1498 156.438 66.5235 156.712 66.8102C156.986 67.0969 157.352 67.2786 157.746 67.3236C159.199 67.5418 158.709 66.1319 158.709 66.1319" fill="white"/>
<path d="M159.252 65.7542C158.254 65.8806 157.244 65.8806 156.246 65.7542C156.273 66.1498 156.438 66.5235 156.712 66.8102C156.986 67.0969 157.352 67.2786 157.746 67.3236C159.199 67.5418 158.709 66.1319 158.709 66.1319" stroke="black" stroke-linecap="round" stroke-linejoin="round"/>
<path d="M93.8453 6.27301V147.991C93.8453 149.389 93.2898 150.73 92.3009 151.719C91.312 152.708 89.9709 153.264 88.5724 153.264H6.27291C5.58046 153.264 4.89479 153.127 4.25505 152.862C3.61531 152.597 3.03404 152.209 2.5444 151.719C2.05477 151.23 1.66637 150.648 1.40138 150.009C1.13639 149.369 1 148.683 1 147.991V6.27301C1 5.58056 1.13639 4.8949 1.40138 4.25516C1.66637 3.61542 2.05477 3.03414 2.5444 2.5445C3.03404 2.05487 3.61531 1.66647 4.25505 1.40148C4.89479 1.13649 5.58046 1.00011 6.27291 1.00011H23.8716C24.87 0.993717 25.8497 1.27092 26.6968 1.79948C27.5438 2.32804 28.2234 3.08622 28.6565 3.98585C29.0872 4.88799 29.766 5.6488 30.6134 6.17925C31.4607 6.7097 32.4416 6.98786 33.4413 6.98118H60.5906C61.5902 6.98786 62.5712 6.7097 63.4185 6.17925C64.2659 5.6488 64.9447 4.88799 65.3754 3.98585C65.8085 3.08622 66.4881 2.32804 67.3351 1.79948C68.1822 1.27092 69.1619 0.993717 70.1603 1.00011H88.6872C90.0657 1.03014 91.3776 1.5989 92.3417 2.58453C93.3059 3.57016 93.8456 4.89422 93.8453 6.27301Z" fill="#FFD95C"/>
<mask id="mask2_843_1847" style="mask-type:luminance" maskUnits="userSpaceOnUse" x="1" y="1" width="93" height="153">
<path d="M93.8453 6.27301V147.991C93.8453 149.389 93.2898 150.73 92.3009 151.719C91.312 152.708 89.9709 153.264 88.5724 153.264H6.27291C5.58046 153.264 4.89479 153.127 4.25505 152.862C3.61531 152.597 3.03404 152.209 2.5444 151.719C2.05477 151.23 1.66637 150.648 1.40138 150.009C1.13639 149.369 1 148.683 1 147.991V6.27301C1 5.58056 1.13639 4.8949 1.40138 4.25516C1.66637 3.61542 2.05477 3.03414 2.5444 2.5445C3.03404 2.05487 3.61531 1.66647 4.25505 1.40148C4.89479 1.13649 5.58046 1.00011 6.27291 1.00011H23.8716C24.87 0.993717 25.8497 1.27092 26.6968 1.79948C27.5438 2.32804 28.2234 3.08622 28.6565 3.98585C29.0872 4.88799 29.766 5.6488 30.6134 6.17925C31.4607 6.7097 32.4416 6.98786 33.4413 6.98118H60.5906C61.5902 6.98786 62.5712 6.7097 63.4185 6.17925C64.2659 5.6488 64.9447 4.88799 65.3754 3.98585C65.8085 3.08622 66.4881 2.32804 67.3351 1.79948C68.1822 1.27092 69.1619 0.993717 70.1603 1.00011H88.6872C90.0657 1.03014 91.3776 1.5989 92.3417 2.58453C93.3059 3.57016 93.8456 4.89422 93.8453 6.27301Z" fill="white"/>
</mask>
<g mask="url(#mask2_843_1847)">
<path opacity="0.5" d="M93.8453 6.27301V147.991C93.8453 149.389 93.2898 150.73 92.3009 151.719C91.312 152.708 89.9709 153.264 88.5724 153.264H6.27291C5.58046 153.264 4.89479 153.127 4.25505 152.862C3.61531 152.597 3.03404 152.209 2.5444 151.719C2.05477 151.23 1.66637 150.648 1.40138 150.009C1.13639 149.369 1 148.683 1 147.991V6.27301C1 5.58056 1.13639 4.8949 1.40138 4.25516C1.66637 3.61542 2.05477 3.03414 2.5444 2.5445C3.03404 2.05487 3.61531 1.66647 4.25505 1.40148C4.89479 1.13649 5.58046 1.00011 6.27291 1.00011H23.8716C24.87 0.993717 25.8497 1.27092 26.6968 1.79948C27.5438 2.32804 28.2234 3.08622 28.6565 3.98585C29.0872 4.88799 29.766 5.6488 30.6134 6.17925C31.4607 6.7097 32.4416 6.98786 33.4413 6.98118H60.5906C61.5902 6.98786 62.5712 6.7097 63.4185 6.17925C64.2659 5.6488 64.9447 4.88799 65.3754 3.98585C65.8085 3.08622 66.4881 2.32804 67.3351 1.79948C68.1822 1.27092 69.1619 0.993717 70.1603 1.00011H88.6872C90.0657 1.03014 91.3776 1.5989 92.3417 2.58453C93.3059 3.57016 93.8456 4.89422 93.8453 6.27301Z" fill="white"/>
<path opacity="0.3" d="M93.9513 83.3667L93.2144 82.6489L86.5156 92.7067L86.573 119.77L89.2621 119.894L91.6833 111.444C92.5185 110.42 93.2766 109.336 93.9513 108.2V83.3667Z" fill="black" fill-opacity="0.7"/>
<path d="M93.8447 6.27301V14.8857H1.01855V6.27301C1.01855 5.58056 1.15494 4.8949 1.41993 4.25516C1.68491 3.61542 2.07332 3.03414 2.56295 2.5445C3.05259 2.05487 3.63387 1.66647 4.27361 1.40148C4.91335 1.13649 5.59901 1.00011 6.29146 1.00011H23.871C24.8694 0.993717 25.8491 1.27092 26.6962 1.79948C27.5432 2.32804 28.2228 3.08622 28.6559 3.98585C29.0889 4.88548 29.7685 5.64367 30.6155 6.17223C31.4626 6.70079 32.4423 6.97799 33.4407 6.9716H60.59C61.5884 6.97799 62.5681 6.70079 63.4152 6.17223C64.2622 5.64367 64.9418 4.88548 65.3748 3.98585C65.8079 3.08622 66.4875 2.32804 67.3345 1.79948C68.1816 1.27092 69.1613 0.993717 70.1597 1.00011H88.6866C90.0651 1.03014 91.377 1.5989 92.3411 2.58453C93.3053 3.57015 93.845 4.89422 93.8447 6.27301Z" fill="black"/>
</g>
<path d="M93.8453 6.27301V147.991C93.8453 149.389 93.2898 150.73 92.3009 151.719C91.312 152.708 89.9709 153.264 88.5724 153.264H6.27291C5.58046 153.264 4.89479 153.127 4.25505 152.862C3.61531 152.597 3.03404 152.209 2.5444 151.719C2.05477 151.23 1.66637 150.648 1.40138 150.009C1.13639 149.369 1 148.683 1 147.991V6.27301C1 5.58056 1.13639 4.8949 1.40138 4.25516C1.66637 3.61542 2.05477 3.03414 2.5444 2.5445C3.03404 2.05487 3.61531 1.66647 4.25505 1.40148C4.89479 1.13649 5.58046 1.00011 6.27291 1.00011H23.8716C24.87 0.993717 25.8497 1.27092 26.6968 1.79948C27.5438 2.32804 28.2234 3.08622 28.6565 3.98585C29.0872 4.88799 29.766 5.6488 30.6134 6.17925C31.4607 6.7097 32.4416 6.98786 33.4413 6.98118H60.5906C61.5902 6.98786 62.5712 6.7097 63.4185 6.17925C64.2659 5.6488 64.9447 4.88799 65.3754 3.98585C65.8085 3.08622 66.4881 2.32804 67.3351 1.79948C68.1822 1.27092 69.1619 0.993717 70.1603 1.00011H88.6872C90.0657 1.03014 91.3776 1.5989 92.3417 2.58453C93.3059 3.57016 93.8456 4.89422 93.8453 6.27301Z" stroke="black" stroke-linecap="round" stroke-linejoin="round"/>
<path d="M5.21094 102.429V37.6138H89.2617V135.292" fill="#BFBFBF"/>
<path d="M5.21094 102.429V37.6138H89.2617V135.292" stroke="black" stroke-miterlimit="10"/>
<path d="M54.1879 76.065C50.427 86.5055 47.0871 93.9603 49.403 100.229C51.7189 106.497 52.4366 109.884 48.6374 113.779C44.8383 117.674 48.6374 124.114 48.6374 124.114C48.6374 124.114 41.2305 124.172 40.1491 117.282C39.0677 110.392 37.2782 102.592 31.7373 101.071C26.1965 99.549 13.2199 99.4342 6.99007 101.071C6.99007 101.071 5.20054 97.147 9.6983 93.0416C12.5692 90.3908 12.2534 82.515 12.196 76.0363C12.1386 69.5576 15.421 50.1981 30.9718 54.514C46.5225 58.8299 54.1879 76.065 54.1879 76.065Z" fill="black"/>
<path d="M5.21094 102.429C5.21094 102.429 8.93355 97.1756 27.0586 100.228C45.1836 103.281 54.3705 107.176 55.4519 108.525C56.5333 109.875 67.0313 121.396 67.0313 121.396C67.0313 121.396 66.1795 132.268 63.6436 135.32H5.21094V102.429Z" fill="#FFD95C" stroke="black" stroke-linecap="round" stroke-linejoin="round"/>
<path d="M52.9727 122.928C52.9727 122.928 57.7575 130.88 57.8819 135.292" stroke="black" stroke-linecap="round" stroke-linejoin="round"/>
<path d="M22.0819 83.9694C22.0819 83.9694 24.503 98.5919 19.4502 99.2809C19.4502 99.2809 22.4264 107.157 34.7617 105.482C34.7617 105.482 32.599 96.6684 38.2642 93.7975C43.9295 90.9265 22.0819 83.9694 22.0819 83.9694Z" fill="white" stroke="black" stroke-linecap="round" stroke-linejoin="round"/>
<path d="M22.5608 88.228C14.5414 77.3472 22.3407 59.2413 30.8673 56.5522C46.753 51.5473 51.4804 62.8013 51.7293 68.8493C51.9398 73.9787 48.265 80.1224 48.4947 83.2039C49.0689 90.9362 40.9346 98.6398 36.4656 98.5824C33.6808 98.5824 30.9726 97.0321 28.1304 94.5823" fill="white"/>
<path d="M22.5608 88.228C14.5414 77.3472 22.3407 59.2413 30.8673 56.5522C46.753 51.5473 51.4804 62.8013 51.7293 68.8493C51.9398 73.9787 48.265 80.1224 48.4947 83.2039C49.0689 90.9362 40.9346 98.6398 36.4656 98.5824C33.6808 98.5824 30.9726 97.0321 28.1304 94.5823" stroke="black" stroke-linecap="round" stroke-linejoin="round"/>
<path d="M28.6562 73.7396C29.2893 72.7116 30.1978 71.8815 31.2786 71.3436C32.3595 70.8058 33.5695 70.5815 34.7713 70.6964" stroke="black" stroke-linecap="round" stroke-linejoin="round"/>
<path d="M44.8105 72.2176C44.8105 72.2176 48.3896 71.8252 49.4136 75.165" stroke="black" stroke-linecap="round" stroke-linejoin="round"/>
<path d="M34.7911 77.0791C34.6667 78.0361 34.1308 78.8016 33.5949 78.7251C33.059 78.6485 32.7145 77.7681 32.8389 76.8111C32.9633 75.8542 33.4992 75.0982 34.0447 75.1651C34.5902 75.2321 34.9156 76.103 34.7911 77.0791Z" fill="black"/>
<path d="M46.15 78.2754C46.0161 79.2324 45.4802 79.9884 44.9443 79.9214C44.4084 79.8544 44.0734 78.9644 44.1978 78.0074C44.3222 77.0505 44.8581 76.2849 45.394 76.3519C45.9299 76.4189 46.2744 77.2897 46.15 78.2754Z" fill="black"/>
<path d="M40.1396 80.5337C40.464 81.469 41.0442 82.2945 41.8143 82.9165C42.8862 83.5673 40.1396 85.8927 40.1396 85.8927" stroke="black" stroke-linecap="round" stroke-linejoin="round"/>
<path d="M41.097 88.7257C41.097 88.7257 36.4557 88.2376 33.7666 85.7495" stroke="black" stroke-linecap="round" stroke-linejoin="round"/>
<path d="M34.1973 86.0842C34.1973 86.0842 34.7906 89.625 37.2309 90.4959C39.6712 91.3667 40.4272 88.5819 40.4272 88.5819" stroke="black" stroke-linecap="round" stroke-linejoin="round"/>
<path d="M21.958 75.1653C22.6569 75.4046 23.2936 75.7968 23.8217 76.3134C24.3498 76.8299 24.756 77.4577 25.0108 78.151C25.0108 78.151 42.064 76.1797 47.0977 65.3372C47.0977 65.3372 50.6385 67.7105 50.3418 78.9453C50.3418 78.9453 55.8827 78.2659 55.4042 69.4426C54.9257 60.6193 42.2937 47.4323 30.9631 54.5426C30.9631 54.5426 23.5275 51.4516 17.6517 62.0548C11.7759 72.658 14.9147 85.4145 22.0442 87.271C22.0633 87.271 19.6326 80.5339 21.958 75.1653Z" fill="black"/>
<path d="M23.7187 76.9834C23.7187 76.9834 20.6182 73.0216 19.0679 74.3326C17.5176 75.6437 16.9243 81.2994 19.0679 83.2133C21.2115 85.1273 22.7618 86.8498 23.1159 85.0603" fill="white"/>
<path d="M23.7187 76.9834C23.7187 76.9834 20.6182 73.0216 19.0679 74.3326C17.5176 75.6437 16.9243 81.2994 19.0679 83.2133C21.2115 85.1273 22.7618 86.8498 23.1159 85.0603" stroke="black" stroke-linecap="round" stroke-linejoin="round"/>
<path d="M32.6472 71.4329C32.6472 71.4329 19.8143 81.6151 18.5511 85.2037C15.2017 94.6682 17.6707 97.807 17.6707 97.807C17.6707 97.807 10.3403 97.5008 12.6657 83.5482C13.3156 79.5006 14.854 75.6473 17.1706 72.2652C19.4871 68.8831 22.5241 66.0562 26.0633 63.9877L32.6472 71.4329Z" fill="black"/>
<path d="M64.1593 118.229L70.2456 124.114C70.2456 124.114 71.2026 120.287 73.1165 120.507C73.1918 119.149 73.1918 117.788 73.1165 116.43C73.1165 116.43 75.5759 114.851 81.1646 116.43C83.0214 116.983 84.7198 117.97 86.1193 119.31C87.5188 120.649 88.5792 122.303 89.2128 124.134C89.6817 125.464 87.6529 127.502 87.6529 127.502C87.6529 127.502 89.7104 132.43 89.0596 135.292H59.3936" fill="#FFD95C"/>
<path d="M64.1593 118.229L70.2456 124.114C70.2456 124.114 71.2026 120.287 73.1165 120.507C73.1918 119.149 73.1918 117.788 73.1165 116.43C73.1165 116.43 75.5759 114.851 81.1646 116.43C83.0214 116.983 84.7198 117.97 86.1193 119.31C87.5188 120.649 88.5792 122.303 89.2128 124.134C89.6817 125.464 87.6529 127.502 87.6529 127.502C87.6529 127.502 89.7104 132.43 89.0596 135.292H59.3936" stroke="black" stroke-linecap="round" stroke-linejoin="round"/>
<path d="M77.3662 119.416C78.2562 115.31 80.0457 109.645 78.8974 105.377L89.1944 104.851C85.6823 113.416 85.1272 124.143 85.1272 124.143C85.1272 124.143 80.9549 123.435 79.0122 121.224" fill="white"/>
<path d="M77.3662 119.416C78.2562 115.31 80.0457 109.645 78.8974 105.377L89.1944 104.851C85.6823 113.416 85.1272 124.143 85.1272 124.143C85.1272 124.143 80.9549 123.435 79.0122 121.224" stroke="black" stroke-linecap="round" stroke-linejoin="round"/>
<path d="M79.5103 106.87C78.0078 106.19 77.3475 103.999 77.0604 102.879C76.7919 101.838 76.6536 100.768 76.6489 99.6925C76.6394 98.7306 76.5562 97.7708 76.4001 96.8216C76.3044 96.1804 76.18 95.5488 76.0556 94.9651C75.7997 93.7561 75.4803 92.5614 75.0986 91.386C75.0986 91.386 76.2374 89.6922 77.2805 91.1276C77.5633 91.5391 77.7827 91.9907 77.9313 92.4674C78.2184 93.2999 78.4193 94.2282 78.6203 94.9459C78.6854 95.3646 78.8679 95.7561 79.1466 96.0752C79.272 96.1687 79.4107 96.2429 79.5581 96.2953L79.7112 96.3527C80.0243 96.4396 80.3551 96.4396 80.6682 96.3527C80.8127 96.3091 80.9486 96.2412 81.0701 96.1517C81.111 96.14 81.1475 96.1167 81.1754 96.0847C81.2654 96.0057 81.3487 95.9193 81.4242 95.8263C81.8515 95.3216 82.2088 94.7615 82.4864 94.1612C82.9163 93.2612 83.2872 92.3342 83.5965 91.386C83.7114 91.0319 83.8358 90.6683 83.9315 90.3238C84.2377 89.2998 84.4769 88.3524 84.6205 87.6634C84.764 86.9744 84.898 86.3332 85.0703 85.6537C85.2425 84.9743 85.4148 84.3523 85.6062 83.7398C86.1803 82.0173 86.8789 80.8115 87.7019 81.4431C88.5249 82.0747 88.2665 82.668 87.8933 84.2087C87.7689 84.7446 87.6158 85.3954 87.4627 86.1801C87.207 87.5525 87.0376 88.9397 86.9555 90.3333V90.8788L87.5105 91.1085C87.5105 91.2425 87.6637 91.0224 87.9125 90.5534C88.5465 89.308 89.1151 88.0303 89.6159 86.7256C89.8455 86.1322 90.0848 85.5006 90.2953 84.8116C90.5059 84.1226 90.6877 83.6441 90.8599 83.0604C91.7212 80.1894 93.0801 81.6153 93.2141 82.6201C93.1503 83.6825 92.9009 84.7254 92.4772 85.7016C92.2571 86.3428 92.0274 87.0031 91.8265 87.6155C91.7244 87.9345 91.6287 88.2535 91.5394 88.5725C91.1853 89.7879 90.8025 91.0511 90.5824 91.9315C90.5824 92.0463 90.5059 92.1611 90.4772 92.2664L91.0513 92.8693L91.3193 92.5344C92.095 91.5303 92.7925 90.4682 93.4055 89.3572C93.8266 88.5917 94.1232 87.9601 94.3625 87.4433C94.8218 86.4863 95.1089 86.1035 95.7692 86.2088C96.4295 86.3141 96.4678 87.4624 96.1137 88.7543C95.8319 89.762 95.4167 90.7275 94.8792 91.6252C94.7831 91.7814 94.6776 91.9316 94.5634 92.075C94.0286 92.8556 93.5824 93.6933 93.2332 94.5727L93.0036 95.1086L93.2045 95.8168C93.3959 95.635 93.5873 95.4531 93.75 95.2809C94.4103 94.6014 94.9366 93.9794 95.3768 93.4339C95.7749 92.8962 96.1997 92.3788 96.6496 91.8836C97.0037 91.5391 97.3004 91.3956 97.6066 91.5487C98.1521 91.7975 97.9894 92.6875 97.5396 93.6636C97.2729 94.2441 96.9526 94.7984 96.5826 95.3192C96.3173 95.698 96.0125 96.0476 95.6735 96.3622C95.0646 96.9937 94.5226 97.6864 94.0562 98.4293C93.8553 98.726 93.6543 99.0322 93.4629 99.3384C92.7547 100.439 92.1231 101.492 91.9126 101.855L91.8265 101.989C91.4628 102.946 91.1375 103.693 90.8695 104.363C90.2027 105.943 89.2266 107.375 87.9986 108.573C87.3861 109.186 86.2473 109.262 84.9746 109.061" fill="white"/>
<path d="M79.5103 106.87C78.0078 106.19 77.3475 103.999 77.0604 102.879C76.7919 101.838 76.6536 100.768 76.6489 99.6925C76.6394 98.7306 76.5562 97.7708 76.4001 96.8216C76.3044 96.1804 76.18 95.5488 76.0556 94.9651C75.7997 93.7561 75.4803 92.5614 75.0986 91.386C75.0986 91.386 76.2374 89.6922 77.2805 91.1276C77.5633 91.5391 77.7827 91.9907 77.9313 92.4674C78.2184 93.2999 78.4193 94.2282 78.6203 94.9459C78.6854 95.3646 78.8679 95.7561 79.1466 96.0752C79.272 96.1687 79.4107 96.2429 79.5581 96.2953L79.7112 96.3527C80.0243 96.4396 80.3551 96.4396 80.6682 96.3527C80.8127 96.3091 80.9486 96.2412 81.0701 96.1517C81.111 96.14 81.1475 96.1167 81.1754 96.0847C81.2654 96.0057 81.3487 95.9193 81.4242 95.8263C81.8515 95.3216 82.2088 94.7615 82.4864 94.1612C82.9163 93.2612 83.2872 92.3342 83.5965 91.386C83.7114 91.0319 83.8358 90.6683 83.9315 90.3238C84.2377 89.2998 84.4769 88.3524 84.6205 87.6634C84.764 86.9744 84.898 86.3332 85.0703 85.6537C85.2425 84.9743 85.4148 84.3523 85.6062 83.7398C86.1803 82.0173 86.8789 80.8115 87.7019 81.4431C88.5249 82.0747 88.2665 82.668 87.8933 84.2087C87.7689 84.7446 87.6158 85.3954 87.4627 86.1801C87.207 87.5525 87.0376 88.9397 86.9555 90.3333V90.8788L87.5105 91.1085C87.5105 91.2425 87.6637 91.0224 87.9125 90.5534C88.5465 89.308 89.1151 88.0303 89.6159 86.7256C89.8455 86.1322 90.0848 85.5006 90.2953 84.8116C90.5059 84.1226 90.6877 83.6441 90.8599 83.0604C91.7212 80.1894 93.0801 81.6153 93.2141 82.6201C93.1503 83.6825 92.9009 84.7254 92.4772 85.7016C92.2571 86.3428 92.0274 87.0031 91.8265 87.6155C91.7244 87.9345 91.6287 88.2535 91.5394 88.5725C91.1853 89.7879 90.8025 91.0511 90.5824 91.9315C90.5824 92.0463 90.5059 92.1611 90.4772 92.2664L91.0513 92.8693L91.3193 92.5344C92.095 91.5303 92.7925 90.4682 93.4055 89.3572C93.8266 88.5917 94.1232 87.9601 94.3625 87.4433C94.8218 86.4863 95.1089 86.1035 95.7692 86.2088C96.4295 86.3141 96.4678 87.4624 96.1137 88.7543C95.8319 89.762 95.4167 90.7275 94.8792 91.6252C94.7831 91.7814 94.6776 91.9316 94.5634 92.075C94.0286 92.8556 93.5824 93.6933 93.2332 94.5727L93.0036 95.1086L93.2045 95.8168C93.3959 95.635 93.5873 95.4531 93.75 95.2809C94.4103 94.6014 94.9366 93.9794 95.3768 93.4339C95.7749 92.8962 96.1997 92.3788 96.6496 91.8836C97.0037 91.5391 97.3004 91.3956 97.6066 91.5487C98.1521 91.7975 97.9894 92.6875 97.5396 93.6636C97.2729 94.2441 96.9526 94.7984 96.5826 95.3192C96.3173 95.698 96.0125 96.0476 95.6735 96.3622C95.0646 96.9937 94.5226 97.6864 94.0562 98.4293C93.8553 98.726 93.6543 99.0322 93.4629 99.3384C92.7547 100.439 92.1231 101.492 91.9126 101.855L91.8265 101.989C91.4628 102.946 91.1375 103.693 90.8695 104.363C90.2027 105.943 89.2266 107.375 87.9986 108.573C87.3861 109.186 86.2473 109.262 84.9746 109.061" stroke="black" stroke-linecap="round" stroke-linejoin="round"/>
<path d="M81.2041 96.0942C82.2114 96.4625 83.0693 97.1522 83.6453 98.0569C84.2214 98.9615 84.4833 100.031 84.3908 101.099" stroke="black" stroke-linecap="round" stroke-linejoin="round"/>
<path d="M76.123 117.282C75.9029 117.463 79.8552 124.66 86.5157 124.114" stroke="black" stroke-linecap="round" stroke-linejoin="round"/>
<path d="M70.247 124.114C70.247 124.114 68.5531 129.416 70.247 132.574V124.114Z" fill="#FFD95C"/>
<path d="M70.247 124.114C70.247 124.114 68.5531 129.416 70.247 132.574" stroke="black" stroke-linecap="round" stroke-linejoin="round"/>
<path d="M55.4517 113.741C55.4517 113.741 57.3657 121.664 54.7148 126.095" stroke="black" stroke-linecap="round" stroke-linejoin="round"/>
<path d="M57.8819 120.708C57.8819 120.708 58.2551 125.033 55.4512 127.646" stroke="black" stroke-linecap="round" stroke-linejoin="round"/>
<path d="M73.0986 120.507C73.0986 120.507 77.2902 128.583 83.2808 128.344" stroke="black" stroke-linecap="round" stroke-linejoin="round"/>
<path d="M19.2012 103.501C19.2012 103.501 28.6369 111.521 36.1204 107.664" stroke="black" stroke-linecap="round" stroke-linejoin="round"/>
<path d="M9.613 114.497C9.613 114.497 9.38333 124.65 5.21094 127.646" stroke="black" stroke-linecap="round" stroke-linejoin="round"/>
<path d="M11.6322 124.172C11.6322 124.172 8.7613 129.225 5.21094 129.11" stroke="black" stroke-linecap="round" stroke-linejoin="round"/>
<path d="M17.6707 27.91C17.6707 29.1418 17.3056 30.3459 16.6214 31.3702C15.9373 32.3945 14.9649 33.193 13.8271 33.6648C12.6893 34.1366 11.4372 34.2605 10.2289 34.0209C9.02073 33.7813 7.91066 33.1889 7.03901 32.3186C6.16737 31.4483 5.57328 30.3391 5.33182 29.1313C5.09036 27.9235 5.21236 26.6711 5.68242 25.5326C6.15247 24.3941 6.94948 23.4204 7.97272 22.7347C8.99596 22.0491 10.1995 21.6821 11.4312 21.6802C13.0844 21.6802 14.67 22.3362 15.8398 23.5043C17.0097 24.6723 17.6682 26.2569 17.6707 27.91Z" fill="black"/>
<mask id="mask3_843_1847" style="mask-type:luminance" maskUnits="userSpaceOnUse" x="5" y="21" width="13" height="14">
<path d="M17.6697 27.91C17.6697 29.1418 17.3046 30.3459 16.6205 31.3702C15.9363 32.3945 14.9639 33.193 13.8261 33.6648C12.6883 34.1366 11.4362 34.2605 10.228 34.0209C9.01975 33.7813 7.90968 33.1889 7.03804 32.3186C6.16639 31.4483 5.5723 30.3391 5.33084 29.1313C5.08938 27.9235 5.21138 26.6711 5.68144 25.5326C6.1515 24.3941 6.94851 23.4204 7.97175 22.7347C8.99498 22.0491 10.1985 21.6821 11.4303 21.6802C13.0834 21.6802 14.669 22.3362 15.8389 23.5043C17.0087 24.6723 17.6672 26.2569 17.6697 27.91Z" fill="white"/>
</mask>
<g mask="url(#mask3_843_1847)">
<path opacity="0.5" d="M15.7946 32.3982C14.6767 33.4806 13.1957 34.1077 11.6405 34.1572C10.0852 34.2067 8.56733 33.6752 7.38281 32.6662C7.68904 32.4652 7.90915 32.3504 7.90915 32.3504C7.90915 32.3504 7.15314 31.4891 7.52636 31.1159C7.89958 30.7427 9.61256 30.9245 8.76085 29.2019C7.90915 27.4794 7.80388 24.13 11.4404 23.4601C13.4596 23.106 14.9142 25.6611 14.0625 28.7809C14.0625 28.7809 13.7084 30.0154 14.3113 30.1111C14.9142 30.2068 14.5984 31.5274 14.5984 31.5274C15.024 31.7788 15.4245 32.0705 15.7946 32.3982Z" fill="white"/>
</g>
<path d="M17.6707 27.9101C17.6707 29.1418 17.3056 30.3459 16.6214 31.3702C15.9373 32.3945 14.9649 33.193 13.8271 33.6648C12.6893 34.1366 11.4372 34.2605 10.2289 34.0209C9.02073 33.7813 7.91066 33.1889 7.03901 32.3186C6.16737 31.4483 5.57328 30.3391 5.33182 29.1313C5.09036 27.9235 5.21236 26.6711 5.68242 25.5326C6.15247 24.3941 6.94948 23.4204 7.97272 22.7347C8.99596 22.0491 10.1995 21.6821 11.4312 21.6802C13.0844 21.6802 14.67 22.3362 15.8398 23.5043C17.0097 24.6723 17.6682 26.2569 17.6707 27.9101Z" stroke="black" stroke-miterlimit="10"/>
<path d="M23.7188 23.4983H45.174" stroke="black" stroke-width="2" stroke-linecap="round" stroke-linejoin="round"/>
<path d="M23.7188 27.91H54.1887" stroke="black" stroke-width="2" stroke-linecap="round" stroke-linejoin="round"/>
<path d="M23.7188 32.3313H37.3077" stroke="black" stroke-width="2" stroke-linecap="round" stroke-linejoin="round"/>
<path d="M9.23978 138.153H6.63682C5.84933 138.153 5.21094 138.791 5.21094 139.579V142.182C5.21094 142.969 5.84933 143.608 6.63682 143.608H9.23978C10.0273 143.608 10.6657 142.969 10.6657 142.182V139.579C10.6657 138.791 10.0273 138.153 9.23978 138.153Z" stroke="black" stroke-linecap="round" stroke-linejoin="round"/>
<path d="M17.1919 138.153H14.589C13.8015 138.153 13.1631 138.791 13.1631 139.579V142.182C13.1631 142.969 13.8015 143.608 14.589 143.608H17.1919C17.9794 143.608 18.6178 142.969 18.6178 142.182V139.579C18.6178 138.791 17.9794 138.153 17.1919 138.153Z" stroke="black" stroke-linecap="round" stroke-linejoin="round"/>
<path d="M25.1343 138.153H22.5314C21.7439 138.153 21.1055 138.791 21.1055 139.579V142.182C21.1055 142.969 21.7439 143.608 22.5314 143.608H25.1343C25.9218 143.608 26.5602 142.969 26.5602 142.182V139.579C26.5602 138.791 25.9218 138.153 25.1343 138.153Z" stroke="black" stroke-linecap="round" stroke-linejoin="round"/>
<path d="M87.816 138.153H85.213C84.4255 138.153 83.7871 138.791 83.7871 139.579V142.182C83.7871 142.969 84.4255 143.608 85.213 143.608H87.816C88.6035 143.608 89.2418 142.969 89.2418 142.182V139.579C89.2418 138.791 88.6035 138.153 87.816 138.153Z" stroke="black" stroke-linecap="round" stroke-linejoin="round"/>
<path d="M125.358 7.48519C112.271 6.15459 100.717 13.8982 99.6117 24.783C99.0446 30.4035 101.371 35.755 105.552 39.8049C104.292 41.8008 102.539 43.4385 100.462 44.5602C103.613 44.9396 106.807 44.3939 109.653 42.9896C113.21 45.1584 117.212 46.4933 121.359 46.8942C134.447 48.2248 146.001 40.4811 147.099 29.5964C148.197 18.7117 138.446 8.81578 125.358 7.48519Z" fill="white" stroke="black" stroke-miterlimit="10"/>
<path d="M117.091 19.3585C117.153 19.3804 117.207 19.4206 117.246 19.4738C117.285 19.527 117.307 19.5907 117.309 19.6566C117.298 19.7827 117.258 19.9046 117.192 20.0129C117.105 20.2092 117.054 20.3183 117.047 20.3473C116.848 21.0298 116.707 21.7279 116.625 22.4341C116.542 23.1293 116.406 23.8172 116.218 24.4918C116.182 24.6154 116.08 24.6809 115.905 24.6809C115.832 24.684 115.759 24.6664 115.695 24.63C115.568 24.5584 115.458 24.4603 115.373 24.3423C115.287 24.2243 115.228 24.0893 115.2 23.9465C115.2 23.9465 115.135 23.6048 115.026 23.0158C114.967 22.7104 114.917 22.376 114.866 22.0269C114.709 22.4435 114.595 22.8746 114.524 23.3139C114.479 23.7233 114.328 24.114 114.088 24.4482C114.037 24.4991 113.949 24.4991 113.826 24.4482C113.736 24.4392 113.652 24.4019 113.586 24.3418C113.519 24.2816 113.473 24.2017 113.455 24.1137L113.346 23.5975C113.198 22.9131 113.108 22.2175 113.077 21.518C113.045 20.8262 112.957 20.1381 112.815 19.4603C112.787 19.3903 112.787 19.3121 112.815 19.2421C112.836 19.2152 112.864 19.1943 112.896 19.1815C112.928 19.1687 112.963 19.1646 112.997 19.1694C113.048 19.1623 113.099 19.1623 113.15 19.1694C113.231 19.167 113.311 19.1866 113.381 19.2264C113.452 19.2661 113.51 19.3244 113.55 19.3948C113.644 19.9183 113.768 20.929 113.899 22.4341C113.974 22.2435 114.033 22.0464 114.073 21.8452C114.115 21.631 114.179 21.4216 114.262 21.2199C114.32 20.9799 114.371 20.7473 114.422 20.4928C114.473 20.2383 114.647 20.0638 114.887 20.0638C114.955 20.0542 115.023 20.0542 115.091 20.0638C115.091 20.1001 115.091 20.1219 115.171 20.1292C115.251 20.1365 115.251 20.1292 115.258 20.1292C115.413 20.5189 115.515 20.9271 115.564 21.3435C115.665 22.0706 115.731 22.4705 115.753 22.5868C115.854 22.0342 115.956 21.4889 116.065 20.9436C116.158 20.4014 116.327 19.875 116.567 19.3803C116.603 19.3003 116.698 19.264 116.836 19.264C116.927 19.2744 117.015 19.3068 117.091 19.3585Z" fill="black"/>
<path d="M121.047 23.6923C121.081 23.7758 121.101 23.8642 121.105 23.954C121.103 24.0168 121.088 24.0784 121.061 24.1348C121.033 24.1912 120.994 24.2411 120.945 24.2812C120.836 24.3758 120.771 24.4194 120.727 24.4121C120.429 24.3539 120.233 24.1067 120.153 23.685C120.085 23.2844 119.983 22.8904 119.848 22.5071L119.215 22.558C119.011 22.5778 118.816 22.6561 118.655 22.7834C118.544 23.1192 118.454 23.4616 118.386 23.8086C118.31 24.1583 118.205 24.5011 118.073 24.8338C118.03 24.9429 117.921 24.9793 117.761 24.9284C117.601 24.8775 117.448 24.7684 117.434 24.6521C117.435 24.3232 117.507 23.9985 117.644 23.6996C117.783 23.3923 117.885 23.0703 117.95 22.7398C117.95 22.6816 117.913 22.6234 117.826 22.5507C117.739 22.478 117.695 22.4344 117.695 22.3908C117.699 22.3553 117.714 22.322 117.739 22.2962C117.795 22.2503 117.863 22.2224 117.935 22.2163C118.037 22.2163 118.095 22.1581 118.103 22.1145C118.219 21.8091 118.393 21.2347 118.633 20.3912C118.784 19.8217 118.966 19.261 119.179 18.7116C119.198 18.6679 119.232 18.6316 119.274 18.6081C119.315 18.5845 119.364 18.5749 119.411 18.5808C119.496 18.5807 119.578 18.6089 119.644 18.6607C119.829 18.8384 119.948 19.0748 119.978 19.3297C120.015 19.5842 120.051 19.8386 120.08 20.0931C120.327 21.3119 120.65 22.514 121.047 23.6923ZM119.695 21.9254C119.668 21.6665 119.626 21.4092 119.571 21.1547C119.503 20.9075 119.445 20.6651 119.397 20.4276C119.208 20.9366 119.048 21.4528 118.91 21.9691C119.17 21.936 119.432 21.9214 119.695 21.9254Z" fill="black"/>
<path d="M123.358 18.5301C123.358 18.6537 123.264 18.7628 123.089 18.85C123.064 18.8608 123.037 18.8664 123.009 18.8664C122.982 18.8664 122.955 18.8608 122.929 18.85L122.791 18.8064C122.747 18.812 122.706 18.8325 122.675 18.8646C122.514 19.0254 122.387 19.2172 122.302 19.4284C122.217 19.6396 122.176 19.8658 122.18 20.0934C122.177 20.2617 122.204 20.4293 122.26 20.5878C122.26 20.6605 122.522 21.1404 122.987 22.042C123.248 22.5061 123.399 23.0232 123.431 23.5544C123.431 23.8993 123.346 24.2389 123.184 24.5433C123.069 24.7038 122.926 24.8418 122.762 24.9504C122.627 25.0642 122.458 25.1306 122.282 25.1395C122.229 25.147 122.175 25.147 122.122 25.1395C121.94 25.0595 121.846 24.9577 121.846 24.8341C121.856 24.7302 121.906 24.6341 121.984 24.5651C122.033 24.524 122.095 24.5031 122.159 24.5069C122.197 24.5085 122.235 24.4992 122.269 24.4798C122.302 24.4605 122.33 24.4321 122.348 24.3978C122.475 24.1374 122.542 23.8516 122.544 23.5617C122.474 22.9404 122.268 22.3422 121.94 21.8093C121.608 21.2507 121.404 20.6246 121.344 19.977C121.337 19.6269 121.414 19.2803 121.57 18.9664C121.72 18.6469 121.977 18.3898 122.297 18.2393C122.426 18.1764 122.567 18.1417 122.711 18.1375C122.819 18.1275 122.928 18.1419 123.03 18.1797C123.132 18.2174 123.224 18.2775 123.3 18.3556C123.337 18.4066 123.357 18.4674 123.358 18.5301Z" fill="black"/>
<path d="M125.925 18.5299C125.925 18.6535 125.838 18.7626 125.656 18.8498C125.631 18.8606 125.604 18.8662 125.576 18.8662C125.549 18.8662 125.521 18.8606 125.496 18.8498L125.358 18.8062C125.337 18.8082 125.316 18.8143 125.298 18.8243C125.279 18.8343 125.262 18.8479 125.249 18.8643C125.085 19.0238 124.957 19.2152 124.87 19.4266C124.784 19.638 124.742 19.8649 124.747 20.0932C124.746 20.2619 124.776 20.4295 124.834 20.5876C124.834 20.6603 125.089 21.1402 125.562 22.0418C125.818 22.5074 125.97 23.0237 126.005 23.5542C126.003 23.8997 125.915 24.2392 125.751 24.543C125.641 24.7053 125.5 24.8438 125.336 24.9502C125.2 25.0618 125.032 25.1279 124.856 25.1392C124.803 25.1468 124.749 25.1468 124.696 25.1392C124.507 25.0593 124.42 24.9575 124.42 24.8339C124.431 24.73 124.48 24.6339 124.558 24.5649C124.558 24.5285 124.638 24.5139 124.733 24.5067C124.77 24.5078 124.807 24.4981 124.84 24.4788C124.872 24.4594 124.898 24.4313 124.914 24.3976C125.042 24.1372 125.109 23.8514 125.111 23.5614C125.044 22.9404 124.84 22.342 124.515 21.8091C124.179 21.2517 123.975 20.625 123.918 19.9768C123.912 19.6276 123.987 19.2818 124.136 18.9662C124.288 18.6474 124.545 18.3906 124.864 18.2391C124.992 18.1747 125.134 18.1399 125.278 18.1372C125.385 18.1284 125.493 18.1434 125.593 18.1811C125.694 18.2188 125.785 18.2783 125.86 18.3554C125.901 18.4042 125.924 18.4659 125.925 18.5299Z" fill="black"/>
<path d="M129.852 19.0825C129.776 19.671 129.652 20.2522 129.481 20.8203C129.205 21.7873 129.037 22.3763 128.994 22.5799C128.863 23.1998 128.598 23.7833 128.216 24.2886C128.127 24.4323 128.005 24.552 127.859 24.637C127.713 24.722 127.548 24.7696 127.38 24.7757C127.103 24.7757 126.9 24.5867 126.762 24.2449C126.513 23.5904 126.392 22.8944 126.405 22.1945C126.415 21.6108 126.458 21.0281 126.536 20.4495C126.524 20.2582 126.524 20.0663 126.536 19.875C126.536 19.4897 126.682 19.3006 126.98 19.3006C127.051 19.3011 127.12 19.3185 127.183 19.3515L127.387 19.4533C127.387 19.7733 127.387 20.2313 127.387 20.8494C127.387 21.4674 127.336 21.9764 127.336 22.2672C127.336 22.5581 127.336 22.8562 127.336 23.1107C127.375 23.3566 127.431 23.5996 127.503 23.8378C127.789 23.5019 127.998 23.1072 128.114 22.6816C128.165 22.5144 128.267 22.0782 128.412 21.3583C128.499 20.9186 128.633 20.4896 128.812 20.0786C128.872 19.9226 128.909 19.7584 128.921 19.5915C128.938 19.42 128.977 19.2514 129.037 19.0898C129.064 19.0198 129.112 18.9601 129.175 18.9195C129.237 18.8789 129.312 18.8596 129.386 18.8644C129.476 18.859 129.565 18.8762 129.647 18.9143C129.728 18.9524 129.798 19.0102 129.852 19.0825Z" fill="black"/>
<path d="M132.767 20.9293C132.618 21.2946 132.414 21.6353 132.164 21.94L131.735 22.369C131.58 22.4992 131.395 22.5891 131.197 22.6307C131.172 22.7748 131.16 22.9208 131.16 23.067C131.16 23.1833 131.16 23.3578 131.16 23.5978C131.16 23.8377 131.16 24.0122 131.16 24.1213C131.188 24.4619 131.084 24.8001 130.869 25.0665L130.608 24.9284C130.499 24.8702 130.44 24.8048 130.433 24.7248C130.366 24.2797 130.334 23.8298 130.339 23.3796C130.339 23.0525 130.339 22.5653 130.397 21.9254C130.455 21.2856 130.448 20.7839 130.448 20.4712C130.449 20.0265 130.422 19.582 130.368 19.1406C130.317 19.1406 130.273 19.1406 130.23 19.0461C130.204 18.9903 130.164 18.9425 130.113 18.908C130.113 18.7117 130.201 18.6099 130.273 18.6099C130.463 18.575 130.658 18.575 130.848 18.6099C131.207 18.6509 131.554 18.7657 131.867 18.9472C132.179 19.1286 132.451 19.3727 132.665 19.6641C132.795 19.8493 132.864 20.0705 132.862 20.2967C132.872 20.5118 132.84 20.7268 132.767 20.9293ZM132.164 20.2022C132.179 20.0829 132.156 19.9619 132.099 19.8562C132.041 19.7506 131.952 19.6656 131.844 19.6132L131.175 19.3442C131.24 20.1422 131.262 20.9433 131.24 21.7437C131.714 21.3557 132.04 20.8166 132.164 20.2167V20.2022Z" fill="black"/>
<path d="M114.452 28.4332C114.31 28.9385 114.009 29.3847 113.594 29.7057L112.271 30.6291C112.284 30.6965 112.316 30.7591 112.362 30.8102C112.408 30.8614 112.467 30.8992 112.532 30.9199L112.969 31.109C113.279 31.2681 113.542 31.5054 113.732 31.7975C113.922 32.0895 114.032 32.4262 114.052 32.774C114.047 33.273 113.867 33.7544 113.543 34.1337C113.214 34.5145 112.823 34.8366 112.387 35.0862L111.136 35.8134C111.035 35.8732 110.92 35.9057 110.802 35.9079C110.677 35.9176 110.552 35.8886 110.444 35.8249C110.336 35.7612 110.25 35.6657 110.198 35.5516C110.198 34.8245 110.235 34.0974 110.256 33.3703C110.26 32.6532 110.306 31.9369 110.395 31.2253C110.31 31.189 110.238 31.1307 110.184 31.0565C110.13 30.9822 110.097 30.8949 110.089 30.8036C110.089 30.7627 110.098 30.7222 110.114 30.6847C110.13 30.6472 110.154 30.6134 110.184 30.5855C110.265 30.5052 110.355 30.4345 110.453 30.3746C110.552 29.1654 110.574 27.9511 110.518 26.7391C110.349 26.7216 110.187 26.6627 110.046 26.5676C109.906 26.4725 109.79 26.3441 109.711 26.1938C109.709 26.1372 109.724 26.0814 109.755 26.0338C109.787 25.9833 109.807 25.9261 109.813 25.8666C110.004 25.724 110.236 25.6474 110.475 25.6484C110.624 25.6509 110.772 25.668 110.918 25.6994L111.427 25.7793C111.86 25.8372 112.281 25.9674 112.67 26.1647C113.608 26.6518 114.125 27.1245 114.321 27.5825C114.445 27.8478 114.49 28.143 114.452 28.4332ZM112.838 32.8759C112.848 32.7865 112.848 32.6962 112.838 32.6068C112.852 32.3417 112.763 32.0813 112.59 31.8797C112.328 31.7273 112.044 31.6169 111.747 31.5525C111.68 31.5526 111.613 31.5649 111.551 31.5889C111.551 31.6761 111.551 31.7707 111.551 31.8797C111.551 31.9888 111.551 32.3378 111.478 32.7159C111.436 32.9977 111.412 33.2818 111.405 33.5666C111.406 33.8124 111.44 34.057 111.507 34.2937C111.651 34.1435 111.815 34.0138 111.994 33.9083C112.167 33.8152 112.325 33.6949 112.46 33.5521C112.632 33.3579 112.756 33.1264 112.823 32.8759H112.838ZM113.23 27.7861C113.187 27.4662 112.925 27.219 112.452 27.059C112.338 27.0151 112.228 26.959 112.125 26.8918C112.049 26.8346 111.958 26.7995 111.863 26.79H111.747C111.747 26.9427 111.747 27.0954 111.747 27.2626C111.747 27.4299 111.747 27.8661 111.798 28.4042C111.849 28.9422 111.834 29.284 111.798 29.5603C111.901 29.5414 111.997 29.4935 112.074 29.4221L112.278 29.2767C112.571 29.1433 112.823 28.932 113.005 28.6659C113.182 28.4064 113.257 28.0904 113.216 27.7789L113.23 27.7861Z" fill="black"/>
<path d="M119.635 27.0005C119.531 27.823 119.359 28.6353 119.119 29.429C118.727 30.7887 118.501 31.6103 118.443 31.9012C118.256 32.7664 117.886 33.5818 117.36 34.2933C117.237 34.494 117.067 34.661 116.864 34.7791C116.661 34.8972 116.431 34.9627 116.196 34.9695C115.804 34.9695 115.513 34.7272 115.324 34.2424C114.974 33.3264 114.806 32.3508 114.829 31.3704C114.841 30.5531 114.902 29.7373 115.011 28.9273C114.993 28.6586 114.993 28.389 115.011 28.1202C115.011 27.5822 115.222 27.3132 115.636 27.3132C115.733 27.314 115.828 27.339 115.913 27.3858C116.015 27.431 116.114 27.482 116.211 27.5386C116.211 27.9748 116.211 28.6292 116.167 29.4872C116.124 30.3452 116.102 31.065 116.102 31.4722C116.102 31.8794 116.102 32.3011 116.145 32.6573C116.197 33.0091 116.275 33.3567 116.378 33.6971C116.777 33.2214 117.069 32.6661 117.236 32.0684C117.301 31.8503 117.44 31.2322 117.65 30.2288C117.768 29.6108 117.956 29.0082 118.21 28.4329C118.296 28.1991 118.347 27.9542 118.363 27.7058C118.378 27.4566 118.432 27.2113 118.523 26.9787C118.562 26.8814 118.631 26.7989 118.72 26.7428C118.809 26.6867 118.913 26.6599 119.017 26.666C119.14 26.665 119.261 26.6951 119.37 26.7536C119.478 26.8121 119.569 26.897 119.635 27.0005Z" fill="black"/>
<path d="M123.781 31.2103L123.534 31.8065C123.454 32.0102 123.341 32.1993 123.199 32.3664C122.928 32.7106 122.659 33.045 122.392 33.3698C122.152 33.6953 121.857 33.976 121.52 34.1987C121.432 34.3054 121.338 34.4144 121.236 34.5259C121.199 34.5748 121.152 34.6151 121.098 34.644C121.044 34.6728 120.985 34.6896 120.923 34.6931C120.861 34.6931 120.799 34.6808 120.742 34.6568L120.516 34.5623C120.476 34.5499 120.439 34.5284 120.409 34.4993C120.379 34.4703 120.356 34.4346 120.342 34.395C120.342 34.0315 120.298 33.6679 120.298 33.2244C120.298 32.7808 120.298 32.1701 120.349 31.3267C120.4 30.4832 120.407 29.8724 120.407 29.4289C120.407 28.869 120.407 28.3528 120.342 27.8874L120.051 27.5821C119.958 27.5058 119.898 27.3963 119.884 27.2767C119.873 27.2337 119.873 27.1888 119.884 27.1458C119.908 27.091 119.948 27.0446 119.998 27.0123C120.049 26.98 120.107 26.9632 120.167 26.964C120.278 26.9424 120.389 26.9278 120.502 26.9204C121.351 27.1418 122.135 27.5603 122.792 28.1419C122.986 28.2995 123.157 28.483 123.301 28.6873C123.677 29.1892 123.894 29.7916 123.926 30.4178C123.937 30.6894 123.887 30.96 123.781 31.2103ZM122.85 29.8215C122.768 29.2786 122.302 28.7939 121.454 28.3673C121.396 29.8215 121.379 31.3533 121.403 32.9626C121.818 32.616 122.159 32.1909 122.409 31.7117C122.659 31.2326 122.811 30.7088 122.857 30.1706C122.862 30.0542 122.859 29.9376 122.85 29.8215Z" fill="black"/>
<path d="M128.332 31.2103L128.085 31.8065C128.002 32.0089 127.889 32.1976 127.75 32.3664C127.479 32.7106 127.21 33.045 126.943 33.3698C126.703 33.6953 126.408 33.976 126.071 34.1987C125.983 34.3054 125.889 34.4144 125.787 34.5259C125.75 34.5741 125.702 34.6139 125.649 34.6427C125.595 34.6715 125.535 34.6887 125.474 34.6931C125.412 34.6937 125.35 34.6814 125.293 34.6568L125.067 34.5623C125.027 34.549 124.99 34.5272 124.958 34.4984C124.927 34.4695 124.902 34.4343 124.885 34.395C124.885 34.0315 124.885 33.6679 124.885 33.2244C124.885 32.7808 124.885 32.1701 124.936 31.3267C124.987 30.4832 124.987 29.8724 124.987 29.4289C124.987 28.869 124.987 28.3528 124.922 27.8874L124.638 27.5821C124.545 27.5058 124.485 27.3963 124.471 27.2767C124.464 27.2333 124.464 27.1892 124.471 27.1458C124.496 27.0899 124.537 27.0426 124.589 27.0102C124.64 26.9778 124.701 26.9617 124.762 26.964C124.872 26.9424 124.984 26.9278 125.096 26.9204C125.945 27.1433 126.729 27.5616 127.387 28.1419C127.579 28.3014 127.75 28.4846 127.896 28.6873C128.27 29.1896 128.485 29.7922 128.514 30.4178C128.513 30.6922 128.451 30.9629 128.332 31.2103ZM127.394 29.8215C127.321 29.2762 126.856 28.7963 126.005 28.3673C125.947 29.8215 125.925 31.3485 125.954 32.9626C126.369 32.616 126.71 32.1909 126.96 31.7117C127.21 31.2326 127.362 30.7088 127.409 30.1706C127.414 30.054 127.409 29.9373 127.394 29.8215Z" fill="black"/>
<path d="M133.357 26.3901C133.002 27.6952 132.555 28.9734 132.019 30.2147C131.255 32.0397 130.768 33.3049 130.565 33.9956C130.517 34.1635 130.495 34.3375 130.499 34.5119C130.499 34.8027 130.499 34.9845 130.499 35.0572C130.503 35.1202 130.492 35.1831 130.469 35.2417C130.446 35.3004 130.41 35.3533 130.365 35.3968C130.319 35.4404 130.265 35.4735 130.205 35.4939C130.145 35.5144 130.082 35.5217 130.019 35.5153C129.848 35.5262 129.679 35.4716 129.547 35.3626C129.379 35.2462 129.292 35.1226 129.307 34.999C129.351 34.2512 129.513 33.515 129.787 32.8177L130.594 30.7382C130.158 29.489 129.631 28.2739 129.016 27.1027C128.994 27.0624 128.981 27.0177 128.979 26.9718C128.983 26.9176 129 26.8651 129.028 26.8184C129.055 26.7716 129.094 26.7321 129.139 26.7028C129.23 26.6287 129.342 26.5854 129.459 26.5792L129.954 26.7246C130.213 27.1301 130.439 27.5556 130.63 27.997C130.826 28.4406 131.023 28.8841 131.212 29.3276C131.386 28.8041 131.561 28.2879 131.735 27.7789C131.901 27.2709 132.123 26.7831 132.397 26.3247C132.434 26.2629 132.488 26.213 132.552 26.1808C132.617 26.1486 132.689 26.1354 132.76 26.1429C132.871 26.1409 132.982 26.1618 133.084 26.2043C133.187 26.2469 133.28 26.3101 133.357 26.3901Z" fill="black"/>
<path d="M135.443 34.3444C135.463 34.4656 135.445 34.5899 135.392 34.7007C135.341 34.817 135.276 34.8825 135.203 34.8825C135.145 34.8846 135.089 34.9049 135.043 34.9407C135.03 34.9564 135.013 34.9686 134.994 34.9762C134.975 34.9839 134.955 34.9866 134.934 34.9843C134.476 34.8098 134.207 34.5844 134.156 34.3081C134.156 34.1845 134.214 34.0609 134.403 33.9373C134.518 33.8381 134.66 33.7772 134.811 33.7628C134.961 33.7823 135.103 33.8455 135.218 33.9445C135.282 33.9911 135.335 34.051 135.374 34.12C135.413 34.189 135.436 34.2655 135.443 34.3444ZM136.708 26.4408C136.555 27.547 136.332 28.6423 136.039 29.7201C135.738 30.8171 135.582 31.9489 135.574 33.0866C135.571 33.1316 135.557 33.1751 135.533 33.2133C135.509 33.2514 135.475 33.2828 135.436 33.3047C135.402 33.3348 135.361 33.3564 135.317 33.3678C135.272 33.3792 135.226 33.3799 135.181 33.3701C134.745 33.2901 134.505 33.072 134.454 32.723C134.454 32.5412 134.454 32.3595 134.454 32.1777C134.479 31.1704 134.61 30.1686 134.847 29.1893C135.24 27.4442 135.458 26.4554 135.494 26.2227C135.502 26.1712 135.525 26.1232 135.56 26.0845C135.595 26.0458 135.64 26.018 135.69 26.0046C135.796 25.965 135.912 25.965 136.018 26.0046L136.454 26.1354C136.525 26.1502 136.588 26.1884 136.634 26.2438C136.681 26.2992 136.707 26.3687 136.708 26.4408Z" fill="black"/>
</svg>
