<svg width="326" height="196" viewBox="0 0 326 196" fill="none" xmlns="http://www.w3.org/2000/svg">
<path d="M30.283 1H296.548C298.153 1 299.693 1.63777 300.828 2.77301C301.964 3.90825 302.601 5.44797 302.601 7.05345V181.701H24.2354V7.05345C24.2354 5.44898 24.8723 3.91014 26.0063 2.77506C27.1403 1.63999 28.6785 1.00153 30.283 1Z" fill="#636363" stroke="black" stroke-linejoin="round"/>
<path d="M163.372 8.90542C164.721 8.90542 165.814 7.81201 165.814 6.46321C165.814 5.11441 164.721 4.021 163.372 4.021C162.023 4.021 160.93 5.11441 160.93 6.46321C160.93 7.81201 162.023 8.90542 163.372 8.90542Z" fill="black"/>
<path d="M26.8644 51.8524C26.6797 51.8509 26.503 51.7765 26.373 51.6453C26.2429 51.5141 26.1699 51.3369 26.1699 51.1522V30.8969C26.1699 30.7127 26.2431 30.536 26.3733 30.4058C26.5036 30.2756 26.6802 30.2024 26.8644 30.2024C27.0491 30.2024 27.2263 30.2754 27.3575 30.4054C27.4887 30.5355 27.5631 30.7121 27.5646 30.8969V51.1522C27.5646 51.3379 27.4909 51.516 27.3595 51.6473C27.2282 51.7787 27.0501 51.8524 26.8644 51.8524Z" fill="black"/>
<path d="M291.329 15.1152H35.5273V159.675H291.329V15.1152Z" fill="black" stroke="black" stroke-linejoin="round"/>
<path d="M259.73 178.79H68.4043V182.43H259.73V178.79Z" fill="black" stroke="black" stroke-linejoin="round"/>
<path d="M1.72363 188.015C1.72363 188.015 4.8661 191.857 14.2935 195H313.847C313.847 195 320.832 193.264 323.974 188.362L1.72363 188.015Z" fill="black" stroke="black" stroke-linejoin="round"/>
<path d="M323.553 181.133H2.17582C1.57174 181.133 1.08203 181.623 1.08203 182.227V187.377C1.08203 187.982 1.57174 188.471 2.17582 188.471H323.553C324.157 188.471 324.646 187.982 324.646 187.377V182.227C324.646 181.623 324.157 181.133 323.553 181.133Z" fill="#636363" stroke="black" stroke-linejoin="round"/>
<path d="M288.007 88.7288H207.507V155.346H288.007V88.7288Z" fill="white"/>
<path d="M239.707 133.209L232.96 138.655L232.844 155.409H262.908L261.369 137.116L254.384 132.266L239.707 133.209Z" fill="black" stroke="black" stroke-linejoin="round"/>
<path d="M239.255 126.467C239.255 126.467 238.786 134.28 239.255 135.582C239.724 136.884 241.506 141.369 247.664 141.948C254.881 142.683 256.617 134.396 256.617 134.396L256.142 126.467C256.142 126.467 251.513 127.532 247.624 127.046C243.735 126.56 239.116 126.004 239.116 126.004" fill="white"/>
<path d="M239.255 126.467C239.255 126.467 238.786 134.28 239.255 135.582C239.724 136.884 241.506 141.369 247.664 141.948C254.881 142.683 256.617 134.396 256.617 134.396L256.142 126.467C256.142 126.467 251.513 127.532 247.624 127.046C243.735 126.56 239.116 126.004 239.116 126.004" stroke="black" stroke-linejoin="round"/>
<path d="M248.747 129.263L242.057 126.369L239.117 125.999L239.233 126.473C239.233 126.473 238.989 130.524 239.03 133.296L248.747 131.653V129.263Z" fill="black" stroke="black" stroke-linejoin="round"/>
<path d="M232.728 112.497C232.728 112.497 231.894 115.101 232.369 117.127C232.843 119.152 236.865 120.796 236.865 120.796C236.865 120.796 237.224 125.177 238.289 126.357C239.354 127.538 244.076 131.329 246.102 131.925C248.127 132.521 249.771 132.503 251.073 131.687C252.375 130.871 257.225 127.544 257.937 125.767C258.542 124.059 259.056 122.321 259.476 120.559C259.476 120.559 261.843 120.206 262.792 118.307C263.741 116.409 263.857 113.573 263.857 112.746C263.857 111.918 261.49 110.142 259.951 108.961C258.411 107.78 249.059 102.092 247.404 101.976C245.749 101.86 243.613 102.45 242.907 103.133C242.201 103.816 232.728 112.497 232.728 112.497Z" fill="white" stroke="black" stroke-linejoin="round"/>
<path d="M245.662 121.021C246.424 121.66 247.394 121.995 248.388 121.965C249.927 121.849 250.396 121.021 250.396 121.021" stroke="black" stroke-linejoin="round"/>
<path d="M244.719 123.626C244.719 123.626 247.56 125.518 251.582 123.626" stroke="black" stroke-linejoin="round"/>
<path d="M245.188 115.587C245.188 115.587 242.943 112.746 239.979 114.638" stroke="black" stroke-linejoin="round"/>
<path d="M251.467 115.691C251.928 114.995 252.612 114.475 253.407 114.218C254.201 113.96 255.06 113.98 255.842 114.273" stroke="black" stroke-linejoin="round"/>
<path d="M243.885 114.864C243.885 114.701 243.837 114.54 243.746 114.404C243.655 114.268 243.525 114.162 243.374 114.099C243.223 114.037 243.056 114.02 242.896 114.052C242.735 114.084 242.588 114.163 242.472 114.279C242.356 114.395 242.277 114.542 242.245 114.703C242.213 114.863 242.23 115.03 242.293 115.181C242.355 115.332 242.461 115.462 242.597 115.553C242.734 115.644 242.894 115.692 243.057 115.692C243.277 115.692 243.488 115.605 243.643 115.45C243.798 115.294 243.885 115.084 243.885 114.864Z" fill="black"/>
<path d="M254.302 114.864C254.302 114.701 254.254 114.54 254.163 114.404C254.072 114.268 253.942 114.162 253.791 114.099C253.64 114.037 253.473 114.02 253.313 114.052C253.152 114.084 253.005 114.163 252.889 114.279C252.773 114.395 252.694 114.542 252.662 114.703C252.63 114.863 252.647 115.03 252.709 115.181C252.772 115.332 252.878 115.462 253.014 115.553C253.151 115.644 253.311 115.692 253.474 115.692C253.694 115.692 253.905 115.605 254.06 115.45C254.215 115.294 254.302 115.084 254.302 114.864Z" fill="black"/>
<path d="M246.2 112.619C245.166 112.075 244.004 111.822 242.838 111.884C241.672 111.946 240.544 112.322 239.573 112.972" stroke="black" stroke-width="2" stroke-miterlimit="10"/>
<path d="M257.109 112.619C256.075 112.075 254.913 111.822 253.747 111.884C252.581 111.946 251.453 112.322 250.482 112.972" stroke="black" stroke-width="2" stroke-miterlimit="10"/>
<path d="M245.865 103.972C245.865 103.972 244.21 107.763 242.671 109.302C241.132 110.842 238.168 111.785 238.168 111.785C237.787 112.528 237.352 113.242 236.866 113.921C236.513 114.274 236.635 118.059 236.635 118.417C236.635 118.776 235.211 117.353 235.211 116.525C235.186 115.848 235.106 115.175 234.974 114.511C234.299 114.241 233.663 113.882 233.081 113.446C232.607 112.972 232.017 113.087 232.017 111.907V109.893C232.017 109.893 229.412 109.54 229.887 107.051C230.361 104.563 235.448 96.0555 240.067 94.2672C244.685 92.479 247.642 94.3888 247.642 94.3888C249.948 93.1055 252.594 92.5677 255.218 92.8494C259.593 93.3239 265.513 101.605 266.699 105.512C267.886 109.418 266.699 112.497 266.121 112.619C265.375 112.701 264.625 112.74 263.875 112.734C263.875 112.734 263.754 113.087 262.81 113.799C262.012 114.304 261.13 114.665 260.206 114.864C260.336 115.732 260.295 116.616 260.085 117.468C259.911 117.971 259.674 118.45 259.379 118.892L258.904 112.619C256.81 111.938 254.851 110.896 253.117 109.54C251.671 108.407 250.429 107.038 249.442 105.489C249.442 105.489 250.513 107.856 250.021 108.093C249.529 108.33 246.34 106.328 245.865 103.972Z" fill="black" stroke="black" stroke-linejoin="round"/>
<path d="M239.001 134.633L237.578 155.346H211.535C211.535 155.346 215.8 145.287 217.571 144.223C219.342 143.158 233.776 137.59 233.776 137.59C233.776 137.59 234.719 136.172 235.905 134.749C237.092 133.325 238.764 133.684 239.001 134.633Z" fill="#FFD95C" stroke="black" stroke-linejoin="round"/>
<path d="M233.792 137.579C233.319 140.103 232.685 142.595 231.894 145.039C230.95 147.521 229.764 148.945 229.886 149.42C230.007 149.894 231.541 149.998 232.49 148.708C233.439 147.417 235.8 143.974 236.541 143.974C237.282 143.974 237.843 148.945 237.843 148.945" stroke="black" stroke-linejoin="round"/>
<path d="M256.519 134.633L257.936 155.346H283.979C283.979 155.346 279.72 145.287 277.943 144.223C276.166 143.158 261.739 137.59 261.739 137.59C261.739 137.59 260.79 136.172 259.603 134.749C258.417 133.325 256.756 133.684 256.519 134.633Z" fill="#FFD95C" stroke="black" stroke-linejoin="round"/>
<path d="M261.728 137.579C261.728 137.579 262.671 142.55 263.62 145.039C264.569 147.527 265.75 148.945 265.634 149.42C265.518 149.894 263.973 149.998 263.03 148.708C262.087 147.417 259.714 143.974 258.979 143.974C258.244 143.974 257.677 148.945 257.677 148.945" stroke="black" stroke-linejoin="round"/>
<path d="M203.404 88.7288H122.903V155.346H203.404V88.7288Z" fill="white"/>
<path d="M197.588 151.96C197.588 151.96 197.044 148.395 196.865 147.857C196.685 147.318 194.312 146.254 190.499 143.933C186.685 141.612 173.392 133.95 173.392 133.95H151.701C151.701 133.95 138.413 141.63 134.594 143.945C130.774 146.259 128.407 147.336 128.228 147.868C128.049 148.401 127.499 151.971 127.499 151.971L127.319 155.357H197.75L197.588 151.96Z" fill="black" stroke="black" stroke-linejoin="round"/>
<path d="M152.992 128.423C152.992 128.423 149.959 129.315 149.78 130.559C149.601 131.803 147.645 136.091 147.645 136.091C147.645 136.091 149.78 139.836 151.389 143.036C152.998 146.236 152.992 147.139 153.524 147.139C154.057 147.139 159.589 140.004 160.122 139.471C160.654 138.939 164.046 139.83 164.046 139.83C164.046 139.83 169.572 148.389 170.469 148.389C171.366 148.389 175.637 137.509 175.637 134.836C175.637 132.162 172.072 128.771 172.072 128.771L152.992 128.423Z" fill="white" stroke="black" stroke-linejoin="round"/>
<path d="M152.446 126.103C152.446 126.103 151.914 130.027 152.626 131.988C153.337 133.95 159.761 144.142 162.076 144.142C164.391 144.142 170.635 134.303 171.706 133.267C172.777 132.231 172.956 126.844 172.956 126.844C172.956 126.844 166.011 130.235 160.294 128.452C154.576 126.67 152.446 126.103 152.446 126.103Z" fill="#B8B8B8" stroke="black" stroke-linejoin="round"/>
<path d="M158.234 127.775C154.096 126.508 152.481 126.103 152.481 126.103C152.481 126.103 151.949 130.027 152.661 131.988C153.026 132.824 153.452 133.633 153.934 134.407L162.493 131.213L158.234 127.775Z" fill="black" stroke="black" stroke-linejoin="round"/>
<path d="M151.029 109.696C151.029 109.696 148.888 104.528 147.464 108.625C146.04 112.722 149.599 115.57 150.496 116.12C151.393 116.669 151.029 109.696 151.029 109.696Z" fill="#B8B8B8" stroke="black" stroke-linejoin="round"/>
<path d="M174.745 109.696C174.745 109.696 176.886 104.528 178.31 108.625C179.734 112.722 176.175 115.57 175.278 116.12C174.381 116.669 174.745 109.696 174.745 109.696Z" fill="#B8B8B8" stroke="black" stroke-linejoin="round"/>
<path d="M175.277 111.305C175.277 111.305 175.995 103.99 175.103 98.2835C174.212 92.5773 166.544 89.5448 160.838 90.6154C155.132 91.686 151.387 94.7185 150.67 99.875C149.952 105.031 150.496 120.912 150.849 123.412C151.202 125.912 157.076 131.097 163.865 131.097C170.653 131.097 174.386 124.5 174.924 122.538C175.462 120.576 175.277 111.305 175.277 111.305Z" fill="#B8B8B8" stroke="black" stroke-linejoin="round"/>
<path d="M162.106 117.08C162.106 117.08 154.762 119.216 153.159 119.881C151.556 120.547 150.624 121.751 150.624 124.419C150.624 127.086 153.824 129.893 155.427 130.964C157.03 132.035 161.973 134.164 165.844 133.099C169.716 132.035 173.987 129.228 175.457 126.693C176.927 124.158 175.052 122.15 174.653 121.618C174.253 121.085 167.98 117.08 165.972 117.08H162.106Z" fill="white" stroke="black" stroke-linejoin="round"/>
<path d="M160.369 114.806C160.369 114.806 159.837 116.276 160.369 116.675C161.454 117.333 162.707 117.659 163.975 117.613C165.711 117.613 165.977 116.809 166.377 116.276C166.776 115.744 166.11 114.806 166.11 114.806" fill="#B8B8B8"/>
<path d="M160.369 114.806C160.369 114.806 159.837 116.276 160.369 116.675C161.454 117.333 162.707 117.659 163.975 117.613C165.711 117.613 165.977 116.809 166.377 116.276C166.776 115.744 166.11 114.806 166.11 114.806" stroke="black" stroke-linejoin="round"/>
<path d="M158.101 120.796C159.649 121.566 161.319 122.063 163.037 122.266C165.711 122.532 168.778 120.796 168.778 120.796C168.778 120.796 169.044 121.6 167.58 123.07C166.116 124.54 165.445 124.587 163.57 124.668C160.635 124.847 158.5 122.283 158.101 120.796Z" fill="#B8B8B8" stroke="black" stroke-linejoin="round"/>
<path d="M158.101 120.796C158.101 120.796 160.769 120.796 162.505 120.663C164.241 120.529 168.778 120.796 168.778 120.796C168.778 120.796 164.241 124.152 158.101 120.796Z" fill="#B8B8B8" stroke="black" stroke-linejoin="round"/>
<path d="M158.5 109.401C158.467 109.552 158.391 109.691 158.282 109.8C158.173 109.91 158.035 109.987 157.884 110.022C157.733 110.057 157.576 110.049 157.43 109.999C157.283 109.948 157.154 109.857 157.057 109.736C156.96 109.616 156.899 109.47 156.881 109.316C156.864 109.163 156.89 109.007 156.956 108.867C157.023 108.728 157.128 108.61 157.258 108.527C157.389 108.444 157.541 108.4 157.696 108.399C157.934 108.427 158.153 108.548 158.303 108.735C158.454 108.923 158.525 109.162 158.5 109.401Z" fill="black"/>
<path d="M168.778 110.403C169.22 110.403 169.577 109.954 169.577 109.401C169.577 108.848 169.22 108.399 168.778 108.399C168.337 108.399 167.979 108.848 167.979 109.401C167.979 109.954 168.337 110.403 168.778 110.403Z" fill="black"/>
<path d="M160.503 110.668C159.259 111.747 157.729 112.443 156.099 112.67" stroke="black" stroke-linejoin="round"/>
<path d="M166.244 111.34C166.839 111.936 167.547 112.408 168.325 112.729C169.104 113.05 169.939 113.213 170.781 113.209" stroke="black" stroke-linejoin="round"/>
<path d="M160.37 104.927C159.258 104.444 158.034 104.276 156.833 104.441C155.632 104.607 154.499 105.099 153.559 105.865" stroke="black" stroke-width="2" stroke-linejoin="round"/>
<path d="M165.978 105.06C166.961 104.612 168.054 104.462 169.122 104.629C170.189 104.795 171.185 105.271 171.985 105.998" stroke="black" stroke-width="2" stroke-linejoin="round"/>
<path d="M118.792 88.7288H38.292V155.346H118.792V88.7288Z" fill="white"/>
<path d="M75.6651 93.9604C75.6651 93.9604 72.5862 91.686 68.7204 94.2324C64.8545 96.7788 64.704 98.2487 64.432 101.866C64.16 105.483 64.1658 106.281 62.0245 108.562C59.8833 110.842 56.816 113.243 57.3369 118.336C57.8577 123.429 64.8603 125.032 66.8453 125.032C68.8303 125.032 75.8155 125.431 75.8155 125.431C75.8155 125.431 84.9246 127.168 90.2836 125.564C93.4207 124.665 96.2189 122.851 98.3221 120.356C98.3221 120.356 104.08 119.951 103.681 112.59C103.282 105.228 98.4725 105.222 96.1577 102.948C93.8428 100.674 94.572 93.9604 89.5949 91.2809C84.6179 88.6014 75.7982 88.2021 75.6651 93.9604Z" fill="black" stroke="black" stroke-linejoin="round"/>
<path d="M110.082 143.829C107.675 140.617 104.457 140.484 98.6989 139.009C92.9406 137.533 87.4543 135.536 86.9161 133.8C86.3779 132.064 85.1799 123.221 85.1799 123.221L78.7445 123.111H78.3684L71.9387 123.238C71.9387 123.238 70.735 132.076 70.2026 133.817C69.6701 135.559 64.1781 137.568 58.4198 139.026C52.6615 140.484 49.4495 140.635 47.0363 143.847C44.623 147.059 43.2861 155.363 43.2861 155.363H113.833C113.833 155.363 112.513 147.047 110.082 143.829Z" fill="white" stroke="black" stroke-linejoin="round"/>
<path d="M79.1671 129.437L71.9157 123.209C71.9157 123.209 71.1402 128.887 70.5615 132.035L79.1671 129.437Z" fill="black" stroke="black" stroke-linejoin="round"/>
<path d="M110.083 143.829C107.676 140.617 104.458 140.484 98.6995 139.008C98.3697 138.927 98.0398 138.841 97.7157 138.748C92.6095 143.453 85.9591 146.129 79.0171 146.271C67.8131 146.601 61.3024 140.785 59.3926 138.748L58.3914 139.008C52.6331 140.484 49.4212 140.617 47.0079 143.829C44.5947 147.041 43.2578 155.346 43.2578 155.346H113.833C113.833 155.346 112.514 147.047 110.083 143.829Z" fill="#FFD95C" stroke="black" stroke-linejoin="round"/>
<path d="M76.3373 101.594C75.3546 103.237 74.0844 104.689 72.5872 105.882C70.1739 107.757 68.9702 107.352 67.8995 108.695C66.8289 110.037 67.7664 117.132 68.0326 119.806C68.2988 122.48 73.5247 127.573 74.9773 128.782C76.4299 129.992 78.3281 131.462 79.665 130.79C81.0018 130.119 83.282 129.054 87.8365 123.267C89.0808 121.693 88.7741 119.916 89.0403 118.984C89.1933 118.506 89.2847 118.01 89.3123 117.509C89.3123 117.509 88.1028 118.18 87.2983 116.172C86.4939 114.164 87.4372 110.547 85.6953 109.227C83.9533 107.908 80.7414 106.687 78.7506 105.882C76.7598 105.078 76.3373 101.594 76.3373 101.594Z" fill="white" stroke="black" stroke-linejoin="round"/>
<path d="M77.0088 119.54C77.2548 119.927 77.5893 120.25 77.9848 120.483C78.3802 120.715 78.8253 120.85 79.2832 120.877C79.6869 120.878 80.0764 120.728 80.3744 120.456C80.6724 120.183 80.8572 119.809 80.892 119.407" stroke="black" stroke-linejoin="round"/>
<path d="M75.9326 122.219C75.9326 122.219 79.2834 124.494 81.9629 122.219" stroke="black" stroke-linejoin="round"/>
<path d="M74.4628 113.272C74.4628 114.013 74.1619 114.615 73.7915 114.615C73.4211 114.615 73.126 114.036 73.126 113.272C73.126 112.508 73.4211 111.936 73.7915 111.936C74.1619 111.936 74.4628 112.508 74.4628 113.272Z" fill="black"/>
<path d="M84.6415 113.272C84.6415 114.013 84.3405 114.615 83.9701 114.615C83.5998 114.615 83.2988 114.036 83.2988 113.272C83.2988 112.508 83.5998 111.936 83.9701 111.936C84.3405 111.936 84.6415 112.508 84.6415 113.272Z" fill="black"/>
<path d="M73.7908 116.993C76.0089 116.993 77.8071 115.195 77.8071 112.977C77.8071 110.759 76.0089 108.961 73.7908 108.961C71.5726 108.961 69.7744 110.759 69.7744 112.977C69.7744 115.195 71.5726 116.993 73.7908 116.993Z" stroke="black" stroke-linejoin="round"/>
<path d="M84.2371 116.993C86.4552 116.993 88.2534 115.195 88.2534 112.977C88.2534 110.759 86.4552 108.961 84.2371 108.961C82.0189 108.961 80.2207 110.759 80.2207 112.977C80.2207 115.195 82.0189 116.993 84.2371 116.993Z" stroke="black" stroke-linejoin="round"/>
<path d="M77.9463 112.173C77.9463 112.173 79.4168 111.102 80.2215 112.173" stroke="black" stroke-linejoin="round"/>
<path d="M69.7755 112.977H67.3613" stroke="black" stroke-linejoin="round"/>
<path d="M70.7119 109.222C71.4208 108.665 72.2604 108.298 73.1508 108.158C74.0412 108.017 74.9528 108.106 75.7989 108.417" stroke="black" stroke-linejoin="round"/>
<path d="M81.2627 108.892C82.0385 108.432 82.9191 108.178 83.8207 108.155C84.7223 108.131 85.6148 108.339 86.4133 108.758" stroke="black" stroke-linejoin="round"/>
<path d="M288.007 18.6738H207.507V85.2907H288.007V18.6738Z" fill="white"/>
<path d="M284.866 85.2907C284.785 84.2143 284.328 78.3461 283.581 76.8414C282.754 75.192 278.951 73.4211 275.67 71.5345C272.389 69.6478 261.862 63.1546 260.328 62.2112C259.012 61.4872 257.628 60.894 256.196 60.4404L247.938 59.9832H247.758H247.585L239.32 60.4404C237.888 60.894 236.504 61.4872 235.188 62.2112C233.655 63.1546 223.151 69.6421 219.846 71.5345C216.542 73.4269 212.763 75.192 211.941 76.8414C211.189 78.3461 210.731 84.2143 210.65 85.2907H284.866Z" fill="black" stroke="black" stroke-linejoin="round"/>
<path d="M246.398 85.2905H250.125C252.706 81.0427 257.185 73.6176 257.851 72.1245C258.794 70.0006 258.91 64.3349 258.088 62.0895C257.266 59.844 255.959 59.6125 255.959 59.6125L239.795 59.3752C239.795 59.3752 237.434 62.6798 237.434 64.0976C237.434 65.5155 240.501 75.0934 241.919 77.7902C242.758 79.3991 244.841 82.7904 246.398 85.2905Z" fill="white" stroke="black" stroke-linejoin="round"/>
<path d="M245.414 83.7051L246.398 85.2908H250.125L251.381 83.2132L249.349 79.5556L252.654 74.9258L247.7 70.9153L244.633 75.7534L247.226 79.8855L245.414 83.7051Z" fill="#FFD95C" stroke="black" stroke-linejoin="round"/>
<path d="M257.851 72.1245C258.794 70.0006 258.91 64.3349 258.088 62.0895C257.266 59.844 255.959 59.6125 255.959 59.6125L239.795 59.3752C239.795 59.3752 237.434 62.6798 237.434 64.0976C237.434 65.5155 240.501 75.0934 241.919 77.7902C242.092 78.1259 242.33 78.5484 242.596 79.0229L248.175 73.7739L254.002 78.8551C255.82 75.8052 257.469 72.9868 257.851 72.1245Z" fill="white" stroke="black" stroke-linejoin="round"/>
<path d="M238.966 55.9785C238.966 55.9785 240.123 63.6466 240.852 65.539C241.582 67.4315 247.108 73.7974 248.173 73.7974C249.238 73.7974 255.841 66.1293 256.432 64.9487C257.022 63.7681 258.087 56.8003 258.087 56.8003C258.087 56.8003 252.3 58.93 249.117 58.93C245.934 58.93 238.966 55.9785 238.966 55.9785Z" fill="white" stroke="black" stroke-linejoin="round"/>
<path d="M248.949 62.8711L241.356 56.8929C239.955 56.372 238.966 55.9553 238.966 55.9553C238.966 55.9553 239.579 59.9427 240.187 62.8711H248.949Z" fill="black" stroke="black" stroke-linejoin="round"/>
<path d="M236.842 44.4038C236.842 44.4038 235.778 42.1641 234.128 44.0508C232.479 45.9374 233.769 47.9456 234.834 49.9537C235.899 51.9619 237.08 52.668 237.548 52.3149C238.017 51.9619 236.842 44.4038 236.842 44.4038Z" stroke="black" stroke-linejoin="round"/>
<path d="M260.831 44.4038C260.831 44.4038 261.896 42.1641 263.545 44.0508C265.195 45.9374 263.898 47.9456 262.839 49.9537C261.78 51.9619 260.594 52.668 260.125 52.3149C259.656 51.9619 260.831 44.4038 260.831 44.4038Z" fill="white" stroke="black" stroke-linejoin="round"/>
<path d="M241.444 29.1605C241.444 29.1605 236.721 32.5866 235.9 35.5265C235.078 38.4664 237.057 52.5178 237.312 54.4102C237.566 56.3026 244.256 62.3156 246.403 63.2589C248.551 64.2022 251.479 63.7335 252.538 63.2589C253.597 62.7844 258.557 57.3559 259.483 55.8223C260.409 54.2887 261.965 41.3079 261.965 38.3564C261.965 35.4049 259.957 31.1571 257.336 29.3862C254.714 27.6153 250.97 26.2032 247.306 26.9093C245.23 27.2905 243.242 28.0538 241.444 29.1605Z" fill="white" stroke="black" stroke-linejoin="round"/>
<path d="M245.569 51.2329C245.569 51.2329 244.863 51.3486 245.922 52.0604C246.982 52.7723 248.284 53.8313 249.933 53.3568C251.582 52.8822 252.884 52.4135 252.653 50.7583" stroke="black" stroke-linejoin="round"/>
<path d="M244.505 55.4807C247.491 56.3698 250.688 56.2457 253.597 55.1277" stroke="black" stroke-linejoin="round"/>
<path d="M243.504 46.5172C243.862 46.5172 244.152 46.0403 244.152 45.452C244.152 44.8637 243.862 44.3867 243.504 44.3867C243.146 44.3867 242.855 44.8637 242.855 45.452C242.855 46.0403 243.146 46.5172 243.504 46.5172Z" fill="black"/>
<path d="M254.714 45.452C254.714 46.0309 254.424 46.5115 254.065 46.5115C253.706 46.5115 253.417 46.0367 253.417 45.452C253.417 44.8672 253.706 44.3867 254.065 44.3867C254.424 44.3867 254.714 44.8615 254.714 45.452Z" fill="black"/>
<path d="M240.992 42.3786C241.649 41.8597 242.419 41.5037 243.24 41.3398C244.061 41.1758 244.909 41.2085 245.715 41.4353" stroke="black" stroke-linejoin="round"/>
<path d="M251.832 41.4349C251.832 41.4349 255.015 40.4915 257.139 42.8527" stroke="black" stroke-linejoin="round"/>
<path d="M235.898 35.5378C235.898 35.5378 237.194 35.7693 237.431 38.9581C237.669 42.1469 237.9 46.2732 237.31 46.4815C236.719 46.6898 236.731 45.9028 235.66 43.6515C234.59 41.4003 235.203 35.8909 235.898 35.5378Z" fill="black" stroke="black" stroke-linejoin="round"/>
<path d="M261.391 35.7696C261.391 35.7696 260.234 38.7211 260.089 40.1389C259.945 41.5568 259.852 46.5049 260.668 46.748C261.484 46.991 261.733 45.8046 262.323 41.3195C262.913 36.8344 261.86 35.3008 261.391 35.7696Z" fill="black" stroke="black" stroke-linejoin="round"/>
<path d="M233.538 63.2703C232.935 63.7797 232.466 64.4295 232.172 65.1627C231.096 69.8388 231.096 74.1503 230.02 78.8206C231.814 80.6204 234.69 79.897 236.964 81.2107M236.964 81.2107C235.361 80.7419 235.436 82.2582 236.964 81.2107ZM236.964 81.2107L232.381 84.3358" stroke="#6B6B6B" stroke-linejoin="round"/>
<path d="M261.982 63.1545C261.982 63.1545 265.287 67.8711 265.877 70.6779C266.467 73.4848 268.354 78.9421 268.354 78.9421L260.564 81.4422L266.93 84.5094" stroke="#6B6B6B" stroke-linejoin="round"/>
<path d="M203.404 18.6738H122.903V85.2907H203.404V18.6738Z" fill="white"/>
<path d="M159.971 29.7681C159.971 29.7681 157.812 26.7125 155.121 29.2299C152.43 31.7474 146.672 39.4733 147.019 43.6054C147.366 47.7375 150.433 53.1254 150.433 55.1046C150.433 57.0839 149.178 62.628 151.151 64.8041C153.124 66.98 160.318 66.6039 160.318 66.6039L163.912 66.4245C163.912 66.4245 172.014 68.5773 175.949 66.4245C179.885 64.2716 178.264 54.2018 177.749 52.5872L177.205 50.9726C177.205 50.9726 178.467 42.8704 176.129 38.0323C173.791 33.1942 170.561 30.8445 167.326 30.3063C164.89 29.959 162.432 29.7791 159.971 29.7681Z" fill="black" stroke="black" stroke-linejoin="round"/>
<path d="M193.38 77.744C191.401 75.5854 186.551 74.509 179.902 71.2739C173.252 68.0388 170.561 66.4242 170.561 66.4242C167.772 65.3941 164.022 66.048 162.743 66.32C161.464 66.048 157.719 65.3941 154.924 66.4242C154.924 66.4242 152.233 68.0388 145.583 71.2739C138.934 74.509 134.084 75.5854 132.105 77.744C130.126 79.9027 129.79 85.2674 129.79 85.2674H195.712C195.712 85.2674 195.354 79.8969 193.38 77.744Z" fill="#FFD95C" stroke="black" stroke-linejoin="round"/>
<path d="M157.8 63.7276C157.8 63.7276 156.544 62.113 155.109 62.8306C153.674 63.5482 150.792 69.1155 150.792 69.1155C150.792 69.1155 151.151 78.8207 152.592 79.5325C154.033 80.2444 155.109 73.9652 155.485 73.2476C155.862 72.53 162.129 76.2975 162.129 76.2975L167.523 73.7858C167.523 73.7858 169.838 80.2502 170.937 80.4354C172.037 80.6205 172.373 71.2684 172.014 69.1097C171.655 66.9511 169.12 63.5424 166.805 63.363C165.181 63.3287 163.575 63.6986 162.129 64.4394L157.8 63.7276Z" fill="white" stroke="black" stroke-linejoin="round"/>
<path d="M156.187 58.1602C156.187 58.1602 156.366 66.7832 156.904 68.7566C157.442 70.73 160.857 76.8587 162.477 77.206C164.098 77.5532 168.762 68.2184 168.762 68.2184L169.659 57.4368C169.659 57.4368 165.527 59.9542 156.187 58.1602Z" fill="white" stroke="black" stroke-linejoin="round"/>
<path d="M163.27 60.1857L161.245 58.7736C159.546 58.693 157.855 58.488 156.187 58.1602C156.187 58.1602 156.262 61.8119 156.464 64.9023L164.601 62.4253L163.27 60.1857Z" fill="black" stroke="black" stroke-linejoin="round"/>
<path d="M159.779 31.2034C159.779 31.2034 162.094 25.9949 167.505 25.8155C172.916 25.6361 177.025 29.5887 178.287 33.1826C179.548 36.7765 184.213 51.7018 186.389 57.9809C188.565 64.2601 188.362 70.0184 184.774 75.9214C181.186 81.8243 172.551 83.4448 169.316 80.418C166.081 77.3913 164.646 68.016 166.805 63.3457C168.963 58.6754 168.958 56.1579 168.778 51.3082C168.599 46.4585 161.052 38.368 160.155 36.0357C159.62 34.4834 159.49 32.8199 159.779 31.2034Z" fill="black" stroke="black" stroke-linejoin="round"/>
<path d="M152.413 47.0199C152.413 47.0199 149.716 45.5789 149.895 48.0964C150.075 50.6138 152.21 52.7667 152.951 53.1255L153.669 53.4843L152.413 47.0199Z" stroke="black" stroke-linejoin="round"/>
<path d="M159.971 32.8296C159.971 32.8296 154.762 37.6793 153.501 40.5556C152.645 42.5997 152.277 44.8147 152.424 47.0257C152.804 50.5913 153.403 54.1302 154.218 57.6221C154.756 59.4219 158.588 63.01 162.847 63.3746C167.535 63.7739 171.111 57.4427 171.111 57.4427C171.111 57.4427 172.367 47.7433 172.367 46.6611C172.367 45.5789 161.574 41.4468 159.971 32.8296Z" fill="white" stroke="black" stroke-linejoin="round"/>
<path d="M163.194 45.0405C163.194 45.0405 163.912 50.249 163.912 51.3313C163.912 52.4135 160.677 51.8695 160.677 51.8695" stroke="black" stroke-linejoin="round"/>
<path d="M159.779 54.0222C159.779 54.0222 163.014 55.822 164.45 53.8428" stroke="black" stroke-linejoin="round"/>
<path d="M158.883 45.6716C158.852 45.8255 158.778 45.9674 158.67 46.0809C158.562 46.1944 158.424 46.2748 158.271 46.3128C158.119 46.3508 157.959 46.3447 157.811 46.2954C157.662 46.246 157.53 46.1554 157.43 46.034C157.331 45.9126 157.268 45.7655 157.249 45.6098C157.23 45.4541 157.256 45.2962 157.323 45.1545C157.39 45.0128 157.497 44.8931 157.629 44.8094C157.762 44.7257 157.916 44.6814 158.072 44.6816C158.311 44.7065 158.53 44.8245 158.681 45.0099C158.833 45.1953 158.906 45.4331 158.883 45.6716Z" fill="black"/>
<path d="M167.148 45.6716C167.117 45.8255 167.043 45.9674 166.935 46.0809C166.827 46.1944 166.688 46.2748 166.536 46.3128C166.384 46.3508 166.224 46.3447 166.075 46.2954C165.926 46.246 165.794 46.1554 165.695 46.034C165.596 45.9126 165.533 45.7655 165.514 45.6098C165.495 45.4541 165.521 45.2962 165.588 45.1545C165.655 45.0128 165.761 44.8931 165.894 44.8094C166.026 44.7257 166.18 44.6814 166.337 44.6816C166.575 44.7065 166.794 44.8245 166.946 45.0099C167.098 45.1953 167.17 45.4331 167.148 45.6716Z" fill="black"/>
<path d="M155.827 43.4258C155.827 43.4258 156.365 41.4466 160.318 42.3436" stroke="black" stroke-linejoin="round"/>
<path d="M164.091 42.8818C164.091 42.8818 166.608 40.729 169.658 43.4258" stroke="black" stroke-linejoin="round"/>
<path d="M118.792 18.6738H38.292V85.2907H118.792V18.6738Z" fill="white"/>
<path d="M112.758 80.2848C110.721 75.2556 108.203 72.9813 108.203 72.9813L88.5554 62.5642L79.6952 61.1869V61.1174L79.4521 61.1522L79.2148 61.1174V61.1869L70.3488 62.5527L50.7069 72.9697C50.7069 72.9697 48.1895 75.2441 46.1523 80.2732L44.1152 85.3081H114.795L112.758 80.2848Z" fill="white" stroke="black" stroke-linejoin="round"/>
<path d="M80.0527 68.9995V84.2142" stroke="black" stroke-linejoin="round"/>
<path d="M52.7432 74.9893C52.7432 74.9893 55.6368 81.9339 55.8567 85.169" stroke="black" stroke-linejoin="round"/>
<path d="M105.928 74.8679C105.928 74.8679 102.091 80.9792 100.777 85.1692" stroke="black" stroke-linejoin="round"/>
<path d="M79.9315 54.2656C90.4502 54.2656 98.9773 46.3552 98.9773 36.5971C98.9773 26.8391 90.4502 18.9287 79.9315 18.9287C69.4128 18.9287 60.8857 26.8391 60.8857 36.5971C60.8857 46.3552 69.4128 54.2656 79.9315 54.2656Z" fill="black" stroke="black" stroke-linejoin="round"/>
<path d="M71.4238 52.9458L71.9042 60.012L79.9311 68.6408L87.958 60.6139V53.4261L79.4507 55.2202L71.4238 52.9458Z" fill="#B8B8B8" stroke="black" stroke-linejoin="round"/>
<path d="M75.88 54.2074L71.4238 52.9458L71.9042 60.012L72.1067 60.2319L80.07 58.2006L75.88 54.2074Z" fill="black" stroke="black" stroke-linejoin="round"/>
<path d="M70.2257 41.7937C70.2257 41.7937 68.0381 40.2312 68.0381 43.2C68.0535 44.092 68.2562 44.9707 68.6331 45.7792C69.01 46.5878 69.5525 47.3081 70.2257 47.8935V41.7937Z" fill="#B8B8B8" stroke="black" stroke-linejoin="round"/>
<path d="M88.9883 41.7937C88.9883 41.7937 91.1759 40.2312 91.1759 43.2C91.1604 44.092 90.9577 44.9707 90.5808 45.7792C90.204 46.5878 89.6614 47.3081 88.9883 47.8935V41.7937Z" fill="#B8B8B8" stroke="black" stroke-linejoin="round"/>
<path d="M70.2268 38.8713C70.2268 38.8713 69.9142 50.4458 70.8518 52.9459C71.7893 55.446 77.1078 58.7331 79.1391 59.1961C81.1704 59.6591 87.5827 55.9148 88.6765 53.4089C89.7703 50.903 89.3015 36.9905 89.3015 36.9905C89.3015 36.9905 88.2077 30.422 80.2329 30.1095C72.2581 29.797 70.5393 34.965 70.2268 38.8713Z" fill="#B8B8B8" stroke="black" stroke-linejoin="round"/>
<path d="M77.4191 48.8772C77.4191 48.8772 77.1066 49.346 78.0442 49.971C78.9817 50.596 81.1693 51.221 82.4193 49.1897" stroke="black" stroke-linejoin="round"/>
<path d="M76.3262 51.6902C76.3262 51.6902 79.92 53.1023 83.3577 51.6902" stroke="black" stroke-linejoin="round"/>
<path d="M75.9846 42.7028C75.9846 43.3454 75.6488 43.8607 75.2262 43.8607C74.8036 43.8607 74.4678 43.3397 74.4678 42.7028C74.4678 42.066 74.8094 41.5449 75.2262 41.5449C75.643 41.5449 75.9846 42.0891 75.9846 42.7028Z" fill="black"/>
<path d="M84.8274 42.7028C84.8274 43.3454 84.4916 43.8607 84.069 43.8607C83.6463 43.8607 83.3105 43.3397 83.3105 42.7028C83.3105 42.066 83.6521 41.5449 84.069 41.5449C84.4858 41.5449 84.8274 42.0891 84.8274 42.7028Z" fill="black"/>
<path d="M77.7904 40.7466H71.6328C71.6328 40.7466 70.3885 41.0186 71.0077 43.7212C71.4244 45.5442 75.8806 45.1275 76.795 45.1275C78.5948 45.1275 78.89 42.8126 78.6006 41.4295C78.5608 41.2417 78.4595 41.0726 78.3128 40.9489C78.166 40.8252 77.9822 40.754 77.7904 40.7466Z" stroke="black" stroke-linejoin="round"/>
<path d="M81.5922 40.7466H87.7325C87.7325 40.7466 88.9825 41.0186 88.3575 43.7212C87.9408 45.5442 83.4905 45.1275 82.5703 45.1275C80.7705 45.1275 80.4695 42.8126 80.7589 41.4295C80.8006 41.2384 80.9055 41.067 81.0568 40.9431C81.208 40.8192 81.3967 40.7499 81.5922 40.7466Z" stroke="black" stroke-linejoin="round"/>
<path d="M78.0625 40.845H81.1702" stroke="black" stroke-linejoin="round"/>
<path d="M78.75 42.0197C78.75 42.0197 79.4389 40.8619 80.6837 42.0197" stroke="black" stroke-linejoin="round"/>
<path d="M71.6327 40.7466L70.249 41.5397" stroke="black" stroke-linejoin="round"/>
<path d="M88.0098 40.9143L89.4629 41.7422" stroke="black" stroke-linejoin="round"/>
<path d="M81.9678 40.1271C81.9678 40.1271 83.7676 38.8134 87.2399 40.1271" stroke="black" stroke-width="2" stroke-linejoin="round"/>
<path d="M77.8947 40.1271C77.8947 40.1271 75.001 38.8134 72.2637 40.1271" stroke="black" stroke-width="2" stroke-linejoin="round"/>
<path d="M71.7889 58.0964L79.9316 68.6408L75.8574 73.4326L69.2715 63.2471L71.7889 58.0964Z" fill="white" stroke="black" stroke-linejoin="round"/>
<path d="M80.0527 68.9996L84.9603 73.913L91.0716 63.1313L88.1954 59.0571L80.0527 68.9996Z" fill="white" stroke="black" stroke-linejoin="round"/>
</svg>
