<svg width="703" height="774" viewBox="0 0 703 774" fill="none" xmlns="http://www.w3.org/2000/svg">
<path d="M660.272 538.955L668.397 546.635" stroke="black" stroke-width="2" stroke-linecap="round" stroke-linejoin="round"/>
<path d="M668.397 536.945L661.591 547.112" stroke="black" stroke-width="2" stroke-linecap="round" stroke-linejoin="round"/>
<path d="M676.389 539.862L684.529 536.83" stroke="black" stroke-width="2" stroke-linecap="round" stroke-linejoin="round"/>
<path d="M688.436 528.359L693.379 532.726" stroke="black" stroke-width="2" stroke-linecap="round" stroke-linejoin="round"/>
<path d="M697.169 523.103L690.907 544.591" stroke="black" stroke-width="2" stroke-linecap="round" stroke-linejoin="round"/>
<path d="M317.937 418.246L339.804 403.201L368.758 405.228L370.571 441.943L349.313 457.137L323.078 455.225L317.937 418.246Z" stroke="black" stroke-width="2" stroke-linecap="round" stroke-linejoin="round"/>
<path d="M323.078 455.225L344.254 439.982L370.571 441.943" stroke="black" stroke-width="2" stroke-linecap="round" stroke-linejoin="round"/>
<path d="M344.254 439.982L339.805 403.201" stroke="black" stroke-width="2" stroke-linecap="round" stroke-linejoin="round"/>
<path d="M317.937 418.246L346.824 421.592L368.758 405.228" stroke="black" stroke-width="2" stroke-linecap="round" stroke-linejoin="round"/>
<path d="M346.824 421.592L349.313 457.137" stroke="black" stroke-width="2" stroke-linecap="round" stroke-linejoin="round"/>
<path d="M573.164 294.901L563.475 325.008L593.631 320.938L573.164 294.901Z" stroke="black" stroke-width="2" stroke-linecap="round" stroke-linejoin="round"/>
<path d="M573.164 294.901L578.553 322.8" stroke="black" stroke-width="2" stroke-linecap="round" stroke-linejoin="round"/>
<path d="M577.695 318.334L581.222 317.774L582.046 322.503" stroke="black" stroke-width="2" stroke-linecap="round" stroke-linejoin="round"/>
<path d="M555 579.033C555.247 578.778 555.551 578.583 555.886 578.466C556.222 578.349 556.581 578.312 556.933 578.358C557.286 578.405 557.622 578.533 557.916 578.734C558.21 578.934 558.453 579.2 558.625 579.511C560.141 581.884 557.175 586.861 557.175 586.861L563.223 584.554" stroke="black" stroke-width="2" stroke-linecap="round" stroke-linejoin="round"/>
<path d="M660.96 74C675.346 82.0912 658.867 101.866 658.867 113.401C658.867 124.937 675.346 123.289 683.586 126.585C686.882 126.585 693.473 126.585 693.292 134.956" stroke="black" stroke-width="2" stroke-linecap="round" stroke-linejoin="round"/>
<path d="M644.926 84.4972C647.431 98.1254 663.053 93.297 672.644 96.4115C689.123 101.767 679.977 118.774 675.066 129.057C672.116 135.187 669.183 143.789 674.456 149.606" stroke="black" stroke-width="2" stroke-linecap="round" stroke-linejoin="round"/>
<path d="M647.035 89.787L664.19 75.5326" stroke="black" stroke-width="2" stroke-linecap="round" stroke-linejoin="round"/>
<path d="M653.759 94.0387L666.678 83.3273" stroke="black" stroke-width="2" stroke-linecap="round" stroke-linejoin="round"/>
<path d="M661.355 104.882L672.265 96.3127" stroke="black" stroke-width="2" stroke-linecap="round" stroke-linejoin="round"/>
<path d="M659.098 117.702L680.422 102.377" stroke="black" stroke-width="2" stroke-linecap="round" stroke-linejoin="round"/>
<path d="M667.271 123.684L682.136 112.775" stroke="black" stroke-width="2" stroke-linecap="round" stroke-linejoin="round"/>
<path d="M673.6 146.87L692.171 131.743" stroke="black" stroke-width="2" stroke-linecap="round" stroke-linejoin="round"/>
<path d="M674.061 134.973L686.173 126.453" stroke="black" stroke-width="2" stroke-linecap="round" stroke-linejoin="round"/>
<path d="M421.524 289.874H440.936L450.642 273.066L440.936 256.257H421.524L411.817 273.066L421.524 289.874Z" stroke="black" stroke-width="2" stroke-linecap="round" stroke-linejoin="round"/>
<path d="M418.706 326.771L409 309.962H389.588" stroke="black" stroke-width="2" stroke-linecap="round" stroke-linejoin="round"/>
<path d="M392.191 273.066H411.604L421.31 256.257L411.604 239.432H392.191L382.485 256.257L392.191 273.066Z" stroke="black" stroke-width="2" stroke-linecap="round" stroke-linejoin="round"/>
<path d="M421.524 256.257H440.936L450.642 239.432L440.936 222.623H421.524L411.817 239.432L421.524 256.257Z" stroke="black" stroke-width="2" stroke-linecap="round" stroke-linejoin="round"/>
<path d="M421.31 258.861C422.748 258.861 423.913 257.695 423.913 256.257C423.913 254.819 422.748 253.654 421.31 253.654C419.872 253.654 418.706 254.819 418.706 256.257C418.706 257.695 419.872 258.861 421.31 258.861Z" fill="black"/>
<path d="M380.772 223.563C382.21 223.563 383.375 222.397 383.375 220.959C383.375 219.521 382.21 218.355 380.772 218.355C379.334 218.355 378.168 219.521 378.168 220.959C378.168 222.397 379.334 223.563 380.772 223.563Z" fill="black"/>
<path d="M416.103 326.771C416.103 326.256 416.255 325.753 416.541 325.325C416.827 324.896 417.234 324.563 417.71 324.366C418.186 324.169 418.709 324.117 419.214 324.218C419.719 324.318 420.183 324.566 420.547 324.93C420.911 325.294 421.159 325.758 421.26 326.263C421.36 326.768 421.309 327.292 421.112 327.768C420.915 328.243 420.581 328.65 420.153 328.936C419.725 329.222 419.221 329.375 418.706 329.375C418.364 329.375 418.026 329.308 417.71 329.177C417.394 329.046 417.107 328.854 416.865 328.612C416.623 328.37 416.432 328.083 416.301 327.768C416.17 327.452 416.103 327.113 416.103 326.771Z" fill="black"/>
<path d="M389.587 312.566C391.025 312.566 392.191 311.4 392.191 309.962C392.191 308.524 391.025 307.359 389.587 307.359C388.149 307.359 386.983 308.524 386.983 309.962C386.983 311.4 388.149 312.566 389.587 312.566Z" fill="black"/>
<path d="M469.429 239.91C469.429 239.391 469.583 238.884 469.872 238.453C470.16 238.021 470.57 237.686 471.05 237.488C471.53 237.29 472.058 237.239 472.566 237.341C473.075 237.444 473.542 237.695 473.907 238.063C474.273 238.431 474.522 238.9 474.621 239.409C474.72 239.918 474.666 240.446 474.465 240.924C474.264 241.403 473.926 241.811 473.493 242.097C473.06 242.383 472.551 242.533 472.032 242.53C471.689 242.53 471.349 242.462 471.032 242.33C470.715 242.199 470.428 242.005 470.186 241.762C469.944 241.518 469.752 241.229 469.622 240.911C469.492 240.594 469.427 240.253 469.429 239.91Z" fill="black"/>
<path d="M408.802 312.566C410.24 312.566 411.406 311.4 411.406 309.962C411.406 308.524 410.24 307.359 408.802 307.359C407.364 307.359 406.198 308.524 406.198 309.962C406.198 311.4 407.364 312.566 408.802 312.566Z" fill="black"/>
<path d="M448.039 239.91C448.039 239.392 448.193 238.885 448.481 238.454C448.769 238.024 449.178 237.688 449.656 237.489C450.135 237.291 450.662 237.239 451.17 237.34C451.679 237.441 452.146 237.691 452.512 238.057C452.878 238.424 453.128 238.891 453.229 239.399C453.33 239.907 453.278 240.434 453.08 240.913C452.882 241.392 452.546 241.801 452.115 242.089C451.684 242.377 451.177 242.53 450.659 242.53C449.964 242.53 449.298 242.254 448.806 241.763C448.315 241.271 448.039 240.605 448.039 239.91Z" fill="black"/>
<path d="M418.706 289.891C418.703 289.371 418.854 288.863 419.141 288.429C419.427 287.996 419.837 287.657 420.316 287.457C420.795 287.257 421.324 287.203 421.833 287.304C422.343 287.405 422.812 287.654 423.179 288.022C423.546 288.389 423.796 288.858 423.897 289.367C423.997 289.877 423.944 290.405 423.744 290.885C423.543 291.364 423.205 291.773 422.772 292.06C422.338 292.347 421.829 292.498 421.31 292.495C420.621 292.49 419.961 292.215 419.473 291.727C418.986 291.24 418.71 290.58 418.706 289.891Z" fill="black"/>
<path d="M450.659 239.877H472.033" stroke="black" stroke-width="2" stroke-linecap="round" stroke-linejoin="round"/>
<path d="M421.309 289.891L408.802 309.962" stroke="black" stroke-width="2" stroke-linecap="round" stroke-linejoin="round"/>
<path d="M392.191 239.432L380.771 220.959" stroke="black" stroke-width="2" stroke-linecap="round" stroke-linejoin="round"/>
<path d="M529.873 173.17C532.112 165.602 536.779 158.981 543.153 154.328C549.528 149.675 557.257 147.248 565.147 147.422C573.038 147.597 580.651 150.362 586.814 155.292C592.977 160.222 597.347 167.043 599.25 174.703" stroke="black" stroke-width="2" stroke-linecap="round" stroke-linejoin="round"/>
<path d="M560.228 219.048C551.46 218.044 543.368 213.85 537.494 207.264C531.62 200.679 528.373 192.162 528.374 183.337" stroke="black" stroke-width="2" stroke-linecap="round" stroke-linejoin="round"/>
<path d="M600.289 183.337C600.289 192.867 596.504 202.006 589.768 208.746C583.031 215.485 573.893 219.274 564.364 219.278" stroke="black" stroke-width="2" stroke-linecap="round" stroke-linejoin="round"/>
<path d="M602.332 160.547C613.571 159.113 621.102 159.888 622.272 163.25C624.596 169.94 600.553 184.359 568.567 195.466C536.581 206.573 508.781 210.132 506.441 203.425C505.205 199.85 511.5 194.065 522.508 187.754" stroke="black" stroke-width="2" stroke-linecap="round" stroke-linejoin="round"/>
<path d="M408.802 135.927L412.246 142.898L419.942 144.018L414.372 149.457L415.69 157.119L408.802 153.494L401.914 157.119L403.232 149.457L397.662 144.018L405.358 142.898L408.802 135.927Z" stroke="black" stroke-width="2" stroke-linecap="round" stroke-linejoin="round"/>
<path d="M698.405 388.699L700.927 383.031L696.84 380.789C696.99 379.791 697.018 378.779 696.922 377.774L701.108 375.73L698.883 369.946L694.401 371.232C693.8 370.424 693.103 369.694 692.325 369.056L693.857 364.64L688.188 362.119L685.931 366.205C684.929 366.082 683.916 366.082 682.915 366.205L680.888 362.02L675.087 364.244L676.389 368.71C675.581 369.321 674.845 370.024 674.198 370.803L669.798 369.271L667.342 374.857L671.429 377.115C671.278 378.113 671.251 379.125 671.347 380.13L667.145 382.157L669.369 387.958L673.852 386.656C674.457 387.464 675.153 388.2 675.928 388.848L674.412 393.248L680.081 395.769L682.322 391.682C683.32 391.833 684.333 391.86 685.337 391.764L687.381 395.967L693.165 393.742L691.88 389.26C692.683 388.654 693.413 387.957 694.055 387.183L698.405 388.699ZM681.168 385.535C679.867 384.957 678.767 384.005 678.006 382.801C677.246 381.597 676.859 380.195 676.896 378.771C676.932 377.348 677.39 375.967 678.211 374.803C679.032 373.64 680.18 372.746 681.509 372.234C682.838 371.723 684.289 371.617 685.678 371.93C687.067 372.243 688.332 372.961 689.313 373.993C690.295 375.025 690.948 376.325 691.191 377.728C691.433 379.132 691.254 380.575 690.677 381.877C689.898 383.621 688.46 384.984 686.678 385.67C684.896 386.356 682.915 386.307 681.168 385.535Z" stroke="black" stroke-width="2" stroke-linecap="round" stroke-linejoin="round"/>
<path d="M668.281 417.785L671.709 410.089L666.172 407.024C666.369 405.671 666.403 404.299 666.271 402.937L671.973 400.169L668.99 392.308L662.909 394.072C662.097 392.97 661.15 391.973 660.091 391.105L662.168 385.107L654.406 381.63L651.357 387.167C650.004 386.973 648.633 386.934 647.271 387.051L644.502 381.366L636.625 384.398L638.388 390.463C637.294 391.29 636.299 392.241 635.422 393.297L629.44 391.287L626.013 398.982L631.55 402.047C631.352 403.401 631.319 404.773 631.451 406.134L625.749 408.903L628.781 416.763L634.862 415.016C635.679 416.114 636.625 417.11 637.68 417.983L635.603 423.965L643.316 427.392L646.364 421.839C647.717 422.041 649.089 422.08 650.451 421.954L653.22 427.639L661.097 424.624L659.333 418.543C660.427 417.721 661.423 416.776 662.3 415.725L668.281 417.785ZM644.881 413.484C643.112 412.696 641.617 411.4 640.584 409.762C639.552 408.124 639.028 406.216 639.081 404.28C639.133 402.344 639.758 400.467 640.877 398.887C641.996 397.306 643.559 396.093 645.367 395.401C647.176 394.709 649.149 394.569 651.038 394.998C652.926 395.428 654.644 396.408 655.975 397.815C657.307 399.222 658.19 400.992 658.515 402.901C658.84 404.81 658.592 406.772 657.801 408.54C657.278 409.714 656.529 410.773 655.596 411.657C654.664 412.541 653.566 413.232 652.366 413.691C651.166 414.151 649.887 414.369 648.603 414.333C647.319 414.297 646.054 414.009 644.881 413.484Z" stroke="black" stroke-width="2" stroke-linecap="round" stroke-linejoin="round"/>
<path d="M688.768 264.378C688.763 270.576 686.3 276.518 681.92 280.902C677.539 285.286 671.598 287.753 665.4 287.762C664.642 287.762 663.901 287.729 663.176 287.663C658.665 287.235 654.376 285.506 650.83 282.687C647.284 279.867 644.634 276.078 643.201 271.78C641.768 267.482 641.614 262.861 642.758 258.477C643.903 254.093 646.296 250.137 649.647 247.088C652.998 244.039 657.163 242.029 661.634 241.303C666.106 240.576 670.693 241.164 674.837 242.996C678.981 244.827 682.503 247.823 684.976 251.619C687.449 255.415 688.766 259.848 688.768 264.378Z" stroke="black" stroke-width="2" stroke-linecap="round" stroke-linejoin="round"/>
<path d="M685.026 268.597C685.029 269.315 684.82 270.017 684.423 270.615C684.027 271.214 683.462 271.681 682.8 271.958C682.137 272.235 681.408 272.309 680.704 272.171C679.999 272.033 679.352 271.689 678.843 271.183C678.334 270.676 677.987 270.03 677.846 269.327C677.705 268.623 677.776 267.893 678.05 267.23C678.324 266.566 678.788 265.999 679.385 265.6C679.981 265.201 680.683 264.988 681.401 264.988C682.359 264.988 683.279 265.368 683.958 266.044C684.638 266.72 685.022 267.638 685.026 268.597Z" stroke="black" stroke-width="2" stroke-linecap="round" stroke-linejoin="round"/>
<path d="M652.48 277.792C652.481 278.651 652.293 279.5 651.928 280.277C651.564 281.055 651.032 281.743 650.371 282.291C647.298 279.754 644.931 276.468 643.499 272.75C644.406 272.193 645.451 271.902 646.515 271.909C647.294 271.898 648.068 272.042 648.791 272.333C649.515 272.624 650.173 273.055 650.728 273.603C651.283 274.15 651.724 274.802 652.025 275.522C652.325 276.241 652.48 277.013 652.48 277.792Z" stroke="black" stroke-width="2" stroke-linecap="round" stroke-linejoin="round"/>
<path d="M681.401 281.467C677.08 285.56 671.352 287.837 665.4 287.828C664.642 287.828 663.9 287.795 663.175 287.729C663.043 287.095 662.976 286.449 662.978 285.801C662.979 283.61 663.719 281.484 665.08 279.767C666.441 278.05 668.341 276.843 670.474 276.341C672.606 275.84 674.846 276.073 676.829 277.003C678.813 277.934 680.424 279.506 681.401 281.467Z" stroke="black" stroke-width="2" stroke-linecap="round" stroke-linejoin="round"/>
<path d="M659.732 255.101C662.699 255.101 665.104 252.695 665.104 249.728C665.104 246.761 662.699 244.356 659.732 244.356C656.765 244.356 654.359 246.761 654.359 249.728C654.359 252.695 656.765 255.101 659.732 255.101Z" stroke="black" stroke-width="2" stroke-linecap="round" stroke-linejoin="round"/>
<path d="M664.708 264.988C664.708 265.48 664.562 265.961 664.289 266.37C664.015 266.78 663.627 267.099 663.172 267.287C662.717 267.475 662.217 267.525 661.734 267.429C661.252 267.332 660.808 267.095 660.46 266.747C660.112 266.399 659.875 265.956 659.779 265.473C659.683 264.991 659.733 264.49 659.921 264.036C660.109 263.581 660.428 263.192 660.837 262.919C661.247 262.646 661.728 262.5 662.22 262.5C662.547 262.5 662.87 262.564 663.172 262.689C663.474 262.814 663.748 262.997 663.979 263.228C664.21 263.46 664.394 263.734 664.519 264.036C664.644 264.338 664.708 264.661 664.708 264.988Z" stroke="black" stroke-width="2" stroke-linecap="round" stroke-linejoin="round"/>
<path d="M684.368 250.733C683.714 250.948 683.029 251.054 682.341 251.047C681.441 251.047 680.551 250.869 679.72 250.524C678.889 250.18 678.134 249.674 677.499 249.038C676.864 248.401 676.36 247.645 676.018 246.813C675.675 245.982 675.5 245.091 675.502 244.191C675.485 243.906 675.485 243.62 675.502 243.334C679.032 245.017 682.081 247.562 684.368 250.733Z" stroke="black" stroke-width="2" stroke-linecap="round" stroke-linejoin="round"/>
<path d="M488.43 94.7598C506.125 87.6823 514.732 67.6004 507.654 49.9056C500.577 32.2107 480.495 23.6036 462.8 30.681C445.105 37.7585 436.498 57.8404 443.576 75.5352C450.653 93.2301 470.735 101.837 488.43 94.7598Z" stroke="black" stroke-width="2" stroke-linecap="round" stroke-linejoin="round"/>
<path d="M484.292 29.3353C496.321 15.2128 506.555 7.22047 510.493 9.82416C516.492 13.7626 505.731 40.6565 486.467 69.8738C467.203 99.0912 446.72 119.591 440.721 115.636C436.766 113.049 440.095 100.492 448.334 83.8645" stroke="black" stroke-width="2" stroke-linecap="round" stroke-linejoin="round"/>
<path d="M441.842 69.8079C425.066 64.9795 414.355 59.3437 415.03 54.8449C416.002 47.726 444.989 46.078 479.612 51.2689C514.234 56.4598 541.457 66.2978 540.419 73.3838C539.678 78.3275 525.588 80.5852 505.566 79.8271" stroke="black" stroke-width="2" stroke-linecap="round" stroke-linejoin="round"/>
<path d="M446.241 44.8091C433.585 21.9692 427.257 4.15529 431.542 1.37033C437.178 -2.27154 458.963 21.3594 480.205 54.1033C501.446 86.8472 514.086 116.444 508.466 120.102C504.742 122.508 493.948 112.983 480.913 96.7676" stroke="black" stroke-width="2" stroke-linecap="round" stroke-linejoin="round"/>
<path d="M515.355 24.7541C514.741 25.6909 513.862 26.4246 512.831 26.8625C511.8 27.3005 510.662 27.4231 509.561 27.2149C508.461 27.0067 507.446 26.4769 506.646 25.6926C505.846 24.9083 505.297 23.9045 505.067 22.808C504.837 21.7115 504.937 20.5715 505.355 19.532C505.772 18.4924 506.489 17.5998 507.413 16.967C508.338 16.3342 509.429 15.9895 510.549 15.9765C511.669 15.9634 512.768 16.2826 513.707 16.8936C514.333 17.3007 514.871 17.8271 515.293 18.4428C515.714 19.0586 516.01 19.7515 516.163 20.4817C516.316 21.212 516.324 21.9653 516.185 22.6985C516.046 23.4316 515.764 24.1302 515.355 24.7541Z" fill="black"/>
<path d="M496.586 111.582C495.971 112.519 495.093 113.253 494.062 113.691C493.031 114.129 491.893 114.251 490.792 114.043C489.691 113.835 488.677 113.305 487.877 112.521C487.077 111.736 486.527 110.733 486.297 109.636C486.068 108.54 486.168 107.4 486.585 106.36C487.003 105.321 487.719 104.428 488.644 103.795C489.568 103.162 490.659 102.818 491.779 102.805C492.9 102.792 493.999 103.111 494.938 103.722C495.563 104.129 496.102 104.655 496.523 105.271C496.945 105.887 497.241 106.58 497.394 107.31C497.547 108.04 497.554 108.793 497.416 109.527C497.277 110.26 496.995 110.958 496.586 111.582Z" fill="black"/>
<path d="M466.296 52.6697C465.682 53.6064 464.804 54.3401 463.773 54.7781C462.741 55.216 461.604 55.3386 460.503 55.1304C459.402 54.9222 458.388 54.3925 457.588 53.6081C456.788 52.8238 456.238 51.82 456.008 50.7235C455.778 49.6271 455.879 48.4871 456.296 47.4475C456.714 46.4079 457.43 45.5154 458.354 44.8826C459.279 44.2497 460.37 43.905 461.49 43.892C462.611 43.8789 463.71 44.1981 464.649 44.8092C465.908 45.6341 466.789 46.925 467.098 48.3986C467.407 49.8723 467.119 51.4083 466.296 52.6697Z" fill="black"/>
<path d="M521.187 294.534C523.131 302.246 522.175 288.058 525.982 270.722C529.789 253.386 536.331 260.406 536.331 260.406" stroke="black" stroke-width="2" stroke-linecap="round" stroke-linejoin="round"/>
<path d="M520 276.819L531.947 271.924" stroke="black" stroke-width="2" stroke-linecap="round" stroke-linejoin="round"/>
<path d="M541.818 266.042C541.818 266.042 534.683 280.873 545.444 287.102" stroke="black" stroke-width="2" stroke-linecap="round" stroke-linejoin="round"/>
<path d="M551.953 261.889C551.953 261.889 563.752 268.48 556.37 282.619" stroke="black" stroke-width="2" stroke-linecap="round" stroke-linejoin="round"/>
<path d="M543.878 271.051L552.332 277.214" stroke="black" stroke-width="2" stroke-linecap="round" stroke-linejoin="round"/>
<path d="M550.503 268.332L543.895 278.862" stroke="black" stroke-width="2" stroke-linecap="round" stroke-linejoin="round"/>
<path d="M588.466 426.159C590.074 416.36 583.434 407.114 573.636 405.506C563.838 403.898 554.591 410.537 552.983 420.335C551.375 430.134 558.014 439.38 567.813 440.988C577.611 442.596 586.857 435.957 588.466 426.159Z" stroke="black" stroke-width="2" stroke-linecap="round" stroke-linejoin="round"/>
<path d="M599.13 449.812C609.918 447.6 616.87 437.061 614.657 426.273C612.445 415.485 601.906 408.533 591.118 410.746C580.33 412.958 573.379 423.497 575.591 434.285C577.803 445.073 588.342 452.024 599.13 449.812Z" stroke="black" stroke-width="2" stroke-linecap="round" stroke-linejoin="round"/>
<path d="M587.103 415.82L578.83 418.769" stroke="black" stroke-width="2" stroke-linecap="round" stroke-linejoin="round"/>
<path d="M588.256 419.231L576.358 423.532" stroke="black" stroke-width="2" stroke-linecap="round" stroke-linejoin="round"/>
<path d="M588.701 423.351L575.419 428.459" stroke="black" stroke-width="2" stroke-linecap="round" stroke-linejoin="round"/>
<path d="M587.762 428.97L575.649 434.507" stroke="black" stroke-width="2" stroke-linecap="round" stroke-linejoin="round"/>
<path d="M585.619 433.287L576.424 437.111" stroke="black" stroke-width="2" stroke-linecap="round" stroke-linejoin="round"/>
<path d="M579.407 395.847C578.896 394.199 573.063 393.177 572.816 397.495C572.568 401.812 578.962 398.22 580.775 395.847C580.775 395.847 577.479 400.28 578.863 401.153" stroke="black" stroke-width="2" stroke-linecap="round" stroke-linejoin="round"/>
<path d="M611.706 401.219L606.531 411.98C606.531 411.98 609.118 406.591 611.887 407.036C615.298 407.646 613.024 413.232 608.904 411.172" stroke="black" stroke-width="2" stroke-linecap="round" stroke-linejoin="round"/>
<path d="M618.449 701.406C609.616 708.756 541.574 755.457 444.479 747.926C439.255 703.729 419.332 522.163 441.991 493.688C441.991 493.688 496.965 467.469 547.605 478.477C598.245 489.485 617.954 500.032 621.563 509.161C624.299 516.066 620.393 644.636 618.449 701.406Z" fill="black"/>
<path d="M545.924 497.873C516.756 523.136 479.184 517.796 480.008 498.4C480.139 495.368 483.386 491.611 483.386 491.611L482.249 489.864L477.305 482.399C473.696 476.813 469.181 469.793 466.033 464.684C463.397 460.334 529.132 419.894 529.132 443.146C529.132 475.907 545.215 482.07 545.215 482.07C551.279 484.509 556.932 488.365 545.924 497.873Z" fill="white" stroke="black" stroke-width="2" stroke-linecap="round" stroke-linejoin="round"/>
<path d="M564.364 547.904C564.364 547.904 558.481 568.074 561.266 573.858" stroke="white" stroke-width="2" stroke-linecap="round" stroke-linejoin="round"/>
<path d="M557.493 489.337C557.493 508.799 499.437 527.865 482.431 508.337" stroke="white" stroke-width="2" stroke-linecap="round" stroke-linejoin="round"/>
<path d="M509.736 466.876C509.736 466.876 505.847 481.542 487.72 492.995C486.855 491.511 485.459 490.41 483.814 489.914C483.269 489.825 482.712 489.825 482.166 489.914L477.223 482.449C486.599 475.692 509.736 466.876 509.736 466.876Z" fill="black"/>
<path d="M517.877 448.848C517.877 448.848 517.679 463.317 514.581 466.266C491.592 488.315 469.115 490.062 465.407 484.245C440.442 445.091 446.341 434.808 443.803 428.101C439.304 416.335 433.784 397.12 436.223 385.486C441.661 359.499 490.604 339.345 516.377 365.481C528.736 377.988 532.642 405.129 530.038 427.738" fill="white"/>
<path d="M517.877 448.848C517.877 448.848 517.679 463.317 514.581 466.266C491.592 488.315 469.115 490.062 465.407 484.245C440.442 445.091 446.341 434.808 443.803 428.101C439.304 416.335 433.784 397.12 436.223 385.486C441.661 359.499 490.604 339.345 516.377 365.481C528.736 377.988 532.642 405.129 530.038 427.738" stroke="black" stroke-width="2" stroke-linecap="round" stroke-linejoin="round"/>
<path d="M446.951 416.005C446.951 416.005 440.079 412.924 438.596 416.599" stroke="black" stroke-width="2" stroke-linecap="round" stroke-linejoin="round"/>
<path d="M463.611 416.236C463.611 416.236 477.899 410.254 484.326 417.521" stroke="black" stroke-width="2" stroke-linecap="round" stroke-linejoin="round"/>
<path d="M479.48 426.371C479.711 428.513 478.673 430.375 477.14 430.556C475.608 430.738 474.191 429.106 473.96 426.964C473.729 424.822 474.767 422.943 476.3 422.778C477.832 422.613 479.184 424.228 479.48 426.371Z" fill="black"/>
<path d="M451.467 427.013C451.714 429.156 450.659 431.034 449.127 431.199C447.594 431.364 446.177 429.765 445.946 427.623C445.715 425.481 446.754 423.602 448.286 423.437C449.819 423.273 451.203 424.871 451.467 427.013Z" fill="black"/>
<path d="M452.158 421.377C454.152 424.591 453.065 430.078 450.428 437.609C447.791 445.14 450.115 447.859 460.233 448.617" fill="white"/>
<path d="M452.158 421.377C454.152 424.591 453.065 430.078 450.428 437.609C447.791 445.14 450.115 447.859 460.233 448.617" stroke="black" stroke-width="2" stroke-linecap="round" stroke-linejoin="round"/>
<path d="M460.233 461.652C460.233 461.652 473.417 460.449 479.448 457.137" stroke="black" stroke-width="2" stroke-linecap="round" stroke-linejoin="round"/>
<path d="M543.749 386.936C543.749 377.148 534.092 357.06 517.152 354.802C507.413 344.618 493.538 340.877 476.696 344.75C437.772 353.682 425.924 392.111 424.227 398.472C424.062 399.065 423.979 399.394 423.979 399.394L434.394 396.758L429.912 405.508L435.367 409.117L434.114 410.501L440.442 416.599L438.465 405.459C439.684 398.274 447.956 388.222 447.956 388.222C444.937 392.135 443.056 396.805 442.518 401.718C445.814 393.165 465.589 385.239 465.589 385.239C459.179 390.446 455.702 400.63 455.702 400.63C461.799 393.116 476.086 388.255 485.232 385.667C488.314 393.099 493.208 400.861 500.195 405.162C506.787 409.216 506.556 417.587 506.556 417.587C513.648 422.517 518.873 429.692 521.387 437.955L529.363 448.865C529.363 448.865 543.749 431.215 543.749 386.936Z" fill="black"/>
<path d="M510.181 420.389C507.512 414.671 517.201 399.18 524.073 401.092C527.929 402.179 532.972 409.216 533.961 416.599C534.949 423.981 529.725 438.021 524.156 441.07C520.613 443.047 517.696 437.659 517.696 437.659" fill="white"/>
<path d="M510.181 420.389C507.512 414.671 517.201 399.18 524.073 401.092C527.929 402.179 532.972 409.216 533.961 416.599C534.949 423.981 529.725 438.021 524.156 441.07C520.613 443.047 517.696 437.659 517.696 437.659" stroke="black" stroke-width="2" stroke-linecap="round" stroke-linejoin="round"/>
<path d="M89.7676 700.088L275.964 656.55L664.343 701.406L564.348 769.794L89.7676 700.088Z" fill="white"/>
<path d="M89.7676 700.088L275.964 656.55L664.343 701.406" fill="white"/>
<path d="M89.7676 700.088L275.964 656.55L664.343 701.406" stroke="black" stroke-width="2" stroke-linecap="round" stroke-linejoin="round"/>
<path d="M250.899 708.821L326.275 675.501L421.573 680.428L379.189 716.666L250.899 708.821Z" fill="white" stroke="black" stroke-width="2" stroke-linecap="round" stroke-linejoin="round"/>
<path d="M445.666 492.04C421.491 501.927 416.284 524.157 375.202 612.007C375.202 612.007 356.959 615.748 347.187 637.912C337.415 660.077 353.779 677.577 372.614 676.984C372.614 676.984 380.178 683.576 395.685 682.9C411.192 682.224 479.728 577.352 479.728 577.352L445.666 492.04Z" fill="black"/>
<path d="M382.402 617.165C393.213 626.789 399.425 640.911 396.129 656.566" stroke="white" stroke-width="2" stroke-linecap="round" stroke-linejoin="round"/>
<path d="M392.834 621.796C392.834 621.796 406.116 624.696 408.176 641.702" stroke="white" stroke-width="2" stroke-linecap="round" stroke-linejoin="round"/>
<path d="M431.691 572.029C425.416 556.546 423.247 539.704 425.396 523.136" stroke="white" stroke-width="2" stroke-linecap="round" stroke-linejoin="round"/>
<path d="M429.813 549.617C428.807 556.539 435.959 593.386 435.91 632.128" stroke="white" stroke-width="2" stroke-linecap="round" stroke-linejoin="round"/>
<path d="M610.522 499.323C640.761 514.517 644.354 561.268 615.828 617.165C595.674 656.616 567.858 714.869 550.258 718.775C532.659 722.68 515.487 711.722 515.487 711.722C515.487 711.722 500.656 711.03 496.174 700.483C483.913 671.661 515.075 635.243 527.27 643.96C527.27 643.96 566.424 558.813 573.56 553.441" fill="black"/>
<path d="M493.373 682.966C489.368 663.076 520.679 639.61 527.27 643.96C527.27 643.96 550.522 645.262 553.999 661.345" stroke="white" stroke-width="2" stroke-linecap="round" stroke-linejoin="round"/>
<path d="M578.553 687.201C592.164 663.191 615.828 617.165 615.828 617.165" stroke="white" stroke-width="2" stroke-linecap="round" stroke-linejoin="round"/>
<path d="M527.27 643.96C527.27 643.96 543.567 634.204 555.745 643.433" stroke="white" stroke-width="2" stroke-linecap="round" stroke-linejoin="round"/>
<path d="M532.84 632.112C532.84 632.112 541.837 612.337 550.967 594.21C560.096 576.083 580.992 549.238 589.676 547.937" stroke="white" stroke-width="2" stroke-linecap="round" stroke-linejoin="round"/>
<path d="M361.095 667.657C359.138 667.561 357.225 667.038 355.492 666.124C327.478 651.507 305.693 627.349 292.575 610.013C287.475 603.387 282.781 596.459 278.519 589.266L285.242 560.461C285.242 560.461 291.57 576.94 316.997 593.139C342.424 609.337 372.63 614.677 382.402 631.04C391.054 645.295 375.811 668.365 361.095 667.657Z" fill="white"/>
<mask id="mask0_1431_698" style="mask-type:luminance" maskUnits="userSpaceOnUse" x="278" y="560" width="107" height="108">
<path d="M361.095 667.657C359.138 667.561 357.225 667.038 355.492 666.124C327.478 651.507 305.693 627.349 292.575 610.013C287.475 603.387 282.781 596.459 278.519 589.266L285.242 560.461C285.242 560.461 291.57 576.94 316.997 593.139C342.424 609.337 372.63 614.677 382.402 631.04C391.054 645.295 375.811 668.365 361.095 667.657Z" fill="white"/>
</mask>
<g mask="url(#mask0_1431_698)">
<path opacity="0.4" d="M361.095 667.657C360.783 665.573 360.23 663.533 359.447 661.576C353.564 646.844 317.969 617.561 317.969 617.561C309.499 617.297 300.189 613.77 292.608 610.013C287.497 603.388 282.792 596.46 278.519 589.266L285.242 560.461C285.242 560.461 291.57 576.94 316.997 593.139C342.424 609.337 372.63 614.677 382.402 631.04C391.054 645.295 375.811 668.365 361.095 667.657Z" fill="#550000"/>
</g>
<path d="M361.095 667.657C359.138 667.561 357.225 667.038 355.492 666.124C327.478 651.507 305.693 627.349 292.575 610.013C287.475 603.387 282.781 596.459 278.519 589.266L285.242 560.461C285.242 560.461 291.57 576.94 316.997 593.139C342.424 609.337 372.63 614.677 382.402 631.04C391.054 645.295 375.811 668.365 361.095 667.657Z" stroke="black" stroke-width="2" stroke-linecap="round" stroke-linejoin="round"/>
<path d="M297.65 587.519C297.65 587.519 294.173 602.878 285.011 599.434C280.067 597.571 270.542 582.806 268.746 575.358L297.65 587.519Z" fill="white" stroke="black" stroke-width="2" stroke-linecap="round" stroke-linejoin="round"/>
<path d="M257.261 492.946L264.742 489.09C264.742 489.09 285.885 489.271 299.002 499.933C310.917 509.623 316.964 524.8 316.964 524.8C316.964 524.8 363.254 499.241 410.532 513.907L429.813 621.367L341.172 627.168L285.852 574.616L257.261 492.946Z" fill="white" stroke="black" stroke-width="2" stroke-linecap="round" stroke-linejoin="round"/>
<path d="M435.91 625.668C435.91 625.668 425.512 625.355 411.604 625.816C390.576 626.476 361.524 628.849 348.242 636.577L347.615 636.363L335.454 632.112L335.207 631.749C332.966 628.453 314.888 602.499 289.065 591.936L252.548 489.897C252.548 489.897 290.45 491.545 311.164 525.789L321.562 529.546C321.562 529.546 383.441 511.221 418.08 517.813L435.91 625.668Z" fill="#550000"/>
<mask id="mask1_1431_698" style="mask-type:luminance" maskUnits="userSpaceOnUse" x="252" y="489" width="184" height="148">
<path d="M435.91 625.668C435.91 625.668 425.512 625.355 411.604 625.816C390.576 626.476 361.524 628.849 348.242 636.577L347.615 636.363L335.454 632.112L335.207 631.749C332.966 628.453 314.888 602.499 289.065 591.936L252.548 489.897C252.548 489.897 290.45 491.545 311.164 525.789L321.562 529.546C321.562 529.546 383.441 511.221 418.08 517.813L435.91 625.668Z" fill="white"/>
</mask>
<g mask="url(#mask1_1431_698)">
<path opacity="0.3" d="M335.207 631.765C332.966 628.47 314.888 602.515 289.065 591.952L252.548 489.914C252.548 489.914 290.45 491.562 311.164 525.805L335.207 631.765Z" fill="black"/>
<path opacity="0.3" d="M411.603 625.817C390.576 626.476 361.524 628.849 348.242 636.577L347.615 636.363L323.325 533.237C323.325 533.237 343.199 528.772 349.313 531.029C349.296 531.062 389.703 560.873 411.603 625.817Z" fill="black"/>
</g>
<path d="M435.91 625.668C435.91 625.668 425.512 625.355 411.604 625.817C390.576 626.476 361.524 628.849 348.242 636.577L347.615 636.363L335.454 632.112L335.207 631.749C332.966 628.453 314.888 602.499 289.065 591.936L252.548 489.897C252.548 489.897 290.45 491.545 311.164 525.789L321.562 529.546C321.562 529.546 383.441 511.221 418.08 517.813L435.91 625.668Z" stroke="black" stroke-width="2" stroke-linecap="round" stroke-linejoin="round"/>
<path d="M321.595 529.562L345.44 628.486" stroke="black" stroke-width="2" stroke-linecap="round" stroke-linejoin="round"/>
<path d="M335.454 632.128L312.284 533.27" stroke="black" stroke-width="2" stroke-linecap="round" stroke-linejoin="round"/>
<path d="M276.591 589.348C271.301 587.882 260.639 556.094 265.517 542.4C265.517 542.4 271.318 532.331 273.757 531.639C277.448 530.568 292.345 530.881 291.62 533.386C289.972 539.186 278.536 539.087 278.536 539.087L274.828 545.877L274.976 549.617C274.976 549.617 280.365 545.695 282.342 545.811C283.364 545.811 288.637 548.447 292.823 550.656C296.399 552.551 298.591 553.589 297.767 555.303C295.113 561.004 283.825 556.951 283.825 556.951L279.574 563.361C279.574 563.361 283.677 564.07 285.473 564.267C287.269 564.465 302.183 574.402 301.738 575.638C299.975 580.483 285.836 575.242 285.836 575.242L283.331 577.335C283.331 577.335 293.746 580.021 294.866 580.417C296.514 581.026 302.859 585.904 302.76 586.465C302.002 590.749 293.251 587.602 293.251 587.602L285.589 587.289C284.421 588.318 283.017 589.043 281.502 589.398" fill="white"/>
<path d="M276.591 589.348C271.301 587.882 260.639 556.094 265.517 542.4C265.517 542.4 271.318 532.331 273.757 531.639C277.448 530.568 292.345 530.881 291.62 533.386C289.972 539.186 278.536 539.087 278.536 539.087L274.828 545.877L274.976 549.617C274.976 549.617 280.365 545.695 282.342 545.811C283.364 545.811 288.637 548.447 292.823 550.656C296.399 552.551 298.591 553.589 297.767 555.303C295.113 561.004 283.825 556.951 283.825 556.951L279.574 563.361C279.574 563.361 283.677 564.07 285.473 564.267C287.269 564.465 302.183 574.402 301.738 575.638C299.975 580.483 285.836 575.242 285.836 575.242L283.331 577.335C283.331 577.335 293.746 580.021 294.866 580.417C296.514 581.026 302.859 585.904 302.76 586.465C302.002 590.749 293.251 587.602 293.251 587.602L285.589 587.289C284.421 588.318 283.017 589.043 281.502 589.398" stroke="black" stroke-width="2" stroke-linecap="round" stroke-linejoin="round"/>
<path d="M274.91 549.617C274.91 549.617 269.966 553.77 268.697 554.973C267.428 556.176 267.741 559.999 267.741 559.999" stroke="black" stroke-width="2" stroke-linecap="round" stroke-linejoin="round"/>
<path d="M271.334 568.436C271.334 572.622 274.135 575.16 275.421 576.511C276.706 577.862 273.361 581.537 277.069 584.174" stroke="black" stroke-width="2" stroke-linecap="round" stroke-linejoin="round"/>
<path d="M515.422 701.109C504.958 703.96 493.587 685.57 479.712 665.498C470.549 652.315 460.299 638.258 448.517 629.244C447.578 628.536 446.622 627.844 445.666 627.184L452.554 592.578C466.858 600.076 475.724 612.09 490.571 624.432C514.466 644.323 535.642 656.534 541.508 665.333C547.375 674.133 533.351 696.215 515.422 701.109Z" fill="white"/>
<mask id="mask2_1431_698" style="mask-type:luminance" maskUnits="userSpaceOnUse" x="445" y="592" width="98" height="110">
<path d="M515.422 701.109C504.958 703.96 493.587 685.57 479.712 665.498C470.549 652.315 460.299 638.258 448.517 629.244C447.578 628.536 446.622 627.844 445.666 627.184L452.554 592.578C466.858 600.076 475.724 612.09 490.571 624.432C514.466 644.323 535.642 656.534 541.508 665.333C547.375 674.133 533.351 696.215 515.422 701.109Z" fill="white"/>
</mask>
<g mask="url(#mask2_1431_698)">
<path opacity="0.4" d="M479.711 665.482C470.549 652.299 460.299 638.242 448.517 629.228C450.069 629.307 451.622 629.072 453.081 628.536C453.081 628.536 471.703 643.647 479.711 665.482Z" fill="#550000"/>
</g>
<path d="M515.422 701.109C504.958 703.96 493.587 685.57 479.712 665.498C470.549 652.315 460.299 638.258 448.517 629.244C447.578 628.536 446.622 627.844 445.666 627.184L452.554 592.578C466.858 600.076 475.724 612.09 490.571 624.432C514.466 644.323 535.642 656.534 541.508 665.333C547.375 674.133 533.351 696.215 515.422 701.109Z" stroke="black" stroke-width="2" stroke-linecap="round" stroke-linejoin="round"/>
<path d="M456.41 625.817C455.694 627.096 454.514 628.052 453.114 628.486C452.742 628.632 452.362 628.759 451.977 628.865H451.664C440.606 631.749 415.723 625.751 415.723 625.751C415.723 625.751 399.425 618.005 398.436 616.176C397.747 614.727 397.137 613.242 396.607 611.727L396.162 610.425C396.162 610.425 390.296 607.129 389.571 604.559C388.845 601.988 387.61 601.263 391.218 600.801C394.827 600.34 414.289 600.801 414.289 600.801L393.114 592.166C393.114 592.166 379.09 585.097 377.788 582.608C376.486 580.12 374.855 578.472 382.023 579.461C389.191 580.45 404.847 584.998 404.847 584.998L417.189 587.618L404.929 582.394C404.929 582.394 380.804 579.477 385.368 571.979H399.062C406.82 572.322 414.537 573.303 422.133 574.913C426.121 576.132 452.488 592.512 452.488 592.512" fill="white"/>
<mask id="mask3_1431_698" style="mask-type:luminance" maskUnits="userSpaceOnUse" x="376" y="571" width="81" height="59">
<path d="M456.41 625.817C455.694 627.096 454.514 628.052 453.114 628.486C452.742 628.632 452.362 628.759 451.977 628.865H451.664C440.606 631.749 415.723 625.751 415.723 625.751C415.723 625.751 399.425 618.005 398.436 616.176C397.747 614.727 397.137 613.242 396.607 611.727L396.162 610.425C396.162 610.425 390.296 607.129 389.571 604.559C388.845 601.988 387.61 601.263 391.218 600.801C394.827 600.34 414.289 600.801 414.289 600.801L393.114 592.166C393.114 592.166 379.09 585.097 377.788 582.608C376.486 580.12 374.855 578.472 382.023 579.461C389.191 580.45 404.847 584.998 404.847 584.998L417.189 587.618L404.929 582.394C404.929 582.394 380.804 579.477 385.368 571.979H399.062C406.82 572.322 414.537 573.303 422.133 574.913C426.121 576.132 452.488 592.512 452.488 592.512" fill="white"/>
</mask>
<g mask="url(#mask3_1431_698)">
<path opacity="0.4" d="M451.631 628.931C440.573 631.815 415.69 625.817 415.69 625.817C415.69 625.817 399.392 618.072 398.403 616.242C397.714 614.793 397.104 613.308 396.574 611.793L416.58 613.985C415.88 615.245 415.513 616.663 415.513 618.104C415.513 619.546 415.88 620.964 416.58 622.224C418.804 626.229 444.149 630.283 451.631 628.931Z" fill="#550000"/>
</g>
<path d="M456.41 625.817C455.694 627.096 454.514 628.052 453.114 628.486C452.742 628.632 452.362 628.759 451.977 628.865H451.664C440.606 631.749 415.723 625.751 415.723 625.751C415.723 625.751 399.425 618.005 398.436 616.176C397.747 614.727 397.137 613.242 396.607 611.727L396.162 610.425C396.162 610.425 390.296 607.129 389.571 604.559C388.845 601.988 387.61 601.263 391.218 600.801C394.827 600.34 414.289 600.801 414.289 600.801L393.114 592.166C393.114 592.166 379.09 585.097 377.788 582.608C376.486 580.12 374.855 578.472 382.023 579.461C389.191 580.45 404.847 584.998 404.847 584.998L417.189 587.618L404.929 582.394C404.929 582.394 380.804 579.477 385.368 571.979H399.062C406.82 572.322 414.537 573.303 422.133 574.913C426.121 576.132 452.488 592.512 452.488 592.512" stroke="black" stroke-width="2" stroke-linecap="round" stroke-linejoin="round"/>
<path d="M396.13 610.491L420.206 614.034" stroke="black" stroke-width="2" stroke-linecap="round" stroke-linejoin="round"/>
<path d="M156.129 684.218L216.475 702.345L326.885 677.149C326.885 677.149 259.453 658 258.826 658.478C258.2 658.956 156.129 684.218 156.129 684.218Z" fill="#550000"/>
<mask id="mask4_1431_698" style="mask-type:luminance" maskUnits="userSpaceOnUse" x="156" y="658" width="171" height="45">
<path d="M156.129 684.218L216.475 702.345L326.885 677.149C326.885 677.149 259.453 658 258.826 658.478C258.2 658.956 156.129 684.218 156.129 684.218Z" fill="white"/>
</mask>
<g mask="url(#mask4_1431_698)">
<path opacity="0.3" d="M156.129 684.218L216.475 702.345L326.885 677.149C326.885 677.149 259.453 658 258.826 658.478C258.2 658.956 156.129 684.218 156.129 684.218Z" fill="black"/>
</g>
<path d="M156.129 684.218L216.475 702.345L326.885 677.149C326.885 677.149 259.453 658 258.826 658.478C258.2 658.956 156.129 684.218 156.129 684.218Z" stroke="black" stroke-width="2" stroke-linecap="round" stroke-linejoin="round"/>
<path d="M157.002 662.96C152.767 663.257 151.712 678.517 156.129 684.218L253.619 663.982L261.43 645.493L157.002 662.96Z" fill="#550000"/>
<mask id="mask5_1431_698" style="mask-type:luminance" maskUnits="userSpaceOnUse" x="153" y="645" width="109" height="40">
<path d="M157.002 662.96C152.767 663.257 151.712 678.517 156.129 684.218L253.619 663.982L261.43 645.493L157.002 662.96Z" fill="white"/>
</mask>
<g mask="url(#mask5_1431_698)">
<path opacity="0.3" d="M157.002 662.96C152.767 663.257 151.712 678.517 156.129 684.218L253.619 663.982L261.43 645.493L157.002 662.96Z" fill="black"/>
</g>
<path d="M157.002 662.96C152.767 663.257 151.712 678.517 156.129 684.218L253.619 663.982L261.43 645.493L157.002 662.96Z" stroke="black" stroke-width="2" stroke-linecap="round" stroke-linejoin="round"/>
<path d="M322.156 662.746C322.156 662.746 320.705 670.771 321.645 675.715L216.36 699.544L160.859 683.197C160.859 683.197 155.091 672.996 160.117 665.07L261.529 647.849L322.156 662.746Z" fill="white" stroke="black" stroke-width="2" stroke-linecap="round" stroke-linejoin="round"/>
<path d="M157.002 662.96L261.43 645.493L326.275 661.922L217.216 683.658L157.002 662.96Z" fill="#550000" stroke="black" stroke-width="2" stroke-linecap="round" stroke-linejoin="round"/>
<path d="M160.71 672.716L215.931 689.162L306.319 670.969" stroke="black" stroke-width="2" stroke-linecap="round" stroke-linejoin="round"/>
<path d="M321.348 672.65L224.154 693.381" stroke="black" stroke-width="2" stroke-linecap="round" stroke-linejoin="round"/>
<path d="M162.012 679.192C162.852 679.275 203.638 691.832 203.638 691.832" stroke="black" stroke-width="2" stroke-linecap="round" stroke-linejoin="round"/>
<path d="M313.404 668.843L321.133 667.591" stroke="black" stroke-width="2" stroke-linecap="round" stroke-linejoin="round"/>
<path d="M214.135 694.88L210.031 693.957" stroke="black" stroke-width="2" stroke-linecap="round" stroke-linejoin="round"/>
<path d="M160.117 665.07C162.278 667.559 163.528 670.709 163.663 674.003C163.798 677.297 162.809 680.539 160.858 683.197C159.053 680.546 158.026 677.443 157.895 674.239C157.764 671.035 158.534 667.858 160.117 665.07Z" fill="black"/>
<mask id="mask6_1431_698" style="mask-type:luminance" maskUnits="userSpaceOnUse" x="157" y="665" width="7" height="19">
<path d="M160.117 665.07C162.278 667.559 163.528 670.709 163.663 674.003C163.798 677.297 162.809 680.539 160.858 683.197C159.053 680.546 158.026 677.443 157.895 674.239C157.764 671.035 158.534 667.858 160.117 665.07Z" fill="white"/>
</mask>
<g mask="url(#mask6_1431_698)">
<path opacity="0.3" d="M160.117 665.07C162.278 667.559 163.528 670.709 163.663 674.003C163.798 677.297 162.809 680.539 160.858 683.197C159.053 680.546 158.026 677.443 157.895 674.239C157.764 671.035 158.534 667.858 160.117 665.07Z" fill="#FFD95C"/>
</g>
<path d="M160.117 665.07C162.278 667.559 163.528 670.709 163.663 674.003C163.798 677.297 162.809 680.539 160.858 683.197C159.053 680.546 158.026 677.443 157.895 674.239C157.764 671.035 158.534 667.858 160.117 665.07Z" stroke="black" stroke-width="2" stroke-linecap="round" stroke-linejoin="round"/>
<path d="M385.665 689.162L491.049 693.479L480.782 729.75L351.142 724.806L385.665 689.162Z" fill="white"/>
<mask id="mask7_1431_698" style="mask-type:luminance" maskUnits="userSpaceOnUse" x="351" y="689" width="141" height="41">
<path d="M385.665 689.162L491.049 693.479L480.782 729.75L351.142 724.806L385.665 689.162Z" fill="white"/>
</mask>
<g mask="url(#mask7_1431_698)">
<path opacity="0.4" d="M385.665 689.162L491.049 693.479L480.782 729.75L351.142 724.806L385.665 689.162Z" fill="#550000"/>
</g>
<path d="M385.665 689.162L491.049 693.479L480.782 729.75L351.142 724.806L385.665 689.162Z" stroke="black" stroke-width="2" stroke-linecap="round" stroke-linejoin="round"/>
</svg>
