<svg width="238" height="244" viewBox="0 0 238 244" fill="none" xmlns="http://www.w3.org/2000/svg">
<path d="M231.648 90.3462H124.085C120.945 90.3462 118.4 92.8912 118.4 96.0306V237.815C118.4 240.955 120.945 243.5 124.085 243.5H231.648C234.788 243.5 237.333 240.955 237.333 237.815V96.0306C237.333 92.8912 234.788 90.3462 231.648 90.3462Z" fill="white"/>
<mask id="mask0_1970_1169" style="mask-type:luminance" maskUnits="userSpaceOnUse" x="118" y="90" width="120" height="154">
<path d="M231.647 90.3462H124.084C120.944 90.3462 118.399 92.8912 118.399 96.0306V237.815C118.399 240.955 120.944 243.5 124.084 243.5H231.647C234.787 243.5 237.332 240.955 237.332 237.815V96.0306C237.332 92.8912 234.787 90.3462 231.647 90.3462Z" fill="white"/>
</mask>
<g mask="url(#mask0_1970_1169)">
<path opacity="0.3" d="M132.19 178.177V197.996C132.19 197.996 124.955 196.819 118.361 195.068V152.884C121.596 143.104 124.476 135.372 124.476 135.372C124.476 135.372 122.094 131.238 118.361 125.429V110.433L123.003 117.132L127.261 118.558L130.946 134.587L125.022 173.823L132.19 178.177Z" fill="black" fill-opacity="0.7"/>
</g>
<path d="M231.648 90.3462H124.085C120.945 90.3462 118.4 92.8912 118.4 96.0306V237.815C118.4 240.955 120.945 243.5 124.085 243.5H231.648C234.788 243.5 237.333 240.955 237.333 237.815V96.0306C237.333 92.8912 234.788 90.3462 231.648 90.3462Z" stroke="black" stroke-linecap="round" stroke-linejoin="round"/>
<path d="M124.085 90.3364H231.649C233.156 90.3364 234.602 90.9353 235.668 92.0014C236.734 93.0674 237.333 94.5132 237.333 96.0208V106.289H118.41V96.0783C118.403 95.3278 118.544 94.5832 118.826 93.8875C119.107 93.1918 119.524 92.5588 120.052 92.025C120.579 91.4912 121.207 91.0671 121.9 90.7773C122.592 90.4875 123.335 90.3377 124.085 90.3364Z" fill="#550000" stroke="black" stroke-linecap="round" stroke-linejoin="round"/>
<path d="M137.674 231.308C143.424 231.308 148.085 226.646 148.085 220.896C148.085 215.145 143.424 210.484 137.674 210.484C131.923 210.484 127.262 215.145 127.262 220.896C127.262 226.646 131.923 231.308 137.674 231.308Z" fill="#550000" stroke="black" stroke-linecap="round" stroke-linejoin="round"/>
<path d="M157.396 213.106H185.359" stroke="black" stroke-width="2" stroke-linecap="round" stroke-linejoin="round"/>
<path d="M157.396 222.676H225.6" stroke="black" stroke-width="2" stroke-linecap="round" stroke-linejoin="round"/>
<path d="M157.396 229.93H210.652" stroke="black" stroke-width="2" stroke-linecap="round" stroke-linejoin="round"/>
<path d="M141.931 227.394C141.309 227.394 139.463 226.006 140.094 224.868C140.726 223.729 141.931 221.844 141.931 221.844C142.474 220.787 142.778 219.624 142.821 218.437C143.07 216.666 142.065 213.652 137.673 213.652C133.28 213.652 132.276 216.676 132.534 218.437C132.577 219.623 132.878 220.785 133.414 221.844C133.414 221.844 134.62 223.757 135.252 224.868C135.883 225.978 134.046 227.394 133.414 227.394C132.391 227.618 131.391 227.938 130.429 228.351C130.429 228.351 134.62 231.298 137.673 231.298C140.726 231.298 144.927 228.351 144.927 228.351C143.961 227.939 142.958 227.618 141.931 227.394Z" fill="black"/>
<path d="M150.21 98.3271H205.532" stroke="white" stroke-width="3" stroke-linecap="round" stroke-linejoin="round"/>
<path d="M230.242 114.615H127.08V202.627H230.242V114.615Z" fill="white"/>
<mask id="mask1_1970_1169" style="mask-type:luminance" maskUnits="userSpaceOnUse" x="127" y="114" width="104" height="89">
<path d="M230.242 114.615H127.08V202.627H230.242V114.615Z" fill="white"/>
</mask>
<g mask="url(#mask1_1970_1169)">
<path opacity="0.4" d="M230.242 114.615H127.08V202.627H230.242V114.615Z" fill="#550000"/>
</g>
<path d="M230.242 114.615H127.08V202.627H230.242V114.615Z" stroke="black" stroke-linecap="round" stroke-linejoin="round"/>
<path d="M124.621 123.725C123.648 131.757 121.72 139.644 118.879 147.219C114.4 158.616 108.946 173.382 108.955 182.493C108.955 189.316 143.923 193.661 143.923 193.661L146.545 171.918L128.362 171.287C128.362 171.287 130.276 164.521 131.032 150.817C131.463 143.094 137.262 126.988 137.262 126.988" fill="white"/>
<path d="M124.621 123.725C123.648 131.757 121.72 139.644 118.879 147.219C114.4 158.616 108.946 173.382 108.955 182.493C108.955 189.316 143.923 193.661 143.923 193.661L146.545 171.918L128.362 171.287C128.362 171.287 130.276 164.521 131.032 150.817C131.463 143.094 137.262 126.988 137.262 126.988" stroke="black" stroke-linecap="round" stroke-linejoin="round"/>
<path d="M162.479 166.636H180.183C180.183 166.636 182.92 161.459 196.547 162.502C210.174 163.545 213.581 166.636 213.581 166.636C213.581 166.636 225.696 169.325 230.242 171.918V202.627H157.866L154.909 198.742L131.052 195.048C131.052 195.048 131.052 172.004 134.88 166.636C134.88 166.636 139.042 166.569 139.425 169.22C139.387 169.22 156.421 166.636 162.479 166.636Z" fill="black"/>
<path d="M180.91 153.65C181.267 154.297 181.715 154.89 182.24 155.41C186.116 159.238 186.46 162.377 185.829 164.569C185.425 165.921 184.633 167.126 183.551 168.033C183.551 168.033 183.331 174.119 190.882 174.856C199.963 175.736 205.064 166.243 205.064 166.243C193.752 150.712 202.26 144.147 202.26 144.147C191.283 138.022 176.747 146.281 180.91 153.65Z" fill="white" stroke="black" stroke-linecap="round" stroke-linejoin="round"/>
<path opacity="0.2" d="M182.24 155.411C186.116 159.239 186.46 162.378 185.829 164.569C196.537 160.971 194.346 152.77 194.346 152.77C192.469 154.63 190.271 156.134 187.858 157.21C186.336 157.746 182.24 155.411 182.24 155.411Z" fill="black" fill-opacity="0.7"/>
<path d="M203.963 137.075C208.078 119.438 199.561 111.801 193.973 109.485C185.025 105.782 173.398 111.6 170.756 121.4C168.115 131.199 170.498 133.429 170.374 137.429C170.288 140.242 168.555 141.63 170.46 148.683C171.723 153.334 173.819 160.798 181.781 159.458C184.219 159.033 186.584 158.263 188.805 157.171" fill="white"/>
<path d="M203.963 137.075C208.078 119.438 199.561 111.801 193.973 109.485C185.025 105.782 173.398 111.6 170.756 121.4C168.115 131.199 170.498 133.429 170.374 137.429C170.288 140.242 168.555 141.63 170.46 148.683C171.723 153.334 173.819 160.798 181.781 159.458C184.219 159.033 186.584 158.263 188.805 157.171" stroke="black" stroke-linecap="round" stroke-linejoin="round"/>
<path d="M180.756 131.343C180.756 131.343 184.067 130.108 185.828 133.993" stroke="black" stroke-linecap="round" stroke-linejoin="round"/>
<path d="M169.513 129.285C169.513 129.285 172.967 128.539 174.441 131.046" stroke="black" stroke-linecap="round" stroke-linejoin="round"/>
<path d="M175.321 136.042C175.321 136.042 175.618 139.133 174.441 139.716C173.264 140.3 171.426 139.066 171.972 141.515C172.517 143.965 175.35 144.128 175.35 144.128" stroke="black" stroke-linecap="round" stroke-linejoin="round"/>
<path d="M181.417 136.855C181.417 137.678 181.781 138.338 182.23 138.338C182.68 138.338 183.053 137.678 183.053 136.855C183.053 136.032 182.69 135.372 182.23 135.372C181.771 135.372 181.417 136.032 181.417 136.855Z" fill="black" stroke="black" stroke-linecap="round" stroke-linejoin="round"/>
<path d="M171.972 136.041C171.972 136.864 172.345 137.525 172.795 137.525C173.244 137.525 173.618 136.864 173.618 136.041C173.618 135.218 173.244 134.558 172.795 134.558C172.345 134.558 171.972 135.228 171.972 136.041Z" fill="black" stroke="black" stroke-linecap="round" stroke-linejoin="round"/>
<path d="M181.417 146.539C181.417 146.539 177.809 148.539 174.44 147.668" stroke="black" stroke-linecap="round" stroke-linejoin="round"/>
<path d="M180.756 147.219C180.653 147.944 180.317 148.616 179.8 149.134C179.282 149.651 178.61 149.987 177.885 150.09C177.569 150.134 177.248 150.112 176.941 150.023C176.635 149.935 176.351 149.782 176.108 149.576C175.865 149.37 175.668 149.115 175.531 148.827C175.393 148.54 175.318 148.226 175.311 147.908" stroke="black" stroke-linecap="round" stroke-linejoin="round"/>
<path d="M167.492 127.505C167.492 127.505 163.119 123.409 166.823 114.739C170.526 106.069 201.561 104.548 208.192 114.682C214.824 124.816 209.542 144.243 199.235 150.817C199.235 150.817 201.254 142.424 194.527 140.08C194.527 140.08 188.536 133.381 190.938 125.419C190.938 125.419 187.627 125.984 186.737 128.529C186.737 128.529 182.172 127.572 181.876 123.505C181.262 125.239 180.976 127.073 181.034 128.912C181.034 128.912 174.335 127.295 173.856 124.299C173.56 124.915 173.457 125.605 173.562 126.28C173.666 126.955 173.972 127.582 174.44 128.079C173.219 128.064 172.017 127.775 170.924 127.231C169.83 126.688 168.873 125.905 168.124 124.941L167.492 127.505Z" fill="black"/>
<path d="M193.982 140.156C193.982 140.156 197.217 134.137 200.595 135.601C203.973 137.065 201.619 144.271 198.681 146.625C195.743 148.98 193.982 146.625 193.982 146.625" fill="white"/>
<path d="M193.982 140.156C193.982 140.156 197.217 134.137 200.595 135.601C203.973 137.065 201.619 144.271 198.681 146.625C195.743 148.98 193.982 146.625 193.982 146.625" stroke="black" stroke-linecap="round" stroke-linejoin="round"/>
<path d="M134.812 130.95C136.879 130.826 138.583 128.673 139.377 127.61C140.122 126.59 140.73 125.477 141.186 124.299C141.599 123.238 142.101 122.213 142.688 121.237C143.071 120.577 143.482 119.935 143.875 119.323C144.694 118.108 145.579 116.939 146.525 115.821C146.525 115.821 145.884 113.514 144.047 114.653C143.548 114.985 143.099 115.388 142.717 115.849C142.028 116.644 141.415 117.572 140.879 118.27C140.613 118.706 140.233 119.06 139.779 119.294C139.59 119.334 139.398 119.357 139.205 119.361H139.147H138.937C138.524 119.344 138.124 119.215 137.779 118.988C137.623 118.889 137.487 118.763 137.377 118.615C137.338 118.579 137.306 118.537 137.281 118.49C137.21 118.37 137.146 118.245 137.09 118.117C136.801 117.397 136.614 116.64 136.535 115.868C136.397 114.713 136.342 113.549 136.372 112.385C136.372 111.954 136.372 111.514 136.42 111.103C136.465 110.036 136.564 108.973 136.717 107.916C136.822 107.169 136.927 106.356 137.013 105.552C137.099 104.748 137.147 103.992 137.157 103.275C137.157 101.179 136.86 99.5712 135.635 99.9348C134.41 100.298 134.458 101.035 134.257 102.863C134.181 103.504 134.094 104.26 133.951 105.179C133.679 106.778 133.302 108.357 132.822 109.906C132.764 110.098 132.697 110.299 132.63 110.509H131.874C131.826 110.653 131.731 110.356 131.635 109.753C131.402 108.136 131.262 106.506 131.214 104.873C131.214 104.126 131.214 103.342 131.214 102.547C131.214 101.753 131.214 101.121 131.281 100.413C131.463 96.9012 129.252 97.9347 128.678 98.9874C128.307 100.165 128.167 101.403 128.266 102.633C128.266 103.418 128.266 104.232 128.266 104.997C128.266 105.39 128.266 105.763 128.266 106.117C128.18 107.591 128.113 109.122 128.056 110.174C128.056 110.328 128.056 110.461 128.056 110.586L127.099 111.007C127.033 110.854 126.976 110.697 126.927 110.538C126.421 109.137 126.034 107.697 125.769 106.232C125.587 105.227 125.501 104.423 125.415 103.801C125.252 102.614 125.089 102.04 124.266 101.887C123.443 101.734 122.917 102.968 122.802 104.519C122.714 105.734 122.801 106.955 123.061 108.146C123.118 108.375 123.175 108.576 123.242 108.768C123.559 109.829 123.742 110.925 123.788 112.031C123.788 112.241 123.788 112.471 123.836 112.701L123.309 113.39C123.147 113.112 123.013 112.835 122.879 112.576C122.444 111.705 122.057 110.811 121.721 109.897C121.472 109.146 121.184 108.408 120.859 107.686C120.582 107.16 120.285 106.892 119.807 106.921C119.07 106.921 118.85 108.002 119.013 109.246C119.089 109.991 119.243 110.725 119.472 111.438C119.629 111.961 119.844 112.465 120.113 112.94C120.571 113.855 120.927 114.818 121.175 115.811C121.281 116.213 121.395 116.634 121.501 117.045C121.883 118.529 122.19 119.916 122.285 120.414C122.285 120.529 122.285 120.596 122.285 120.596C122.343 121.754 122.41 122.73 122.505 123.582C122.651 125.592 123.222 127.55 124.18 129.323C124.659 130.28 125.979 130.788 127.568 131.084" fill="white"/>
<path d="M134.812 130.95C136.879 130.826 138.583 128.673 139.377 127.61C140.122 126.59 140.73 125.477 141.186 124.299C141.599 123.238 142.101 122.213 142.688 121.237C143.071 120.577 143.482 119.935 143.875 119.323C144.694 118.108 145.579 116.939 146.525 115.821C146.525 115.821 145.884 113.514 144.047 114.653C143.548 114.985 143.099 115.388 142.717 115.849C142.028 116.644 141.415 117.572 140.879 118.27C140.613 118.706 140.233 119.06 139.779 119.294C139.59 119.334 139.398 119.357 139.205 119.361H139.147H138.937C138.524 119.344 138.124 119.215 137.779 118.988C137.623 118.889 137.487 118.763 137.377 118.615C137.338 118.579 137.306 118.537 137.281 118.49C137.21 118.37 137.146 118.245 137.09 118.117C136.801 117.397 136.614 116.64 136.535 115.868C136.397 114.713 136.342 113.549 136.372 112.385C136.372 111.954 136.372 111.514 136.42 111.103C136.465 110.036 136.564 108.973 136.717 107.916C136.822 107.169 136.927 106.356 137.013 105.552C137.099 104.748 137.147 103.992 137.157 103.275C137.157 101.179 136.86 99.5712 135.635 99.9348C134.41 100.298 134.458 101.035 134.257 102.863C134.181 103.504 134.094 104.26 133.951 105.179C133.679 106.778 133.302 108.357 132.822 109.906C132.764 110.098 132.697 110.299 132.63 110.509H131.874C131.826 110.653 131.731 110.356 131.635 109.753C131.402 108.136 131.262 106.506 131.214 104.873C131.214 104.126 131.214 103.342 131.214 102.547C131.214 101.753 131.214 101.121 131.281 100.413C131.463 96.9012 129.252 97.9347 128.678 98.9874C128.307 100.165 128.167 101.403 128.266 102.633C128.266 103.418 128.266 104.232 128.266 104.997C128.266 105.39 128.266 105.763 128.266 106.117C128.18 107.591 128.113 109.122 128.056 110.174C128.056 110.328 128.056 110.461 128.056 110.586L127.099 111.007C127.033 110.854 126.976 110.697 126.927 110.538C126.421 109.137 126.034 107.697 125.769 106.232C125.587 105.227 125.501 104.423 125.415 103.801C125.252 102.614 125.089 102.04 124.266 101.887C123.443 101.734 122.917 102.968 122.802 104.519C122.714 105.734 122.801 106.955 123.061 108.146C123.118 108.375 123.175 108.576 123.242 108.768C123.559 109.829 123.742 110.925 123.788 112.031C123.788 112.241 123.788 112.471 123.836 112.701L123.309 113.39C123.147 113.112 123.013 112.835 122.879 112.576C122.444 111.705 122.057 110.811 121.721 109.897C121.472 109.146 121.184 108.408 120.859 107.686C120.582 107.16 120.285 106.892 119.807 106.921C119.07 106.921 118.85 108.002 119.013 109.246C119.089 109.991 119.243 110.725 119.472 111.438C119.629 111.961 119.844 112.465 120.113 112.94C120.571 113.855 120.927 114.818 121.175 115.811C121.281 116.213 121.395 116.634 121.501 117.045C121.883 118.529 122.19 119.916 122.285 120.414C122.285 120.529 122.285 120.596 122.285 120.596C122.343 121.754 122.41 122.73 122.505 123.582C122.651 125.592 123.222 127.55 124.18 129.323C124.659 130.28 125.979 130.788 127.568 131.084" stroke="black" stroke-linecap="round" stroke-linejoin="round"/>
<path d="M137.281 118.529C137.281 118.529 132.765 118.357 131.425 122.692" stroke="black" stroke-linecap="round" stroke-linejoin="round"/>
<path d="M128.363 171.287C128.108 172.216 127.65 173.077 127.021 173.807C126.392 174.537 125.608 175.118 124.727 175.507" stroke="black" stroke-linecap="round" stroke-linejoin="round"/>
<path d="M143.307 76.3413H208.517L215.812 85.9178V52.2884C215.812 50.7654 215.207 49.3047 214.13 48.2273C213.054 47.1499 211.594 46.5439 210.071 46.5425H143.307C141.784 46.5439 140.324 47.1499 139.247 48.2273C138.171 49.3047 137.566 50.7654 137.566 52.2884V70.606C137.568 72.1276 138.173 73.5864 139.25 74.6618C140.326 75.7372 141.785 76.3413 143.307 76.3413Z" fill="#550000" stroke="black" stroke-linecap="round" stroke-linejoin="round"/>
<path d="M145.079 61.0028C145.077 62.3028 145.332 63.5903 145.828 64.7917C146.325 65.9932 147.053 67.0851 147.971 68.0051C148.89 68.9251 149.98 69.655 151.181 70.1533C152.382 70.6516 153.669 70.9084 154.969 70.9091C155.324 70.9081 155.68 70.8886 156.033 70.8506C157.932 70.6431 159.73 69.8901 161.21 68.6828C162.69 67.4755 163.789 65.8654 164.374 64.047C164.958 62.2287 165.004 60.2799 164.505 58.4361C164.007 56.5923 162.985 54.9324 161.563 53.6569C160.141 52.3814 158.38 51.5448 156.494 51.2483C154.607 50.9518 152.674 51.208 150.93 51.986C149.185 52.764 147.703 54.0305 146.663 55.6325C145.623 57.2345 145.069 59.1034 145.068 61.0134L145.079 61.0028Z" fill="#999999" stroke="black" stroke-linecap="round" stroke-linejoin="round"/>
<path d="M205.271 53.4268H189.066" stroke="white" stroke-width="2" stroke-linecap="round" stroke-linejoin="round"/>
<path d="M205.271 57.4648H172.536" stroke="white" stroke-width="2" stroke-linecap="round" stroke-linejoin="round"/>
<path d="M205.271 61.5029H176.686" stroke="white" stroke-width="2" stroke-linecap="round" stroke-linejoin="round"/>
<path d="M205.271 65.5356H172.536" stroke="white" stroke-width="2" stroke-linecap="round" stroke-linejoin="round"/>
<path d="M205.271 69.5737H185.278" stroke="white" stroke-width="2" stroke-linecap="round" stroke-linejoin="round"/>
<path d="M149.463 69.217C151.088 70.319 153.006 70.9083 154.969 70.9089C155.325 70.9079 155.68 70.8883 156.033 70.8504L156.395 69.7118L156.97 68.4509L156.257 67.8763L150.804 63.519L150.123 65.711C150.224 65.961 149.771 67.9295 149.463 69.217Z" fill="white" stroke="black" stroke-linecap="round" stroke-linejoin="round"/>
<path d="M152.925 66.8496C152.925 66.8496 153.91 69.5097 156.405 69.7013L156.979 68.4404L156.267 67.8658C154.718 67.3072 152.925 66.8496 152.925 66.8496Z" fill="black"/>
<path d="M151.059 54.6292C153.028 51.8946 159.359 54.3791 160.317 57.5606C161.274 60.7422 160.497 67.9937 158.247 68.7598C152.522 70.723 146.34 61.2157 151.059 54.6292Z" fill="white" stroke="black" stroke-linecap="round" stroke-linejoin="round"/>
<path d="M154.496 58.1406C154.496 58.1406 155.746 57.0021 159.029 57.2734L158.044 58.3694C158.044 58.3694 160.763 58.8482 161.402 57.3692C162.04 55.8902 157.88 49.0855 150.761 53.3205C144.552 57.0127 150.139 65.6848 150.139 65.6848L150.74 64.5622L151.665 63.5832C151.665 63.5832 149.846 61.8222 151.133 60.3911C152.421 58.9599 153.581 61.088 153.581 61.088C153.581 61.088 154.975 59.5079 154.496 58.1406Z" fill="black"/>
<path d="M155.208 60.0823C155.792 59.9596 156.395 59.9596 156.979 60.0823" stroke="black" stroke-linecap="round" stroke-linejoin="round"/>
<path d="M159.375 60.0345C159.686 59.9062 160.017 59.8324 160.354 59.8164" stroke="black" stroke-linecap="round" stroke-linejoin="round"/>
<path d="M156.448 61.7424C156.448 62.0988 156.289 62.3861 156.097 62.3861C155.906 62.3861 155.746 62.0988 155.746 61.7424C155.746 61.3859 155.906 61.0986 156.097 61.0986C156.289 61.0986 156.448 61.3859 156.448 61.7424Z" fill="black"/>
<path d="M159.727 61.7424C159.727 62.0988 159.572 62.3861 159.375 62.3861C159.179 62.3861 159.03 62.0988 159.03 61.7424C159.03 61.3859 159.184 61.0986 159.375 61.0986C159.567 61.0986 159.727 61.3859 159.727 61.7424Z" fill="black"/>
<path d="M158.752 61.7422C158.912 62.5273 159.12 63.3019 159.374 64.0618L158.752 64.5939" fill="white"/>
<path d="M158.752 61.7422C158.912 62.5273 159.12 63.3019 159.374 64.0618L158.752 64.5939" stroke="black" stroke-linecap="round" stroke-linejoin="round"/>
<path d="M158.752 65.2539C157.754 65.3804 156.744 65.3804 155.746 65.2539C155.773 65.6496 155.938 66.0232 156.212 66.31C156.486 66.5967 156.852 66.7783 157.246 66.8234C158.699 67.0415 158.209 65.6316 158.209 65.6316" fill="white"/>
<path d="M158.752 65.2539C157.754 65.3804 156.744 65.3804 155.746 65.2539C155.773 65.6496 155.938 66.0232 156.212 66.31C156.486 66.5967 156.852 66.7783 157.246 66.8234C158.699 67.0415 158.209 65.6316 158.209 65.6316" stroke="black" stroke-linecap="round" stroke-linejoin="round"/>
<path d="M93.3453 5.77301V147.491C93.3453 148.889 92.7898 150.23 91.8009 151.219C90.812 152.208 89.4709 152.764 88.0724 152.764H5.77291C5.08046 152.764 4.39479 152.627 3.75505 152.362C3.11531 152.097 2.53404 151.709 2.0444 151.219C1.55477 150.73 1.16637 150.148 0.901378 149.509C0.63639 148.869 0.5 148.183 0.5 147.491V5.77301C0.5 5.08056 0.63639 4.3949 0.901378 3.75516C1.16637 3.11542 1.55477 2.53414 2.0444 2.0445C2.53404 1.55487 3.11531 1.16647 3.75505 0.901479C4.39479 0.636491 5.08046 0.500108 5.77291 0.500108H23.3716C24.37 0.493717 25.3497 0.770918 26.1968 1.29948C27.0438 1.82804 27.7234 2.58622 28.1565 3.48585C28.5872 4.38799 29.266 5.1488 30.1134 5.67925C30.9607 6.2097 31.9416 6.48786 32.9413 6.48118H60.0906C61.0902 6.48786 62.0712 6.2097 62.9185 5.67925C63.7659 5.1488 64.4447 4.38799 64.8754 3.48585C65.3085 2.58622 65.9881 1.82804 66.8351 1.29948C67.6822 0.770918 68.6619 0.493717 69.6603 0.500108H88.1872C89.5657 0.530136 90.8776 1.0989 91.8417 2.08453C92.8059 3.07016 93.3456 4.39422 93.3453 5.77301Z" fill="#550000"/>
<mask id="mask2_1970_1169" style="mask-type:luminance" maskUnits="userSpaceOnUse" x="0" y="0" width="94" height="153">
<path d="M93.3453 5.77301V147.491C93.3453 148.889 92.7898 150.23 91.8009 151.219C90.812 152.208 89.4709 152.764 88.0724 152.764H5.77291C5.08046 152.764 4.39479 152.627 3.75505 152.362C3.11531 152.097 2.53404 151.709 2.0444 151.219C1.55477 150.73 1.16637 150.148 0.901378 149.509C0.63639 148.869 0.5 148.183 0.5 147.491V5.77301C0.5 5.08056 0.63639 4.3949 0.901378 3.75516C1.16637 3.11542 1.55477 2.53414 2.0444 2.0445C2.53404 1.55487 3.11531 1.16647 3.75505 0.901479C4.39479 0.636491 5.08046 0.500108 5.77291 0.500108H23.3716C24.37 0.493717 25.3497 0.770918 26.1968 1.29948C27.0438 1.82804 27.7234 2.58622 28.1565 3.48585C28.5872 4.38799 29.266 5.1488 30.1134 5.67925C30.9607 6.2097 31.9416 6.48786 32.9413 6.48118H60.0906C61.0902 6.48786 62.0712 6.2097 62.9185 5.67925C63.7659 5.1488 64.4447 4.38799 64.8754 3.48585C65.3085 2.58622 65.9881 1.82804 66.8351 1.29948C67.6822 0.770918 68.6619 0.493717 69.6603 0.500108H88.1872C89.5657 0.530136 90.8776 1.0989 91.8417 2.08453C92.8059 3.07016 93.3456 4.39422 93.3453 5.77301Z" fill="white"/>
</mask>
<g mask="url(#mask2_1970_1169)">
<path opacity="0.5" d="M93.3453 5.77301V147.491C93.3453 148.889 92.7898 150.23 91.8009 151.219C90.812 152.208 89.4709 152.764 88.0724 152.764H5.77291C5.08046 152.764 4.39479 152.627 3.75505 152.362C3.11531 152.097 2.53404 151.709 2.0444 151.219C1.55477 150.73 1.16637 150.148 0.901378 149.509C0.63639 148.869 0.5 148.183 0.5 147.491V5.77301C0.5 5.08056 0.63639 4.3949 0.901378 3.75516C1.16637 3.11542 1.55477 2.53414 2.0444 2.0445C2.53404 1.55487 3.11531 1.16647 3.75505 0.901479C4.39479 0.636491 5.08046 0.500108 5.77291 0.500108H23.3716C24.37 0.493717 25.3497 0.770918 26.1968 1.29948C27.0438 1.82804 27.7234 2.58622 28.1565 3.48585C28.5872 4.38799 29.266 5.1488 30.1134 5.67925C30.9607 6.2097 31.9416 6.48786 32.9413 6.48118H60.0906C61.0902 6.48786 62.0712 6.2097 62.9185 5.67925C63.7659 5.1488 64.4447 4.38799 64.8754 3.48585C65.3085 2.58622 65.9881 1.82804 66.8351 1.29948C67.6822 0.770918 68.6619 0.493717 69.6603 0.500108H88.1872C89.5657 0.530136 90.8776 1.0989 91.8417 2.08453C92.8059 3.07016 93.3456 4.39422 93.3453 5.77301Z" fill="white"/>
<path opacity="0.3" d="M93.4513 82.8667L92.7144 82.1489L86.0156 92.2067L86.073 119.27L88.7621 119.394L91.1833 110.944C92.0185 109.92 92.7766 108.836 93.4513 107.7V82.8667Z" fill="black" fill-opacity="0.7"/>
<path d="M93.3447 5.77301V14.3857H0.518555V5.77301C0.518555 5.08056 0.654937 4.3949 0.919926 3.75516C1.18491 3.11542 1.57332 2.53414 2.06295 2.0445C2.55259 1.55487 3.13387 1.16647 3.77361 0.901479C4.41335 0.636491 5.09901 0.500108 5.79146 0.500108H23.371C24.3694 0.493717 25.3491 0.770918 26.1962 1.29948C27.0432 1.82804 27.7228 2.58622 28.1559 3.48585C28.5889 4.38548 29.2685 5.14367 30.1155 5.67223C30.9626 6.20079 31.9423 6.47799 32.9407 6.4716H60.09C61.0884 6.47799 62.0681 6.20079 62.9152 5.67223C63.7622 5.14367 64.4418 4.38548 64.8748 3.48585C65.3079 2.58622 65.9875 1.82804 66.8345 1.29948C67.6816 0.770918 68.6613 0.493717 69.6597 0.500108H88.1866C89.5651 0.530136 90.877 1.0989 91.8411 2.08453C92.8053 3.07015 93.345 4.39422 93.3447 5.77301Z" fill="black"/>
</g>
<path d="M93.3453 5.77301V147.491C93.3453 148.889 92.7898 150.23 91.8009 151.219C90.812 152.208 89.4709 152.764 88.0724 152.764H5.77291C5.08046 152.764 4.39479 152.627 3.75505 152.362C3.11531 152.097 2.53404 151.709 2.0444 151.219C1.55477 150.73 1.16637 150.148 0.901378 149.509C0.63639 148.869 0.5 148.183 0.5 147.491V5.77301C0.5 5.08056 0.63639 4.3949 0.901378 3.75516C1.16637 3.11542 1.55477 2.53414 2.0444 2.0445C2.53404 1.55487 3.11531 1.16647 3.75505 0.901479C4.39479 0.636491 5.08046 0.500108 5.77291 0.500108H23.3716C24.37 0.493717 25.3497 0.770918 26.1968 1.29948C27.0438 1.82804 27.7234 2.58622 28.1565 3.48585C28.5872 4.38799 29.266 5.1488 30.1134 5.67925C30.9607 6.2097 31.9416 6.48786 32.9413 6.48118H60.0906C61.0902 6.48786 62.0712 6.2097 62.9185 5.67925C63.7659 5.1488 64.4447 4.38799 64.8754 3.48585C65.3085 2.58622 65.9881 1.82804 66.8351 1.29948C67.6822 0.770918 68.6619 0.493717 69.6603 0.500108H88.1872C89.5657 0.530136 90.8776 1.0989 91.8417 2.08453C92.8059 3.07016 93.3456 4.39422 93.3453 5.77301Z" stroke="black" stroke-linecap="round" stroke-linejoin="round"/>
<path d="M4.71094 101.929V37.1138H88.7617V134.792" fill="#BFBFBF"/>
<path d="M4.71094 101.929V37.1138H88.7617V134.792" stroke="black" stroke-miterlimit="10"/>
<path d="M53.6879 75.5647C49.927 86.0053 46.5871 93.4601 48.903 99.7283C51.2189 105.996 51.9366 109.384 48.1374 113.279C44.3383 117.174 48.1374 123.614 48.1374 123.614C48.1374 123.614 40.7305 123.672 39.6491 116.781C38.5677 109.891 36.7782 102.092 31.2373 100.57C25.6965 99.0488 12.7199 98.934 6.49007 100.57C6.49007 100.57 4.70054 96.6468 9.1983 92.5414C12.0692 89.8906 11.7534 82.0147 11.696 75.536C11.6386 69.0573 14.921 49.6978 30.4718 54.0138C46.0225 58.3297 53.6879 75.5647 53.6879 75.5647Z" fill="black"/>
<path d="M4.71094 101.929C4.71094 101.929 8.43355 96.6757 26.5586 99.7284C44.6836 102.781 53.8705 106.676 54.9519 108.025C56.0333 109.375 66.5313 120.897 66.5313 120.897C66.5313 120.897 65.6795 131.768 63.1436 134.821H4.71094V101.929Z" fill="#550000" stroke="black" stroke-linecap="round" stroke-linejoin="round"/>
<path d="M52.4727 122.428C52.4727 122.428 57.2575 130.38 57.3819 134.792" stroke="black" stroke-linecap="round" stroke-linejoin="round"/>
<path d="M21.5819 83.4692C21.5819 83.4692 24.003 98.0918 18.9502 98.7808C18.9502 98.7808 21.9264 106.657 34.2617 104.982C34.2617 104.982 32.099 96.1682 37.7642 93.2973C43.4295 90.4264 21.5819 83.4692 21.5819 83.4692Z" fill="white" stroke="black" stroke-linecap="round" stroke-linejoin="round"/>
<path d="M22.0608 87.7278C14.0414 76.8471 21.8407 58.7412 30.3673 56.0521C46.253 51.0472 50.9804 62.3011 51.2293 68.3492C51.4398 73.4786 47.765 79.6223 47.9947 82.7038C48.5689 90.4361 40.4346 98.1397 35.9656 98.0823C33.1808 98.0823 30.4726 96.532 27.6304 94.0821" fill="white"/>
<path d="M22.0608 87.7278C14.0414 76.8471 21.8407 58.7412 30.3673 56.0521C46.253 51.0472 50.9804 62.3011 51.2293 68.3492C51.4398 73.4786 47.765 79.6223 47.9947 82.7038C48.5689 90.4361 40.4346 98.1397 35.9656 98.0823C33.1808 98.0823 30.4726 96.532 27.6304 94.0821" stroke="black" stroke-linecap="round" stroke-linejoin="round"/>
<path d="M28.1562 73.2395C28.7893 72.2114 29.6978 71.3814 30.7786 70.8435C31.8595 70.3056 33.0695 70.0814 34.2713 70.1963" stroke="black" stroke-linecap="round" stroke-linejoin="round"/>
<path d="M44.3105 71.7178C44.3105 71.7178 47.8896 71.3255 48.9136 74.6653" stroke="black" stroke-linecap="round" stroke-linejoin="round"/>
<path d="M34.2911 76.5792C34.1667 77.5362 33.6308 78.3018 33.0949 78.2252C32.559 78.1486 32.2145 77.2682 32.3389 76.3113C32.4633 75.3543 32.9992 74.5983 33.5447 74.6653C34.0902 74.7323 34.4156 75.6031 34.2911 76.5792Z" fill="black"/>
<path d="M45.65 77.7753C45.5161 78.7322 44.9802 79.4882 44.4443 79.4213C43.9084 79.3543 43.5734 78.4643 43.6978 77.5073C43.8222 76.5503 44.3581 75.7848 44.894 75.8517C45.4299 75.9187 45.7744 76.7896 45.65 77.7753Z" fill="black"/>
<path d="M39.6396 80.0337C39.964 80.969 40.5442 81.7945 41.3143 82.4165C42.3862 83.0673 39.6396 85.3927 39.6396 85.3927" stroke="black" stroke-linecap="round" stroke-linejoin="round"/>
<path d="M40.597 88.2257C40.597 88.2257 35.9557 87.7376 33.2666 85.2495" stroke="black" stroke-linecap="round" stroke-linejoin="round"/>
<path d="M33.6973 85.5845C33.6973 85.5845 34.2906 89.1253 36.7309 89.9961C39.1712 90.867 39.9272 88.0822 39.9272 88.0822" stroke="black" stroke-linecap="round" stroke-linejoin="round"/>
<path d="M21.458 74.6652C22.1569 74.9045 22.7936 75.2967 23.3217 75.8132C23.8498 76.3297 24.256 76.9576 24.5108 77.6509C24.5108 77.6509 41.564 75.6796 46.5977 64.8371C46.5977 64.8371 50.1385 67.2104 49.8418 78.4452C49.8418 78.4452 55.3827 77.7658 54.9042 68.9425C54.4257 60.1192 41.7937 46.9322 30.4631 54.0425C30.4631 54.0425 23.0275 50.9514 17.1517 61.5547C11.2759 72.1579 14.4147 84.9143 21.5442 86.7709C21.5633 86.7709 19.1326 80.0338 21.458 74.6652Z" fill="black"/>
<path d="M23.2187 76.4832C23.2187 76.4832 20.1182 72.5213 18.5679 73.8324C17.0176 75.1434 16.4243 80.7991 18.5679 82.7131C20.7115 84.627 22.2618 86.3496 22.6159 84.56" fill="white"/>
<path d="M23.2187 76.4832C23.2187 76.4832 20.1182 72.5213 18.5679 73.8324C17.0176 75.1434 16.4243 80.7991 18.5679 82.7131C20.7115 84.627 22.2618 86.3496 22.6159 84.56" stroke="black" stroke-linecap="round" stroke-linejoin="round"/>
<path d="M32.1472 70.933C32.1472 70.933 19.3143 81.1152 18.0511 84.7038C14.7017 94.1683 17.1707 97.3072 17.1707 97.3072C17.1707 97.3072 9.84026 97.0009 12.1657 83.0483C12.8156 79.0007 14.354 75.1474 16.6706 71.7653C18.9871 68.3832 22.0241 65.5563 25.5633 63.4878L32.1472 70.933Z" fill="black"/>
<path d="M63.6593 117.729L69.7456 123.614C69.7456 123.614 70.7026 119.786 72.6165 120.007C72.6918 118.649 72.6918 117.288 72.6165 115.93C72.6165 115.93 75.0759 114.351 80.6646 115.93C82.5214 116.483 84.2198 117.47 85.6193 118.809C87.0188 120.149 88.0792 121.803 88.7128 123.633C89.1817 124.964 87.1529 127.002 87.1529 127.002C87.1529 127.002 89.2104 131.93 88.5596 134.792H58.8936" fill="#550000"/>
<path d="M63.6593 117.729L69.7456 123.614C69.7456 123.614 70.7026 119.786 72.6165 120.007C72.6918 118.649 72.6918 117.288 72.6165 115.93C72.6165 115.93 75.0759 114.351 80.6646 115.93C82.5214 116.483 84.2198 117.47 85.6193 118.809C87.0188 120.149 88.0792 121.803 88.7128 123.633C89.1817 124.964 87.1529 127.002 87.1529 127.002C87.1529 127.002 89.2104 131.93 88.5596 134.792H58.8936" stroke="black" stroke-linecap="round" stroke-linejoin="round"/>
<path d="M76.8662 118.916C77.7562 114.81 79.5457 109.145 78.3974 104.877L88.6944 104.351C85.1823 112.915 84.6272 123.643 84.6272 123.643C84.6272 123.643 80.4549 122.935 78.5122 120.724" fill="white"/>
<path d="M76.8662 118.916C77.7562 114.81 79.5457 109.145 78.3974 104.877L88.6944 104.351C85.1823 112.915 84.6272 123.643 84.6272 123.643C84.6272 123.643 80.4549 122.935 78.5122 120.724" stroke="black" stroke-linecap="round" stroke-linejoin="round"/>
<path d="M79.0103 106.37C77.5078 105.69 76.8475 103.499 76.5604 102.379C76.2919 101.338 76.1536 100.268 76.1489 99.1926C76.1394 98.2307 76.0562 97.2709 75.9001 96.3217C75.8044 95.6806 75.68 95.049 75.5556 94.4652C75.2997 93.2562 74.9803 92.0615 74.5986 90.8861C74.5986 90.8861 75.7374 89.1923 76.7805 90.6277C77.0633 91.0392 77.2827 91.4909 77.4313 91.9675C77.7184 92.8001 77.9193 93.7283 78.1203 94.4461C78.1854 94.8647 78.3679 95.2562 78.6466 95.5753C78.772 95.6689 78.9107 95.7431 79.0581 95.7954L79.2112 95.8528C79.5243 95.9397 79.8551 95.9397 80.1682 95.8528C80.3127 95.8093 80.4486 95.7413 80.5701 95.6518C80.611 95.6401 80.6475 95.6169 80.6754 95.5849C80.7654 95.5059 80.8487 95.4194 80.9242 95.3265C81.3515 94.8217 81.7088 94.2616 81.9864 93.6613C82.4163 92.7613 82.7872 91.8343 83.0965 90.8861C83.2114 90.532 83.3358 90.1684 83.4315 89.8239C83.7377 88.7999 83.9769 87.8525 84.1205 87.1635C84.264 86.4745 84.398 85.8333 84.5703 85.1539C84.7425 84.4744 84.9148 83.8524 85.1062 83.2399C85.6803 81.5174 86.3789 80.3116 87.2019 80.9432C88.0249 81.5748 87.7665 82.1681 87.3933 83.7088C87.2689 84.2447 87.1158 84.8955 86.9627 85.6802C86.707 87.0527 86.5376 88.4398 86.4555 89.8335V90.3789L87.0105 90.6086C87.0105 90.7426 87.1637 90.5225 87.4125 90.0536C88.0465 88.8081 88.6151 87.5304 89.1159 86.2257C89.3455 85.6324 89.5848 85.0008 89.7953 84.3117C90.0059 83.6227 90.1877 83.1442 90.3599 82.5605C91.2212 79.6896 92.5801 81.1155 92.7141 82.1203C92.6503 83.1826 92.4009 84.2255 91.9772 85.2017C91.7571 85.8429 91.5274 86.5032 91.3265 87.1157C91.2244 87.4346 91.1287 87.7536 91.0394 88.0726C90.6853 89.288 90.3025 90.5512 90.0824 91.4316C90.0824 91.5464 90.0059 91.6613 89.9772 91.7665L90.5513 92.3694L90.8193 92.0345C91.595 91.0304 92.2925 89.9683 92.9055 88.8574C93.3266 88.0918 93.6232 87.4602 93.8625 86.9434C94.3218 85.9864 94.6089 85.6036 95.2692 85.7089C95.9295 85.8142 95.9678 86.9625 95.6137 88.2545C95.3319 89.2621 94.9167 90.2276 94.3792 91.1254C94.2831 91.2815 94.1776 91.4317 94.0634 91.5751C93.5286 92.3557 93.0824 93.1934 92.7332 94.0728L92.5036 94.6087L92.7045 95.3169C92.8959 95.1351 93.0873 94.9533 93.25 94.781C93.9103 94.1016 94.4366 93.4795 94.8768 92.934C95.2749 92.3963 95.6997 91.8789 96.1496 91.3838C96.5037 91.0392 96.8004 90.8957 97.1066 91.0488C97.6521 91.2976 97.4894 92.1876 97.0396 93.1637C96.7729 93.7442 96.4526 94.2985 96.0826 94.8193C95.8173 95.1981 95.5125 95.5478 95.1735 95.8624C94.5646 96.4938 94.0226 97.1865 93.5562 97.9294C93.3553 98.2261 93.1543 98.5323 92.9629 98.8385C92.2547 99.9391 91.6231 100.992 91.4126 101.355L91.3265 101.489C90.9628 102.446 90.6375 103.193 90.3695 103.863C89.7027 105.444 88.7266 106.875 87.4986 108.073C86.8861 108.686 85.7473 108.762 84.4746 108.561" fill="white"/>
<path d="M79.0103 106.37C77.5078 105.69 76.8475 103.499 76.5604 102.379C76.2919 101.338 76.1536 100.268 76.1489 99.1926C76.1394 98.2307 76.0562 97.2709 75.9001 96.3217C75.8044 95.6806 75.68 95.049 75.5556 94.4652C75.2997 93.2562 74.9803 92.0615 74.5986 90.8861C74.5986 90.8861 75.7374 89.1923 76.7805 90.6277C77.0633 91.0392 77.2827 91.4909 77.4313 91.9675C77.7184 92.8001 77.9193 93.7283 78.1203 94.4461C78.1854 94.8647 78.3679 95.2562 78.6466 95.5753C78.772 95.6689 78.9107 95.7431 79.0581 95.7954L79.2112 95.8528C79.5243 95.9397 79.8551 95.9397 80.1682 95.8528C80.3127 95.8093 80.4486 95.7413 80.5701 95.6518C80.611 95.6401 80.6475 95.6169 80.6754 95.5849C80.7654 95.5059 80.8487 95.4194 80.9242 95.3265C81.3515 94.8217 81.7088 94.2616 81.9864 93.6613C82.4163 92.7613 82.7872 91.8343 83.0965 90.8861C83.2114 90.532 83.3358 90.1684 83.4315 89.8239C83.7377 88.7999 83.9769 87.8525 84.1205 87.1635C84.264 86.4745 84.398 85.8333 84.5703 85.1539C84.7425 84.4744 84.9148 83.8524 85.1062 83.2399C85.6803 81.5174 86.3789 80.3116 87.2019 80.9432C88.0249 81.5748 87.7665 82.1681 87.3933 83.7088C87.2689 84.2447 87.1158 84.8955 86.9627 85.6802C86.707 87.0527 86.5376 88.4398 86.4555 89.8335V90.3789L87.0105 90.6086C87.0105 90.7426 87.1637 90.5225 87.4125 90.0536C88.0465 88.8081 88.6151 87.5304 89.1159 86.2257C89.3455 85.6324 89.5848 85.0008 89.7953 84.3117C90.0059 83.6227 90.1877 83.1442 90.3599 82.5605C91.2212 79.6896 92.5801 81.1155 92.7141 82.1203C92.6503 83.1826 92.4009 84.2255 91.9772 85.2017C91.7571 85.8429 91.5274 86.5032 91.3265 87.1157C91.2244 87.4346 91.1287 87.7536 91.0394 88.0726C90.6853 89.288 90.3025 90.5512 90.0824 91.4316C90.0824 91.5464 90.0059 91.6613 89.9772 91.7665L90.5513 92.3694L90.8193 92.0345C91.595 91.0304 92.2925 89.9683 92.9055 88.8574C93.3266 88.0918 93.6232 87.4602 93.8625 86.9434C94.3218 85.9864 94.6089 85.6036 95.2692 85.7089C95.9295 85.8142 95.9678 86.9625 95.6137 88.2545C95.3319 89.2621 94.9167 90.2276 94.3792 91.1254C94.2831 91.2815 94.1776 91.4317 94.0634 91.5751C93.5286 92.3557 93.0824 93.1934 92.7332 94.0728L92.5036 94.6087L92.7045 95.3169C92.8959 95.1351 93.0873 94.9533 93.25 94.781C93.9103 94.1016 94.4366 93.4795 94.8768 92.934C95.2749 92.3963 95.6997 91.8789 96.1496 91.3838C96.5037 91.0392 96.8004 90.8957 97.1066 91.0488C97.6521 91.2976 97.4894 92.1876 97.0396 93.1637C96.7729 93.7442 96.4526 94.2985 96.0826 94.8193C95.8173 95.1981 95.5125 95.5478 95.1735 95.8624C94.5646 96.4938 94.0226 97.1865 93.5562 97.9294C93.3553 98.2261 93.1543 98.5323 92.9629 98.8385C92.2547 99.9391 91.6231 100.992 91.4126 101.355L91.3265 101.489C90.9628 102.446 90.6375 103.193 90.3695 103.863C89.7027 105.444 88.7266 106.875 87.4986 108.073C86.8861 108.686 85.7473 108.762 84.4746 108.561" stroke="black" stroke-linecap="round" stroke-linejoin="round"/>
<path d="M80.7041 95.5942C81.7114 95.9625 82.5693 96.6522 83.1453 97.5569C83.7214 98.4615 83.9833 99.5307 83.8908 100.599" stroke="black" stroke-linecap="round" stroke-linejoin="round"/>
<path d="M75.623 116.782C75.4029 116.964 79.3552 124.16 86.0157 123.615" stroke="black" stroke-linecap="round" stroke-linejoin="round"/>
<path d="M69.747 123.614C69.747 123.614 68.0531 128.916 69.747 132.074V123.614Z" fill="#550000"/>
<path d="M69.747 123.614C69.747 123.614 68.0531 128.916 69.747 132.074" stroke="black" stroke-linecap="round" stroke-linejoin="round"/>
<path d="M54.9517 113.241C54.9517 113.241 56.8657 121.164 54.2148 125.595" stroke="black" stroke-linecap="round" stroke-linejoin="round"/>
<path d="M57.3819 120.208C57.3819 120.208 57.7551 124.533 54.9512 127.146" stroke="black" stroke-linecap="round" stroke-linejoin="round"/>
<path d="M72.5986 120.007C72.5986 120.007 76.7902 128.084 82.7808 127.844" stroke="black" stroke-linecap="round" stroke-linejoin="round"/>
<path d="M18.7012 103.001C18.7012 103.001 28.1369 111.02 35.6204 107.164" stroke="black" stroke-linecap="round" stroke-linejoin="round"/>
<path d="M9.113 113.997C9.113 113.997 8.88333 124.15 4.71094 127.145" stroke="black" stroke-linecap="round" stroke-linejoin="round"/>
<path d="M11.1322 123.672C11.1322 123.672 8.2613 128.725 4.71094 128.61" stroke="black" stroke-linecap="round" stroke-linejoin="round"/>
<path d="M17.1707 27.41C17.1707 28.6418 16.8056 29.8459 16.1214 30.8702C15.4373 31.8945 14.4649 32.693 13.3271 33.1648C12.1893 33.6366 10.9372 33.7605 9.72895 33.5209C8.52073 33.2813 7.41066 32.6889 6.53901 31.8186C5.66737 30.9483 5.07328 29.8391 4.83182 28.6313C4.59036 27.4235 4.71236 26.1711 5.18242 25.0326C5.65247 23.8941 6.44948 22.9204 7.47272 22.2347C8.49596 21.5491 9.6995 21.1821 10.9312 21.1802C12.5844 21.1802 14.17 21.8362 15.3398 23.0043C16.5097 24.1723 17.1682 25.7569 17.1707 27.41Z" fill="black"/>
<mask id="mask3_1970_1169" style="mask-type:luminance" maskUnits="userSpaceOnUse" x="4" y="21" width="14" height="13">
<path d="M17.1697 27.41C17.1697 28.6418 16.8046 29.8459 16.1205 30.8702C15.4363 31.8945 14.4639 32.693 13.3261 33.1648C12.1883 33.6366 10.9362 33.7605 9.72797 33.5209C8.51975 33.2813 7.40968 32.6889 6.53804 31.8186C5.66639 30.9483 5.0723 29.8391 4.83084 28.6313C4.58938 27.4235 4.71138 26.1711 5.18144 25.0326C5.6515 23.8941 6.44851 22.9204 7.47175 22.2347C8.49498 21.5491 9.69853 21.1821 10.9303 21.1802C12.5834 21.1802 14.169 21.8362 15.3389 23.0043C16.5087 24.1723 17.1672 25.7569 17.1697 27.41Z" fill="white"/>
</mask>
<g mask="url(#mask3_1970_1169)">
<path opacity="0.5" d="M15.2946 31.8982C14.1767 32.9806 12.6957 33.6077 11.1405 33.6572C9.58525 33.7067 8.06733 33.1752 6.88281 32.1662C7.18904 31.9652 7.40915 31.8504 7.40915 31.8504C7.40915 31.8504 6.65314 30.9891 7.02636 30.6159C7.39958 30.2427 9.11256 30.4245 8.26085 28.7019C7.40915 26.9794 7.30388 23.63 10.9404 22.9601C12.9596 22.606 14.4142 25.1611 13.5625 28.2809C13.5625 28.2809 13.2084 29.5154 13.8113 29.6111C14.4142 29.7068 14.0984 31.0274 14.0984 31.0274C14.524 31.2788 14.9245 31.5705 15.2946 31.8982Z" fill="white"/>
</g>
<path d="M17.1707 27.4101C17.1707 28.6418 16.8056 29.8459 16.1214 30.8702C15.4373 31.8945 14.4649 32.693 13.3271 33.1648C12.1893 33.6366 10.9372 33.7605 9.72895 33.5209C8.52073 33.2813 7.41066 32.6889 6.53901 31.8186C5.66737 30.9483 5.07328 29.8391 4.83182 28.6313C4.59036 27.4235 4.71236 26.1711 5.18242 25.0326C5.65247 23.8941 6.44948 22.9204 7.47272 22.2347C8.49596 21.5491 9.6995 21.1821 10.9312 21.1802C12.5844 21.1802 14.17 21.8362 15.3398 23.0043C16.5097 24.1723 17.1682 25.7569 17.1707 27.4101Z" stroke="black" stroke-miterlimit="10"/>
<path d="M23.2188 22.9985H44.674" stroke="black" stroke-width="2" stroke-linecap="round" stroke-linejoin="round"/>
<path d="M23.2188 27.4102H53.6887" stroke="black" stroke-width="2" stroke-linecap="round" stroke-linejoin="round"/>
<path d="M23.2188 31.8311H36.8077" stroke="black" stroke-width="2" stroke-linecap="round" stroke-linejoin="round"/>
<path d="M8.73978 137.653H6.13682C5.34933 137.653 4.71094 138.292 4.71094 139.079V141.682C4.71094 142.47 5.34933 143.108 6.13682 143.108H8.73978C9.52728 143.108 10.1657 142.47 10.1657 141.682V139.079C10.1657 138.292 9.52728 137.653 8.73978 137.653Z" stroke="black" stroke-linecap="round" stroke-linejoin="round"/>
<path d="M16.6919 137.653H14.089C13.3015 137.653 12.6631 138.292 12.6631 139.079V141.682C12.6631 142.47 13.3015 143.108 14.089 143.108H16.6919C17.4794 143.108 18.1178 142.47 18.1178 141.682V139.079C18.1178 138.292 17.4794 137.653 16.6919 137.653Z" stroke="black" stroke-linecap="round" stroke-linejoin="round"/>
<path d="M24.6343 137.653H22.0314C21.2439 137.653 20.6055 138.292 20.6055 139.079V141.682C20.6055 142.47 21.2439 143.108 22.0314 143.108H24.6343C25.4218 143.108 26.0602 142.47 26.0602 141.682V139.079C26.0602 138.292 25.4218 137.653 24.6343 137.653Z" stroke="black" stroke-linecap="round" stroke-linejoin="round"/>
<path d="M87.316 137.653H84.713C83.9255 137.653 83.2871 138.292 83.2871 139.079V141.682C83.2871 142.47 83.9255 143.108 84.713 143.108H87.316C88.1035 143.108 88.7418 142.47 88.7418 141.682V139.079C88.7418 138.292 88.1035 137.653 87.316 137.653Z" stroke="black" stroke-linecap="round" stroke-linejoin="round"/>
<path d="M124.858 6.98519C111.771 5.65459 100.217 13.3982 99.1117 24.283C98.5446 29.9035 100.871 35.255 105.052 39.3049C103.792 41.3008 102.039 42.9385 99.9624 44.0602C103.113 44.4396 106.307 43.8939 109.153 42.4896C112.71 44.6584 116.712 45.9933 120.859 46.3942C133.947 47.7248 145.501 39.9811 146.599 29.0964C147.697 18.2117 137.946 8.31578 124.858 6.98519Z" fill="white" stroke="black" stroke-miterlimit="10"/>
<path d="M116.591 18.8585C116.653 18.8804 116.707 18.9206 116.746 18.9738C116.785 19.027 116.807 19.0907 116.809 19.1566C116.798 19.2827 116.758 19.4046 116.692 19.5129C116.605 19.7092 116.554 19.8183 116.547 19.8473C116.348 20.5298 116.207 21.2279 116.125 21.9341C116.042 22.6293 115.906 23.3172 115.718 23.9918C115.682 24.1154 115.58 24.1809 115.405 24.1809C115.332 24.184 115.259 24.1664 115.195 24.13C115.068 24.0584 114.958 23.9603 114.873 23.8423C114.787 23.7243 114.728 23.5893 114.7 23.4465C114.7 23.4465 114.635 23.1048 114.526 22.5158C114.467 22.2104 114.417 21.876 114.366 21.5269C114.209 21.9435 114.095 22.3746 114.024 22.8139C113.979 23.2233 113.828 23.614 113.588 23.9482C113.537 23.9991 113.449 23.9991 113.326 23.9482C113.236 23.9392 113.152 23.9019 113.086 23.8418C113.019 23.7816 112.973 23.7017 112.955 23.6137L112.846 23.0975C112.698 22.4131 112.608 21.7175 112.577 21.018C112.545 20.3262 112.457 19.6381 112.315 18.9603C112.287 18.8903 112.287 18.8121 112.315 18.7421C112.336 18.7152 112.364 18.6943 112.396 18.6815C112.428 18.6687 112.463 18.6646 112.497 18.6694C112.548 18.6623 112.599 18.6623 112.65 18.6694C112.731 18.667 112.811 18.6866 112.881 18.7264C112.952 18.7661 113.01 18.8244 113.05 18.8948C113.144 19.4183 113.268 20.429 113.399 21.9341C113.474 21.7435 113.533 21.5464 113.573 21.3452C113.615 21.131 113.679 20.9216 113.762 20.7199C113.82 20.4799 113.871 20.2473 113.922 19.9928C113.973 19.7383 114.147 19.5638 114.387 19.5638C114.455 19.5542 114.523 19.5542 114.591 19.5638C114.591 19.6001 114.591 19.6219 114.671 19.6292C114.751 19.6365 114.751 19.6292 114.758 19.6292C114.913 20.0189 115.015 20.4271 115.064 20.8435C115.165 21.5706 115.231 21.9705 115.253 22.0868C115.354 21.5342 115.456 20.9889 115.565 20.4436C115.658 19.9014 115.827 19.375 116.067 18.8803C116.103 18.8003 116.198 18.764 116.336 18.764C116.427 18.7744 116.515 18.8068 116.591 18.8585Z" fill="black"/>
<path d="M120.547 23.1923C120.581 23.2758 120.601 23.3642 120.605 23.454C120.603 23.5168 120.588 23.5784 120.561 23.6348C120.533 23.6912 120.494 23.7411 120.445 23.7812C120.336 23.8758 120.271 23.9194 120.227 23.9121C119.929 23.8539 119.733 23.6067 119.653 23.185C119.585 22.7844 119.483 22.3904 119.348 22.0071L118.715 22.058C118.511 22.0778 118.316 22.1561 118.155 22.2834C118.044 22.6192 117.954 22.9616 117.886 23.3086C117.81 23.6583 117.705 24.0011 117.573 24.3338C117.53 24.4429 117.421 24.4793 117.261 24.4284C117.101 24.3775 116.948 24.2684 116.934 24.1521C116.935 23.8232 117.007 23.4985 117.144 23.1996C117.283 22.8923 117.385 22.5703 117.45 22.2398C117.45 22.1816 117.413 22.1234 117.326 22.0507C117.239 21.978 117.195 21.9344 117.195 21.8908C117.199 21.8553 117.214 21.822 117.239 21.7962C117.295 21.7503 117.363 21.7224 117.435 21.7163C117.537 21.7163 117.595 21.6581 117.603 21.6145C117.719 21.3091 117.893 20.7347 118.133 19.8912C118.284 19.3217 118.466 18.761 118.679 18.2116C118.698 18.1679 118.732 18.1316 118.774 18.1081C118.815 18.0845 118.864 18.0749 118.911 18.0808C118.996 18.0807 119.078 18.1089 119.144 18.1607C119.329 18.3384 119.448 18.5748 119.478 18.8297C119.515 19.0842 119.551 19.3386 119.58 19.5931C119.827 20.8119 120.15 22.014 120.547 23.1923ZM119.195 21.4254C119.168 21.1665 119.126 20.9092 119.071 20.6547C119.003 20.4075 118.945 20.1651 118.897 19.9276C118.708 20.4366 118.548 20.9528 118.41 21.4691C118.67 21.436 118.932 21.4214 119.195 21.4254Z" fill="black"/>
<path d="M122.858 18.03C122.858 18.1536 122.764 18.2627 122.589 18.3499C122.564 18.3607 122.537 18.3663 122.509 18.3663C122.482 18.3663 122.455 18.3607 122.429 18.3499L122.291 18.3063C122.247 18.3119 122.206 18.3324 122.175 18.3644C122.014 18.5253 121.887 18.7171 121.802 18.9283C121.717 19.1395 121.676 19.3657 121.68 19.5933C121.677 19.7616 121.704 19.9291 121.76 20.0877C121.76 20.1604 122.022 20.6403 122.487 21.5419C122.748 22.006 122.899 22.5231 122.931 23.0543C122.931 23.3992 122.846 23.7388 122.684 24.0431C122.569 24.2037 122.426 24.3417 122.262 24.4503C122.127 24.5641 121.958 24.6305 121.782 24.6393C121.729 24.6469 121.675 24.6469 121.622 24.6393C121.44 24.5594 121.346 24.4576 121.346 24.334C121.356 24.2301 121.406 24.134 121.484 24.065C121.533 24.0238 121.595 24.003 121.659 24.0068C121.697 24.0084 121.735 23.999 121.769 23.9797C121.802 23.9604 121.83 23.932 121.848 23.8977C121.975 23.6373 122.042 23.3515 122.044 23.0615C121.974 22.4403 121.768 21.8421 121.44 21.3092C121.108 20.7505 120.904 20.1245 120.844 19.4769C120.837 19.1268 120.914 18.7802 121.07 18.4663C121.22 18.1468 121.477 17.8897 121.797 17.7391C121.926 17.6763 122.067 17.6416 122.211 17.6373C122.319 17.6274 122.428 17.6418 122.53 17.6795C122.632 17.7173 122.724 17.7774 122.8 17.8555C122.837 17.9065 122.857 17.9673 122.858 18.03Z" fill="black"/>
<path d="M125.425 18.0299C125.425 18.1535 125.338 18.2626 125.156 18.3498C125.131 18.3606 125.104 18.3662 125.076 18.3662C125.049 18.3662 125.021 18.3606 124.996 18.3498L124.858 18.3062C124.837 18.3082 124.816 18.3143 124.798 18.3243C124.779 18.3343 124.762 18.3479 124.749 18.3643C124.585 18.5238 124.457 18.7152 124.37 18.9266C124.284 19.138 124.242 19.3649 124.247 19.5932C124.246 19.7619 124.276 19.9295 124.334 20.0876C124.334 20.1603 124.589 20.6402 125.062 21.5418C125.318 22.0074 125.47 22.5237 125.505 23.0542C125.503 23.3997 125.415 23.7392 125.251 24.043C125.141 24.2053 125 24.3438 124.836 24.4502C124.7 24.5618 124.532 24.6279 124.356 24.6392C124.303 24.6468 124.249 24.6468 124.196 24.6392C124.007 24.5593 123.92 24.4575 123.92 24.3339C123.931 24.23 123.98 24.1339 124.058 24.0649C124.058 24.0285 124.138 24.0139 124.233 24.0067C124.27 24.0078 124.307 23.9981 124.34 23.9788C124.372 23.9594 124.398 23.9313 124.414 23.8976C124.542 23.6372 124.609 23.3514 124.611 23.0614C124.544 22.4404 124.34 21.842 124.015 21.3091C123.679 20.7517 123.475 20.125 123.418 19.4768C123.412 19.1276 123.487 18.7818 123.636 18.4662C123.788 18.1474 124.045 17.8906 124.364 17.7391C124.492 17.6747 124.634 17.6399 124.778 17.6372C124.885 17.6284 124.993 17.6434 125.093 17.6811C125.194 17.7188 125.285 17.7783 125.36 17.8554C125.401 17.9042 125.424 17.9659 125.425 18.0299Z" fill="black"/>
<path d="M129.352 18.5824C129.276 19.1708 129.152 19.752 128.981 20.3201C128.705 21.2872 128.537 21.8762 128.494 22.0797C128.363 22.6997 128.098 23.2832 127.716 23.7884C127.627 23.9322 127.505 24.0519 127.359 24.1369C127.213 24.2219 127.048 24.2695 126.88 24.2756C126.603 24.2756 126.4 24.0866 126.262 23.7448C126.013 23.0903 125.892 22.3943 125.905 21.6944C125.915 21.1106 125.958 20.528 126.036 19.9493C126.024 19.7581 126.024 19.5662 126.036 19.3749C126.036 18.9896 126.182 18.8005 126.48 18.8005C126.551 18.8009 126.62 18.8184 126.683 18.8514L126.887 18.9532C126.887 19.2731 126.887 19.7312 126.887 20.3492C126.887 20.9673 126.836 21.4763 126.836 21.7671C126.836 22.0579 126.836 22.356 126.836 22.6105C126.875 22.8565 126.931 23.0995 127.003 23.3376C127.289 23.0018 127.498 22.6071 127.614 22.1815C127.665 22.0143 127.767 21.578 127.912 20.8582C127.999 20.4185 128.133 19.9895 128.312 19.5785C128.372 19.4225 128.409 19.2583 128.421 19.0913C128.438 18.9199 128.477 18.7513 128.537 18.5897C128.564 18.5196 128.612 18.4599 128.675 18.4194C128.737 18.3788 128.812 18.3594 128.886 18.3642C128.976 18.3589 129.065 18.3761 129.147 18.4142C129.228 18.4523 129.298 18.5101 129.352 18.5824Z" fill="black"/>
<path d="M132.267 20.4296C132.118 20.7948 131.914 21.1355 131.664 21.4402L131.235 21.8692C131.08 21.9995 130.895 22.0894 130.697 22.131C130.672 22.2751 130.66 22.421 130.66 22.5672C130.66 22.6836 130.66 22.8581 130.66 23.098C130.66 23.338 130.66 23.5125 130.66 23.6215C130.688 23.9622 130.584 24.3004 130.369 24.5668L130.108 24.4286C129.999 24.3705 129.94 24.305 129.933 24.225C129.866 23.7799 129.834 23.3301 129.839 22.8799C129.839 22.5527 129.839 22.0655 129.897 21.4257C129.955 20.7858 129.948 20.2841 129.948 19.9715C129.949 19.5267 129.922 19.0823 129.868 18.6409C129.817 18.6409 129.773 18.6409 129.73 18.5463C129.704 18.4905 129.664 18.4427 129.613 18.4082C129.613 18.2119 129.701 18.1101 129.773 18.1101C129.963 18.0753 130.158 18.0753 130.348 18.1101C130.707 18.1511 131.054 18.266 131.367 18.4474C131.679 18.6288 131.951 18.8729 132.165 19.1644C132.295 19.3496 132.364 19.5708 132.362 19.797C132.372 20.012 132.34 20.227 132.267 20.4296ZM131.664 19.7025C131.679 19.5832 131.656 19.4621 131.599 19.3565C131.541 19.2508 131.452 19.1658 131.344 19.1135L130.675 18.8445C130.74 19.6425 130.762 20.4435 130.74 21.2439C131.214 20.856 131.54 20.3168 131.664 19.717V19.7025Z" fill="black"/>
<path d="M113.952 27.9332C113.81 28.4385 113.509 28.8847 113.094 29.2057L111.771 30.1291C111.784 30.1965 111.816 30.2591 111.862 30.3102C111.908 30.3614 111.967 30.3992 112.032 30.4199L112.469 30.609C112.779 30.7681 113.042 31.0054 113.232 31.2975C113.422 31.5895 113.532 31.9262 113.552 32.274C113.547 32.773 113.367 33.2544 113.043 33.6337C112.714 34.0145 112.323 34.3366 111.887 34.5862L110.636 35.3134C110.535 35.3732 110.42 35.4057 110.302 35.4079C110.177 35.4176 110.052 35.3886 109.944 35.3249C109.836 35.2612 109.75 35.1657 109.698 35.0516C109.698 34.3245 109.735 33.5974 109.756 32.8703C109.76 32.1532 109.806 31.4369 109.895 30.7253C109.81 30.689 109.738 30.6307 109.684 30.5565C109.63 30.4822 109.597 30.3949 109.589 30.3036C109.589 30.2627 109.598 30.2222 109.614 30.1847C109.63 30.1472 109.654 30.1134 109.684 30.0855C109.765 30.0052 109.855 29.9345 109.953 29.8746C110.052 28.6654 110.074 27.4511 110.018 26.2391C109.849 26.2216 109.687 26.1627 109.546 26.0676C109.406 25.9725 109.29 25.8441 109.211 25.6938C109.209 25.6372 109.224 25.5814 109.255 25.5338C109.287 25.4833 109.307 25.4261 109.313 25.3666C109.504 25.224 109.736 25.1474 109.975 25.1484C110.124 25.1509 110.272 25.168 110.418 25.1994L110.927 25.2793C111.36 25.3372 111.781 25.4674 112.17 25.6647C113.108 26.1518 113.625 26.6245 113.821 27.0825C113.945 27.3478 113.99 27.643 113.952 27.9332ZM112.338 32.3759C112.348 32.2865 112.348 32.1962 112.338 32.1068C112.352 31.8417 112.263 31.5813 112.09 31.3797C111.828 31.2273 111.544 31.1169 111.247 31.0525C111.18 31.0526 111.113 31.0649 111.051 31.0889C111.051 31.1761 111.051 31.2707 111.051 31.3797C111.051 31.4888 111.051 31.8378 110.978 32.2159C110.936 32.4977 110.912 32.7818 110.905 33.0666C110.906 33.3124 110.94 33.557 111.007 33.7937C111.151 33.6435 111.315 33.5138 111.494 33.4083C111.667 33.3152 111.825 33.1949 111.96 33.0521C112.132 32.8579 112.256 32.6264 112.323 32.3759H112.338ZM112.73 27.2861C112.687 26.9662 112.425 26.719 111.952 26.559C111.838 26.5151 111.728 26.459 111.625 26.3918C111.549 26.3346 111.458 26.2995 111.363 26.29H111.247C111.247 26.4427 111.247 26.5954 111.247 26.7626C111.247 26.9299 111.247 27.3661 111.298 27.9042C111.349 28.4422 111.334 28.784 111.298 29.0603C111.401 29.0414 111.497 28.9935 111.574 28.9221L111.778 28.7767C112.071 28.6433 112.323 28.432 112.505 28.1659C112.682 27.9064 112.757 27.5904 112.716 27.2789L112.73 27.2861Z" fill="black"/>
<path d="M119.135 26.5004C119.031 27.3228 118.859 28.1352 118.619 28.9289C118.227 30.2886 118.001 31.1102 117.943 31.401C117.756 32.2663 117.386 33.0817 116.86 33.7932C116.737 33.9939 116.567 34.1609 116.364 34.279C116.161 34.3971 115.931 34.4625 115.696 34.4694C115.304 34.4694 115.013 34.2271 114.824 33.7423C114.474 32.8262 114.306 31.8506 114.329 30.8703C114.341 30.053 114.402 29.2372 114.511 28.4272C114.493 28.1585 114.493 27.8888 114.511 27.6201C114.511 27.082 114.722 26.813 115.136 26.813C115.233 26.8139 115.328 26.8389 115.413 26.8857C115.515 26.9309 115.614 26.9818 115.711 27.0384C115.711 27.4747 115.711 28.1291 115.667 28.9871C115.624 29.845 115.602 30.5649 115.602 30.9721C115.602 31.3792 115.602 31.8009 115.645 32.1572C115.697 32.509 115.775 32.8566 115.878 33.197C116.277 32.7213 116.569 32.166 116.736 31.5683C116.801 31.3501 116.94 30.7321 117.15 29.7287C117.268 29.1107 117.456 28.5081 117.71 27.9328C117.796 27.6989 117.847 27.4541 117.863 27.2057C117.878 26.9565 117.932 26.7112 118.023 26.4785C118.062 26.3813 118.131 26.2988 118.22 26.2427C118.309 26.1866 118.413 26.1598 118.517 26.1659C118.64 26.1649 118.761 26.195 118.87 26.2535C118.978 26.312 119.069 26.3969 119.135 26.5004Z" fill="black"/>
<path d="M123.281 30.7103L123.034 31.3065C122.954 31.5102 122.841 31.6993 122.699 31.8664C122.428 32.2106 122.159 32.545 121.892 32.8698C121.652 33.1953 121.357 33.476 121.02 33.6987C120.932 33.8054 120.838 33.9144 120.736 34.0259C120.699 34.0748 120.652 34.1151 120.598 34.144C120.544 34.1728 120.485 34.1896 120.423 34.1931C120.361 34.1931 120.299 34.1808 120.242 34.1568L120.016 34.0623C119.976 34.0499 119.939 34.0284 119.909 33.9993C119.879 33.9703 119.856 33.9346 119.842 33.895C119.842 33.5315 119.798 33.1679 119.798 32.7244C119.798 32.2808 119.798 31.6701 119.849 30.8267C119.9 29.9832 119.907 29.3724 119.907 28.9289C119.907 28.369 119.907 27.8528 119.842 27.3874L119.551 27.0821C119.458 27.0058 119.398 26.8963 119.384 26.7767C119.373 26.7337 119.373 26.6888 119.384 26.6458C119.408 26.591 119.448 26.5446 119.498 26.5123C119.549 26.48 119.607 26.4632 119.667 26.464C119.778 26.4424 119.889 26.4278 120.002 26.4204C120.851 26.6418 121.635 27.0603 122.292 27.6419C122.486 27.7995 122.657 27.983 122.801 28.1873C123.177 28.6892 123.394 29.2916 123.426 29.9178C123.437 30.1894 123.387 30.46 123.281 30.7103ZM122.35 29.3215C122.268 28.7786 121.802 28.2939 120.954 27.8673C120.896 29.3215 120.879 30.8533 120.903 32.4626C121.318 32.116 121.659 31.6909 121.909 31.2117C122.159 30.7326 122.311 30.2088 122.357 29.6706C122.362 29.5542 122.359 29.4376 122.35 29.3215Z" fill="black"/>
<path d="M127.832 30.7103L127.585 31.3065C127.502 31.5089 127.389 31.6976 127.25 31.8664C126.979 32.2106 126.71 32.545 126.443 32.8698C126.203 33.1953 125.908 33.476 125.571 33.6987C125.483 33.8054 125.389 33.9144 125.287 34.0259C125.25 34.0741 125.202 34.1139 125.149 34.1427C125.095 34.1715 125.035 34.1887 124.974 34.1931C124.912 34.1937 124.85 34.1814 124.793 34.1568L124.567 34.0623C124.527 34.049 124.49 34.0272 124.458 33.9984C124.427 33.9695 124.402 33.9343 124.385 33.895C124.385 33.5315 124.385 33.1679 124.385 32.7244C124.385 32.2808 124.385 31.6701 124.436 30.8267C124.487 29.9832 124.487 29.3724 124.487 28.9289C124.487 28.369 124.487 27.8528 124.422 27.3874L124.138 27.0821C124.045 27.0058 123.985 26.8963 123.971 26.7767C123.964 26.7333 123.964 26.6892 123.971 26.6458C123.996 26.5899 124.037 26.5426 124.089 26.5102C124.14 26.4778 124.201 26.4617 124.262 26.464C124.372 26.4424 124.484 26.4278 124.596 26.4204C125.445 26.6433 126.229 27.0616 126.887 27.6419C127.079 27.8014 127.25 27.9846 127.396 28.1873C127.77 28.6896 127.985 29.2922 128.014 29.9178C128.013 30.1922 127.951 30.4629 127.832 30.7103ZM126.894 29.3215C126.821 28.7762 126.356 28.2963 125.505 27.8673C125.447 29.3215 125.425 30.8485 125.454 32.4626C125.869 32.116 126.21 31.6909 126.46 31.2117C126.71 30.7326 126.862 30.2088 126.909 29.6706C126.914 29.554 126.909 29.4373 126.894 29.3215Z" fill="black"/>
<path d="M132.857 25.8899C132.502 27.195 132.055 28.4731 131.519 29.7144C130.755 31.5395 130.268 32.8046 130.065 33.4954C130.017 33.6632 129.995 33.8372 129.999 34.0116C129.999 34.3025 129.999 34.4842 129.999 34.5569C130.003 34.6199 129.992 34.6829 129.969 34.7415C129.946 34.8001 129.91 34.853 129.865 34.8966C129.819 34.9401 129.765 34.9733 129.705 34.9937C129.645 35.0141 129.582 35.0214 129.519 35.015C129.348 35.0259 129.179 34.9713 129.047 34.8623C128.879 34.746 128.792 34.6224 128.807 34.4988C128.851 33.7509 129.013 33.0148 129.287 32.3175L130.094 30.238C129.658 28.9888 129.131 27.7736 128.516 26.6024C128.494 26.5622 128.481 26.5174 128.479 26.4716C128.483 26.4174 128.5 26.3648 128.528 26.3181C128.555 26.2714 128.594 26.2318 128.639 26.2025C128.73 26.1284 128.842 26.0852 128.959 26.0789L129.454 26.2244C129.713 26.6299 129.939 27.0554 130.13 27.4968C130.326 27.9403 130.523 28.3838 130.712 28.8274C130.886 28.3039 131.061 27.7876 131.235 27.2786C131.401 26.7707 131.623 26.2829 131.897 25.8244C131.934 25.7627 131.988 25.7127 132.052 25.6805C132.117 25.6483 132.189 25.6352 132.26 25.6427C132.371 25.6406 132.482 25.6615 132.584 25.7041C132.687 25.7466 132.78 25.8099 132.857 25.8899Z" fill="black"/>
<path d="M134.943 33.8442C134.963 33.9654 134.945 34.0896 134.892 34.2005C134.841 34.3168 134.776 34.3822 134.703 34.3822C134.645 34.3843 134.589 34.4047 134.543 34.4404C134.53 34.4562 134.513 34.4684 134.494 34.476C134.475 34.4836 134.455 34.4864 134.434 34.484C133.976 34.3095 133.707 34.0841 133.656 33.8078C133.656 33.6842 133.714 33.5606 133.903 33.437C134.018 33.3379 134.16 33.2769 134.311 33.2625C134.461 33.2821 134.603 33.3453 134.718 33.4443C134.782 33.4909 134.835 33.5507 134.874 33.6197C134.913 33.6887 134.936 33.7653 134.943 33.8442ZM136.208 25.9406C136.055 27.0467 135.832 28.142 135.539 29.2198C135.238 30.3169 135.082 31.4487 135.074 32.5863C135.071 32.6313 135.057 32.6749 135.033 32.713C135.009 32.7511 134.975 32.7826 134.936 32.8044C134.902 32.8345 134.861 32.8562 134.817 32.8675C134.772 32.8789 134.726 32.8797 134.681 32.8699C134.245 32.7899 134.005 32.5718 133.954 32.2228C133.954 32.041 133.954 31.8592 133.954 31.6774C133.979 30.6702 134.11 29.6684 134.347 28.689C134.74 26.944 134.958 25.9551 134.994 25.7225C135.002 25.671 135.025 25.623 135.06 25.5843C135.095 25.5455 135.14 25.5178 135.19 25.5043C135.296 25.4647 135.412 25.4647 135.518 25.5043L135.954 25.6352C136.025 25.6499 136.088 25.6881 136.134 25.7436C136.181 25.799 136.207 25.8684 136.208 25.9406Z" fill="black"/>
</svg>
