<svg width="262" height="237" viewBox="0 0 262 237" fill="none" xmlns="http://www.w3.org/2000/svg">
<path d="M63.1119 121.947C63.1119 121.947 52.9436 122.51 50.1371 127.167C47.3307 131.824 50.9845 136.617 56.3398 138.596C61.6951 140.575 63.539 139.721 64.244 138.454C64.949 137.186 63.1119 121.947 63.1119 121.947Z" fill="white" stroke="black" stroke-width="2" stroke-linecap="round" stroke-linejoin="round"/>
<path d="M258.838 151.028C258.838 151.028 253.415 151.299 235.715 137.152C218.016 123.005 216.938 114.843 190.819 101.224C164.7 87.6053 152.179 86.2631 151.366 89.2525C150.552 92.242 151.095 217.678 154.362 220.396C157.63 223.115 178.847 221.752 195.442 219.041C212.037 216.329 230.014 218.227 236.258 220.396C242.501 222.566 261 228.307 261 228.307" fill="white"/>
<mask id="mask0_843_1447" style="mask-type:luminance" maskUnits="userSpaceOnUse" x="151" y="87" width="111" height="142">
<path d="M258.839 151.029C258.839 151.029 253.416 151.3 235.716 137.152C218.017 123.005 216.939 114.843 190.82 101.224C164.701 87.6055 152.18 86.2633 151.367 89.2528C150.553 92.2423 151.096 217.678 154.363 220.397C157.631 223.115 178.848 221.752 195.443 219.041C212.038 216.329 230.015 218.227 236.259 220.397C242.502 222.566 261.001 228.308 261.001 228.308" fill="white"/>
</mask>
<g mask="url(#mask0_843_1447)">
<path d="M183.912 214.072C179.499 210.683 176.456 197.077 180.855 190.285C185.255 183.492 191.023 185.865 195.809 185.865C200.595 185.865 189.03 180.089 184.285 171.928C179.54 163.766 200.263 119.934 197.545 109.054C196.912 106.905 195.856 104.905 194.44 103.17C193.294 102.539 192.101 101.895 190.84 101.238C164.721 87.6326 152.201 86.2768 151.387 89.2663C150.574 92.2558 151.116 217.692 154.384 220.41C157.651 223.128 178.869 221.766 195.464 219.054C197.287 218.756 199.117 218.519 200.954 218.329C193.925 217.272 186.183 215.794 183.912 214.072Z" fill="#FFD95C"/>
<path opacity="0.5" d="M183.912 214.072C179.499 210.683 176.456 197.077 180.855 190.285C185.255 183.492 191.023 185.865 195.809 185.865C200.595 185.865 189.03 180.089 184.285 171.928C179.54 163.766 200.263 119.934 197.545 109.054C196.912 106.905 195.856 104.905 194.44 103.17C193.294 102.539 192.101 101.895 190.84 101.238C164.721 87.6326 152.201 86.2768 151.387 89.2663C150.574 92.2558 151.116 217.692 154.384 220.41C157.651 223.128 178.869 221.766 195.464 219.054C197.287 218.756 199.117 218.519 200.954 218.329C193.925 217.272 186.183 215.794 183.912 214.072Z" fill="white"/>
</g>
<path d="M258.838 151.028C258.838 151.028 253.415 151.299 235.715 137.152C218.016 123.005 216.938 114.843 190.819 101.224C164.7 87.6053 152.179 86.2631 151.366 89.2525C150.552 92.242 151.095 217.678 154.362 220.396C157.63 223.115 178.847 221.752 195.442 219.041C212.037 216.329 230.014 218.227 236.258 220.396C242.501 222.566 261 228.307 261 228.307" stroke="black" stroke-width="2" stroke-linecap="round" stroke-linejoin="round"/>
<path d="M60.0137 67.4857C60.0137 67.4857 51.6893 65.5131 48.0219 72.1428C44.3545 78.7726 53.5196 86.5344 59.3087 88.3714L60.0137 67.4857Z" fill="#FFD95C" stroke="black" stroke-width="2" stroke-linecap="round" stroke-linejoin="round"/>
<path d="M64.8067 67.7706C64.7457 66.3199 60.3733 67.1605 59.6005 67.2689C57.5747 67.5363 55.6935 68.4643 54.2486 69.9092C52.8036 71.3542 51.8756 73.2353 51.6083 75.2612C50.8151 81.3622 56.6111 88.0665 62.3799 89.4968L65.6473 90.3171C65.6473 90.3171 64.8067 67.7909 64.8067 67.7706Z" fill="white" stroke="black" stroke-width="2" stroke-linecap="round" stroke-linejoin="round"/>
<path d="M57.5061 152.845C57.5061 152.845 50.5035 153.123 49.0664 159.163C47.6293 165.203 56.5774 169.331 61.5463 169.481L57.5061 152.845Z" fill="#FFD95C" stroke="black" stroke-width="2" stroke-linecap="round" stroke-linejoin="round"/>
<path d="M63.3962 151.293C63.0301 150.161 57.7223 152.506 57.1325 152.764C55.5933 153.421 54.3141 154.568 53.4929 156.027C52.6718 157.485 52.3546 159.174 52.5907 160.831C53.3092 165.833 59.3695 169.833 64.2232 169.704L66.9822 169.63C66.9822 169.63 63.4029 151.306 63.3962 151.293Z" fill="white" stroke="black" stroke-width="2" stroke-linecap="round" stroke-linejoin="round"/>
<path d="M63.1119 97.1161C63.1119 97.1161 52.9436 97.6787 50.1371 102.336C47.3307 106.993 50.9845 111.786 56.3398 113.765C61.6951 115.744 63.539 114.89 64.244 113.623C64.949 112.355 63.1119 97.1161 63.1119 97.1161Z" fill="white" stroke="black" stroke-width="2" stroke-linecap="round" stroke-linejoin="round"/>
<path d="M58.1839 128.719C58.1839 128.719 61.9936 137.464 61.7089 144.521C61.4242 151.578 53.3844 153.686 50.4221 152.418C47.4597 151.151 46.1921 135.912 48.1647 130.834C50.1374 125.757 53.9538 125.33 53.9538 125.33" fill="white"/>
<path d="M58.1839 128.719C58.1839 128.719 61.9936 137.464 61.7089 144.521C61.4242 151.578 53.3844 153.686 50.4221 152.418C47.4597 151.151 46.1921 135.912 48.1647 130.834C50.1374 125.757 53.9538 125.33 53.9538 125.33" stroke="black" stroke-width="2" stroke-linecap="round" stroke-linejoin="round"/>
<path d="M48.4419 137.044C48.4419 137.044 47.3369 145.931 47.3369 149.741C47.3369 153.55 48.1775 152.703 50.1569 148.046C52.1364 143.389 52.2516 132.949 48.4419 137.044Z" fill="#FFD95C" stroke="black" stroke-width="2" stroke-linecap="round" stroke-linejoin="round"/>
<path d="M58.1839 103.888C58.1839 103.888 61.9936 112.633 61.7089 119.69C61.4242 126.747 53.3844 128.862 50.4221 127.587C47.4597 126.313 46.1921 111.081 48.1647 106.003C50.1374 100.926 53.9538 100.499 53.9538 100.499" fill="white"/>
<path d="M58.1839 103.888C58.1839 103.888 61.9936 112.633 61.7089 119.69C61.4242 126.747 53.3844 128.862 50.4221 127.587C47.4597 126.313 46.1921 111.081 48.1647 106.003C50.1374 100.926 53.9538 100.499 53.9538 100.499" stroke="black" stroke-width="2" stroke-linecap="round" stroke-linejoin="round"/>
<path d="M48.4419 112.213C48.4419 112.213 47.3369 121.1 47.3369 124.91C47.3369 128.719 48.1775 127.872 50.1569 123.215C52.1364 118.558 52.2516 108.118 48.4419 112.213Z" fill="#FFD95C" stroke="black" stroke-width="2" stroke-linecap="round" stroke-linejoin="round"/>
<path d="M219.649 216.573C217.971 210.459 217.145 204.143 217.196 197.803" stroke="black" stroke-width="2" stroke-linecap="round" stroke-linejoin="round"/>
<path d="M222.368 192.901C222.368 192.901 222.096 204.602 223.723 208.683" stroke="black" stroke-width="2" stroke-linecap="round" stroke-linejoin="round"/>
<path d="M186.724 182.292C186.724 182.292 197.882 189.912 211.209 189.912" stroke="black" stroke-width="2" stroke-linecap="round" stroke-linejoin="round"/>
<path d="M240.223 140.935C240.223 140.935 234.8 137.125 228.252 126.516C221.703 115.907 205.963 93.0488 203.251 81.6196C200.54 70.1904 200.262 66.3875 198.628 59.8527C196.994 53.3179 192.913 50.0572 193.734 41.8955C194.554 33.7337 192.1 29.6529 188.311 29.1105C184.521 28.5682 178.786 28.0191 175.797 42.1666C172.807 56.3141 178.244 76.1762 180.149 85.4293C182.054 94.6825 182.054 102.844 178.244 112.64C174.434 122.435 170.353 135.491 174.177 154.811C178 174.131 190.229 179.845 199.753 183.926" fill="white"/>
<mask id="mask1_843_1447" style="mask-type:luminance" maskUnits="userSpaceOnUse" x="172" y="28" width="69" height="156">
<path d="M240.222 140.935C240.222 140.935 234.799 137.125 228.251 126.516C221.702 115.907 205.962 93.0489 203.25 81.6197C200.539 70.1906 200.261 66.3876 198.627 59.8528C196.993 53.318 192.912 50.0573 193.733 41.8956C194.553 33.7338 192.099 29.653 188.31 29.1107C184.52 28.5684 178.785 28.0193 175.796 42.1668C172.806 56.3142 178.243 76.1763 180.148 85.4295C182.053 94.6826 182.053 102.844 178.243 112.64C174.433 122.435 170.352 135.491 174.176 154.811C177.999 174.131 190.228 179.845 199.752 183.926" fill="white"/>
</mask>
<g mask="url(#mask1_843_1447)">
<path d="M186.832 92.3371C185.551 76.6644 180.433 61.6221 179.152 50.1048C178.155 41.1092 181.45 32.7034 182.941 29.4496C180.23 30.5817 177.518 33.8084 175.742 42.1667C172.746 56.3142 178.189 76.1763 180.094 85.4294C181.999 94.6826 181.999 102.844 178.189 112.64C174.38 122.435 170.299 135.491 174.122 154.811C175.003 159.698 176.787 164.379 179.382 168.613C170.489 141.436 188.08 107.644 186.832 92.3371Z" fill="#FFD95C"/>
<path opacity="0.5" d="M186.832 92.3371C185.551 76.6644 180.433 61.6221 179.152 50.1048C178.155 41.1092 181.45 32.7034 182.941 29.4496C180.23 30.5817 177.518 33.8084 175.742 42.1667C172.746 56.3142 178.189 76.1763 180.094 85.4294C181.999 94.6826 181.999 102.844 178.189 112.64C174.38 122.435 170.299 135.491 174.122 154.811C175.003 159.698 176.787 164.379 179.382 168.613C170.489 141.436 188.08 107.644 186.832 92.3371Z" fill="white"/>
</g>
<path d="M240.223 140.935C240.223 140.935 234.8 137.125 228.252 126.516C221.703 115.907 205.963 93.0488 203.251 81.6196C200.54 70.1905 200.262 66.3875 198.628 59.8527C196.994 53.3179 192.913 50.0572 193.734 41.8955C194.554 33.7337 192.1 29.6529 188.311 29.1105C184.521 28.5682 178.786 28.0191 175.797 42.1666C172.807 56.3141 178.244 76.1762 180.149 85.4293C182.054 94.6825 182.054 102.844 178.244 112.64C174.434 122.435 170.353 135.491 174.177 154.811C178 174.131 190.229 179.845 199.753 183.926" stroke="black" stroke-width="2" stroke-linecap="round" stroke-linejoin="round"/>
<path d="M196.994 59.9137C196.994 59.9137 195.015 57.4462 189.585 60.4086" stroke="black" stroke-width="2" stroke-linecap="round" stroke-linejoin="round"/>
<path d="M190.08 63.1202C190.08 63.1202 194.032 60.6527 197.239 62.8762" stroke="black" stroke-width="2" stroke-linecap="round" stroke-linejoin="round"/>
<path d="M198.506 65.3436C196.784 65.5329 195.052 65.6144 193.32 65.5877" stroke="black" stroke-width="2" stroke-linecap="round" stroke-linejoin="round"/>
<path d="M193.34 47.4271L191.646 47.1153C189.896 46.7857 188.322 45.844 187.204 44.459C186.086 43.074 185.498 41.3362 185.545 39.5569C185.59 37.9074 185.748 36.2631 186.019 34.6354C187.104 28.1074 187.375 25.6602 190.086 26.2025C192.798 26.7448 194.438 27.5583 194.438 31.1036C194.438 34.649 193.34 47.4271 193.34 47.4271Z" fill="#FFD95C" stroke="black" stroke-width="2" stroke-linecap="round" stroke-linejoin="round"/>
<path d="M170.868 30.4122H66.2027C63.6756 30.4122 61.627 32.4609 61.627 34.988V230.958C61.627 233.485 63.6756 235.534 66.2027 235.534H170.868C173.395 235.534 175.444 233.485 175.444 230.958V34.988C175.444 32.4609 173.395 30.4122 170.868 30.4122Z" fill="#FFD95C" stroke="black" stroke-width="2" stroke-linecap="round" stroke-linejoin="round"/>
<path d="M170.868 26.5686H66.2027C63.6756 26.5686 61.627 28.6172 61.627 31.1443V227.114C61.627 229.642 63.6756 231.69 66.2027 231.69H170.868C173.395 231.69 175.444 229.642 175.444 227.114V31.1443C175.444 28.6172 173.395 26.5686 170.868 26.5686Z" fill="black" stroke="black" stroke-width="2" stroke-miterlimit="10"/>
<path d="M126.406 38.8248H112.238C112.046 38.8248 111.857 38.7871 111.68 38.7138C111.503 38.6406 111.342 38.5332 111.207 38.3979C111.072 38.2626 110.964 38.1019 110.891 37.9251C110.818 37.7482 110.78 37.5587 110.78 37.3673C110.78 37.1762 110.818 36.987 110.891 36.8106C110.965 36.6342 111.072 36.4739 111.208 36.3391C111.343 36.2043 111.504 36.0976 111.68 36.0251C111.857 35.9526 112.047 35.9157 112.238 35.9166H126.406C126.79 35.9166 127.159 36.0695 127.431 36.3415C127.703 36.6136 127.856 36.9826 127.856 37.3673C127.857 37.5584 127.82 37.7478 127.748 37.9245C127.675 38.1013 127.569 38.2621 127.434 38.3975C127.299 38.5329 127.139 38.6404 126.962 38.7137C126.786 38.787 126.597 38.8248 126.406 38.8248Z" fill="white"/>
<path d="M168.252 213.394H68.8193V38.9875H92.3894L95.04 41.1907C95.966 41.9586 97.1315 42.3783 98.3345 42.377H139.916C141.163 42.3726 142.367 41.9176 143.305 41.0958L145.698 38.9875H168.231L168.252 213.394Z" fill="#FFD95C" stroke="black" stroke-width="2" stroke-linecap="round" stroke-linejoin="round"/>
<path d="M118.535 133.302C134.24 133.302 146.972 120.57 146.972 104.864C146.972 89.1589 134.24 76.4271 118.535 76.4271C102.829 76.4271 90.0977 89.1589 90.0977 104.864C90.0977 120.57 102.829 133.302 118.535 133.302Z" fill="white"/>
<mask id="mask2_843_1447" style="mask-type:luminance" maskUnits="userSpaceOnUse" x="90" y="76" width="57" height="58">
<path d="M118.536 133.302C134.241 133.302 146.973 120.57 146.973 104.864C146.973 89.1589 134.241 76.4271 118.536 76.4271C102.83 76.4271 90.0986 89.1589 90.0986 104.864C90.0986 120.57 102.83 133.302 118.536 133.302Z" fill="white"/>
</mask>
<g mask="url(#mask2_843_1447)">
<path d="M115.288 76.4611C115.288 76.4611 112.352 75.2883 105.167 78.8066C97.9813 82.3248 94.1716 87.314 97.2492 91.6864C100.327 96.0588 105.316 96.0859 108.095 99.9024C110.875 103.719 106.882 107.888 103.804 114.341C100.727 120.795 106.123 124.571 110.671 126.035C115.22 127.499 115.572 122.483 120.704 113.975C125.836 105.468 118.209 90.9272 115.864 85.5041C113.518 80.081 115.288 76.4611 115.288 76.4611Z" fill="black" stroke="black" stroke-width="2" stroke-linecap="round" stroke-linejoin="round"/>
<path d="M110.956 86.8121C110.956 86.8121 105.98 87.2867 104.794 89.1847C103.608 91.0828 106.692 91.3133 106.692 91.3133" stroke="white" stroke-width="2" stroke-linecap="round" stroke-linejoin="round"/>
<path d="M110.956 82.7856C110.956 82.7856 99.588 87.0495 99.3507 90.1339C99.1134 93.2183 105.031 93.4488 105.031 93.4488" stroke="white" stroke-width="2" stroke-linecap="round" stroke-linejoin="round"/>
<path d="M114.989 114.3C114.989 114.3 108.962 122.055 105.586 124.543C102.211 127.031 101.289 130.414 103.044 132.176C104.8 133.939 103.993 134.095 114.697 134.976C125.401 135.857 131.122 133.803 134.641 130.434C138.159 127.065 139.915 124.272 139.915 121.486C139.915 118.7 127.597 112.104 123.347 112.104C119.097 112.104 114.989 114.3 114.989 114.3Z" fill="white" stroke="black" stroke-width="2" stroke-linecap="round" stroke-linejoin="round"/>
<path d="M115.871 120.754L110.299 127.648C110.299 127.648 112.644 129.404 113.085 128.672C113.526 127.94 115.58 124.13 115.58 124.13" stroke="black" stroke-width="2" stroke-linecap="round" stroke-linejoin="round"/>
<path d="M119.247 110.64C119.247 110.64 115.288 112.104 114.549 113.128C113.81 114.151 107.092 118.998 108.984 119.141C110.875 119.283 114.698 116.063 114.698 116.063C114.698 116.063 114.99 120.754 115.871 120.754C116.752 120.754 122.907 118.259 122.907 118.259C122.907 118.259 125.253 124.421 126.724 122.808C128.195 121.195 129.51 112.253 128.48 110.05C127.449 107.847 119.247 110.64 119.247 110.64Z" fill="#FFD95C" stroke="black" stroke-width="2" stroke-linecap="round" stroke-linejoin="round"/>
<path d="M117.335 106.966V115.033C117.335 117.521 116.311 118.842 117.925 118.422C119.538 118.002 123.205 114.755 125.381 111.386C127.557 108.017 126.554 102.878 125.673 99.2176C124.792 95.557 122.595 98.1872 121.273 99.8006C119.951 101.414 117.335 106.966 117.335 106.966Z" fill="white" stroke="black" stroke-width="2" stroke-linecap="round" stroke-linejoin="round"/>
<path d="M111.736 86.2971L105.872 93.3336C105.872 93.3336 106.902 100.79 108.658 103.597C110.414 106.403 114.671 109.901 116.576 109.318C118.481 108.735 124.033 100.506 124.351 99.4956C125.068 97.321 124.91 94.953 123.911 92.893C122.467 89.673 111.736 86.2971 111.736 86.2971Z" fill="white" stroke="black" stroke-width="2" stroke-linecap="round" stroke-linejoin="round"/>
<path d="M111.179 94.947C111.179 94.947 112.061 97.4416 111.62 98.4653C111.179 99.4889 109.715 100.079 110.264 100.811C110.466 101.031 110.718 101.199 110.999 101.302C111.28 101.404 111.581 101.438 111.877 101.4" stroke="black" stroke-width="2" stroke-linecap="round" stroke-linejoin="round"/>
<path d="M111.62 103.746C111.62 103.746 114.847 104.336 115.43 102.424" stroke="black" stroke-width="2" stroke-linecap="round" stroke-linejoin="round"/>
<path d="M116.101 96.4585C116.101 96.967 115.85 97.3737 115.552 97.3737C115.254 97.3737 115.003 96.967 115.003 96.4585C115.003 95.9501 115.247 95.5502 115.552 95.5502C115.857 95.5502 116.101 95.9569 116.101 96.4585Z" fill="black"/>
<path d="M111.058 97.1705C111.058 97.6789 110.814 98.0856 110.509 98.0856C110.204 98.0856 109.96 97.6789 109.96 97.1705C109.96 96.662 110.204 96.2621 110.509 96.2621C110.814 96.2621 111.058 96.6688 111.058 97.1705Z" fill="black"/>
<path d="M107.668 95.4417C107.668 95.4417 108.075 93.5504 109.356 93.5504C110.637 93.5504 110.847 93.9571 110.847 93.9571" stroke="black" stroke-width="2" stroke-linecap="round" stroke-linejoin="round"/>
<path d="M113.017 93.4557C113.116 92.9405 113.41 92.4835 113.839 92.1803C114.267 91.8771 114.796 91.7511 115.315 91.8288C117.206 92.1 117.274 93.1846 117.274 93.1846" stroke="black" stroke-width="2" stroke-linecap="round" stroke-linejoin="round"/>
<path d="M110.156 83.0703C110.156 83.0703 110.888 90.6965 117.775 94.6554C124.663 98.6142 127.896 103.597 125.693 109.759C123.49 115.921 121.002 121.344 126.866 125.153C132.73 128.963 139.475 127.499 144.172 121.195C148.87 114.89 149.406 105.603 144.416 97.5161C139.427 89.4289 137.807 85.8903 134.587 81.057C131.367 76.2236 121.707 75.4508 116.603 75.8847C115.188 75.9517 113.821 76.4133 112.655 77.2171C111.49 78.021 110.572 79.1351 110.007 80.4333" fill="black"/>
<path d="M110.156 83.0703C110.156 83.0703 110.888 90.6965 117.775 94.6554C124.663 98.6142 127.896 103.597 125.693 109.759C123.49 115.921 121.002 121.344 126.866 125.153C132.73 128.963 139.475 127.499 144.172 121.195C148.87 114.89 149.406 105.603 144.416 97.5161C139.427 89.4289 137.807 85.8903 134.587 81.057C131.367 76.2236 121.707 75.4508 116.603 75.8847C115.188 75.9517 113.821 76.4133 112.655 77.2171C111.49 78.021 110.572 79.1351 110.007 80.4333" stroke="black" stroke-width="2" stroke-linecap="round" stroke-linejoin="round"/>
<path d="M112.853 84.4465C112.853 84.4465 110.718 90.6085 120.907 94.3979C131.095 98.1873 142.701 98.4246 143.412 107.19" stroke="white" stroke-width="2" stroke-linecap="round" stroke-linejoin="round"/>
<path d="M128.812 122.361C129.064 122.909 129.44 123.392 129.91 123.771" stroke="white" stroke-width="2" stroke-linecap="round" stroke-linejoin="round"/>
<path d="M120.196 94.1606C120.196 94.1606 129.436 99.5837 130.365 106.478C130.988 110.986 128.853 115.595 128.453 119.175" stroke="white" stroke-width="2" stroke-linecap="round" stroke-linejoin="round"/>
<path d="M113.768 79.5251C110.501 82.3723 110.962 86.8124 110.962 86.8124" stroke="white" stroke-width="2" stroke-linecap="round" stroke-linejoin="round"/>
<path d="M116.881 77.8168C116.373 77.9799 115.879 78.1839 115.403 78.4269" stroke="white" stroke-width="2" stroke-linecap="round" stroke-linejoin="round"/>
</g>
<path d="M118.535 133.302C134.24 133.302 146.972 120.57 146.972 104.864C146.972 89.1589 134.24 76.4271 118.535 76.4271C102.829 76.4271 90.0977 89.1589 90.0977 104.864C90.0977 120.57 102.829 133.302 118.535 133.302Z" stroke="black" stroke-width="2" stroke-miterlimit="10"/>
<path d="M141.089 143.802H95.9753C93.5193 143.802 91.5283 145.793 91.5283 148.249V151.733C91.5283 154.189 93.5193 156.18 95.9753 156.18H141.089C143.545 156.18 145.536 154.189 145.536 151.733V148.249C145.536 145.793 143.545 143.802 141.089 143.802Z" fill="white" stroke="black" stroke-width="2" stroke-linecap="round" stroke-linejoin="round"/>
<path d="M141.089 164.342H95.9753C93.5193 164.342 91.5283 166.333 91.5283 168.789V172.273C91.5283 174.729 93.5193 176.72 95.9753 176.72H141.089C143.545 176.72 145.536 174.729 145.536 172.273V168.789C145.536 166.333 143.545 164.342 141.089 164.342Z" fill="white" stroke="black" stroke-width="2" stroke-linecap="round" stroke-linejoin="round"/>
<path d="M141.554 185H96.4463C93.9907 185 92 187.252 92 190.03V193.97C92 196.748 93.9907 199 96.4463 199H141.554C144.009 199 146 196.748 146 193.97V190.03C146 187.252 144.009 185 141.554 185Z" fill="black"/>
<path d="M101.402 195.1C101.109 195.1 100.815 195.077 100.522 195.03C100.229 194.99 99.9521 194.927 99.6921 194.84C99.4321 194.747 99.1988 194.633 98.9921 194.5C98.8721 194.42 98.7888 194.323 98.7421 194.21C98.6955 194.097 98.6788 193.987 98.6921 193.88C98.7121 193.767 98.7555 193.67 98.8221 193.59C98.8955 193.503 98.9855 193.45 99.0921 193.43C99.1988 193.41 99.3155 193.44 99.4421 193.52C99.7355 193.693 100.045 193.82 100.372 193.9C100.699 193.98 101.042 194.02 101.402 194.02C101.929 194.02 102.312 193.933 102.552 193.76C102.792 193.58 102.912 193.35 102.912 193.07C102.912 192.837 102.825 192.653 102.652 192.52C102.485 192.387 102.195 192.277 101.782 192.19L100.682 191.96C100.049 191.827 99.5755 191.603 99.2621 191.29C98.9555 190.97 98.8021 190.55 98.8021 190.03C98.8021 189.703 98.8688 189.407 99.0021 189.14C99.1355 188.873 99.3221 188.643 99.5621 188.45C99.8088 188.257 100.099 188.11 100.432 188.01C100.772 187.903 101.145 187.85 101.552 187.85C101.952 187.85 102.332 187.9 102.692 188C103.052 188.1 103.375 188.247 103.662 188.44C103.769 188.513 103.839 188.603 103.872 188.71C103.912 188.817 103.922 188.923 103.902 189.03C103.882 189.13 103.835 189.217 103.762 189.29C103.689 189.363 103.595 189.407 103.482 189.42C103.375 189.433 103.252 189.4 103.112 189.32C102.865 189.18 102.615 189.08 102.362 189.02C102.109 188.96 101.835 188.93 101.542 188.93C101.235 188.93 100.972 188.973 100.752 189.06C100.532 189.147 100.362 189.27 100.242 189.43C100.129 189.583 100.072 189.767 100.072 189.98C100.072 190.22 100.152 190.413 100.312 190.56C100.472 190.7 100.745 190.81 101.132 190.89L102.222 191.12C102.882 191.26 103.372 191.48 103.692 191.78C104.019 192.08 104.182 192.48 104.182 192.98C104.182 193.3 104.115 193.59 103.982 193.85C103.855 194.11 103.669 194.333 103.422 194.52C103.182 194.707 102.892 194.85 102.552 194.95C102.212 195.05 101.829 195.1 101.402 195.1ZM105.921 195.08C105.714 195.08 105.554 195.023 105.441 194.91C105.334 194.79 105.281 194.627 105.281 194.42V188.53C105.281 188.317 105.334 188.153 105.441 188.04C105.554 187.927 105.714 187.87 105.921 187.87C106.127 187.87 106.284 187.927 106.391 188.04C106.504 188.153 106.561 188.317 106.561 188.53V194.42C106.561 194.627 106.507 194.79 106.401 194.91C106.294 195.023 106.134 195.08 105.921 195.08ZM111.493 195.1C110.713 195.1 110.053 194.953 109.513 194.66C108.98 194.367 108.573 193.95 108.293 193.41C108.013 192.87 107.873 192.23 107.873 191.49C107.873 190.93 107.953 190.427 108.113 189.98C108.28 189.533 108.516 189.153 108.823 188.84C109.136 188.52 109.516 188.277 109.963 188.11C110.41 187.937 110.916 187.85 111.483 187.85C111.856 187.85 112.23 187.897 112.603 187.99C112.983 188.077 113.34 188.227 113.673 188.44C113.786 188.513 113.86 188.603 113.893 188.71C113.933 188.817 113.94 188.927 113.913 189.04C113.886 189.147 113.836 189.24 113.763 189.32C113.69 189.4 113.596 189.45 113.483 189.47C113.376 189.49 113.256 189.463 113.123 189.39C112.87 189.243 112.613 189.137 112.353 189.07C112.093 189.003 111.803 188.97 111.483 188.97C110.99 188.97 110.573 189.07 110.233 189.27C109.893 189.463 109.636 189.747 109.463 190.12C109.296 190.493 109.213 190.95 109.213 191.49C109.213 192.31 109.41 192.933 109.803 193.36C110.196 193.787 110.78 194 111.553 194C111.82 194 112.09 193.973 112.363 193.92C112.636 193.867 112.903 193.793 113.163 193.7L112.913 194.27V192.14H111.813C111.646 192.14 111.516 192.097 111.423 192.01C111.336 191.923 111.293 191.807 111.293 191.66C111.293 191.507 111.336 191.39 111.423 191.31C111.516 191.23 111.646 191.19 111.813 191.19H113.463C113.63 191.19 113.756 191.237 113.843 191.33C113.936 191.417 113.983 191.543 113.983 191.71V194.14C113.983 194.287 113.953 194.41 113.893 194.51C113.84 194.61 113.75 194.683 113.623 194.73C113.33 194.837 112.993 194.927 112.613 195C112.233 195.067 111.86 195.1 111.493 195.1ZM116.066 195.08C115.873 195.08 115.723 195.027 115.616 194.92C115.516 194.813 115.466 194.66 115.466 194.46V188.51C115.466 188.303 115.516 188.147 115.616 188.04C115.723 187.927 115.86 187.87 116.026 187.87C116.18 187.87 116.293 187.9 116.366 187.96C116.446 188.013 116.54 188.107 116.646 188.24L120.476 193.21H120.216V188.48C120.216 188.287 120.266 188.137 120.366 188.03C120.473 187.923 120.623 187.87 120.816 187.87C121.01 187.87 121.156 187.923 121.256 188.03C121.356 188.137 121.406 188.287 121.406 188.48V194.48C121.406 194.667 121.36 194.813 121.266 194.92C121.173 195.027 121.046 195.08 120.886 195.08C120.733 195.08 120.61 195.05 120.516 194.99C120.43 194.93 120.333 194.833 120.226 194.7L116.406 189.73H116.656V194.46C116.656 194.66 116.606 194.813 116.506 194.92C116.406 195.027 116.26 195.08 116.066 195.08ZM128.592 195.1C128.105 195.1 127.675 195.037 127.302 194.91C126.935 194.783 126.625 194.597 126.372 194.35C126.118 194.097 125.928 193.783 125.802 193.41C125.675 193.037 125.612 192.603 125.612 192.11V188.52C125.612 188.3 125.665 188.137 125.772 188.03C125.885 187.923 126.045 187.87 126.252 187.87C126.458 187.87 126.615 187.923 126.722 188.03C126.835 188.137 126.892 188.3 126.892 188.52V192.1C126.892 192.733 127.035 193.21 127.322 193.53C127.615 193.843 128.038 194 128.592 194C129.145 194 129.565 193.843 129.852 193.53C130.138 193.21 130.282 192.733 130.282 192.1V188.52C130.282 188.3 130.335 188.137 130.442 188.03C130.555 187.923 130.715 187.87 130.922 187.87C131.122 187.87 131.275 187.923 131.382 188.03C131.495 188.137 131.552 188.3 131.552 188.52V192.11C131.552 192.763 131.438 193.313 131.212 193.76C130.992 194.207 130.662 194.543 130.222 194.77C129.782 194.99 129.238 195.1 128.592 195.1ZM133.684 195.08C133.478 195.08 133.318 195.023 133.204 194.91C133.098 194.79 133.044 194.627 133.044 194.42V188.6C133.044 188.387 133.101 188.227 133.214 188.12C133.328 188.007 133.488 187.95 133.694 187.95H136.104C136.878 187.95 137.474 188.143 137.894 188.53C138.314 188.917 138.524 189.457 138.524 190.15C138.524 190.843 138.314 191.387 137.894 191.78C137.474 192.167 136.878 192.36 136.104 192.36H134.324V194.42C134.324 194.627 134.271 194.79 134.164 194.91C134.058 195.023 133.898 195.08 133.684 195.08ZM134.324 191.35H135.904C136.358 191.35 136.701 191.25 136.934 191.05C137.168 190.843 137.284 190.543 137.284 190.15C137.284 189.757 137.168 189.46 136.934 189.26C136.701 189.06 136.358 188.96 135.904 188.96H134.324V191.35Z" fill="white"/>
<path d="M132.243 69.2889C129.843 69.2889 127.541 68.3354 125.844 66.6383C124.147 64.9411 123.193 62.6393 123.193 60.2391C123.193 57.839 124.147 55.5371 125.844 53.84C127.541 52.1428 129.843 51.1893 132.243 51.1893C134.642 51.1911 136.942 52.1454 138.638 53.8423C140.334 55.5393 141.286 57.8401 141.286 60.2391C141.286 62.6381 140.334 64.9389 138.638 66.6359C136.942 68.3328 134.642 69.2871 132.243 69.2889Z" fill="black"/>
<path d="M130.806 65.7098H133.009V60.1918H134.548L134.71 58.3479H133.009V57.2972C133.009 56.8566 133.097 56.6871 133.517 56.6871H134.71V54.7687H133.185C131.545 54.7687 130.806 55.494 130.806 56.8769V58.3479H129.66V60.1918H130.806V65.7098Z" fill="white"/>
<path d="M104.503 69.2889C102.105 69.2853 99.8068 68.3303 98.1126 66.6335C96.4184 64.9367 95.4668 62.6369 95.4668 60.2391C95.4668 57.839 96.4203 55.5371 98.1174 53.84C99.8146 52.1428 102.116 51.1893 104.517 51.1893C105.705 51.1893 106.882 51.4234 107.98 51.8782C109.078 52.333 110.075 52.9996 110.916 53.84C111.756 54.6803 112.423 55.6779 112.877 56.7759C113.332 57.8739 113.566 59.0507 113.566 60.2391C113.566 61.4287 113.332 62.6066 112.876 63.7054C112.421 64.8043 111.753 65.8025 110.911 66.6431C110.069 67.4836 109.07 68.1499 107.97 68.6039C106.871 69.0579 105.693 69.2907 104.503 69.2889Z" fill="black"/>
<path d="M99.6836 63.2694C100.552 63.8306 101.558 64.1414 102.592 64.1676C103.625 64.1938 104.646 63.9344 105.542 63.4179C106.437 62.9014 107.173 62.1479 107.668 61.2402C108.163 60.3326 108.398 59.306 108.347 58.2734C108.735 57.993 109.07 57.6465 109.337 57.2498C108.975 57.4097 108.591 57.5148 108.198 57.5616C108.615 57.3156 108.926 56.9246 109.072 56.4634C108.685 56.6948 108.261 56.8577 107.818 56.9447C107.63 56.7493 107.405 56.5934 107.156 56.4863C106.907 56.3792 106.639 56.323 106.368 56.321C106.07 56.3215 105.776 56.3891 105.508 56.5188C105.24 56.6485 105.005 56.837 104.82 57.0703C104.635 57.3035 104.505 57.5755 104.439 57.866C104.374 58.1564 104.375 58.4579 104.442 58.7479C103.66 58.711 102.894 58.511 102.194 58.1608C101.493 57.8106 100.874 57.3179 100.375 56.7142C100.123 57.1491 100.046 57.6636 100.159 58.1533C100.272 58.643 100.568 59.0713 100.985 59.3512C100.672 59.3419 100.365 59.2582 100.09 59.1072C100.086 59.5672 100.242 60.0143 100.531 60.3719C100.821 60.7294 101.226 60.9749 101.677 61.0662C101.385 61.149 101.078 61.1606 100.782 61.1001C100.911 61.4903 101.159 61.8305 101.491 62.0735C101.822 62.3164 102.221 62.4501 102.632 62.4559C102.218 62.7787 101.745 63.0167 101.239 63.1562C100.733 63.2958 100.204 63.3343 99.6836 63.2694Z" fill="white"/>
<path d="M121.715 218.729C121.715 218.281 121.582 217.844 121.333 217.471C121.084 217.099 120.731 216.809 120.317 216.637C119.903 216.466 119.448 216.421 119.009 216.508C118.57 216.596 118.166 216.811 117.85 217.128C117.533 217.445 117.317 217.848 117.23 218.287C117.143 218.727 117.188 219.182 117.359 219.596C117.53 220.009 117.82 220.363 118.193 220.612C118.565 220.86 119.003 220.993 119.451 220.993C120.051 220.993 120.627 220.755 121.052 220.33C121.476 219.905 121.715 219.33 121.715 218.729Z" fill="white"/>
</svg>
