<svg width="316" height="244" viewBox="0 0 316 244" fill="none" xmlns="http://www.w3.org/2000/svg">
<path d="M86.4908 1.00006H34.736C33.0606 1.00006 31.4538 1.66561 30.2692 2.85029C29.0845 4.03497 28.4189 5.64173 28.4189 7.31712V36.4658C28.4189 38.1412 29.0845 39.748 30.2692 40.9327C31.4538 42.1173 33.0606 42.7829 34.736 42.7829H70.7071L77.1235 53.7836L81.6356 42.7829H86.5178C88.1932 42.7829 89.8 42.1173 90.9847 40.9327C92.1693 39.748 92.8349 38.1412 92.8349 36.4658V7.28102C92.8253 5.6072 92.1519 4.00558 90.9624 2.82793C89.7729 1.65027 88.1646 0.992858 86.4908 1.00006Z" fill="black" stroke="black" stroke-width="2" stroke-linecap="round" stroke-linejoin="round"/>
<path d="M51.6294 23.0191C51.6294 22.3319 51.4257 21.6602 51.0439 21.0888C50.6621 20.5174 50.1195 20.0721 49.4846 19.8091C48.8498 19.5462 48.1512 19.4774 47.4772 19.6114C46.8033 19.7455 46.1842 20.0764 45.6983 20.5623C45.2124 21.0482 44.8815 21.6673 44.7474 22.3412C44.6134 23.0152 44.6822 23.7138 44.9451 24.3487C45.2081 24.9835 45.6534 25.5261 46.2248 25.9079C46.7961 26.2897 47.4679 26.4934 48.155 26.4934C49.0765 26.4934 49.9602 26.1274 50.6118 25.4758C51.2634 24.8242 51.6294 23.9405 51.6294 23.0191Z" fill="#FFD95C"/>
<path d="M65.5357 23.0191C65.5357 22.3319 65.3319 21.6602 64.9501 21.0888C64.5684 20.5174 64.0258 20.0721 63.3909 19.8091C62.756 19.5462 62.0574 19.4774 61.3835 19.6114C60.7095 19.7455 60.0904 20.0764 59.6045 20.5623C59.1186 21.0482 58.7877 21.6673 58.6537 22.3412C58.5196 23.0152 58.5884 23.7138 58.8514 24.3487C59.1144 24.9835 59.5597 25.5261 60.131 25.9079C60.7024 26.2897 61.3741 26.4934 62.0613 26.4934C62.9828 26.4934 63.8665 26.1274 64.5181 25.4758C65.1696 24.8242 65.5357 23.9405 65.5357 23.0191Z" fill="#FFD95C"/>
<path d="M79.4693 23.0191C79.4693 22.3319 79.2655 21.6602 78.8837 21.0888C78.502 20.5174 77.9593 20.0721 77.3245 19.8091C76.6896 19.5462 75.991 19.4774 75.3171 19.6114C74.6431 19.7455 74.024 20.0764 73.5381 20.5623C73.0522 21.0482 72.7213 21.6673 72.5873 22.3412C72.4532 23.0152 72.522 23.7138 72.785 24.3487C73.0479 24.9835 73.4933 25.5261 74.0646 25.9079C74.636 26.2897 75.3077 26.4934 75.9949 26.4934C76.9164 26.4934 77.8001 26.1274 78.4516 25.4758C79.1032 24.8242 79.4693 23.9405 79.4693 23.0191Z" fill="#FFD95C"/>
<path d="M307.799 83.2651L163.387 73.7745C159.627 73.5275 156.379 76.3751 156.132 80.1349L147.104 217.496C146.857 221.256 149.705 224.504 153.465 224.751L297.877 234.242C301.637 234.489 304.885 231.641 305.132 227.882L314.159 90.5203C314.407 86.7605 311.559 83.5122 307.799 83.2651Z" fill="black" stroke="black" stroke-width="2" stroke-linecap="round" stroke-linejoin="round"/>
<path d="M303.965 76.8914L159.553 67.4008C155.793 67.1537 152.545 70.0013 152.298 73.7611L143.271 211.123C143.023 214.882 145.871 218.131 149.631 218.378L294.043 227.868C297.803 228.115 301.051 225.268 301.298 221.508L310.325 84.1465C310.573 80.3867 307.725 77.1385 303.965 76.8914Z" fill="white" stroke="black" stroke-width="2" stroke-linecap="round" stroke-linejoin="round"/>
<path d="M309.938 89.8096L310.308 84.1694C310.417 82.3695 309.809 80.5997 308.617 79.2469C307.425 77.8941 305.745 77.0682 303.946 76.9499L159.556 67.4472C157.757 67.3408 155.989 67.9498 154.636 69.1415C153.284 70.3332 152.457 72.011 152.337 73.8094L151.967 79.4406L309.938 89.8096Z" fill="white" stroke="black" stroke-width="2" stroke-linecap="round" stroke-linejoin="round"/>
<path d="M284.155 82.6983C284.183 82.2883 284.088 81.8793 283.884 81.5231C283.679 81.1669 283.373 80.8796 283.004 80.6975C282.636 80.5153 282.222 80.4466 281.815 80.5C281.407 80.5535 281.025 80.7266 280.716 80.9976C280.407 81.2685 280.185 81.6251 280.079 82.022C279.973 82.419 279.987 82.8385 280.12 83.2275C280.252 83.6164 280.497 83.9573 280.824 84.2069C281.15 84.4565 281.543 84.6036 281.953 84.6295C282.225 84.6479 282.497 84.6124 282.755 84.5252C283.013 84.438 283.251 84.3007 283.455 84.1213C283.66 83.9419 283.827 83.7238 283.947 83.4796C284.067 83.2354 284.138 82.9699 284.155 82.6983Z" fill="white" stroke="black" stroke-width="2" stroke-linecap="round" stroke-linejoin="round"/>
<path d="M292.044 83.2131C292.069 82.8038 291.973 82.396 291.768 82.0412C291.562 81.6864 291.256 81.4005 290.888 81.2196C290.519 81.0387 290.106 80.9709 289.699 81.0248C289.293 81.0787 288.911 81.2518 288.603 81.5224C288.295 81.7929 288.074 82.1487 287.967 82.5448C287.861 82.941 287.875 83.3597 288.006 83.7482C288.138 84.1366 288.381 84.4774 288.706 84.7275C289.032 84.9776 289.423 85.1258 289.833 85.1533C290.383 85.188 290.924 85.0033 291.339 84.6397C291.753 84.2761 292.006 83.7631 292.044 83.2131Z" fill="white" stroke="black" stroke-width="2" stroke-linecap="round" stroke-linejoin="round"/>
<path d="M299.922 83.7361C299.951 83.3241 299.858 82.9126 299.653 82.5538C299.448 82.195 299.142 81.9052 298.772 81.721C298.402 81.5368 297.986 81.4665 297.577 81.5192C297.167 81.5719 296.782 81.7451 296.471 82.0168C296.16 82.2885 295.937 82.6465 295.829 83.0454C295.722 83.4443 295.736 83.866 295.869 84.2572C296.001 84.6483 296.247 84.9911 296.575 85.2422C296.903 85.4932 297.299 85.6412 297.711 85.6673C298.259 85.702 298.8 85.5186 299.214 85.1569C299.628 84.7952 299.882 84.2845 299.922 83.7361Z" fill="white" stroke="black" stroke-width="2" stroke-linecap="round" stroke-linejoin="round"/>
<path d="M224.704 42.3777L223.053 42.838C217.593 44.4443 200.356 50.2109 198.191 59.7316C195.61 71.0752 206.755 80.6952 206.755 80.6952C206.755 80.6952 211.438 96.9391 209.164 103.617C206.89 110.295 196.602 111.685 197.947 123.02C199.292 134.354 210.401 144.507 240.695 145.192C270.99 145.878 279.663 145.129 283.038 124.157C285.745 107.245 271.477 94.8996 268.355 82.6445C265.233 70.3894 270.44 62.8992 258.988 50.1116C247.536 37.3241 224.704 42.3777 224.704 42.3777Z" fill="black" stroke="black" stroke-width="2" stroke-linecap="round" stroke-linejoin="round"/>
<path d="M222.619 58.5854C222.619 58.5854 208.099 65.0469 207.693 67.4925C207.287 69.9381 201.213 87.0844 202.567 96.569C203.921 106.054 217.909 107.218 217.909 107.218C217.909 107.218 217.484 113.616 210.274 118.047C203.063 122.478 188.606 128.768 188.606 128.768C188.606 128.768 201.52 139.886 229 139.227C256.479 138.568 255.315 132.91 255.315 132.91C250.115 129.437 245.323 125.39 241.029 120.845C234.802 114.013 232.727 104.231 233.81 99.6103C234.892 94.9898 234.559 91.9937 230.561 81.3539C226.563 70.7142 222.619 58.5854 222.619 58.5854Z" fill="white" stroke="black" stroke-width="2" stroke-linecap="round" stroke-linejoin="round"/>
<path d="M216.212 73.2053C216.217 75.6712 215.361 78.0616 213.793 79.9646C211.086 83.4931 207.332 84.2421 208.74 85.325C210.147 86.408 214.326 86.9224 214.326 86.9224" stroke="black" stroke-width="2" stroke-linecap="round" stroke-linejoin="round"/>
<path d="M210.661 89.927C210.661 89.927 215.625 93.4736 221.887 88.447" stroke="black" stroke-width="2" stroke-linecap="round" stroke-linejoin="round"/>
<path d="M208.379 72.3473C208.379 72.3473 211.213 68.1509 215.21 71.1561" stroke="black" stroke-width="2" stroke-linecap="round" stroke-linejoin="round"/>
<path d="M220.471 71.6799C220.471 71.6799 224.902 70.8767 227.401 74.5135" stroke="black" stroke-width="2" stroke-linecap="round" stroke-linejoin="round"/>
<path d="M212.168 75.6961C212.096 76.8061 211.555 77.6634 210.95 77.6273C210.345 77.5912 209.921 76.6617 209.993 75.5607C210.066 74.4597 210.607 73.5934 211.212 73.6295C211.816 73.6656 212.24 74.5951 212.168 75.6961Z" fill="black"/>
<path d="M224.425 77.7559C224.497 76.6519 224.068 75.7248 223.467 75.6852C222.865 75.6457 222.318 76.5086 222.246 77.6127C222.173 78.7168 222.602 79.6439 223.204 79.6834C223.806 79.723 224.352 78.86 224.425 77.7559Z" fill="black"/>
<path d="M217.935 107.218L226.725 106.956C226.725 106.956 226.445 108.4 222.465 110.692C220.204 112.005 217.873 113.192 215.48 114.248C215.48 114.248 217.709 110.412 217.935 107.218Z" fill="black" stroke="black" stroke-width="2" stroke-miterlimit="10"/>
<path d="M163.311 219.102L182.144 142.295L202.503 149.659L187.37 220.816L163.311 219.102Z" fill="white" stroke="black" stroke-width="2" stroke-linecap="round" stroke-linejoin="round"/>
<path d="M182.144 142.295L171.396 185.107C175.005 187.354 181.999 190.522 193.523 190.783H194.02L202.475 149.686L182.144 142.295Z" fill="#FFD95C" stroke="black" stroke-width="2" stroke-linecap="round" stroke-linejoin="round"/>
<path d="M182.649 220.374L189.616 185.224C187.15 181.063 185.166 176.633 183.705 172.022C181.648 165.109 187.649 146.419 187.649 146.419C198.471 149.425 209.473 151.743 220.588 153.359C239.241 156.066 257.389 151.256 257.389 151.256L245.405 192.155L249.285 224.959L182.649 220.374Z" fill="#FFD95C" stroke="black" stroke-width="2" stroke-linecap="round" stroke-linejoin="round"/>
<path d="M262.642 225.753L254.276 194.755L276.007 188.898L282.577 227.026L262.642 225.753Z" fill="white" stroke="black" stroke-width="2" stroke-linecap="round" stroke-linejoin="round"/>
<path d="M245.55 163.286L254.276 194.754C254.276 194.754 255.116 197.317 263.301 195.097C267.92 193.934 272.248 191.823 276.007 188.897L263.508 146.384C262.046 145.464 260.415 144.844 258.711 144.561C257.007 144.277 255.263 144.336 253.581 144.732C247.959 146.122 246.362 148.017 246.362 148.017" fill="#FFD95C"/>
<path d="M245.55 163.286L254.276 194.754C254.276 194.754 255.116 197.317 263.301 195.097C267.92 193.934 272.248 191.823 276.007 188.897L263.508 146.384C262.046 145.464 260.415 144.844 258.711 144.561C257.007 144.277 255.263 144.336 253.581 144.732C247.959 146.122 246.362 148.017 246.362 148.017" stroke="black" stroke-width="2" stroke-linecap="round" stroke-linejoin="round"/>
<path d="M186.251 125.736C186.251 125.736 199.787 133.163 221.446 136.087C243.104 139.011 258.211 130.726 259.483 130.555C260.756 130.383 270.908 148.107 270.908 148.107C270.908 148.107 245.396 158.034 222.899 156.771C199.02 155.471 174.727 144.561 174.727 144.561L186.251 125.736Z" fill="#FFD95C" stroke="black" stroke-width="2" stroke-linecap="round" stroke-linejoin="round"/>
<path d="M150.886 71.6477L7.74766 93.0142C4.02103 93.5705 1.45096 97.0425 2.00724 100.769L22.3306 236.918C22.8869 240.645 26.3589 243.215 30.0855 242.659L173.223 221.292C176.95 220.736 179.52 217.264 178.964 213.537L158.64 77.3881C158.084 73.6615 154.612 71.0914 150.886 71.6477Z" fill="black" stroke="black" stroke-width="2" stroke-linecap="round" stroke-linejoin="round"/>
<path d="M154.711 66.5366L11.5729 87.9032C7.84622 88.4594 5.27615 91.9314 5.83244 95.6581L26.1558 231.807C26.7121 235.534 30.184 238.104 33.9107 237.548L177.049 216.181C180.775 215.625 183.345 212.153 182.789 208.426L162.466 72.277C161.909 68.5504 158.437 65.9803 154.711 66.5366Z" fill="white" stroke="black" stroke-width="2" stroke-linecap="round" stroke-linejoin="round"/>
<path d="M163.306 77.8516L162.467 72.2655C162.2 70.4767 161.233 68.8673 159.779 67.791C158.326 66.7147 156.504 66.2597 154.715 66.526L11.5707 87.9048C9.78188 88.1722 8.17244 89.1389 7.09618 90.5926C6.01991 92.0462 5.56492 93.8677 5.83121 95.6567L6.67048 101.243L163.306 77.8516Z" fill="white" stroke="black" stroke-width="2" stroke-linecap="round" stroke-linejoin="round"/>
<path d="M136.603 76.3899C136.543 75.9837 136.364 75.6043 136.089 75.2998C135.814 74.9953 135.454 74.7792 135.056 74.679C134.658 74.5788 134.239 74.5989 133.852 74.7368C133.465 74.8746 133.128 75.1241 132.883 75.4536C132.639 75.7831 132.497 76.1778 132.476 76.5879C132.456 76.9979 132.557 77.4048 132.768 77.7572C132.979 78.1095 133.289 78.3915 133.66 78.5673C134.031 78.7432 134.446 78.8051 134.852 78.7452C135.396 78.6649 135.887 78.3717 136.215 77.93C136.543 77.4883 136.683 76.9343 136.603 76.3899Z" fill="white" stroke="black" stroke-width="2" stroke-linecap="round" stroke-linejoin="round"/>
<path d="M144.446 75.2162C144.388 74.8097 144.211 74.4294 143.937 74.1232C143.663 73.8169 143.305 73.5983 142.908 73.4948C142.51 73.3913 142.091 73.4075 141.703 73.5413C141.315 73.6752 140.975 73.9208 140.725 74.2472C140.476 74.5737 140.329 74.9665 140.302 75.3763C140.276 75.7861 140.37 76.1947 140.575 76.5508C140.78 76.9069 141.085 77.1946 141.453 77.3778C141.82 77.561 142.234 77.6316 142.641 77.5807C142.916 77.5475 143.182 77.4594 143.423 77.3218C143.664 77.1842 143.874 76.9998 144.043 76.7794C144.211 76.559 144.333 76.3071 144.402 76.0386C144.472 75.7702 144.487 75.4905 144.446 75.2162Z" fill="white" stroke="black" stroke-width="2" stroke-linecap="round" stroke-linejoin="round"/>
<path d="M152.225 74.0521C152.164 73.6463 151.983 73.2679 151.706 72.9648C151.429 72.6617 151.069 72.4474 150.671 72.349C150.272 72.2507 149.853 72.2727 149.467 72.4123C149.081 72.5518 148.746 72.8027 148.502 73.1331C148.259 73.4636 148.119 73.8588 148.1 74.2688C148.081 74.6788 148.184 75.0852 148.396 75.4366C148.608 75.788 148.92 76.0687 149.291 76.2431C149.663 76.4175 150.078 76.4778 150.484 76.4165C150.753 76.3757 151.012 76.2822 151.246 76.1413C151.479 76.0003 151.683 75.8148 151.844 75.5952C152.006 75.3756 152.123 75.1263 152.188 74.8615C152.254 74.5968 152.266 74.3217 152.225 74.0521Z" fill="white" stroke="black" stroke-width="2" stroke-linecap="round" stroke-linejoin="round"/>
<path d="M126.875 180.413L139.031 131.095C139.031 131.095 134.185 118.389 134.519 116.214C134.853 114.039 136.793 109.482 136.73 108.02C136.667 106.558 133.237 102.154 134.997 100.746C136.757 99.3384 138.453 100.882 139.771 103.147C141.088 105.412 140.583 107.442 140.52 109.256C140.457 111.07 140.52 112.694 140.52 112.694C140.52 112.694 147.739 102.768 150.447 100.06C153.154 97.353 155.916 92.8408 157.224 92.8408C158.533 92.8408 158.921 93.2379 158.524 94.9345C158.126 96.6311 153.659 101.883 153.659 101.883L150.763 107.569C152.483 109.664 154.022 111.901 155.365 114.256C157.377 117.865 158.442 119.526 156.899 122.378C155.356 125.229 148.416 133.802 148.416 133.802C148.416 133.802 149.535 177.535 148.931 180.079C148.326 182.624 145.51 193.363 140.051 198.435C138.192 200.168 132.218 199.771 129.51 199.193C127.377 198.651 125.296 197.92 123.292 197.009L120.242 185.341L126.875 180.413Z" fill="white" stroke="black" stroke-width="2" stroke-linecap="round" stroke-linejoin="round"/>
<path d="M150.762 107.569C150.762 107.569 142.803 113.507 143.66 114.86C144.327 115.765 145.22 116.478 146.25 116.927C146.25 116.927 145.438 119.346 146.647 120.609C147.332 121.184 148.183 121.526 149.075 121.584C149.075 121.584 146.702 123.244 149.779 124.101C152.856 124.959 157.946 122.874 159.065 121.566C160.184 120.257 158.785 117.514 158.785 117.514C158.8 116.372 158.63 115.235 158.28 114.147C157.91 113.168 157.386 112.254 156.728 111.44C156.728 111.44 156.439 108.372 154.923 107.28C153.407 106.188 150.762 107.569 150.762 107.569Z" fill="white" stroke="black" stroke-width="2" stroke-linecap="round" stroke-linejoin="round"/>
<path d="M146.223 116.927L156.7 111.431" stroke="black" stroke-width="2" stroke-linecap="round" stroke-linejoin="round"/>
<path d="M149.049 121.584L158.759 117.514" stroke="black" stroke-width="2" stroke-linecap="round" stroke-linejoin="round"/>
<path d="M102.933 135.345C102.933 135.345 107.446 136.961 110.794 143.016C114.142 149.071 129.808 179.321 129.808 179.321L118.167 185.81L102.473 138.883L97.8076 133.802C97.8076 133.802 101.842 134.524 102.933 135.345Z" fill="#FFD95C" stroke="black" stroke-width="2" stroke-linecap="round" stroke-linejoin="round"/>
<path d="M46.6128 140.417C46.6128 140.417 31.5872 156.788 31.4789 161.174C31.3706 165.559 52.9569 234.515 52.9569 234.515L135.62 222.169C135.62 222.169 109.513 143.612 104.739 137.412C99.9649 131.213 93.1244 130.193 84.1361 130.193C78.278 130.279 72.4346 130.807 66.6559 131.772C66.6559 131.772 52.6501 134.38 46.6128 140.417Z" fill="#FFD95C" stroke="black" stroke-width="2" stroke-linecap="round" stroke-linejoin="round"/>
<path d="M52.3973 127.485C52.3973 127.485 46.9826 129.29 45.8546 131.799C44.7265 134.308 44.889 144.271 44.889 144.271C44.889 144.271 55.7182 156.526 61.0426 159.612C66.367 162.699 70.5633 164.864 70.5633 164.864C70.5633 164.864 74.2633 148.386 74.904 147.52C75.5448 146.653 93.2957 151.969 93.2957 151.969C93.2957 151.969 92.1857 146.229 84.8669 136.79C77.5482 127.35 58.9399 123.163 52.3973 127.485Z" fill="#FFD95C" stroke="black" stroke-width="2" stroke-linecap="round" stroke-linejoin="round"/>
<path d="M77.972 79.9361C77.972 79.9361 81.9157 93.3103 84.8215 98.5354C87.7274 103.76 88.4313 112.316 84.6952 117.829C80.9591 123.343 73.532 124.778 73.532 124.778C74.0233 127.426 74.6498 130.046 75.4091 132.629C76.3928 135.662 78.0623 137.358 78.703 143.982C79.3437 150.606 78.7571 153.909 78.7571 153.909C78.7571 153.909 71.4564 148.81 64.9047 145.191C58.353 141.573 53.0738 134.588 53.0738 134.588C53.0738 134.588 45.1865 116.142 42.2445 111.63C40.564 109.134 39.0564 106.526 37.7324 103.824C37.4797 103.327 28.8704 98.9595 34.637 84.3039C40.4036 69.6484 59.6165 69.2423 66.6194 71.372C73.6223 73.5018 77.972 79.9361 77.972 79.9361Z" fill="white" stroke="black" stroke-width="2" stroke-linecap="round" stroke-linejoin="round"/>
<path d="M45.1772 68.5652C45.1772 68.5652 41.8201 65.0006 36.1528 67.0942C30.4855 69.1879 25.2062 80.5586 30.0253 91.5142C34.8443 102.47 40.6018 106.729 40.6018 106.729C40.6018 106.729 47.8213 109.003 50.5918 106.125C53.3623 103.246 44.2747 98.0478 46.7655 95.9091C49.2562 93.7703 58.6776 90.4132 55.1942 87.2276C51.7108 84.042 46.0796 85.2242 51.1964 80.5586C56.3132 75.893 61.7008 76.3442 65.0037 78.3206C68.3066 80.2969 74.3078 86.1267 83.242 79.6652C92.1761 73.2038 85.1641 66.4716 81.022 64.793C78.6222 63.7904 76.0133 63.3907 73.4234 63.6289C73.4234 63.6289 65.5181 53.3231 56.6923 53.4043C47.8664 53.4855 44.8433 65.2172 45.1772 68.5652Z" fill="black" stroke="black" stroke-width="2" stroke-linecap="round" stroke-linejoin="round"/>
<path d="M72.7197 86.1992C72.7197 86.1992 74.2539 94.1046 77.1146 96.6765C79.9753 99.2484 84.659 101.035 82.9624 102.705C81.2658 104.374 77.0244 105.538 77.0244 105.538" stroke="black" stroke-width="2" stroke-linecap="round" stroke-linejoin="round"/>
<path d="M78.5682 111.314C76.9455 112.291 75.0744 112.777 73.1813 112.713C71.2883 112.648 69.4543 112.037 67.9014 110.953" stroke="black" stroke-width="2" stroke-linecap="round" stroke-linejoin="round"/>
<path d="M69.8682 112.081C69.8682 112.081 71.1857 117.369 73.4779 117.207C75.7701 117.044 76.3206 112.541 76.3206 112.541C76.3206 112.541 71.8084 113.209 69.8682 112.081Z" fill="black" stroke="black" stroke-width="2" stroke-linecap="round" stroke-linejoin="round"/>
<path d="M61.6377 92.4524C61.6377 92.4524 62.0348 89.2036 66.1499 88.238" stroke="black" stroke-width="2" stroke-linecap="round" stroke-linejoin="round"/>
<path d="M74.7686 85.7115C74.7686 85.7115 77.3315 83.9066 79.4973 85.3596" stroke="black" stroke-width="2" stroke-linecap="round" stroke-linejoin="round"/>
<path d="M68.5692 95.3045C69.0204 96.5228 68.8399 97.723 68.1541 98.0118C67.4682 98.3006 66.5567 97.4703 66.1145 96.2069C65.6724 94.9435 65.8528 93.7884 66.5297 93.4996C67.2065 93.2108 68.127 94.0952 68.5692 95.3045Z" fill="black"/>
<path d="M79.6862 90.6842C80.1374 91.9115 79.9479 93.1027 79.2711 93.3915C78.5943 93.6803 77.6738 92.85 77.2226 91.5866C76.7714 90.3232 76.9609 89.1681 77.6467 88.8793C78.3326 88.5905 79.235 89.4569 79.6862 90.6842Z" fill="black"/>
<path d="M49.5803 109.987C49.5803 109.987 41.666 101.974 38.5435 105.972C35.4211 109.969 41.8103 117.153 45.6728 118.172C49.5352 119.192 50.6993 115.122 50.6993 115.122" fill="white"/>
<path d="M49.5803 109.987C49.5803 109.987 41.666 101.974 38.5435 105.972C35.4211 109.969 41.8103 117.153 45.6728 118.172C49.5352 119.192 50.6993 115.122 50.6993 115.122" stroke="black" stroke-width="2" stroke-linecap="round" stroke-linejoin="round"/>
<path d="M73.5318 124.778C71.4264 125.604 69.1315 125.823 66.9079 125.41C63.0996 124.742 60.8887 124.192 60.8887 124.192C63.3347 126.167 65.9637 127.905 68.7399 129.381C72.1601 130.996 75.4089 132.63 75.4089 132.63L73.5318 124.778Z" fill="black" stroke="black" stroke-width="2" stroke-linecap="round" stroke-linejoin="round"/>
<path d="M150.059 169.647L115.246 171.496C114.256 171.548 113.496 172.394 113.548 173.384L116.125 221.894C116.177 222.884 117.023 223.645 118.013 223.592L152.825 221.743C153.816 221.691 154.576 220.845 154.523 219.855L151.947 171.345C151.894 170.354 151.049 169.594 150.059 169.647Z" fill="black" stroke="black" stroke-width="2" stroke-linecap="round" stroke-linejoin="round"/>
<path d="M43.4453 218.893C43.4453 218.893 49.1307 237.79 50.5204 238.034C51.9102 238.278 112.301 216.755 112.301 216.755C114.18 216.377 116.014 215.799 117.77 215.031C120.017 213.948 130.061 205.51 130.061 205.51C130.061 205.51 134.321 204.725 135.169 203.389C136.017 202.054 136.802 201.188 135.9 201.179C134.998 201.17 117.373 204.238 117.806 204.193C118.239 204.148 131.289 198.561 133.012 198.002C134.736 197.442 135.99 195.755 135.665 194.6C135.34 193.445 131.857 195.313 130.251 195.854C128.644 196.396 116.47 200.303 116.47 200.303C116.47 200.303 123.203 194.934 125.323 193.986C127.444 193.039 131.586 190.485 132.038 189.474C132.139 189.249 132.176 189 132.146 188.755C132.117 188.51 132.02 188.278 131.868 188.083C131.715 187.889 131.513 187.74 131.282 187.653C131.051 187.566 130.8 187.543 130.558 187.588C129.547 187.895 115.406 195.123 114.314 196.044C113.222 196.964 105.786 210.51 105.786 210.51L66.3311 214.742L65.3114 212.937L43.4453 218.893Z" fill="white" stroke="black" stroke-width="2" stroke-linecap="round" stroke-linejoin="round"/>
<path d="M129.033 205.664L117.256 209.535" stroke="black" stroke-width="2" stroke-linecap="round" stroke-linejoin="round"/>
<path d="M41.4057 146.843C41.4057 146.843 29.1325 154.062 28.3564 162.662C27.5804 171.262 40.6657 221.384 40.6657 221.384L66.5927 212.63L54.491 170.802" fill="#FFD95C"/>
<path d="M41.4057 146.843C41.4057 146.843 29.1325 154.062 28.3564 162.662C27.5804 171.262 40.6657 221.384 40.6657 221.384L66.5927 212.63L54.491 170.802" stroke="black" stroke-width="2" stroke-linecap="round" stroke-linejoin="round"/>
</svg>
