<svg width="185" height="295" viewBox="0 0 185 295" fill="none" xmlns="http://www.w3.org/2000/svg">
<path d="M43.2503 45.3825C43.5788 45.3836 43.9043 45.3198 44.2081 45.1948C44.5119 45.0698 44.7881 44.8861 45.0208 44.6541C45.2535 44.4222 45.4381 44.1466 45.5641 43.8432C45.69 43.5398 45.7549 43.2145 45.7549 42.8859V26.6341C45.7559 26.3056 45.6921 25.9801 45.5671 25.6763C45.4422 25.3724 45.2584 25.0963 45.0265 24.8636C44.7946 24.6309 44.519 24.4463 44.2156 24.3203C43.9121 24.1944 43.5868 24.1295 43.2583 24.1295C42.594 24.1295 41.957 24.3934 41.4873 24.8631C41.0176 25.3328 40.7537 25.9699 40.7537 26.6341V42.8859C40.7537 43.5481 41.0167 44.1831 41.4849 44.6513C41.9531 45.1195 42.5881 45.3825 43.2503 45.3825Z" fill="black" stroke="black" stroke-linecap="round" stroke-linejoin="round"/>
<path d="M43.2583 70.7991C43.9205 70.7991 44.5555 70.5361 45.0237 70.0679C45.4919 69.5997 45.7549 68.9647 45.7549 68.3026V52.0508C45.7549 51.7218 45.6901 51.3962 45.5642 51.0923C45.4384 50.7884 45.2539 50.5123 45.0213 50.2797C44.7887 50.0472 44.5126 49.8627 44.2087 49.7368C43.9049 49.6109 43.5792 49.5461 43.2503 49.5461C42.9217 49.5461 42.5964 49.611 42.293 49.7369C41.9896 49.8629 41.714 50.0475 41.4821 50.2802C41.2501 50.5129 41.0664 50.7891 40.9414 51.0929C40.8164 51.3967 40.7527 51.7222 40.7537 52.0508V68.3026C40.7537 68.6311 40.8185 68.9564 40.9445 69.2598C41.0705 69.5632 41.2551 69.8388 41.4878 70.0708C41.7205 70.3027 41.9966 70.4864 42.3005 70.6114C42.6043 70.7364 42.9298 70.8002 43.2583 70.7991Z" fill="black" stroke="black" stroke-linecap="round" stroke-linejoin="round"/>
<path d="M43.2581 105.799C43.5866 105.8 43.9121 105.737 44.2159 105.612C44.5198 105.487 44.7959 105.303 45.0286 105.071C45.2613 104.839 45.4459 104.563 45.5719 104.26C45.6978 103.957 45.7627 103.631 45.7627 103.303V87.0509C45.7627 86.3888 45.4997 85.7537 45.0315 85.2856C44.5633 84.8174 43.9283 84.5543 43.2661 84.5543C42.604 84.5543 41.969 84.8174 41.5008 85.2856C41.0326 85.7537 40.7696 86.3888 40.7696 87.0509V103.303C40.7696 103.963 41.0315 104.597 41.4979 105.065C41.9644 105.533 42.5973 105.797 43.2581 105.799Z" fill="black" stroke="black" stroke-linecap="round" stroke-linejoin="round"/>
<path d="M53.7439 293.525H173.152C174.578 293.524 175.989 293.242 177.306 292.695C178.623 292.149 179.819 291.348 180.826 290.339C181.833 289.33 182.632 288.133 183.177 286.816C183.721 285.498 184.001 284.086 184 282.661V11.848C184 10.4201 183.718 9.00615 183.17 7.68738C182.623 6.36862 181.82 5.17096 180.808 4.1631C179.797 3.15525 178.596 2.35703 177.275 1.81424C175.955 1.27146 174.54 0.994774 173.112 1.00007H53.7036C50.8258 1.00221 48.0666 2.14691 46.0325 4.18257C43.9983 6.21824 42.8557 8.97829 42.8557 11.8561V282.661C42.8546 284.09 43.1357 285.505 43.6828 286.825C44.2299 288.145 45.0323 289.344 46.0439 290.354C47.0554 291.363 48.2564 292.163 49.5777 292.707C50.8991 293.251 52.3149 293.529 53.7439 293.525Z" fill="black" stroke="black" stroke-linecap="round" stroke-linejoin="round"/>
<path d="M53.438 20.288H173.418V274.237H53.438V20.288Z" fill="white" stroke="black" stroke-linecap="round" stroke-linejoin="round"/>
<path d="M53.4527 36.2661L173.433 36.2419L173.4 20.28L53.4205 20.2961L53.4527 36.2661Z" fill="#FFD95C" stroke="black" stroke-linecap="round" stroke-linejoin="round"/>
<path d="M65.0912 31.0071H92.6742C93.5713 31.0071 94.4316 30.6507 95.0659 30.0164C95.7003 29.3821 96.0566 28.5217 96.0566 27.6246C96.0566 27.1808 95.9691 26.7414 95.799 26.3315C95.6289 25.9215 95.3797 25.5492 95.0655 25.2357C94.7513 24.9223 94.3783 24.6739 93.968 24.5048C93.5577 24.3357 93.118 24.2492 92.6742 24.2503H65.0912C64.6478 24.2492 64.2085 24.3357 63.7986 24.505C63.3888 24.6742 63.0163 24.9227 62.7028 25.2362C62.3892 25.5498 62.1407 25.9222 61.9715 26.3321C61.8023 26.7419 61.7158 27.1812 61.7168 27.6246C61.7158 28.0684 61.8023 28.5081 61.9714 28.9184C62.1405 29.3288 62.3889 29.7017 62.7023 30.0159C63.0158 30.3301 63.3881 30.5794 63.798 30.7495C64.208 30.9195 64.6474 31.0071 65.0912 31.0071Z" fill="white" stroke="black" stroke-linecap="round" stroke-linejoin="round"/>
<path d="M105.342 31.0071H164.132C164.576 31.0071 165.016 30.9195 165.426 30.7495C165.836 30.5794 166.208 30.3301 166.521 30.0159C166.835 29.7017 167.083 29.3288 167.252 28.9184C167.421 28.5081 167.508 28.0684 167.507 27.6246C167.508 27.1812 167.421 26.7419 167.252 26.3321C167.083 25.9222 166.834 25.5498 166.521 25.2362C166.207 24.9227 165.835 24.6742 165.425 24.505C165.015 24.3357 164.576 24.2492 164.132 24.2503H105.342C104.899 24.2492 104.46 24.3357 104.05 24.505C103.64 24.6742 103.268 24.9227 102.954 25.2362C102.64 25.5498 102.392 25.9222 102.223 26.3321C102.054 26.7419 101.967 27.1812 101.968 27.6246C101.967 28.0684 102.053 28.5081 102.223 28.9184C102.392 29.3288 102.64 29.7017 102.954 30.0159C103.267 30.3301 103.639 30.5794 104.049 30.7495C104.459 30.9195 104.899 31.0071 105.342 31.0071Z" fill="white" stroke="black" stroke-linecap="round" stroke-linejoin="round"/>
<path d="M60.0815 62.2141H113.733V162.326H60.0815V62.2141Z" fill="white" stroke="black" stroke-linecap="round" stroke-linejoin="round"/>
<path d="M113.733 162.326L97.5621 98.2371L84.8941 111.187L70.8489 80.0605L60.6533 92.181L60.0895 162.326H113.733Z" fill="white" stroke="black" stroke-linecap="round" stroke-linejoin="round"/>
<path d="M93.8233 77.0278C93.1428 73.3632 95.5619 69.8408 99.2265 69.1603C102.891 68.4797 106.413 70.8988 107.094 74.5634C107.775 78.228 105.355 81.7504 101.691 82.4309C98.0263 83.1114 94.5038 80.6924 93.8233 77.0278Z" fill="white" stroke="black" stroke-linecap="round" stroke-linejoin="round"/>
<path d="M167.579 53.597H60.4122" stroke="black" stroke-linecap="round" stroke-linejoin="round"/>
<path d="M154.71 53.6452V49.4092C154.722 48.6715 154.442 47.9588 153.931 47.4273C153.419 46.8959 152.717 46.5892 151.979 46.5743H135.631C135.266 46.5817 134.906 46.6608 134.572 46.8073C134.238 46.9537 133.935 47.1646 133.683 47.4278C133.43 47.6911 133.231 48.0015 133.099 48.3415C132.966 48.6815 132.901 49.0443 132.909 49.4092V53.4359" stroke="black" stroke-linecap="round" stroke-linejoin="round"/>
<path d="M131.073 53.6452V49.4092C131.08 49.0443 131.016 48.6815 130.883 48.3415C130.75 48.0015 130.552 47.6911 130.299 47.4278C130.046 47.1646 129.744 46.9537 129.41 46.8073C129.075 46.6608 128.715 46.5817 128.351 46.5743H112.002C111.265 46.5892 110.563 46.8959 110.051 47.4273C109.539 47.9588 109.259 48.6715 109.272 49.4092V53.4359" stroke="black" stroke-linecap="round" stroke-linejoin="round"/>
<path d="M107.444 53.6452V49.4092C107.457 48.6728 107.178 47.9613 106.668 47.4301C106.158 46.8989 105.458 46.5913 104.722 46.5743H88.3653C88.0004 46.5817 87.6406 46.6608 87.3063 46.8073C86.972 46.9537 86.6698 47.1646 86.417 47.4278C86.1642 47.6911 85.9658 48.0015 85.833 48.3415C85.7003 48.6815 85.6358 49.0443 85.6433 49.4092V53.4359" stroke="black" stroke-linecap="round" stroke-linejoin="round"/>
<path d="M83.807 53.6452V49.4092C83.8145 49.0443 83.75 48.6815 83.6173 48.3415C83.4845 48.0015 83.2861 47.6911 83.0333 47.4278C82.7805 47.1646 82.4783 46.9537 82.144 46.8073C81.8097 46.6608 81.4499 46.5817 81.085 46.5743H64.7365C63.9989 46.5892 63.2972 46.8959 62.7854 47.4273C62.2736 47.9588 61.9935 48.6715 62.0064 49.4092V53.4359" stroke="black" stroke-linecap="round" stroke-linejoin="round"/>
<path d="M165.822 63.8893H119.467" stroke="black" stroke-linecap="round" stroke-linejoin="round"/>
<path d="M165.822 71.701H119.467" stroke="black" stroke-linecap="round" stroke-linejoin="round"/>
<path d="M165.822 79.5129H119.467" stroke="black" stroke-linecap="round" stroke-linejoin="round"/>
<path d="M165.822 87.3247H119.467" stroke="black" stroke-linecap="round" stroke-linejoin="round"/>
<path d="M165.822 95.1366H119.467" stroke="black" stroke-linecap="round" stroke-linejoin="round"/>
<path d="M165.822 102.948H119.467" stroke="black" stroke-linecap="round" stroke-linejoin="round"/>
<path d="M107.983 174.551H61.6279" stroke="black" stroke-linecap="round" stroke-linejoin="round"/>
<path d="M107.983 182.363H61.6279" stroke="black" stroke-linecap="round" stroke-linejoin="round"/>
<path d="M107.983 190.175H61.6279" stroke="black" stroke-linecap="round" stroke-linejoin="round"/>
<path d="M107.983 197.987H61.6279" stroke="black" stroke-linecap="round" stroke-linejoin="round"/>
<path d="M107.983 205.799H61.6279" stroke="black" stroke-linecap="round" stroke-linejoin="round"/>
<path d="M107.983 213.61H61.6279" stroke="black" stroke-linecap="round" stroke-linejoin="round"/>
<path d="M168.554 174.551H122.198" stroke="black" stroke-linecap="round" stroke-linejoin="round"/>
<path d="M168.554 182.363H122.198" stroke="black" stroke-linecap="round" stroke-linejoin="round"/>
<path d="M168.554 190.175H122.198" stroke="black" stroke-linecap="round" stroke-linejoin="round"/>
<path d="M168.554 197.987H122.198" stroke="black" stroke-linecap="round" stroke-linejoin="round"/>
<path d="M168.554 205.799H122.198" stroke="black" stroke-linecap="round" stroke-linejoin="round"/>
<path d="M168.554 213.61H122.198" stroke="black" stroke-linecap="round" stroke-linejoin="round"/>
<path d="M126.94 151.39C126.94 151.39 123.316 163.277 123.316 164.493C123.316 165.524 125.684 174.712 125.732 178.184" fill="white"/>
<path d="M126.94 151.39C126.94 151.39 123.316 163.277 123.316 164.493C123.316 165.524 125.684 174.712 125.732 178.184" stroke="black" stroke-linecap="round" stroke-linejoin="round"/>
<path d="M163.865 116.808L161.143 142.185C161.015 143.375 160.639 144.525 160.041 145.562C159.442 146.599 158.634 147.5 157.667 148.206C156.701 148.913 155.598 149.41 154.428 149.665C153.258 149.921 152.048 149.929 150.875 149.69C132.827 145.986 92.528 138.416 67.8684 138.786C35.3487 139.31 5.94565 155.739 5.94565 155.739L6.24362 140.92C6.71162 118.049 10.2132 95.3417 16.6567 73.3923L20.917 58.8961C20.917 58.8961 43.692 84.1356 76.8883 94.6775C101.854 102.618 139.077 106.089 155.933 107.321C157.084 107.402 158.208 107.715 159.236 108.24C160.264 108.765 161.175 109.493 161.916 110.378C162.657 111.264 163.211 112.29 163.546 113.395C163.881 114.499 163.989 115.661 163.865 116.808Z" fill="#FFD95C" stroke="black" stroke-linecap="round" stroke-linejoin="round"/>
<path d="M20.6997 62.351L20.9172 61.6021C20.9172 61.6021 43.6922 86.8495 76.8885 97.4317C78.6763 98.0035 80.5367 98.5431 82.4453 99.0424" stroke="white" stroke-width="5" stroke-linecap="round" stroke-linejoin="round"/>
<path d="M89.975 100.935C95.6124 102.248 101.532 103.399 107.459 104.398" stroke="white" stroke-width="5" stroke-linecap="round" stroke-linejoin="round"/>
<path d="M5.41395 160.659C5.5561 160.667 5.69862 160.667 5.84078 160.659C7.15094 160.687 8.41868 160.194 9.36548 159.288C10.3123 158.382 10.8607 157.137 10.8903 155.827L11.1963 141.033C11.6513 118.602 15.0825 96.3299 21.4 74.8016L25.6683 60.3055C25.8684 59.6766 25.9407 59.0141 25.8811 58.3569C25.8216 57.6997 25.6313 57.061 25.3214 56.4784C25.0115 55.8958 24.5884 55.3809 24.0767 54.9641C23.5651 54.5473 22.9754 54.237 22.3421 54.0513C21.7089 53.8656 21.0449 53.8084 20.3892 53.8829C19.7335 53.9574 19.0993 54.1622 18.5239 54.4852C17.9485 54.8083 17.4434 55.2431 17.0384 55.7641C16.6333 56.285 16.3365 56.8817 16.1653 57.519L11.905 72.0152C5.34059 94.3865 1.77402 117.53 1.29866 140.84L1.00066 155.634C0.973347 156.872 1.41163 158.075 2.22883 159.006C3.04603 159.936 4.18266 160.526 5.41395 160.659Z" fill="black" stroke="black" stroke-linecap="round" stroke-linejoin="round"/>
<path d="M105.171 101.281C124.717 104.704 144.786 106.508 155.908 107.321C157.061 107.399 158.188 107.709 159.218 108.233C160.249 108.757 161.164 109.484 161.907 110.37C162.65 111.256 163.206 112.283 163.543 113.389C163.879 114.496 163.989 115.659 163.864 116.808L161.142 142.185C161.014 143.375 160.639 144.525 160.04 145.562C159.442 146.599 158.633 147.5 157.667 148.206C156.7 148.913 155.597 149.41 154.427 149.665C153.258 149.921 152.047 149.929 150.874 149.69C139.72 147.403 120.078 143.626 100.879 141.17L105.171 101.281Z" fill="black" stroke="black" stroke-linecap="round" stroke-linejoin="round"/>
<path d="M138.264 142.861C138.264 142.861 130.363 158.92 129.131 160.393C128.515 160.998 127.747 161.424 126.908 161.626C124.728 162.316 122.853 163.738 121.601 165.652C115.964 174.197 101.54 196.03 100.807 196.811C99.8972 197.786 97.6583 198.623 96.4181 197.681C95.1779 196.739 85.9486 187.703 86.6493 183.756C87.3499 179.81 88.5499 181.01 90.6116 179.351C92.2625 178.014 98.665 166.587 101.081 162.181C101.372 161.663 101.514 161.074 101.492 160.48C101.469 159.886 101.282 159.31 100.952 158.815L98.8019 155.545C98.8019 155.545 108.2 147.975 108.345 146.687C108.49 145.398 104.568 144.399 104.439 143.046C104.31 141.693 107.781 136.966 107.781 136.966L138.264 142.861Z" fill="#FFD95C" stroke="black" stroke-linecap="round" stroke-linejoin="round"/>
<path d="M104.657 150.584L97.7635 153.121C97.701 153.145 97.6447 153.182 97.599 153.231C97.5532 153.279 97.5193 153.338 97.4999 153.402C97.4804 153.466 97.4759 153.533 97.4867 153.599C97.4975 153.665 97.5233 153.727 97.5622 153.782L98.8024 155.521L104.657 150.584Z" fill="black" stroke="black" stroke-linecap="round" stroke-linejoin="round"/>
<path d="M121.802 157.035L123.791 158.573" stroke="black" stroke-linecap="round" stroke-linejoin="round"/>
<path d="M108.345 146.622L120.087 155.706" stroke="black" stroke-linecap="round" stroke-linejoin="round"/>
<path d="M122.975 119.332L130.614 120.152L130.092 125.012L122.453 124.192L122.975 119.332Z" fill="#FFD95C" stroke="black" stroke-linecap="round" stroke-linejoin="round"/>
<path d="M125.725 178.159C125.771 178.569 125.704 178.984 125.532 179.359C124.525 180.769 122.109 190.634 121.908 191.657C121.774 194.423 121.977 197.195 122.512 199.912C123.116 203.133 125.532 211.404 125.532 211.404L100.945 219.264C100.945 219.264 95.1059 207.57 93.6966 205.154C92.2872 202.738 88.0592 196.489 87.0444 192.269C86.3938 189.284 85.9898 186.251 85.8364 183.201C85.8364 183.201 82.6151 180.575 83.0097 178.763C83.4791 177.349 84.2358 176.046 85.2324 174.938C85.2324 174.938 84.8297 171.507 86.0378 169.695C87.2458 167.883 89.0578 166.071 89.4605 165.467C89.8631 164.863 88.8565 159.218 91.2725 158.01C92.5347 157.337 93.8928 156.861 95.2992 156.6C95.2992 156.6 94.8965 153.169 97.5139 151.357C100.131 149.545 103.361 149.344 105.777 151.559C108.193 153.773 118.872 165.467 118.872 165.467" fill="white"/>
<path d="M125.725 178.159C125.771 178.569 125.704 178.984 125.532 179.359C124.525 180.769 122.109 190.634 121.908 191.657C121.774 194.423 121.977 197.195 122.512 199.912C123.116 203.133 125.532 211.404 125.532 211.404L100.945 219.264C100.945 219.264 95.1059 207.57 93.6966 205.154C92.2872 202.738 88.0592 196.489 87.0444 192.269C86.3938 189.284 85.9898 186.251 85.8364 183.201C85.8364 183.201 82.6151 180.575 83.0097 178.763C83.4791 177.349 84.2358 176.046 85.2324 174.938C85.2324 174.938 84.8297 171.507 86.0378 169.695C87.2458 167.883 89.0578 166.071 89.4605 165.467C89.8631 164.863 88.8565 159.218 91.2725 158.01C92.5347 157.337 93.8928 156.861 95.2992 156.6C95.2992 156.6 94.8965 153.169 97.5139 151.357C100.131 149.545 103.361 149.344 105.777 151.559C108.193 153.773 118.872 165.467 118.872 165.467" stroke="black" stroke-linecap="round" stroke-linejoin="round"/>
<path d="M118.476 168.479C118.476 168.479 117.872 171.499 117.268 172.103C116.664 172.707 118.476 181.171 118.476 181.171" fill="white"/>
<path d="M118.476 168.479C118.476 168.479 117.872 171.499 117.268 172.103C116.664 172.707 118.476 181.171 118.476 181.171" stroke="black" stroke-linecap="round" stroke-linejoin="round"/>
<path d="M95.3059 156.592L99.7352 159.21L104.374 164.855" fill="white"/>
<path d="M95.3059 156.592L99.7352 159.21L104.374 164.855" stroke="black" stroke-linecap="round" stroke-linejoin="round"/>
<path d="M89.4592 165.459L94.9033 169.888" stroke="black" stroke-linecap="round" stroke-linejoin="round"/>
<path d="M85.2316 174.93L89.8623 177.749" stroke="black" stroke-linecap="round" stroke-linejoin="round"/>
<path d="M109.005 170.895C109.498 172.125 109.498 173.498 109.005 174.729L108.2 176.943" fill="white"/>
<path d="M109.005 170.895C109.498 172.125 109.498 173.498 109.005 174.729L108.2 176.943" stroke="black" stroke-linecap="round" stroke-linejoin="round"/>
<path d="M98.3264 175.333C98.3264 175.333 100.541 176.943 99.7358 178.755L98.3264 175.333Z" fill="white"/>
<path d="M98.3264 175.333C98.3264 175.333 100.541 176.943 99.7358 178.755" stroke="black" stroke-linecap="round" stroke-linejoin="round"/>
<path d="M126.642 203.447L93.7763 215.269L98.6808 230.547L131.547 215.559L126.642 203.447Z" fill="white" stroke="black" stroke-linecap="round" stroke-linejoin="round"/>
<path d="M130.967 212.411L93.8328 226.899L103.827 271.829H152.631L130.967 212.411Z" fill="black" stroke="black" stroke-linecap="round" stroke-linejoin="round"/>
</svg>
