<svg width="405" height="464" viewBox="0 0 405 464" fill="none" xmlns="http://www.w3.org/2000/svg">
<g opacity="0.57">
<path d="M356.322 129.108L356.325 129.112C357.564 130.578 358.765 132.058 359.966 133.6L359.974 133.61C395.379 177.901 418.322 240.004 393.759 294.553C373.416 339.729 324.259 364.257 276.289 350.022C254.774 343.636 233.023 345.592 211.959 352.242C202.546 355.211 193.309 358.827 184.118 362.425C180.878 363.693 177.644 364.959 174.41 366.194C161.973 370.942 149.492 375.246 136.489 377.546C112.671 381.754 83.3667 378.017 58.0971 366.914C32.8236 355.81 11.7408 337.412 4.108 312.419C-2.64011 290.292 2.1306 268.643 13.3155 248.886C14.3403 247.077 15.3854 245.261 16.436 243.435C24.0835 230.147 32.0238 216.35 34.5405 200.876L34.5406 200.875C35.8366 192.873 35.7914 184.828 35.4693 176.838C35.3819 174.669 35.2744 172.509 35.1672 170.354C34.8778 164.536 34.5905 158.761 34.706 152.994C35.4165 118.31 43.3455 82.7921 63.5619 54.249L63.562 54.2488C93.934 11.347 153.946 -6.58493 204.417 3.94195C254.222 14.3328 293.757 51.5399 323.911 90.3643L323.912 90.365C330.761 99.1671 338.066 107.693 345.338 116.182C349.029 120.49 352.711 124.788 356.322 129.108Z" fill="#550000" stroke="black" stroke-width="2"/>
<path opacity="0.7" d="M356.322 129.108L356.325 129.112C357.564 130.578 358.765 132.058 359.966 133.6L359.974 133.61C395.379 177.901 418.322 240.004 393.759 294.553C373.416 339.729 324.259 364.257 276.289 350.022C254.774 343.636 233.023 345.592 211.959 352.242C202.546 355.211 193.309 358.827 184.118 362.425C180.878 363.693 177.644 364.959 174.41 366.194C161.973 370.942 149.492 375.246 136.489 377.546C112.671 381.754 83.3667 378.017 58.0971 366.914C32.8236 355.81 11.7408 337.412 4.108 312.419C-2.64011 290.292 2.1306 268.643 13.3155 248.886C14.3403 247.077 15.3854 245.261 16.436 243.435C24.0835 230.147 32.0238 216.35 34.5405 200.876L34.5406 200.875C35.8366 192.873 35.7914 184.828 35.4693 176.838C35.3819 174.669 35.2744 172.509 35.1672 170.354C34.8778 164.536 34.5905 158.761 34.706 152.994C35.4165 118.31 43.3455 82.7921 63.5619 54.249L63.562 54.2488C93.934 11.347 153.946 -6.58493 204.417 3.94195C254.222 14.3328 293.757 51.5399 323.911 90.3643L323.912 90.365C330.761 99.1671 338.066 107.693 345.338 116.182C349.029 120.49 352.711 124.788 356.322 129.108Z" fill="white" stroke="black" stroke-width="2"/>
</g>
<path d="M377.353 428.576C377.353 430.814 376.182 433.06 373.816 435.294C371.449 437.529 367.932 439.708 363.356 441.799C354.207 445.979 340.937 449.755 324.499 452.932C291.633 459.283 246.206 463.214 196.015 463.214C145.824 463.214 100.397 459.283 67.5308 452.932C51.0934 449.755 37.8232 445.979 28.6743 441.799C24.0983 439.708 20.5807 437.529 18.2144 435.294C15.848 433.06 14.6768 430.814 14.6768 428.576C14.6768 426.339 15.848 424.093 18.2144 421.858C20.5807 419.624 24.0983 417.445 28.6743 415.354C37.8232 411.174 51.0934 407.397 67.5308 404.221C100.397 397.87 145.824 393.939 196.015 393.939C246.206 393.939 291.633 397.87 324.499 404.221C340.937 407.397 354.207 411.174 363.356 415.354C367.932 417.445 371.449 419.624 373.816 421.858C376.182 424.093 377.353 426.339 377.353 428.576Z" fill="#550000" stroke="black"/>
<path opacity="0.5" d="M377.353 428.576C377.353 430.814 376.182 433.06 373.816 435.294C371.449 437.529 367.932 439.708 363.356 441.799C354.207 445.979 340.937 449.755 324.499 452.932C291.633 459.283 246.206 463.214 196.015 463.214C145.824 463.214 100.397 459.283 67.5308 452.932C51.0934 449.755 37.8232 445.979 28.6743 441.799C24.0983 439.708 20.5807 437.529 18.2144 435.294C15.848 433.06 14.6768 430.814 14.6768 428.576C14.6768 426.339 15.848 424.093 18.2144 421.858C20.5807 419.624 24.0983 417.445 28.6743 415.354C37.8232 411.174 51.0934 407.397 67.5308 404.221C100.397 397.87 145.824 393.939 196.015 393.939C246.206 393.939 291.633 397.87 324.499 404.221C340.937 407.397 354.207 411.174 363.356 415.354C367.932 417.445 371.449 419.624 373.816 421.858C376.182 424.093 377.353 426.339 377.353 428.576Z" fill="white" stroke="black"/>
<path d="M275.062 278.158H138.419C135.135 278.158 132.474 280.82 132.474 284.104V295.129C132.474 298.413 135.135 301.074 138.419 301.074H275.062C278.345 301.074 281.007 298.413 281.007 295.129V284.104C281.007 280.82 278.345 278.158 275.062 278.158Z" fill="white"/>
<path d="M275.062 301.711H138.419C136.676 301.711 135.004 301.019 133.77 299.788C132.536 298.556 131.841 296.885 131.837 295.142V284.104C131.841 282.359 132.535 280.687 133.769 279.454C135.003 278.22 136.675 277.525 138.419 277.522H275.062C276.807 277.525 278.479 278.22 279.713 279.454C280.946 280.687 281.641 282.359 281.644 284.104V295.142C281.641 296.885 280.946 298.556 279.712 299.788C278.478 301.019 276.806 301.711 275.062 301.711ZM138.419 278.795C137.011 278.795 135.661 279.354 134.665 280.35C133.67 281.346 133.111 282.696 133.111 284.104V295.142C133.114 296.548 133.675 297.895 134.67 298.888C135.665 299.88 137.014 300.438 138.419 300.438H275.062C276.468 300.438 277.816 299.88 278.812 298.888C279.807 297.895 280.368 296.548 280.371 295.142V284.104C280.371 282.696 279.812 281.346 278.816 280.35C277.821 279.354 276.47 278.795 275.062 278.795H138.419Z" fill="#263238"/>
<path d="M147.751 280.552H138.419V299.381H147.751V280.552Z" fill="#550000"/>
<path d="M159.388 280.552H150.056V299.381H159.388V280.552Z" fill="#550000"/>
<path d="M171.024 280.552H161.692V299.381H171.024V280.552Z" fill="#550000"/>
<path d="M182.66 280.552H173.328V299.381H182.66V280.552Z" fill="#550000"/>
<path d="M194.297 280.552H184.965V299.381H194.297V280.552Z" fill="#550000"/>
<path d="M205.932 280.552H196.601V299.381H205.932V280.552Z" fill="#550000"/>
<path d="M217.569 280.552H208.237V299.381H217.569V280.552Z" fill="#550000"/>
<path d="M229.205 280.552H219.873V299.381H229.205V280.552Z" fill="#550000"/>
<path d="M227.168 122.419L239.403 116.843L236.857 102.151L223.362 101.107C221.64 96.6017 219.369 92.3258 216.601 88.376L223.565 76.6252L213.011 66.0711L201.171 73.1114C194.352 68.4688 186.63 65.3151 178.51 63.8559L175.098 50.3228H160.177L156.74 63.9323C152.117 64.8144 147.617 66.2462 143.334 68.1972L132.665 58.9672L120.456 67.5225L125.549 80.7246C122.263 84.0772 119.387 87.808 116.981 91.8389L102.976 90.3875L97.884 104.392L109.507 112.272C108.95 115.544 108.669 118.858 108.667 122.177C108.667 123.59 108.667 124.978 108.833 126.366L96.5981 133.189L100.417 147.601L114.269 147.423C116.321 151.746 118.886 155.807 121.908 159.517L115.924 171.93L127.382 181.517L138.458 173.585C142.652 176.007 147.129 177.901 151.787 179.225L154.015 192.58L168.873 193.853L173.354 181.211C178.231 180.777 183.034 179.733 187.651 178.105L197.021 187.64L209.943 180.18L206.391 167.334C210.137 164.152 213.472 160.517 216.321 156.513L229.447 158.932L235.813 145.424L225.513 136.92C226.666 132.174 227.222 127.303 227.168 122.419ZM205.105 122.164C205.105 129.529 202.921 136.729 198.829 142.853C194.738 148.977 188.922 153.75 182.117 156.568C175.313 159.387 167.826 160.124 160.602 158.687C153.378 157.25 146.743 153.704 141.535 148.496C136.327 143.288 132.781 136.653 131.344 129.429C129.907 122.206 130.644 114.718 133.463 107.914C136.281 101.109 141.054 95.2935 147.178 91.2017C153.302 87.1099 160.502 84.9259 167.867 84.9259C172.758 84.9259 177.602 85.8895 182.12 87.7617C186.639 89.6339 190.745 92.378 194.203 95.8373C197.661 99.2965 200.404 103.403 202.274 107.923C204.145 112.442 205.107 117.286 205.105 122.177V122.164Z" fill="#550000"/>
<path d="M168.745 194.566L153.888 193.293C153.735 193.281 153.59 193.218 153.477 193.114C153.364 193.01 153.289 192.872 153.264 192.72L151.049 179.709C146.613 178.423 142.341 176.629 138.318 174.362L127.598 182.001C127.479 182.096 127.331 182.147 127.178 182.147C127.025 182.147 126.877 182.096 126.758 182.001L115.3 172.414C115.182 172.316 115.101 172.181 115.068 172.031C115.036 171.881 115.055 171.725 115.122 171.587L120.902 159.556C118.074 156.019 115.652 152.175 113.683 148.098L100.277 148.263C100.123 148.27 99.9711 148.223 99.8479 148.13C99.7247 148.037 99.6378 147.904 99.6024 147.754L95.783 133.342C95.7406 133.196 95.749 133.04 95.8067 132.898C95.8645 132.757 95.9684 132.64 96.1013 132.566L107.954 125.946C107.865 124.52 107.827 123.31 107.827 122.126C107.828 118.915 108.088 115.709 108.603 112.54L97.3362 104.901C97.2099 104.812 97.1165 104.684 97.0704 104.537C97.0244 104.39 97.0283 104.231 97.0816 104.086L102.174 90.082C102.231 89.9396 102.332 89.8192 102.463 89.739C102.594 89.6587 102.747 89.6227 102.9 89.6364L116.509 91.0369C118.815 87.2311 121.54 83.6953 124.632 80.4955L119.756 67.7007C119.699 67.5583 119.693 67.4004 119.739 67.254C119.786 67.1077 119.881 66.9821 120.01 66.8987L132.219 58.3434C132.341 58.2473 132.491 58.1951 132.646 58.1951C132.801 58.1951 132.951 58.2473 133.072 58.3434L143.397 67.2551C147.478 65.4399 151.748 64.0863 156.128 63.2194L159.451 50.03C159.492 49.8818 159.58 49.751 159.702 49.6569C159.824 49.5629 159.972 49.5106 160.126 49.508H175.047C175.2 49.5092 175.347 49.5611 175.467 49.6556C175.587 49.7501 175.672 49.8818 175.709 50.03L179.019 63.1303C186.916 64.6088 194.431 67.6753 201.107 72.1439L212.565 65.3328C212.696 65.2513 212.851 65.217 213.004 65.2355C213.156 65.2541 213.298 65.3243 213.406 65.4346L223.947 75.9759C224.053 76.0857 224.121 76.2272 224.139 76.379C224.158 76.5307 224.126 76.6842 224.049 76.8162L217.352 88.2997C219.954 92.0973 222.111 96.181 223.782 100.471L236.844 101.476C236.997 101.488 237.141 101.551 237.254 101.655C237.367 101.759 237.442 101.898 237.467 102.049L240.014 116.741C240.037 116.892 240.011 117.046 239.94 117.182C239.869 117.317 239.757 117.426 239.619 117.492L227.779 122.877C227.733 127.534 227.143 132.17 226.022 136.691L235.978 144.915C236.095 145.011 236.177 145.143 236.212 145.29C236.246 145.437 236.231 145.592 236.169 145.73L229.867 159.25C229.802 159.389 229.694 159.503 229.558 159.574C229.422 159.645 229.267 159.67 229.116 159.645L216.385 157.302C213.638 161.083 210.469 164.539 206.938 167.602L210.363 180.015C210.404 180.163 210.395 180.32 210.338 180.463C210.28 180.606 210.177 180.726 210.045 180.804L197.123 188.264C196.991 188.337 196.839 188.365 196.69 188.344C196.541 188.323 196.402 188.255 196.295 188.15L187.218 178.932C182.812 180.44 178.244 181.427 173.608 181.873L169.28 194.108C169.239 194.225 169.168 194.329 169.074 194.409C168.98 194.49 168.867 194.544 168.745 194.566ZM154.473 191.944L168.274 193.14L172.577 180.995C172.62 180.871 172.698 180.762 172.802 180.683C172.907 180.604 173.032 180.557 173.163 180.549C177.983 180.119 182.73 179.088 187.294 177.481C187.418 177.438 187.552 177.43 187.681 177.459C187.809 177.489 187.927 177.554 188.02 177.647L197.021 186.8L209.013 179.874L205.602 167.538C205.565 167.413 205.565 167.28 205.604 167.155C205.642 167.031 205.717 166.92 205.818 166.838C209.515 163.688 212.812 160.097 215.634 156.144C215.709 156.036 215.814 155.953 215.936 155.903C216.058 155.853 216.192 155.84 216.321 155.864L228.912 158.181L234.768 145.641L224.889 137.48C224.783 137.398 224.705 137.286 224.664 137.159C224.623 137.032 224.622 136.895 224.66 136.767C225.855 132.078 226.467 127.258 226.481 122.419C226.481 122.287 226.52 122.158 226.592 122.047C226.665 121.936 226.767 121.849 226.888 121.795L238.639 116.435L236.233 102.8L223.26 101.795C223.129 101.785 223.005 101.738 222.901 101.659C222.797 101.58 222.718 101.472 222.674 101.349C220.977 96.8813 218.737 92.6396 216.003 88.7198C215.931 88.6075 215.894 88.4772 215.894 88.3442C215.894 88.2112 215.931 88.0809 216.003 87.9687L222.687 76.6762L212.896 66.8859L201.515 73.6462C201.405 73.7179 201.277 73.7561 201.146 73.7561C201.014 73.7561 200.886 73.7179 200.776 73.6462C194.043 69.079 186.428 65.9737 178.421 64.5307C178.29 64.5077 178.169 64.4474 178.072 64.357C177.974 64.2666 177.906 64.1501 177.873 64.0214L174.576 51.0103H160.712L157.414 64.1106C157.381 64.2385 157.311 64.3542 157.214 64.4444C157.117 64.5345 156.997 64.5953 156.867 64.6198C152.298 65.489 147.849 66.8994 143.614 68.8211C143.494 68.8769 143.361 68.897 143.23 68.8789C143.099 68.8608 142.976 68.8054 142.875 68.7192L132.627 59.8075L121.283 67.7389L126.134 80.47C126.181 80.5929 126.191 80.7266 126.164 80.8552C126.137 80.9838 126.073 81.102 125.981 81.1957C122.739 84.5145 119.898 88.202 117.515 92.1826C117.447 92.2942 117.348 92.3843 117.231 92.4428C117.114 92.5013 116.983 92.5258 116.853 92.5136L103.345 91.126L98.6094 104.137L109.787 111.776C109.898 111.849 109.985 111.953 110.038 112.075C110.09 112.198 110.104 112.333 110.08 112.463C109.535 115.698 109.258 118.973 109.253 122.254C109.253 123.527 109.253 124.8 109.418 126.391C109.424 126.522 109.394 126.651 109.331 126.766C109.268 126.88 109.175 126.975 109.062 127.04L97.2981 133.61L100.888 146.977L114.23 146.735C114.361 146.735 114.489 146.772 114.6 146.842C114.71 146.912 114.799 147.012 114.854 147.13C116.867 151.403 119.389 155.417 122.366 159.085C122.447 159.185 122.499 159.306 122.515 159.435C122.53 159.563 122.51 159.693 122.455 159.81L116.7 171.752L127.305 180.664L137.948 173.025C138.061 172.954 138.191 172.916 138.324 172.916C138.457 172.916 138.587 172.954 138.7 173.025C142.849 175.409 147.274 177.277 151.876 178.589C152.003 178.623 152.116 178.693 152.204 178.79C152.292 178.887 152.351 179.007 152.373 179.136L154.473 191.944ZM167.867 160.116C160.366 160.113 153.035 157.887 146.799 153.718C140.564 149.549 135.705 143.625 132.837 136.695C129.968 129.764 129.219 122.139 130.684 114.783C132.148 107.427 135.762 100.67 141.066 95.3677C146.371 90.0649 153.128 86.4541 160.485 84.9917C167.842 83.5294 175.467 84.2812 182.396 87.1521C189.325 90.023 195.248 94.884 199.414 101.121C203.581 107.357 205.805 114.689 205.805 122.19C205.788 132.244 201.785 141.882 194.673 148.989C187.561 156.096 177.921 160.093 167.867 160.103V160.116ZM167.867 85.6389C160.637 85.6389 153.571 87.7825 147.56 91.7988C141.549 95.8151 136.864 101.524 134.098 108.202C131.331 114.881 130.608 122.23 132.018 129.321C133.428 136.411 136.909 142.924 142.021 148.035C147.133 153.147 153.646 156.628 160.736 158.039C167.826 159.449 175.175 158.725 181.854 155.959C188.533 153.192 194.241 148.507 198.258 142.496C202.274 136.486 204.418 129.419 204.418 122.19C204.411 112.497 200.558 103.203 193.705 96.3473C186.853 89.4921 177.56 85.6362 167.867 85.6261V85.6389Z" fill="#263238"/>
<path d="M86.2987 151.497C85.8617 151.496 85.4362 151.356 85.0839 151.097C84.7315 150.839 84.4703 150.475 84.3381 150.058C82.9578 145.766 81.9108 141.373 81.2063 136.92C81.1219 136.378 81.2562 135.825 81.5797 135.382C81.9032 134.939 82.3894 134.643 82.9313 134.558C83.4733 134.474 84.0265 134.608 84.4694 134.932C84.9123 135.255 85.2086 135.741 85.293 136.283C85.9662 140.524 86.9621 144.708 88.2721 148.798C88.4213 149.313 88.3654 149.865 88.1162 150.34C87.867 150.815 87.4438 151.174 86.9353 151.344C86.7339 151.432 86.5183 151.484 86.2987 151.497Z" fill="#263238"/>
<path d="M82.2378 127.511C81.6982 127.512 81.1798 127.302 80.7925 126.926C80.4051 126.551 80.1791 126.039 80.1626 125.5C80.1626 124.698 80.1626 123.896 80.1626 123.094C80.167 105.093 85.6813 87.5253 95.9644 72.7511C106.248 57.9769 120.807 46.7043 137.685 40.4484C154.564 34.1924 172.953 33.2528 190.381 37.756C207.809 42.2591 223.441 51.9891 235.176 65.6383C235.354 65.8439 235.489 66.0825 235.574 66.3403C235.659 66.5981 235.692 66.8701 235.672 67.1408C235.652 67.4115 235.579 67.6757 235.457 67.9181C235.334 68.1605 235.166 68.3765 234.96 68.5537C234.754 68.7309 234.516 68.8659 234.258 68.9509C234 69.036 233.728 69.0694 233.457 69.0493C233.187 69.0292 232.923 68.956 232.68 68.8338C232.438 68.7116 232.222 68.5429 232.045 68.3373C220.864 55.3179 205.964 46.0343 189.35 41.735C172.735 37.4358 155.203 38.327 139.11 44.2888C123.017 50.2506 109.136 60.9972 99.3329 75.0832C89.5296 89.1693 84.2747 105.919 84.2747 123.081C84.2747 123.845 84.2747 124.609 84.2747 125.373C84.2832 125.645 84.2378 125.915 84.1411 126.17C84.0445 126.424 83.8984 126.657 83.7115 126.854C83.5245 127.052 83.3003 127.211 83.0517 127.321C82.8032 127.432 82.5352 127.492 82.2632 127.499L82.2378 127.511Z" fill="#263238"/>
<path d="M239.39 59.1709L241.669 78.0129L224.215 70.578L239.39 59.1709Z" fill="#263238"/>
<path d="M328.393 189.499L338.845 186.38L336.146 171.102L325.185 171.764C323.754 168.001 321.869 164.427 319.571 161.121L326.458 152.439L315.484 141.515L306.725 148.467C301.055 144.634 294.645 142.032 287.908 140.828L286.635 129.574H271.103L269.83 140.904C265.981 141.635 262.233 142.824 258.665 144.444L251.026 135.876L238.295 144.787L243.757 154.883C241.024 157.672 238.631 160.774 236.627 164.126L225.475 161.465L220.204 175.889L230.389 180.982C229.923 183.703 229.689 186.458 229.689 189.219C229.689 190.39 229.689 191.549 229.829 192.707L219.25 196.883L223.26 211.867L234.374 210.225C236.081 213.823 238.219 217.2 240.74 220.283L234.578 229.615L246.469 239.583L254.489 231.944C257.984 233.955 261.712 235.529 265.591 236.629L265.884 247.604L281.339 248.953L283.529 238.297C287.582 237.943 291.577 237.088 295.42 235.751L301.874 244.446L315.306 236.693L311.015 226.788C314.124 224.134 316.899 221.112 319.278 217.787L329.539 221.199L336.096 207.195L326.84 201.568C327.857 197.625 328.379 193.571 328.393 189.499ZM310.035 189.282C310.035 195.412 308.217 201.403 304.812 206.5C301.406 211.596 296.566 215.567 290.903 217.912C285.24 220.257 279.009 220.87 272.997 219.674C266.986 218.477 261.465 215.524 257.132 211.189C252.798 206.854 249.848 201.332 248.654 195.32C247.46 189.308 248.075 183.077 250.422 177.415C252.77 171.753 256.743 166.915 261.841 163.511C266.939 160.108 272.931 158.292 279.06 158.295C283.129 158.295 287.158 159.097 290.917 160.654C294.676 162.211 298.091 164.494 300.967 167.372C303.844 170.249 306.125 173.666 307.681 177.425C309.237 181.185 310.037 185.214 310.035 189.282Z" fill="#550000"/>
<path d="M281.326 249.73H281.263L265.82 248.457C265.651 248.444 265.492 248.37 265.375 248.248C265.257 248.125 265.189 247.964 265.183 247.795L264.903 237.317C261.308 236.259 257.845 234.799 254.578 232.963L246.939 240.207C246.813 240.32 246.65 240.382 246.481 240.382C246.312 240.382 246.149 240.32 246.023 240.207L234.132 230.238C234.003 230.127 233.919 229.973 233.895 229.804C233.872 229.635 233.911 229.464 234.005 229.322L239.886 220.41C237.592 217.521 235.624 214.387 234.017 211.065L223.4 212.644C223.232 212.671 223.059 212.634 222.918 212.539C222.776 212.445 222.675 212.3 222.636 212.135L218.626 197.125C218.583 196.961 218.602 196.788 218.68 196.637C218.757 196.487 218.888 196.37 219.046 196.31L229.154 192.313C229.078 191.179 229.052 190.212 229.052 189.283C229.053 186.652 229.262 184.025 229.676 181.427L219.899 176.551C219.746 176.477 219.627 176.348 219.563 176.191C219.5 176.033 219.497 175.858 219.555 175.698L224.864 161.121C224.926 160.964 225.042 160.835 225.192 160.755C225.341 160.676 225.513 160.652 225.679 160.688L236.334 163.235C238.221 160.148 240.436 157.276 242.942 154.667L237.722 145.017C237.642 144.867 237.62 144.694 237.66 144.53C237.7 144.365 237.799 144.221 237.939 144.125L250.67 135.214C250.809 135.115 250.981 135.073 251.15 135.094C251.32 135.115 251.475 135.199 251.586 135.328L258.843 143.514C262.155 142.049 265.617 140.952 269.168 140.242L270.441 129.421C270.463 129.253 270.544 129.099 270.67 128.987C270.797 128.874 270.96 128.812 271.129 128.81H286.648C286.815 128.812 286.977 128.875 287.101 128.988C287.225 129.1 287.304 129.254 287.323 129.421L288.596 140.179C295.08 141.409 301.252 143.924 306.75 147.575L315.115 140.943C315.242 140.832 315.404 140.772 315.573 140.772C315.741 140.772 315.904 140.832 316.031 140.943L326.993 151.917C327.105 152.043 327.168 152.206 327.168 152.375C327.168 152.544 327.105 152.707 326.993 152.833L320.423 161.109C322.532 164.2 324.287 167.518 325.656 171.001L336.108 170.377C336.278 170.368 336.445 170.421 336.579 170.527C336.712 170.632 336.803 170.782 336.834 170.95L339.52 186.227C339.552 186.394 339.52 186.566 339.43 186.71C339.34 186.854 339.2 186.959 339.036 187.004L329.081 189.97C329.03 193.759 328.551 197.53 327.655 201.212L336.439 206.61C336.582 206.699 336.688 206.837 336.737 206.999C336.786 207.16 336.775 207.334 336.706 207.488L330.15 221.492C330.078 221.645 329.953 221.766 329.799 221.834C329.644 221.902 329.471 221.911 329.31 221.861L319.519 218.602C317.296 221.673 314.734 224.483 311.881 226.979L315.967 236.426C316.034 236.579 316.043 236.752 315.991 236.912C315.94 237.071 315.832 237.206 315.687 237.292L302.243 245.045C302.099 245.131 301.928 245.161 301.763 245.128C301.598 245.095 301.452 245.002 301.352 244.867L295.19 236.566C291.606 237.782 287.894 238.585 284.127 238.959L282.039 249.144C282.014 249.313 281.927 249.466 281.795 249.574C281.664 249.683 281.496 249.738 281.326 249.73ZM266.545 247.044L280.779 248.317L282.828 238.259C282.86 238.113 282.938 237.981 283.051 237.883C283.163 237.784 283.304 237.724 283.452 237.712C287.451 237.351 291.389 236.496 295.178 235.165C295.318 235.117 295.47 235.114 295.612 235.158C295.754 235.201 295.878 235.289 295.967 235.407L302.052 243.606L314.427 236.464L310.366 227.119C310.311 226.982 310.299 226.832 310.334 226.688C310.368 226.544 310.446 226.415 310.557 226.317C313.632 223.7 316.365 220.706 318.692 217.406C318.782 217.288 318.906 217.2 319.047 217.154C319.188 217.109 319.339 217.108 319.481 217.151L329.157 220.385L335.191 207.437L326.496 202.09C326.371 202.011 326.274 201.895 326.219 201.758C326.164 201.62 326.154 201.469 326.191 201.326C327.188 197.437 327.697 193.438 327.706 189.423C327.706 189.275 327.755 189.131 327.844 189.014C327.934 188.897 328.06 188.812 328.202 188.773L338.056 185.832L335.573 171.765L325.236 172.388C325.088 172.4 324.941 172.362 324.817 172.282C324.692 172.201 324.598 172.082 324.548 171.943C323.135 168.234 321.275 164.712 319.01 161.452C318.921 161.335 318.873 161.192 318.873 161.045C318.873 160.898 318.921 160.755 319.01 160.638L325.503 152.439L315.382 142.394L307.107 148.963C306.989 149.052 306.846 149.1 306.699 149.1C306.552 149.1 306.409 149.052 306.292 148.963C300.708 145.168 294.388 142.591 287.743 141.401C287.597 141.374 287.465 141.302 287.364 141.194C287.263 141.087 287.199 140.949 287.183 140.803L285.909 130.147H271.714L270.441 140.866C270.429 141.012 270.369 141.151 270.27 141.259C270.171 141.367 270.038 141.44 269.894 141.465C266.101 142.188 262.408 143.364 258.894 144.966C258.759 145.024 258.608 145.038 258.464 145.006C258.32 144.974 258.19 144.898 258.092 144.787L250.899 136.69L239.199 144.876L244.368 154.425C244.435 154.556 244.46 154.704 244.44 154.85C244.419 154.996 244.354 155.132 244.253 155.24C241.555 157.987 239.196 161.047 237.226 164.355C237.146 164.48 237.03 164.577 236.894 164.634C236.757 164.691 236.606 164.704 236.462 164.673L225.908 162.127L221.032 175.546L230.682 180.371C230.814 180.439 230.921 180.547 230.987 180.68C231.053 180.812 231.076 180.963 231.051 181.109C230.596 183.793 230.366 186.51 230.364 189.232C230.364 190.263 230.364 191.358 230.504 192.669C230.512 192.814 230.475 192.959 230.397 193.082C230.32 193.205 230.205 193.301 230.071 193.356L220.064 197.316L223.756 211.104L234.259 209.55C234.407 209.529 234.557 209.555 234.688 209.627C234.819 209.698 234.923 209.81 234.985 209.945C236.661 213.488 238.755 216.818 241.223 219.863C241.31 219.981 241.357 220.123 241.357 220.27C241.357 220.417 241.31 220.559 241.223 220.677L235.405 229.5L246.341 238.679L253.98 231.512C254.085 231.407 254.223 231.341 254.37 231.322C254.517 231.304 254.666 231.335 254.795 231.41C258.235 233.396 261.908 234.949 265.731 236.031C265.872 236.069 265.998 236.151 266.09 236.266C266.181 236.38 266.234 236.521 266.24 236.668L266.545 247.044ZM279.06 220.919C272.795 220.919 266.671 219.062 261.462 215.581C256.253 212.101 252.194 207.154 249.796 201.366C247.399 195.578 246.772 189.209 247.994 183.065C249.216 176.921 252.233 171.277 256.662 166.847C261.092 162.417 266.736 159.4 272.881 158.178C279.025 156.956 285.394 157.583 291.182 159.98C296.969 162.378 301.916 166.438 305.397 171.647C308.877 176.856 310.735 182.98 310.735 189.244C310.735 197.649 307.399 205.709 301.46 211.655C295.521 217.602 287.464 220.947 279.06 220.958V220.919ZM279.06 158.944C273.067 158.942 267.207 160.717 262.223 164.045C257.238 167.372 253.353 172.104 251.057 177.64C248.762 183.177 248.16 189.269 249.328 195.148C250.496 201.026 253.38 206.426 257.617 210.665C261.854 214.904 267.253 217.791 273.131 218.961C279.009 220.131 285.102 219.532 290.64 217.239C296.177 214.946 300.91 211.063 304.24 206.079C307.57 201.096 309.347 195.238 309.347 189.244C309.327 181.22 306.129 173.531 300.453 167.859C294.776 162.188 287.084 158.996 279.06 158.983V158.944Z" fill="#263238"/>
<path d="M278.563 264.562C261.447 264.52 244.874 258.55 231.662 247.668C231.24 247.318 230.974 246.815 230.923 246.27C230.871 245.724 231.039 245.181 231.388 244.758C231.738 244.336 232.241 244.07 232.786 244.019C233.332 243.968 233.875 244.135 234.297 244.485C246.534 254.601 261.862 260.231 277.738 260.44C293.613 260.649 309.084 255.425 321.583 245.634C334.082 235.843 342.858 222.073 346.456 206.609C350.055 191.145 348.258 174.915 341.366 160.612C341.224 160.365 341.135 160.091 341.104 159.808C341.073 159.524 341.1 159.238 341.185 158.965C341.269 158.693 341.409 158.441 341.595 158.225C341.781 158.01 342.01 157.834 342.267 157.711C342.523 157.587 342.803 157.518 343.088 157.507C343.373 157.496 343.657 157.544 343.922 157.648C344.188 157.752 344.429 157.909 344.631 158.11C344.833 158.311 344.991 158.552 345.096 158.817C350.512 170.066 352.984 182.506 352.279 194.971C351.575 207.437 347.718 219.519 341.069 230.086C334.42 240.654 325.197 249.36 314.265 255.39C303.333 261.42 291.048 264.576 278.563 264.562Z" fill="#263238"/>
<path d="M336.236 167.003L336.172 148.021L352.633 157.455L336.236 167.003Z" fill="#263238"/>
<path d="M103.626 444.936C139.956 444.936 169.407 437.526 169.407 428.385C169.407 419.245 139.956 411.835 103.626 411.835C67.2957 411.835 37.8442 419.245 37.8442 428.385C37.8442 437.526 67.2957 444.936 103.626 444.936Z" fill="#263238"/>
<path d="M242.204 414.61C242.204 413.872 242.293 413.134 242.293 412.37C242.293 394.546 225.551 380.135 204.889 380.135C184.226 380.135 167.472 394.572 167.472 412.37C167.472 413.134 167.472 413.872 167.574 414.61H242.204Z" fill="white"/>
<path d="M242.203 415.311H167.574C167.4 415.311 167.232 415.246 167.105 415.128C166.977 415.009 166.899 414.847 166.886 414.674C166.822 413.808 166.784 413.07 166.784 412.37C166.784 394.215 183.882 379.447 204.888 379.447C225.895 379.447 242.993 394.215 242.993 412.37C242.993 413.07 242.993 413.796 242.891 414.674C242.875 414.846 242.796 415.007 242.669 415.124C242.542 415.242 242.376 415.308 242.203 415.311ZM168.21 413.961H241.541C241.541 413.401 241.541 412.892 241.541 412.408C241.541 395.017 225.067 380.86 204.825 380.86C184.582 380.86 168.095 395.017 168.095 412.408C168.159 412.866 168.185 413.363 168.21 413.961Z" fill="#263238"/>
<path d="M242.204 417.679C242.204 416.94 242.293 416.189 242.293 415.438C242.293 397.614 225.551 383.203 204.889 383.203C184.226 383.203 167.472 397.64 167.472 415.438C167.472 416.189 167.472 416.94 167.574 417.679H242.204Z" fill="#263238"/>
<path d="M242.203 418.366H167.574C167.402 418.367 167.236 418.303 167.109 418.188C166.981 418.072 166.902 417.913 166.886 417.742C166.822 416.864 166.784 416.138 166.784 415.438C166.784 397.283 183.882 382.515 204.888 382.515C225.895 382.515 242.993 397.283 242.993 415.438C242.993 416.138 242.993 416.864 242.891 417.742C242.875 417.913 242.795 418.072 242.668 418.188C242.541 418.303 242.375 418.367 242.203 418.366ZM168.21 416.991H241.541C241.541 416.431 241.541 415.922 241.541 415.438C241.541 398.047 225.067 383.89 204.825 383.89C184.582 383.89 168.095 398.047 168.095 415.438C168.159 415.922 168.185 416.431 168.21 416.991Z" fill="#263238"/>
<path d="M124.505 209.691L150.235 250.366L178.511 234.452L180.229 248.253C180.229 248.253 152.997 269.679 149.204 271.373C145.41 273.066 138.509 272.073 136.791 269.998C135.072 267.923 120.597 216.629 120.597 216.629C120.597 216.629 118.051 206.941 124.505 209.691Z" fill="white"/>
<path d="M144.352 272.964C141.017 272.964 137.566 272.047 136.255 270.418C134.486 268.292 121.398 222.04 119.921 216.718C119.756 216.12 118.495 210.951 120.647 209.079C121.602 208.265 122.989 208.226 124.772 208.99C124.901 209.043 125.008 209.137 125.077 209.258L150.463 249.386L178.166 233.841C178.266 233.788 178.377 233.76 178.491 233.76C178.604 233.76 178.715 233.788 178.815 233.841C178.916 233.894 179.004 233.97 179.07 234.063C179.137 234.156 179.18 234.263 179.197 234.376L180.916 248.164C180.932 248.281 180.917 248.4 180.872 248.51C180.827 248.619 180.755 248.715 180.661 248.788C179.541 249.666 153.302 270.24 149.483 271.984C147.858 272.659 146.112 272.993 144.352 272.964ZM122.493 209.881C122.152 209.867 121.818 209.976 121.551 210.187C120.418 211.167 120.761 214.528 121.245 216.413C127.012 236.859 136.051 267.923 137.325 269.59C138.827 271.385 145.422 272.366 148.91 270.774C152.398 269.183 176.485 250.405 179.465 247.998L177.911 235.611L150.565 251.003C150.41 251.088 150.229 251.11 150.058 251.065C149.888 251.02 149.741 250.911 149.648 250.761L124.033 210.263C123.547 210.045 123.025 209.916 122.493 209.881Z" fill="#263238"/>
<path d="M177.134 232.441L157.478 244.854L167.93 265.198L184.366 247.273L182.647 228.303L177.134 232.441Z" fill="#550000"/>
<path d="M167.93 265.886H167.841C167.732 265.866 167.629 265.823 167.539 265.759C167.449 265.695 167.374 265.613 167.319 265.516L156.867 245.147C156.786 244.993 156.766 244.815 156.81 244.647C156.855 244.48 156.962 244.335 157.109 244.243L176.74 231.906L182.227 227.794C182.325 227.718 182.441 227.67 182.564 227.654C182.687 227.639 182.812 227.657 182.925 227.706C183.039 227.756 183.137 227.835 183.209 227.936C183.281 228.036 183.324 228.155 183.335 228.278L185.054 247.247C185.066 247.342 185.056 247.439 185.025 247.529C184.994 247.62 184.943 247.702 184.875 247.769L168.44 265.707C168.371 265.77 168.291 265.818 168.203 265.849C168.116 265.879 168.023 265.892 167.93 265.886ZM158.382 245.096L168.096 264.001L183.653 247.031L182.075 229.602L177.542 232.988L158.382 245.096Z" fill="#263238"/>
<path d="M96.0254 304.881L144.022 353.119C144.022 353.119 131.953 364.501 123.334 374.164C114.715 383.826 100.583 396.227 100.583 396.227L105.408 402.083C105.408 402.083 161.272 360.07 163.971 357.257C166.67 354.443 166.734 348.981 166.046 341.75C165.359 334.519 145.015 277.611 145.015 277.611L96.0254 304.881Z" fill="#263238"/>
<path d="M105.408 402.783C105.306 402.782 105.205 402.759 105.112 402.715C105.02 402.671 104.938 402.607 104.873 402.529L100.048 396.66C99.9341 396.522 99.8783 396.345 99.8926 396.167C99.9068 395.988 99.99 395.823 100.124 395.705C100.264 395.59 114.332 383.215 122.824 373.705C130.361 365.265 140.648 355.398 143.041 353.106L95.5412 305.365C95.4664 305.291 95.4092 305.201 95.374 305.102C95.3387 305.002 95.3262 304.897 95.3375 304.792C95.3547 304.686 95.3956 304.585 95.4573 304.496C95.5191 304.408 95.6 304.335 95.694 304.283L144.785 277.013C144.877 276.972 144.977 276.951 145.078 276.951C145.179 276.951 145.278 276.972 145.371 277.013C145.464 277.051 145.548 277.108 145.618 277.181C145.688 277.253 145.742 277.339 145.778 277.433C146.606 279.75 166.148 334.494 166.848 341.725C167.587 349.516 167.459 354.914 164.582 357.804C161.705 360.694 108.17 400.975 105.892 402.694C105.745 402.777 105.575 402.809 105.408 402.783ZM101.589 396.303L105.573 401.141C111.277 396.838 161.043 359.319 163.589 356.773C166.135 354.227 166.135 348.982 165.46 341.814C164.824 335.194 147.166 285.415 144.734 278.604L97.209 305.047L144.569 352.635C144.695 352.77 144.768 352.947 144.772 353.132C144.762 353.318 144.685 353.494 144.556 353.628C144.429 353.743 132.41 365.086 123.906 374.622C116.217 383.165 104.135 393.999 101.499 396.303H101.589Z" fill="#263238"/>
<path d="M121.691 367.569L133.327 387.875L109.749 400.211C108.919 402.929 108.919 405.833 109.749 408.55C111.2 412.548 114.842 416.533 115.185 418.735C115.529 420.938 115.911 421.994 111.2 421.994C106.49 421.994 101.41 418.009 98.864 415.107C96.3178 412.204 95.9613 404.222 93.7715 400.963C91.5818 397.703 87.9662 392.98 90.8689 388.626C93.7715 384.272 99.5642 383.534 99.5642 383.534L121.691 367.569Z" fill="#550000"/>
<path d="M111.176 422.656C105.956 422.656 100.647 418.188 98.3302 415.54C96.8534 413.859 96.0895 410.74 95.3511 407.723C94.9492 405.507 94.2242 403.362 93.1995 401.357L92.7285 400.657C90.4496 397.296 87.3305 392.7 90.2969 388.257C93.0722 384.081 98.2538 383.075 99.2978 382.91L121.284 367.047C121.362 366.975 121.455 366.92 121.556 366.887C121.657 366.854 121.764 366.844 121.87 366.856C121.964 366.875 122.052 366.915 122.129 366.972C122.206 367.03 122.27 367.103 122.316 367.187L133.926 387.557C133.972 387.637 134.001 387.726 134.012 387.818C134.023 387.909 134.015 388.002 133.99 388.091C133.965 388.18 133.921 388.262 133.862 388.332C133.803 388.402 133.729 388.459 133.646 388.499L110.323 400.695C109.611 403.195 109.638 405.848 110.399 408.334C111.234 410.34 112.28 412.252 113.518 414.037C114.558 415.415 115.355 416.961 115.874 418.608V418.837C116.052 419.932 116.217 420.874 115.581 421.625C114.944 422.376 113.722 422.656 111.176 422.656ZM121.475 368.575L99.9725 384.081C99.8815 384.154 99.7706 384.199 99.6542 384.208C99.6542 384.208 94.1289 384.959 91.4427 388.982C88.9983 392.649 91.6973 396.621 93.8616 399.842L94.3454 400.555C95.4754 402.7 96.2697 405.006 96.7006 407.392C97.3881 410.243 98.1138 413.197 99.3614 414.623C102.162 417.831 107.064 421.281 111.176 421.281C113.098 421.281 114.231 421.09 114.537 420.721C114.842 420.352 114.651 419.843 114.537 419.053V418.824C114.032 417.372 113.307 416.006 112.385 414.776C111.086 412.905 109.993 410.898 109.126 408.792C108.236 405.927 108.236 402.86 109.126 399.995C109.149 399.909 109.191 399.829 109.248 399.761C109.305 399.693 109.377 399.638 109.457 399.6L132.373 387.595L121.475 368.575Z" fill="#263238"/>
<path d="M114.332 421.6C109.24 420.136 104.517 416.062 101.283 411.618C97.6674 406.653 98.5713 398.06 94.9174 394.903C92.7022 392.955 92.524 389.135 92.715 386.487C91.9913 387.091 91.3569 387.794 90.8307 388.575C87.9281 392.929 91.5564 397.652 93.7334 400.912C95.9105 404.171 96.2797 412.153 98.8259 415.056C101.372 417.959 106.465 421.943 111.162 421.943C112.231 422.001 113.301 421.885 114.332 421.6Z" fill="#263238"/>
<path d="M111.176 422.657C105.956 422.657 100.647 418.188 98.3302 415.54C96.8534 413.859 96.0895 410.74 95.3511 407.723C94.9492 405.507 94.2242 403.363 93.1995 401.357L92.7285 400.657C90.4496 397.296 87.3305 392.7 90.2969 388.257C90.8596 387.416 91.5414 386.661 92.3211 386.016C92.4246 385.931 92.5505 385.877 92.6836 385.862C92.8168 385.846 92.9517 385.869 93.0722 385.927C93.1952 385.989 93.2964 386.086 93.3624 386.207C93.4284 386.328 93.456 386.465 93.4414 386.602C93.2887 388.754 93.3269 392.624 95.4148 394.444C97.5027 396.265 98.1392 399.435 98.8649 402.834C99.5142 405.864 100.138 408.996 101.844 411.275C105.409 416.176 110.03 419.716 114.575 421.001C114.718 421.038 114.845 421.119 114.937 421.234C115.029 421.349 115.08 421.491 115.084 421.638C115.086 421.784 115.043 421.927 114.961 422.047C114.879 422.168 114.762 422.261 114.626 422.313C113.503 422.618 112.337 422.734 111.176 422.657ZM92.0792 388.283C91.8694 388.518 91.6778 388.769 91.5063 389.034C89.0619 392.7 91.7609 396.672 93.9252 399.893L94.409 400.606C95.5391 402.751 96.3334 405.057 96.7643 407.443C97.4517 410.295 98.1774 413.248 99.4251 414.674C102.226 417.882 107.127 421.332 111.24 421.332H111.52C107.226 419.202 103.536 416.029 100.787 412.102C98.954 409.556 98.2411 406.31 97.579 403.191C96.917 400.072 96.3059 397.029 94.5618 395.552C92.5885 393.744 92.0283 390.829 92.0156 388.232L92.0792 388.283Z" fill="#263238"/>
<path d="M92.0791 299.215C92.0791 299.215 101.386 316.352 108.63 326.345C118.28 339.675 135.747 360.019 135.747 360.019L132.997 424.502L141.616 425.533C141.616 425.533 157.135 362.094 157.479 356.913C157.822 351.731 135.059 303.124 135.059 303.124" fill="#263238"/>
<path d="M141.616 426.221H141.527L132.908 425.19C132.734 425.168 132.576 425.08 132.465 424.945C132.354 424.811 132.298 424.639 132.309 424.464L135.046 360.261C133.188 358.072 117.108 339.23 108.069 326.753C100.889 316.836 91.5187 299.725 91.5187 299.547C91.4329 299.386 91.4142 299.198 91.4667 299.024C91.5192 298.85 91.6387 298.704 91.7988 298.617C91.8771 298.573 91.9636 298.544 92.0531 298.533C92.1426 298.523 92.2333 298.53 92.3199 298.555C92.4066 298.58 92.4873 298.622 92.5575 298.678C92.6276 298.735 92.6856 298.805 92.7282 298.885C92.83 299.063 102.111 316.097 109.279 325.938C118.801 339.102 136.192 359.37 136.37 359.574C136.475 359.709 136.533 359.874 136.536 360.045L133.71 423.891L141.094 424.783C142.66 418.315 156.473 361.662 156.791 356.875C157.058 352.775 140.75 316.899 134.435 303.404C134.361 303.238 134.353 303.05 134.415 302.879C134.477 302.708 134.603 302.567 134.766 302.488C134.848 302.449 134.937 302.427 135.027 302.423C135.118 302.418 135.208 302.432 135.293 302.463C135.379 302.493 135.457 302.541 135.524 302.602C135.591 302.663 135.645 302.737 135.683 302.819C138.025 307.809 158.51 351.757 158.166 356.951C157.822 362.146 142.889 423.089 142.278 425.699C142.243 425.848 142.159 425.981 142.038 426.076C141.918 426.171 141.769 426.222 141.616 426.221Z" fill="#263238"/>
<path d="M157.325 360.49C157.142 360.49 156.966 360.418 156.835 360.29C156.704 360.161 156.629 359.986 156.625 359.803C156.549 341.623 148.987 327.135 140.94 311.794L139.451 308.942C139.407 308.849 139.384 308.746 139.384 308.643C139.384 308.539 139.407 308.437 139.451 308.344L143.512 299.126C143.548 299.043 143.6 298.967 143.665 298.904C143.731 298.84 143.808 298.79 143.892 298.757C143.977 298.723 144.067 298.706 144.158 298.707C144.249 298.709 144.339 298.728 144.422 298.764C144.506 298.8 144.582 298.852 144.645 298.917C144.709 298.982 144.759 299.059 144.792 299.144C144.826 299.228 144.843 299.318 144.842 299.409C144.84 299.5 144.821 299.59 144.785 299.674L140.966 308.586L142.239 311.132C150.349 326.626 158 341.254 158.089 359.765C158.089 359.948 158.017 360.124 157.889 360.255C157.76 360.386 157.585 360.462 157.402 360.465L157.325 360.49Z" fill="white"/>
<path d="M140.648 389.772H140.571C140.391 389.753 140.226 389.663 140.111 389.522C139.997 389.382 139.943 389.201 139.96 389.021C139.96 389.021 140.126 387.328 140.431 384.921C140.441 384.831 140.468 384.744 140.512 384.665C140.556 384.586 140.615 384.516 140.686 384.46C140.758 384.404 140.839 384.363 140.927 384.34C141.014 384.316 141.106 384.311 141.195 384.323C141.285 384.332 141.373 384.36 141.452 384.404C141.531 384.447 141.601 384.507 141.656 384.578C141.712 384.649 141.753 384.731 141.777 384.819C141.8 384.906 141.806 384.997 141.794 385.087C141.501 387.48 141.335 389.148 141.335 389.161C141.314 389.329 141.232 389.483 141.106 389.595C140.98 389.707 140.817 389.77 140.648 389.772Z" fill="white"/>
<path d="M141.717 381.026H141.628C141.537 381.015 141.45 380.986 141.372 380.941C141.293 380.895 141.224 380.835 141.169 380.762C141.115 380.69 141.075 380.607 141.053 380.519C141.031 380.43 141.028 380.339 141.042 380.249C141.908 374.074 142.722 370.179 143.474 368.677C143.698 368.349 143.853 367.979 143.927 367.589C144.002 367.199 143.994 366.798 143.906 366.41C143.563 365.685 142.29 365.366 141.055 365.061C140.816 365.025 140.592 364.923 140.41 364.765C140.227 364.607 140.093 364.401 140.023 364.17C139.769 363.177 140.915 362.133 142.57 360.554C143.77 359.551 144.84 358.4 145.752 357.129C145.943 356.811 145.892 356.658 145.867 356.607C145.638 355.907 143.805 355.143 142.048 354.418C139.504 353.508 137.123 352.197 134.995 350.535C131.303 347.301 114.816 321.635 107.903 310.75C107.806 310.596 107.773 310.41 107.811 310.231C107.849 310.053 107.955 309.896 108.107 309.795C108.183 309.746 108.269 309.713 108.359 309.697C108.448 309.681 108.54 309.684 108.629 309.704C108.718 309.724 108.802 309.761 108.876 309.814C108.95 309.867 109.013 309.934 109.061 310.012C123.397 332.571 133.429 347.339 135.899 349.478C137.91 351.045 140.163 352.275 142.57 353.119C145.014 354.138 146.784 354.863 147.204 356.162C147.291 356.44 147.314 356.735 147.272 357.023C147.231 357.312 147.124 357.587 146.962 357.83C145.988 359.214 144.837 360.464 143.537 361.547C142.763 362.201 142.055 362.931 141.424 363.724C142.952 364.106 144.53 364.513 145.129 365.825C145.323 366.398 145.384 367.008 145.307 367.608C145.229 368.208 145.016 368.782 144.683 369.288C144.212 370.217 143.41 372.916 142.379 380.427C142.355 380.588 142.276 380.736 142.155 380.846C142.034 380.955 141.879 381.019 141.717 381.026Z" fill="white"/>
<path d="M107.152 308.917C107.034 308.918 106.917 308.887 106.815 308.829C106.712 308.771 106.626 308.687 106.566 308.586L104.987 306.039C104.934 305.963 104.898 305.877 104.879 305.787C104.86 305.696 104.859 305.603 104.878 305.512C104.896 305.421 104.932 305.335 104.985 305.258C105.037 305.182 105.104 305.117 105.182 305.067C105.26 305.017 105.348 304.984 105.439 304.969C105.53 304.953 105.624 304.957 105.714 304.979C105.804 305.001 105.889 305.04 105.963 305.096C106.037 305.151 106.099 305.221 106.146 305.301L107.725 307.847C107.774 307.923 107.808 308.008 107.825 308.097C107.842 308.187 107.841 308.278 107.822 308.367C107.803 308.456 107.766 308.54 107.715 308.615C107.663 308.689 107.597 308.753 107.521 308.802C107.412 308.876 107.283 308.916 107.152 308.917Z" fill="white"/>
<path d="M131.761 390.561L154.372 392.471L148.235 424.299C149.087 426.12 150.312 427.742 151.833 429.058C153.353 430.374 155.133 431.355 157.058 431.937C163.564 433.847 166.25 434.993 166.25 438.061C166.25 441.129 163.564 441.88 152.844 443.039C142.124 444.197 130.997 439.983 130.997 439.983C130.997 439.983 126.02 439.207 125.638 435.769C125.256 432.332 130.615 422.733 130.615 422.733L131.761 390.561Z" fill="#550000"/>
<path d="M148.935 443.93C142.749 443.84 136.618 442.748 130.781 440.696C130.093 440.582 125.332 439.614 124.912 435.897C124.53 432.459 129.049 424.121 129.889 422.606L131.035 390.587C131.039 390.492 131.062 390.399 131.104 390.313C131.146 390.228 131.205 390.152 131.277 390.09C131.346 390.029 131.427 389.983 131.515 389.955C131.602 389.926 131.695 389.916 131.786 389.925L154.397 391.835C154.492 391.842 154.584 391.869 154.668 391.915C154.751 391.961 154.824 392.025 154.881 392.102C154.938 392.18 154.979 392.268 155 392.363C155.022 392.457 155.025 392.554 155.008 392.649L148.961 424.146C149.784 425.832 150.944 427.331 152.37 428.55C153.795 429.77 155.456 430.685 157.249 431.237C163.436 433.058 166.937 434.267 166.937 438.023C166.937 441.779 163.296 442.581 152.933 443.688C151.605 443.839 150.271 443.92 148.935 443.93ZM132.385 391.3L131.252 422.758C131.254 422.871 131.223 422.982 131.163 423.077C129.711 425.623 125.981 433.045 126.274 435.693C126.592 438.57 131.01 439.296 131.061 439.296H131.188C131.303 439.296 142.277 443.434 152.716 442.313C163.359 441.18 165.447 440.455 165.447 438.023C165.447 435.591 163.27 434.484 156.739 432.561C154.711 431.951 152.837 430.916 151.241 429.524C149.645 428.132 148.364 426.416 147.484 424.49C147.446 424.365 147.446 424.232 147.484 424.108L153.467 393.057L132.385 391.3Z" fill="#263238"/>
<path d="M152.844 443.039C163.029 441.957 165.957 441.206 166.224 438.494C160.047 439.925 153.676 440.321 147.37 439.665C139.93 438.734 132.696 436.583 125.956 433.3C125.7 434.097 125.592 434.934 125.638 435.769C126.019 439.207 130.997 439.983 130.997 439.983C130.997 439.983 142.112 444.197 152.844 443.039Z" fill="#263238"/>
<path d="M148.936 443.93C142.749 443.84 136.618 442.748 130.781 440.696C130.094 440.582 125.332 439.614 124.912 435.897C124.863 434.976 124.975 434.054 125.243 433.172C125.271 433.075 125.319 432.985 125.385 432.908C125.451 432.831 125.533 432.769 125.625 432.727C125.718 432.68 125.82 432.655 125.924 432.655C126.028 432.655 126.131 432.68 126.223 432.727C132.898 435.968 140.059 438.093 147.421 439.016C153.646 439.685 159.939 439.293 166.034 437.857C166.141 437.833 166.253 437.835 166.36 437.864C166.466 437.893 166.564 437.947 166.645 438.023C166.725 438.094 166.787 438.183 166.827 438.282C166.867 438.382 166.883 438.489 166.874 438.596C166.543 441.982 162.774 442.708 152.87 443.765C151.562 443.888 150.249 443.943 148.936 443.93ZM126.427 434.331C126.324 434.786 126.29 435.253 126.325 435.719C126.644 438.596 131.061 439.321 131.112 439.321H131.239C131.354 439.321 142.328 443.459 152.768 442.339C161.17 441.448 164.226 440.786 165.206 439.398C159.321 440.68 153.267 440.994 147.281 440.327C140.056 439.443 133.018 437.42 126.427 434.331Z" fill="#263238"/>
<path d="M91.7988 218.068C91.7988 218.068 65.6364 231.41 59.6146 237.953C53.5928 244.497 58.3415 250.506 60.6586 257.305C62.9756 264.103 93.6703 303.048 96.0256 304.881C98.3808 306.714 110.412 300.96 126.644 293.894C142.876 286.828 146.784 283.951 146.784 280.03C146.784 276.109 125.804 212.555 124.505 209.69C123.206 206.826 98.5972 214.083 91.7988 218.068Z" fill="white"/>
<path d="M97.3879 305.912C96.7566 305.953 96.1296 305.783 95.6056 305.428C93.7596 303.99 62.5047 264.689 59.9585 257.534C59.5002 256.261 58.94 254.911 58.4053 253.638C56.2028 248.444 53.924 243.059 59.0546 237.482C65.0637 230.951 90.1312 218.106 91.417 217.456C97.859 213.752 119.502 207.119 124.009 208.545C124.238 208.6 124.453 208.705 124.638 208.852C124.823 209 124.973 209.186 125.078 209.398C126.529 212.58 147.421 276.058 147.421 280.017C147.421 284.422 143.194 287.401 126.86 294.518C124.62 295.485 122.455 296.44 120.393 297.357C108.044 302.818 100.838 305.899 97.3879 305.912ZM122.443 209.652C117.032 209.652 98.6101 214.923 92.1427 218.666C91.8881 218.793 66.0185 232.021 60.1622 238.399C55.6299 243.326 57.5396 247.846 59.7675 253.091C60.315 254.364 60.8751 255.713 61.3462 257.076C63.8033 264.18 94.6635 302.908 96.484 304.321C98.3046 305.734 108.744 301.011 119.922 296.084L126.402 293.245C141.679 286.586 146.135 283.607 146.135 280.017C146.135 276.656 125.651 213.815 123.907 209.996C123.69 209.754 123.143 209.652 122.443 209.652Z" fill="#263238"/>
<mask id="mask0_1767_1371" style="mask-type:luminance" maskUnits="userSpaceOnUse" x="56" y="209" width="91" height="97">
<mask id="mask1_1767_1371" style="mask-type:luminance" maskUnits="userSpaceOnUse" x="56" y="209" width="91" height="97">
<path d="M91.7988 218.068C91.7988 218.068 65.6364 231.41 59.6146 237.953C53.5928 244.497 58.3415 250.506 60.6586 257.305C62.9756 264.103 93.6703 303.048 96.0256 304.881C98.3808 306.714 110.412 300.96 126.644 293.894C142.876 286.828 146.784 283.951 146.784 280.03C146.784 276.109 125.804 212.555 124.505 209.69C123.206 206.826 98.5972 214.083 91.7988 218.068Z" fill="white"/>
</mask>
<g mask="url(#mask1_1767_1371)">
<path d="M97.3879 305.912C96.7566 305.953 96.1296 305.783 95.6056 305.428C93.7596 303.99 62.5047 264.689 59.9585 257.534C59.5002 256.261 58.94 254.911 58.4053 253.638C56.2028 248.444 53.924 243.059 59.0546 237.483C65.0637 230.952 90.1312 218.106 91.417 217.457C97.859 213.752 119.502 207.119 124.009 208.545C124.238 208.6 124.453 208.705 124.638 208.853C124.823 209 124.973 209.186 125.078 209.398C126.529 212.581 147.421 276.058 147.421 280.017C147.421 284.422 143.194 287.401 126.86 294.518C124.62 295.485 122.455 296.44 120.393 297.357C108.044 302.819 100.838 305.9 97.3879 305.912ZM122.443 209.652C117.032 209.652 98.6101 214.923 92.1427 218.666C91.8881 218.793 66.0185 232.021 60.1622 238.399C55.6299 243.326 57.5396 247.846 59.7675 253.091C60.315 254.364 60.8751 255.714 61.3462 257.076C63.8033 264.18 94.6635 302.908 96.484 304.321C98.3046 305.734 108.744 301.011 119.922 296.084L126.402 293.245C141.679 286.586 146.135 283.607 146.135 280.017C146.135 276.656 125.651 213.815 123.907 209.996C123.69 209.754 123.143 209.652 122.443 209.652Z" fill="white"/>
</g>
</mask>
<g mask="url(#mask0_1767_1371)">
<path d="M84.6053 270.1L102.136 270.8L78.5835 266.191C78.5835 266.191 62.0968 258.82 62.0968 250.048C62.0968 241.276 72.2816 238.132 72.2816 238.132L97.1964 231.461L98.9533 216.031C98.5586 216.031 97.4256 216.031 95.8469 216.132C94.4498 216.692 93.0891 217.338 91.773 218.068C91.773 218.068 65.6106 231.41 59.5887 237.954C53.5669 244.497 58.3156 250.506 60.6327 257.305C62.9497 264.103 93.6444 303.048 95.9997 304.881C98.3549 306.714 110.386 300.96 126.618 293.894L127.127 293.665C122.468 294.607 107.509 298.274 102.811 294.251C97.9093 290.037 87.7372 279.521 87.7372 279.521L125.612 279.864L84.6053 270.1Z" fill="#550000"/>
<path opacity="0.5" d="M84.6053 270.1L102.136 270.8L78.5835 266.191C78.5835 266.191 62.0968 258.82 62.0968 250.048C62.0968 241.276 72.2816 238.132 72.2816 238.132L97.1964 231.461L98.9533 216.031C98.5586 216.031 97.4256 216.031 95.8469 216.132C94.4498 216.692 93.0891 217.338 91.773 218.068C91.773 218.068 65.6106 231.41 59.5887 237.954C53.5669 244.497 58.3156 250.506 60.6327 257.305C62.9497 264.103 93.6444 303.048 95.9997 304.881C98.3549 306.714 110.386 300.96 126.618 293.894L127.127 293.665C122.468 294.607 107.509 298.274 102.811 294.251C97.9093 290.037 87.7372 279.521 87.7372 279.521L125.612 279.864L84.6053 270.1Z" fill="white"/>
</g>
<path d="M84.4785 221.938C87.6399 226.66 91.7342 230.685 96.5094 233.765C104.874 238.997 110.374 237.954 113.251 232.708C115.606 228.431 111.838 215.75 110.386 211.282C103.168 213.242 95.2236 216.081 91.7989 218.068C91.7989 218.068 88.7689 219.621 84.4785 221.938Z" fill="#263238"/>
<path d="M106.095 237.89C103.244 237.89 99.9081 236.706 96.1397 234.351C91.2924 231.206 87.1308 227.114 83.9052 222.32C83.8494 222.241 83.8115 222.152 83.7939 222.057C83.7763 221.963 83.7795 221.865 83.8033 221.772C83.8274 221.679 83.8703 221.591 83.9294 221.514C83.9885 221.438 84.0625 221.374 84.147 221.327C88.3738 219.035 91.4547 217.507 91.4802 217.444C94.8157 215.521 102.531 212.708 110.195 210.607C110.367 210.563 110.55 210.585 110.706 210.67C110.862 210.755 110.979 210.897 111.035 211.065C112.703 216.158 116.306 228.596 113.849 233.052C113.307 234.153 112.54 235.128 111.597 235.914C110.653 236.699 109.556 237.277 108.374 237.61C107.63 237.801 106.864 237.895 106.095 237.89ZM85.4711 222.18C88.544 226.552 92.435 230.287 96.9291 233.179C101.436 235.993 105.192 236.999 108.094 236.273C109.093 235.983 110.019 235.487 110.813 234.816C111.607 234.144 112.251 233.314 112.703 232.377C114.854 228.494 111.43 216.604 109.991 212.122C102.734 214.134 95.3377 216.845 92.1676 218.666C92.0785 218.691 89.3286 220.092 85.4711 222.18Z" fill="#263238"/>
<path d="M108.272 208.124C107.685 208.801 107.244 209.591 106.974 210.445C106.705 211.299 106.614 212.199 106.706 213.09C107.228 215.712 109.851 225.91 109.584 229.309C109.316 232.708 106.184 233.243 99.6406 230.582C93.0968 227.921 88.921 220.397 87.8643 218.551C86.8076 216.705 82.6318 205.731 82.6318 205.731L85.5091 203.898C85.5091 203.898 88.399 208.341 95.4521 208.341C102.505 208.341 107.496 204.674 108.272 206.253C109.049 207.832 108.272 208.124 108.272 208.124Z" fill="white"/>
<path d="M106.16 232.976C103.817 232.814 101.523 232.232 99.3866 231.257C95.0071 229.513 90.9714 225.413 87.3557 219.086L87.2666 218.933C86.2099 217.075 82.1742 206.457 81.9959 206.011C81.9407 205.863 81.937 205.701 81.9856 205.551C82.0341 205.401 82.132 205.271 82.2633 205.184L85.1405 203.35C85.2949 203.253 85.481 203.22 85.6593 203.258C85.8376 203.296 85.994 203.403 86.0953 203.554C86.2099 203.72 88.8835 207.692 95.4527 207.692C98.4966 207.603 101.506 207.023 104.364 205.973C106.605 205.235 108.184 204.7 108.871 205.973C109.068 206.279 109.198 206.624 109.251 206.984C109.303 207.344 109.278 207.711 109.177 208.061C109.082 208.299 108.918 208.503 108.706 208.647C108.204 209.234 107.825 209.917 107.593 210.654C107.362 211.391 107.281 212.168 107.356 212.937C107.471 213.497 107.675 214.388 107.929 215.483C108.871 219.634 110.475 226.572 110.246 229.347C110.248 229.94 110.102 230.523 109.822 231.046C109.542 231.568 109.136 232.012 108.642 232.339C107.893 232.786 107.031 233.008 106.16 232.976ZM83.4855 206.049C84.3257 208.252 87.5849 216.705 88.4633 218.246L88.5525 218.399C92.0026 224.459 95.8219 228.354 99.8959 229.984C104.925 231.983 107.038 231.741 107.942 231.181C108.248 230.965 108.496 230.676 108.663 230.34C108.83 230.005 108.91 229.633 108.897 229.258C109.1 226.712 107.471 219.608 106.605 215.801C106.351 214.694 106.147 213.79 106.032 213.255C105.916 212.258 106.01 211.248 106.308 210.29C106.606 209.332 107.102 208.447 107.764 207.692C107.809 207.635 107.866 207.587 107.929 207.552C107.935 207.222 107.842 206.898 107.662 206.622C106.68 206.691 105.716 206.923 104.81 207.31C101.808 208.407 98.6478 209.009 95.4527 209.092C93.5631 209.179 91.6778 208.846 89.9323 208.117C88.1867 207.389 86.6241 206.283 85.357 204.878L83.4855 206.049Z" fill="#263238"/>
<mask id="mask2_1767_1371" style="mask-type:luminance" maskUnits="userSpaceOnUse" x="82" y="203" width="28" height="30">
<mask id="mask3_1767_1371" style="mask-type:luminance" maskUnits="userSpaceOnUse" x="82" y="203" width="28" height="30">
<path d="M108.272 208.124C107.685 208.801 107.244 209.591 106.974 210.445C106.705 211.299 106.614 212.199 106.706 213.09C107.228 215.712 109.851 225.91 109.584 229.309C109.316 232.708 106.184 233.243 99.6406 230.582C93.0968 227.921 88.921 220.397 87.8643 218.551C86.8076 216.705 82.6318 205.731 82.6318 205.731L85.5091 203.898C85.5091 203.898 88.399 208.341 95.4521 208.341C102.505 208.341 107.496 204.674 108.272 206.253C109.049 207.832 108.272 208.124 108.272 208.124Z" fill="white"/>
</mask>
<g mask="url(#mask3_1767_1371)">
<path d="M106.16 232.976C103.817 232.814 101.523 232.232 99.3866 231.257C95.0071 229.513 90.9714 225.413 87.3557 219.086L87.2666 218.933C86.2099 217.075 82.1742 206.457 81.9959 206.011C81.9407 205.863 81.937 205.701 81.9856 205.551C82.0341 205.401 82.132 205.271 82.2633 205.184L85.1405 203.35C85.2949 203.253 85.481 203.22 85.6593 203.258C85.8376 203.296 85.994 203.403 86.0953 203.554C86.2099 203.72 88.8835 207.692 95.4527 207.692C98.4966 207.603 101.506 207.023 104.364 205.973C106.605 205.235 108.184 204.7 108.871 205.973C109.068 206.279 109.198 206.624 109.251 206.984C109.303 207.344 109.278 207.711 109.177 208.061C109.082 208.299 108.918 208.503 108.706 208.647C108.204 209.234 107.825 209.917 107.593 210.654C107.362 211.391 107.281 212.168 107.356 212.937C107.471 213.497 107.675 214.388 107.929 215.483C108.871 219.634 110.475 226.572 110.246 229.347C110.248 229.94 110.102 230.523 109.822 231.046C109.542 231.568 109.136 232.012 108.642 232.339C107.893 232.786 107.031 233.008 106.16 232.976ZM83.4855 206.049C84.3257 208.252 87.5849 216.705 88.4633 218.246L88.5525 218.399C92.0026 224.459 95.8219 228.354 99.8959 229.984C104.925 231.983 107.038 231.741 107.942 231.181C108.248 230.965 108.496 230.676 108.663 230.34C108.83 230.005 108.91 229.633 108.897 229.258C109.1 226.712 107.471 219.608 106.605 215.801C106.351 214.694 106.147 213.79 106.032 213.255C105.916 212.258 106.01 211.248 106.308 210.29C106.606 209.332 107.102 208.447 107.764 207.692C107.809 207.635 107.866 207.587 107.929 207.552C107.935 207.222 107.842 206.898 107.662 206.622C106.68 206.691 105.716 206.923 104.81 207.31C101.808 208.407 98.6478 209.009 95.4527 209.092C93.5631 209.179 91.6778 208.846 89.9323 208.117C88.1867 207.389 86.6241 206.283 85.357 204.878L83.4855 206.049Z" fill="white"/>
</g>
</mask>
<g mask="url(#mask2_1767_1371)">
<path d="M96.2287 219.557L108.272 208.099L107.89 205.948C106.439 205.426 101.792 208.354 95.4521 208.354C88.399 208.354 85.5091 203.911 85.5091 203.911L82.6318 205.744C82.6318 205.744 86.8204 216.731 87.8643 218.564C88.9083 220.397 93.0968 227.985 99.6406 230.595C100.303 230.862 100.914 231.092 101.525 231.283L96.2287 219.557Z" fill="#550000"/>
<path opacity="0.5" d="M96.2287 219.557L108.272 208.099L107.89 205.948C106.439 205.426 101.792 208.354 95.4521 208.354C88.399 208.354 85.5091 203.911 85.5091 203.911L82.6318 205.744C82.6318 205.744 86.8204 216.731 87.8643 218.564C88.9083 220.397 93.0968 227.985 99.6406 230.595C100.303 230.862 100.914 231.092 101.525 231.283L96.2287 219.557Z" fill="white"/>
</g>
<path d="M71.9121 197.125L77.3992 204.191L84.465 201.313L79.2325 191.638L71.9121 197.125Z" fill="#263238"/>
<path d="M77.3991 204.878C77.2965 204.879 77.195 204.857 77.1023 204.813C77.0097 204.769 76.9283 204.704 76.8644 204.624L71.3646 197.532C71.3078 197.459 71.2662 197.375 71.2422 197.285C71.2181 197.196 71.2121 197.102 71.2245 197.01C71.2538 196.83 71.3491 196.666 71.4919 196.552L78.825 191.065C78.9033 191.004 78.994 190.961 79.0909 190.939C79.1877 190.917 79.2882 190.916 79.3852 190.938C79.4818 190.959 79.5728 191 79.6518 191.059C79.7309 191.119 79.7963 191.194 79.8435 191.281L85.076 200.957C85.1517 201.14 85.1517 201.346 85.076 201.53C85.045 201.62 84.9948 201.701 84.9288 201.77C84.8628 201.838 84.7827 201.891 84.694 201.925L77.6283 204.802C77.5572 204.841 77.4796 204.867 77.3991 204.878ZM72.8796 197.239L77.6283 203.338L83.4973 200.944L79.0032 192.644L72.8796 197.239Z" fill="#263238"/>
<path d="M81.333 200.078C81.333 200.078 73.4779 189.601 73.6943 186.469C73.9108 183.337 90.3084 171.433 94.7643 172.223C99.2202 173.012 106.222 186.329 106.222 186.329L110.156 190.263L108.883 193.929C108.883 193.929 115.592 203.21 114.803 204.522C114.014 205.833 108.005 209.487 100.672 211.065C93.3384 212.644 86.2854 207.921 86.2854 207.921C86.2854 207.921 81.3203 210.009 79.2196 208.71C77.119 207.412 74.2545 202.688 74.7765 201.644C75.2984 200.6 81.333 200.078 81.333 200.078Z" fill="white"/>
<path d="M97.5658 212.008C93.5614 211.878 89.6584 210.715 86.2351 208.634C84.962 209.118 80.939 210.518 78.8765 209.232C76.8141 207.946 73.3513 202.867 74.166 201.275C74.6626 200.269 77.4252 199.735 80.0605 199.442C78.0236 196.641 72.8166 189.168 73.0584 186.342C73.2112 184.432 77.2979 181.02 79.7168 179.149C83.5361 176.233 91.544 170.873 94.9941 171.51C99.5519 172.312 105.956 184.114 106.885 185.883L110.704 189.703C110.799 189.795 110.865 189.913 110.892 190.042C110.919 190.171 110.907 190.306 110.857 190.428L109.673 193.751C114.154 199.977 116.039 203.694 115.428 204.802C114.511 206.317 108.298 210.06 100.85 211.664C99.7702 211.891 98.6696 212.006 97.5658 212.008ZM86.2988 207.17C86.4347 207.169 86.5679 207.209 86.6807 207.284C86.7571 207.284 93.5937 211.817 100.545 210.327C108.043 208.723 113.645 205.069 114.231 204.102C114.32 203.236 111.252 198.296 108.336 194.273C108.27 194.183 108.227 194.077 108.211 193.966C108.196 193.855 108.208 193.742 108.247 193.637L109.406 190.377L105.777 186.762C105.728 186.708 105.685 186.648 105.65 186.584C103.753 182.968 98.0114 173.432 94.6886 172.834C92.6261 172.477 86.4134 175.724 80.5571 180.243C76.4322 183.413 74.4971 185.692 74.4334 186.456C74.2552 188.557 78.902 195.635 81.8811 199.595C81.9545 199.694 82.0003 199.812 82.0137 199.935C82.0272 200.058 82.0077 200.182 81.9575 200.295C81.908 200.407 81.8282 200.504 81.7271 200.574C81.6259 200.643 81.5073 200.683 81.3846 200.69C78.5201 200.944 75.7574 201.504 75.3755 201.963C75.2482 202.701 77.6034 206.851 79.6022 208.099C81.0663 209.016 84.8347 207.768 85.9678 207.259C86.0684 207.201 86.1825 207.17 86.2988 207.17Z" fill="#263238"/>
<mask id="mask4_1767_1371" style="mask-type:luminance" maskUnits="userSpaceOnUse" x="73" y="172" width="42" height="40">
<mask id="mask5_1767_1371" style="mask-type:luminance" maskUnits="userSpaceOnUse" x="73" y="172" width="42" height="40">
<path d="M81.333 200.078C81.333 200.078 73.4779 189.601 73.6943 186.469C73.9108 183.337 90.3084 171.433 94.7643 172.223C99.2202 173.012 106.222 186.329 106.222 186.329L110.156 190.263L108.883 193.929C108.883 193.929 115.592 203.21 114.803 204.522C114.014 205.833 108.005 209.487 100.672 211.065C93.3384 212.644 86.2854 207.921 86.2854 207.921C86.2854 207.921 81.3203 210.009 79.2196 208.71C77.119 207.412 74.2545 202.688 74.7765 201.644C75.2984 200.6 81.333 200.078 81.333 200.078Z" fill="white"/>
</mask>
<g mask="url(#mask5_1767_1371)">
<path d="M97.5648 212.008C93.5604 211.878 89.6574 210.715 86.2341 208.634C84.961 209.118 80.938 210.518 78.8756 209.232C76.8131 207.946 73.3503 202.867 74.1651 201.275C74.6616 200.269 77.4242 199.735 80.0596 199.442C78.0226 196.641 72.8156 189.168 73.0575 186.342C73.2102 184.432 77.2969 181.02 79.7158 179.149C83.5352 176.233 91.543 170.873 94.9931 171.51C99.5509 172.312 105.955 184.114 106.884 185.883L110.703 189.703C110.798 189.795 110.864 189.913 110.891 190.042C110.918 190.171 110.906 190.306 110.856 190.428L109.672 193.751C114.153 199.977 116.038 203.694 115.427 204.802C114.51 206.317 108.297 210.06 100.849 211.664C99.7692 211.891 98.6686 212.006 97.5648 212.008ZM86.2978 207.17C86.4337 207.169 86.5669 207.209 86.6797 207.284C86.7561 207.284 93.5927 211.817 100.544 210.327C108.043 208.723 113.644 205.069 114.23 204.102C114.319 203.236 111.251 198.296 108.335 194.273C108.269 194.183 108.226 194.077 108.21 193.966C108.195 193.855 108.207 193.742 108.246 193.637L109.405 190.377L105.776 186.762C105.727 186.708 105.684 186.648 105.649 186.584C103.752 182.968 98.0104 173.432 94.6876 172.834C92.6252 172.477 86.4124 175.724 80.5561 180.243C76.4312 183.413 74.4961 185.692 74.4324 186.456C74.2542 188.557 78.901 195.635 81.8801 199.595C81.9536 199.694 81.9994 199.812 82.0128 199.935C82.0262 200.058 82.0068 200.182 81.9565 200.295C81.907 200.407 81.8273 200.504 81.7261 200.574C81.6249 200.643 81.5063 200.683 81.3836 200.69C78.5191 200.944 75.7564 201.504 75.3745 201.963C75.2472 202.701 77.6025 206.851 79.6013 208.099C81.0653 209.016 84.8337 207.768 85.9668 207.259C86.0674 207.201 86.1816 207.17 86.2978 207.17Z" fill="white"/>
</g>
</mask>
<g mask="url(#mask4_1767_1371)">
<path d="M100.684 211.001C103.553 210.372 106.345 209.433 109.01 208.201C108.763 208.19 108.516 208.164 108.272 208.124C105.178 207.5 96.2284 205.489 92.7656 201.16C91.2392 199.101 89.4979 197.211 87.5713 195.52L106.948 186.952L106.261 186.265C106.261 186.265 99.2584 172.948 94.8026 172.159C90.3467 171.37 73.9872 183.26 73.7326 186.405C73.478 189.55 81.3713 200.002 81.3713 200.002C81.3713 200.002 75.3494 200.536 74.8275 201.58C74.3055 202.624 77.1827 207.335 79.2706 208.646C81.3585 209.957 86.3364 207.857 86.3364 207.857C86.3364 207.857 93.3639 212.567 100.684 211.001Z" fill="#550000"/>
<path opacity="0.5" d="M100.684 211.001C103.553 210.372 106.345 209.433 109.01 208.201C108.763 208.19 108.516 208.164 108.272 208.124C105.178 207.5 96.2284 205.489 92.7656 201.16C91.2392 199.101 89.4979 197.211 87.5713 195.52L106.948 186.952L106.261 186.265C106.261 186.265 99.2584 172.948 94.8026 172.159C90.3467 171.37 73.9872 183.26 73.7326 186.405C73.478 189.55 81.3713 200.002 81.3713 200.002C81.3713 200.002 75.3494 200.536 74.8275 201.58C74.3055 202.624 77.1827 207.335 79.2706 208.646C81.3585 209.957 86.3364 207.857 86.3364 207.857C86.3364 207.857 93.3639 212.567 100.684 211.001Z" fill="white"/>
</g>
<path d="M171.33 202.103L200.382 392.84L204.036 392.318L176.027 201.835C174.479 201.367 172.815 201.462 171.33 202.103Z" fill="#263238"/>
<path d="M200.382 393.591C200.216 393.593 200.055 393.535 199.928 393.427C199.802 393.32 199.719 393.17 199.694 393.006L170.655 202.205C170.633 202.048 170.665 201.888 170.746 201.751C170.827 201.615 170.952 201.51 171.1 201.454C172.753 200.742 174.608 200.656 176.32 201.212C176.428 201.259 176.522 201.332 176.593 201.426C176.665 201.52 176.711 201.63 176.727 201.746L204.736 392.216C204.75 392.308 204.746 392.401 204.724 392.49C204.702 392.58 204.663 392.664 204.608 392.738C204.494 392.881 204.331 392.977 204.15 393.006L200.484 393.528L200.382 393.591ZM172.106 202.625L200.955 392.064L203.259 391.733L175.429 202.37C174.318 202.164 173.172 202.252 172.106 202.625Z" fill="#263238"/>
<path d="M172.119 225.655C172.119 225.655 166.364 224.382 166.364 227.743C166.364 231.104 165.842 236.897 167.93 238.208C170.018 239.52 172.641 238.998 172.908 235.853C173.175 232.708 172.908 224.866 172.119 225.655Z" fill="#550000"/>
<path d="M170.095 239.545C169.19 239.531 168.308 239.262 167.549 238.768C165.448 237.495 165.537 233.205 165.626 229.462C165.626 228.838 165.626 228.253 165.626 227.718C165.611 227.303 165.693 226.89 165.866 226.512C166.038 226.134 166.296 225.802 166.619 225.541C168.185 224.268 171.088 224.726 171.992 224.904C172.161 224.848 172.344 224.848 172.514 224.904C174.042 225.604 173.545 235.738 173.545 235.84C173.539 236.513 173.356 237.172 173.014 237.751C172.672 238.33 172.183 238.808 171.597 239.138C171.135 239.388 170.62 239.527 170.095 239.545ZM169.802 226.063C169.004 226.002 168.207 226.193 167.523 226.61C167.359 226.742 167.231 226.912 167.149 227.105C167.066 227.298 167.033 227.509 167.052 227.718C167.052 228.253 167.052 228.864 167.052 229.487C166.989 232.365 166.899 236.706 168.325 237.597C168.715 237.881 169.17 238.063 169.648 238.125C170.127 238.187 170.613 238.128 171.062 237.954C171.434 237.727 171.739 237.407 171.947 237.024C172.155 236.642 172.258 236.212 172.246 235.777C172.463 232.607 172.348 229.424 171.903 226.279C171.211 226.144 170.507 226.08 169.802 226.088V226.063Z" fill="#263238"/>
<path d="M175.493 239.889C175.493 239.889 175.289 244.001 176.078 244.408C176.868 244.816 187.422 244.001 187.817 243.135C188.211 242.269 188.02 239.023 187.231 238.819C186.442 238.616 176.473 238.87 175.493 239.889Z" fill="#550000"/>
<path d="M177.581 245.21C176.967 245.253 176.351 245.188 175.76 245.019C174.984 244.612 174.653 242.88 174.805 239.863C174.807 239.698 174.871 239.539 174.984 239.418C176.333 238.004 186.862 238.055 187.409 238.144C187.601 238.208 187.777 238.315 187.922 238.456C188.068 238.597 188.18 238.769 188.249 238.959C188.778 240.392 188.844 241.955 188.44 243.428C188.34 243.586 188.21 243.722 188.057 243.829C187.904 243.936 187.732 244.012 187.549 244.052C184.274 244.776 180.934 245.164 177.581 245.21ZM176.448 243.797C180.074 243.857 183.695 243.511 187.244 242.766C187.421 241.677 187.325 240.562 186.964 239.519C185.69 239.354 177.746 239.647 176.168 240.283C176.073 241.462 176.168 242.648 176.448 243.797Z" fill="#263238"/>
<path d="M172.386 234.542C172.386 234.542 172.131 239.774 173.124 240.296C174.117 240.818 187.599 239.774 188.096 238.73C188.592 237.686 188.338 233.498 187.345 233.243C186.352 232.988 173.633 233.243 172.386 234.542Z" fill="#550000"/>
<path d="M174.958 241.124C174.233 241.177 173.505 241.103 172.806 240.907C171.66 240.309 171.533 237.088 171.686 234.542C171.695 234.375 171.763 234.218 171.877 234.096C173.493 232.403 186.836 232.415 187.523 232.594C187.741 232.666 187.939 232.788 188.102 232.949C188.265 233.11 188.39 233.307 188.465 233.523C189.108 235.296 189.197 237.223 188.72 239.048C188.484 239.413 188.113 239.669 187.689 239.761C183.499 240.629 179.235 241.085 174.958 241.124ZM173.061 234.911C172.891 236.528 173.038 238.162 173.493 239.723C174.627 240.054 186.021 239.163 187.498 238.335C187.841 237.355 187.561 234.3 187.078 233.867C185.855 233.612 174.907 234.02 173.061 234.911Z" fill="#263238"/>
<path d="M171.864 228.787C171.864 228.787 171.597 234.02 172.641 234.542C173.685 235.064 187.816 234.02 188.338 232.976C188.86 231.932 188.606 227.743 187.562 227.476C186.518 227.209 173.163 227.476 171.864 228.787Z" fill="#550000"/>
<path d="M174.537 235.305C173.8 235.344 173.061 235.297 172.335 235.165C171.138 234.567 171.062 231.346 171.164 228.8C171.175 228.628 171.247 228.465 171.367 228.341C173.061 226.648 187.014 226.674 187.727 226.852C187.959 226.927 188.17 227.054 188.345 227.224C188.519 227.394 188.652 227.602 188.733 227.832C189.385 229.592 189.465 231.512 188.962 233.319C188.287 234.643 178.93 235.305 174.537 235.305ZM172.526 229.169C172.449 231.422 172.653 233.612 172.997 233.956C174.13 234.3 186.25 233.383 187.765 232.568C188.109 231.613 187.829 228.52 187.319 228.125C186.237 227.896 174.486 228.252 172.526 229.169Z" fill="#263238"/>
<path d="M171.075 222.995C171.075 222.995 170.807 228.227 171.864 228.749C172.921 229.271 187.039 228.227 187.561 227.183C188.083 226.139 187.816 221.951 186.772 221.683C185.728 221.416 172.386 221.721 171.075 222.995Z" fill="#550000"/>
<path d="M173.749 229.551C173.001 229.574 172.253 229.51 171.521 229.36C170.324 228.762 170.248 225.541 170.362 222.994C170.371 222.825 170.443 222.666 170.566 222.549C172.246 220.856 186.2 220.881 186.913 221.059C187.144 221.134 187.356 221.261 187.53 221.431C187.705 221.602 187.838 221.81 187.918 222.04C188.57 223.799 188.651 225.719 188.147 227.527C187.498 228.876 178.141 229.551 173.749 229.551ZM171.75 223.415C171.576 225.025 171.732 226.654 172.208 228.201C173.354 228.545 185.474 227.616 186.989 226.814C187.333 225.859 186.989 222.765 186.543 222.371C185.525 222.141 173.71 222.485 171.75 223.415Z" fill="#263238"/>
<path d="M57.1313 247.273C57.4878 255.166 64.3244 260.78 68.5893 263.518C70.5272 264.765 72.7906 265.412 75.0949 265.376L151.151 264.371V247.629L68.9967 236.171C68.9967 236.171 62.4657 236.426 60.7088 241.34" fill="white"/>
<path d="M74.9172 266.064C72.5327 266.071 70.1974 265.385 68.1951 264.09C63.9684 261.366 56.8263 255.561 56.4443 247.298C56.4374 247.114 56.5029 246.935 56.6268 246.8C56.7506 246.664 56.9229 246.582 57.1064 246.572C57.1971 246.567 57.2879 246.58 57.3734 246.611C57.4588 246.642 57.5372 246.69 57.6038 246.752C57.6704 246.813 57.7238 246.888 57.7608 246.971C57.7979 247.054 57.8177 247.144 57.8193 247.234C58.1758 254.873 64.936 260.36 68.9463 262.932C70.7613 264.127 72.8975 264.74 75.07 264.689L150.502 263.696V248.227L68.9336 236.769C68.9972 236.769 62.9754 237.088 61.3967 241.493C61.3668 241.578 61.3202 241.657 61.2598 241.724C61.1994 241.791 61.1263 241.846 61.0447 241.885C60.9631 241.924 60.8746 241.947 60.7843 241.951C60.6939 241.956 60.6036 241.943 60.5183 241.913C60.347 241.847 60.2078 241.717 60.1295 241.551C60.0513 241.385 60.04 241.196 60.0982 241.022C61.9824 235.738 68.7171 235.407 69.0099 235.407L151.278 246.865C151.444 246.89 151.595 246.972 151.705 247.098C151.814 247.224 151.875 247.386 151.877 247.553V264.37C151.877 264.551 151.806 264.724 151.68 264.852C151.554 264.981 151.382 265.055 151.202 265.058L75.0827 266.064H74.9172Z" fill="#263238"/>
<mask id="mask6_1767_1371" style="mask-type:luminance" maskUnits="userSpaceOnUse" x="57" y="236" width="95" height="30">
<mask id="mask7_1767_1371" style="mask-type:luminance" maskUnits="userSpaceOnUse" x="57" y="236" width="95" height="30">
<path d="M57.1313 247.273C57.4878 255.166 64.3244 260.78 68.5893 263.518C70.5272 264.765 72.7906 265.412 75.0949 265.376L151.151 264.371V247.629L68.9967 236.171C68.9967 236.171 62.4657 236.426 60.7088 241.34" fill="white"/>
</mask>
<g mask="url(#mask7_1767_1371)">
<path d="M74.9172 266.064C72.5327 266.071 70.1974 265.386 68.1951 264.091C63.9684 261.366 56.8263 255.561 56.4443 247.298C56.4374 247.115 56.5029 246.936 56.6268 246.8C56.7506 246.664 56.9229 246.583 57.1064 246.573C57.1971 246.567 57.2879 246.581 57.3734 246.611C57.4588 246.642 57.5372 246.69 57.6038 246.752C57.6704 246.814 57.7238 246.888 57.7608 246.971C57.7979 247.054 57.8177 247.144 57.8193 247.235C58.1758 254.873 64.936 260.36 68.9463 262.932C70.7613 264.127 72.8975 264.74 75.07 264.689L150.502 263.696V248.228L68.9336 236.77C68.9972 236.77 62.9754 237.088 61.3967 241.493C61.3668 241.578 61.3202 241.657 61.2598 241.724C61.1994 241.792 61.1263 241.846 61.0447 241.885C60.9631 241.924 60.8746 241.947 60.7843 241.952C60.6939 241.956 60.6036 241.943 60.5183 241.913C60.347 241.847 60.2078 241.718 60.1295 241.552C60.0513 241.386 60.04 241.196 60.0982 241.022C61.9824 235.738 68.7171 235.407 69.0099 235.407L151.278 246.865C151.444 246.89 151.595 246.972 151.705 247.099C151.814 247.225 151.875 247.386 151.877 247.553V264.371C151.877 264.551 151.806 264.724 151.68 264.852C151.554 264.981 151.382 265.055 151.202 265.058L75.0827 266.064H74.9172Z" fill="white"/>
</g>
</mask>
<g mask="url(#mask6_1767_1371)">
<path d="M69.0349 236.12C69.0349 236.12 62.5039 236.375 60.747 241.289L57.1313 247.273C57.4878 255.166 64.3244 260.78 68.5893 263.518C70.5272 264.765 72.7906 265.412 75.0949 265.376L151.151 264.371V251.639C149.572 249.832 148.07 248.177 147.038 247.044L145.294 246.789L141.386 260.208C141.386 260.208 95.783 259.164 82.1098 256.706C68.4366 254.249 64.2226 251.449 63.8661 245.134C63.7935 243.298 64.2399 241.478 65.1541 239.884C66.0683 238.289 67.4133 236.985 69.0349 236.12Z" fill="#550000"/>
<path opacity="0.5" d="M69.0349 236.12C69.0349 236.12 62.5039 236.375 60.747 241.289L57.1313 247.273C57.4878 255.166 64.3244 260.78 68.5893 263.518C70.5272 264.765 72.7906 265.412 75.0949 265.376L151.151 264.371V251.639C149.572 249.832 148.07 248.177 147.038 247.044L145.294 246.789L141.386 260.208C141.386 260.208 95.783 259.164 82.1098 256.706C68.4366 254.249 64.2226 251.449 63.8661 245.134C63.7935 243.298 64.2399 241.478 65.1541 239.884C66.0683 238.289 67.4133 236.985 69.0349 236.12Z" fill="white"/>
</g>
<path d="M145.689 245.541L145.167 270.099L170.247 264.905C170.247 264.905 183.067 265.949 185.945 265.695C188.822 265.44 191.177 261.239 191.177 259.151V254.44C191.749 254.016 192.214 253.463 192.532 252.826C192.851 252.189 193.014 251.486 193.01 250.774C192.756 248.686 188.567 247.374 188.567 247.374C188.567 247.374 176.536 244.752 173.124 245.541C169.713 246.331 145.689 245.541 145.689 245.541Z" fill="#550000"/>
<path d="M145.167 270.825C145.01 270.828 144.856 270.774 144.735 270.673C144.655 270.605 144.592 270.521 144.548 270.427C144.504 270.332 144.481 270.229 144.48 270.125L145.002 245.529C145.012 245.346 145.089 245.174 145.218 245.045C145.28 244.976 145.357 244.923 145.444 244.89C145.53 244.857 145.623 244.844 145.715 244.854C154.016 245.121 170.388 245.478 173.01 244.854C176.524 244.039 188.288 246.585 188.746 246.687C189.204 246.789 193.431 248.215 193.737 250.672C193.78 251.461 193.636 252.248 193.315 252.97C192.994 253.692 192.506 254.327 191.891 254.822V259.215C191.891 261.506 189.344 266.128 186.022 266.446C183.233 266.7 171.597 265.771 170.311 265.669L145.282 270.876L145.167 270.825ZM146.364 246.254L145.88 269.285L170.146 264.192H170.35C170.477 264.192 183.081 265.224 185.92 264.982C188.402 264.753 190.528 260.908 190.528 259.125V254.415C190.528 254.308 190.554 254.203 190.602 254.107C190.651 254.012 190.722 253.93 190.808 253.868C190.808 253.868 192.578 252.493 192.374 250.838C192.209 249.564 189.624 248.393 188.402 248.011C185.156 247.311 175.989 245.567 173.329 246.191C170.159 246.942 150.425 246.382 146.364 246.254Z" fill="#263238"/>
<path d="M68.5135 200.269L112.461 180.129C112.461 180.129 114.295 178.856 111.417 178.55C108.522 178.54 105.631 178.804 102.786 179.34C102.786 179.34 93.5047 166.137 91.6714 165.615C89.8381 165.093 88.7942 165.615 88.5396 166.672L88.2722 167.716C88.2722 167.716 73.2241 172.006 67.4569 179.594C61.6897 187.182 68.5135 200.269 68.5135 200.269Z" fill="#550000"/>
<path d="M68.5137 200.957C68.3878 200.957 68.2642 200.923 68.1565 200.858C68.0487 200.793 67.9609 200.7 67.9026 200.588C67.6098 200.04 60.9642 187.029 66.9096 179.187C72.2948 172.096 85.2424 167.907 87.6995 167.169L87.865 166.494C87.9327 166.199 88.0603 165.922 88.2399 165.679C88.4195 165.436 88.6473 165.232 88.9089 165.081C89.3681 164.864 89.8658 164.742 90.3729 164.72C90.88 164.698 91.3864 164.777 91.8625 164.954C93.7085 165.488 100.622 175.138 103.091 178.589C105.856 178.065 108.667 177.822 111.481 177.863C112.321 177.939 113.454 178.143 113.696 179.021C113.938 179.9 113.047 180.562 112.869 180.689H112.754L68.7938 200.83C68.7141 200.898 68.6171 200.942 68.5137 200.957ZM90.373 166.099C90.107 166.089 89.843 166.15 89.6091 166.278C89.5048 166.336 89.4143 166.416 89.344 166.513C89.2737 166.61 89.2251 166.721 89.2017 166.838L88.9471 167.882C88.9165 167.999 88.8558 168.107 88.771 168.194C88.6861 168.281 88.5801 168.345 88.4633 168.378C88.3105 168.378 73.5552 172.707 68.0172 180.014C63.2558 186.291 67.6352 196.769 68.832 199.366L112.118 179.531L112.258 179.403C111.967 179.318 111.669 179.262 111.367 179.238C108.535 179.232 105.709 179.492 102.926 180.014C102.796 180.038 102.663 180.025 102.541 179.975C102.419 179.926 102.314 179.842 102.238 179.734C97.7952 173.369 92.5627 166.672 91.4933 166.278C91.1294 166.169 90.7526 166.109 90.373 166.099Z" fill="#263238"/>
<path d="M89.736 187.347C89.6199 187.346 89.5058 187.316 89.4037 187.261C89.3017 187.205 89.2147 187.126 89.1504 187.029C88.743 186.393 85.1528 180.664 85.1528 177.99C85.1528 175.558 88.4502 173.496 89.9015 172.707L88.2592 169.422C88.1782 169.253 88.1675 169.059 88.2296 168.882C88.2917 168.706 88.4214 168.561 88.5902 168.48C88.759 168.399 88.9531 168.388 89.1298 168.45C89.3065 168.512 89.4513 168.642 89.5323 168.811L91.4929 172.707C91.5636 172.878 91.5636 173.07 91.4929 173.241C91.4655 173.329 91.4194 173.41 91.3579 173.478C91.2963 173.546 91.2208 173.6 91.1364 173.636C89.9525 174.209 86.5532 176.182 86.5532 177.99C86.5532 179.951 89.2904 184.636 90.3726 186.278C90.4684 186.434 90.4994 186.621 90.459 186.8C90.4185 186.978 90.3098 187.134 90.1561 187.233C90.0296 187.31 89.884 187.349 89.736 187.347Z" fill="#263238"/>
<path d="M75.4511 193.407C75.3273 193.405 75.2062 193.371 75.0992 193.309C74.9922 193.246 74.903 193.158 74.84 193.051C74.7 192.784 71.3008 186.571 71.3008 183.184C71.4169 180.857 72.3139 178.637 73.847 176.882C73.9757 176.755 74.1496 176.683 74.3308 176.683C74.512 176.683 74.6858 176.755 74.8146 176.882C74.9429 177.013 75.0147 177.189 75.0147 177.373C75.0147 177.556 74.9429 177.732 74.8146 177.863C73.5112 179.364 72.7373 181.251 72.6121 183.235C72.6121 186.265 75.9604 192.364 75.9858 192.427C76.0308 192.506 76.0596 192.594 76.0705 192.684C76.0814 192.775 76.0742 192.867 76.0493 192.954C76.0244 193.042 75.9823 193.124 75.9256 193.195C75.8688 193.266 75.7984 193.325 75.7185 193.369C75.6324 193.398 75.5418 193.411 75.4511 193.407Z" fill="#263238"/>
<path d="M68.9579 197.087C68.8137 197.074 68.6773 197.015 68.5682 196.92C68.4592 196.825 68.383 196.697 68.3505 196.556C68.318 196.415 68.331 196.267 68.3875 196.134C68.444 196.001 68.5411 195.889 68.6651 195.814L93.9872 184.127C94.1561 184.049 94.3488 184.042 94.5231 184.106C94.6974 184.17 94.8389 184.302 94.9166 184.47C94.9943 184.639 95.0017 184.832 94.9372 185.006C94.8728 185.181 94.7417 185.322 94.5729 185.4L69.238 197.1C69.1446 197.113 69.0496 197.109 68.9579 197.087Z" fill="#263238"/>
<path d="M242.204 420.327C242.204 419.588 242.293 418.837 242.293 418.086C242.293 400.262 225.551 385.838 204.889 385.838C184.226 385.838 167.472 400.275 167.472 418.086C167.472 418.837 167.472 419.588 167.574 420.327H242.204Z" fill="white"/>
<path d="M242.203 421.052H167.574C167.4 421.053 167.232 420.987 167.105 420.869C166.977 420.751 166.899 420.589 166.886 420.416C166.822 419.55 166.784 418.824 166.784 418.124C166.784 399.969 183.882 385.189 204.888 385.189C225.895 385.189 242.993 399.969 242.993 418.124C242.993 418.811 242.993 419.55 242.891 420.416C242.875 420.588 242.796 420.748 242.669 420.866C242.542 420.983 242.376 421.05 242.203 421.052ZM168.21 419.677H241.541C241.541 419.104 241.541 418.608 241.541 418.124C241.541 400.721 225.067 386.576 204.825 386.576C184.582 386.576 168.095 400.721 168.095 418.124C168.159 418.608 168.185 419.117 168.21 419.677Z" fill="#263238"/>
<path d="M242.204 423.433C242.204 422.682 242.293 421.943 242.293 421.192C242.293 403.369 225.551 388.944 204.889 388.944C184.226 388.944 167.472 403.381 167.472 421.192C167.472 421.943 167.472 422.682 167.574 423.433H242.204Z" fill="white"/>
<path d="M242.203 424.146H167.574C167.4 424.146 167.232 424.081 167.105 423.963C166.977 423.845 166.899 423.683 166.886 423.509C166.822 422.644 166.784 421.905 166.784 421.218C166.784 403.051 183.882 388.282 204.888 388.282C225.895 388.282 242.993 403.051 242.993 421.218C242.993 421.905 242.993 422.631 242.891 423.509C242.875 423.682 242.796 423.842 242.669 423.96C242.542 424.077 242.376 424.144 242.203 424.146ZM168.21 422.758H241.541C241.541 422.198 241.541 421.689 241.541 421.218C241.541 403.814 225.067 389.657 204.825 389.657C184.582 389.657 168.159 403.776 168.159 421.192C168.159 421.676 168.185 422.173 168.21 422.733V422.758Z" fill="#263238"/>
<path d="M204.888 388.944C192.157 388.944 180.915 394.431 174.155 402.808L182.927 409.734C185.439 406.617 188.617 404.103 192.228 402.375C195.838 400.648 199.79 399.751 203.793 399.751C207.796 399.751 211.748 400.648 215.359 402.375C218.97 404.103 222.148 406.617 224.66 409.734L236.118 403.369C229.37 394.673 217.899 388.944 204.888 388.944Z" fill="#550000"/>
<path d="M224.66 410.435C224.556 410.436 224.453 410.413 224.36 410.366C224.267 410.32 224.187 410.251 224.126 410.167C221.678 407.13 218.582 404.68 215.063 402.997C211.545 401.313 207.694 400.44 203.794 400.44C199.894 400.44 196.043 401.313 192.525 402.997C189.006 404.68 185.91 407.13 183.462 410.167C183.35 410.307 183.187 410.398 183.008 410.419C182.83 410.441 182.65 410.391 182.508 410.282L173.723 403.343C173.581 403.23 173.489 403.065 173.468 402.885C173.454 402.702 173.509 402.521 173.621 402.376C180.751 393.54 192.438 388.257 204.889 388.257C217.62 388.257 229.524 393.757 236.615 402.949C236.672 403.029 236.713 403.12 236.735 403.216C236.757 403.312 236.759 403.412 236.742 403.509C236.723 403.608 236.682 403.701 236.623 403.783C236.563 403.864 236.487 403.931 236.398 403.98L224.94 410.345C224.854 410.393 224.759 410.424 224.66 410.435ZM203.794 399.066C207.804 399.059 211.766 399.933 215.401 401.627C219.035 403.321 222.253 405.793 224.826 408.869L235.011 403.178C228.123 394.686 216.932 389.645 204.876 389.645C193.1 389.645 182.037 394.521 175.124 402.72L182.762 408.792C185.345 405.733 188.566 403.278 192.2 401.597C195.833 399.917 199.791 399.053 203.794 399.066Z" fill="#263238"/>
<path d="M215.099 422.478C215 419.53 213.76 416.736 211.64 414.686C209.52 412.636 206.686 411.49 203.737 411.49C200.787 411.49 197.953 412.636 195.833 414.686C193.713 416.736 192.473 419.53 192.374 422.478C192.374 422.796 192.374 423.115 192.374 423.433H214.997C215.074 423.115 215.099 422.796 215.099 422.478Z" fill="#263238"/>
<path d="M215.048 424.146H192.425C192.252 424.144 192.086 424.077 191.959 423.96C191.832 423.842 191.753 423.682 191.737 423.509C191.737 423.178 191.737 422.847 191.737 422.504C191.839 419.376 193.153 416.41 195.402 414.233C197.65 412.056 200.658 410.839 203.787 410.839C206.917 410.839 209.924 412.056 212.173 414.233C214.421 416.41 215.736 419.376 215.837 422.504C215.837 422.847 215.837 423.178 215.837 423.509C215.831 423.605 215.806 423.698 215.762 423.782C215.718 423.867 215.657 423.942 215.583 424.002C215.508 424.061 215.423 424.105 215.331 424.13C215.238 424.155 215.142 424.16 215.048 424.146ZM193.074 422.758H214.411V422.504C214.411 419.674 213.287 416.961 211.287 414.96C209.286 412.959 206.572 411.835 203.743 411.835C200.913 411.835 198.2 412.959 196.199 414.96C194.198 416.961 193.074 419.674 193.074 422.504V422.758Z" fill="#263238"/>
</svg>
