<svg width="545" height="389" viewBox="0 0 545 389" fill="none" xmlns="http://www.w3.org/2000/svg">
<path d="M457.55 294.944L451.566 385.318C451.533 385.777 451.328 386.207 450.991 386.522C450.655 386.836 450.212 387.012 449.751 387.015C449.509 387.015 449.269 386.966 449.046 386.871C448.823 386.777 448.622 386.638 448.453 386.464C448.285 386.289 448.154 386.083 448.067 385.857C447.981 385.631 447.941 385.389 447.949 385.147L450.409 294.944H457.55Z" fill="black" stroke="black" stroke-linecap="round" stroke-linejoin="round"/>
<path d="M472.857 294.944L478.841 385.318C478.871 385.776 479.074 386.206 479.408 386.521C479.742 386.836 480.184 387.012 480.643 387.015C480.886 387.015 481.126 386.966 481.35 386.872C481.573 386.777 481.776 386.639 481.945 386.465C482.114 386.29 482.247 386.084 482.335 385.858C482.423 385.631 482.465 385.39 482.458 385.147L479.972 294.996L472.857 294.944Z" fill="black" stroke="black" stroke-linecap="round" stroke-linejoin="round"/>
<path d="M412.862 294.944L418.846 385.318C418.876 385.776 419.079 386.206 419.413 386.521C419.747 386.836 420.188 387.012 420.648 387.015C420.891 387.015 421.131 386.966 421.355 386.872C421.578 386.777 421.781 386.639 421.95 386.465C422.119 386.29 422.252 386.084 422.34 385.858C422.428 385.631 422.47 385.39 422.463 385.147L419.964 294.996L412.862 294.944Z" fill="black" stroke="black" stroke-linecap="round" stroke-linejoin="round"/>
<path d="M388.415 294.944L382.431 385.318C382.398 385.777 382.192 386.207 381.856 386.522C381.519 386.836 381.077 387.012 380.616 387.015C380.374 387.013 380.134 386.963 379.911 386.868C379.688 386.773 379.487 386.634 379.318 386.461C379.149 386.287 379.016 386.081 378.928 385.856C378.839 385.63 378.796 385.389 378.801 385.147L381.3 294.996L388.415 294.944Z" fill="black" stroke="black" stroke-linecap="round" stroke-linejoin="round"/>
<path d="M492.663 203.833C492.663 203.833 432.957 201.598 427.907 201.598C422.857 201.598 421.687 203.833 421.687 203.833L413.165 263.921C413.165 263.921 386.665 256.359 381.471 257.345C376.276 258.331 384.035 296.036 384.035 296.036H414.019L414.559 293.774H482.26L500.238 208.134C499.146 204.215 492.663 203.833 492.663 203.833Z" fill="white" stroke="black" stroke-linecap="round" stroke-linejoin="round"/>
<path d="M469.938 241.419C469.938 241.419 476.014 280.872 469.044 285.475C467.965 286.185 462.113 289.552 456.642 289C452.25 288.552 421.213 289 421.213 289C421.213 289 416.9 280.793 416.032 274.744C415.164 268.694 421.95 242.734 421.95 242.734L469.938 241.419Z" fill="white" stroke="black" stroke-linecap="round" stroke-linejoin="round"/>
<path d="M419.11 262.553C419.11 262.553 374.186 267.221 372.068 268.484C369.951 269.746 360.232 278.229 361.903 283.739C363.573 289.249 359.364 289.67 363.218 290.525C367.071 291.38 421.687 291.367 421.687 291.367" fill="#550000"/>
<path d="M419.11 262.553C419.11 262.553 374.186 267.221 372.068 268.484C369.951 269.746 360.232 278.229 361.903 283.739C363.573 289.249 359.364 289.67 363.218 290.525C367.071 291.38 421.687 291.367 421.687 291.367" stroke="black" stroke-linecap="round" stroke-linejoin="round"/>
<path d="M378.249 295.97H484.996V288H378.249V295.97Z" fill="white" stroke="black" stroke-linecap="round" stroke-linejoin="round"/>
<path d="M459.786 264.249H395.478C395.478 264.249 392.098 268.063 391.664 276.085C391.23 284.107 392.098 285.83 398.029 287.921C403.96 290.012 456.643 288.947 456.643 288.947" fill="#550000"/>
<path d="M459.786 264.249H395.478C395.478 264.249 392.098 268.063 391.664 276.085C391.23 284.107 392.098 285.83 398.029 287.921C403.96 290.012 456.643 288.947 456.643 288.947" stroke="black" stroke-linecap="round" stroke-linejoin="round"/>
<path d="M409.114 366.302L402.381 350.349L391.347 352.44L399.79 366.67L394.924 376.415L384.403 383.293C384.403 383.293 383.18 384.503 388.441 384.095C393.701 383.687 404.617 384.095 404.617 384.095L411.495 376.007C411.495 376.007 413.993 371.891 409.114 366.302Z" fill="white" stroke="black" stroke-linecap="round" stroke-linejoin="round"/>
<path d="M412.06 373.272L412.336 383.701H410.692L408.496 378.493L412.06 373.272Z" fill="black" stroke="black" stroke-linecap="round" stroke-linejoin="round"/>
<path d="M404.63 384.148L411.508 376.06C411.508 376.06 413.284 373.048 410.838 368.708C405.945 377.073 399.436 379.584 399.436 379.584L392.65 377.954L384.417 383.346C384.417 383.346 383.194 384.556 388.455 384.148C393.715 383.74 404.63 384.148 404.63 384.148Z" fill="black" stroke="black" stroke-linecap="round" stroke-linejoin="round"/>
<path d="M382.668 285.015L405.222 353.203L389.217 356.044L357.654 285.028C357.654 285.028 355.116 274.428 361.889 271.048C368.662 267.669 388.586 265.959 388.586 265.959" fill="#550000"/>
<path d="M382.668 285.015L405.222 353.203L389.217 356.044L357.654 285.028C357.654 285.028 355.116 274.428 361.889 271.048C368.662 267.669 388.586 265.959 388.586 265.959" stroke="black" stroke-linecap="round" stroke-linejoin="round"/>
<path d="M455.011 295.957C455.011 295.957 447.239 258.2 452.447 257.266C457.655 256.333 484.141 263.842 484.141 263.842L492.663 203.833C492.663 203.833 501.658 202.413 502.605 210.409C503.552 218.405 484.996 295.957 484.996 295.957H455.011Z" fill="black" stroke="black" stroke-linecap="round" stroke-linejoin="round"/>
<path d="M363.493 184.791L359.482 178.215C359.096 177.585 358.552 177.067 357.903 176.712C357.255 176.357 356.526 176.177 355.787 176.19L352.013 176.256L345.555 174.322C345.145 174.203 344.709 174.208 344.301 174.336C343.894 174.465 343.534 174.712 343.267 175.046L343.03 175.348L348.975 177.978L343.044 180.161L336.744 176.966C336.496 176.838 336.211 176.803 335.939 176.866C335.667 176.928 335.426 177.085 335.258 177.308C335.067 177.556 334.982 177.869 335.021 178.18C335.061 178.49 335.221 178.772 335.469 178.965L344.28 185.764C344.556 185.979 344.875 186.132 345.215 186.213C345.555 186.295 345.909 186.303 346.252 186.237L355.997 184.278L358.72 187.25L363.493 184.791Z" fill="white" stroke="black" stroke-linecap="round" stroke-linejoin="round"/>
<path d="M431.432 171.298L395.306 209.081L360.824 181.214L356.063 184.672L394.004 227.663L426.895 209.949L431.432 171.298Z" fill="white" stroke="black" stroke-linecap="round" stroke-linejoin="round"/>
<path d="M485.482 180.95L504.42 239.144L488.086 239.617L471.845 212.303C471.845 212.303 480.972 184.751 485.482 180.95Z" fill="white" stroke="black" stroke-linecap="round" stroke-linejoin="round"/>
<path d="M464.875 170.956L485.483 181.016L468.229 229.268L470.267 242.721L421.95 242.8L427.71 221.127L423.765 207.24C423.253 205.438 423.226 203.532 423.686 201.716L431.419 171.364L451.724 168.102L464.875 170.956Z" fill="white" stroke="black" stroke-linecap="round" stroke-linejoin="round"/>
<path d="M463.889 168.128C463.889 168.128 467.939 170.863 468.071 173.296C468.136 174.73 468.071 177.242 467.939 179.162C467.867 180.662 467.524 182.137 466.926 183.515L459.628 192.326L451.185 185.658L444.175 189.235C444.175 189.235 442.86 178.491 445.924 170.995C448.988 163.499 462.324 166.247 463.889 168.128Z" fill="white" stroke="black" stroke-linecap="round" stroke-linejoin="round"/>
<path d="M469.688 147.284C469.688 147.284 468.031 153.241 467.255 157.186C466.479 161.132 464.914 169.022 465.059 171.981C465.204 174.94 452.749 187.539 451.184 185.658C449.619 183.778 447.976 172.849 447.976 172.849L449.527 155.174C449.527 155.174 465.756 137.197 469.688 147.284Z" fill="white" stroke="black" stroke-linecap="round" stroke-linejoin="round"/>
<path d="M443.662 138.078C443.662 138.078 441.439 141.747 441.439 143.338C441.439 144.93 442.215 148.046 442.084 148.954C441.952 149.861 439.743 152.899 439.453 153.925C439.308 154.342 439.32 154.798 439.487 155.208C439.654 155.617 439.965 155.951 440.361 156.147C440.898 156.423 441.42 156.725 441.926 157.055C441.926 157.055 442.583 165.156 443.635 167.247C444.688 169.338 445.595 170.259 448.725 170.522C451.855 170.785 459.312 167.51 460.351 164.893C461.389 162.276 461.534 159.146 461.666 155.358C461.797 151.571 459.18 146.153 457.221 140.984C455.261 135.816 447.055 132.975 443.662 138.078Z" fill="white" stroke="black" stroke-linecap="round" stroke-linejoin="round"/>
<path d="M477.395 164.827C482.936 164.827 487.429 160.335 487.429 154.793C487.429 149.251 482.936 144.759 477.395 144.759C471.853 144.759 467.36 149.251 467.36 154.793C467.36 160.335 471.853 164.827 477.395 164.827Z" fill="black" stroke="black" stroke-linecap="round" stroke-linejoin="round"/>
<path d="M443.609 137.513C443.609 137.513 447.647 134.027 454.906 140.958C462.166 147.889 459.404 157.91 464.257 159.988C469.109 162.066 478.092 151.676 479.13 146.495C480.169 141.313 477.053 130.569 467.36 128.491C457.668 126.413 445.792 127.833 443.609 137.513Z" fill="black" stroke="black" stroke-linecap="round" stroke-linejoin="round"/>
<path d="M443.61 137.513C443.524 136.698 443.625 135.874 443.905 135.104C444.185 134.333 444.637 133.637 445.227 133.068C445.816 132.499 446.528 132.071 447.307 131.818C448.087 131.565 448.914 131.493 449.725 131.608C456.301 131.963 456.985 142.339 460.443 146.495C463.902 150.651 465.638 149.954 465.638 149.954C465.638 149.954 459.759 151.676 455.946 149.598C452.132 147.521 450.291 135.803 443.61 137.513Z" fill="black" stroke="black" stroke-linecap="round" stroke-linejoin="round"/>
<path d="M454.354 130.398C457.814 132.535 460.56 135.652 462.245 139.354C465.23 145.679 465.23 150.9 472.319 150.532C472.319 150.532 468.965 151.282 463.744 148.665C458.523 146.048 457.405 138.604 454.052 135.619C452.222 133.887 449.856 132.834 447.345 132.634" stroke="white" stroke-width="0.5" stroke-linecap="round" stroke-linejoin="round"/>
<path d="M479.131 146.495C479.131 146.495 478.829 155.99 471.543 157.989" stroke="white" stroke-width="0.5" stroke-linecap="round" stroke-linejoin="round"/>
<path d="M458.799 156.187C458.799 156.187 465.743 147.099 467.374 153.885C469.004 160.671 463.428 162.328 460.798 161.552C458.168 160.777 458.536 159.369 458.536 159.369" fill="white"/>
<path d="M458.799 156.187C458.799 156.187 465.743 147.099 467.374 153.885C469.004 160.671 463.428 162.328 460.798 161.552C458.168 160.777 458.536 159.369 458.536 159.369" stroke="black" stroke-linecap="round" stroke-linejoin="round"/>
<path d="M443.347 233.949C443.347 233.949 430.091 235.79 427.881 235.79C425.672 235.79 420.148 242.787 420.148 242.787H444.452L443.347 233.949Z" fill="white" stroke="black" stroke-linecap="round" stroke-linejoin="round"/>
<path d="M499.66 225.033L504.42 235.764C504.634 236.396 504.695 237.069 504.599 237.729C504.503 238.389 504.253 239.016 503.868 239.561C503.484 240.106 502.976 240.552 502.386 240.864C501.797 241.175 501.142 241.343 500.475 241.353L443.005 241.682L443.373 233.949L487.929 226.9" fill="white"/>
<path d="M499.66 225.033L504.42 235.764C504.634 236.396 504.695 237.069 504.599 237.729C504.503 238.389 504.253 239.016 503.868 239.561C503.484 240.106 502.976 240.552 502.386 240.864C501.797 241.175 501.142 241.343 500.475 241.353L443.005 241.682L443.373 233.949L487.929 226.9" stroke="black" stroke-linecap="round" stroke-linejoin="round"/>
<path d="M422.739 373.272L423.015 383.701H421.371L419.175 378.493L422.739 373.272Z" fill="black" stroke="black" stroke-linecap="round" stroke-linejoin="round"/>
<path d="M419.794 366.302L417.677 351.125L406.656 351.836L410.47 366.775L405.604 376.52L395.083 383.398C395.083 383.398 393.873 384.608 399.134 384.2C404.394 383.793 415.309 384.2 415.309 384.2L422.187 376.113C422.187 376.113 424.673 371.891 419.794 366.302Z" fill="white" stroke="black" stroke-linecap="round" stroke-linejoin="round"/>
<path d="M415.309 384.148L422.187 376.06C422.187 376.06 423.963 373.048 421.504 368.708C416.611 377.073 410.102 379.584 410.102 379.584L403.329 377.954L395.083 383.346C395.083 383.346 393.873 384.556 399.134 384.148C404.394 383.74 415.309 384.148 415.309 384.148Z" fill="black" stroke="black" stroke-linecap="round" stroke-linejoin="round"/>
<path d="M414.743 273.271L419.465 353.913L404.512 354.268L389.914 281.004C389.914 281.004 390.19 267.051 394.648 265.446C399.107 263.842 410.943 265.564 410.943 265.564" fill="#550000"/>
<path d="M414.743 273.271L419.465 353.913L404.512 354.268L389.914 281.004C389.914 281.004 390.19 267.051 394.648 265.446C399.107 263.842 410.943 265.564 410.943 265.564" stroke="black" stroke-linecap="round" stroke-linejoin="round"/>
<path d="M349.382 99.6902L367.938 151.703C367.938 151.703 365.492 163.473 358.127 162.986C350.763 162.5 348.803 152.189 346.844 150.716C344.884 149.243 341.938 137.96 341.938 137.96L349.382 99.6902Z" fill="white" stroke="black" stroke-linecap="round" stroke-linejoin="round"/>
<path d="M301.38 89.2612L271.212 100.15L282.785 183.804H337.217L349.382 99.69L316.82 89.4979L301.38 89.2612Z" fill="white" stroke="black" stroke-linecap="round" stroke-linejoin="round"/>
<path d="M304.287 103.596L308.64 110.158L304.866 165.814L310.415 180.306L316.11 166.208L311.231 110.987L315.15 101.505L309.718 94.3638L304.287 103.596Z" fill="#550000" stroke="black" stroke-linecap="round" stroke-linejoin="round"/>
<path d="M310.31 100.887L302.538 106.713L297.422 91.5232L300.986 83.8299L316.885 83.4485L320.765 86.9335L319.989 106.318L310.31 100.887Z" fill="white" stroke="black" stroke-linecap="round" stroke-linejoin="round"/>
<path d="M318.53 79.8845L317.32 89.6557L308.614 100.887L302.104 89.4979V71.1785C302.104 71.1785 313.506 74.0322 318.53 79.8845Z" fill="white" stroke="black" stroke-linecap="round" stroke-linejoin="round"/>
<path d="M297.633 59.5792C297.633 50.7022 304.103 43.5085 312.099 43.5085C320.095 43.5085 324.527 51.0967 324.527 59.9737C324.527 62.8406 323.935 67.7591 323.698 70.3762C323.291 74.8476 321.936 76.7413 319.293 80.7524C310.626 93.9035 303.511 74.6108 299.869 68.1274C298.394 65.5203 297.624 62.5743 297.633 59.5792Z" fill="white" stroke="black" stroke-linecap="round" stroke-linejoin="round"/>
<path d="M318.385 62.3669L319.608 71.5332L315.308 71.4149" fill="white"/>
<path d="M318.385 62.3669L319.608 71.5332L315.308 71.4149" stroke="black" stroke-linecap="round" stroke-linejoin="round"/>
<path d="M327.986 60.7759L307.312 60.8679C307.058 61.6719 307.019 62.5284 307.199 63.3522C307.379 64.1759 307.772 64.9381 308.338 65.5629C309.653 66.878 315.005 66.4177 315.86 66.0758C316.715 65.7338 317.175 61.9726 317.175 61.9726H318.714C318.714 61.9726 318.885 65.918 321.094 66.2467C323.304 66.5755 326.184 66.4703 326.736 66.0758C329.182 64.4319 327.986 60.7759 327.986 60.7759Z" fill="white" stroke="black" stroke-linecap="round" stroke-linejoin="round"/>
<path d="M300.184 69.6133C300.184 69.6133 304.84 79.1478 305.944 82.4488C307.049 85.7497 312.52 88.3273 318.056 86.4861C323.593 84.645 322.094 76.4519 322.094 76.4519C322.094 76.4519 316.215 71.4282 315.124 72.5065C314.032 73.5849 308.141 78.3851 307.772 77.2804C307.404 76.1757 304.84 69.5739 304.84 69.5739L303.643 64.8921L306.102 63.3139C306.457 63.0182 306.688 62.5999 306.749 62.1419C306.81 61.6839 306.696 61.2197 306.431 60.8415L305.274 59.1714C305.131 58.9668 305.031 58.7357 304.979 58.4918C304.927 58.2479 304.924 57.996 304.971 57.751C305.274 56.3176 306.102 53.3454 308.022 52.4906C310.652 51.3991 313.848 52.9903 316.794 53.7268C319.74 54.4633 322.936 51.8067 322.936 51.8067L324.251 56.1729C327.167 53.4365 329.238 49.9227 330.221 46.0466C331.694 39.7998 316.636 37.2354 311.81 37.2354C306.983 37.2354 299.329 39.8656 297.12 46.783C294.911 53.7005 298.882 68.3771 300.184 69.6133Z" fill="black" stroke="black" stroke-linecap="round" stroke-linejoin="round"/>
<path d="M312.099 46.0859C312.099 46.0859 314.834 50.1891 311.244 51.0439C307.654 51.8987 300.657 48.8213 297.58 50.0181" stroke="white" stroke-width="0.5" stroke-linecap="round" stroke-linejoin="round"/>
<path d="M305.943 55.1339C305.943 55.1339 300.315 54.45 298.053 56.8435" stroke="white" stroke-width="0.5" stroke-linecap="round" stroke-linejoin="round"/>
<path d="M319.489 75.8733C319.489 75.8733 315.346 78.03 313.295 75.4656" stroke="white" stroke-width="0.5" stroke-linecap="round" stroke-linejoin="round"/>
<path d="M300.881 66.707C300.881 66.707 296.817 62.2356 296.817 67.1147C296.817 71.9937 298.04 71.9937 300.473 73.6902C302.906 75.3867 303.735 73.2825 303.735 73.2825" fill="white"/>
<path d="M300.881 66.707C300.881 66.707 296.817 62.2356 296.817 67.1147C296.817 71.9937 298.04 71.9937 300.473 73.6902C302.906 75.3867 303.735 73.2825 303.735 73.2825" stroke="black" stroke-linecap="round" stroke-linejoin="round"/>
<path d="M355.143 369.853H355.327L354.972 368.064L337.218 183.817H282.785L264.887 369.839H265.084L276.631 370.826C276.631 370.826 289.44 327.822 289.44 324.613C289.44 321.404 293.096 291.735 293.096 291.735L311.257 227.887L327.315 291.735C327.315 291.735 330.971 321.47 330.971 324.613C330.971 327.756 343.793 370.852 343.793 370.852L354.656 369.918H355.143V369.853Z" fill="black" stroke="black" stroke-linecap="round" stroke-linejoin="round"/>
<path d="M333.154 194.654L321.042 211.947" stroke="white" stroke-width="0.5" stroke-linecap="round" stroke-linejoin="round"/>
<path d="M326.67 198.546L319.318 210.659" stroke="white" stroke-width="0.5" stroke-linecap="round" stroke-linejoin="round"/>
<path d="M292.082 197.692L302.879 209.357" stroke="white" stroke-width="0.5" stroke-linecap="round" stroke-linejoin="round"/>
<path d="M291.215 202.005L306.773 217.576" stroke="white" stroke-width="0.5" stroke-linecap="round" stroke-linejoin="round"/>
<path d="M286.021 185.58H334.022" stroke="white" stroke-width="0.5" stroke-linecap="round" stroke-linejoin="round"/>
<path d="M265.084 369.84C265.084 369.84 258.153 375.297 254.155 376.796C250.157 378.296 242.688 382.281 242.688 382.281C242.688 382.281 242.687 384.779 249.171 384.779H274.618L274.184 369.84H265.084Z" fill="black" stroke="black" stroke-linecap="round" stroke-linejoin="round"/>
<path d="M274.527 382.057C264.365 382.521 254.184 382.359 244.043 381.57L242.728 382.28C242.728 382.28 242.728 384.779 249.211 384.779H274.658L274.527 382.057Z" fill="white" stroke="black" stroke-linecap="round" stroke-linejoin="round"/>
<path d="M354.09 369.84C354.09 369.84 361.034 375.297 365.018 376.796C369.003 378.296 376.499 382.281 376.499 382.281C376.499 382.281 376.499 384.779 370.003 384.779H344.568L345.029 369.84H354.09Z" fill="black" stroke="black" stroke-linecap="round" stroke-linejoin="round"/>
<path d="M344.647 382.057C354.809 382.521 364.99 382.359 375.131 381.57L376.447 382.28C376.447 382.28 376.447 384.779 369.95 384.779H344.568L344.647 382.057Z" fill="white" stroke="black" stroke-linecap="round" stroke-linejoin="round"/>
<path d="M271.212 100.15L251.17 153.662H270.397L277.577 139.064L271.212 100.15Z" fill="white" stroke="black" stroke-linecap="round" stroke-linejoin="round"/>
<path d="M358.891 145.377C350.868 142.063 325.132 140.419 323.79 140.419C322.449 140.419 280.615 136.973 277.183 136.474C273.751 135.974 269.818 143.838 269.818 143.838L287.967 143.338L310.048 147.757C310.048 147.757 354.761 163.946 358.128 162.973C358.587 162.82 359.002 162.558 359.338 162.21" fill="white"/>
<path d="M358.891 145.377C350.868 142.063 325.132 140.419 323.79 140.419C322.449 140.419 280.615 136.973 277.183 136.474C273.751 135.974 269.818 143.838 269.818 143.838L287.967 143.338L310.048 147.757C310.048 147.757 354.761 163.946 358.128 162.973C358.587 162.82 359.002 162.558 359.338 162.21" stroke="black" stroke-linecap="round" stroke-linejoin="round"/>
<path d="M265.399 142.865L334.574 136L335.074 141.879L275.21 160.04C275.21 160.04 264.426 162.486 256.075 161.013C247.724 159.54 251.669 151.203 253.629 146.297" fill="white"/>
<path d="M265.399 142.865L334.574 136L335.074 141.879L275.21 160.04C275.21 160.04 264.426 162.486 256.075 161.013C247.724 159.54 251.669 151.203 253.629 146.297" stroke="black" stroke-linecap="round" stroke-linejoin="round"/>
<path d="M334.588 136L347.831 135.5L351.75 143.352L335.074 141.892L334.588 136Z" fill="white" stroke="black" stroke-linecap="round" stroke-linejoin="round"/>
<path d="M422.792 251.388L434.089 385.884C434.119 386.084 434.189 386.277 434.296 386.449C434.402 386.621 434.543 386.77 434.71 386.885C434.876 387.001 435.064 387.082 435.263 387.122C435.461 387.163 435.666 387.162 435.864 387.12C436.203 387.036 436.499 386.833 436.7 386.548C436.9 386.263 436.991 385.915 436.956 385.568L429.262 251.427L422.792 251.388Z" fill="black" stroke="black" stroke-linecap="round" stroke-linejoin="round"/>
<path d="M498.713 251.388L510.049 386.331C510.077 386.532 510.146 386.726 510.253 386.899C510.359 387.072 510.5 387.221 510.666 387.338C510.833 387.454 511.022 387.534 511.221 387.574C511.421 387.613 511.626 387.611 511.825 387.567C512.163 387.484 512.46 387.28 512.66 386.995C512.861 386.71 512.952 386.362 512.916 386.016L505.196 251.388H498.713Z" fill="black" stroke="black" stroke-linecap="round" stroke-linejoin="round"/>
<path d="M185.401 251.388L179.497 384.714C179.464 385.063 179.557 385.413 179.76 385.7C179.962 385.987 180.261 386.192 180.601 386.279C180.797 386.329 181.001 386.336 181.199 386.301C181.398 386.265 181.586 386.188 181.752 386.073C181.918 385.958 182.057 385.809 182.16 385.636C182.264 385.463 182.328 385.269 182.35 385.069L191.911 251.388H185.401Z" fill="black" stroke="black" stroke-linecap="round" stroke-linejoin="round"/>
<path d="M115.424 251.388L109.48 384.214C109.45 384.565 109.547 384.915 109.751 385.202C109.956 385.488 110.256 385.693 110.598 385.779C110.793 385.827 110.996 385.833 111.194 385.796C111.391 385.76 111.579 385.682 111.745 385.568C111.91 385.453 112.049 385.305 112.153 385.133C112.257 384.961 112.323 384.769 112.347 384.569L121.868 251.335L115.424 251.388Z" fill="black" stroke="black" stroke-linecap="round" stroke-linejoin="round"/>
<path d="M513.494 243.931H111.216V255.478H513.494V243.931Z" fill="#550000" stroke="black" stroke-linecap="round" stroke-linejoin="round"/>
<path d="M513.494 243.931H111.216V247.89H513.494V243.931Z" fill="black" stroke="black" stroke-linecap="round" stroke-linejoin="round"/>
<path d="M513.482 243.931H412.823V255.478H513.482V243.931Z" fill="black" stroke="black" stroke-linecap="round" stroke-linejoin="round"/>
<path d="M517.072 240.091H107.626V244.497H517.072V240.091Z" fill="#550000" stroke="black" stroke-linecap="round" stroke-linejoin="round"/>
<path d="M517.059 240.091H417.019V244.497H517.059V240.091Z" fill="black" stroke="black" stroke-linecap="round" stroke-linejoin="round"/>
<path d="M198.829 239.697H253.774C253.984 239.698 254.189 239.638 254.365 239.523C254.54 239.409 254.678 239.245 254.761 239.052L269.976 204.36C270.046 204.197 270.075 204.019 270.059 203.843C270.043 203.667 269.983 203.497 269.885 203.35C269.787 203.202 269.654 203.081 269.498 202.998C269.342 202.915 269.167 202.872 268.99 202.874H214.045C213.839 202.873 213.637 202.933 213.465 203.045C213.292 203.157 213.155 203.317 213.072 203.505L197.908 238.197C197.838 238.356 197.806 238.529 197.818 238.702C197.829 238.875 197.882 239.042 197.973 239.19C198.064 239.338 198.189 239.461 198.338 239.549C198.487 239.638 198.656 239.688 198.829 239.697Z" fill="white" stroke="black" stroke-linecap="round" stroke-linejoin="round"/>
<path d="M203.984 236.988H250.868C251.043 236.987 251.215 236.936 251.362 236.841C251.509 236.745 251.625 236.609 251.696 236.448L264.677 206.845C264.747 206.706 264.78 206.55 264.772 206.394C264.765 206.238 264.717 206.086 264.634 205.954C264.55 205.821 264.434 205.713 264.297 205.639C264.159 205.564 264.004 205.527 263.848 205.53H216.964C216.785 205.529 216.61 205.581 216.46 205.679C216.31 205.777 216.193 205.918 216.123 206.083L203.169 235.712C203.108 235.849 203.082 235.999 203.093 236.149C203.105 236.298 203.153 236.443 203.234 236.569C203.314 236.695 203.425 236.8 203.556 236.873C203.687 236.946 203.834 236.985 203.984 236.988Z" fill="#550000" stroke="black" stroke-linecap="round" stroke-linejoin="round"/>
<path d="M254.537 237.395H171.987V240.091H254.537V237.395Z" fill="white" stroke="black" stroke-linecap="round" stroke-linejoin="round"/>
<path d="M254.55 237.395H214.531V240.091H254.55V237.395Z" fill="white" stroke="black" stroke-linecap="round" stroke-linejoin="round"/>
<path d="M281.063 218.629H266.505V240.144H281.063V218.629Z" fill="white" stroke="black" stroke-linecap="round" stroke-linejoin="round"/>
<path d="M280.418 237.211H278.892C278.575 237.211 278.271 237.085 278.046 236.86C277.822 236.636 277.696 236.332 277.696 236.014C277.696 235.697 277.822 235.392 278.046 235.168C278.271 234.944 278.575 234.817 278.892 234.817H280.418C281.02 234.814 281.597 234.573 282.023 234.147C282.449 233.721 282.69 233.145 282.693 232.542V227.282C282.69 226.68 282.449 226.103 282.023 225.677C281.597 225.251 281.02 225.01 280.418 225.007H278.458C278.301 225.007 278.146 224.976 278.001 224.916C277.855 224.856 277.723 224.767 277.612 224.656C277.501 224.545 277.413 224.413 277.353 224.268C277.293 224.123 277.262 223.967 277.262 223.81C277.262 223.653 277.293 223.497 277.353 223.352C277.413 223.207 277.501 223.075 277.612 222.964C277.723 222.853 277.855 222.765 278.001 222.704C278.146 222.644 278.301 222.613 278.458 222.613H280.418C281.031 222.613 281.638 222.734 282.205 222.969C282.771 223.203 283.286 223.547 283.719 223.981C284.153 224.414 284.497 224.929 284.731 225.495C284.966 226.062 285.087 226.669 285.087 227.282V232.542C285.087 233.155 284.966 233.763 284.731 234.329C284.497 234.895 284.153 235.41 283.719 235.844C283.286 236.277 282.771 236.621 282.205 236.856C281.638 237.09 281.031 237.211 280.418 237.211Z" fill="white" stroke="black" stroke-linecap="round" stroke-linejoin="round"/>
<path d="M394.807 239.697H339.862C339.654 239.695 339.452 239.634 339.279 239.52C339.106 239.405 338.97 239.243 338.888 239.052L323.673 204.36C323.603 204.198 323.575 204.022 323.59 203.846C323.605 203.671 323.664 203.502 323.76 203.355C323.856 203.208 323.988 203.087 324.142 203.003C324.297 202.919 324.47 202.874 324.646 202.874H379.591C379.799 202.873 380.002 202.932 380.177 203.044C380.352 203.156 380.491 203.316 380.577 203.505L395.793 238.197C395.862 238.361 395.89 238.539 395.874 238.716C395.858 238.892 395.799 239.063 395.701 239.211C395.604 239.359 395.471 239.481 395.315 239.566C395.159 239.651 394.984 239.695 394.807 239.697Z" fill="white" stroke="black" stroke-linecap="round" stroke-linejoin="round"/>
<path d="M339.098 240.091H421.647V237.395H339.098V240.091Z" fill="white" stroke="black" stroke-linecap="round" stroke-linejoin="round"/>
<path d="M339.098 240.091H396.016V237.395H339.098V240.091Z" fill="white" stroke="black" stroke-linecap="round" stroke-linejoin="round"/>
<path d="M360.64 217.274C360.938 217.837 361.063 218.475 360.999 219.109C360.936 219.743 360.686 220.344 360.283 220.837C359.879 221.329 359.339 221.692 358.73 221.879C358.121 222.066 357.47 222.069 356.86 221.888C356.249 221.707 355.706 221.349 355.297 220.86C354.889 220.371 354.634 219.773 354.564 219.14C354.495 218.507 354.614 217.867 354.906 217.301C355.198 216.735 355.651 216.268 356.208 215.959C356.97 215.547 357.865 215.454 358.696 215.701C359.526 215.947 360.226 216.513 360.64 217.274Z" fill="white" stroke="black" stroke-linecap="round" stroke-linejoin="round"/>
<path d="M103.707 115.155L107.758 155.174L126.169 208.475L119.87 212.078L98.2497 163.288L87.4526 121.402C87.4526 121.402 86.5452 108.803 91.056 106.936C95.5668 105.068 101.906 107.054 103.707 115.155Z" fill="white" stroke="black" stroke-linecap="round" stroke-linejoin="round"/>
<path d="M126.223 208.528C126.223 208.528 130.274 217.089 130.734 219.338C131.194 221.587 131.655 226.176 129.879 228.228C127.736 230.7 125.776 228.793 125.776 228.793C125.776 228.793 120.371 227.478 120.371 222.941C120.371 218.404 119.924 212.131 119.924 212.131L126.223 208.528Z" fill="white" stroke="black" stroke-linecap="round" stroke-linejoin="round"/>
<path d="M121.804 221.955L129.392 223.928" stroke="black" stroke-linecap="round" stroke-linejoin="round"/>
<path d="M123.618 216.839L125.775 220.232C125.775 220.232 120.752 228.82 123.448 226.571C126.144 224.322 131.18 221.587 130.733 219.338C129.972 216.978 128.967 214.704 127.735 212.552" fill="white"/>
<path d="M123.618 216.839L125.775 220.232C125.775 220.232 120.752 228.82 123.448 226.571C126.144 224.322 131.18 221.587 130.733 219.338C129.972 216.978 128.967 214.704 127.735 212.552" stroke="black" stroke-linecap="round" stroke-linejoin="round"/>
<path d="M82.1795 67.0615C82.1795 67.0615 77.5503 62.0641 66.8716 65.273C56.1929 68.4819 53.7205 85.5783 54.0493 94.1133C54.3781 102.648 62.5975 112.275 60.112 116.549C57.6264 120.823 48.3549 130.792 49.0651 141.536C49.7752 152.281 58.6785 160.763 71.5008 156.844C84.3231 152.925 82.1795 137.236 79.6282 131.502C77.0768 125.768 82.4819 123.309 84.2573 110.841C86.0327 98.3743 74.6439 88.0507 74.6439 79.1474C74.6439 70.2441 83.8496 71.6776 83.8496 71.6776L82.1795 67.0615Z" fill="black" stroke="black" stroke-linecap="round" stroke-linejoin="round"/>
<path d="M66.1345 100.86C67.8178 104.332 69.7773 108.041 71.7237 112.039C78.2203 125.295 73.144 130.082 63.2675 137.42C53.3911 144.758 55.6531 153.78 58.1912 155.174" stroke="white" stroke-width="0.5" stroke-linecap="round" stroke-linejoin="round"/>
<path d="M78.7868 70.573C78.7868 70.573 65.5305 71.704 62.1375 80.1601C60.086 85.3022 61.6641 91.0624 64.6888 97.7694" stroke="white" stroke-width="0.5" stroke-linecap="round" stroke-linejoin="round"/>
<path d="M69.0938 151.873C70.1136 152.256 71.2013 152.426 72.2895 152.373" stroke="white" stroke-width="0.5" stroke-linecap="round" stroke-linejoin="round"/>
<path d="M82.1802 69.6917C82.1802 69.6917 69.7656 71.9405 66.9512 80.9621C64.1369 89.9838 80.773 103.319 81.6147 113.13C82.4564 122.94 70.6072 128.674 66.3989 136.289C63.4399 141.628 63.7687 147.507 66.8855 150.466" stroke="white" stroke-width="0.5" stroke-linecap="round" stroke-linejoin="round"/>
<path d="M114.031 251.269C114.031 251.269 110.967 277.729 107.89 286.172C104.813 294.615 97.9214 360.962 97.54 364.802C97.1586 368.642 107.509 377.453 111.73 380.149C115.952 382.845 114.031 383.595 109.429 383.976C104.826 384.358 99.46 383.595 97.1586 379.373C94.8572 375.152 89.4784 374.008 89.4784 374.008L88.7156 383.214H87.1769L86.0328 371.706C85.6417 369.094 86.0401 366.424 87.1769 364.039C89.097 359.818 89.8072 350.993 89.8072 339.052C89.8072 327.111 87.5057 307.976 88.6499 298.77C89.794 289.565 94.41 282.66 94.41 274.993C94.41 267.326 94.7914 255.819 94.7914 255.819L114.031 251.269Z" fill="white" stroke="black" stroke-linecap="round" stroke-linejoin="round"/>
<path d="M86.0325 371.706C85.727 369.727 85.8937 367.704 86.5191 365.801C88.8994 369.825 95.7248 375.283 100.985 377.453C103.837 378.688 106.947 379.212 110.046 378.979C110.664 379.439 111.243 379.833 111.73 380.149C115.951 382.779 114.031 383.595 109.428 383.976C104.825 384.357 99.4597 383.595 97.1583 379.373C94.8568 375.152 89.478 374.008 89.478 374.008L88.7153 383.213H87.1766L86.0325 371.706Z" fill="black" stroke="black" stroke-linecap="round" stroke-linejoin="round"/>
<path d="M91.7799 255.49C91.7799 255.49 85.2043 275.046 79.1285 291.919C73.0527 308.792 58.4156 347.535 56.8769 354.439C55.3382 361.343 54.5755 374.008 50.3014 380.531C46.0273 387.054 41.8584 390.118 42.6211 378.611C43.3839 367.104 50.3014 358.661 51.8269 349.836C53.3524 341.012 54.1283 309.186 59.494 294.996C64.8596 280.806 70.6198 269.299 71.3299 265.078C71.8544 260.877 72.1092 256.647 72.0927 252.413L91.7799 255.49Z" fill="white" stroke="black" stroke-linecap="round" stroke-linejoin="round"/>
<path d="M43.4104 373.679C43.467 375.848 44.1423 377.956 45.3567 379.755C47.5661 382.227 51.1301 377.427 52.9844 374.494C52.3777 376.609 51.4932 378.635 50.3541 380.518C46.1326 387.027 41.9111 390.105 42.6739 378.597C42.8008 376.942 43.0469 375.299 43.4104 373.679Z" fill="black" stroke="black" stroke-linecap="round" stroke-linejoin="round"/>
<path d="M88.7555 101.123C88.7555 101.123 86.4541 103.043 84.9154 116.089C83.3767 129.135 92.977 169.785 92.977 169.785C92.977 169.785 76.4856 196.797 72.6455 210.224C68.8053 223.651 66.5039 273.954 66.5039 273.954C66.5039 273.954 74.5655 277.032 91.057 278.176C107.548 279.32 116.373 275.112 116.373 275.112C116.373 275.112 117.136 203.32 117.136 192.26C117.136 181.2 117.911 156.042 119.056 152.978C120.2 149.913 123.658 141.852 123.658 138.787C123.658 135.723 100.592 103.043 100.592 103.043L88.7555 101.123Z" fill="white" stroke="black" stroke-linecap="round" stroke-linejoin="round"/>
<path d="M72.6054 210.224C75.6302 199.703 88.15 171.718 92.6214 166.905C99.4205 169.167 111.822 171.402 117.359 169.745C117.188 173.691 117.096 188.42 117.096 192.194C117.096 203.32 116.333 275.046 116.333 275.046C116.333 275.046 107.508 279.267 91.0169 278.11C74.5255 276.953 66.4639 273.889 66.4639 273.889C66.4639 273.889 68.7653 223.651 72.6054 210.224Z" fill="black" stroke="black" stroke-linecap="round" stroke-linejoin="round"/>
<path d="M97.2637 55.9095C97.2637 55.9095 101.38 46.9404 109.52 46.9404C117.661 46.9404 121.278 54.1735 119.476 60.4992C117.674 66.8249 124.894 65.0232 125.802 69.1C126.709 73.1768 119.923 75.8728 116.306 75.8728C112.69 75.8728 97.2637 55.9095 97.2637 55.9095Z" fill="black" stroke="black" stroke-linecap="round" stroke-linejoin="round"/>
<path d="M109.152 54.9889C111.572 53.6738 114.413 52.7269 115.728 54.7785C118.266 58.7238 110.375 61.8275 112.914 66.0621C115.452 70.2968 121.659 69.1658 121.37 70.573C121.08 71.9801 117.148 72.8218 117.148 72.8218" stroke="white" stroke-width="0.5" stroke-linecap="round" stroke-linejoin="round"/>
<path d="M105.01 57.856C105.01 57.856 105.786 57.1852 106.943 56.3699" stroke="white" stroke-width="0.5" stroke-linecap="round" stroke-linejoin="round"/>
<path d="M118.134 76.7805C117.559 76.3526 117.105 75.7813 116.819 75.1235C116.162 70.2708 114.741 65.4969 112.059 62.8141C108 58.9935 102.824 56.5738 97.2899 55.9098C95.6512 55.6682 93.9784 55.8215 92.4109 56.3569C85.4276 58.803 79.4308 63.6295 80.7196 75.2682C82.1399 88.0905 92.1215 91.2993 92.1215 91.2993L92.8317 99.19L102.8 103.819L103.155 95.2709C103.155 95.2709 109.915 98.1116 112.361 97.7565C114.807 97.4014 115.57 94.1926 116.635 89.5634C117.026 87.4511 117.22 85.307 117.214 83.1588L120.199 80.1867C121.896 78.4639 120.225 78.043 118.134 76.7805Z" fill="white" stroke="black" stroke-linecap="round" stroke-linejoin="round"/>
<path d="M80.6943 75.2682C79.3792 63.6295 85.4024 58.803 92.3856 56.3569C93.9532 55.8215 95.6259 55.6682 97.2647 55.9098C101.038 56.4142 104.67 57.6756 107.943 59.6184C105.944 59.2107 109.351 65.0892 106.221 68.8241C103.48 72.2913 99.9852 75.0887 96.0022 77.0041C96.0022 77.0041 92.4514 74.1503 91.373 78.0693C90.2946 81.9884 90.6629 84.829 93.5166 85.5523C96.3704 86.2756 97.462 85.5523 97.462 85.5523C97.462 85.5523 95.5682 90.0368 92.2015 91.8911V91.2467C92.2015 91.2467 82.1804 88.1036 80.6943 75.2682Z" fill="black" stroke="black" stroke-linecap="round" stroke-linejoin="round"/>
<path d="M107.89 101.505L105.983 111.868L85.6514 101.123L87.5714 91.5361L107.89 101.505Z" fill="white" stroke="black" stroke-linecap="round" stroke-linejoin="round"/>
<path d="M98.0665 188.88C100.172 189.331 102.309 189.621 104.458 189.748C106.128 189.643 108.403 187.762 110.087 188.565C111.77 189.367 114.124 194.43 114.124 194.43C114.124 194.43 116.36 195.561 115.715 196.758C115.071 197.954 112.309 199.059 112.309 199.059C112.309 199.059 109.679 201.545 108.153 201.795C106.628 202.044 97.3301 195.219 97.3301 195.219L98.0665 188.88Z" fill="white" stroke="black" stroke-linecap="round" stroke-linejoin="round"/>
<path d="M99.0523 193.799C99.3601 193.429 99.5813 192.995 99.6994 192.529C99.8176 192.062 99.8299 191.575 99.7353 191.104C99.6407 190.632 99.4416 190.187 99.1528 189.803C98.8639 189.418 98.4925 189.103 98.0659 188.88L72.5134 164.945L100.341 121.678C101.583 119.39 101.884 116.709 101.182 114.203C100.479 111.696 98.8275 109.562 96.5776 108.254C94.3277 106.945 91.6564 106.564 89.1304 107.192C86.6043 107.82 84.4224 109.407 83.0474 111.618L58.9283 159.553C57.6743 160.77 56.9493 162.432 56.9099 164.179C56.8705 165.926 57.52 167.618 58.7179 168.891L58.81 168.983C61.2298 172.718 87.8476 192.247 95.633 194.798C96.2378 194.99 96.8859 194.997 97.4948 194.819C98.1037 194.641 98.6459 194.286 99.0523 193.799Z" fill="white" stroke="black" stroke-linecap="round" stroke-linejoin="round"/>
<path d="M200.157 127.557C200.157 127.557 203.458 137.776 203.458 139.761C203.434 141.196 203.324 142.627 203.129 144.049L206.036 148.559C206.206 148.85 206.259 149.194 206.183 149.522C206.107 149.85 205.908 150.136 205.628 150.322L201.143 152.952C201.143 152.952 200.486 163.473 199.828 164.788C199.171 166.103 187.992 165.787 187.992 165.787L184.363 172.705L165.557 165.459L170.501 151.926L169.476 131.502C169.476 131.502 181.022 121.297 200.157 127.557Z" fill="white" stroke="black" stroke-linecap="round" stroke-linejoin="round"/>
<path d="M187.283 152.413C187.283 152.413 184.008 155.49 181.549 155.7C179.09 155.911 171.094 154.057 170.476 153.241C169.858 152.426 164.334 140.945 164.532 135.408C164.729 129.872 164.952 121.679 170.883 119.022C176.815 116.366 186.257 117.168 191.176 114.104C196.094 111.039 203.88 108.567 207.983 113.893C212.086 119.219 209.008 126.597 205.734 129.674C202.459 132.752 198.356 133.62 198.764 134.935C199.171 136.25 201.631 137.802 200.197 139.853C198.764 141.905 193.622 143.799 193.622 144.561C193.622 145.324 194.858 148.257 193.424 148.665C191.991 149.072 190.544 145.798 189.111 145.798C187.677 145.798 184.626 149.756 187.283 152.413Z" fill="black" stroke="black" stroke-linecap="round" stroke-linejoin="round"/>
<path d="M178.721 143.01C178.13 143.671 177.626 144.404 177.222 145.193" stroke="white" stroke-width="0.5" stroke-linecap="round" stroke-linejoin="round"/>
<path d="M205.655 121.771C205.395 124.028 204.572 126.183 203.262 128.04C201.953 129.896 200.198 131.394 198.159 132.397C192.898 135.119 185.889 137.341 181.233 140.761" stroke="white" stroke-width="0.5" stroke-linecap="round" stroke-linejoin="round"/>
<path d="M198.764 135.001C198.764 135.001 194.095 138.946 189.098 143.01C185.688 145.649 181.896 147.756 177.854 149.256" stroke="white" stroke-width="0.5" stroke-linecap="round" stroke-linejoin="round"/>
<path d="M186.954 152.965L189.584 153.623C189.425 154.852 189.519 156.101 189.861 157.293C190.202 158.485 190.784 159.595 191.57 160.553" fill="white"/>
<path d="M186.954 152.965L189.584 153.623C189.425 154.852 189.519 156.101 189.861 157.293C190.202 158.485 190.784 159.595 191.57 160.553" stroke="black" stroke-linecap="round" stroke-linejoin="round"/>
<path d="M190.005 145.903L208.574 141.3" stroke="black" stroke-linecap="round" stroke-linejoin="round"/>
<path d="M203.8 140.932L208.034 141.116C208.034 141.116 209.494 145.903 205.089 146.455" stroke="black" stroke-linecap="round" stroke-linejoin="round"/>
<path d="M185.073 368.301C185.073 368.301 202.169 379.098 205.181 379.098C208.192 379.098 209.692 381.807 208.192 382.109C206.693 382.412 197.382 382.701 191.096 383.004C184.81 383.306 180.575 382.701 176.985 382.701C173.395 382.701 169.173 383.004 167.371 382.109C165.57 381.215 168.581 370.997 168.581 369.195C168.581 367.393 182.969 367.091 185.073 368.301Z" fill="black" stroke="black" stroke-linecap="round" stroke-linejoin="round"/>
<path d="M207.114 379.545C200.473 381.728 189.702 380.295 183.232 379.703C178.116 379.243 170.081 379.137 166.806 379.111C166.675 380.65 166.806 381.82 167.319 382.11C169.121 383.004 173.329 382.701 176.933 382.701C180.536 382.701 184.731 383.306 191.044 383.004C197.356 382.701 206.654 382.399 208.14 382.11C209.311 381.873 208.758 380.321 207.114 379.545Z" fill="white" stroke="black" stroke-linecap="round" stroke-linejoin="round"/>
<path d="M198.579 294.129L185.086 361.791L187.9 368.814C185.881 371.738 182.833 373.795 179.365 374.574C175.509 375.332 171.591 375.737 167.661 375.784C167.661 375.784 166.162 368.274 167.069 367.367C167.977 366.46 168.266 362.869 168.266 362.869L176.064 294.72L198.579 294.129Z" fill="#550000" stroke="black" stroke-linecap="round" stroke-linejoin="round"/>
<path d="M239.702 366.013C239.702 366.013 250.223 374.719 255.023 376.218C259.823 377.717 264.926 379.216 264.926 380.716C264.926 382.215 253.524 383.714 244.818 382.82C236.112 381.925 222.895 378.02 219.896 378.02C216.898 378.02 217.49 370.208 217.49 369.011C217.49 367.814 232.206 358.201 239.702 366.013Z" fill="black" stroke="black" stroke-linecap="round" stroke-linejoin="round"/>
<path d="M264.979 380.716C264.979 380.176 264.308 379.637 263.243 379.098C254.65 380.248 245.938 380.186 237.362 378.914C228.722 377.678 221.488 376.021 217.793 375.1C218.109 376.718 218.727 378.02 219.95 378.02C222.948 378.02 236.165 381.965 244.871 382.82C253.577 383.675 264.979 382.215 264.979 380.716Z" fill="white" stroke="black" stroke-linecap="round" stroke-linejoin="round"/>
<path d="M187.48 263.802C196.482 263.113 205.53 263.316 214.492 264.407C229.8 266.209 264.006 268.353 264.598 272.219C265.189 276.085 238.059 357.346 238.059 359.437C238.059 361.528 240.452 363.645 241.057 364.842C241.439 365.695 241.645 366.617 241.662 367.551C241.662 367.551 234.311 375.442 228.603 377.586C222.896 379.729 218.082 377.717 216.899 377.717C215.715 377.717 215.702 369.616 216.609 365.71C217.517 361.804 219.003 351.901 219.305 351.007C219.608 350.113 236.047 292.327 236.047 292.327C236.047 292.327 191.333 299.534 164.623 296.522C137.913 293.511 135.204 289.329 133.705 283.016C132.206 276.704 135.204 264.105 135.204 264.105L187.48 263.802Z" fill="#550000" stroke="black" stroke-linecap="round" stroke-linejoin="round"/>
<path d="M184.1 283.253C183.494 284.131 182.816 284.958 182.075 285.725" stroke="black" stroke-linecap="round" stroke-linejoin="round"/>
<path d="M192.28 267.103C190.554 271.425 188.565 275.637 186.322 279.715" stroke="black" stroke-linecap="round" stroke-linejoin="round"/>
<path d="M188.702 270.115C185.08 276.09 179.595 280.711 173.092 283.266" stroke="black" stroke-linecap="round" stroke-linejoin="round"/>
<path d="M256.852 286.685C257.877 286.291 258.864 285.883 259.797 285.462L256.852 286.685Z" fill="white"/>
<path d="M256.852 286.685C257.877 286.291 258.864 285.883 259.797 285.462" stroke="black" stroke-linecap="round" stroke-linejoin="round"/>
<path d="M236.047 292.327C241.823 291.212 247.532 289.767 253.143 288L236.047 292.327Z" fill="white"/>
<path d="M236.047 292.327C241.823 291.212 247.532 289.767 253.143 288" stroke="black" stroke-linecap="round" stroke-linejoin="round"/>
<path d="M270.752 192.629C271.383 190.117 272.435 190.314 271.594 189.486C270.436 188.328 269.503 189.696 266.149 191.577C262.796 193.457 259.455 195.759 259.455 195.759C259.529 195.061 259.818 194.403 260.284 193.878C261.132 192.492 261.586 190.9 261.599 189.275C261.599 187.96 260.547 188.223 260.126 189.486C259.705 190.748 255.944 193.036 255.734 194.089C255.523 195.141 254.774 199.27 254.774 199.27C253.577 201.072 253.577 209.475 253.577 209.475L229.208 227.782L216.898 242.248C216.898 242.248 222.304 250.954 225.302 249.757C228.3 248.56 229.8 247.35 237.006 241.34C243.109 236.251 258.403 212.776 258.403 212.776C261.067 211.103 263.588 209.212 265.939 207.121C268.651 204.053 270.253 200.163 270.489 196.074C270.433 194.919 270.521 193.762 270.752 192.629Z" fill="white" stroke="black" stroke-linecap="round" stroke-linejoin="round"/>
<path d="M157.995 164.854C157.995 164.854 160.309 156.174 170.146 157.91C179.983 159.646 187.506 167.747 189.242 170.64C190.978 173.533 157.416 169.483 157.416 169.483L157.995 164.854Z" fill="white" stroke="black" stroke-linecap="round" stroke-linejoin="round"/>
<path d="M214.703 240.656C214.703 240.656 212.414 243.129 214.703 247.021C216.268 249.717 219.029 251.782 224.316 250.875C229.261 250.007 236.691 237.724 236.691 229.083C236.691 220.443 230.326 219.878 228.011 221.561C225.697 223.244 214.703 240.656 214.703 240.656Z" fill="white" stroke="black" stroke-linecap="round" stroke-linejoin="round"/>
<path d="M162.257 163.841C162.257 163.841 138.848 174.953 135.547 176.992C132.246 179.03 130.142 205.201 130.142 209.712C130.142 214.223 133.443 258.371 134.337 265.841C135.231 273.31 164.058 278.452 173.672 275.743C183.285 273.034 192.649 266.209 192.649 263.802C192.649 261.396 191.741 240.998 192.346 237.092C192.951 233.186 198.343 216.682 198.343 216.682L214.729 242.826C214.729 242.826 216.452 246.035 222.541 243.51C231.247 239.907 231.97 225.98 231.97 225.98C231.97 225.98 222.37 209.173 219.661 200.769C216.952 192.365 215.716 186.053 214.558 184.554C213.401 183.055 186.336 170.443 181.536 167.142C178.818 165.095 175.65 163.727 172.297 163.153C168.943 162.579 165.501 162.814 162.257 163.841Z" fill="white" stroke="black" stroke-linecap="round" stroke-linejoin="round"/>
<path d="M198.277 216.682L190.479 205.267" stroke="black" stroke-linecap="round" stroke-linejoin="round"/>
<path d="M197.014 215.051L183.271 208.279" stroke="black" stroke-linecap="round" stroke-linejoin="round"/>
<path d="M156.285 301.152L168.279 386.397C168.307 386.594 168.375 386.784 168.48 386.954C168.585 387.123 168.725 387.269 168.889 387.382C169.054 387.494 169.24 387.571 169.436 387.608C169.632 387.644 169.834 387.639 170.028 387.594C170.365 387.51 170.661 387.31 170.864 387.028C171.066 386.746 171.162 386.401 171.133 386.055L162.677 299.744L156.285 301.152Z" fill="black" stroke="black" stroke-linecap="round" stroke-linejoin="round"/>
<path d="M121.83 301.822L101.787 385.542C101.742 385.736 101.737 385.938 101.773 386.134C101.81 386.33 101.887 386.516 101.999 386.681C102.112 386.846 102.258 386.985 102.427 387.09C102.597 387.195 102.787 387.264 102.984 387.291C103.327 387.342 103.677 387.266 103.968 387.077C104.258 386.888 104.47 386.599 104.562 386.265L127.84 305.018L121.83 301.822Z" fill="black" stroke="black" stroke-linecap="round" stroke-linejoin="round"/>
<path d="M158.233 300.783L145.476 385.91C145.447 386.106 145.458 386.307 145.509 386.498C145.56 386.69 145.65 386.869 145.773 387.024C145.897 387.18 146.051 387.308 146.226 387.402C146.401 387.495 146.593 387.551 146.791 387.567C147.137 387.586 147.478 387.48 147.751 387.267C148.024 387.054 148.211 386.75 148.277 386.41L164.466 303.453L158.233 300.783Z" fill="black" stroke="black" stroke-linecap="round" stroke-linejoin="round"/>
<path d="M203.393 301.151L215.386 386.397C215.414 386.594 215.482 386.784 215.588 386.953C215.693 387.123 215.832 387.269 215.997 387.381C216.161 387.494 216.348 387.571 216.544 387.607C216.74 387.644 216.941 387.639 217.135 387.593C217.472 387.51 217.769 387.309 217.971 387.027C218.174 386.745 218.269 386.401 218.24 386.055L209.745 299.718L203.393 301.151Z" fill="black" stroke="black" stroke-linecap="round" stroke-linejoin="round"/>
<path d="M102.852 212.684L117.45 307.595H221.265C221.265 307.595 222.803 280.241 218.227 270.575C213.65 260.909 157.14 281.635 155.101 281.096C153.589 280.714 155.825 231.713 158.6 212.565C158.794 211.218 158.696 209.844 158.313 208.537C157.929 207.23 157.269 206.021 156.377 204.992C155.485 203.963 154.382 203.138 153.143 202.573C151.904 202.007 150.558 201.715 149.197 201.716H112.242C110.87 201.714 109.514 202.01 108.267 202.584C107.02 203.157 105.912 203.993 105.02 205.036C104.127 206.078 103.471 207.302 103.097 208.622C102.723 209.942 102.639 211.328 102.852 212.684Z" fill="#550000" stroke="black" stroke-linecap="round" stroke-linejoin="round"/>
<path d="M218.227 270.575C213.651 260.909 157.14 281.635 155.102 281.096C153.59 280.714 155.825 231.714 158.6 212.566C158.843 211.235 158.789 209.867 158.443 208.559C158.097 207.252 157.467 206.036 156.598 205C155.728 203.963 154.642 203.131 153.414 202.563C152.187 201.994 150.849 201.702 149.497 201.709C148.144 201.716 146.81 202.021 145.588 202.602C144.367 203.184 143.288 204.027 142.43 205.072C141.571 206.117 140.954 207.339 140.621 208.65C140.288 209.961 140.248 211.329 140.504 212.658L155.102 307.569H221.265C221.265 307.569 222.804 280.241 218.227 270.575Z" fill="black" stroke="black" stroke-linecap="round" stroke-linejoin="round"/>
<path d="M270.752 192.629C270.752 192.629 269.082 194.299 266.57 197.232L270.752 192.629Z" fill="white"/>
<path d="M270.752 192.629C270.752 192.629 269.082 194.299 266.57 197.232" stroke="black" stroke-linecap="round" stroke-linejoin="round"/>
<path d="M270.49 196.021C270.49 196.021 268.452 200.164 267.202 202.045L270.49 196.021Z" fill="white"/>
<path d="M270.49 196.021C270.49 196.021 268.452 200.164 267.202 202.045" stroke="black" stroke-linecap="round" stroke-linejoin="round"/>
</svg>
