<svg width="241" height="209" viewBox="0 0 241 209" fill="none" xmlns="http://www.w3.org/2000/svg">
<path d="M224.199 78.8766C228.557 63.508 231.669 48.9983 219.749 33.7043C204.89 14.6258 183.023 14.2896 160.527 19.6864C136.04 25.5687 111.975 35.2107 87.3255 24.0437C78.0881 19.8545 69.9463 13.4618 60.1051 10.7229C32.2996 3.0417 10.1772 28.015 3.87163 50.7101C-0.0124249 64.7959 -0.0382255 79.6668 3.79693 93.766C7.23916 106.433 19.7943 114.83 22.2343 127.597C25.4214 144.267 7.29518 161.297 26.3115 174.904C33.501 180.052 43.1492 181.465 52.1064 180.295C72.598 177.624 89.6784 164.509 107.998 156.585C126.211 148.705 147.063 144.279 165.744 153.342C176.743 158.677 192.335 166.912 204.803 160.874C217.912 154.531 225.538 140.395 223.894 126.968C222.587 116.225 217.583 105.051 220.066 94.1644C221.255 88.917 222.774 83.8501 224.199 78.8766Z" fill="#7A8590"/>
<path opacity="0.5" d="M224.199 78.8766C228.557 63.508 231.669 48.9983 219.749 33.7043C204.89 14.6258 183.023 14.2896 160.527 19.6864C136.04 25.5687 111.975 35.2107 87.3255 24.0437C78.0881 19.8545 69.9463 13.4618 60.1051 10.7229C32.2996 3.0417 10.1772 28.015 3.87163 50.7101C-0.0124249 64.7959 -0.0382255 79.6668 3.79693 93.766C7.23916 106.433 19.7943 114.83 22.2343 127.597C25.4214 144.267 7.29518 161.297 26.3115 174.904C33.501 180.052 43.1492 181.465 52.1064 180.295C72.598 177.624 89.6784 164.509 107.998 156.585C126.211 148.705 147.063 144.279 165.744 153.342C176.743 158.677 192.335 166.912 204.803 160.874C217.912 154.531 225.538 140.395 223.894 126.968C222.587 116.225 217.583 105.051 220.066 94.1644C221.255 88.917 222.774 83.8501 224.199 78.8766Z" fill="white"/>
<path d="M125.875 195.228C180.67 195.228 225.09 191.725 225.09 187.403C225.09 183.082 180.67 179.579 125.875 179.579C71.0806 179.579 26.6606 183.082 26.6606 187.403C26.6606 191.725 71.0806 195.228 125.875 195.228Z" fill="#7A8590"/>
<path opacity="0.3" d="M125.875 195.228C180.67 195.228 225.09 191.725 225.09 187.403C225.09 183.082 180.67 179.579 125.875 179.579C71.0806 179.579 26.6606 183.082 26.6606 187.403C26.6606 191.725 71.0806 195.228 125.875 195.228Z" fill="white"/>
<path d="M232.111 200.625H10.5137V207.677H232.111V200.625Z" fill="#7A8590"/>
<path opacity="0.5" d="M232.111 200.625H10.5137V207.677H232.111V200.625Z" fill="white"/>
<path d="M24.264 152.458C25.0637 151.848 25.7686 151.122 26.3555 150.305C26.5745 149.932 26.7102 149.517 26.7532 149.087C26.7962 148.657 26.7454 148.223 26.6045 147.815C26.5203 147.634 26.3991 147.473 26.2487 147.342C26.0983 147.21 25.922 147.112 25.7313 147.054C25.5407 146.995 25.3398 146.977 25.1417 147.001C24.9436 147.025 24.7528 147.09 24.5815 147.192C23.5606 147.815 23.4486 150 23.71 151.039C23.7349 151.101 24.2516 152.471 24.264 152.458Z" fill="#2E353A"/>
<path d="M8.90162 163.389C8.97009 163.451 10.1466 164.31 10.1466 164.291C10.1466 164.273 10.8064 162.281 10.7005 161.341C10.6806 160.91 10.5673 160.489 10.3685 160.106C10.1697 159.723 9.89004 159.389 9.54898 159.125C9.3801 159.018 9.19056 158.947 8.99269 158.918C8.79482 158.889 8.59305 158.902 8.40049 158.956C8.20793 159.01 8.02888 159.104 7.875 159.232C7.72112 159.359 7.59583 159.518 7.5073 159.697C7.0031 160.793 8.11109 162.66 8.90162 163.389Z" fill="#2E353A"/>
<path d="M43.7219 154.444C43.7219 154.444 37.6404 160.725 37.6715 168.437C37.7026 176.149 43.8401 182.38 43.8401 182.38C43.8401 182.38 49.9216 176.1 49.8905 168.387C49.8594 160.675 43.7219 154.444 43.7219 154.444Z" fill="#2E353A"/>
<path d="M35.0449 173.056C35.1255 172.969 35.2003 172.878 35.269 172.782C35.5312 172.436 35.7149 172.038 35.8073 171.615C35.8998 171.191 35.8988 170.752 35.8043 170.329C35.7436 170.138 35.6434 169.962 35.5102 169.813C35.3769 169.663 35.2136 169.543 35.031 169.461C34.8483 169.379 34.6504 169.336 34.4501 169.336C34.2498 169.335 34.0516 169.377 33.8684 169.458C33.0468 169.844 32.6235 171.17 32.5551 172.253C32.2251 172.178 31.9326 172.122 31.6711 172.078C31.5653 171.829 31.4533 171.587 31.3412 171.338C31.2292 171.089 31.1358 170.821 31.03 170.56C30.8868 170.174 30.7561 169.769 30.6254 169.364C31.4957 169.009 32.3061 168.522 33.0281 167.92C33.3392 167.619 33.5811 167.253 33.7369 166.849C33.8928 166.445 33.9589 166.012 33.9307 165.58C33.9 165.382 33.8279 165.192 33.7191 165.024C33.6103 164.856 33.4672 164.712 33.2992 164.603C33.1312 164.494 32.9421 164.421 32.7442 164.39C32.5462 164.359 32.3439 164.37 32.1504 164.422C30.9989 164.764 30.3204 166.825 30.2831 167.902C30.2831 167.939 30.2831 168.163 30.3204 168.437C30.2084 168.039 30.0901 167.64 29.9843 167.236C29.6855 166.078 29.4241 164.895 29.1502 163.706C29.0941 163.457 29.0319 163.214 28.9759 162.965C29.8762 162.601 30.7158 162.101 31.4657 161.484C31.7793 161.181 32.0221 160.812 32.177 160.404C32.332 159.997 32.3951 159.56 32.3621 159.125C32.3322 158.927 32.2608 158.738 32.1526 158.57C32.0445 158.401 31.902 158.258 31.7345 158.149C31.567 158.039 31.3782 157.966 31.1807 157.935C30.9831 157.904 30.7811 157.915 30.5881 157.967C29.4303 158.309 28.7207 160.376 28.7207 161.453C28.7207 161.49 28.7207 161.764 28.7705 162.075C28.6148 161.453 28.453 160.799 28.2663 160.171C27.959 159.089 27.5806 158.028 27.1334 156.996C28.0555 156.623 28.916 156.114 29.6855 155.483C29.9976 155.183 30.2402 154.818 30.3961 154.413C30.552 154.009 30.6175 153.575 30.5881 153.143C30.5574 152.945 30.4853 152.756 30.3764 152.587C30.2676 152.419 30.1246 152.276 29.9566 152.166C29.7886 152.057 29.5995 151.984 29.4015 151.953C29.2036 151.922 29.0013 151.933 28.8078 151.985C27.6563 152.328 26.9778 154.394 26.9404 155.465C26.9404 155.546 27.0276 156.529 27.0711 156.878V156.84C26.6037 155.84 26.0497 154.881 25.4154 153.977C24.8502 153.169 24.2392 152.394 23.5853 151.655C22.9629 150.964 22.3964 150.373 21.8673 149.85C21.581 149.57 21.3133 149.315 21.0581 149.084C21.0581 149.084 20.4979 147.74 20.4357 147.659C19.8941 146.725 18.3006 145.244 17.1241 145.499C16.9306 145.547 16.7493 145.636 16.592 145.758C16.4348 145.881 16.305 146.035 16.2111 146.211C16.1172 146.387 16.0614 146.581 16.0471 146.78C16.0328 146.979 16.0604 147.179 16.1282 147.366C16.3106 147.76 16.5767 148.108 16.9079 148.388C17.239 148.667 17.6272 148.871 18.0454 148.985C19.0016 149.165 19.9797 149.199 20.9461 149.084C21.2013 149.333 21.4752 149.595 21.7677 149.9C22.2844 150.429 22.8633 151.039 23.4422 151.736C23.5978 151.923 23.7596 152.128 23.9152 152.359C23.5791 152.085 23.1123 151.705 23.0625 151.674C22.1537 151.101 20.0622 150.516 19.1347 151.288C18.9865 151.422 18.868 151.586 18.7869 151.769C18.7058 151.952 18.6639 152.149 18.6639 152.349C18.6639 152.549 18.7058 152.747 18.7869 152.93C18.868 153.113 18.9865 153.276 19.1347 153.411C19.4788 153.673 19.8756 153.858 20.2979 153.952C20.7201 154.047 21.1579 154.049 21.581 153.958C22.5184 153.684 23.4069 153.264 24.214 152.713C24.5626 153.162 24.905 153.622 25.2349 154.126C25.8426 155.032 26.3676 155.99 26.8035 156.99C26.8035 157.046 26.847 157.108 26.8719 157.164C26.7288 157.002 25.8884 156.143 25.82 156.093C24.9796 155.421 22.9629 154.612 21.9607 155.272C21.7965 155.387 21.6582 155.535 21.5549 155.707C21.4515 155.878 21.3854 156.07 21.3608 156.269C21.3361 156.468 21.3535 156.67 21.4118 156.861C21.4701 157.053 21.5681 157.23 21.6993 157.382C22.0123 157.681 22.3864 157.909 22.7958 158.049C23.2051 158.19 23.6401 158.241 24.0709 158.197C25.0547 158.009 26.005 157.676 26.8906 157.208C27.301 158.221 27.6441 159.261 27.9177 160.32C28.1293 161.098 28.3036 161.895 28.4779 162.698C28.2849 162.486 27.5006 161.689 27.4384 161.64C26.5981 160.967 24.5813 160.158 23.5729 160.818C23.4091 160.933 23.2714 161.082 23.1686 161.254C23.0659 161.426 23.0003 161.617 22.9763 161.816C22.9522 162.015 22.9702 162.217 23.029 162.408C23.0878 162.6 23.1861 162.777 23.3177 162.928C23.6295 163.229 24.0035 163.458 24.4131 163.599C24.8228 163.739 25.2584 163.789 25.6893 163.744C26.6673 163.559 27.6117 163.227 28.4904 162.76C28.5713 163.127 28.646 163.488 28.7207 163.856C28.9697 165.044 29.2124 166.24 29.4863 167.41C29.5797 167.814 29.6855 168.213 29.7975 168.611C29.4987 168.3 28.951 167.752 28.9012 167.709C28.0609 167.036 26.0441 166.227 25.0357 166.893C24.8721 167.008 24.7345 167.156 24.6318 167.327C24.529 167.499 24.4635 167.69 24.4395 167.888C24.4154 168.087 24.4333 168.288 24.4921 168.479C24.5508 168.67 24.6491 168.847 24.7805 168.997C25.0923 169.298 25.4662 169.527 25.8759 169.668C26.2856 169.808 26.7212 169.858 27.1521 169.813C28.0985 169.639 29.0134 169.325 29.866 168.879C30.0486 169.539 30.2561 170.186 30.4885 170.821C30.5943 171.089 30.6814 171.375 30.7935 171.63L30.9615 172.035H30.7312C30.7312 172.035 30.7312 172.414 30.7312 173.024C29.8473 172.402 28.5713 171.848 27.7372 172.234C27.5585 172.323 27.4005 172.449 27.2734 172.603C27.1462 172.757 27.0526 172.936 26.9987 173.128C26.9447 173.32 26.9316 173.522 26.9602 173.719C26.9888 173.917 27.0583 174.106 27.1645 174.276C27.2212 174.365 27.2835 174.45 27.3512 174.531C27.5081 175.464 27.9025 176.341 28.4966 177.077C28.5402 177.133 29.119 177.699 29.4552 177.961L28.5402 177.463C28.0858 177.207 27.6189 176.927 27.1645 176.66C26.928 176.517 26.6977 176.367 26.4611 176.212C26.2246 176.056 26.0067 175.9 25.7764 175.738C25.4403 175.496 25.1104 175.234 24.7742 174.967C25.3073 174.191 25.7148 173.336 25.9818 172.433C26.0766 172.011 26.0772 171.572 25.9836 171.15C25.89 170.727 25.7045 170.33 25.4403 169.987C25.3072 169.838 25.1441 169.719 24.9617 169.637C24.7794 169.556 24.5819 169.513 24.3821 169.513C24.1823 169.513 23.9848 169.556 23.8024 169.637C23.6201 169.719 23.457 169.838 23.3239 169.987C22.5458 170.908 23.1185 173.006 23.6911 173.915C23.6911 173.946 23.853 174.126 24.0211 174.338C23.7036 174.07 23.3986 173.803 23.0749 173.522C22.191 172.726 21.3133 171.879 20.4357 171.033L19.8817 170.516C20.4269 169.717 20.8468 168.84 21.1266 167.914C21.221 167.491 21.2221 167.052 21.1296 166.629C21.0372 166.205 20.8534 165.807 20.5913 165.462C20.4571 165.313 20.2933 165.195 20.1105 165.114C19.9277 165.033 19.7299 164.991 19.53 164.991C19.33 164.991 19.1322 165.033 18.9495 165.114C18.7667 165.195 18.6029 165.313 18.4687 165.462C17.6968 166.383 18.2695 168.48 18.8421 169.389C18.8421 169.42 19.0289 169.638 19.2218 169.875C18.7363 169.427 18.2446 168.985 17.7466 168.561C16.8939 167.83 15.9935 167.156 15.0513 166.545C15.6122 165.721 16.0484 164.819 16.3461 163.868C16.4379 163.445 16.437 163.008 16.3435 162.586C16.25 162.163 16.0661 161.766 15.8045 161.422C15.6708 161.273 15.5072 161.153 15.3244 161.072C15.1415 160.99 14.9435 160.948 14.7432 160.948C14.543 160.948 14.3449 160.99 14.1621 161.072C13.9792 161.153 13.8156 161.273 13.6819 161.422C12.9101 162.343 13.4827 164.441 14.0554 165.349C14.099 165.418 14.7152 166.19 14.9455 166.457H14.9082C13.9674 165.881 12.9781 165.387 11.9515 164.982C11.0341 164.62 10.0968 164.31 9.14414 164.055C8.26647 163.812 7.44481 163.638 6.71653 163.495L5.62099 163.302C5.62099 163.302 4.37606 162.492 4.32626 162.449C3.36144 161.97 1.21394 161.615 0.379835 162.449C0.243535 162.595 0.139789 162.769 0.075408 162.959C0.0110275 163.148 -0.0125305 163.349 0.00628115 163.549C0.0250928 163.748 0.0858475 163.941 0.184557 164.115C0.283267 164.289 0.4177 164.44 0.579024 164.559C0.947431 164.787 1.3613 164.931 1.79149 164.982C2.22167 165.032 2.65771 164.988 3.06888 164.852C3.97083 164.477 4.81042 163.967 5.55874 163.339C5.90732 163.401 6.2808 163.47 6.69163 163.557C7.41369 163.719 8.22912 163.905 9.10057 164.179C9.33711 164.248 9.58609 164.335 9.82263 164.41L8.73954 164.31C7.66268 164.31 5.62722 165.001 5.24751 166.177C5.19421 166.37 5.18217 166.572 5.2122 166.769C5.24223 166.967 5.31364 167.156 5.42176 167.324C5.52988 167.492 5.67227 167.635 5.83962 167.744C6.00696 167.854 6.19548 167.926 6.39284 167.958C6.82519 167.989 7.25913 167.925 7.66442 167.772C8.06971 167.618 8.4366 167.378 8.73954 167.068C9.36403 166.318 9.87187 165.479 10.2459 164.578C10.775 164.758 11.3165 164.951 11.8705 165.2C12.8768 165.616 13.8435 166.123 14.7588 166.713L14.9144 166.825C14.7028 166.769 13.5263 166.52 13.4454 166.514C12.3747 166.414 10.2459 166.856 9.77283 167.964C9.7024 168.148 9.6713 168.345 9.68153 168.542C9.69175 168.739 9.74306 168.931 9.83218 169.107C9.92129 169.283 10.0462 169.438 10.199 169.563C10.3517 169.688 10.5288 169.779 10.719 169.831C11.1445 169.91 11.5822 169.896 12.0015 169.788C12.4208 169.681 12.8116 169.483 13.1466 169.209C13.8616 168.509 14.4698 167.708 14.9517 166.831C15.8487 167.443 16.7053 168.113 17.5163 168.835C18.1388 169.371 18.7052 169.937 19.2903 170.51C19.0164 170.435 17.9209 170.211 17.84 170.205C16.7693 170.105 14.6405 170.541 14.1674 171.649C14.0938 171.835 14.0602 172.034 14.0687 172.234C14.0773 172.434 14.1278 172.63 14.2171 172.809C14.3063 172.988 14.4323 173.146 14.5867 173.274C14.7412 173.401 14.9207 173.494 15.1136 173.547C15.5391 173.626 15.9768 173.612 16.3961 173.504C16.8154 173.397 17.2062 173.199 17.5412 172.925C18.2542 172.232 18.8605 171.437 19.3401 170.566L20.1306 171.344C20.9959 172.203 21.8549 173.068 22.7326 173.89C23.0313 174.176 23.355 174.45 23.6538 174.724C23.2367 174.63 22.4773 174.469 22.4089 174.462C21.3382 174.363 19.2094 174.805 18.7363 175.913C18.6627 176.099 18.6291 176.298 18.6376 176.498C18.6462 176.698 18.6967 176.894 18.786 177.073C18.8752 177.252 19.0012 177.41 19.1556 177.538C19.3101 177.665 19.4896 177.758 19.6825 177.811C20.108 177.89 20.5457 177.876 20.965 177.768C21.3843 177.661 21.7751 177.463 22.1101 177.189C22.8086 176.527 23.397 175.758 23.853 174.911C24.3759 175.365 24.8987 175.801 25.4278 176.199C25.6644 176.373 25.8947 176.56 26.125 176.709L26.8221 177.17C27.3014 177.469 27.7496 177.749 28.2102 178.017L28.8825 178.409C28.4779 178.247 27.8243 178.004 27.7683 177.992C26.7226 177.73 24.5501 177.842 23.9152 178.863C23.813 179.035 23.7478 179.225 23.7239 179.423C23.7001 179.622 23.7181 179.822 23.7768 180.013C23.8354 180.204 23.9335 180.38 24.0646 180.53C24.1956 180.681 24.3568 180.802 24.5377 180.886C24.9463 181.028 25.3808 181.078 25.8108 181.034C26.2409 180.99 26.6561 180.852 27.0276 180.631C27.8356 180.058 28.5514 179.366 29.1502 178.577C29.7042 178.894 30.2457 179.199 30.7561 179.467C32.1255 180.202 33.3145 180.78 34.2419 181.216C37.2422 183.812 41.475 184.098 41.475 184.098C41.475 184.098 41.6928 179.038 38.7112 175.701C37.6979 174.561 36.4462 173.658 35.0449 173.056ZM29.6855 177.998C30.0938 177.132 30.3828 176.215 30.5445 175.272L31.0425 175.166C31.3518 176.766 31.9875 178.285 32.9099 179.629C32.3621 179.367 31.7707 179.081 31.1421 178.757C30.6752 178.527 30.1835 178.266 29.6855 177.998Z" fill="#2E353A"/>
<path d="M57.1986 172.091C57.1986 172.091 52.1317 172.246 49.0319 175.465C45.932 178.683 45.9942 183.756 45.9942 183.756C45.9942 183.756 51.0611 183.6 54.161 180.382C57.2608 177.164 57.1986 172.091 57.1986 172.091Z" fill="#2E353A"/>
<path d="M43.9709 175.353L48.9506 170.877L48.7327 170.641L43.9709 174.923L43.946 169.059L43.9709 169.078L48.1787 162.922L47.9173 162.741L43.9397 168.555L43.8775 154.444H43.56L43.6036 164.024L40.4353 161.279L40.2236 161.521L43.6036 164.447L43.6347 171.294L38.8293 167.049L38.6177 167.285L43.6347 171.724L43.6596 177.954L40.0556 175.122L39.8564 175.377L43.6659 178.365L43.6783 182.38L44.002 182.374L43.9709 175.353Z" fill="white"/>
<path d="M39.3895 177.077L39.0721 177.046L38.6675 180.587L36.5324 178.197L35.9909 173.908L35.6734 173.952L36.159 177.786L30.8493 171.848L30.6128 172.06L34.2169 176.087L31.9324 176.118L31.9386 176.436L34.497 176.404L37.0242 179.23L33.4575 179.237V179.554L37.3105 179.548L39.6074 182.119L37.0927 182.268L37.1113 182.586L39.8813 182.424L41.4126 184.129L41.6491 183.918L38.9538 180.905L39.3895 177.077Z" fill="white"/>
<path d="M51.4093 178.34L55.6483 177.481L55.5861 177.17L51.7953 177.942L57.3227 172.197L57.0924 171.979L53.339 175.875L53.146 173.597L52.8285 173.628L53.0464 176.18L50.4196 178.907L50.1519 175.353L49.8283 175.377L50.1208 179.218L47.7305 181.702L47.3944 179.199L47.077 179.243L47.4504 181.994L45.8569 183.644L46.0872 183.868L48.8946 180.955L52.7414 181.104L52.7538 180.787L49.1871 180.65L51.4093 178.34Z" fill="white"/>
<path d="M216.506 152.458C215.71 151.845 215.008 151.12 214.421 150.305C214.202 149.932 214.066 149.517 214.023 149.087C213.98 148.657 214.031 148.223 214.172 147.815C214.255 147.634 214.376 147.473 214.526 147.342C214.676 147.211 214.851 147.113 215.042 147.054C215.232 146.995 215.432 146.977 215.63 147.001C215.827 147.025 216.018 147.09 216.189 147.192C217.216 147.815 217.322 150 217.066 151.039C217.041 151.101 216.55 152.471 216.506 152.458Z" fill="#2E353A"/>
<path d="M231.874 163.389C231.806 163.451 230.629 164.31 230.629 164.291C230.629 164.273 229.97 162.281 230.075 161.341C230.098 160.909 230.214 160.486 230.416 160.104C230.618 159.721 230.901 159.387 231.246 159.125C231.415 159.018 231.604 158.947 231.802 158.918C232 158.889 232.202 158.902 232.394 158.956C232.587 159.01 232.766 159.104 232.92 159.232C233.074 159.359 233.199 159.518 233.287 159.697C233.773 160.793 232.665 162.66 231.874 163.389Z" fill="#2E353A"/>
<path d="M197.054 154.444C197.054 154.444 203.136 160.725 203.104 168.437C203.073 176.149 196.936 182.38 196.936 182.38C196.936 182.38 190.848 176.1 190.885 168.387C190.923 160.675 197.054 154.444 197.054 154.444Z" fill="#2E353A"/>
<path d="M205.725 173.056C205.646 172.969 205.573 172.878 205.507 172.782C205.245 172.436 205.061 172.038 204.969 171.615C204.876 171.191 204.877 170.752 204.972 170.329C205.032 170.139 205.131 169.963 205.264 169.813C205.397 169.664 205.559 169.544 205.741 169.462C205.924 169.379 206.121 169.336 206.321 169.336C206.521 169.335 206.719 169.377 206.901 169.458C207.729 169.844 208.146 171.17 208.221 172.253C208.551 172.178 208.843 172.122 209.105 172.078C209.211 171.829 209.323 171.587 209.435 171.338C209.547 171.089 209.64 170.821 209.746 170.56C209.889 170.174 210.02 169.769 210.151 169.364C209.28 169.009 208.47 168.522 207.748 167.92C207.437 167.619 207.195 167.253 207.039 166.849C206.883 166.445 206.817 166.012 206.845 165.58C206.876 165.382 206.948 165.192 207.057 165.024C207.166 164.856 207.309 164.712 207.477 164.603C207.645 164.494 207.834 164.421 208.032 164.39C208.23 164.359 208.432 164.37 208.626 164.422C209.777 164.764 210.456 166.825 210.493 167.902C210.493 167.939 210.493 168.163 210.449 168.437C210.568 168.039 210.686 167.64 210.792 167.236C211.091 166.078 211.352 164.895 211.626 163.706C211.682 163.457 211.744 163.214 211.8 162.965C210.9 162.601 210.06 162.101 209.31 161.484C209 161.182 208.758 160.817 208.602 160.413C208.446 160.009 208.38 159.576 208.408 159.144C208.439 158.946 208.512 158.757 208.621 158.589C208.73 158.422 208.873 158.279 209.041 158.169C209.209 158.06 209.397 157.988 209.595 157.956C209.793 157.924 209.995 157.935 210.188 157.986C211.346 158.328 212.055 160.395 212.055 161.472C212.055 161.509 212.055 161.783 211.999 162.094C212.161 161.472 212.323 160.818 212.51 160.189C212.817 159.107 213.195 158.047 213.643 157.015C212.72 156.642 211.86 156.132 211.091 155.502C210.778 155.201 210.536 154.836 210.38 154.432C210.224 154.028 210.158 153.594 210.188 153.162C210.219 152.964 210.291 152.776 210.399 152.608C210.508 152.44 210.65 152.297 210.817 152.188C210.985 152.079 211.173 152.006 211.37 151.974C211.567 151.943 211.769 151.953 211.962 152.004C213.12 152.346 213.798 154.413 213.829 155.483C213.829 155.564 213.742 156.548 213.699 156.896C213.699 156.896 213.699 156.896 213.699 156.859C214.164 155.857 214.718 154.899 215.354 153.996C215.915 153.181 216.522 152.4 217.172 151.655C217.794 150.964 218.361 150.373 218.89 149.85C219.176 149.57 219.444 149.315 219.699 149.084H219.662C219.662 149.084 220.228 147.74 220.284 147.659C220.826 146.725 222.413 145.244 223.596 145.499C223.789 145.548 223.97 145.637 224.126 145.76C224.283 145.883 224.412 146.037 224.506 146.213C224.6 146.389 224.656 146.582 224.671 146.781C224.685 146.979 224.659 147.179 224.592 147.366C224.409 147.76 224.143 148.108 223.812 148.388C223.481 148.667 223.093 148.871 222.675 148.985C221.718 149.165 220.74 149.199 219.774 149.084C219.519 149.333 219.245 149.595 218.946 149.9C218.436 150.429 217.857 151.039 217.278 151.736C217.122 151.923 216.96 152.128 216.805 152.359C217.141 152.085 217.608 151.705 217.658 151.674C218.56 151.101 220.658 150.516 221.585 151.288C221.734 151.422 221.852 151.586 221.933 151.769C222.014 151.952 222.056 152.149 222.056 152.349C222.056 152.549 222.014 152.747 221.933 152.93C221.852 153.113 221.734 153.276 221.585 153.411C221.241 153.673 220.844 153.858 220.422 153.952C220 154.047 219.562 154.049 219.139 153.958C218.2 153.682 217.31 153.262 216.5 152.713C216.157 153.162 215.815 153.622 215.485 154.126C214.878 155.033 214.351 155.991 213.91 156.99C213.91 157.046 213.867 157.108 213.848 157.164C213.985 157.002 214.832 156.143 214.9 156.093C215.74 155.421 217.757 154.612 218.759 155.272C218.924 155.387 219.062 155.535 219.165 155.707C219.268 155.878 219.335 156.07 219.359 156.269C219.384 156.468 219.367 156.67 219.308 156.861C219.25 157.053 219.152 157.23 219.021 157.382C218.708 157.681 218.334 157.909 217.924 158.049C217.515 158.19 217.08 158.241 216.649 158.197C215.665 158.009 214.715 157.676 213.829 157.208C213.419 158.221 213.076 159.261 212.802 160.32C212.591 161.098 212.416 161.895 212.242 162.698C212.435 162.486 213.219 161.689 213.282 161.64C214.122 160.967 216.139 160.158 217.147 160.818C217.311 160.933 217.449 161.082 217.551 161.254C217.654 161.426 217.72 161.617 217.744 161.816C217.768 162.015 217.75 162.217 217.691 162.408C217.632 162.6 217.534 162.777 217.402 162.928C217.09 163.229 216.717 163.458 216.307 163.599C215.897 163.739 215.462 163.789 215.031 163.744C214.052 163.56 213.108 163.229 212.23 162.76C212.149 163.127 212.074 163.488 211.993 163.856C211.75 165.044 211.508 166.24 211.234 167.41C211.14 167.814 211.028 168.213 210.922 168.611C211.221 168.3 211.769 167.752 211.819 167.709C212.659 167.036 214.676 166.227 215.678 166.893C215.842 167.008 215.98 167.155 216.084 167.326C216.187 167.497 216.253 167.689 216.278 167.887C216.302 168.085 216.285 168.287 216.227 168.478C216.168 168.669 216.071 168.846 215.94 168.997C215.627 169.297 215.253 169.526 214.844 169.667C214.434 169.808 213.999 169.857 213.568 169.813C212.622 169.639 211.707 169.325 210.854 168.879C210.673 169.539 210.474 170.186 210.232 170.821C210.132 171.089 210.045 171.375 209.933 171.63L209.765 172.035H209.995C209.995 172.035 209.995 172.414 209.995 173.024C210.879 172.402 212.155 171.848 212.983 172.234C213.163 172.322 213.322 172.447 213.45 172.6C213.579 172.754 213.673 172.933 213.728 173.126C213.783 173.318 213.796 173.52 213.767 173.718C213.739 173.916 213.669 174.106 213.562 174.276C213.505 174.365 213.443 174.45 213.375 174.531C213.218 175.464 212.824 176.341 212.23 177.077C212.186 177.133 211.607 177.699 211.271 177.961L212.186 177.463C212.64 177.207 213.107 176.927 213.562 176.66C213.798 176.517 214.029 176.367 214.265 176.212C214.502 176.056 214.72 175.9 214.95 175.738C215.286 175.496 215.616 175.234 215.952 174.967C215.419 174.191 215.011 173.336 214.744 172.433C214.65 172.011 214.649 171.573 214.742 171.151C214.834 170.728 215.018 170.331 215.28 169.987C215.413 169.838 215.577 169.718 215.76 169.637C215.943 169.555 216.141 169.513 216.341 169.513C216.541 169.513 216.739 169.555 216.922 169.637C217.105 169.718 217.269 169.838 217.402 169.987C218.18 170.908 217.608 173.006 217.035 173.915C217.035 173.946 216.873 174.126 216.705 174.338C217.023 174.07 217.328 173.803 217.651 173.522C218.535 172.726 219.413 171.879 220.291 171.033L220.845 170.516C220.302 169.716 219.882 168.839 219.6 167.914C219.508 167.49 219.509 167.052 219.602 166.629C219.696 166.205 219.879 165.807 220.141 165.462C220.275 165.313 220.439 165.195 220.622 165.114C220.805 165.033 221.003 164.991 221.202 164.991C221.402 164.991 221.6 165.033 221.783 165.114C221.966 165.195 222.13 165.313 222.264 165.462C223.036 166.383 222.463 168.48 221.89 169.389C221.89 169.42 221.704 169.638 221.511 169.875C221.996 169.427 222.488 168.985 222.986 168.561C223.839 167.83 224.739 167.156 225.681 166.545C225.118 165.722 224.682 164.82 224.386 163.868C224.293 163.445 224.294 163.008 224.387 162.585C224.481 162.163 224.665 161.766 224.928 161.422C225.062 161.273 225.225 161.153 225.408 161.072C225.591 160.99 225.789 160.948 225.989 160.948C226.19 160.948 226.388 160.99 226.57 161.072C226.753 161.153 226.917 161.273 227.051 161.422C227.822 162.343 227.25 164.441 226.677 165.349C226.633 165.418 226.017 166.19 225.787 166.457H225.824C226.765 165.881 227.754 165.387 228.781 164.982C229.698 164.619 230.635 164.309 231.588 164.055C232.466 163.812 233.288 163.638 234.016 163.495L235.111 163.302C235.111 163.302 236.325 162.492 236.406 162.449C237.371 161.97 239.519 161.615 240.353 162.449C240.488 162.596 240.591 162.77 240.655 162.959C240.719 163.149 240.742 163.349 240.723 163.548C240.704 163.747 240.644 163.94 240.546 164.114C240.448 164.288 240.314 164.44 240.153 164.559C239.785 164.787 239.371 164.931 238.941 164.982C238.511 165.032 238.075 164.988 237.664 164.852C236.762 164.477 235.922 163.967 235.174 163.339C234.825 163.401 234.452 163.47 234.041 163.557C233.313 163.719 232.503 163.905 231.626 164.179L230.91 164.41L231.993 164.31C233.07 164.31 235.136 165.001 235.485 166.177C235.538 166.37 235.55 166.573 235.52 166.77C235.489 166.968 235.417 167.158 235.309 167.326C235.2 167.494 235.057 167.637 234.889 167.746C234.721 167.855 234.531 167.927 234.333 167.958C233.902 167.988 233.469 167.924 233.065 167.77C232.661 167.616 232.295 167.377 231.993 167.068C231.368 166.318 230.861 165.479 230.487 164.578C229.957 164.758 229.416 164.951 228.862 165.2C227.855 165.615 226.888 166.121 225.974 166.713L225.818 166.825C226.03 166.769 227.206 166.52 227.287 166.514C228.358 166.414 230.487 166.856 230.96 167.964C231.03 168.148 231.061 168.345 231.051 168.542C231.041 168.739 230.989 168.931 230.9 169.107C230.811 169.283 230.686 169.438 230.533 169.563C230.381 169.688 230.204 169.779 230.013 169.831C229.588 169.91 229.15 169.896 228.731 169.788C228.312 169.681 227.921 169.483 227.586 169.209C226.871 168.509 226.263 167.708 225.781 166.831C224.884 167.443 224.027 168.113 223.216 168.835C222.594 169.371 222.027 169.937 221.442 170.51C221.716 170.435 222.812 170.211 222.892 170.205C223.963 170.105 226.092 170.541 226.565 171.649C226.639 171.835 226.672 172.034 226.664 172.234C226.655 172.434 226.605 172.63 226.515 172.809C226.426 172.988 226.3 173.146 226.146 173.274C225.991 173.401 225.812 173.494 225.619 173.547C225.193 173.626 224.756 173.612 224.336 173.504C223.917 173.397 223.526 173.199 223.191 172.925C222.478 172.232 221.872 171.437 221.392 170.566L220.602 171.344C219.737 172.203 218.878 173.068 218 173.89C217.695 174.176 217.377 174.45 217.079 174.724C217.496 174.63 218.255 174.469 218.324 174.462C219.394 174.363 221.523 174.805 221.996 175.913C222.07 176.099 222.103 176.298 222.095 176.498C222.086 176.698 222.036 176.894 221.946 177.073C221.857 177.252 221.731 177.41 221.577 177.538C221.422 177.665 221.243 177.758 221.05 177.811C220.624 177.89 220.187 177.876 219.767 177.768C219.348 177.661 218.957 177.463 218.622 177.189C217.924 176.525 217.334 175.757 216.873 174.911C216.357 175.365 215.834 175.801 215.298 176.199C215.068 176.373 214.838 176.56 214.601 176.709L213.91 177.17C213.431 177.469 212.983 177.749 212.522 178.017L211.85 178.409C212.255 178.247 212.902 178.004 212.964 177.992C214.01 177.73 216.182 177.842 216.817 178.863C216.919 179.035 216.983 179.226 217.006 179.423C217.03 179.621 217.011 179.822 216.953 180.012C216.894 180.203 216.797 180.379 216.666 180.529C216.535 180.68 216.375 180.801 216.195 180.886C215.786 181.028 215.352 181.078 214.922 181.034C214.492 180.99 214.076 180.852 213.705 180.631C212.897 180.056 212.179 179.364 211.576 178.577C211.028 178.894 210.487 179.199 209.97 179.467C208.607 180.202 207.418 180.78 206.491 181.216C203.478 183.737 199.245 184.023 199.245 184.023C199.245 184.023 199.021 178.963 202.003 175.626C203.042 174.509 204.312 173.632 205.725 173.056ZM211.091 177.998C210.682 177.132 210.393 176.215 210.232 175.272L209.734 175.166C209.424 176.766 208.789 178.285 207.866 179.629C208.414 179.367 209.005 179.081 209.628 178.757C210.101 178.527 210.593 178.266 211.091 177.998Z" fill="#2E353A"/>
<path d="M183.559 172.091C183.559 172.091 188.625 172.246 191.725 175.465C194.825 178.683 194.788 183.756 194.788 183.756C194.788 183.756 189.721 183.6 186.621 180.382C183.521 177.164 183.559 172.091 183.559 172.091Z" fill="#2E353A"/>
<path d="M196.805 175.353L191.825 170.877L192.043 170.641L196.805 174.923L196.83 169.059L196.805 169.078L192.597 162.922L192.858 162.741L196.836 168.555L196.892 154.444H197.216L197.172 164.024L200.341 161.279L200.552 161.521L197.172 164.447L197.141 171.294L201.946 167.049L202.158 167.285L197.141 171.724L197.11 177.954L200.72 175.122L200.919 175.377L197.11 178.365L197.091 182.38L196.774 182.374L196.805 175.353Z" fill="white"/>
<path d="M201.386 177.077L201.703 177.046L202.108 180.587L204.243 178.197L204.785 173.908L205.096 173.952L204.617 177.786L209.926 171.848L210.163 172.06L206.559 176.087L208.843 176.118L208.837 176.436L206.279 176.404L203.751 179.23L207.318 179.237V179.554L203.465 179.548L201.168 182.119L203.683 182.268L203.664 182.586L200.894 182.424L199.363 184.129L199.126 183.918L201.822 180.905L201.386 177.077Z" fill="white"/>
<path d="M189.36 178.34L185.128 177.481L185.19 177.17L188.981 177.942L183.453 172.197L183.683 171.979L187.431 175.875L187.63 173.597L187.947 173.628L187.729 176.18L190.356 178.907L190.624 175.353L190.948 175.377L190.655 179.218L193.045 181.702L193.381 179.199L193.699 179.243L193.325 181.994L194.919 183.644L194.689 183.868L191.881 180.955L188.034 181.104L188.022 180.787L191.589 180.65L189.367 178.34H189.36Z" fill="white"/>
<path d="M167.997 36.3C163.938 36.3059 160.004 34.8948 156.874 32.31C153.263 29.3097 152.062 25.5998 150.792 21.6658C148.645 15.0179 142.513 10.3805 135.853 10.3805C133.699 10.4119 131.574 10.883 129.609 11.765C127.644 12.647 125.88 13.9213 124.425 15.5097C122.831 17.2899 121.935 19.5744 120.97 21.9895C120.005 24.4047 118.972 27.019 117.135 29.1977C115.239 31.4328 112.877 33.2266 110.215 34.4534C107.553 35.6802 104.655 36.3104 101.723 36.3C96.7744 36.3058 91.9871 34.5393 88.2282 31.3203C85.0599 28.6001 83.4414 24.8529 81.9289 20.9313C80.2108 16.4807 78.082 11.9305 74.1107 8.76836C70.434 5.81444 65.8672 4.1891 61.151 4.1559C49.2619 4.1559 39.5888 17.4206 39.5888 30.0629H36.6196C36.6196 15.6777 47.6248 1 61.151 1C66.5115 1.04528 71.6993 2.90105 75.8723 6.26605C80.4163 9.87635 82.7816 14.881 84.6553 19.7486C86.0185 23.278 87.4563 26.6331 90.0769 28.8864C93.3202 31.6484 97.4447 33.1587 101.705 33.1441C104.214 33.1579 106.695 32.623 108.976 31.5768C111.257 30.5306 113.281 28.9984 114.907 27.0875C116.407 25.3073 117.285 23.0975 118.212 20.7633C119.233 18.1925 120.285 15.5346 122.252 13.3373C123.977 11.4309 126.08 9.90457 128.427 8.8554C130.774 7.80623 133.313 7.25722 135.884 7.24332C143.771 7.24332 151.06 12.7584 153.606 20.6574C154.851 24.4358 155.791 27.4174 158.71 29.845C161.328 31.9909 164.612 33.1575 167.997 33.1441C171.08 33.1146 174.071 32.0956 176.531 30.2372C178.598 28.6935 179.836 26.409 181.15 24.0125C182.32 21.8526 183.534 19.6179 185.407 17.7879C188.264 14.9894 192.084 13.3921 196.083 13.3248C204.797 13.3248 211.912 20.8691 211.912 30.1314H208.943C208.943 22.5933 203.173 16.4371 196.083 16.4371C192.831 16.4997 189.726 17.8049 187.406 20.0848C185.874 21.56 184.829 23.4897 183.721 25.5251C182.308 28.1333 180.845 30.8285 178.243 32.7768C175.294 35.0208 171.702 36.2561 167.997 36.3Z" fill="#7A8590" stroke="#2E353A" stroke-linecap="round" stroke-linejoin="round"/>
<path d="M39.5888 30.0815L43.5228 39.4683H40.6906L36.6196 30.0815H39.5888Z" fill="#7A8590" stroke="#2E353A" stroke-linecap="round" stroke-linejoin="round"/>
<path d="M196.089 16.4807C192.837 16.5433 189.732 17.8485 187.412 20.1283C185.881 21.6036 184.835 23.5332 183.727 25.5687C182.314 28.1768 180.851 30.8721 178.249 32.8204C175.154 35.1629 171.356 36.3876 167.475 36.295C163.595 36.2023 159.86 34.7976 156.88 32.31C153.27 29.3097 152.068 25.5998 150.798 21.6658C148.651 15.0179 142.52 10.3805 135.859 10.3805C133.704 10.411 131.578 10.8817 129.612 11.7638C127.646 12.6458 125.88 13.9205 124.425 15.5096C122.831 17.2899 121.935 19.5743 120.97 21.9895C120.005 24.4047 118.972 27.019 117.136 29.1977C115.239 31.4328 112.877 33.2266 110.215 34.4534C107.553 35.6802 104.655 36.3104 101.723 36.3C96.7745 36.3058 91.9871 34.5393 88.2283 31.3202C85.0599 28.6001 83.4415 24.8528 81.9289 20.9313C80.2109 16.4807 78.0821 11.9305 74.1108 8.76835C70.434 5.81443 65.8673 4.18909 61.1511 4.15588C49.262 4.15588 39.5889 17.4206 39.5889 30.0629L43.5042 39.4683C43.5042 27.4174 52.7291 14.632 64.0455 14.632C68.5414 14.6641 72.895 16.2125 76.4014 19.0266C80.186 22.0393 82.2215 26.3779 83.871 30.6231C85.3089 34.3579 86.8526 37.9371 89.8778 40.5327C93.4643 43.5952 98.0281 45.2732 102.744 45.2635C105.54 45.2739 108.304 44.6725 110.843 43.5015C113.382 42.3305 115.634 40.6183 117.441 38.4848C119.19 36.412 120.161 33.972 121.094 31.6377C122.028 29.3035 122.875 27.1622 124.394 25.4629C125.783 23.9435 127.469 22.7254 129.348 21.8839C131.227 21.0424 133.259 20.5953 135.318 20.5703C141.648 20.5703 147.499 24.996 149.541 31.3327C150.755 35.0675 151.894 38.6218 155.342 41.4851C158.321 43.9429 162.062 45.2876 165.924 45.2884C169.451 45.2584 172.875 44.0953 175.691 41.9706C178.181 40.1032 179.569 37.5449 180.913 35.055C181.972 33.1129 182.967 31.2705 184.43 29.8699C186.641 27.6911 189.605 26.4454 192.709 26.3903C199.469 26.3903 204.972 32.2353 204.972 39.4247L209.69 30.1749H208.899C208.949 22.612 203.179 16.4807 196.089 16.4807Z" fill="#2E353A" stroke="#2E353A" stroke-linecap="round" stroke-linejoin="round"/>
<path d="M207.847 39.3999L211.918 30.15H208.949L205.021 39.3999H207.847Z" fill="#7A8590" stroke="#2E353A" stroke-linecap="round" stroke-linejoin="round"/>
<path d="M199.681 40.0099H48.2163V182.604H199.681V40.0099Z" fill="#7A8590" stroke="#2E353A" stroke-linecap="round" stroke-linejoin="round"/>
<path opacity="0.3" d="M199.681 40.0099H48.2163V182.604H199.681V40.0099Z" fill="black"/>
<path d="M126.292 40.0099H121.605V182.604H126.292V40.0099Z" fill="#2E353A" stroke="#2E353A" stroke-linecap="round" stroke-linejoin="round"/>
<path d="M62.9809 154.45H59.2959V188.125H62.9809V154.45Z" fill="white" stroke="#2E353A" stroke-linecap="round" stroke-linejoin="round"/>
<path d="M126.385 154.45H122.7V188.125H126.385V154.45Z" fill="white" stroke="#2E353A" stroke-linecap="round" stroke-linejoin="round"/>
<path d="M190.842 154.45H187.157V188.125H190.842V154.45Z" fill="white" stroke="#2E353A" stroke-linecap="round" stroke-linejoin="round"/>
<path d="M192.223 152.608H56.856V157.419H192.223V152.608Z" fill="white" stroke="#2E353A" stroke-linecap="round" stroke-linejoin="round"/>
<path d="M192.155 152.608H56.9243L65.0413 148.138H184.038L192.155 152.608Z" fill="#2E353A" stroke="#2E353A" stroke-linecap="round" stroke-linejoin="round"/>
<path d="M53.943 42.1138H48.2163V184.708H53.943V42.1138Z" fill="#2E353A" stroke="#2E353A" stroke-linecap="round" stroke-linejoin="round"/>
<path d="M47.6744 42.1138H41.9478V189.968H47.6744V42.1138Z" fill="white" stroke="#2E353A" stroke-linecap="round" stroke-linejoin="round"/>
<path d="M207.063 42.1138H201.336V189.968H207.063V42.1138Z" fill="white" stroke="#2E353A" stroke-linecap="round" stroke-linejoin="round"/>
<path d="M228.457 200.625H232.111" stroke="#2E353A" stroke-linecap="round" stroke-linejoin="round"/>
<path d="M216.35 200.625H227.007" stroke="#2E353A" stroke-linecap="round" stroke-linejoin="round"/>
<path d="M27.9551 200.625H213.686" stroke="#2E353A" stroke-linecap="round" stroke-linejoin="round"/>
<path d="M9.26855 200.625H24.077" stroke="#2E353A" stroke-linecap="round" stroke-linejoin="round"/>
<path d="M228.214 207.677H232.111" stroke="#2E353A" stroke-linecap="round" stroke-linejoin="round"/>
<path d="M40.3047 207.677H225.55" stroke="#2E353A" stroke-linecap="round" stroke-linejoin="round"/>
<path d="M9.26855 207.677H36.6695" stroke="#2E353A" stroke-linecap="round" stroke-linejoin="round"/>
<path d="M200.795 42.1138H195.068V184.708H200.795V42.1138Z" fill="#2E353A" stroke="#2E353A" stroke-linecap="round" stroke-linejoin="round"/>
<path d="M208.383 39.0513H39.7568V48.8738H208.383V39.0513Z" fill="white" stroke="#2E353A" stroke-linecap="round" stroke-linejoin="round"/>
<path d="M25.8076 193.398L23.8281 195.022V62.7174H25.8076V193.398Z" fill="#2E353A" stroke="#2E353A" stroke-linecap="round" stroke-linejoin="round"/>
<path d="M29.3367 69.8073H20.3047V27.9341L29.3367 30.3679V69.8073Z" fill="#2E353A" stroke="#2E353A" stroke-linecap="round" stroke-linejoin="round"/>
<path d="M28.4592 65.7302H21.1826V32.0112L28.4592 33.6545V65.7302Z" fill="#7A8590" stroke="#2E353A" stroke-linecap="round" stroke-linejoin="round"/>
<path d="M143.099 105.811C143.771 106.175 144.344 106.699 144.767 107.336C145.19 107.973 145.451 108.704 145.526 109.465C145.862 112.16 151.62 130.193 151.62 131.543C151.62 132.894 148.875 134.936 146.51 134.936C144.144 134.936 142.576 126.613 142.576 126.613L143.099 105.811Z" fill="white" stroke="#2E353A" stroke-linecap="round" stroke-linejoin="round"/>
<path d="M144.449 112.533L142.843 116.816L145.52 114.675" stroke="#2E353A" stroke-width="0.5" stroke-linecap="round" stroke-linejoin="round"/>
<path d="M112.156 105.78C112.156 105.78 109.292 107.093 108.844 109.57C108.396 112.048 103.883 133.025 104.132 134.039C104.381 135.054 110.767 136.735 111.776 136.287C112.784 135.838 113.22 124.59 113.22 124.59L112.156 105.78Z" fill="white" stroke="#2E353A" stroke-linecap="round" stroke-linejoin="round"/>
<path d="M112.99 116.816L110.313 111.195" stroke="#2E353A" stroke-width="0.5" stroke-linecap="round" stroke-linejoin="round"/>
<path d="M112.592 117.488L109.243 114.139" stroke="#2E353A" stroke-width="0.5" stroke-linecap="round" stroke-linejoin="round"/>
<path d="M122.445 101.933C122.445 101.933 112.598 105.045 112.156 105.78C111.714 106.514 114.428 134.413 114.428 136.199C114.428 137.986 115.131 139.368 117.776 140.158C120.422 140.949 132.485 140.781 135.392 140.513C138.299 140.245 141.467 138.222 141.735 136.374C142.003 134.525 143.148 107.498 143.41 106.203C143.522 105.63 141.256 104.703 138.928 103.769C136.917 102.966 132.043 100.881 130.213 100.881C128.383 100.881 125.881 100.352 122.445 101.933Z" fill="white" stroke="#2E353A" stroke-linecap="round" stroke-linejoin="round"/>
<path d="M128.782 132.359C128.564 133.146 128.428 133.953 128.377 134.768C128.377 135.708 130.518 135.44 130.518 136.778C130.518 138.117 128.109 139.318 128.109 139.318" stroke="#2E353A" stroke-width="0.5" stroke-linecap="round" stroke-linejoin="round"/>
<path d="M121.536 132.832C121.536 132.832 124.337 136.137 133.985 134.488" stroke="#2E353A" stroke-width="0.5" stroke-linecap="round" stroke-linejoin="round"/>
<path d="M124.207 99.9097C124.207 99.9097 121.916 100.532 121.474 101.404C121.032 102.275 121.742 103.52 121.829 104.516C121.916 105.512 120.584 109.272 120.584 109.272C120.584 109.272 123.223 109.184 123.696 109.533C124.169 109.882 128.626 112.969 128.626 112.969C128.626 112.969 130.126 109.272 131.888 108.743C133.65 108.213 135.237 107.684 135.237 107.684C135.237 107.684 133.12 104.69 132.417 102.312C131.714 99.9346 127.201 98.2353 124.207 99.9097Z" fill="#2E353A" stroke="#2E353A" stroke-linecap="round" stroke-linejoin="round"/>
<path d="M123.235 98.2352C123.235 98.2352 124.823 105.194 124.91 109.44C124.997 113.685 122.358 123.003 123.59 125.624C124.823 128.244 128.172 130.908 128.433 130.908C128.694 130.908 131.166 126.327 131.34 123.065C131.514 119.804 128.962 111.351 129.753 107.653C130.29 104.745 130.614 101.801 130.724 98.8453L123.235 98.2352Z" fill="white" stroke="#2E353A" stroke-linecap="round" stroke-linejoin="round"/>
<g style="mix-blend-mode:multiply" opacity="0.54">
<path d="M123.235 98.2352C123.235 98.2352 123.565 99.6856 123.933 101.665C125.265 102.435 126.79 102.808 128.327 102.742C129.087 102.7 129.831 102.503 130.512 102.163C130.674 100.296 130.724 98.8515 130.724 98.8515L123.235 98.2352Z" fill="#7A8590"/>
</g>
<path d="M128.433 130.915C128.701 130.915 131.166 126.333 131.34 123.072C131.514 119.81 128.962 111.357 129.753 107.659C129.831 107.282 129.906 106.89 129.977 106.483C129.393 106.618 128.796 106.694 128.196 106.707C126.971 106.752 125.751 106.518 124.63 106.022C124.781 107.15 124.874 108.284 124.91 109.421C124.997 113.648 122.358 122.985 123.59 125.605C124.823 128.226 128.159 130.915 128.433 130.915Z" fill="white" stroke="#2E353A" stroke-linecap="round" stroke-linejoin="round"/>
<path d="M144.667 132.614C144.667 132.614 160.976 144.323 161.106 145.636C161.237 146.949 153.743 155.241 150.979 154.973C148.215 154.705 138.741 138.403 138.741 138.403L144.667 132.614Z" fill="#7A8590" stroke="#2E353A" stroke-linecap="round" stroke-linejoin="round"/>
<path d="M116.712 104.006L142.482 137.413L144.393 133.025L120.316 102.667L116.712 104.006Z" fill="#7A8590" stroke="#2E353A" stroke-linecap="round" stroke-linejoin="round"/>
<path d="M110.313 178.129L110.543 183.108C110.543 183.108 106.939 185.598 105.365 186.594C103.79 187.59 101.094 189.177 101.991 189.856C102.887 190.534 115.063 189.856 115.063 189.856C115.063 189.856 115.399 189.632 115.399 188.169C115.399 186.706 115.175 180.183 115.175 180.183L110.313 178.129Z" fill="white" stroke="#2E353A" stroke-linecap="round" stroke-linejoin="round"/>
<path d="M115.374 188.138C115.374 187.727 115.374 186.893 115.33 185.953L111.664 186.227C111.664 186.227 111.664 185.773 111.552 184.422C111.44 183.071 110.543 183.077 110.543 183.077C110.543 183.077 106.939 185.567 105.365 186.563C103.79 187.559 101.094 189.146 101.991 189.825C102.887 190.503 115.063 189.825 115.063 189.825C115.063 189.825 115.374 189.626 115.374 188.138Z" fill="#2E353A" stroke="#2E353A" stroke-linecap="round" stroke-linejoin="round"/>
<path d="M101.935 189.146C101.773 189.414 101.761 189.65 101.991 189.825C102.894 190.497 115.063 189.825 115.063 189.825C115.063 189.825 115.225 189.706 115.324 189.146H101.935Z" fill="white" stroke="#2E353A" stroke-linecap="round" stroke-linejoin="round"/>
<path d="M142.37 178.129L142.146 183.108C142.146 183.108 145.744 185.598 147.319 186.594C148.894 187.59 151.589 189.177 150.693 189.856C149.796 190.534 137.621 189.856 137.621 189.856C137.621 189.856 137.285 189.632 137.285 188.169C137.285 186.706 137.509 180.183 137.509 180.183L142.37 178.129Z" fill="white" stroke="#2E353A" stroke-linecap="round" stroke-linejoin="round"/>
<path d="M137.31 188.138C137.31 187.727 137.31 186.893 137.353 185.953L141.019 186.227C141.019 186.227 141.019 185.773 141.131 184.422C141.244 183.071 142.146 183.077 142.146 183.077C142.146 183.077 145.744 185.567 147.319 186.563C148.894 187.559 151.589 189.146 150.693 189.825C149.796 190.503 137.621 189.825 137.621 189.825C137.621 189.825 137.31 189.626 137.31 188.138Z" fill="#2E353A" stroke="#2E353A" stroke-linecap="round" stroke-linejoin="round"/>
<path d="M150.749 189.146C150.917 189.414 150.923 189.65 150.693 189.825C149.79 190.497 137.621 189.825 137.621 189.825C137.621 189.825 137.459 189.706 137.359 189.146H150.749Z" fill="white" stroke="#2E353A" stroke-linecap="round" stroke-linejoin="round"/>
<path d="M115.262 138.54C115.262 138.54 107.73 140.899 105.028 142.81C102.327 144.721 103.783 148.773 106.603 151.356C109.423 153.94 113.575 155.633 116.612 154.282C119.65 152.931 123.024 149.894 127.524 149.894C132.025 149.894 135.959 153.386 139.973 154.842C143.988 156.299 149.31 151.581 150.325 147.647C151.34 143.713 148.806 139.318 142.563 139.772C129.36 140.737 126.584 141.696 115.262 138.54Z" fill="#2E353A" stroke="#2E353A" stroke-linecap="round" stroke-linejoin="round"/>
<path d="M107.394 143.034C107.394 143.034 103.566 141.914 102.445 145.524C101.325 149.134 104.356 169.588 104.935 173.535C105.514 177.481 105.383 178.147 105.383 178.147C105.383 178.147 110.22 178.932 111.795 179.834C113.369 180.737 115.847 180.731 115.847 180.731C115.847 180.731 113.593 166.109 114.048 162.735C114.502 159.361 116.295 157.002 115.847 153.516C115.399 150.031 112.361 145.424 112.361 145.424" fill="#2E353A"/>
<path d="M107.394 143.034C107.394 143.034 103.566 141.914 102.445 145.524C101.325 149.134 104.356 169.588 104.935 173.535C105.514 177.481 105.383 178.147 105.383 178.147C105.383 178.147 110.22 178.932 111.795 179.834C113.369 180.737 115.847 180.731 115.847 180.731C115.847 180.731 113.593 166.109 114.048 162.735C114.502 159.361 116.295 157.002 115.847 153.516C115.399 150.031 112.361 145.424 112.361 145.424" stroke="#2E353A" stroke-linecap="round" stroke-linejoin="round"/>
<path d="M145.458 143.034C145.458 143.034 149.28 141.914 150.406 145.524C151.533 149.134 148.489 169.588 147.916 173.535C147.344 177.481 147.468 178.147 147.468 178.147C147.468 178.147 142.632 178.932 141.057 179.834C139.482 180.737 137.005 180.731 137.005 180.731C137.005 180.731 139.258 166.109 138.81 162.735C138.361 159.361 136.556 157.002 137.005 153.516C137.453 150.031 140.497 145.424 140.497 145.424" fill="#2E353A"/>
<path d="M145.458 143.034C145.458 143.034 149.28 141.914 150.406 145.524C151.533 149.134 148.489 169.588 147.916 173.535C147.344 177.481 147.468 178.147 147.468 178.147C147.468 178.147 142.632 178.932 141.057 179.834C139.482 180.737 137.005 180.731 137.005 180.731C137.005 180.731 139.258 166.109 138.81 162.735C138.361 159.361 136.556 157.002 137.005 153.516C137.453 150.031 140.497 145.424 140.497 145.424" stroke="#2E353A" stroke-linecap="round" stroke-linejoin="round"/>
<path d="M140.223 146.171C138.957 148.275 137.914 150.505 137.111 152.825C136.973 150.697 137.538 148.583 138.716 146.806" stroke="white" stroke-width="0.5" stroke-linecap="round" stroke-linejoin="round"/>
<path d="M142.713 143.457C142.226 143.765 141.79 144.145 141.418 144.584" stroke="white" stroke-width="0.5" stroke-linecap="round" stroke-linejoin="round"/>
<path d="M111.919 145.599C111.919 145.599 115.654 150.417 115.803 153.896" stroke="white" stroke-width="0.5" stroke-linecap="round" stroke-linejoin="round"/>
<path d="M114.328 146.539C115 148.145 115 149.483 115.803 152.558" stroke="white" stroke-width="0.5" stroke-linecap="round" stroke-linejoin="round"/>
<path d="M108.962 175.147L103.752 158.72" stroke="white" stroke-width="0.5" stroke-linecap="round" stroke-linejoin="round"/>
<path d="M109.778 177.73L109.255 176.074" stroke="white" stroke-width="0.5" stroke-linecap="round" stroke-linejoin="round"/>
<path d="M144.854 174.469L148.197 164.739" stroke="white" stroke-width="0.5" stroke-linecap="round" stroke-linejoin="round"/>
<path d="M143.783 177.593L144.399 175.794" stroke="white" stroke-width="0.5" stroke-linecap="round" stroke-linejoin="round"/>
<path d="M116.986 84.429L118.654 91.6496C118.654 91.6496 116.718 90.4047 116.718 92.1787C116.718 93.9527 117.515 94.9051 118.586 95.291C119.242 95.5022 119.943 95.5323 120.615 95.3781C121.126 96.4477 121.843 97.4059 122.725 98.1979C124.296 99.6044 126.344 100.359 128.452 100.308C130.475 100.308 133.12 98.2851 133.824 95.9072C134.527 93.5294 132.236 89.0601 131.888 86.0412C131.539 83.0222 134.44 83.1343 133.133 80.6693C131.825 78.2043 124.767 77.7624 120.447 78.8019C116.127 79.8414 116.986 84.429 116.986 84.429Z" fill="white" stroke="#2E353A" stroke-linecap="round" stroke-linejoin="round"/>
<path d="M130.985 87.1367C130.766 87.175 130.557 87.2616 130.375 87.3902C130.193 87.5187 130.042 87.6861 129.932 87.8802C129.823 88.0744 129.758 88.2904 129.742 88.5127C129.726 88.7351 129.759 88.9582 129.84 89.166C130.01 90.1025 130.512 90.9465 131.253 91.5438C131.253 91.5438 131.695 92.8634 129.666 92.6891" stroke="#2E353A" stroke-linecap="round" stroke-linejoin="round"/>
<path d="M127.269 87.7716C126.698 87.5823 126.082 87.5779 125.509 87.759C124.936 87.94 124.434 88.2973 124.076 88.78" stroke="#2E353A" stroke-linecap="round" stroke-linejoin="round"/>
<path d="M127.281 90.3112C127.362 90.691 127.281 91.0333 127.045 91.0831C126.808 91.1329 126.591 90.8652 126.503 90.4606C126.416 90.056 126.503 89.7324 126.734 89.6826C126.964 89.6328 127.194 89.9315 127.281 90.3112Z" fill="#2E353A"/>
<path d="M131.327 89.4087C131.415 89.7884 131.327 90.137 131.097 90.1868C130.867 90.2366 130.643 89.9627 130.556 89.5643C130.468 89.1659 130.556 88.8423 130.786 88.7925C131.016 88.7427 131.271 89.0477 131.327 89.4087Z" fill="#2E353A"/>
<path d="M130.811 94.9797L129.491 95.154" stroke="#2E353A" stroke-linecap="round" stroke-linejoin="round"/>
<path d="M120.098 139.1L121.673 140.899L119.202 142.81L117.739 141.571L120.098 139.1Z" fill="#2E353A" stroke="#2E353A" stroke-linecap="round" stroke-linejoin="round"/>
<path d="M109.753 130.099C109.753 130.099 110.425 129.763 112 130.778C113.575 131.792 121.001 137.961 120.44 139.324C120.146 140 119.679 140.587 119.085 141.024C118.492 141.461 117.793 141.734 117.06 141.814C115.492 142.038 108.402 137.65 106.479 136.411C104.555 135.172 103.989 134.612 104.119 134.052C104.25 133.492 104.007 131.917 105.364 131.238" fill="white"/>
<path d="M109.753 130.099C109.753 130.099 110.425 129.763 112 130.778C113.575 131.792 121.001 137.961 120.44 139.324C120.146 140 119.679 140.587 119.085 141.024C118.492 141.461 117.793 141.734 117.06 141.814C115.492 142.038 108.402 137.65 106.479 136.411C104.555 135.172 103.989 134.612 104.119 134.052C104.25 133.492 104.007 131.917 105.364 131.238" stroke="#2E353A" stroke-linecap="round" stroke-linejoin="round"/>
<path d="M134.496 138.198L132.361 139.884L134.608 142.362L136.519 140.675L134.496 138.198Z" fill="#2E353A" stroke="#2E353A" stroke-linecap="round" stroke-linejoin="round"/>
<path d="M146.08 129.203C146.08 129.203 143.497 129.875 142.258 131.002C140.685 132.298 139.046 133.512 137.347 134.637C136.332 135.372 135 135.975 134.235 137.027C133.226 138.465 134.297 139.268 135.336 140.301C137.857 142.791 140.907 140.625 143.285 139.212C145.663 137.799 148.315 136.461 150.331 134.6C151.794 133.249 152.13 131.002 150.443 129.62" fill="white"/>
<path d="M146.08 129.203C146.08 129.203 143.497 129.875 142.258 131.002C140.685 132.298 139.046 133.512 137.347 134.637C136.332 135.372 135 135.975 134.235 137.027C133.226 138.465 134.297 139.268 135.336 140.301C137.857 142.791 140.907 140.625 143.285 139.212C145.663 137.799 148.315 136.461 150.331 134.6C151.794 133.249 152.13 131.002 150.443 129.62" stroke="#2E353A" stroke-linecap="round" stroke-linejoin="round"/>
<path d="M121.673 140.899C122.686 141.278 123.634 141.809 124.487 142.474C125.271 143.258 126.622 147.422 126.622 148.325C126.622 149.228 126.734 150.124 126.062 150.124C125.389 150.124 124.935 149.558 124.599 149.558C124.263 149.558 123.024 148.773 121.897 148.095C120.771 147.416 119.986 145.287 119.65 144.273C119.314 143.258 119.202 142.81 119.202 142.81L121.673 140.899Z" fill="white" stroke="#2E353A" stroke-linecap="round" stroke-linejoin="round"/>
<path d="M123.852 149.165L122.059 146.651" stroke="#2E353A" stroke-width="0.5" stroke-linecap="round" stroke-linejoin="round"/>
<path d="M125.078 149.738L123.354 146.146" stroke="#2E353A" stroke-width="0.5" stroke-linecap="round" stroke-linejoin="round"/>
<path d="M126.298 149.813L124.717 145.642" stroke="#2E353A" stroke-width="0.5" stroke-linecap="round" stroke-linejoin="round"/>
<path d="M132.361 139.884C131.383 140.584 130.444 141.337 129.547 142.138C128.763 142.922 127.412 147.117 127.412 147.983C127.412 148.848 127.3 149.782 127.973 149.782C128.645 149.782 129.099 149.221 129.435 149.221C129.771 149.221 131.01 148.437 132.137 147.759C133.263 147.08 134.048 144.945 134.384 143.937C134.582 143.437 134.658 142.897 134.608 142.362L132.361 139.884Z" fill="white" stroke="#2E353A" stroke-linecap="round" stroke-linejoin="round"/>
<path d="M127.973 149.782L129.604 145.717" stroke="#2E353A" stroke-width="0.5" stroke-linecap="round" stroke-linejoin="round"/>
<path d="M129.174 149.309L131.184 145.574" stroke="#2E353A" stroke-width="0.5" stroke-linecap="round" stroke-linejoin="round"/>
<path d="M130.967 148.443L132.33 145.86" stroke="#2E353A" stroke-width="0.5" stroke-linecap="round" stroke-linejoin="round"/>
<path d="M133.102 80.6195C131.782 78.1297 124.736 77.7126 120.416 78.7521C116.096 79.7916 116.986 84.3916 116.986 84.3916L118.573 91.2388L119.009 91.7803C119.009 91.7803 119.631 92.3094 119.893 91.6932C120.154 91.0769 119.009 89.4896 119.451 88.8734C119.893 88.2572 121.654 88.8734 121.125 86.7632C120.596 84.6531 120.596 83.3272 123.061 82.4433C125.526 81.5594 128.52 81.1984 129.84 82.1819C131.16 83.1654 131.869 85.9665 131.869 85.9665C131.514 82.9973 134.421 83.0845 133.102 80.6195Z" fill="#2E353A" stroke="#2E353A" stroke-linecap="round" stroke-linejoin="round"/>
<path d="M117.621 83.9248C118.392 84.0471 119.178 84.0471 119.949 83.9248C121.194 83.7194 121.474 81.1672 125.67 80.5635C129.865 79.9597 129.84 82.2068 129.84 82.2068C129.84 82.2068 132.131 79.885 131.185 79.1505C130.238 78.416 123.528 78.584 120.69 80.9618" stroke="white" stroke-width="0.5" stroke-linecap="round" stroke-linejoin="round"/>
<path d="M158.212 147.391C157.965 147.689 157.699 147.97 157.415 148.232" stroke="#2E353A" stroke-width="0.5" stroke-linecap="round" stroke-linejoin="round"/>
<path d="M151.707 139.449C151.707 139.449 159.214 144.54 159.089 145.673C159.066 145.865 159.013 146.052 158.934 146.227" stroke="#2E353A" stroke-width="0.5" stroke-linecap="round" stroke-linejoin="round"/>
</svg>
