<svg width="436" height="425" viewBox="0 0 436 425" fill="none" xmlns="http://www.w3.org/2000/svg">
<g opacity="0.51">
<path d="M405.765 199.949C405.766 199.945 405.766 199.941 405.767 199.938L406.748 200.131C407.31 196.909 408.061 193.706 408.818 190.483C409.423 187.904 410.031 185.31 410.548 182.683C412.651 171.275 412.815 159.594 411.032 148.132C407.644 126.135 398.898 105.309 385.565 87.489C371.379 68.4588 350.045 53.0452 327.118 58.8684C313.943 62.198 301.884 69.3013 289.818 76.4084C280.041 82.1674 270.26 87.9289 259.878 91.6869C236.348 100.196 212.644 94.3199 188.91 88.436C173.016 84.4957 157.108 80.5519 141.23 80.9232C107.044 81.6659 71.1794 93.9365 48.6617 124.279C39.4695 136.668 33.0651 153.341 35.2394 169.745M405.765 199.949C406.276 197.021 406.941 194.114 407.618 191.22C407.693 190.898 407.768 190.577 407.844 190.256C408.449 187.676 409.053 185.102 409.566 182.496M405.765 199.949C404.591 205.909 404.577 212.039 405.723 218.005L405.725 218.013L405.727 218.021C407.33 225.652 410.972 232.245 414.775 238.614C415.278 239.457 415.784 240.295 416.288 241.131C419.619 246.652 422.893 252.08 425.04 258.082M405.765 199.949L431.483 294.174C430.676 318.984 420.407 344.871 398.729 354.558M409.566 182.496C409.565 182.498 409.565 182.5 409.564 182.502L410.548 182.683L409.567 182.49C409.566 182.492 409.566 182.494 409.566 182.496ZM409.566 182.496C411.647 171.2 411.809 159.635 410.044 148.285L410.044 148.284C406.681 126.449 397.999 105.777 384.765 88.0881L384.764 88.0867C370.644 69.1459 349.677 54.1705 327.365 59.8376L327.363 59.8379C315.591 62.813 304.69 68.8486 293.757 75.2525C292.613 75.9226 291.469 76.5969 290.323 77.2721C280.558 83.0245 270.694 88.8355 260.218 92.6272L260.218 92.6273C240.283 99.8367 220.27 96.8489 200.441 92.2602C196.487 91.3451 192.543 90.3677 188.608 89.3924C172.726 85.4563 156.984 81.5551 141.253 81.9229L141.251 81.923C107.266 82.6613 71.7421 94.8562 49.4648 124.875M49.4648 124.875C49.4648 124.875 49.4648 124.875 49.4648 124.875L48.6641 124.281L49.4648 124.875ZM49.4648 124.875C40.3766 137.124 34.1004 153.541 36.2307 169.614M36.2307 169.614C36.2307 169.614 36.2307 169.614 36.2307 169.613L35.2394 169.745M36.2307 169.614L35.2394 169.745M36.2307 169.614C37.5324 179.399 41.7788 188.053 47.1033 196.138C50.5417 201.359 54.3791 206.275 58.1501 211.106C60.2504 213.797 62.3302 216.461 64.3089 219.137C72.7574 230.557 78.6258 242.546 80.5779 255.066C82.5328 267.603 80.5494 280.609 73.3964 294.02C71.4483 297.683 69.3622 301.261 67.2962 304.806C66.8218 305.619 66.3486 306.431 65.8783 307.242C63.3534 311.594 60.9081 315.921 58.7965 320.374C54.5786 329.269 51.7111 338.63 52.2545 349.546C53.1264 367.036 61.6309 381.093 73.3291 391.996C85.0372 402.908 99.9098 410.624 113.383 415.388L113.384 415.388C140.748 425.072 171.784 426.062 198.917 415.187C210.933 410.351 221.163 402.633 231.213 394.354C233.111 392.791 235.003 391.207 236.9 389.619C245.016 382.824 253.216 375.959 262.268 370.381C281.909 358.214 305.117 353.12 328.048 355.944M35.2394 169.745L113.05 416.331C140.605 426.083 171.895 427.094 199.289 416.115C213.769 410.287 225.647 400.344 237.565 390.366C245.678 383.575 253.81 376.767 262.795 371.231C282.242 359.184 305.221 354.141 327.926 356.937C330.682 357.266 333.456 357.624 336.242 357.984C357.15 360.687 378.736 363.477 398.729 354.558M328.048 355.944L327.926 356.936L328.044 355.944C328.046 355.944 328.047 355.944 328.048 355.944ZM328.048 355.944C330.817 356.275 333.596 356.633 336.381 356.993C357.32 359.694 378.604 362.44 398.322 353.645M398.322 353.645C398.322 353.645 398.322 353.645 398.321 353.645L398.729 354.558M398.322 353.645L398.729 354.558M398.322 353.645C419.485 344.187 429.682 318.792 430.484 294.141L430.484 294.137C430.936 281.884 429.09 269.655 425.04 258.082M425.04 258.082C425.04 258.083 425.041 258.084 425.041 258.086L425.982 257.75L425.039 258.08C425.039 258.08 425.04 258.081 425.04 258.082Z" fill="#FFD95C" stroke="black" stroke-width="2"/>
<path opacity="0.7" d="M405.952 200.328C405.952 200.324 405.953 200.32 405.954 200.317L406.935 200.51C407.497 197.288 408.248 194.085 409.004 190.862C409.609 188.282 410.218 185.689 410.734 183.062C412.838 171.654 413.002 159.973 411.219 148.511C407.831 126.514 399.085 105.688 385.752 87.868C371.565 68.8378 350.232 53.4242 327.305 59.2473C314.129 62.5769 302.07 69.6803 290.005 76.7874C280.228 82.5464 270.447 88.3078 260.064 92.0658C236.534 100.575 212.831 94.6989 189.097 88.815C173.203 84.8746 157.295 80.9309 141.416 81.3021C107.231 82.0448 71.3659 94.3154 48.8482 124.658C39.656 137.047 33.2516 153.72 35.4259 170.124M405.952 200.328C406.463 197.4 407.127 194.493 407.804 191.599C407.88 191.277 407.955 190.956 408.03 190.635C408.636 188.055 409.239 185.481 409.752 182.875M405.952 200.328C404.778 206.288 404.764 212.418 405.91 218.383L405.911 218.392L405.913 218.4C407.516 226.031 411.158 232.624 414.962 238.993C415.465 239.836 415.971 240.674 416.475 241.51C419.805 247.031 423.08 252.459 425.227 258.461M405.952 200.328L431.67 294.552C430.863 319.363 420.594 345.249 398.916 354.937M409.752 182.875C409.752 182.877 409.751 182.879 409.751 182.881L410.734 183.062L409.753 182.869C409.753 182.871 409.752 182.873 409.752 182.875ZM409.752 182.875C411.834 171.579 411.996 160.014 410.231 148.664L410.23 148.663C406.867 126.828 398.186 106.156 384.951 88.4671L384.95 88.4657C370.83 69.5248 349.863 54.5495 327.551 60.2166L327.55 60.2169C315.777 63.1919 304.877 69.2276 293.944 75.6315C292.8 76.3016 291.655 76.9759 290.509 77.651C280.744 83.4034 270.88 89.2144 260.405 93.0061L260.404 93.0062C240.469 100.216 220.457 97.2279 200.628 92.6391C196.673 91.724 192.729 90.7466 188.794 89.7714C172.912 85.8353 157.17 81.934 141.439 82.3019L141.438 82.3019C107.453 83.0402 71.9287 95.2351 49.6513 125.254M49.6513 125.254C49.6513 125.254 49.6513 125.254 49.6513 125.254L48.8507 124.66L49.6513 125.254ZM49.6513 125.254C40.5631 137.503 34.2869 153.92 36.4172 169.993M36.4172 169.993C36.4172 169.993 36.4172 169.992 36.4172 169.992L35.4259 170.124M36.4172 169.993L35.4259 170.124M36.4172 169.993C37.7189 179.778 41.9653 188.432 47.2898 196.517C50.7283 201.738 54.5657 206.654 58.3366 211.485C60.437 214.176 62.5167 216.84 64.4954 219.516C72.9439 230.936 78.8124 242.925 80.7644 255.445C82.7193 267.982 80.7359 280.988 73.5829 294.399C71.6349 298.062 69.5487 301.64 67.4827 305.185C67.0084 305.998 66.5351 306.81 66.0648 307.621C63.5399 311.973 61.0946 316.3 58.983 320.753C54.7652 329.648 51.8976 339.009 52.4411 349.925C53.3129 367.415 61.8175 381.472 73.5156 392.375C85.2237 403.287 100.096 411.003 113.57 415.767L113.57 415.767C140.934 425.451 171.97 426.441 199.103 415.566C211.119 410.73 221.35 403.012 231.4 394.733C233.297 393.17 235.19 391.586 237.087 389.998C245.203 383.203 253.403 376.338 262.455 370.76C282.096 358.593 305.303 353.499 328.234 356.323M35.4259 170.124L113.237 416.71C140.792 426.462 172.082 427.473 199.475 416.494C213.956 410.666 225.833 400.723 237.752 390.745C245.865 383.954 253.997 377.146 262.981 371.61C282.429 359.563 305.407 354.52 328.112 357.316C330.869 357.645 333.643 358.003 336.429 358.363C357.337 361.066 378.922 363.855 398.916 354.937M328.234 356.323L328.112 357.315L328.231 356.323C328.232 356.323 328.233 356.323 328.234 356.323ZM328.234 356.323C331.003 356.654 333.782 357.012 336.567 357.372C357.507 360.073 378.791 362.819 398.508 354.024M398.508 354.024C398.508 354.024 398.508 354.024 398.508 354.024L398.916 354.937M398.508 354.024L398.916 354.937M398.508 354.024C419.671 344.566 429.868 319.171 430.67 294.52L430.671 294.516C431.123 282.263 429.276 270.034 425.227 258.461M425.227 258.461C425.227 258.462 425.227 258.463 425.228 258.465L426.169 258.128L425.226 258.458C425.226 258.459 425.226 258.46 425.227 258.461Z" fill="white" stroke="black" stroke-width="2"/>
</g>
<path d="M336.792 8.90893L336.792 8.909L336.797 8.89816C337.08 8.2861 337.487 7.73942 337.993 7.2926C338.498 6.84579 339.091 6.50855 339.733 6.30214C340.375 6.09573 341.053 6.02463 341.724 6.09334C342.391 6.16166 343.037 6.36672 343.621 6.6957C345.317 7.7667 346.336 10.1955 346.787 12.9792C347.233 15.7332 347.093 18.6659 346.625 20.5455C346.624 20.5489 346.622 20.5542 346.619 20.5621C346.614 20.5774 346.607 20.5978 346.598 20.6234C346.58 20.6746 346.556 20.7425 346.526 20.8256C346.465 20.9914 346.383 21.2131 346.287 21.4719C346.093 21.9891 345.843 22.6512 345.593 23.304C345.343 23.9571 345.094 24.5994 344.904 25.0775C344.88 25.1396 344.856 25.1988 344.834 25.2547C344.697 25.1417 344.536 25.0079 344.355 24.8562C343.752 24.3496 342.933 23.6436 342.067 22.8426C341.201 22.0408 340.292 21.1483 339.509 20.2684C338.72 19.3823 338.08 18.5344 337.728 17.8206L337.728 17.8206L337.726 17.8166C337.066 16.5079 336.5 14.9369 336.269 13.357C336.037 11.7747 336.146 10.2202 336.792 8.90893Z" fill="#FFD95C" stroke="black"/>
<mask id="path-4-inside-1_1765_1108" fill="white">
<path d="M434.335 63.3138C431.181 60.0847 423.163 61.4194 419.557 63.2169C419.245 63.3676 414.648 66.3492 414.713 66.446L414.778 66.5106C413.518 66.7151 412.151 66.9412 410.677 67.221C407.953 67.77 404.875 68.405 401.581 69.3738C398.012 70.3192 394.504 71.4802 391.076 72.8504C387.225 74.3557 383.515 76.1999 379.989 78.3615L379.871 78.4476C380.732 77.4465 383.035 74.5511 383.197 74.3143C385.35 70.9022 387.502 63.0555 384.585 59.6003C384.081 59.0489 383.468 58.6084 382.784 58.3071C382.1 58.0058 381.361 57.8502 380.614 57.8502C379.866 57.8502 379.127 58.0058 378.444 58.3071C377.76 58.6084 377.146 59.0489 376.642 59.6003C374.414 61.8822 374.166 65.7895 374.618 68.771C375.135 72.1185 379.15 78.2861 379.473 78.7812C375.941 81.0614 372.567 83.5787 369.376 86.3158C367.503 87.9088 365.674 89.5449 363.855 91.2456C364.565 90.3522 365.2 89.5557 365.275 89.4265C367.428 86.0144 369.581 78.1677 366.675 74.7126C366.17 74.1611 365.557 73.7207 364.873 73.4193C364.189 73.118 363.45 72.9624 362.703 72.9624C361.956 72.9624 361.217 73.118 360.533 73.4193C359.849 73.7207 359.235 74.1611 358.731 74.7126C356.503 76.9945 356.255 80.9124 356.707 83.8832C357.16 86.854 360.486 92.2251 361.379 93.5706L359.312 95.5188C356.008 98.6618 352.725 101.816 349.41 104.808C348.247 105.884 347.052 106.864 345.868 107.865C346.504 107.068 347.031 106.401 347.106 106.293C349.259 102.881 351.412 95.0344 348.495 91.5685C347.994 91.0136 347.384 90.569 346.702 90.263C346.02 89.9571 345.282 89.7964 344.535 89.7914C343.788 89.7863 343.047 89.9369 342.362 90.2336C341.676 90.5303 341.059 90.9666 340.551 91.5147C338.334 93.7966 338.076 97.7146 338.528 100.685C338.98 103.656 341.994 108.511 343.048 110.179C341.811 111.169 340.562 112.159 339.313 113.064C338.441 113.656 337.645 114.291 336.741 114.84L334.114 116.519C332.403 117.52 330.649 118.564 328.959 119.511C327.785 120.168 326.655 120.77 325.525 121.395C326.698 120.318 328.948 118.273 329.12 118.079C331.347 115.317 332.829 112.03 333.426 108.532C333.689 108.238 333.92 107.917 334.114 107.574C334.508 106.939 334.765 106.23 334.869 105.49C334.974 104.751 334.923 103.998 334.721 103.279C334.518 102.56 334.168 101.891 333.693 101.315C333.218 100.739 332.629 100.268 331.962 99.9319C328.851 98.5003 324.072 100.535 320.757 102.892C320.897 100.599 320.832 99.1892 320.832 99.1892L319.96 99.2753L320.595 97.7576C321.026 96.8104 321.349 95.7556 321.725 94.7438C322.565 92.3758 323.297 89.9324 323.986 87.4675C325.547 88.221 331.111 90.8581 334.136 90.9657C337.161 91.0734 341.003 90.3845 343.016 87.9089C343.503 87.3417 343.867 86.6792 344.084 85.9636C344.301 85.248 344.367 84.495 344.277 83.7527C344.187 83.0104 343.943 82.295 343.561 81.6522C343.179 81.0093 342.667 80.4531 342.058 80.0191C338.291 77.5434 330.735 80.568 327.592 83.0867C327.398 83.2482 325.342 85.3148 324.244 86.4665C324.642 84.9811 325.051 83.4957 325.407 81.9673C326.429 77.5865 327.333 73.1088 328.259 68.6526C328.539 67.2856 328.84 65.9294 329.131 64.5624C329.68 64.8423 336.235 68.1144 339.615 68.2328C342.629 68.3405 346.482 67.6516 348.495 65.1759C348.98 64.609 349.343 63.9472 349.559 63.2327C349.775 62.5182 349.84 61.7666 349.75 61.0256C349.66 60.2846 349.416 59.5705 349.035 58.9286C348.654 58.2866 348.144 57.731 347.537 57.2969C343.77 54.8105 336.213 57.8351 333.07 60.3646C332.834 60.5475 329.841 63.5183 329.185 64.3148C329.82 61.3225 330.498 58.341 331.273 55.424C332.301 51.4898 333.588 47.628 335.126 43.8638C335.385 43.993 342.209 47.4374 345.675 47.5558C348.678 47.6742 352.542 46.9745 354.555 44.4989C355.04 43.9312 355.401 43.2689 355.616 42.554C355.832 41.839 355.896 41.0872 355.805 40.3461C355.714 39.6051 355.469 38.8911 355.087 38.2496C354.705 37.6081 354.194 37.0531 353.586 36.6198C349.819 34.1334 342.273 37.158 339.13 39.6875C338.883 39.8812 335.718 43.0781 335.18 43.7024C335.277 43.4871 335.342 43.2503 335.438 43.035C337.074 39.2775 339.044 35.675 341.326 32.2713C342.564 30.3877 343.845 28.6439 345.137 26.9863C346.342 27.7613 351.885 31.2272 354.996 31.6901C358.107 32.1529 361.885 31.8515 364.156 29.6234C364.701 29.1125 365.134 28.4936 365.427 27.8061C365.72 27.1186 365.867 26.3776 365.858 25.6303C365.849 24.883 365.684 24.1458 365.374 23.4657C365.065 22.7855 364.617 22.1773 364.059 21.6798C360.593 18.7952 352.757 20.9802 349.356 23.1437C349.173 23.2513 347.418 24.6614 346.127 25.6947C346.719 24.9628 347.311 24.1878 347.892 23.4881C350.045 20.8618 352.198 18.5907 354.157 16.5994C355.233 15.523 356.309 14.4466 357.246 13.5532C358.828 13.6932 365.189 14.1775 368.106 13.1765C371.023 12.1755 374.306 10.1519 375.286 7.11655C375.535 6.41243 375.634 5.66417 375.579 4.9194C375.523 4.17462 375.312 3.44963 374.961 2.79054C374.61 2.13146 374.125 1.55271 373.538 1.09112C372.951 0.629523 372.274 0.295187 371.551 0.109387C367.137 -0.848582 361.185 4.70548 359.162 8.18216C358.989 8.48354 356.804 13.5102 356.88 13.564H356.977C356.029 14.4251 355.028 15.3723 353.952 16.4164C351.971 18.3754 349.765 20.6035 347.494 23.1975C345.045 25.961 342.759 28.865 340.648 31.8946C338.27 35.2918 336.199 38.8939 334.459 42.6583L334.394 42.7982C334.567 41.485 334.9 37.8038 334.889 37.5132C334.803 33.4876 332.263 25.7593 327.936 24.4676C327.214 24.2795 326.461 24.2436 325.725 24.3619C324.988 24.4803 324.285 24.7505 323.658 25.1554C323.032 25.5602 322.496 26.0909 322.086 26.7136C321.675 27.3364 321.398 28.0378 321.273 28.7731C320.681 31.8946 322.63 35.2959 324.653 37.5348C326.924 40.0535 333.684 42.9166 334.222 43.2072C332.536 47.0523 331.116 51.0082 329.97 55.0473C329.282 57.4045 328.668 59.7941 328.076 62.2051C328.184 61.0642 328.27 60.0524 328.259 59.9017C328.173 55.8761 325.633 48.1478 321.306 46.8561C320.585 46.6697 319.833 46.6351 319.097 46.7543C318.362 46.8735 317.66 47.144 317.035 47.5487C316.409 47.9534 315.875 48.4834 315.465 49.1053C315.055 49.7272 314.779 50.4274 314.654 51.1616C314.051 54.2831 316.01 57.6844 318.023 59.9232C320.036 62.1621 325.783 64.7884 327.301 65.4665C327.086 66.3922 326.86 67.3071 326.644 68.2328C325.622 72.6782 324.632 77.1236 323.512 81.4399C323.125 82.9683 322.683 84.4537 322.253 85.9391C322.339 84.9381 322.404 84.077 322.404 83.9478C322.317 79.9222 319.777 72.1939 315.45 70.9022C314.729 70.7158 313.977 70.6811 313.242 70.8004C312.507 70.9196 311.804 71.1901 311.179 71.5948C310.554 71.9995 310.019 72.5295 309.61 73.1514C309.2 73.7733 308.924 74.4735 308.798 75.2077C308.196 78.3399 310.144 81.7412 312.167 83.9801C314.191 86.2189 319.368 88.587 321.166 89.3619C320.681 90.8796 320.186 92.3866 319.637 93.8289C319.25 94.8084 318.938 95.7771 318.486 96.7351L317.248 99.5121C316.29 99.6736 315.181 99.8888 313.943 100.169C313.62 96.1108 312.103 91.1595 309.014 89.6956C308.326 89.4001 307.584 89.2512 306.836 89.2586C306.087 89.2659 305.349 89.4293 304.667 89.7382C303.985 90.0472 303.375 90.4949 302.877 91.0529C302.378 91.6108 302.001 92.2667 301.77 92.9785C300.693 95.9816 302.125 99.6413 303.782 102.149C304.025 102.53 304.298 102.89 304.6 103.226C299.311 105.383 294.554 108.667 290.661 112.848C279.499 125.334 280.339 144.3 280.339 144.3C280.339 144.3 296.172 143.223 307.421 133.536C310.876 131.9 315.343 129.726 320.455 126.981C322.371 125.969 324.395 124.828 326.462 123.655C327.01 124.333 331.456 129.844 334.416 131.34C337.107 132.707 340.874 133.687 343.759 132.288C344.434 131.976 345.038 131.528 345.532 130.971C346.026 130.415 346.398 129.762 346.627 129.054C346.856 128.346 346.935 127.598 346.86 126.858C346.785 126.117 346.557 125.401 346.191 124.753C343.813 120.921 335.686 120.512 331.779 121.524C331.553 121.588 329.12 122.493 327.592 123.085C328.431 122.6 329.26 122.137 330.121 121.621C331.833 120.62 333.512 119.576 335.32 118.456L337.914 116.723C338.786 116.164 339.647 115.464 340.519 114.829C342.521 113.322 344.48 111.686 346.417 110.007C347.3 111.503 350.497 116.766 352.951 118.521C355.405 120.275 359 121.825 362.046 120.878C362.765 120.673 363.433 120.32 364.008 119.842C364.583 119.363 365.052 118.771 365.386 118.101C365.719 117.432 365.909 116.701 365.944 115.954C365.978 115.207 365.857 114.461 365.588 113.763C363.822 109.619 355.846 107.972 351.842 108.381C351.584 108.381 348.742 108.995 347.182 109.35C348.333 108.328 349.496 107.305 350.637 106.239C353.866 103.139 357.095 99.9104 360.324 96.7028C361.314 95.7125 362.315 94.7438 363.306 93.7751C363.607 94.3025 367.277 100.653 370.033 102.623C372.476 104.377 376.082 105.917 379.117 104.969C379.836 104.765 380.504 104.413 381.079 103.936C381.655 103.459 382.124 102.868 382.458 102.2C382.793 101.531 382.984 100.801 383.02 100.055C383.057 99.3085 382.937 98.5628 382.67 97.8653C380.894 93.7105 372.982 92.0744 368.914 92.4834C368.612 92.4834 364.522 93.366 363.532 93.6351C365.684 91.4824 367.923 89.3297 370.173 87.3814C373.206 84.6638 376.413 82.1469 379.774 79.8468C379.914 80.0944 383.714 86.7356 386.534 88.7484C388.977 90.5029 392.583 92.0529 395.618 91.0949C396.337 90.8904 397.005 90.5386 397.58 90.0618C398.155 89.5849 398.625 88.9936 398.959 88.3253C399.293 87.6571 399.485 86.9266 399.521 86.1803C399.557 85.4341 399.438 84.6884 399.17 83.9909C397.394 79.8361 389.429 78.2 385.414 78.609C385.102 78.609 380.7 79.567 379.903 79.793C380.108 79.6531 380.291 79.5024 380.484 79.3732C383.917 77.1594 387.541 75.2574 391.313 73.69C393.379 72.7966 395.403 72.0539 397.394 71.3866C397.975 72.689 400.688 78.6413 403.034 80.7402C405.381 82.8392 408.685 84.6797 411.807 84.077C412.545 83.9523 413.248 83.6751 413.873 83.2632C414.497 82.8513 415.029 82.3137 415.434 81.6847C415.839 81.0557 416.109 80.3492 416.226 79.6102C416.342 78.8712 416.304 78.116 416.112 77.3927C414.799 73.0872 407.06 70.5685 403.034 70.504C402.808 70.504 400.58 70.6977 398.955 70.8807C399.859 70.5901 400.785 70.2672 401.657 70.0088C404.886 69.0186 407.975 68.3189 410.687 67.7162C412.227 67.3825 413.626 67.1134 414.993 66.8874C416.231 67.8669 421.279 71.7848 424.26 72.5598C427.242 73.3348 431.095 73.4532 433.593 71.4835C434.231 71.0341 434.763 70.4514 435.154 69.7758C435.544 69.1001 435.783 68.3476 435.854 67.5704C435.924 66.7933 435.825 66.01 435.563 65.275C435.301 64.54 434.882 63.8708 434.335 63.3138ZM319.271 124.548C316.925 125.743 314.708 126.83 312.662 127.778C316.126 122.755 318.505 117.065 319.648 111.072C320.262 111.223 320.886 111.352 321.51 111.471C321.693 114.861 324.395 120.889 324.739 121.664C322.866 122.697 321.026 123.709 319.271 124.548Z"/>
</mask>
<path d="M434.335 63.3138C431.181 60.0847 423.163 61.4194 419.557 63.2169C419.245 63.3676 414.648 66.3492 414.713 66.446L414.778 66.5106C413.518 66.7151 412.151 66.9412 410.677 67.221C407.953 67.77 404.875 68.405 401.581 69.3738C398.012 70.3192 394.504 71.4802 391.076 72.8504C387.225 74.3557 383.515 76.1999 379.989 78.3615L379.871 78.4476C380.732 77.4465 383.035 74.5511 383.197 74.3143C385.35 70.9022 387.502 63.0555 384.585 59.6003C384.081 59.0489 383.468 58.6084 382.784 58.3071C382.1 58.0058 381.361 57.8502 380.614 57.8502C379.866 57.8502 379.127 58.0058 378.444 58.3071C377.76 58.6084 377.146 59.0489 376.642 59.6003C374.414 61.8822 374.166 65.7895 374.618 68.771C375.135 72.1185 379.15 78.2861 379.473 78.7812C375.941 81.0614 372.567 83.5787 369.376 86.3158C367.503 87.9088 365.674 89.5449 363.855 91.2456C364.565 90.3522 365.2 89.5557 365.275 89.4265C367.428 86.0144 369.581 78.1677 366.675 74.7126C366.17 74.1611 365.557 73.7207 364.873 73.4193C364.189 73.118 363.45 72.9624 362.703 72.9624C361.956 72.9624 361.217 73.118 360.533 73.4193C359.849 73.7207 359.235 74.1611 358.731 74.7126C356.503 76.9945 356.255 80.9124 356.707 83.8832C357.16 86.854 360.486 92.2251 361.379 93.5706L359.312 95.5188C356.008 98.6618 352.725 101.816 349.41 104.808C348.247 105.884 347.052 106.864 345.868 107.865C346.504 107.068 347.031 106.401 347.106 106.293C349.259 102.881 351.412 95.0344 348.495 91.5685C347.994 91.0136 347.384 90.569 346.702 90.263C346.02 89.9571 345.282 89.7964 344.535 89.7914C343.788 89.7863 343.047 89.9369 342.362 90.2336C341.676 90.5303 341.059 90.9666 340.551 91.5147C338.334 93.7966 338.076 97.7146 338.528 100.685C338.98 103.656 341.994 108.511 343.048 110.179C341.811 111.169 340.562 112.159 339.313 113.064C338.441 113.656 337.645 114.291 336.741 114.84L334.114 116.519C332.403 117.52 330.649 118.564 328.959 119.511C327.785 120.168 326.655 120.77 325.525 121.395C326.698 120.318 328.948 118.273 329.12 118.079C331.347 115.317 332.829 112.03 333.426 108.532C333.689 108.238 333.92 107.917 334.114 107.574C334.508 106.939 334.765 106.23 334.869 105.49C334.974 104.751 334.923 103.998 334.721 103.279C334.518 102.56 334.168 101.891 333.693 101.315C333.218 100.739 332.629 100.268 331.962 99.9319C328.851 98.5003 324.072 100.535 320.757 102.892C320.897 100.599 320.832 99.1892 320.832 99.1892L319.96 99.2753L320.595 97.7576C321.026 96.8104 321.349 95.7556 321.725 94.7438C322.565 92.3758 323.297 89.9324 323.986 87.4675C325.547 88.221 331.111 90.8581 334.136 90.9657C337.161 91.0734 341.003 90.3845 343.016 87.9089C343.503 87.3417 343.867 86.6792 344.084 85.9636C344.301 85.248 344.367 84.495 344.277 83.7527C344.187 83.0104 343.943 82.295 343.561 81.6522C343.179 81.0093 342.667 80.4531 342.058 80.0191C338.291 77.5434 330.735 80.568 327.592 83.0867C327.398 83.2482 325.342 85.3148 324.244 86.4665C324.642 84.9811 325.051 83.4957 325.407 81.9673C326.429 77.5865 327.333 73.1088 328.259 68.6526C328.539 67.2856 328.84 65.9294 329.131 64.5624C329.68 64.8423 336.235 68.1144 339.615 68.2328C342.629 68.3405 346.482 67.6516 348.495 65.1759C348.98 64.609 349.343 63.9472 349.559 63.2327C349.775 62.5182 349.84 61.7666 349.75 61.0256C349.66 60.2846 349.416 59.5705 349.035 58.9286C348.654 58.2866 348.144 57.731 347.537 57.2969C343.77 54.8105 336.213 57.8351 333.07 60.3646C332.834 60.5475 329.841 63.5183 329.185 64.3148C329.82 61.3225 330.498 58.341 331.273 55.424C332.301 51.4898 333.588 47.628 335.126 43.8638C335.385 43.993 342.209 47.4374 345.675 47.5558C348.678 47.6742 352.542 46.9745 354.555 44.4989C355.04 43.9312 355.401 43.2689 355.616 42.554C355.832 41.839 355.896 41.0872 355.805 40.3461C355.714 39.6051 355.469 38.8911 355.087 38.2496C354.705 37.6081 354.194 37.0531 353.586 36.6198C349.819 34.1334 342.273 37.158 339.13 39.6875C338.883 39.8812 335.718 43.0781 335.18 43.7024C335.277 43.4871 335.342 43.2503 335.438 43.035C337.074 39.2775 339.044 35.675 341.326 32.2713C342.564 30.3877 343.845 28.6439 345.137 26.9863C346.342 27.7613 351.885 31.2272 354.996 31.6901C358.107 32.1529 361.885 31.8515 364.156 29.6234C364.701 29.1125 365.134 28.4936 365.427 27.8061C365.72 27.1186 365.867 26.3776 365.858 25.6303C365.849 24.883 365.684 24.1458 365.374 23.4657C365.065 22.7855 364.617 22.1773 364.059 21.6798C360.593 18.7952 352.757 20.9802 349.356 23.1437C349.173 23.2513 347.418 24.6614 346.127 25.6947C346.719 24.9628 347.311 24.1878 347.892 23.4881C350.045 20.8618 352.198 18.5907 354.157 16.5994C355.233 15.523 356.309 14.4466 357.246 13.5532C358.828 13.6932 365.189 14.1775 368.106 13.1765C371.023 12.1755 374.306 10.1519 375.286 7.11655C375.535 6.41243 375.634 5.66417 375.579 4.9194C375.523 4.17462 375.312 3.44963 374.961 2.79054C374.61 2.13146 374.125 1.55271 373.538 1.09112C372.951 0.629523 372.274 0.295187 371.551 0.109387C367.137 -0.848582 361.185 4.70548 359.162 8.18216C358.989 8.48354 356.804 13.5102 356.88 13.564H356.977C356.029 14.4251 355.028 15.3723 353.952 16.4164C351.971 18.3754 349.765 20.6035 347.494 23.1975C345.045 25.961 342.759 28.865 340.648 31.8946C338.27 35.2918 336.199 38.8939 334.459 42.6583L334.394 42.7982C334.567 41.485 334.9 37.8038 334.889 37.5132C334.803 33.4876 332.263 25.7593 327.936 24.4676C327.214 24.2795 326.461 24.2436 325.725 24.3619C324.988 24.4803 324.285 24.7505 323.658 25.1554C323.032 25.5602 322.496 26.0909 322.086 26.7136C321.675 27.3364 321.398 28.0378 321.273 28.7731C320.681 31.8946 322.63 35.2959 324.653 37.5348C326.924 40.0535 333.684 42.9166 334.222 43.2072C332.536 47.0523 331.116 51.0082 329.97 55.0473C329.282 57.4045 328.668 59.7941 328.076 62.2051C328.184 61.0642 328.27 60.0524 328.259 59.9017C328.173 55.8761 325.633 48.1478 321.306 46.8561C320.585 46.6697 319.833 46.6351 319.097 46.7543C318.362 46.8735 317.66 47.144 317.035 47.5487C316.409 47.9534 315.875 48.4834 315.465 49.1053C315.055 49.7272 314.779 50.4274 314.654 51.1616C314.051 54.2831 316.01 57.6844 318.023 59.9232C320.036 62.1621 325.783 64.7884 327.301 65.4665C327.086 66.3922 326.86 67.3071 326.644 68.2328C325.622 72.6782 324.632 77.1236 323.512 81.4399C323.125 82.9683 322.683 84.4537 322.253 85.9391C322.339 84.9381 322.404 84.077 322.404 83.9478C322.317 79.9222 319.777 72.1939 315.45 70.9022C314.729 70.7158 313.977 70.6811 313.242 70.8004C312.507 70.9196 311.804 71.1901 311.179 71.5948C310.554 71.9995 310.019 72.5295 309.61 73.1514C309.2 73.7733 308.924 74.4735 308.798 75.2077C308.196 78.3399 310.144 81.7412 312.167 83.9801C314.191 86.2189 319.368 88.587 321.166 89.3619C320.681 90.8796 320.186 92.3866 319.637 93.8289C319.25 94.8084 318.938 95.7771 318.486 96.7351L317.248 99.5121C316.29 99.6736 315.181 99.8888 313.943 100.169C313.62 96.1108 312.103 91.1595 309.014 89.6956C308.326 89.4001 307.584 89.2512 306.836 89.2586C306.087 89.2659 305.349 89.4293 304.667 89.7382C303.985 90.0472 303.375 90.4949 302.877 91.0529C302.378 91.6108 302.001 92.2667 301.77 92.9785C300.693 95.9816 302.125 99.6413 303.782 102.149C304.025 102.53 304.298 102.89 304.6 103.226C299.311 105.383 294.554 108.667 290.661 112.848C279.499 125.334 280.339 144.3 280.339 144.3C280.339 144.3 296.172 143.223 307.421 133.536C310.876 131.9 315.343 129.726 320.455 126.981C322.371 125.969 324.395 124.828 326.462 123.655C327.01 124.333 331.456 129.844 334.416 131.34C337.107 132.707 340.874 133.687 343.759 132.288C344.434 131.976 345.038 131.528 345.532 130.971C346.026 130.415 346.398 129.762 346.627 129.054C346.856 128.346 346.935 127.598 346.86 126.858C346.785 126.117 346.557 125.401 346.191 124.753C343.813 120.921 335.686 120.512 331.779 121.524C331.553 121.588 329.12 122.493 327.592 123.085C328.431 122.6 329.26 122.137 330.121 121.621C331.833 120.62 333.512 119.576 335.32 118.456L337.914 116.723C338.786 116.164 339.647 115.464 340.519 114.829C342.521 113.322 344.48 111.686 346.417 110.007C347.3 111.503 350.497 116.766 352.951 118.521C355.405 120.275 359 121.825 362.046 120.878C362.765 120.673 363.433 120.32 364.008 119.842C364.583 119.363 365.052 118.771 365.386 118.101C365.719 117.432 365.909 116.701 365.944 115.954C365.978 115.207 365.857 114.461 365.588 113.763C363.822 109.619 355.846 107.972 351.842 108.381C351.584 108.381 348.742 108.995 347.182 109.35C348.333 108.328 349.496 107.305 350.637 106.239C353.866 103.139 357.095 99.9104 360.324 96.7028C361.314 95.7125 362.315 94.7438 363.306 93.7751C363.607 94.3025 367.277 100.653 370.033 102.623C372.476 104.377 376.082 105.917 379.117 104.969C379.836 104.765 380.504 104.413 381.079 103.936C381.655 103.459 382.124 102.868 382.458 102.2C382.793 101.531 382.984 100.801 383.02 100.055C383.057 99.3085 382.937 98.5628 382.67 97.8653C380.894 93.7105 372.982 92.0744 368.914 92.4834C368.612 92.4834 364.522 93.366 363.532 93.6351C365.684 91.4824 367.923 89.3297 370.173 87.3814C373.206 84.6638 376.413 82.1469 379.774 79.8468C379.914 80.0944 383.714 86.7356 386.534 88.7484C388.977 90.5029 392.583 92.0529 395.618 91.0949C396.337 90.8904 397.005 90.5386 397.58 90.0618C398.155 89.5849 398.625 88.9936 398.959 88.3253C399.293 87.6571 399.485 86.9266 399.521 86.1803C399.557 85.4341 399.438 84.6884 399.17 83.9909C397.394 79.8361 389.429 78.2 385.414 78.609C385.102 78.609 380.7 79.567 379.903 79.793C380.108 79.6531 380.291 79.5024 380.484 79.3732C383.917 77.1594 387.541 75.2574 391.313 73.69C393.379 72.7966 395.403 72.0539 397.394 71.3866C397.975 72.689 400.688 78.6413 403.034 80.7402C405.381 82.8392 408.685 84.6797 411.807 84.077C412.545 83.9523 413.248 83.6751 413.873 83.2632C414.497 82.8513 415.029 82.3137 415.434 81.6847C415.839 81.0557 416.109 80.3492 416.226 79.6102C416.342 78.8712 416.304 78.116 416.112 77.3927C414.799 73.0872 407.06 70.5685 403.034 70.504C402.808 70.504 400.58 70.6977 398.955 70.8807C399.859 70.5901 400.785 70.2672 401.657 70.0088C404.886 69.0186 407.975 68.3189 410.687 67.7162C412.227 67.3825 413.626 67.1134 414.993 66.8874C416.231 67.8669 421.279 71.7848 424.26 72.5598C427.242 73.3348 431.095 73.4532 433.593 71.4835C434.231 71.0341 434.763 70.4514 435.154 69.7758C435.544 69.1001 435.783 68.3476 435.854 67.5704C435.924 66.7933 435.825 66.01 435.563 65.275C435.301 64.54 434.882 63.8708 434.335 63.3138ZM319.271 124.548C316.925 125.743 314.708 126.83 312.662 127.778C316.126 122.755 318.505 117.065 319.648 111.072C320.262 111.223 320.886 111.352 321.51 111.471C321.693 114.861 324.395 120.889 324.739 121.664C322.866 122.697 321.026 123.709 319.271 124.548Z" fill="#FFD95C" stroke="black" stroke-width="2" mask="url(#path-4-inside-1_1765_1108)"/>
<path d="M402.213 66.6264L402.212 66.6263L402.205 66.6335C402.207 66.6314 402.207 66.6317 402.203 66.6349C402.196 66.6402 402.18 66.6533 402.15 66.6769C402.108 66.7097 402.05 66.7531 401.979 66.8063C401.836 66.9125 401.643 67.0527 401.417 67.2157C400.965 67.5414 400.385 67.9542 399.811 68.3603C399.238 68.7662 398.672 69.1648 398.25 69.462C398.2 69.4969 398.153 69.5304 398.107 69.5624C398.057 69.3983 397.999 69.2066 397.935 68.9913C397.711 68.2365 397.416 67.1945 397.135 66.0446C396.565 63.7161 396.073 61.0417 396.266 59.3891L396.266 59.3884C396.433 57.9345 396.828 56.3154 397.507 54.8726C398.186 53.4278 399.135 52.1925 400.393 51.4526L400.393 51.4528L400.403 51.4466C400.978 51.0897 401.622 50.8565 402.293 50.7618C402.964 50.6672 403.647 50.7131 404.299 50.8968C404.951 51.0805 405.558 51.3978 406.08 51.8286C406.6 52.2574 407.026 52.7892 407.331 53.3906C408.172 55.2496 407.688 57.8426 406.531 60.4079C405.383 62.9516 403.642 65.3158 402.213 66.6264Z" fill="#FFD95C" stroke="black"/>
<path d="M271.711 137.362C271.555 137.193 271.351 136.968 271.105 136.691C270.489 135.998 269.607 134.974 268.549 133.654C266.432 131.013 263.609 127.192 260.79 122.473C255.148 113.027 249.545 100.022 249.603 85.7044C249.662 71.3868 255.388 58.4272 261.124 49.0271C263.99 44.3307 266.852 40.5324 268.997 37.9091C270.069 36.5977 270.962 35.5805 271.585 34.8923C271.835 34.6169 272.041 34.3942 272.199 34.2264C272.354 34.3956 272.558 34.6199 272.804 34.8972C273.419 35.591 274.3 36.616 275.358 37.9369C277.473 40.5791 280.294 44.4026 283.111 49.1238C288.75 58.5735 294.354 71.5816 294.306 85.8944C294.258 100.206 288.532 113.163 282.794 122.562C279.927 127.257 277.062 131.055 274.916 133.678C273.843 134.99 272.949 136.007 272.325 136.695C272.075 136.971 271.869 137.194 271.711 137.362Z" fill="#FFD95C" stroke="black"/>
<path d="M263.226 142.444C263.23 142.553 263.232 142.651 263.235 142.739C263.147 142.734 263.049 142.727 262.941 142.719C262.407 142.68 261.629 142.611 260.659 142.491C258.717 142.25 256.006 141.804 252.936 140.985C246.788 139.343 239.241 136.214 233.522 130.272C227.804 124.331 224.964 116.667 223.558 110.457C222.855 107.357 222.513 104.629 222.346 102.679C222.262 101.704 222.223 100.923 222.204 100.388C222.201 100.279 222.198 100.181 222.196 100.093C222.283 100.099 222.382 100.105 222.49 100.113C223.024 100.152 223.802 100.221 224.773 100.342C226.716 100.582 229.428 101.028 232.499 101.848C238.65 103.49 246.2 106.619 251.918 112.56C257.637 118.501 260.474 126.165 261.878 132.375C262.579 135.476 262.92 138.203 263.086 140.154C263.169 141.129 263.208 141.909 263.226 142.444Z" fill="#FFD95C" stroke="black"/>
<g opacity="0.5">
<path d="M336.792 8.90893L336.792 8.909L336.797 8.89816C337.08 8.2861 337.487 7.73942 337.993 7.2926C338.498 6.84579 339.091 6.50855 339.733 6.30214C340.375 6.09573 341.053 6.02463 341.724 6.09334C342.391 6.16166 343.037 6.36672 343.621 6.6957C345.317 7.7667 346.336 10.1955 346.787 12.9792C347.233 15.7332 347.093 18.6659 346.625 20.5455C346.624 20.5489 346.622 20.5542 346.619 20.5621C346.614 20.5774 346.607 20.5978 346.598 20.6234C346.58 20.6746 346.556 20.7425 346.526 20.8256C346.465 20.9914 346.383 21.2131 346.287 21.4719C346.093 21.9891 345.843 22.6512 345.593 23.304C345.343 23.9571 345.094 24.5994 344.904 25.0775C344.88 25.1396 344.856 25.1988 344.834 25.2547C344.697 25.1417 344.536 25.0079 344.355 24.8562C343.752 24.3496 342.933 23.6436 342.067 22.8426C341.201 22.0408 340.292 21.1483 339.509 20.2684C338.72 19.3823 338.08 18.5344 337.728 17.8206L337.728 17.8206L337.726 17.8166C337.066 16.5079 336.5 14.9369 336.269 13.357C336.037 11.7747 336.146 10.2202 336.792 8.90893Z" fill="white" stroke="black"/>
<mask id="path-9-inside-2_1765_1108" fill="white">
<path d="M434.335 63.3138C431.181 60.0847 423.163 61.4194 419.557 63.2169C419.245 63.3676 414.648 66.3492 414.713 66.446L414.778 66.5106C413.518 66.7151 412.151 66.9412 410.677 67.221C407.953 67.77 404.875 68.405 401.581 69.3738C398.012 70.3192 394.504 71.4802 391.076 72.8504C387.225 74.3557 383.515 76.1999 379.989 78.3615L379.871 78.4476C380.732 77.4465 383.035 74.5511 383.197 74.3143C385.35 70.9022 387.502 63.0555 384.585 59.6003C384.081 59.0489 383.468 58.6084 382.784 58.3071C382.1 58.0058 381.361 57.8502 380.614 57.8502C379.866 57.8502 379.127 58.0058 378.444 58.3071C377.76 58.6084 377.146 59.0489 376.642 59.6003C374.414 61.8822 374.166 65.7895 374.618 68.771C375.135 72.1185 379.15 78.2861 379.473 78.7812C375.941 81.0614 372.567 83.5787 369.376 86.3158C367.503 87.9088 365.674 89.5449 363.855 91.2456C364.565 90.3522 365.2 89.5557 365.275 89.4265C367.428 86.0144 369.581 78.1677 366.675 74.7126C366.17 74.1611 365.557 73.7207 364.873 73.4193C364.189 73.118 363.45 72.9624 362.703 72.9624C361.956 72.9624 361.217 73.118 360.533 73.4193C359.849 73.7207 359.235 74.1611 358.731 74.7126C356.503 76.9945 356.255 80.9124 356.707 83.8832C357.16 86.854 360.486 92.2251 361.379 93.5706L359.312 95.5188C356.008 98.6618 352.725 101.816 349.41 104.808C348.247 105.884 347.052 106.864 345.868 107.865C346.504 107.068 347.031 106.401 347.106 106.293C349.259 102.881 351.412 95.0344 348.495 91.5685C347.994 91.0136 347.384 90.569 346.702 90.263C346.02 89.9571 345.282 89.7964 344.535 89.7914C343.788 89.7863 343.047 89.9369 342.362 90.2336C341.676 90.5303 341.059 90.9666 340.551 91.5147C338.334 93.7966 338.076 97.7146 338.528 100.685C338.98 103.656 341.994 108.511 343.048 110.179C341.811 111.169 340.562 112.159 339.313 113.064C338.441 113.656 337.645 114.291 336.741 114.84L334.114 116.519C332.403 117.52 330.649 118.564 328.959 119.511C327.785 120.168 326.655 120.77 325.525 121.395C326.698 120.318 328.948 118.273 329.12 118.079C331.347 115.317 332.829 112.03 333.426 108.532C333.689 108.238 333.92 107.917 334.114 107.574C334.508 106.939 334.765 106.23 334.869 105.49C334.974 104.751 334.923 103.998 334.721 103.279C334.518 102.56 334.168 101.891 333.693 101.315C333.218 100.739 332.629 100.268 331.962 99.9319C328.851 98.5003 324.072 100.535 320.757 102.892C320.897 100.599 320.832 99.1892 320.832 99.1892L319.96 99.2753L320.595 97.7576C321.026 96.8104 321.349 95.7556 321.725 94.7438C322.565 92.3758 323.297 89.9324 323.986 87.4675C325.547 88.221 331.111 90.8581 334.136 90.9657C337.161 91.0734 341.003 90.3845 343.016 87.9089C343.503 87.3417 343.867 86.6792 344.084 85.9636C344.301 85.248 344.367 84.495 344.277 83.7527C344.187 83.0104 343.943 82.295 343.561 81.6522C343.179 81.0093 342.667 80.4531 342.058 80.0191C338.291 77.5434 330.735 80.568 327.592 83.0867C327.398 83.2482 325.342 85.3148 324.244 86.4665C324.642 84.9811 325.051 83.4957 325.407 81.9673C326.429 77.5865 327.333 73.1088 328.259 68.6526C328.539 67.2856 328.84 65.9294 329.131 64.5624C329.68 64.8423 336.235 68.1144 339.615 68.2328C342.629 68.3405 346.482 67.6516 348.495 65.1759C348.98 64.609 349.343 63.9472 349.559 63.2327C349.775 62.5182 349.84 61.7666 349.75 61.0256C349.66 60.2846 349.416 59.5705 349.035 58.9286C348.654 58.2866 348.144 57.731 347.537 57.2969C343.77 54.8105 336.213 57.8351 333.07 60.3646C332.834 60.5475 329.841 63.5183 329.185 64.3148C329.82 61.3225 330.498 58.341 331.273 55.424C332.301 51.4898 333.588 47.628 335.126 43.8638C335.385 43.993 342.209 47.4374 345.675 47.5558C348.678 47.6742 352.542 46.9745 354.555 44.4989C355.04 43.9312 355.401 43.2689 355.616 42.554C355.832 41.839 355.896 41.0872 355.805 40.3461C355.714 39.6051 355.469 38.8911 355.087 38.2496C354.705 37.6081 354.194 37.0531 353.586 36.6198C349.819 34.1334 342.273 37.158 339.13 39.6875C338.883 39.8812 335.718 43.0781 335.18 43.7024C335.277 43.4871 335.342 43.2503 335.438 43.035C337.074 39.2775 339.044 35.675 341.326 32.2713C342.564 30.3877 343.845 28.6439 345.137 26.9863C346.342 27.7613 351.885 31.2272 354.996 31.6901C358.107 32.1529 361.885 31.8515 364.156 29.6234C364.701 29.1125 365.134 28.4936 365.427 27.8061C365.72 27.1186 365.867 26.3776 365.858 25.6303C365.849 24.883 365.684 24.1458 365.374 23.4657C365.065 22.7855 364.617 22.1773 364.059 21.6798C360.593 18.7952 352.757 20.9802 349.356 23.1437C349.173 23.2513 347.418 24.6614 346.127 25.6947C346.719 24.9628 347.311 24.1878 347.892 23.4881C350.045 20.8618 352.198 18.5907 354.157 16.5994C355.233 15.523 356.309 14.4466 357.246 13.5532C358.828 13.6932 365.189 14.1775 368.106 13.1765C371.023 12.1755 374.306 10.1519 375.286 7.11655C375.535 6.41243 375.634 5.66417 375.579 4.9194C375.523 4.17462 375.312 3.44963 374.961 2.79054C374.61 2.13146 374.125 1.55271 373.538 1.09112C372.951 0.629523 372.274 0.295187 371.551 0.109387C367.137 -0.848582 361.185 4.70548 359.162 8.18216C358.989 8.48354 356.804 13.5102 356.88 13.564H356.977C356.029 14.4251 355.028 15.3723 353.952 16.4164C351.971 18.3754 349.765 20.6035 347.494 23.1975C345.045 25.961 342.759 28.865 340.648 31.8946C338.27 35.2918 336.199 38.8939 334.459 42.6583L334.394 42.7982C334.567 41.485 334.9 37.8038 334.889 37.5132C334.803 33.4876 332.263 25.7593 327.936 24.4676C327.214 24.2795 326.461 24.2436 325.725 24.3619C324.988 24.4803 324.285 24.7505 323.658 25.1554C323.032 25.5602 322.496 26.0909 322.086 26.7136C321.675 27.3364 321.398 28.0378 321.273 28.7731C320.681 31.8946 322.63 35.2959 324.653 37.5348C326.924 40.0535 333.684 42.9166 334.222 43.2072C332.536 47.0523 331.116 51.0082 329.97 55.0473C329.282 57.4045 328.668 59.7941 328.076 62.2051C328.184 61.0642 328.27 60.0524 328.259 59.9017C328.173 55.8761 325.633 48.1478 321.306 46.8561C320.585 46.6697 319.833 46.6351 319.097 46.7543C318.362 46.8735 317.66 47.144 317.035 47.5487C316.409 47.9534 315.875 48.4834 315.465 49.1053C315.055 49.7272 314.779 50.4274 314.654 51.1616C314.051 54.2831 316.01 57.6844 318.023 59.9232C320.036 62.1621 325.783 64.7884 327.301 65.4665C327.086 66.3922 326.86 67.3071 326.644 68.2328C325.622 72.6782 324.632 77.1236 323.512 81.4399C323.125 82.9683 322.683 84.4537 322.253 85.9391C322.339 84.9381 322.404 84.077 322.404 83.9478C322.317 79.9222 319.777 72.1939 315.45 70.9022C314.729 70.7158 313.977 70.6811 313.242 70.8004C312.507 70.9196 311.804 71.1901 311.179 71.5948C310.554 71.9995 310.019 72.5295 309.61 73.1514C309.2 73.7733 308.924 74.4735 308.798 75.2077C308.196 78.3399 310.144 81.7412 312.167 83.9801C314.191 86.2189 319.368 88.587 321.166 89.3619C320.681 90.8796 320.186 92.3866 319.637 93.8289C319.25 94.8084 318.938 95.7771 318.486 96.7351L317.248 99.5121C316.29 99.6736 315.181 99.8888 313.943 100.169C313.62 96.1108 312.103 91.1595 309.014 89.6956C308.326 89.4001 307.584 89.2512 306.836 89.2586C306.087 89.2659 305.349 89.4293 304.667 89.7382C303.985 90.0472 303.375 90.4949 302.877 91.0529C302.378 91.6108 302.001 92.2667 301.77 92.9785C300.693 95.9816 302.125 99.6413 303.782 102.149C304.025 102.53 304.298 102.89 304.6 103.226C299.311 105.383 294.554 108.667 290.661 112.848C279.499 125.334 280.339 144.3 280.339 144.3C280.339 144.3 296.172 143.223 307.421 133.536C310.876 131.9 315.343 129.726 320.455 126.981C322.371 125.969 324.395 124.828 326.462 123.655C327.01 124.333 331.456 129.844 334.416 131.34C337.107 132.707 340.874 133.687 343.759 132.288C344.434 131.976 345.038 131.528 345.532 130.971C346.026 130.415 346.398 129.762 346.627 129.054C346.856 128.346 346.935 127.598 346.86 126.858C346.785 126.117 346.557 125.401 346.191 124.753C343.813 120.921 335.686 120.512 331.779 121.524C331.553 121.588 329.12 122.493 327.592 123.085C328.431 122.6 329.26 122.137 330.121 121.621C331.833 120.62 333.512 119.576 335.32 118.456L337.914 116.723C338.786 116.164 339.647 115.464 340.519 114.829C342.521 113.322 344.48 111.686 346.417 110.007C347.3 111.503 350.497 116.766 352.951 118.521C355.405 120.275 359 121.825 362.046 120.878C362.765 120.673 363.433 120.32 364.008 119.842C364.583 119.363 365.052 118.771 365.386 118.101C365.719 117.432 365.909 116.701 365.944 115.954C365.978 115.207 365.857 114.461 365.588 113.763C363.822 109.619 355.846 107.972 351.842 108.381C351.584 108.381 348.742 108.995 347.182 109.35C348.333 108.328 349.496 107.305 350.637 106.239C353.866 103.139 357.095 99.9104 360.324 96.7028C361.314 95.7125 362.315 94.7438 363.306 93.7751C363.607 94.3025 367.277 100.653 370.033 102.623C372.476 104.377 376.082 105.917 379.117 104.969C379.836 104.765 380.504 104.413 381.079 103.936C381.655 103.459 382.124 102.868 382.458 102.2C382.793 101.531 382.984 100.801 383.02 100.055C383.057 99.3085 382.937 98.5628 382.67 97.8653C380.894 93.7105 372.982 92.0744 368.914 92.4834C368.612 92.4834 364.522 93.366 363.532 93.6351C365.684 91.4824 367.923 89.3297 370.173 87.3814C373.206 84.6638 376.413 82.1469 379.774 79.8468C379.914 80.0944 383.714 86.7356 386.534 88.7484C388.977 90.5029 392.583 92.0529 395.618 91.0949C396.337 90.8904 397.005 90.5386 397.58 90.0618C398.155 89.5849 398.625 88.9936 398.959 88.3253C399.293 87.6571 399.485 86.9266 399.521 86.1803C399.557 85.4341 399.438 84.6884 399.17 83.9909C397.394 79.8361 389.429 78.2 385.414 78.609C385.102 78.609 380.7 79.567 379.903 79.793C380.108 79.6531 380.291 79.5024 380.484 79.3732C383.917 77.1594 387.541 75.2574 391.313 73.69C393.379 72.7966 395.403 72.0539 397.394 71.3866C397.975 72.689 400.688 78.6413 403.034 80.7402C405.381 82.8392 408.685 84.6797 411.807 84.077C412.545 83.9523 413.248 83.6751 413.873 83.2632C414.497 82.8513 415.029 82.3137 415.434 81.6847C415.839 81.0557 416.109 80.3492 416.226 79.6102C416.342 78.8712 416.304 78.116 416.112 77.3927C414.799 73.0872 407.06 70.5685 403.034 70.504C402.808 70.504 400.58 70.6977 398.955 70.8807C399.859 70.5901 400.785 70.2672 401.657 70.0088C404.886 69.0186 407.975 68.3189 410.687 67.7162C412.227 67.3825 413.626 67.1134 414.993 66.8874C416.231 67.8669 421.279 71.7848 424.26 72.5598C427.242 73.3348 431.095 73.4532 433.593 71.4835C434.231 71.0341 434.763 70.4514 435.154 69.7758C435.544 69.1001 435.783 68.3476 435.854 67.5704C435.924 66.7933 435.825 66.01 435.563 65.275C435.301 64.54 434.882 63.8708 434.335 63.3138ZM319.271 124.548C316.925 125.743 314.708 126.83 312.662 127.778C316.126 122.755 318.505 117.065 319.648 111.072C320.262 111.223 320.886 111.352 321.51 111.471C321.693 114.861 324.395 120.889 324.739 121.664C322.866 122.697 321.026 123.709 319.271 124.548Z"/>
</mask>
<path d="M434.335 63.3138C431.181 60.0847 423.163 61.4194 419.557 63.2169C419.245 63.3676 414.648 66.3492 414.713 66.446L414.778 66.5106C413.518 66.7151 412.151 66.9412 410.677 67.221C407.953 67.77 404.875 68.405 401.581 69.3738C398.012 70.3192 394.504 71.4802 391.076 72.8504C387.225 74.3557 383.515 76.1999 379.989 78.3615L379.871 78.4476C380.732 77.4465 383.035 74.5511 383.197 74.3143C385.35 70.9022 387.502 63.0555 384.585 59.6003C384.081 59.0489 383.468 58.6084 382.784 58.3071C382.1 58.0058 381.361 57.8502 380.614 57.8502C379.866 57.8502 379.127 58.0058 378.444 58.3071C377.76 58.6084 377.146 59.0489 376.642 59.6003C374.414 61.8822 374.166 65.7895 374.618 68.771C375.135 72.1185 379.15 78.2861 379.473 78.7812C375.941 81.0614 372.567 83.5787 369.376 86.3158C367.503 87.9088 365.674 89.5449 363.855 91.2456C364.565 90.3522 365.2 89.5557 365.275 89.4265C367.428 86.0144 369.581 78.1677 366.675 74.7126C366.17 74.1611 365.557 73.7207 364.873 73.4193C364.189 73.118 363.45 72.9624 362.703 72.9624C361.956 72.9624 361.217 73.118 360.533 73.4193C359.849 73.7207 359.235 74.1611 358.731 74.7126C356.503 76.9945 356.255 80.9124 356.707 83.8832C357.16 86.854 360.486 92.2251 361.379 93.5706L359.312 95.5188C356.008 98.6618 352.725 101.816 349.41 104.808C348.247 105.884 347.052 106.864 345.868 107.865C346.504 107.068 347.031 106.401 347.106 106.293C349.259 102.881 351.412 95.0344 348.495 91.5685C347.994 91.0136 347.384 90.569 346.702 90.263C346.02 89.9571 345.282 89.7964 344.535 89.7914C343.788 89.7863 343.047 89.9369 342.362 90.2336C341.676 90.5303 341.059 90.9666 340.551 91.5147C338.334 93.7966 338.076 97.7146 338.528 100.685C338.98 103.656 341.994 108.511 343.048 110.179C341.811 111.169 340.562 112.159 339.313 113.064C338.441 113.656 337.645 114.291 336.741 114.84L334.114 116.519C332.403 117.52 330.649 118.564 328.959 119.511C327.785 120.168 326.655 120.77 325.525 121.395C326.698 120.318 328.948 118.273 329.12 118.079C331.347 115.317 332.829 112.03 333.426 108.532C333.689 108.238 333.92 107.917 334.114 107.574C334.508 106.939 334.765 106.23 334.869 105.49C334.974 104.751 334.923 103.998 334.721 103.279C334.518 102.56 334.168 101.891 333.693 101.315C333.218 100.739 332.629 100.268 331.962 99.9319C328.851 98.5003 324.072 100.535 320.757 102.892C320.897 100.599 320.832 99.1892 320.832 99.1892L319.96 99.2753L320.595 97.7576C321.026 96.8104 321.349 95.7556 321.725 94.7438C322.565 92.3758 323.297 89.9324 323.986 87.4675C325.547 88.221 331.111 90.8581 334.136 90.9657C337.161 91.0734 341.003 90.3845 343.016 87.9089C343.503 87.3417 343.867 86.6792 344.084 85.9636C344.301 85.248 344.367 84.495 344.277 83.7527C344.187 83.0104 343.943 82.295 343.561 81.6522C343.179 81.0093 342.667 80.4531 342.058 80.0191C338.291 77.5434 330.735 80.568 327.592 83.0867C327.398 83.2482 325.342 85.3148 324.244 86.4665C324.642 84.9811 325.051 83.4957 325.407 81.9673C326.429 77.5865 327.333 73.1088 328.259 68.6526C328.539 67.2856 328.84 65.9294 329.131 64.5624C329.68 64.8423 336.235 68.1144 339.615 68.2328C342.629 68.3405 346.482 67.6516 348.495 65.1759C348.98 64.609 349.343 63.9472 349.559 63.2327C349.775 62.5182 349.84 61.7666 349.75 61.0256C349.66 60.2846 349.416 59.5705 349.035 58.9286C348.654 58.2866 348.144 57.731 347.537 57.2969C343.77 54.8105 336.213 57.8351 333.07 60.3646C332.834 60.5475 329.841 63.5183 329.185 64.3148C329.82 61.3225 330.498 58.341 331.273 55.424C332.301 51.4898 333.588 47.628 335.126 43.8638C335.385 43.993 342.209 47.4374 345.675 47.5558C348.678 47.6742 352.542 46.9745 354.555 44.4989C355.04 43.9312 355.401 43.2689 355.616 42.554C355.832 41.839 355.896 41.0872 355.805 40.3461C355.714 39.6051 355.469 38.8911 355.087 38.2496C354.705 37.6081 354.194 37.0531 353.586 36.6198C349.819 34.1334 342.273 37.158 339.13 39.6875C338.883 39.8812 335.718 43.0781 335.18 43.7024C335.277 43.4871 335.342 43.2503 335.438 43.035C337.074 39.2775 339.044 35.675 341.326 32.2713C342.564 30.3877 343.845 28.6439 345.137 26.9863C346.342 27.7613 351.885 31.2272 354.996 31.6901C358.107 32.1529 361.885 31.8515 364.156 29.6234C364.701 29.1125 365.134 28.4936 365.427 27.8061C365.72 27.1186 365.867 26.3776 365.858 25.6303C365.849 24.883 365.684 24.1458 365.374 23.4657C365.065 22.7855 364.617 22.1773 364.059 21.6798C360.593 18.7952 352.757 20.9802 349.356 23.1437C349.173 23.2513 347.418 24.6614 346.127 25.6947C346.719 24.9628 347.311 24.1878 347.892 23.4881C350.045 20.8618 352.198 18.5907 354.157 16.5994C355.233 15.523 356.309 14.4466 357.246 13.5532C358.828 13.6932 365.189 14.1775 368.106 13.1765C371.023 12.1755 374.306 10.1519 375.286 7.11655C375.535 6.41243 375.634 5.66417 375.579 4.9194C375.523 4.17462 375.312 3.44963 374.961 2.79054C374.61 2.13146 374.125 1.55271 373.538 1.09112C372.951 0.629523 372.274 0.295187 371.551 0.109387C367.137 -0.848582 361.185 4.70548 359.162 8.18216C358.989 8.48354 356.804 13.5102 356.88 13.564H356.977C356.029 14.4251 355.028 15.3723 353.952 16.4164C351.971 18.3754 349.765 20.6035 347.494 23.1975C345.045 25.961 342.759 28.865 340.648 31.8946C338.27 35.2918 336.199 38.8939 334.459 42.6583L334.394 42.7982C334.567 41.485 334.9 37.8038 334.889 37.5132C334.803 33.4876 332.263 25.7593 327.936 24.4676C327.214 24.2795 326.461 24.2436 325.725 24.3619C324.988 24.4803 324.285 24.7505 323.658 25.1554C323.032 25.5602 322.496 26.0909 322.086 26.7136C321.675 27.3364 321.398 28.0378 321.273 28.7731C320.681 31.8946 322.63 35.2959 324.653 37.5348C326.924 40.0535 333.684 42.9166 334.222 43.2072C332.536 47.0523 331.116 51.0082 329.97 55.0473C329.282 57.4045 328.668 59.7941 328.076 62.2051C328.184 61.0642 328.27 60.0524 328.259 59.9017C328.173 55.8761 325.633 48.1478 321.306 46.8561C320.585 46.6697 319.833 46.6351 319.097 46.7543C318.362 46.8735 317.66 47.144 317.035 47.5487C316.409 47.9534 315.875 48.4834 315.465 49.1053C315.055 49.7272 314.779 50.4274 314.654 51.1616C314.051 54.2831 316.01 57.6844 318.023 59.9232C320.036 62.1621 325.783 64.7884 327.301 65.4665C327.086 66.3922 326.86 67.3071 326.644 68.2328C325.622 72.6782 324.632 77.1236 323.512 81.4399C323.125 82.9683 322.683 84.4537 322.253 85.9391C322.339 84.9381 322.404 84.077 322.404 83.9478C322.317 79.9222 319.777 72.1939 315.45 70.9022C314.729 70.7158 313.977 70.6811 313.242 70.8004C312.507 70.9196 311.804 71.1901 311.179 71.5948C310.554 71.9995 310.019 72.5295 309.61 73.1514C309.2 73.7733 308.924 74.4735 308.798 75.2077C308.196 78.3399 310.144 81.7412 312.167 83.9801C314.191 86.2189 319.368 88.587 321.166 89.3619C320.681 90.8796 320.186 92.3866 319.637 93.8289C319.25 94.8084 318.938 95.7771 318.486 96.7351L317.248 99.5121C316.29 99.6736 315.181 99.8888 313.943 100.169C313.62 96.1108 312.103 91.1595 309.014 89.6956C308.326 89.4001 307.584 89.2512 306.836 89.2586C306.087 89.2659 305.349 89.4293 304.667 89.7382C303.985 90.0472 303.375 90.4949 302.877 91.0529C302.378 91.6108 302.001 92.2667 301.77 92.9785C300.693 95.9816 302.125 99.6413 303.782 102.149C304.025 102.53 304.298 102.89 304.6 103.226C299.311 105.383 294.554 108.667 290.661 112.848C279.499 125.334 280.339 144.3 280.339 144.3C280.339 144.3 296.172 143.223 307.421 133.536C310.876 131.9 315.343 129.726 320.455 126.981C322.371 125.969 324.395 124.828 326.462 123.655C327.01 124.333 331.456 129.844 334.416 131.34C337.107 132.707 340.874 133.687 343.759 132.288C344.434 131.976 345.038 131.528 345.532 130.971C346.026 130.415 346.398 129.762 346.627 129.054C346.856 128.346 346.935 127.598 346.86 126.858C346.785 126.117 346.557 125.401 346.191 124.753C343.813 120.921 335.686 120.512 331.779 121.524C331.553 121.588 329.12 122.493 327.592 123.085C328.431 122.6 329.26 122.137 330.121 121.621C331.833 120.62 333.512 119.576 335.32 118.456L337.914 116.723C338.786 116.164 339.647 115.464 340.519 114.829C342.521 113.322 344.48 111.686 346.417 110.007C347.3 111.503 350.497 116.766 352.951 118.521C355.405 120.275 359 121.825 362.046 120.878C362.765 120.673 363.433 120.32 364.008 119.842C364.583 119.363 365.052 118.771 365.386 118.101C365.719 117.432 365.909 116.701 365.944 115.954C365.978 115.207 365.857 114.461 365.588 113.763C363.822 109.619 355.846 107.972 351.842 108.381C351.584 108.381 348.742 108.995 347.182 109.35C348.333 108.328 349.496 107.305 350.637 106.239C353.866 103.139 357.095 99.9104 360.324 96.7028C361.314 95.7125 362.315 94.7438 363.306 93.7751C363.607 94.3025 367.277 100.653 370.033 102.623C372.476 104.377 376.082 105.917 379.117 104.969C379.836 104.765 380.504 104.413 381.079 103.936C381.655 103.459 382.124 102.868 382.458 102.2C382.793 101.531 382.984 100.801 383.02 100.055C383.057 99.3085 382.937 98.5628 382.67 97.8653C380.894 93.7105 372.982 92.0744 368.914 92.4834C368.612 92.4834 364.522 93.366 363.532 93.6351C365.684 91.4824 367.923 89.3297 370.173 87.3814C373.206 84.6638 376.413 82.1469 379.774 79.8468C379.914 80.0944 383.714 86.7356 386.534 88.7484C388.977 90.5029 392.583 92.0529 395.618 91.0949C396.337 90.8904 397.005 90.5386 397.58 90.0618C398.155 89.5849 398.625 88.9936 398.959 88.3253C399.293 87.6571 399.485 86.9266 399.521 86.1803C399.557 85.4341 399.438 84.6884 399.17 83.9909C397.394 79.8361 389.429 78.2 385.414 78.609C385.102 78.609 380.7 79.567 379.903 79.793C380.108 79.6531 380.291 79.5024 380.484 79.3732C383.917 77.1594 387.541 75.2574 391.313 73.69C393.379 72.7966 395.403 72.0539 397.394 71.3866C397.975 72.689 400.688 78.6413 403.034 80.7402C405.381 82.8392 408.685 84.6797 411.807 84.077C412.545 83.9523 413.248 83.6751 413.873 83.2632C414.497 82.8513 415.029 82.3137 415.434 81.6847C415.839 81.0557 416.109 80.3492 416.226 79.6102C416.342 78.8712 416.304 78.116 416.112 77.3927C414.799 73.0872 407.06 70.5685 403.034 70.504C402.808 70.504 400.58 70.6977 398.955 70.8807C399.859 70.5901 400.785 70.2672 401.657 70.0088C404.886 69.0186 407.975 68.3189 410.687 67.7162C412.227 67.3825 413.626 67.1134 414.993 66.8874C416.231 67.8669 421.279 71.7848 424.26 72.5598C427.242 73.3348 431.095 73.4532 433.593 71.4835C434.231 71.0341 434.763 70.4514 435.154 69.7758C435.544 69.1001 435.783 68.3476 435.854 67.5704C435.924 66.7933 435.825 66.01 435.563 65.275C435.301 64.54 434.882 63.8708 434.335 63.3138ZM319.271 124.548C316.925 125.743 314.708 126.83 312.662 127.778C316.126 122.755 318.505 117.065 319.648 111.072C320.262 111.223 320.886 111.352 321.51 111.471C321.693 114.861 324.395 120.889 324.739 121.664C322.866 122.697 321.026 123.709 319.271 124.548Z" fill="white" stroke="black" stroke-width="2" mask="url(#path-9-inside-2_1765_1108)"/>
<path d="M402.213 66.6264L402.212 66.6263L402.205 66.6335C402.207 66.6314 402.207 66.6317 402.203 66.6349C402.196 66.6402 402.18 66.6533 402.15 66.6769C402.108 66.7097 402.05 66.7531 401.979 66.8063C401.836 66.9125 401.643 67.0527 401.417 67.2157C400.965 67.5414 400.385 67.9542 399.811 68.3603C399.238 68.7662 398.672 69.1648 398.25 69.462C398.2 69.4969 398.153 69.5304 398.107 69.5624C398.057 69.3983 397.999 69.2066 397.935 68.9913C397.711 68.2365 397.416 67.1945 397.135 66.0446C396.565 63.7161 396.073 61.0417 396.266 59.3891L396.266 59.3884C396.433 57.9345 396.828 56.3154 397.507 54.8726C398.186 53.4278 399.135 52.1925 400.393 51.4526L400.393 51.4528L400.403 51.4466C400.978 51.0897 401.622 50.8565 402.293 50.7618C402.964 50.6672 403.647 50.7131 404.299 50.8968C404.951 51.0805 405.558 51.3978 406.08 51.8286C406.6 52.2574 407.026 52.7892 407.331 53.3906C408.172 55.2496 407.688 57.8426 406.531 60.4079C405.383 62.9516 403.642 65.3158 402.213 66.6264Z" fill="white" stroke="black"/>
<path d="M271.711 137.362C271.555 137.193 271.351 136.968 271.105 136.691C270.489 135.998 269.607 134.974 268.549 133.654C266.432 131.013 263.609 127.192 260.79 122.473C255.148 113.027 249.545 100.022 249.603 85.7044C249.662 71.3868 255.388 58.4272 261.124 49.0271C263.99 44.3307 266.852 40.5324 268.997 37.9091C270.069 36.5977 270.962 35.5805 271.585 34.8923C271.835 34.6169 272.041 34.3942 272.199 34.2264C272.354 34.3956 272.558 34.6199 272.804 34.8972C273.419 35.591 274.3 36.616 275.358 37.9369C277.473 40.5791 280.294 44.4026 283.111 49.1238C288.75 58.5735 294.354 71.5816 294.306 85.8944C294.258 100.206 288.532 113.163 282.794 122.562C279.927 127.257 277.062 131.055 274.916 133.678C273.843 134.99 272.949 136.007 272.325 136.695C272.075 136.971 271.869 137.194 271.711 137.362Z" fill="white" stroke="black"/>
<path d="M263.226 142.444C263.23 142.553 263.232 142.651 263.235 142.739C263.147 142.734 263.049 142.727 262.941 142.719C262.407 142.68 261.629 142.611 260.659 142.491C258.717 142.25 256.006 141.804 252.936 140.985C246.788 139.343 239.241 136.214 233.522 130.272C227.804 124.331 224.964 116.667 223.558 110.457C222.855 107.357 222.513 104.629 222.346 102.679C222.262 101.704 222.223 100.923 222.204 100.388C222.201 100.279 222.198 100.181 222.196 100.093C222.283 100.099 222.382 100.105 222.49 100.113C223.024 100.152 223.802 100.221 224.773 100.342C226.716 100.582 229.428 101.028 232.499 101.848C238.65 103.49 246.2 106.619 251.918 112.56C257.637 118.501 260.474 126.165 261.878 132.375C262.579 135.476 262.92 138.203 263.086 140.154C263.169 141.129 263.208 141.909 263.226 142.444Z" fill="white" stroke="black"/>
</g>
<path d="M271.834 137.595L271.639 137.594L271.74 112.912L271.744 112.916V111.793V111.783L271.255 111.782L271.579 111.422L253.317 94.9956L253.448 94.8486L270.921 110.561L271.75 111.307L271.755 110.192L271.852 88.234L271.856 87.2946L271.848 87.3002L271.852 86.3396L272.086 33.9984H272.281L272.122 69.3608L272.117 70.4608L272.949 69.7412L284.442 59.8012L284.566 59.9464L272.295 70.5781L272.123 70.7268L272.122 70.9537L272.004 96.5928L271.998 97.7095L272.835 96.9697L290.448 81.3909L290.579 81.5379L272.172 97.8245L272.005 97.9728L272.004 98.1966L271.896 121.543L271.891 122.577L272.705 121.939L285.828 111.637L285.948 111.793L272.087 122.67L271.897 122.819L271.896 123.061L271.834 137.595ZM271.543 87.5031L271.389 87.6063L256.183 65.3845L256.344 65.2761L270.939 86.6196L271.543 87.5031Z" fill="white" stroke="black"/>
<path d="M320.559 99.4961L307.403 114.216L306.671 115.035L307.77 115.049L315.814 115.15L315.81 115.345L306.717 115.233L306.49 115.23L306.338 115.4L296.877 125.969L296.132 126.801L297.249 126.803L310.118 126.824V127.019L296.184 127.008L295.96 127.008L295.811 127.175L287.211 136.787L286.522 137.557L287.553 137.62L296.476 138.16L296.465 138.356L286.602 137.762L286.361 137.748L286.199 137.928L280.795 143.961L280.648 143.829L290.41 132.922L290.56 132.755L290.535 132.533L288.966 118.694L289.156 118.674L290.607 131.451L290.732 132.559L291.476 131.727L299.474 122.783L299.793 122.425L299.793 122.428L300.862 121.233L320.418 99.3695L320.559 99.4961ZM299.853 121.95H299.657L301.548 106.945L301.739 106.967L299.993 120.837L299.853 121.95Z" fill="white" stroke="black"/>
<path d="M242.888 122.183V122.376L228.111 119.379L228.15 119.186L241.846 121.971L242.888 122.183ZM242.306 121.134L221.965 99.9992L222.105 99.8639L235.795 114.088L236.557 114.881L236.653 113.785L237.352 105.766L237.55 105.782L236.755 114.839L236.735 115.066L236.893 115.23L246.741 125.455L247.516 126.259L247.6 125.146L248.574 112.317L248.771 112.331L247.712 126.222L247.695 126.445L247.85 126.606L256.794 135.906L257.511 136.651L257.65 135.627L258.853 126.769L259.047 126.795L257.725 136.591L257.693 136.83L257.86 137.004L263.466 142.833L263.325 142.969L253.177 132.425L253.022 132.264L252.798 132.272L238.886 132.802L238.879 132.607L251.727 132.12L252.842 132.078L252.069 131.274L243.748 122.62L242.888 121.725V121.739L242.306 121.134Z" fill="white" stroke="black"/>
<path d="M268.338 411.821L405.78 360.252L406.77 349.262L270.34 400.82L268.338 411.821Z" fill="#FFC7C7" stroke="black" stroke-width="1.13593" stroke-linecap="round" stroke-linejoin="round"/>
<path d="M245.196 229.527C242.781 229.508 240.446 228.657 238.587 227.116C236.25 225.188 234.715 222.46 234.281 219.463C234.227 218.927 234.38 218.391 234.71 217.966C235.039 217.54 235.52 217.258 236.051 217.176C236.583 217.095 237.126 217.22 237.568 217.528C238.01 217.835 238.317 218.301 238.425 218.828C238.706 220.794 239.707 222.585 241.235 223.854C241.899 224.427 242.68 224.849 243.523 225.091C244.366 225.332 245.252 225.388 246.119 225.254C246.985 225.12 247.813 224.799 248.544 224.314C249.274 223.829 249.891 223.191 250.351 222.444C250.669 222.005 251.143 221.705 251.676 221.608C252.21 221.51 252.76 221.623 253.212 221.922C253.664 222.221 253.982 222.683 254.101 223.212C254.22 223.74 254.13 224.295 253.85 224.758C253.064 225.991 252.025 227.042 250.802 227.841C249.579 228.641 248.2 229.172 246.756 229.398C246.241 229.484 245.719 229.527 245.196 229.527Z" fill="black"/>
<path d="M225.359 235.651C220.052 235.651 215.305 231.432 214.412 225.598C214.369 225.327 214.38 225.049 214.445 224.782C214.509 224.515 214.626 224.263 214.788 224.041C214.95 223.819 215.154 223.631 215.389 223.489C215.623 223.346 215.884 223.25 216.156 223.209C216.704 223.136 217.26 223.278 217.707 223.605C218.154 223.932 218.458 224.418 218.556 224.963C219.18 229.064 222.635 231.949 226.241 231.421C227.107 231.28 227.932 230.957 228.664 230.472C229.395 229.988 230.015 229.354 230.482 228.612C230.799 228.172 231.274 227.873 231.807 227.775C232.34 227.678 232.89 227.79 233.342 228.089C233.794 228.388 234.113 228.851 234.232 229.379C234.351 229.908 234.261 230.462 233.98 230.926C233.195 232.158 232.156 233.209 230.933 234.009C229.71 234.809 228.331 235.339 226.887 235.565C226.381 235.636 225.869 235.665 225.359 235.651Z" fill="black"/>
<path d="M207.211 242.615C204.797 242.599 202.463 241.751 200.602 240.215C198.268 238.286 196.733 235.559 196.296 232.562C196.242 232.027 196.395 231.491 196.725 231.065C197.054 230.64 197.535 230.357 198.067 230.275C198.599 230.194 199.142 230.32 199.583 230.627C200.025 230.935 200.332 231.4 200.44 231.927C200.721 233.893 201.722 235.684 203.25 236.954C203.921 237.516 204.703 237.931 205.545 238.172C206.386 238.413 207.269 238.475 208.136 238.353C209.001 238.212 209.825 237.888 210.554 237.404C211.283 236.919 211.901 236.285 212.367 235.544C212.718 235.203 213.176 234.992 213.664 234.946C214.152 234.901 214.641 235.023 215.05 235.293C215.459 235.562 215.763 235.964 215.914 236.43C216.064 236.896 216.05 237.4 215.876 237.858C215.087 239.089 214.046 240.14 212.821 240.939C211.597 241.739 210.216 242.27 208.772 242.497C208.255 242.58 207.733 242.619 207.211 242.615Z" fill="black"/>
<path d="M187.374 248.299C182.067 248.299 177.32 244.069 176.427 238.245C176.371 237.968 176.373 237.682 176.431 237.405C176.489 237.127 176.602 236.865 176.764 236.633C176.926 236.401 177.134 236.204 177.374 236.054C177.614 235.904 177.882 235.804 178.162 235.76C178.442 235.717 178.727 235.73 179.002 235.8C179.276 235.87 179.534 235.994 179.759 236.166C179.984 236.338 180.172 236.553 180.311 236.8C180.451 237.046 180.539 237.318 180.571 237.6C181.206 241.7 184.65 244.585 188.256 244.058C189.12 243.917 189.945 243.594 190.676 243.112C191.407 242.63 192.027 241.998 192.497 241.259C192.639 241.009 192.83 240.791 193.06 240.618C193.289 240.445 193.552 240.321 193.831 240.253C194.111 240.186 194.401 240.177 194.684 240.226C194.968 240.276 195.238 240.383 195.478 240.541C195.718 240.699 195.923 240.905 196.08 241.145C196.237 241.386 196.344 241.656 196.392 241.939C196.441 242.223 196.43 242.513 196.362 242.792C196.294 243.071 196.169 243.334 195.995 243.563C195.208 244.794 194.169 245.846 192.947 246.647C191.724 247.449 190.346 247.982 188.902 248.213C188.395 248.278 187.884 248.307 187.374 248.299Z" fill="black"/>
<path d="M167.062 256.371C161.766 256.371 157.019 252.152 156.115 246.318C156.148 245.829 156.346 245.366 156.678 245.006C157.009 244.645 157.454 244.408 157.938 244.334C158.422 244.26 158.917 244.353 159.341 244.599C159.765 244.844 160.093 245.226 160.27 245.683C160.894 249.784 164.349 252.658 167.955 252.141C168.82 251.998 169.645 251.674 170.376 251.19C171.107 250.706 171.727 250.073 172.196 249.332C172.513 248.892 172.988 248.593 173.521 248.495C174.054 248.398 174.604 248.511 175.056 248.81C175.508 249.109 175.827 249.571 175.946 250.099C176.065 250.628 175.975 251.182 175.694 251.646C174.907 252.877 173.868 253.927 172.645 254.727C171.423 255.526 170.044 256.057 168.601 256.285C168.091 256.351 167.576 256.38 167.062 256.371Z" fill="black"/>
<path d="M147.397 263.572C144.984 263.558 142.649 262.71 140.788 261.172C138.454 259.243 136.92 256.515 136.483 253.519C136.429 252.984 136.582 252.448 136.911 252.022C137.241 251.597 137.721 251.314 138.253 251.232C138.785 251.151 139.328 251.277 139.77 251.584C140.212 251.892 140.518 252.357 140.627 252.884C140.908 254.85 141.909 256.641 143.436 257.911C144.101 258.484 144.881 258.905 145.724 259.147C146.568 259.389 147.453 259.444 148.32 259.31C149.187 259.176 150.014 258.856 150.745 258.37C151.476 257.885 152.093 257.247 152.553 256.501C152.905 256.16 153.363 255.949 153.851 255.903C154.338 255.858 154.827 255.98 155.236 256.25C155.645 256.519 155.95 256.921 156.1 257.387C156.25 257.853 156.237 258.357 156.062 258.815C155.273 260.046 154.232 261.097 153.008 261.896C151.783 262.696 150.403 263.227 148.958 263.454C148.442 263.537 147.92 263.576 147.397 263.572Z" fill="black"/>
<path d="M272.105 405.115L385.845 363.212" stroke="black" stroke-width="0.567964" stroke-linecap="round" stroke-linejoin="round"/>
<path d="M269.113 408.613L341.94 381.672" stroke="black" stroke-width="0.567964" stroke-linecap="round" stroke-linejoin="round"/>
<path d="M131.391 258.739V271.731L268.338 411.821L270.34 400.82L131.391 258.739Z" fill="#FFC7C7" stroke="black" stroke-width="1.13593" stroke-linecap="round" stroke-linejoin="round"/>
<path d="M133.426 268.933L214.745 350.242" stroke="black" stroke-width="0.567964" stroke-linecap="round" stroke-linejoin="round"/>
<path d="M171.842 303.85L256.638 390.649" stroke="black" stroke-width="0.567964" stroke-linecap="round" stroke-linejoin="round"/>
<path d="M131.391 258.739L270.34 400.82L406.769 349.262L265.367 213.747L131.391 258.739Z" fill="white" stroke="black" stroke-width="1.13593" stroke-linecap="round" stroke-linejoin="round"/>
<path d="M129.691 256.501L1 136.389L132.823 95.282L264.355 211.605L129.691 256.501Z" fill="#FFC7C7" stroke="black" stroke-width="1.13593" stroke-linecap="round" stroke-linejoin="round"/>
<path d="M20.6978 137.185L58.3707 125.453" stroke="black" stroke-width="1.21052" stroke-linecap="round" stroke-linejoin="round"/>
<path d="M26.2622 141.512L63.9351 129.78" stroke="black" stroke-width="1.21052" stroke-linecap="round" stroke-linejoin="round"/>
<path d="M154.296 259.751C153.887 259.754 153.486 259.634 153.145 259.407C152.691 259.092 152.375 258.615 152.262 258.074C152.15 257.533 152.25 256.97 152.542 256.501C153.617 254.83 154.032 252.82 153.704 250.86C153.522 249.375 152.901 247.978 151.922 246.847C150.942 245.716 149.648 244.903 148.204 244.51C147.683 244.367 147.237 244.029 146.959 243.565C146.681 243.102 146.592 242.549 146.711 242.022C146.831 241.495 147.149 241.034 147.599 240.736C148.05 240.437 148.598 240.324 149.13 240.42C151.395 241 153.436 242.243 154.991 243.99C156.546 245.737 157.545 247.908 157.859 250.225C158.351 253.221 157.706 256.292 156.051 258.836C155.853 259.118 155.59 259.348 155.285 259.507C154.98 259.666 154.641 259.75 154.296 259.751Z" fill="black"/>
<path d="M173.94 252.55C173.531 252.553 173.13 252.433 172.789 252.206C172.558 252.055 172.36 251.859 172.205 251.631C172.05 251.403 171.942 251.146 171.887 250.876C171.832 250.606 171.831 250.328 171.884 250.057C171.937 249.786 172.044 249.529 172.197 249.3C173.267 247.628 173.681 245.619 173.359 243.659C173.177 242.174 172.556 240.777 171.576 239.646C170.597 238.515 169.303 237.702 167.859 237.309C167.577 237.262 167.308 237.159 167.068 237.004C166.828 236.85 166.621 236.648 166.462 236.412C166.302 236.175 166.192 235.908 166.139 235.628C166.086 235.347 166.091 235.059 166.154 234.78C166.216 234.501 166.334 234.238 166.502 234.007C166.669 233.776 166.882 233.581 167.128 233.435C167.373 233.289 167.645 233.194 167.928 233.157C168.211 233.12 168.499 233.141 168.774 233.219C171.039 233.799 173.08 235.042 174.635 236.789C176.19 238.536 177.189 240.707 177.503 243.024C177.995 246.02 177.35 249.091 175.695 251.635C175.497 251.917 175.234 252.147 174.929 252.306C174.624 252.466 174.285 252.549 173.94 252.55Z" fill="black"/>
<path d="M252.095 225.706C251.727 225.687 251.369 225.574 251.057 225.378C250.745 225.181 250.488 224.908 250.312 224.583C250.136 224.259 250.046 223.895 250.051 223.526C250.056 223.157 250.156 222.796 250.341 222.477C251.418 220.811 251.832 218.803 251.503 216.847C251.323 215.36 250.703 213.961 249.723 212.828C248.744 211.695 247.448 210.879 246.003 210.486C245.734 210.427 245.48 210.316 245.255 210.158C245.029 210.001 244.837 209.8 244.69 209.568C244.543 209.336 244.443 209.076 244.397 208.805C244.351 208.534 244.359 208.257 244.421 207.989C244.554 207.452 244.889 206.987 245.356 206.69C245.823 206.393 246.386 206.288 246.929 206.396C249.194 206.976 251.235 208.219 252.79 209.966C254.345 211.713 255.344 213.884 255.658 216.201C256.151 219.198 255.502 222.271 253.839 224.812C253.644 225.093 253.383 225.322 253.079 225.477C252.775 225.633 252.437 225.712 252.095 225.706Z" fill="black"/>
<path d="M232.226 231.809C231.816 231.811 231.415 231.691 231.074 231.464C230.843 231.313 230.645 231.118 230.49 230.89C230.335 230.661 230.227 230.405 230.172 230.134C230.117 229.864 230.116 229.586 230.169 229.315C230.223 229.045 230.329 228.787 230.482 228.558C231.553 226.886 231.968 224.877 231.644 222.918C231.462 221.433 230.841 220.036 229.862 218.905C228.882 217.774 227.588 216.96 226.144 216.567C225.862 216.521 225.593 216.417 225.353 216.263C225.113 216.108 224.906 215.907 224.747 215.67C224.587 215.433 224.478 215.167 224.425 214.886C224.372 214.605 224.376 214.317 224.439 214.038C224.501 213.76 224.62 213.497 224.787 213.266C224.955 213.034 225.167 212.84 225.413 212.693C225.658 212.547 225.93 212.453 226.214 212.416C226.497 212.378 226.784 212.399 227.059 212.477C229.326 213.055 231.368 214.297 232.924 216.045C234.479 217.792 235.477 219.964 235.788 222.283C236.28 225.278 235.635 228.349 233.98 230.894C233.782 231.175 233.519 231.406 233.214 231.565C232.909 231.724 232.57 231.808 232.226 231.809Z" fill="black"/>
<path d="M214.078 238.805C213.667 238.804 213.266 238.68 212.926 238.45C212.472 238.135 212.156 237.658 212.044 237.117C211.931 236.576 212.032 236.013 212.323 235.544C213.404 233.876 213.823 231.864 213.496 229.904C213.314 228.418 212.693 227.021 211.714 225.89C210.734 224.759 209.44 223.946 207.996 223.553C207.714 223.506 207.445 223.403 207.205 223.248C206.965 223.094 206.759 222.892 206.599 222.656C206.439 222.419 206.33 222.152 206.277 221.872C206.224 221.591 206.229 221.303 206.291 221.024C206.353 220.745 206.472 220.482 206.639 220.251C206.807 220.02 207.019 219.825 207.265 219.679C207.51 219.533 207.783 219.438 208.066 219.401C208.349 219.364 208.636 219.385 208.911 219.463C211.177 220.043 213.217 221.286 214.772 223.033C216.327 224.78 217.326 226.951 217.64 229.268C218.132 232.264 217.487 235.335 215.832 237.879C215.635 238.163 215.373 238.395 215.068 238.556C214.763 238.718 214.423 238.803 214.078 238.805Z" fill="black"/>
<path d="M194.24 244.478C193.832 244.474 193.432 244.355 193.089 244.133C192.858 243.982 192.66 243.787 192.505 243.558C192.35 243.33 192.242 243.074 192.187 242.803C192.132 242.533 192.131 242.255 192.184 241.984C192.237 241.714 192.344 241.456 192.497 241.227C193.567 239.555 193.981 237.546 193.659 235.587C193.477 234.102 192.856 232.705 191.876 231.574C190.897 230.443 189.603 229.629 188.159 229.236C187.836 229.236 187.518 229.164 187.227 229.024C186.936 228.885 186.68 228.682 186.479 228.43C186.277 228.178 186.134 227.885 186.061 227.57C185.988 227.256 185.987 226.93 186.057 226.615C186.127 226.3 186.267 226.005 186.467 225.751C186.667 225.498 186.921 225.293 187.21 225.151C187.5 225.009 187.818 224.933 188.14 224.931C188.463 224.928 188.782 224.998 189.074 225.135C191.341 225.712 193.384 226.954 194.94 228.701C196.496 230.449 197.493 232.622 197.803 234.941C198.296 237.936 197.651 241.008 195.995 243.552C195.798 243.836 195.536 244.068 195.231 244.229C194.925 244.39 194.586 244.475 194.24 244.478Z" fill="black"/>
<path d="M380.507 345.979L385.802 344.031" stroke="black" stroke-width="0.567964" stroke-linecap="round" stroke-linejoin="round"/>
<path d="M275.958 384.599L375.695 347.766" stroke="black" stroke-width="0.567964" stroke-linecap="round" stroke-linejoin="round"/>
<path d="M278.757 367.948L373.94 332.794" stroke="black" stroke-width="0.567964" stroke-linecap="round" stroke-linejoin="round"/>
<path d="M264.097 373.362L272.428 370.284" stroke="black" stroke-width="0.567964" stroke-linecap="round" stroke-linejoin="round"/>
<path d="M252.236 362.125L362.09 321.556" stroke="black" stroke-width="0.567964" stroke-linecap="round" stroke-linejoin="round"/>
<path d="M240.385 350.898L350.228 310.33" stroke="black" stroke-width="0.567964" stroke-linecap="round" stroke-linejoin="round"/>
<path d="M333.759 300.793L338.366 299.093" stroke="black" stroke-width="0.567964" stroke-linecap="round" stroke-linejoin="round"/>
<path d="M228.523 339.661L327.172 303.226" stroke="black" stroke-width="0.567964" stroke-linecap="round" stroke-linejoin="round"/>
<path d="M216.662 328.424L326.516 287.855" stroke="black" stroke-width="0.567964" stroke-linecap="round" stroke-linejoin="round"/>
<path d="M204.8 317.197L314.654 276.629" stroke="black" stroke-width="0.567964" stroke-linecap="round" stroke-linejoin="round"/>
<path d="M192.949 305.96L302.792 265.391" stroke="black" stroke-width="0.567964" stroke-linecap="round" stroke-linejoin="round"/>
<path d="M181.087 294.722L290.931 254.154" stroke="black" stroke-width="0.567964" stroke-linecap="round" stroke-linejoin="round"/>
<path d="M275.184 244.359L279.08 242.917" stroke="black" stroke-width="0.567964" stroke-linecap="round" stroke-linejoin="round"/>
<path d="M169.226 283.485L271.804 245.608" stroke="black" stroke-width="0.567964" stroke-linecap="round" stroke-linejoin="round"/>
<path d="M190.161 260.139L267.218 231.69" stroke="black" stroke-width="0.567964" stroke-linecap="round" stroke-linejoin="round"/>
<path d="M157.375 272.259L178.59 264.423" stroke="black" stroke-width="0.567964" stroke-linecap="round" stroke-linejoin="round"/>
<g style="mix-blend-mode:multiply">
<path d="M195.478 301.31C206.597 302.763 205.617 283.733 202.797 277.35C200.74 279.708 199.207 282.476 198.299 285.471C197.392 288.466 197.131 291.619 197.534 294.722C197.651 296.172 198.157 297.562 198.998 298.748C199.424 299.335 200.014 299.783 200.694 300.036C201.373 300.288 202.113 300.335 202.819 300.169C203.831 299.74 204.687 299.011 205.273 298.081C207.318 295.368 208.674 292.01 210.827 289.524C213.809 291.536 224.4 294.981 222.872 287.575C222.032 283.485 224.066 283.948 226.251 285.95C227.156 286.768 228.576 286.327 229.696 285.832L240.46 281.096C241.829 280.397 243.313 279.949 244.84 279.772C250.007 279.513 253.387 284.314 258.456 280.923C260.609 279.503 261.104 275.649 263.838 274.185C265.786 273.109 268.079 273.044 270.296 272.743C277.917 271.731 281.814 267.706 288.853 264.067" stroke="#FFC7C7" stroke-width="1.13593" stroke-linecap="round" stroke-linejoin="round"/>
</g>
<g style="mix-blend-mode:multiply">
<path d="M204.111 313.204C208.277 313.914 211.84 310.115 215.521 308.898C220.225 307.327 222.27 305.411 226.79 303.463C232.764 300.901 239.782 299.717 238.534 290.686C237.683 293.915 237.586 297.467 236.93 300.847C241.773 303.247 243.076 299.125 243.571 295.465C245.197 295.424 246.803 295.1 248.318 294.507C248.318 295.185 248.533 295.95 248.522 296.595C250.847 297.532 251.751 296.897 252.236 294.841C254.808 294.356 255.723 291.945 257.897 291.353C258.446 297.392 259.986 302.677 259.63 308.855C255.508 309.932 254.862 302.817 255.906 299.868C256.983 296.746 260.083 295.078 261.223 291.816C261.46 292.215 261.277 292.677 261.406 293.108C266.595 290.008 273.247 290.848 278.392 287.22C280.006 286.079 281.158 283.797 282.869 283.001C286.594 281.279 287.702 283.302 290.479 279.244" stroke="#FFC7C7" stroke-width="1.13593" stroke-linecap="round" stroke-linejoin="round"/>
</g>
<g style="mix-blend-mode:multiply">
<path d="M241.612 348.67C249.093 346.517 252.376 327.928 250.223 321.104C247.704 312.849 244.238 321.901 243.431 326.335C242.785 329.887 241.752 339.252 245.067 341.954C252.419 347.917 256.907 335.657 257.811 330.114C258.134 333.579 256.046 337.853 256.896 341.588C262.849 342.287 265.798 337.336 265.421 332.223C266.16 332.931 266.661 333.851 266.854 334.855C267.047 335.86 266.922 336.9 266.498 337.831C272.181 337.433 271.244 327.842 271.879 323.978C271.556 326.68 271.804 329.844 273.623 332.029C275.141 333.838 278.036 334.634 279.941 333.235C281.847 331.836 281.47 328.155 279.156 327.67V350.974C279.229 351.647 279.093 352.327 278.768 352.922C278.004 353.998 276.131 353.772 275.259 352.739C274.491 351.612 274.13 350.256 274.237 348.896C274.129 341.265 276.486 330.813 282.395 325.604C282.699 326.346 282.799 327.156 282.686 327.95C283.252 327.73 283.763 327.389 284.185 326.953C284.606 326.516 284.929 325.993 285.129 325.421C285.517 327.132 286.529 329.285 288.262 328.983C288.837 328.833 289.363 328.536 289.79 328.122C292.632 325.776 295.71 324.226 297.615 320.889C297.884 321.729 298.164 322.568 298.444 323.418C298.896 321.793 300.446 320.728 301.964 319.996C304.279 318.907 306.783 318.275 309.337 318.134C311.49 318.026 313.836 318.252 315.795 317.326C316.663 316.863 317.494 316.334 318.282 315.744C320.512 314.274 323.095 313.427 325.762 313.29" stroke="#FFC7C7" stroke-width="1.13593" stroke-linecap="round" stroke-linejoin="round"/>
</g>
<path d="M152.93 144.257C152.93 144.257 170.098 122.622 175.91 114.883C181.723 107.144 185.931 101.191 185.931 101.191C185.931 101.191 189.031 103.635 188.084 106.412C187.137 109.189 166.718 137.077 162.176 144.16C157.633 151.242 158.269 160.209 158.602 163.298C158.936 166.387 149.927 156.291 152.93 144.257Z" fill="white" stroke="black" stroke-width="1.27267" stroke-linecap="round" stroke-linejoin="round"/>
<path d="M185.931 101.191C185.931 101.191 196.619 86.3266 204.552 73.9483C212.485 61.5701 224.067 42.9812 226.822 40.5055C229.578 38.0299 230.245 44.4881 229.352 48.8151C228.458 53.1421 218.975 65.219 212.571 75.1216C206.167 85.0242 202.206 92.1497 196.695 98.651C191.184 105.152 191.506 105.464 188.084 106.412C184.661 107.359 185.328 103.968 185.931 101.191Z" fill="black" stroke="black" stroke-width="1.27267" stroke-linecap="round" stroke-linejoin="round"/>
<path d="M149.238 146.431C150.422 138.412 153.102 123.601 159.227 118.941C165.351 114.28 183.886 117.864 185.425 118.144C186.965 118.424 211.355 123.827 218.793 128.402C226.231 132.976 231.225 146.194 233.13 153.847C235.035 161.5 239.126 174.46 239.739 175.375C239.739 175.375 245.928 178.098 249.319 177.775C252.709 177.452 257.219 161.694 266.713 152.383C276.206 143.073 281.136 141.803 291.62 142.696C302.104 143.589 341.93 154.385 345.966 158.357C350.002 162.329 352.521 171.274 351.649 177.732C350.777 184.19 352.047 191.294 352.047 192.521C352.047 193.748 355.782 197.742 354.878 201.132C353.974 204.523 353.414 211.896 350.648 212.875C347.882 213.855 327.528 213.338 312.416 211.282C297.303 209.226 276.282 200.11 262.364 193.737C248.447 187.365 241.655 184.621 231.483 184.696C221.312 184.771 201.593 185.202 183.38 181.004C165.168 176.806 152.79 169.164 149.367 165.816C145.944 162.469 148.065 154.461 149.238 146.431ZM258.296 184.233C263.279 191.606 283.364 198.872 294.171 201.875C304.978 204.878 330.897 210.26 337.656 206.525C344.416 202.79 347.968 180.563 347.344 172.856C346.719 165.149 343.566 160.865 343.566 160.865C330.251 152.631 288.585 143.966 279.974 147.421C271.363 150.876 263.129 162.017 260.104 170.972C257.079 179.928 258.296 184.233 258.296 184.233ZM171.293 171.564C184.597 179.486 205.575 181.811 213.895 182.07C222.216 182.328 230.202 177.958 230.45 168.4C230.698 158.842 225.66 142.847 223.777 138.261C221.893 133.676 215.715 130.921 215.715 130.921C207.373 126.97 172.789 118.262 166.933 119.231C161.078 120.2 155.954 129.091 154.76 142.083C153.565 155.074 157.989 163.642 171.293 171.564Z" fill="black" stroke="black" stroke-width="1.27267" stroke-linecap="round" stroke-linejoin="round"/>
<path d="M351.122 192.252C351.122 192.252 354.545 197.472 356.988 193.759C359.431 190.046 390.947 154.698 390.947 154.698C390.947 154.698 392.175 154.375 391.884 156.85C391.593 159.326 358.603 203.619 357.376 205.782C356.148 207.946 350.917 208.602 349.69 207.687C348.463 206.772 351.122 192.252 351.122 192.252Z" fill="white" stroke="black" stroke-width="1.27267" stroke-linecap="round" stroke-linejoin="round"/>
<path d="M388.794 155.935C390.595 152.729 392.219 149.427 393.659 146.044C396.996 138.627 399.041 124.129 399.579 109.016C400.118 93.9042 400.656 84.9703 403.444 87.7258C406.231 90.4814 403.842 105.303 403.325 117.003C402.809 128.703 399.17 140.457 398.288 146.636C397.62 151.296 394.047 158.68 391.582 158.691C389.117 158.702 389.429 158.088 388.794 155.935Z" fill="black" stroke="black" stroke-width="1.27267" stroke-linecap="round" stroke-linejoin="round"/>
<path d="M185.425 349.144L198.977 364.482L178.827 359.94L35.4546 272.226L42.0635 261.43L185.425 349.144Z" fill="white" stroke="black" stroke-width="1.4364" stroke-linecap="round" stroke-linejoin="round"/>
<g style="mix-blend-mode:multiply" opacity="0.5">
<path d="M185.425 349.144L198.977 364.482L178.827 359.94L35.4546 272.226L42.0635 261.43L185.425 349.144Z" fill="#FFD95C"/>
<path d="M185.425 349.144L198.977 364.482L178.827 359.94L35.4546 272.226L42.0635 261.43L185.425 349.144Z" stroke="black" stroke-width="1.4364" stroke-linecap="round" stroke-linejoin="round"/>
</g>
<path d="M40.5623 263.888L36.9614 269.773L180.33 357.492L183.931 351.607L40.5623 263.888Z" stroke="black" stroke-width="0.718198" stroke-linecap="round" stroke-linejoin="round"/>
<path d="M185.457 349.176L178.859 359.95L198.976 364.482L185.457 349.176Z" fill="white" stroke="black" stroke-width="1.4364" stroke-linecap="round" stroke-linejoin="round"/>
<path d="M188.913 362.211L198.977 364.482L192.217 356.829L188.913 362.211Z" fill="#FFD95C" stroke="black" stroke-width="1.4364" stroke-linecap="round" stroke-linejoin="round"/>
<path d="M22.7101 257.006C22.2754 257.714 21.9845 258.501 21.8541 259.322C21.7238 260.142 21.7565 260.98 21.9505 261.788C22.1444 262.596 22.4958 263.358 22.9845 264.029C23.4731 264.701 24.0895 265.27 24.7983 265.704L35.4544 272.226L42.0633 261.463L31.4072 254.94C29.9793 254.063 28.2618 253.788 26.6314 254.175C25.0011 254.563 23.5909 255.581 22.7101 257.006Z" fill="white" stroke="black" stroke-width="1.4364" stroke-linecap="round" stroke-linejoin="round"/>
<path d="M22.7101 257.006C22.2754 257.714 21.9845 258.501 21.8541 259.322C21.7238 260.142 21.7565 260.98 21.9505 261.788C22.1444 262.596 22.4958 263.358 22.9845 264.029C23.4731 264.701 24.0895 265.27 24.7983 265.704L29.9003 268.825L36.5092 258.061L31.4072 254.94C29.9793 254.063 28.2618 253.788 26.6314 254.175C25.0011 254.563 23.5909 255.581 22.7101 257.006Z" fill="black" stroke="black" stroke-width="1.4364" stroke-linecap="round" stroke-linejoin="round"/>
<path d="M312.028 205.61L308.25 202.951C307.665 202.541 306.996 202.268 306.292 202.153C305.587 202.037 304.866 202.082 304.181 202.284C300.188 203.446 292.653 206.406 290.5 208.742C287.702 211.627 286.819 216.847 288.165 219.301C289.51 221.755 295.032 224.888 295.032 224.888L318.163 210.809L312.028 205.61Z" fill="white" stroke="black" stroke-width="0.9473" stroke-miterlimit="10"/>
<g style="mix-blend-mode:multiply" opacity="0.5">
<path d="M312.028 205.61L308.25 202.951C307.665 202.541 306.996 202.268 306.292 202.153C305.587 202.037 304.866 202.082 304.181 202.284C300.188 203.446 292.653 206.406 290.5 208.742C287.702 211.627 286.819 216.847 288.165 219.301C289.51 221.755 295.032 224.888 295.032 224.888L318.163 210.809L312.028 205.61Z" fill="#FFD95C"/>
<path d="M312.028 205.61L308.25 202.951C307.665 202.541 306.996 202.268 306.292 202.153C305.587 202.037 304.866 202.082 304.181 202.284C300.188 203.446 292.653 206.406 290.5 208.742C287.702 211.627 286.819 216.847 288.165 219.301C289.51 221.755 295.032 224.888 295.032 224.888L318.163 210.809L312.028 205.61Z" stroke="black" stroke-width="0.9473" stroke-miterlimit="10"/>
</g>
<path d="M314.385 204.523L296.087 212.886C296.087 212.886 289.898 216.384 291.857 227.094L399.009 305.992C399.009 305.992 402.734 308.705 409.461 306.412C416.188 304.119 423.077 296.186 424.53 289.481C425.983 282.775 421.301 280.665 420.429 279.922C419.557 279.18 318.002 205.319 318.002 205.319C316.928 204.634 315.647 204.352 314.385 204.523Z" fill="white" stroke="black" stroke-width="0.9473" stroke-miterlimit="10"/>
<g style="mix-blend-mode:multiply" opacity="0.5">
<path d="M314.385 204.523L296.087 212.886C296.087 212.886 289.898 216.384 291.857 227.094L399.009 305.992C399.009 305.992 402.734 308.705 409.461 306.412C416.188 304.119 423.077 296.186 424.53 289.481C425.983 282.775 421.301 280.665 420.429 279.922C419.557 279.18 318.002 205.319 318.002 205.319C316.928 204.634 315.647 204.352 314.385 204.523Z" fill="#FFD95C"/>
<path d="M314.385 204.523L296.087 212.886C296.087 212.886 289.898 216.384 291.857 227.094L399.009 305.992C399.009 305.992 402.734 308.705 409.461 306.412C416.188 304.119 423.077 296.186 424.53 289.481C425.983 282.775 421.301 280.665 420.429 279.922C419.557 279.18 318.002 205.319 318.002 205.319C316.928 204.634 315.647 204.352 314.385 204.523Z" stroke="black" stroke-width="0.9473" stroke-miterlimit="10"/>
</g>
<path d="M417.318 300.847C410.57 307.144 402.4 309.361 399.02 305.788C395.64 302.214 398.428 294.195 405.177 287.888C411.926 281.58 420.096 279.373 423.475 282.947C426.855 286.521 424.057 294.54 417.318 300.847Z" fill="white" stroke="black" stroke-width="0.9473" stroke-miterlimit="10"/>
<g style="mix-blend-mode:multiply">
<path d="M417.318 300.847C410.57 307.144 402.4 309.361 399.02 305.788C395.64 302.214 398.428 294.195 405.177 287.888C411.926 281.58 420.096 279.373 423.475 282.947C426.855 286.521 424.057 294.54 417.318 300.847Z" fill="#FFD95C"/>
<path d="M417.318 300.847C410.57 307.144 402.4 309.361 399.02 305.788C395.64 302.214 398.428 294.195 405.177 287.888C411.926 281.58 420.096 279.373 423.475 282.947C426.855 286.521 424.057 294.54 417.318 300.847Z" stroke="black" stroke-width="0.9473" stroke-miterlimit="10"/>
</g>
<path d="M317.991 205.319C316.921 204.637 315.644 204.355 314.385 204.523L296.087 212.886C296.087 212.886 289.898 216.384 291.857 227.094L365.954 281.655C365.427 279.137 365.524 275.456 368.354 271.085C370.981 267.006 382.778 260.429 389.15 257.093C358.99 235.145 317.991 205.319 317.991 205.319Z" fill="black" stroke="black" stroke-width="1.27267" stroke-linecap="round" stroke-linejoin="round"/>
<path d="M403.013 287.694L363.876 259.331C363.291 258.908 362.821 258.343 362.511 257.69C362.201 257.037 362.061 256.316 362.102 255.594C362.144 254.873 362.367 254.173 362.751 253.56C363.134 252.947 363.665 252.441 364.296 252.087L370.356 248.783C371.067 248.398 371.873 248.221 372.68 248.272C373.487 248.324 374.263 248.601 374.92 249.074L416.296 279.04" fill="white"/>
<path d="M403.013 287.694L363.876 259.331C363.291 258.908 362.821 258.343 362.511 257.69C362.201 257.037 362.061 256.316 362.102 255.594C362.144 254.873 362.367 254.173 362.751 253.56C363.134 252.947 363.665 252.441 364.296 252.087L370.356 248.783C371.067 248.398 371.873 248.221 372.68 248.272C373.487 248.324 374.263 248.601 374.92 249.074L416.296 279.04" stroke="black" stroke-width="0.9473" stroke-miterlimit="10"/>
<g style="mix-blend-mode:multiply" opacity="0.5">
<path d="M403.013 287.694L363.876 259.331C363.291 258.908 362.821 258.343 362.511 257.69C362.201 257.037 362.061 256.316 362.102 255.594C362.144 254.873 362.367 254.173 362.751 253.56C363.134 252.947 363.665 252.441 364.296 252.087L370.356 248.783C371.067 248.398 371.873 248.221 372.68 248.272C373.487 248.324 374.263 248.601 374.92 249.074L416.296 279.04" fill="#FFD95C"/>
<path d="M403.013 287.694L363.876 259.331C363.291 258.908 362.821 258.343 362.511 257.69C362.201 257.037 362.061 256.316 362.102 255.594C362.144 254.873 362.367 254.173 362.751 253.56C363.134 252.947 363.665 252.441 364.296 252.087L370.356 248.783C371.067 248.398 371.873 248.221 372.68 248.272C373.487 248.324 374.263 248.601 374.92 249.074L416.296 279.04" stroke="black" stroke-width="0.9473" stroke-miterlimit="10"/>
</g>
</svg>
