<svg width="65" height="55" viewBox="0 0 65 55" fill="none" xmlns="http://www.w3.org/2000/svg">
<path d="M64.9611 32.2473C65.423 25.3867 61.746 19.9962 56.0211 18.3406C52.6454 17.3605 49.1174 16.2795 46.9933 12.9269C45.0712 9.8923 43.77 6.35106 41.4605 3.62932C37.7702 -0.72149 31.3715 -0.791023 26.7127 1.47709C22.4861 3.52668 18.4664 7.86093 18.8289 13.3441C19.1104 17.6039 21.2146 21.0773 16.7976 23.5424C10.5495 27.0307 11.2001 22.3835 5.08283 28.774C-1.03446 35.1644 1.17902 43.0118 4.04149 48.8261C5.8626 52.5312 5.47189 53.8739 4.94377 54.3606C5.51825 54.2696 6.21689 54.1371 7.00328 53.9517C7.03805 53.0991 8.3029 51.321 8.74493 50.879C9.2863 50.336 7.27148 51.8856 6.80793 50.4138C6.34437 48.942 7.81451 47.159 8.04629 46.6937C8.27807 46.2285 7.3493 46.462 6.72184 45.8428C6.09438 45.2236 7.03143 44.3693 7.10924 43.6723C7.18705 42.9754 7.10924 43.131 6.17881 42.1227C5.24839 41.1145 6.8758 37.1643 7.03143 35.9972C7.18705 34.83 6.25663 36.6163 5.87254 35.532C5.48845 34.4476 7.57776 32.0453 7.57776 32.0453C7.57776 32.0453 7.11255 31.5801 7.57776 30.4957C8.04298 29.4114 9.12737 28.7905 9.51477 29.4097C9.90217 30.0289 9.12737 30.7341 9.12737 30.7341C9.12737 30.7341 10.1339 31.7407 10.2118 32.9046C10.2896 34.0684 10.1339 33.9112 10.677 34.3764C11.22 34.8416 13.2332 36.1578 13.2332 37.32C13.2332 38.4822 11.9931 37.5534 11.9931 37.7852C11.9931 38.0169 15.248 41.3496 15.1702 43.1326C15.0923 44.9157 13.6206 43.7518 13.6984 44.2915C13.7762 44.8312 16.6436 46.0729 16.8754 47.9338C17.1072 49.7946 15.0162 48.4768 14.9384 48.7864C14.8771 49.0314 16.7082 49.9618 17.4366 50.6423C17.6469 50.5408 17.8695 50.4674 18.0988 50.4237C19.2395 50.2085 19.7345 50.2582 19.7345 50.2582C19.7345 50.2582 20.1666 48.2847 22.8801 47.9983C25.5936 47.7119 35.5816 47.4288 35.5816 47.4288L41.6459 47.356C41.6459 47.356 46.7781 47.9983 47.9966 48.7119C49.2151 49.4254 49.4386 50.8707 50.8856 50.8442C51.3243 50.182 51.9103 49.4006 51.9103 49.4006C51.9103 49.4006 50.6703 50.2515 50.4386 49.6324C50.2068 49.0132 51.9882 46.7649 51.9882 46.7649C51.9882 46.7649 51.0577 46.9984 51.1355 46.0679C51.2134 45.1375 53.1504 43.6657 53.1504 43.6657C52.7207 43.4811 52.3468 43.1871 52.066 42.8131C51.6008 42.1939 52.2199 41.9605 52.763 41.4191C53.306 40.8778 53.3043 39.2487 53.3043 39.2487C53.3043 39.2487 52.6073 39.6361 52.6073 38.7073C52.6073 37.7786 55.0096 36.224 55.0096 35.9955C55.0096 35.767 54.003 36.2273 54.4665 35.2969C54.9301 34.3664 56.5575 33.5089 56.5575 33.5089C57.7164 32.7341 58.4945 33.7406 58.4945 34.7489C58.4945 35.7571 57.7975 34.8267 57.4879 35.0585C57.1783 35.2902 57.7975 37.3762 57.7975 37.3762C57.7975 37.3762 57.1783 37.2206 56.9449 37.2984C56.7115 37.3762 58.2694 40.2437 58.1849 41.4837C58.1005 42.7237 57.4879 41.6377 57.3323 41.8711C57.1767 42.1045 57.6419 43.1111 57.7975 44.1889C57.9531 45.2666 56.9449 45.2733 56.9449 45.2733C56.9449 45.2733 58.1849 49.4569 58.1849 49.8443C58.1849 50.2317 56.9449 49.3807 56.9449 49.3807C57.1506 50.1743 57.3164 50.9777 57.4416 51.7879C58.2694 51.8475 59.1236 52.0097 59.6451 53.1123C60.2792 54.4517 61.6765 54.4683 62.4679 54.6752C62.8983 54.2265 63.0556 53.3954 62.8834 51.8607C62.4927 48.3725 57.4201 43.722 60.0193 40.9622C62.6185 38.2024 64.5704 38.06 64.9611 32.2473Z" fill="#7A8590"/>
<path opacity="0.6" d="M64.9611 32.2473C65.423 25.3867 61.746 19.9962 56.0211 18.3406C52.6454 17.3605 49.1174 16.2795 46.9933 12.9269C45.0712 9.8923 43.77 6.35106 41.4605 3.62932C37.7702 -0.72149 31.3715 -0.791023 26.7127 1.47709C22.4861 3.52668 18.4664 7.86093 18.8289 13.3441C19.1104 17.6039 21.2146 21.0773 16.7976 23.5424C10.5495 27.0307 11.2001 22.3835 5.08283 28.774C-1.03446 35.1644 1.17902 43.0118 4.04149 48.8261C5.8626 52.5312 5.47189 53.8739 4.94377 54.3606C5.51825 54.2696 6.21689 54.1371 7.00328 53.9517C7.03805 53.0991 8.3029 51.321 8.74493 50.879C9.2863 50.336 7.27148 51.8856 6.80793 50.4138C6.34437 48.942 7.81451 47.159 8.04629 46.6937C8.27807 46.2285 7.3493 46.462 6.72184 45.8428C6.09438 45.2236 7.03143 44.3693 7.10924 43.6723C7.18705 42.9754 7.10924 43.131 6.17881 42.1227C5.24839 41.1145 6.8758 37.1643 7.03143 35.9972C7.18705 34.83 6.25663 36.6163 5.87254 35.532C5.48845 34.4476 7.57776 32.0453 7.57776 32.0453C7.57776 32.0453 7.11255 31.5801 7.57776 30.4957C8.04298 29.4114 9.12737 28.7905 9.51477 29.4097C9.90217 30.0289 9.12737 30.7341 9.12737 30.7341C9.12737 30.7341 10.1339 31.7407 10.2118 32.9046C10.2896 34.0684 10.1339 33.9112 10.677 34.3764C11.22 34.8416 13.2332 36.1578 13.2332 37.32C13.2332 38.4822 11.9931 37.5534 11.9931 37.7852C11.9931 38.0169 15.248 41.3496 15.1702 43.1326C15.0923 44.9157 13.6206 43.7518 13.6984 44.2915C13.7762 44.8312 16.6436 46.0729 16.8754 47.9338C17.1072 49.7946 15.0162 48.4768 14.9384 48.7864C14.8771 49.0314 16.7082 49.9618 17.4366 50.6423C17.6469 50.5408 17.8695 50.4674 18.0988 50.4237C19.2395 50.2085 19.7345 50.2582 19.7345 50.2582C19.7345 50.2582 20.1666 48.2847 22.8801 47.9983C25.5936 47.7119 35.5816 47.4288 35.5816 47.4288L41.6459 47.356C41.6459 47.356 46.7781 47.9983 47.9966 48.7119C49.2151 49.4254 49.4386 50.8707 50.8856 50.8442C51.3243 50.182 51.9103 49.4006 51.9103 49.4006C51.9103 49.4006 50.6703 50.2515 50.4386 49.6324C50.2068 49.0132 51.9882 46.7649 51.9882 46.7649C51.9882 46.7649 51.0577 46.9984 51.1355 46.0679C51.2134 45.1375 53.1504 43.6657 53.1504 43.6657C52.7207 43.4811 52.3468 43.1871 52.066 42.8131C51.6008 42.1939 52.2199 41.9605 52.763 41.4191C53.306 40.8778 53.3043 39.2487 53.3043 39.2487C53.3043 39.2487 52.6073 39.6361 52.6073 38.7073C52.6073 37.7786 55.0096 36.224 55.0096 35.9955C55.0096 35.767 54.003 36.2273 54.4665 35.2969C54.9301 34.3664 56.5575 33.5089 56.5575 33.5089C57.7164 32.7341 58.4945 33.7406 58.4945 34.7489C58.4945 35.7571 57.7975 34.8267 57.4879 35.0585C57.1783 35.2902 57.7975 37.3762 57.7975 37.3762C57.7975 37.3762 57.1783 37.2206 56.9449 37.2984C56.7115 37.3762 58.2694 40.2437 58.1849 41.4837C58.1005 42.7237 57.4879 41.6377 57.3323 41.8711C57.1767 42.1045 57.6419 43.1111 57.7975 44.1889C57.9531 45.2666 56.9449 45.2733 56.9449 45.2733C56.9449 45.2733 58.1849 49.4569 58.1849 49.8443C58.1849 50.2317 56.9449 49.3807 56.9449 49.3807C57.1506 50.1743 57.3164 50.9777 57.4416 51.7879C58.2694 51.8475 59.1236 52.0097 59.6451 53.1123C60.2792 54.4517 61.6765 54.4683 62.4679 54.6752C62.8983 54.2265 63.0556 53.3954 62.8834 51.8607C62.4927 48.3725 57.4201 43.722 60.0193 40.9622C62.6185 38.2024 64.5704 38.06 64.9611 32.2473Z" fill="white"/>
<path d="M41.56 51.3574C41.56 51.3574 33.4478 50.7432 35.2937 52.0958C37.1397 53.4484 41.9292 51.2349 41.8067 52.2183C41.6842 53.2017 39.7174 52.955 41.6842 53.2C43.651 53.4451 45.8612 52.955 46.5979 53.3242C47.3346 53.6934 47.8363 54.5477 48.7501 54.3656C49.664 54.1834 51.0182 53.9384 52.4933 54.0609C53.9684 54.1834 55.0727 54.0609 53.2301 53.0775C51.3874 52.0941 49.6673 52.5809 48.3164 51.8508C47.3363 51.316 46.7817 49.7184 45.636 49.4353C44.0566 49.0429 43.2735 51.3574 41.56 51.3574Z" fill="#7A8590"/>
<path opacity="0.6" d="M41.56 51.3574C41.56 51.3574 33.4478 50.7432 35.2937 52.0958C37.1397 53.4484 41.9292 51.2349 41.8067 52.2183C41.6842 53.2017 39.7174 52.955 41.6842 53.2C43.651 53.4451 45.8612 52.955 46.5979 53.3242C47.3346 53.6934 47.8363 54.5477 48.7501 54.3656C49.664 54.1834 51.0182 53.9384 52.4933 54.0609C53.9684 54.1834 55.0727 54.0609 53.2301 53.0775C51.3874 52.0941 49.6673 52.5809 48.3164 51.8508C47.3363 51.316 46.7817 49.7184 45.636 49.4353C44.0566 49.0429 43.2735 51.3574 41.56 51.3574Z" fill="white"/>
<path d="M13.5442 51.6306C12.935 51.7581 12.1304 51.9369 12.1304 51.9369" stroke="#263238" stroke-linecap="round" stroke-linejoin="round"/>
<path d="M21.9561 48.0298C21.778 48.0666 21.6043 48.1221 21.4379 48.1953C19.8651 48.9205 19.7442 50.2515 19.7442 50.2515C19.095 50.2545 18.4483 50.3328 17.8172 50.485C16.9712 50.7267 16.7294 51.0893 16.2444 51.331C15.8487 51.5296 14.8852 51.4849 14.2163 51.528" stroke="#263238" stroke-linecap="round" stroke-linejoin="round"/>
<path d="M57.4033 51.8077C57.6599 51.816 57.9 51.816 58.0953 51.816C58.2361 51.816 58.3749 51.8487 58.5008 51.9116C58.6266 51.9746 58.7361 52.066 58.8205 52.1786" stroke="#263238" stroke-linecap="round" stroke-linejoin="round"/>
<path d="M49.541 50.4734C49.6442 50.5874 49.7695 50.6793 49.9092 50.7436C50.0489 50.8079 50.2002 50.8433 50.3539 50.8475C51.5641 50.9684 52.8935 49.5231 54.2246 50.3641C55.5557 51.2051 55.7974 51.5743 56.2808 51.6885C56.357 51.7068 56.4464 51.7233 56.5324 51.7366" stroke="#263238" stroke-linecap="round" stroke-linejoin="round"/>
<path d="M45.4653 48.2632C46.4164 48.1777 47.3694 48.4056 48.1788 48.9122C48.5753 49.1592 48.9086 49.4954 49.1523 49.8939" stroke="#263238" stroke-linecap="round" stroke-linejoin="round"/>
<path d="M38.7419 49.2747C41.1606 49.7598 42.1291 50.9684 42.1291 50.9684C42.1945 50.9308 42.2625 50.8981 42.3328 50.8707C46.614 48.2384 49.4517 43.6624 49.4517 38.454C49.4517 30.2888 42.4867 23.6715 33.8894 23.6715C25.2921 23.6715 18.3271 30.2937 18.3271 38.454C18.3271 44.7816 22.5124 50.1787 28.3946 52.2879L28.7754 52.3044C29.451 52.1068 30.0799 51.7752 30.6246 51.3293C33.0567 49.3956 36.3231 48.7913 38.7419 49.2747Z" fill="white"/>
<mask id="mask0_1616_1394" style="mask-type:luminance" maskUnits="userSpaceOnUse" x="18" y="23" width="32" height="30">
<path d="M38.7419 49.2747C41.1606 49.7598 42.1291 50.9684 42.1291 50.9684C42.1945 50.9308 42.2625 50.8981 42.3328 50.8707C46.614 48.2384 49.4517 43.6624 49.4517 38.454C49.4517 30.2888 42.4867 23.6715 33.8894 23.6715C25.2921 23.6715 18.3271 30.2937 18.3271 38.454C18.3271 44.7816 22.5124 50.1787 28.3946 52.2879L28.7754 52.3044C29.451 52.1068 30.0799 51.7752 30.6246 51.3293C33.0567 49.3956 36.3231 48.7913 38.7419 49.2747Z" fill="white"/>
</mask>
<g mask="url(#mask0_1616_1394)">
<g style="mix-blend-mode:multiply" opacity="0.5">
<path d="M33.9803 23.6749L28.7686 26.2096C28.7686 26.2096 30.348 27.9165 33.4521 28.2277C36.5563 28.539 37.2798 27.6069 37.2798 27.6069C37.2798 27.6069 38.6241 31.0206 41.9352 32.158C45.2463 33.2954 46.8357 33.1033 48.1419 35.7787C49.4482 38.4541 47.935 40.3315 47.935 40.3315C47.935 40.3315 48.5558 41.1593 48.1419 41.8828C47.728 42.6063 47.935 43.0201 47.0045 43.0201C46.0741 43.0201 45.0377 42.5036 45.0377 42.5036C45.3642 42.9416 45.7897 43.2962 46.2794 43.5383C46.7748 43.7322 47.3005 43.837 47.8323 43.8479C47.8323 43.8479 47.4184 45.0896 45.4516 46.7451C43.4848 48.4007 42.3491 48.8129 40.177 48.8129C38.0049 48.8129 36.0381 47.5729 32.9356 49.4338C31.0963 50.538 29.9837 51.495 29.3828 52.0926C29.8333 51.8962 30.2554 51.64 30.6377 51.3311C33.0565 49.3957 36.3229 48.7914 38.7417 49.2748C41.1604 49.7583 42.1289 50.9685 42.1289 50.9685C42.1943 50.9309 42.2623 50.8982 42.3326 50.8708C46.6138 48.2385 49.4515 43.6625 49.4515 38.4541C49.4498 30.3154 42.5312 23.7196 33.9803 23.6749Z" fill="#7A8590"/>
</g>
</g>
<path d="M38.7419 49.2747C41.1606 49.7598 42.1291 50.9684 42.1291 50.9684C42.1945 50.9308 42.2625 50.8981 42.3328 50.8707C46.614 48.2384 49.4517 43.6624 49.4517 38.454C49.4517 30.2888 42.4867 23.6715 33.8894 23.6715C25.2921 23.6715 18.3271 30.2937 18.3271 38.454C18.3271 44.7816 22.5124 50.1787 28.3946 52.2879L28.7754 52.3044C29.451 52.1068 30.0799 51.7752 30.6246 51.3293C33.0567 49.3956 36.3231 48.7913 38.7419 49.2747Z" stroke="#263238" stroke-linecap="round" stroke-linejoin="round"/>
<path d="M39.7221 33.5055C40.6766 33.5055 41.4505 32.7784 41.4505 31.8814C41.4505 30.9845 40.6766 30.2573 39.7221 30.2573C38.7675 30.2573 37.9937 30.9845 37.9937 31.8814C37.9937 32.7784 38.7675 33.5055 39.7221 33.5055Z" fill="#263238" stroke="#263238" stroke-linecap="round" stroke-linejoin="round"/>
<path d="M41.0844 41.3645C42.0389 41.3645 42.8128 40.6374 42.8128 39.7404C42.8128 38.8435 42.0389 38.1163 41.0844 38.1163C40.1298 38.1163 39.356 38.8435 39.356 39.7404C39.356 40.6374 40.1298 41.3645 41.0844 41.3645Z" fill="#263238" stroke="#263238" stroke-linecap="round" stroke-linejoin="round"/>
<path d="M20.6033 34.2572C20.5156 35.3473 20.8585 36.4285 21.5586 37.2687" stroke="#263238" stroke-linecap="round" stroke-linejoin="round"/>
<path d="M22.0737 37.7819C22.0737 37.7819 22.587 38.3696 23.1747 38.5169" stroke="#263238" stroke-linecap="round" stroke-linejoin="round"/>
<path d="M20.751 38.8845C20.751 38.8845 21.3387 40.4275 23.3221 41.1626" stroke="#263238" stroke-linecap="round" stroke-linejoin="round"/>
<path d="M20.3833 36.6064C20.3833 36.6064 20.971 38.2951 22.2938 39.103" stroke="#263238" stroke-linecap="round" stroke-linejoin="round"/>
<path d="M21.4111 41.088C21.969 41.5446 22.6217 41.8709 23.3216 42.0433" stroke="#263238" stroke-linecap="round" stroke-linejoin="round"/>
<path d="M22.6616 45.2021C22.6616 45.2021 23.4695 46.3776 26.2608 46.8925" stroke="#263238" stroke-linecap="round" stroke-linejoin="round"/>
<path d="M25.2324 47.3328C25.6875 47.5655 26.1898 47.6912 26.7009 47.7003" stroke="#263238" stroke-linecap="round" stroke-linejoin="round"/>
<path d="M42.6045 29.0007L51.5114 19.1502C51.5114 19.1502 51.9419 13.9683 52.571 13.9683C53.2001 13.9683 53.3987 14.1206 53.2928 14.9616C53.1868 15.8026 52.5196 18.3952 52.5196 18.3952C52.5196 18.3952 54.2348 16.7397 55.1785 15.3838C56.1221 14.0279 56.9599 11.9253 57.7976 11.9253C58.6353 11.9253 58.5326 12.7647 57.9035 13.7067C57.2744 14.6487 50.9866 21.1468 51.4054 21.357C51.8243 21.5673 56.1221 18.2115 56.2264 19.0508C56.3307 19.8902 49.2052 23.7609 47.8427 25.0175C46.4802 26.274 43.1276 30.1497 43.1276 30.1497L42.6045 29.0007Z" fill="#7A8590" stroke="#263238" stroke-linecap="round" stroke-linejoin="round"/>
<path opacity="0.5" d="M42.6045 29.0007L51.5114 19.1502C51.5114 19.1502 51.9419 13.9683 52.571 13.9683C53.2001 13.9683 53.3987 14.1206 53.2928 14.9616C53.1868 15.8026 52.5196 18.3952 52.5196 18.3952C52.5196 18.3952 54.2348 16.7397 55.1785 15.3838C56.1221 14.0279 56.9599 11.9253 57.7976 11.9253C58.6353 11.9253 58.5326 12.7647 57.9035 13.7067C57.2744 14.6487 50.9866 21.1468 51.4054 21.357C51.8243 21.5673 56.1221 18.2115 56.2264 19.0508C56.3307 19.8902 49.2052 23.7609 47.8427 25.0175C46.4802 26.274 43.1276 30.1497 43.1276 30.1497L42.6045 29.0007Z" fill="black"/>
<path d="M58.3268 12.427L57.4014 13.6091" stroke="#263238" stroke-linecap="round" stroke-linejoin="round"/>
<path d="M57.0937 13.8657L56.6318 14.4832" stroke="#263238" stroke-linecap="round" stroke-linejoin="round"/>
<path d="M50.3091 22.1417L49.4863 22.9645" stroke="#263238" stroke-linecap="round" stroke-linejoin="round"/>
<path d="M16.3853 25.0721L19.0573 26.8188" stroke="#263238" stroke-linecap="round" stroke-linejoin="round"/>
<path d="M19.4165 27.024L20.2393 27.5902" stroke="#263238" stroke-linecap="round" stroke-linejoin="round"/>
<path d="M24.4757 29.0007L18.3965 25.2277C15.3585 23.342 13.2642 21.8735 13.2642 21.8735L12.4265 15.796C12.1167 15.7269 11.8003 15.692 11.4829 15.6917C10.958 15.6917 10.8537 16.4251 10.8537 16.4251C10.8537 16.4251 10.6451 16.3208 11.2726 17.6833C11.9001 19.0458 12.0044 21.0441 12.0044 21.0441C12.0044 21.0441 9.70479 18.8356 8.12704 17.6833C6.54929 16.531 6.34566 15.796 5.50795 15.6966C4.67023 15.5973 4.56428 17.0591 4.98479 17.478C5.4053 17.8969 13.0523 23.241 13.5771 23.5556C14.102 23.8701 10.5375 22.9264 9.80412 22.7178C9.07071 22.5092 8.64523 22.6135 8.96641 23.241C9.28759 23.8685 15.1483 24.8138 15.1483 24.8138L23.3218 30.1497C23.3218 30.1497 24.2737 30.6761 24.4757 29.0007Z" fill="#7A8590" stroke="#263238" stroke-linecap="round" stroke-linejoin="round"/>
<path opacity="0.5" d="M24.4757 29.0007L18.3965 25.2277C15.3585 23.342 13.2642 21.8735 13.2642 21.8735L12.4265 15.796C12.1167 15.7269 11.8003 15.692 11.4829 15.6917C10.958 15.6917 10.8537 16.4251 10.8537 16.4251C10.8537 16.4251 10.6451 16.3208 11.2726 17.6833C11.9001 19.0458 12.0044 21.0441 12.0044 21.0441C12.0044 21.0441 9.70479 18.8356 8.12704 17.6833C6.54929 16.531 6.34566 15.796 5.50795 15.6966C4.67023 15.5973 4.56428 17.0591 4.98479 17.478C5.4053 17.8969 13.0523 23.241 13.5771 23.5556C14.102 23.8701 10.5375 22.9264 9.80412 22.7178C9.07071 22.5092 8.64523 22.6135 8.96641 23.241C9.28759 23.8685 15.1483 24.8138 15.1483 24.8138L23.3218 30.1497C23.3218 30.1497 24.2737 30.6761 24.4757 29.0007Z" fill="black"/>
<path d="M5.508 15.6917C5.508 15.6917 5.83911 15.7165 5.83911 16.488C5.83911 17.2595 5.60402 17.7909 4.97656 17.4813" stroke="#263238" stroke-linecap="round" stroke-linejoin="round"/>
<path d="M5.89893 17.6702L7.02967 18.5956" stroke="#263238" stroke-linecap="round" stroke-linejoin="round"/>
<path d="M5.7959 16.8473L6.51441 17.4648" stroke="#263238" stroke-linecap="round" stroke-linejoin="round"/>
<path d="M25.5106 14.1057C25.5106 14.1057 25.3252 12.2266 24.2292 10.9105C23.5937 10.1356 22.8146 9.49084 21.9346 9.01153C21.9346 9.01153 23.2243 4.49019 28.8184 2.91741C33.0715 1.7221 34.7784 2.43068 34.7784 2.43068C34.7784 2.43068 34.5301 6.80797 36.2883 9.46515C36.2866 9.46515 32.2669 9.1241 25.5106 14.1057Z" fill="#263238" stroke="#263238" stroke-linecap="round" stroke-linejoin="round"/>
<path d="M23.5039 9.70023C23.9509 8.74235 24.6277 7.90976 25.474 7.27649" stroke="white" stroke-linecap="round" stroke-linejoin="round"/>
<path d="M25.9292 6.9719C25.9292 6.9719 26.6096 6.59278 27.1411 6.36597" stroke="white" stroke-linecap="round" stroke-linejoin="round"/>
<path d="M24.4893 10.23C24.4893 10.23 25.3982 8.71517 26.61 8.03308" stroke="white" stroke-linecap="round" stroke-linejoin="round"/>
<path d="M34.5648 5.98851C33.7233 5.76609 32.8419 5.74004 31.9888 5.91236" stroke="white" stroke-linecap="round" stroke-linejoin="round"/>
<path d="M30.3432 7.30301C27.8119 8.0745 25.8318 9.71019 24.7441 11.6753C25.1424 12.4328 25.402 13.2553 25.5107 14.104C32.267 9.12247 36.2867 9.46848 36.2867 9.46848C35.817 8.72508 35.4694 7.91129 35.2569 7.05799C33.6243 6.72734 31.9349 6.81158 30.3432 7.30301Z" fill="#7A8590" stroke="#263238" stroke-linecap="round" stroke-linejoin="round"/>
<path d="M34.2755 18.6667C39.626 16.3447 43.0964 12.4647 42.0269 10.0004C40.9575 7.53612 35.7531 7.42079 30.4027 9.74279C25.0522 12.0648 21.5818 15.9448 22.6513 18.4091C23.7207 20.8734 28.9251 20.9887 34.2755 18.6667Z" fill="#263238" stroke="#263238" stroke-linecap="round" stroke-linejoin="round"/>
<path d="M34.4274 19.1964C39.7778 16.8744 43.2482 12.9943 42.1788 10.5301C41.1093 8.06579 35.905 7.95045 30.5545 10.2725C25.2041 12.5945 21.7337 16.4745 22.8031 18.9388C23.8726 21.403 29.0769 21.5184 34.4274 19.1964Z" fill="#263238" stroke="#263238" stroke-linecap="round" stroke-linejoin="round"/>
<path d="M23.8604 15.0427C25.2196 13.311 27.6003 11.5544 30.5554 10.2714C34.7705 8.44199 38.8945 8.11916 40.9772 9.27805" stroke="white" stroke-linecap="round" stroke-linejoin="round"/>
<path d="M22.7842 16.9366C22.9458 16.468 23.1685 16.0227 23.4464 15.6122" stroke="white" stroke-linecap="round" stroke-linejoin="round"/>
<path d="M28.1313 22.2395C27.9922 22.3498 27.8852 22.4953 27.8215 22.661C27.7577 22.8267 27.7395 23.0064 27.7688 23.1815C27.8416 23.8321 28.1313 23.905 27.9145 24.4132C27.6976 24.9215 27.4062 25.2095 27.9856 25.6433C28.5651 26.0771 29.9425 27.3104 32.9854 27.3104C36.0284 27.3104 37.8395 26.731 39.0713 25.7161C40.303 24.7013 39.7236 24.3404 39.7236 23.6881C39.7236 23.0358 40.303 22.6732 39.5779 21.8769C38.8527 21.0806 37.477 24.1897 28.1313 22.2395Z" fill="#7A8590" stroke="#263238" stroke-linecap="round" stroke-linejoin="round"/>
<path opacity="0.3" d="M28.1313 22.2395C27.9922 22.3498 27.8852 22.4953 27.8215 22.661C27.7577 22.8267 27.7395 23.0064 27.7688 23.1815C27.8416 23.8321 28.1313 23.905 27.9145 24.4132C27.6976 24.9215 27.4062 25.2095 27.9856 25.6433C28.5651 26.0771 29.9425 27.3104 32.9854 27.3104C36.0284 27.3104 37.8395 26.731 39.0713 25.7161C40.303 24.7013 39.7236 24.3404 39.7236 23.6881C39.7236 23.0358 40.303 22.6732 39.5779 21.8769C38.8527 21.0806 37.477 24.1897 28.1313 22.2395Z" fill="black"/>
<path d="M36.9487 26.8221C37.7223 26.5974 38.4437 26.2215 39.0711 25.7162C39.1075 25.6864 39.1423 25.6583 39.1754 25.6285C39.0446 24.6964 38.7466 23.5441 38.2433 22.665C38.1456 22.4995 38.0579 22.3422 37.9735 22.2064C36.8146 22.6402 34.8279 23.1633 31.1344 22.7362L29.7569 23.1269C29.7569 23.1269 28.9854 23.8222 28.9854 24.4398V25.2874L28.7686 26.2096C29.3668 26.5865 30.0212 26.8659 30.7072 27.0373L30.7602 25.8255C30.7602 25.8255 30.7602 24.3603 31.3761 24.1285C31.9919 23.8967 33.2286 24.4381 33.2286 24.4381L33.1061 27.3072C33.9305 27.3094 34.7539 27.2507 35.5696 27.1317C35.6474 26.4364 35.7053 25.347 35.4669 24.4381L35.0812 22.9713L36.7003 22.7395C36.7003 22.7395 37.1639 24.1285 37.0861 25.3636C37.0497 25.9563 36.995 26.4579 36.9487 26.8221Z" fill="#263238" stroke="#263238" stroke-linecap="round" stroke-linejoin="round"/>
<path d="M40.3027 25.4992C40.3027 25.4992 42.4765 27.6001 45.8091 25.7161C49.1418 23.8321 49.6484 22.6004 51.4596 22.3835C52.59 22.2533 53.7301 22.2289 54.865 22.3106L54.5025 25.7873C54.5025 25.7873 53.3436 25.2079 49.8669 26.4396C46.3902 27.6713 44.6519 28.5405 42.4781 27.8882C40.3044 27.2359 40.3027 25.4992 40.3027 25.4992Z" fill="#7A8590" stroke="#263238" stroke-linecap="round" stroke-linejoin="round"/>
<path opacity="0.4" d="M40.3027 25.4992C40.3027 25.4992 42.4765 27.6001 45.8091 25.7161C49.1418 23.8321 49.6484 22.6004 51.4596 22.3835C52.59 22.2533 53.7301 22.2289 54.865 22.3106L54.5025 25.7873C54.5025 25.7873 53.3436 25.2079 49.8669 26.4396C46.3902 27.6713 44.6519 28.5405 42.4781 27.8882C40.3044 27.2359 40.3027 25.4992 40.3027 25.4992Z" fill="black"/>
<path d="M52.4037 22.2991L51.7563 25.8851C53.7794 25.4281 54.5046 25.789 54.5046 25.789L54.8671 22.3124C54.0472 22.2525 53.2242 22.2481 52.4037 22.2991Z" fill="#263238" stroke="#263238" stroke-linecap="round" stroke-linejoin="round"/>
<path d="M45.7632 27.8501C46.6572 27.615 47.6571 27.2409 48.8856 26.7939L49.8177 22.9977C49.0263 23.5043 48.1737 24.2907 46.5297 25.2939L45.7632 27.8501Z" fill="#263238" stroke="#263238" stroke-linecap="round" stroke-linejoin="round"/>
<path d="M35.0137 24.6301C35.0137 24.6301 36.8977 24.1897 37.4771 25.3486C38.0566 26.5075 38.8546 28.4644 41.8975 29.9842C44.9404 31.504 48.5628 30.7093 51.1686 30.2011C53.7745 29.6928 55.4433 30.2011 55.4433 30.2011L55.8059 25.8552C55.8059 25.8552 53.3424 24.044 50.662 25.1301C47.9817 26.2161 44.4305 27.3767 42.2567 26.4347C40.083 25.4927 39.7221 22.958 38.4175 23.0292C38.4192 23.0308 35.3762 24.1218 35.0137 24.6301Z" fill="#7A8590" stroke="#263238" stroke-linecap="round" stroke-linejoin="round"/>
<path opacity="0.3" d="M35.0137 24.6301C35.0137 24.6301 36.8977 24.1897 37.4771 25.3486C38.0566 26.5075 38.8546 28.4644 41.8975 29.9842C44.9404 31.504 48.5628 30.7093 51.1686 30.2011C53.7745 29.6928 55.4433 30.2011 55.4433 30.2011L55.8059 25.8552C55.8059 25.8552 53.3424 24.044 50.662 25.1301C47.9817 26.2161 44.4305 27.3767 42.2567 26.4347C40.083 25.4927 39.7221 22.958 38.4175 23.0292C38.4192 23.0308 35.3762 24.1218 35.0137 24.6301Z" fill="black"/>
<path d="M39.5496 23.7245L37.0845 24.8933C37.2511 25.0122 37.3858 25.1703 37.4768 25.3536C37.6639 25.7294 37.8742 26.1813 38.1755 26.6863L40.6125 25.1532C40.1936 24.6516 39.8691 24.1268 39.5496 23.7245Z" fill="#263238" stroke="#263238" stroke-linecap="round" stroke-linejoin="round"/>
<path d="M43.6158 30.6084L45.3591 26.7046C44.5652 26.8313 43.7555 26.8206 42.9652 26.6731L40.8643 29.4164C41.1985 29.6281 41.5433 29.8226 41.8973 29.9991C42.4448 30.2677 43.0214 30.4722 43.6158 30.6084Z" fill="#263238" stroke="#263238" stroke-linecap="round" stroke-linejoin="round"/>
<path d="M52.0011 30.0768L52.5838 24.7923C51.9267 24.772 51.2725 24.8893 50.6634 25.1366C50.3107 25.279 49.9432 25.4231 49.5657 25.5638L48.7578 30.6463C49.6187 30.5156 50.4349 30.35 51.17 30.206C51.4597 30.1497 51.7362 30.1099 52.0011 30.0768Z" fill="#263238" stroke="#263238" stroke-linecap="round" stroke-linejoin="round"/>
<path d="M40.8081 17.5095C40.8076 19.4605 40.0323 21.3315 38.6526 22.7109C37.2729 24.0903 35.4018 24.8652 33.4508 24.8652C29.3897 24.8652 26.3037 22.3719 26.3037 18.3092C26.3037 14.2464 30.2622 11.374 34.3249 11.374C38.3876 11.374 40.8081 13.4468 40.8081 17.5095Z" fill="white"/>
<mask id="mask1_1616_1394" style="mask-type:luminance" maskUnits="userSpaceOnUse" x="26" y="11" width="15" height="14">
<path d="M40.8081 17.5095C40.8076 19.4605 40.0323 21.3315 38.6526 22.7109C37.2729 24.0903 35.4018 24.8652 33.4508 24.8652C29.3897 24.8652 26.3037 22.3719 26.3037 18.3092C26.3037 14.2464 30.2622 11.374 34.3249 11.374C38.3876 11.374 40.8081 13.4468 40.8081 17.5095Z" fill="white"/>
</mask>
<g mask="url(#mask1_1616_1394)">
<g style="mix-blend-mode:multiply" opacity="0.5">
<path d="M34.3249 11.374C30.2622 11.374 26.3037 14.2464 26.3037 18.3092C26.3049 18.8213 26.3604 19.3318 26.4693 19.8323C27.35 18.6022 29.4162 16.4947 33.6676 15.503C36.0026 14.977 38.44 15.1403 40.6839 15.9732C40.1227 12.9319 37.8397 11.374 34.3249 11.374Z" fill="#7A8590"/>
</g>
<g style="mix-blend-mode:multiply" opacity="0.5">
<path d="M39.9736 20.9101C40.5202 19.8601 40.8042 18.6933 40.8014 17.5096C40.8014 16.1851 40.5431 15.0792 40.058 14.1819C40.0714 15.6308 39.935 17.0771 39.6508 18.4979C39.4144 17.9481 39.0705 17.451 38.6392 17.0361C37.876 16.3126 36.3479 16.2729 36.0665 17.2016C36.0665 17.2016 36.2668 18.4483 36.9919 18.8092C37.5134 19.0449 38.0698 19.1942 38.6392 19.2512C38.748 19.4904 38.8982 19.7084 39.0829 19.8952C39.1375 19.9416 39.1806 19.9763 39.2187 20.0061C38.2982 22.506 36.6823 23.5971 34.6973 24.145C32.7405 24.6881 30.6379 24.2328 29.2671 23.7808C30.5349 24.5153 31.9791 24.8897 33.4441 24.8636C34.789 24.8636 36.1082 24.495 37.2583 23.7976C38.4084 23.1003 39.3452 22.101 39.967 20.9084L39.9736 20.9101Z" fill="#7A8590"/>
</g>
</g>
<path d="M40.8081 17.5095C40.8076 19.4605 40.0323 21.3315 38.6526 22.7109C37.2729 24.0903 35.4018 24.8652 33.4508 24.8652C29.3897 24.8652 26.3037 22.3719 26.3037 18.3092C26.3037 14.2464 30.2622 11.374 34.3249 11.374C38.3876 11.374 40.8081 13.4468 40.8081 17.5095Z" stroke="#263238" stroke-linecap="round" stroke-linejoin="round"/>
<path d="M35.4703 14.5874C35.6226 14.9831 35.5961 15.3622 35.414 15.4318C35.2319 15.5013 34.9571 15.2397 34.8047 14.8424C34.6524 14.4451 34.6789 14.0676 34.861 13.9981C35.0431 13.9285 35.3163 14.1884 35.4703 14.5874Z" fill="#263238"/>
<path d="M37.7485 14.1719C37.9008 14.5676 37.8759 14.9451 37.6922 15.0163C37.5084 15.0875 37.2369 14.8226 37.0846 14.4269C36.9323 14.0312 36.9571 13.6521 37.1409 13.5809C37.3246 13.5097 37.5961 13.7746 37.7485 14.1719Z" fill="#263238"/>
<path d="M34.4921 20.3985C34.4921 20.3985 31.5667 20.2329 32.1528 17.4747" stroke="#263238" stroke-linecap="round" stroke-linejoin="round"/>
<path d="M32.9888 17.3903L31.4839 17.5575" stroke="#263238" stroke-linecap="round" stroke-linejoin="round"/>
<path d="M27.0684 17.3606C27.0684 17.3606 27.0684 17.8755 27.8034 18.243" stroke="#263238" stroke-linecap="round" stroke-linejoin="round"/>
<path d="M27.2886 18.536C27.2886 18.536 27.8763 19.0509 28.3912 19.0509" stroke="#263238" stroke-linecap="round" stroke-linejoin="round"/>
<path d="M33.8462 13.4716C33.8788 13.2279 34.0024 13.0056 34.1922 12.8493C34.382 12.6929 34.6239 12.6142 34.8693 12.6289" stroke="#263238" stroke-linecap="round" stroke-linejoin="round"/>
<path d="M36.7036 12.629C36.7036 12.629 37.4238 12.2681 37.7847 13.0197" stroke="#263238" stroke-linecap="round" stroke-linejoin="round"/>
<path d="M36.8377 15.2645C36.467 15.5236 36.1914 15.8969 36.053 16.3274C35.8708 16.9979 36.1821 17.9995 36.9718 18.1022C37.515 18.1464 38.0609 18.0607 38.5644 17.8522C39.1438 17.9483 39.7368 17.9235 40.3061 17.7793C41.2514 17.5409 41.1918 17.0294 41.1918 17.0294C41.1918 17.0294 41.4633 17.1271 42.4004 16.8241C43.3374 16.5211 43.4483 15.7943 43.4483 15.7943C43.4483 15.7943 43.647 15.8357 44.392 15.5543C45.137 15.2728 45.8423 15.1917 45.8605 14.801C45.8787 14.4103 43.6122 14.4136 43.1073 14.5378C42.6024 14.6619 42.1404 14.5841 41.4997 14.6586C41.1284 14.6984 40.7676 14.8062 40.4352 14.9765C40.4352 14.9765 39.6306 14.7464 39.1191 14.8109C38.8387 14.8409 38.5616 14.8964 38.2913 14.9765C38.2913 14.9765 37.1622 14.7083 36.8377 15.2645Z" fill="#7A8590" stroke="#263238" stroke-linecap="round" stroke-linejoin="round"/>
<path d="M38.2945 14.965C38.1702 15.0535 38.0707 15.1724 38.0055 15.3104C37.9403 15.4484 37.9116 15.6008 37.922 15.753" stroke="#263238" stroke-linecap="round" stroke-linejoin="round"/>
<path d="M37.9226 16.147C37.9043 16.3383 37.9554 16.5299 38.0666 16.6867" stroke="#263238" stroke-linecap="round" stroke-linejoin="round"/>
<path d="M40.5795 15.7463C40.5238 15.997 40.5539 16.259 40.665 16.4905C40.7761 16.722 40.9617 16.9094 41.1921 17.0228" stroke="#263238" stroke-linecap="round" stroke-linejoin="round"/>
<path d="M43.1656 14.8193C43.1656 14.8193 43.058 14.9617 43.202 15.316" stroke="#263238" stroke-linecap="round" stroke-linejoin="round"/>
<path d="M13.15 40.7222C13.059 40.9507 12.6418 40.9987 12.2163 40.8298C11.7908 40.6609 11.5193 40.3331 11.6104 40.1096C11.7014 39.8861 12.1203 39.8332 12.5458 40.002C12.9712 40.1709 13.2411 40.4937 13.15 40.7222Z" fill="white" stroke="#263238" stroke-linecap="round" stroke-linejoin="round"/>
<path d="M9.76925 27.486C9.6782 27.7145 9.25934 27.7625 8.83386 27.5936C8.40838 27.4247 8.13852 27.0969 8.22958 26.8734C8.32064 26.6499 8.73949 26.597 9.16332 26.7658C9.58714 26.9347 9.86031 27.2559 9.76925 27.486Z" fill="white" stroke="#263238" stroke-linecap="round" stroke-linejoin="round"/>
<path d="M19.0689 13.5941C18.9778 13.8226 18.5606 13.8706 18.1351 13.7018C17.7096 13.5329 17.4398 13.2051 17.5308 12.9816C17.6219 12.7581 18.0391 12.7051 18.4646 12.874C18.8901 13.0428 19.1599 13.3706 19.0689 13.5941Z" fill="white" stroke="#263238" stroke-linecap="round" stroke-linejoin="round"/>
<path d="M52.1985 34.6712C52.1074 34.8996 51.6885 34.9476 51.2631 34.7788C50.8376 34.6099 50.5677 34.2821 50.6588 34.0586C50.7498 33.8351 51.1687 33.7821 51.5925 33.951C52.0163 34.1199 52.2895 34.441 52.1985 34.6712Z" fill="white" stroke="#263238" stroke-linecap="round" stroke-linejoin="round"/>
<path d="M57.7478 8.7698C57.6567 8.99827 57.2379 9.04628 56.8124 8.87741C56.3869 8.70855 56.117 8.38075 56.2081 8.15725C56.2992 7.93375 56.7163 7.88077 57.1418 8.04963C57.5673 8.2185 57.8372 8.54134 57.7478 8.7698Z" fill="white" stroke="#263238" stroke-linecap="round" stroke-linejoin="round"/>
<path d="M29.3877 21.6253C29.2967 21.8537 28.8795 21.9018 28.454 21.7329C28.0285 21.564 27.7586 21.2362 27.8497 21.0127C27.9408 20.7892 28.358 20.7362 28.7834 20.9051C29.2089 21.074 29.4788 21.3968 29.3877 21.6253Z" fill="white" stroke="#263238" stroke-linecap="round" stroke-linejoin="round"/>
<path d="M58.5621 48.2516C58.4711 48.4801 58.0539 48.5281 57.6284 48.3592C57.2029 48.1904 56.9331 47.8626 57.0225 47.6391C57.1119 47.4156 57.5324 47.3626 57.9579 47.5314C58.3833 47.7003 58.6532 48.0298 58.5621 48.2516Z" fill="white" stroke="#263238" stroke-linecap="round" stroke-linejoin="round"/>
<path d="M44.5481 53.8557C45.1114 53.8557 45.568 53.428 45.568 52.9005C45.568 52.3729 45.1114 51.9452 44.5481 51.9452C43.9849 51.9452 43.5283 52.3729 43.5283 52.9005C43.5283 53.428 43.9849 53.8557 44.5481 53.8557Z" fill="white" stroke="#263238" stroke-linecap="round" stroke-linejoin="round"/>
<path d="M49.3905 53.7299C49.3905 53.856 49.3531 53.9792 49.2831 54.084C49.213 54.1889 49.1135 54.2706 48.997 54.3188C48.8806 54.367 48.7524 54.3797 48.6288 54.3551C48.5051 54.3305 48.3915 54.2698 48.3024 54.1806C48.2133 54.0915 48.1526 53.9779 48.128 53.8543C48.1034 53.7306 48.116 53.6025 48.1642 53.486C48.2125 53.3695 48.2942 53.27 48.399 53.2C48.5038 53.1299 48.627 53.0925 48.7531 53.0925C48.9222 53.0925 49.0843 53.1597 49.2038 53.2792C49.3234 53.3988 49.3905 53.5609 49.3905 53.7299Z" fill="white" stroke="#263238" stroke-linecap="round" stroke-linejoin="round"/>
<path d="M8.65724 11.5131C8.56784 11.7432 8.14899 11.7913 7.72351 11.6224C7.29803 11.4535 7.02817 11.1257 7.11923 10.9022C7.21028 10.6787 7.62748 10.6241 8.05296 10.793C8.47844 10.9618 8.7483 11.2847 8.65724 11.5131Z" fill="white" stroke="#263238" stroke-linecap="round" stroke-linejoin="round"/>
<path d="M46.4898 7.09606C46.4253 7.26162 46.1256 7.29473 45.8276 7.17387C45.5296 7.05302 45.3309 6.82289 45.3955 6.65899C45.4601 6.49509 45.7597 6.46032 46.0577 6.58118C46.3557 6.70204 46.5544 6.93216 46.4898 7.09606Z" fill="white" stroke="#263238" stroke-linecap="round" stroke-linejoin="round"/>
<path d="M21.4381 1.53344C21.3718 1.69899 21.0738 1.73211 20.7758 1.61125C20.4778 1.49039 20.2792 1.26027 20.3437 1.09637C20.4083 0.93247 20.708 0.897703 21.006 1.01856C21.304 1.13941 21.5026 1.36954 21.4381 1.53344Z" fill="white" stroke="#263238" stroke-linecap="round" stroke-linejoin="round"/>
<path d="M2.10763 32.8466C2.04306 33.0122 1.7434 33.0453 1.4454 32.9244C1.1474 32.8036 0.948736 32.5718 1.01165 32.4079C1.07456 32.244 1.37587 32.2109 1.67387 32.3301C1.97187 32.4493 2.17385 32.6827 2.10763 32.8466Z" fill="white" stroke="#263238" stroke-linecap="round" stroke-linejoin="round"/>
<path d="M63.6945 34.2721C63.6283 34.4376 63.3303 34.4707 63.0323 34.3499C62.7343 34.229 62.5356 33.9989 62.5986 33.835C62.6615 33.6711 62.9628 33.6364 63.2608 33.7572C63.5588 33.8781 63.7591 34.1082 63.6945 34.2721Z" fill="white" stroke="#263238" stroke-linecap="round" stroke-linejoin="round"/>
<path d="M38.2966 2.71551C38.232 2.88107 37.9324 2.91418 37.6344 2.79332C37.3364 2.67247 37.1377 2.44069 37.2006 2.27679C37.2635 2.11289 37.5648 2.07812 37.8628 2.19898C38.1608 2.31983 38.3628 2.55161 38.2966 2.71551Z" fill="white" stroke="#263238" stroke-linecap="round" stroke-linejoin="round"/>
<path d="M13.1223 42.6095C13.0577 42.775 12.7581 42.8082 12.4601 42.6873C12.1621 42.5664 11.9634 42.3363 12.0263 42.1724C12.0892 42.0085 12.3905 41.9738 12.6885 42.0946C12.9865 42.2155 13.1819 42.4456 13.1223 42.6095Z" fill="white" stroke="#263238" stroke-linecap="round" stroke-linejoin="round"/>
<path d="M49.5578 44.1376C49.4933 44.3031 49.1936 44.3362 48.8956 44.2154C48.5976 44.0945 48.3989 43.8644 48.4618 43.7005C48.5248 43.5366 48.8261 43.5018 49.1241 43.6227C49.4221 43.7435 49.624 43.9737 49.5578 44.1376Z" fill="white" stroke="#263238" stroke-linecap="round" stroke-linejoin="round"/>
<path d="M34.611 42.5184C34.5465 42.684 34.2468 42.7171 33.9488 42.5962C33.6508 42.4754 33.4522 42.2436 33.5151 42.0814C33.578 41.9191 33.8793 41.8827 34.1773 42.0036C34.4753 42.1244 34.6773 42.3545 34.611 42.5184Z" fill="white" stroke="#263238" stroke-linecap="round" stroke-linejoin="round"/>
</svg>
