<svg width="182" height="72" viewBox="0 0 182 72" fill="none" xmlns="http://www.w3.org/2000/svg">
<path d="M32.1958 14.9443C33.3932 11.259 38.6068 11.259 39.8042 14.9443L42.0089 21.7295C42.8121 24.2016 45.1159 25.8754 47.7152 25.8754H54.8496C58.7245 25.8754 60.3356 30.8339 57.2008 33.1115L51.4289 37.3049C49.326 38.8328 48.446 41.541 49.2493 44.0132L51.4539 50.7984C52.6513 54.4836 48.4334 57.5481 45.2986 55.2705L39.5267 51.077C37.4238 49.5492 34.5762 49.5492 32.4733 51.077L26.7014 55.2705C23.5666 57.5481 19.3487 54.4836 20.5461 50.7984L22.7507 44.0132C23.554 41.541 22.674 38.8328 20.5711 37.305L14.7992 33.1115C11.6644 30.8339 13.2755 25.8754 17.1504 25.8754H24.2848C26.8841 25.8754 29.1879 24.2016 29.9911 21.7295L32.1958 14.9443Z" fill="#FFD95C" stroke="black" stroke-width="2"/>
<path d="M94.8042 14.9443L97.0089 21.7295C97.8121 24.2016 100.116 25.8754 102.715 25.8754H109.85C113.725 25.8754 115.336 30.8339 112.201 33.1115L106.429 37.3049C104.326 38.8328 103.446 41.541 104.249 44.0132L106.454 50.7984C107.651 54.4836 103.433 57.5481 100.299 55.2705L94.5267 51.077C92.4238 49.5492 89.5762 49.5492 87.4733 51.077L81.7014 55.2705C78.5666 57.5481 74.3487 54.4836 75.5461 50.7984L77.7507 44.0132C78.554 41.541 77.674 38.8328 75.5711 37.305L69.7992 33.1115C66.6644 30.8339 68.2755 25.8754 72.1504 25.8754H79.2848C81.8841 25.8754 84.1879 24.2016 84.9911 21.7295L87.1958 14.9443C88.3932 11.259 93.6068 11.259 94.8042 14.9443Z" fill="#FFD95C" stroke="black" stroke-width="2"/>
<path d="M149.804 14.9443L152.009 21.7295C152.812 24.2016 155.116 25.8754 157.715 25.8754H164.85C168.725 25.8754 170.336 30.8339 167.201 33.1115L161.429 37.3049C159.326 38.8328 158.446 41.541 159.249 44.0132L161.454 50.7984C162.651 54.4836 158.433 57.5481 155.299 55.2705L149.527 51.077C147.424 49.5492 144.576 49.5492 142.473 51.077L136.701 55.2705C133.567 57.5481 129.349 54.4836 130.546 50.7984L132.751 44.0132C133.554 41.541 132.674 38.8328 130.571 37.305L124.799 33.1115C121.664 30.8339 123.275 25.8754 127.15 25.8754H134.285C136.884 25.8754 139.188 24.2016 139.991 21.7295L142.196 14.9443C143.393 11.259 148.607 11.259 149.804 14.9443Z" fill="#FFD95C" stroke="black" stroke-width="2"/>
</svg>
