<svg width="103" height="98" viewBox="0 0 103 98" fill="none" xmlns="http://www.w3.org/2000/svg">
<g filter="url(#filter0_d_1412_697)">
<path d="M34.5676 26.5901C35.943 20.2253 43.9405 18.0824 48.3141 22.9067L55.6803 31.0322C56.8026 32.2702 58.2843 33.1256 59.9175 33.4786L70.6375 35.7952C77.0023 37.1706 79.1452 45.1681 74.3208 49.5417L66.1954 56.9079C64.9574 58.0301 64.1019 59.5119 63.749 61.1451L61.4324 71.8651C60.057 78.2299 52.0595 80.3728 47.6859 75.5484L40.3197 67.4229C39.1974 66.185 37.7157 65.3295 36.0825 64.9766L25.3625 62.66C18.9977 61.2846 16.8548 53.2871 21.6792 48.9135L29.8046 41.5473C31.0426 40.425 31.898 38.9433 32.251 37.3101L34.5676 26.5901Z" fill="#FFD95C"/>
<path d="M36.0337 26.9069C37.1513 21.7355 43.6492 19.9944 47.2028 23.9142L54.569 32.0397C55.9017 33.5097 57.6612 34.5256 59.6006 34.9447L70.3207 37.2613C75.492 38.3789 77.2332 44.8768 73.3134 48.4303L65.1879 55.7966C63.7178 57.1293 62.702 58.8888 62.2829 60.8282L59.9663 71.5482C58.8487 76.7196 52.3508 78.4607 48.7972 74.541L41.431 66.4155C40.0983 64.9454 38.3388 63.9296 36.3993 63.5104L25.6793 61.1938C20.508 60.0763 18.7668 53.5783 22.6866 50.0248L30.8121 42.6586C32.2822 41.3259 33.298 39.5664 33.7171 37.6269L36.0337 26.9069Z" stroke="black" stroke-width="3"/>
</g>
<g filter="url(#filter1_d_1412_697)">
<path d="M62.6233 12.2372C63.2796 9.00032 67.3542 7.90855 69.541 10.3836L71.654 12.775C72.2303 13.4273 73.0036 13.8737 73.8566 14.0467L76.9841 14.6809C80.221 15.3372 81.3128 19.4118 78.8377 21.5986L76.4463 23.7116C75.7941 24.2879 75.3476 25.0612 75.1746 25.9142L74.5405 29.0417C73.8841 32.2786 69.8096 33.3704 67.6227 30.8953L65.5097 28.5039C64.9334 27.8517 64.1601 27.4052 63.3071 27.2322L60.1796 26.5981C56.9427 25.9417 55.8509 21.8672 58.326 19.6803L60.7174 17.5673C61.3696 16.991 61.8161 16.2177 61.9891 15.3647L62.6233 12.2372Z" fill="#FFD95C"/>
<path d="M63.6033 12.4359C64.0956 10.0083 67.1515 9.18944 68.7916 11.0457L70.9046 13.4371C71.625 14.2524 72.5916 14.8105 73.6579 15.0268L76.7854 15.6609C79.2131 16.1532 80.0319 19.2091 78.1756 20.8493L75.7842 22.9622C74.9689 23.6826 74.4108 24.6492 74.1946 25.7155L73.5604 28.843C73.0681 31.2707 70.0122 32.0895 68.3721 30.2332L66.2591 27.8418C65.5387 27.0265 64.5721 26.4684 63.5058 26.2522L60.3783 25.618C57.9507 25.1258 57.1318 22.0698 58.9881 20.4297L61.3795 18.3167C62.1948 17.5964 62.7529 16.6297 62.9691 15.5634L63.6033 12.4359Z" stroke="black" stroke-width="2"/>
</g>
<g filter="url(#filter2_d_1412_697)">
<path d="M75.6809 61.2372C76.3372 58.0003 80.4118 56.9086 82.5986 59.3836L84.7116 61.775C85.2879 62.4273 86.0612 62.8737 86.9142 63.0467L90.0417 63.6809C93.2786 64.3372 94.3704 68.4118 91.8953 70.5986L89.5039 72.7116C88.8517 73.2879 88.4052 74.0612 88.2323 74.9142L87.5981 78.0417C86.9417 81.2786 82.8672 82.3704 80.6803 79.8953L78.5673 77.5039C77.991 76.8517 77.2177 76.4052 76.3647 76.2322L73.2372 75.5981C70.0003 74.9417 68.9086 70.8672 71.3836 68.6803L73.775 66.5673C74.4273 65.991 74.8737 65.2177 75.0467 64.3647L75.6809 61.2372Z" fill="#FFD95C"/>
<path d="M76.6609 61.4359C77.1532 59.0083 80.2091 58.1894 81.8493 60.0457L83.9622 62.4371C84.6826 63.2524 85.6492 63.8105 86.7155 64.0268L89.843 64.6609C92.2707 65.1532 93.0895 68.2091 91.2332 69.8493L88.8418 71.9622C88.0265 72.6826 87.4684 73.6492 87.2522 74.7155L86.618 77.843C86.1258 80.2707 83.0698 81.0895 81.4297 79.2332L79.3167 76.8418C78.5964 76.0265 77.6297 75.4684 76.5634 75.2522L73.4359 74.618C71.0083 74.1258 70.1894 71.0698 72.0457 69.4297L74.4371 67.3167C75.2525 66.5964 75.8105 65.6297 76.0268 64.5634L76.6609 61.4359Z" stroke="black" stroke-width="2"/>
</g>
<defs>
<filter id="filter0_d_1412_697" x="19.0459" y="20.2738" width="61.9082" height="61.9075" filterUnits="userSpaceOnUse" color-interpolation-filters="sRGB">
<feFlood flood-opacity="0" result="BackgroundImageFix"/>
<feColorMatrix in="SourceAlpha" type="matrix" values="0 0 0 0 0 0 0 0 0 0 0 0 0 0 0 0 0 0 127 0" result="hardAlpha"/>
<feOffset dx="4" dy="4"/>
<feComposite in2="hardAlpha" operator="out"/>
<feColorMatrix type="matrix" values="0 0 0 0 0 0 0 0 0 0 0 0 0 0 0 0 0 0 1 0"/>
<feBlend mode="normal" in2="BackgroundImageFix" result="effect1_dropShadow_1412_697"/>
<feBlend mode="normal" in="SourceGraphic" in2="effect1_dropShadow_1412_697" result="shape"/>
</filter>
<filter id="filter1_d_1412_697" x="56.9717" y="9.02893" width="27.2207" height="27.2211" filterUnits="userSpaceOnUse" color-interpolation-filters="sRGB">
<feFlood flood-opacity="0" result="BackgroundImageFix"/>
<feColorMatrix in="SourceAlpha" type="matrix" values="0 0 0 0 0 0 0 0 0 0 0 0 0 0 0 0 0 0 127 0" result="hardAlpha"/>
<feOffset dx="4" dy="4"/>
<feComposite in2="hardAlpha" operator="out"/>
<feColorMatrix type="matrix" values="0 0 0 0 0 0 0 0 0 0 0 0 0 0 0 0 0 0 1 0"/>
<feBlend mode="normal" in2="BackgroundImageFix" result="effect1_dropShadow_1412_697"/>
<feBlend mode="normal" in="SourceGraphic" in2="effect1_dropShadow_1412_697" result="shape"/>
</filter>
<filter id="filter2_d_1412_697" x="70.0293" y="58.0289" width="27.2207" height="27.2211" filterUnits="userSpaceOnUse" color-interpolation-filters="sRGB">
<feFlood flood-opacity="0" result="BackgroundImageFix"/>
<feColorMatrix in="SourceAlpha" type="matrix" values="0 0 0 0 0 0 0 0 0 0 0 0 0 0 0 0 0 0 127 0" result="hardAlpha"/>
<feOffset dx="4" dy="4"/>
<feComposite in2="hardAlpha" operator="out"/>
<feColorMatrix type="matrix" values="0 0 0 0 0 0 0 0 0 0 0 0 0 0 0 0 0 0 1 0"/>
<feBlend mode="normal" in2="BackgroundImageFix" result="effect1_dropShadow_1412_697"/>
<feBlend mode="normal" in="SourceGraphic" in2="effect1_dropShadow_1412_697" result="shape"/>
</filter>
</defs>
</svg>
