<svg width="1167" height="891" viewBox="0 0 1167 891" fill="none" xmlns="http://www.w3.org/2000/svg">
<path d="M960.042 131.998C983.907 169.483 1024.58 237.486 1053.46 325.84C1066.83 366.744 1088.47 392.69 1108.9 417.179C1110.96 419.648 1113.01 422.102 1115.03 424.556C1137.11 451.309 1156.73 478.087 1162.6 523.339C1168.45 568.409 1151.35 612.003 1122.05 647.835C1092.74 683.672 1051.4 711.511 1009.31 724.989C965.472 739.024 949.652 767.269 935.054 794.027L934.578 794.9C920.202 821.256 906.829 845.773 869.072 856.427C830.23 867.387 778.789 865.368 727.276 855.602C675.822 845.847 624.664 828.432 586.535 808.929C566.542 798.702 544.474 797.894 521.224 801.921C498.018 805.941 473.329 814.836 447.967 824.31C445.877 825.091 443.783 825.876 441.684 826.662C392.528 845.074 340.956 864.391 290.284 856.351C237.197 847.928 204.221 825.244 184.464 798.001C164.653 770.684 157.922 738.488 157.922 710.781C157.922 681.483 145.431 664.104 127.114 645.699C122.721 641.284 118.003 636.816 113.029 632.104C97.2881 617.194 78.9785 599.852 60.263 574.096C59.1097 572.509 57.9552 570.924 56.8016 569.34C32.9903 536.644 9.53741 504.439 4.14787 466.824C-1.45254 427.736 12.4423 382.091 68.4244 323.557C124.056 265.39 197.883 247.163 266.159 233.939C272.786 232.656 279.368 231.418 285.877 230.194C312.766 225.137 338.423 220.313 361.004 213.435C389.08 204.884 412.922 193.021 428.846 173.112C490.393 96.1647 573.256 -4.96519 721.716 3.49839C796.014 7.73409 855.61 39.8474 896.696 70.9963C917.231 86.5647 933.108 101.867 943.844 113.269C949.211 118.969 953.29 123.691 956.021 126.979C957.387 128.623 958.415 129.908 959.098 130.778C959.439 131.212 959.695 131.543 959.863 131.763C959.942 131.866 960.002 131.945 960.042 131.998Z" fill="#FFD95C" stroke="black" stroke-width="6"/>
<path opacity="0.7" d="M960.042 131.998C983.907 169.483 1024.58 237.486 1053.46 325.84C1066.83 366.744 1088.47 392.69 1108.9 417.179C1110.96 419.648 1113.01 422.102 1115.03 424.556C1137.11 451.309 1156.73 478.087 1162.6 523.339C1168.45 568.409 1151.35 612.003 1122.05 647.835C1092.74 683.672 1051.4 711.511 1009.31 724.989C965.472 739.024 949.652 767.269 935.054 794.027L934.578 794.9C920.202 821.256 906.829 845.773 869.072 856.427C830.23 867.387 778.789 865.368 727.276 855.602C675.822 845.847 624.664 828.432 586.535 808.929C566.542 798.702 544.474 797.894 521.224 801.921C498.018 805.941 473.329 814.836 447.967 824.31C445.877 825.091 443.783 825.876 441.684 826.662C392.528 845.074 340.956 864.391 290.284 856.351C237.197 847.928 204.221 825.244 184.464 798.001C164.653 770.684 157.922 738.488 157.922 710.781C157.922 681.483 145.431 664.104 127.114 645.699C122.721 641.284 118.003 636.816 113.029 632.104C97.2881 617.194 78.9785 599.852 60.263 574.096C59.1097 572.509 57.9552 570.924 56.8016 569.34C32.9903 536.644 9.53741 504.439 4.14787 466.824C-1.45254 427.736 12.4423 382.091 68.4244 323.557C124.056 265.39 197.883 247.163 266.159 233.939C272.786 232.656 279.368 231.418 285.877 230.194C312.766 225.137 338.423 220.313 361.004 213.435C389.08 204.884 412.922 193.021 428.846 173.112C490.393 96.1647 573.256 -4.96519 721.716 3.49839C796.014 7.73409 855.61 39.8474 896.696 70.9963C917.231 86.5647 933.108 101.867 943.844 113.269C949.211 118.969 953.29 123.691 956.021 126.979C957.387 128.623 958.415 129.908 959.098 130.778C959.439 131.212 959.695 131.543 959.863 131.763C959.942 131.866 960.002 131.945 960.042 131.998Z" fill="white" stroke="black" stroke-width="6"/>
<path d="M1065.38 878.512C1065.38 883.48 908.199 887.494 714.533 887.494C520.867 887.494 363.688 883.48 363.688 878.512C363.688 873.544 520.867 869.559 714.533 869.559C908.199 869.559 1065.38 873.572 1065.38 878.512Z" fill="black"/>
<path d="M787.789 46.1133H458.135C447.874 46.1133 439.555 54.4322 439.555 64.694V193.552C439.555 203.814 447.874 212.133 458.135 212.133H787.789C798.051 212.133 806.37 203.814 806.37 193.552V64.694C806.37 54.4322 798.051 46.1133 787.789 46.1133Z" fill="#FFD95C"/>
<path d="M439.555 182.942V242.867L472.983 204.386" fill="#FFD95C"/>
<path d="M787.817 46.1133H458.051C455.612 46.1133 453.198 46.5941 450.945 47.5282C448.692 48.4623 446.646 49.8314 444.923 51.5572C443.199 53.2829 441.833 55.3314 440.903 57.5856C439.972 59.8398 439.495 62.2553 439.499 64.694V242.867L466.219 212.133H787.817C790.256 212.133 792.67 211.652 794.923 210.718C797.176 209.784 799.222 208.415 800.946 206.689C802.669 204.963 804.035 202.915 804.965 200.661C805.896 198.406 806.373 195.991 806.37 193.552V64.694C806.373 62.2553 805.896 59.8398 804.965 57.5856C804.035 55.3314 802.669 53.2829 800.946 51.5572C799.222 49.8314 797.176 48.4623 794.923 47.5282C792.67 46.5941 790.256 46.1133 787.817 46.1133Z" fill="#FFD95C"/>
<path opacity="0.1" d="M787.817 46.1133H458.051C455.612 46.1133 453.198 46.5941 450.945 47.5282C448.692 48.4623 446.646 49.8314 444.923 51.5572C443.199 53.2829 441.833 55.3314 440.903 57.5856C439.972 59.8398 439.495 62.2553 439.499 64.694V242.867L466.219 212.133H787.817C790.256 212.133 792.67 211.652 794.923 210.718C797.176 209.784 799.222 208.415 800.946 206.689C802.669 204.963 804.035 202.915 804.965 200.661C805.896 198.406 806.373 195.991 806.37 193.552V64.694C806.373 62.2553 805.896 59.8398 804.965 57.5856C804.035 55.3314 802.669 53.2829 800.946 51.5572C799.222 49.8314 797.176 48.4623 794.923 47.5282C792.67 46.5941 790.256 46.1133 787.817 46.1133Z" fill="#FFD95C"/>
<path d="M721.886 137.192H485.024C483.268 137.192 481.583 136.495 480.34 135.252C479.098 134.01 478.4 132.325 478.4 130.569C478.408 128.817 479.109 127.139 480.35 125.903C481.592 124.667 483.272 123.973 485.024 123.973H721.886C723.638 123.973 725.319 124.667 726.56 125.903C727.802 127.139 728.503 128.817 728.51 130.569C728.51 131.438 728.339 132.3 728.006 133.103C727.673 133.907 727.185 134.637 726.57 135.252C725.955 135.867 725.225 136.355 724.421 136.688C723.618 137.021 722.756 137.192 721.886 137.192Z" fill="white"/>
<path d="M721.886 167.618H485.024C484.154 167.618 483.293 167.447 482.489 167.114C481.686 166.781 480.956 166.293 480.34 165.678C479.725 165.063 479.237 164.333 478.905 163.529C478.572 162.726 478.4 161.864 478.4 160.994C478.408 159.242 479.109 157.565 480.35 156.329C481.592 155.092 483.272 154.398 485.024 154.398H721.886C723.638 154.398 725.319 155.092 726.56 156.329C727.802 157.565 728.503 159.242 728.51 160.994C728.51 161.864 728.339 162.726 728.006 163.529C727.673 164.333 727.185 165.063 726.57 165.678C725.955 166.293 725.225 166.781 724.421 167.114C723.618 167.447 722.756 167.618 721.886 167.618Z" fill="white"/>
<path d="M498.244 106.768C511.389 106.768 522.045 96.1114 522.045 82.9663C522.045 69.8212 511.389 59.165 498.244 59.165C485.099 59.165 474.443 69.8212 474.443 82.9663C474.443 96.1114 485.099 106.768 498.244 106.768Z" fill="white"/>
<path d="M787.789 270.794H458.135C447.874 270.794 439.555 279.113 439.555 289.375V418.233C439.555 428.495 447.874 436.814 458.135 436.814H787.789C798.051 436.814 806.37 428.495 806.37 418.233V289.375C806.37 279.113 798.051 270.794 787.789 270.794Z" fill="#FFD95C"/>
<path d="M439.555 407.596V467.548L472.983 429.039" fill="#FFD95C"/>
<path d="M787.817 270.794H458.051C453.131 270.794 448.412 272.749 444.932 276.228C441.453 279.707 439.499 284.426 439.499 289.347V467.547L466.219 436.673H787.817C792.737 436.673 797.456 434.719 800.936 431.239C804.415 427.76 806.37 423.041 806.37 418.121V289.347C806.37 284.426 804.415 279.707 800.936 276.228C797.456 272.749 792.737 270.794 787.817 270.794Z" fill="#FFD95C"/>
<path opacity="0.1" d="M787.817 270.794H458.051C453.131 270.794 448.412 272.749 444.932 276.228C441.453 279.707 439.499 284.426 439.499 289.347V467.547L466.219 436.673H787.817C792.737 436.673 797.456 434.719 800.936 431.239C804.415 427.76 806.37 423.041 806.37 418.121V289.347C806.37 284.426 804.415 279.707 800.936 276.228C797.456 272.749 792.737 270.794 787.817 270.794Z" fill="#FFD95C"/>
<path d="M721.886 361.846H485.024C483.272 361.846 481.592 361.152 480.35 359.916C479.109 358.679 478.408 357.002 478.4 355.25C478.4 353.493 479.098 351.808 480.34 350.566C481.583 349.324 483.268 348.626 485.024 348.626H721.886C722.756 348.626 723.618 348.797 724.421 349.13C725.225 349.463 725.955 349.951 726.57 350.566C727.185 351.181 727.673 351.911 728.006 352.715C728.339 353.519 728.51 354.38 728.51 355.25C728.503 357.002 727.802 358.679 726.56 359.916C725.319 361.152 723.638 361.846 721.886 361.846Z" fill="white"/>
<path d="M721.886 392.271H485.024C483.272 392.271 481.592 391.577 480.35 390.34C479.109 389.104 478.408 387.427 478.4 385.675C478.4 383.918 479.098 382.233 480.34 380.991C481.583 379.749 483.268 379.051 485.024 379.051H721.886C722.756 379.051 723.618 379.222 724.421 379.555C725.225 379.888 725.955 380.376 726.57 380.991C727.185 381.606 727.673 382.336 728.006 383.14C728.339 383.944 728.51 384.805 728.51 385.675C728.503 387.427 727.802 389.104 726.56 390.34C725.319 391.577 723.638 392.271 721.886 392.271Z" fill="white"/>
<path d="M498.244 331.42C511.389 331.42 522.045 320.764 522.045 307.619C522.045 294.474 511.389 283.817 498.244 283.817C485.099 283.817 474.443 294.474 474.443 307.619C474.443 320.764 485.099 331.42 498.244 331.42Z" fill="white"/>
<path d="M184.814 599.745C184.561 599.745 183.439 582.147 183.495 581.024C184.14 568.029 193.066 543.273 207.184 539.512C209.54 538.949 211.989 538.889 214.371 539.336C216.752 539.783 219.013 540.728 221.005 542.108C222.996 543.488 224.675 545.272 225.93 547.345C227.186 549.417 227.99 551.731 228.291 554.135C229.918 564.296 223.295 575.13 216.586 582.203C208.671 590.399 184.814 599.745 184.814 599.745Z" fill="black"/>
<path d="M166.402 531.934C166.149 531.934 167.693 514.364 167.918 513.241C170.556 500.498 183.13 477.371 197.613 475.799C200.028 475.601 202.459 475.914 204.745 476.717C207.031 477.521 209.123 478.797 210.884 480.462C212.645 482.128 214.035 484.145 214.964 486.383C215.894 488.622 216.341 491.031 216.278 493.453C216.278 503.754 208.166 513.465 200.476 519.388C191.41 526.348 166.402 531.934 166.402 531.934Z" fill="black"/>
<path d="M161.742 451.913C161.49 451.913 163.061 434.342 163.286 433.22C165.896 420.477 178.47 397.349 192.981 395.778C195.396 395.579 197.824 395.892 200.11 396.696C202.395 397.5 204.485 398.776 206.243 400.442C208.002 402.108 209.389 404.126 210.315 406.364C211.242 408.602 211.686 411.011 211.618 413.432C211.618 423.733 203.535 433.416 195.816 439.366C186.75 446.327 161.77 451.913 161.742 451.913Z" fill="black"/>
<path d="M153.687 376.608C153.434 376.608 155.006 359.01 155.23 357.915C157.841 345.144 170.415 322.045 184.926 320.445C187.341 320.251 189.771 320.568 192.056 321.375C194.341 322.182 196.431 323.461 198.189 325.129C199.947 326.797 201.334 328.817 202.26 331.056C203.186 333.296 203.63 335.705 203.563 338.128C203.563 348.4 195.479 358.112 187.761 364.034C178.695 370.995 153.715 376.608 153.687 376.608Z" fill="black"/>
<path d="M129.661 316.179C129.436 316.179 126.293 298.862 126.209 297.739C125.367 284.744 131.401 259.118 144.958 253.785C147.234 252.954 149.66 252.613 152.077 252.783C154.494 252.953 156.849 253.631 158.986 254.772C161.124 255.914 162.996 257.493 164.482 259.408C165.968 261.322 167.033 263.528 167.608 265.882C170.415 275.79 165.082 287.298 159.188 295.045C152.339 304.166 129.661 316.179 129.661 316.179Z" fill="black"/>
<path d="M177.376 599.942C177.657 599.942 169.994 583.916 169.377 582.962C162.444 571.959 142.544 554.726 128.426 558.346C126.099 559.011 123.937 560.159 122.083 561.715C120.229 563.271 118.723 565.2 117.664 567.376C116.604 569.553 116.016 571.928 115.936 574.348C115.856 576.767 116.286 579.176 117.199 581.418C120.736 591.101 131.795 597.304 141.113 600.139C152.115 603.479 177.376 599.942 177.376 599.942Z" fill="black"/>
<path d="M162.64 522.867C162.921 522.867 152.901 508.16 152.171 507.318C143.751 497.466 121.297 483.461 107.965 489.158C105.759 490.165 103.79 491.625 102.186 493.445C100.583 495.264 99.3823 497.401 98.6618 499.716C97.9412 502.032 97.7174 504.473 98.0049 506.881C98.2924 509.289 99.0848 511.609 100.33 513.689C105.27 522.699 117.171 527.162 126.798 528.565C138.081 530.193 162.64 522.867 162.64 522.867Z" fill="black"/>
<path d="M158.402 447.366C158.655 447.366 148.662 432.659 147.933 431.817C139.512 421.965 117.058 407.96 103.698 413.685C101.468 414.685 99.476 416.146 97.8531 417.973C96.2302 419.8 95.0136 421.951 94.284 424.283C93.5544 426.615 93.3282 429.076 93.6205 431.502C93.9129 433.928 94.717 436.265 95.9797 438.357C100.948 447.366 112.82 451.829 122.475 453.204C133.843 454.72 158.402 447.394 158.402 447.366Z" fill="black"/>
<path d="M151.133 378.096C151.414 378.096 141.394 363.389 140.664 362.546C132.243 352.695 109.789 338.689 96.4574 344.387C94.2512 345.393 92.2822 346.854 90.6791 348.673C89.0761 350.492 87.875 352.63 87.1544 354.945C86.4339 357.26 86.21 359.702 86.4976 362.11C86.7851 364.517 87.5775 366.837 88.823 368.918C93.7629 377.956 105.664 382.39 115.291 383.794C126.574 385.422 151.133 378.096 151.133 378.096Z" fill="black"/>
<path d="M129.829 318.452C130.082 318.452 118.602 304.923 117.704 304.137C108.161 295.296 84.4723 283.817 71.7577 290.974C69.6702 292.217 67.8691 293.887 66.4726 295.875C65.0761 297.863 64.1158 300.124 63.6546 302.51C63.1934 304.895 63.2419 307.351 63.7967 309.716C64.3515 312.082 65.4002 314.303 66.8739 316.235C72.7962 324.655 85.0898 327.798 94.9415 328.107C106.225 328.444 129.829 318.48 129.829 318.452Z" fill="black"/>
<path d="M99.2076 269.165C99.4602 269.165 95.4185 251.932 95.0536 250.865C90.647 238.6 74.9292 217.521 60.334 217.998C57.915 218.145 55.5539 218.8 53.4047 219.92C51.2554 221.039 49.366 222.599 47.8595 224.498C46.353 226.396 45.2631 228.59 44.6607 230.938C44.0584 233.285 43.9572 235.733 44.3636 238.123C45.767 248.339 55.2257 256.759 63.7021 261.531C73.6661 267.144 99.1795 269.165 99.2076 269.165Z" fill="black"/>
<path d="M209.345 690.684C209.345 690.684 206.342 683.807 201.626 671.766C196.911 659.725 190.399 642.351 183.495 621.245C180.043 610.691 176.534 599.184 173.11 586.918C171.37 580.743 169.798 574.54 168.086 567.888C167.356 564.632 166.654 561.349 165.925 558.037C165.195 554.725 164.69 551.216 164.072 547.764C161.857 533.605 160.423 519.334 159.778 505.017C159.076 490.45 158.795 475.714 158.431 460.979C158.066 446.243 157.701 431.564 156.522 417.194C155.494 403.12 153.477 389.136 150.487 375.345C147.476 362.501 143.324 349.952 138.082 337.847C133.4 326.955 128.086 316.346 122.167 306.074C116.75 296.447 111.193 287.999 106.225 280.533C101.257 273.067 96.5977 266.779 92.6963 261.643C84.8935 251.37 80.0098 245.869 80.0098 245.869C80.0098 245.869 85.0058 251.286 93.0612 261.362C97.0468 266.443 101.818 272.589 107.095 279.999C112.372 287.409 117.985 295.717 123.627 305.26C129.848 315.469 135.471 326.031 140.467 336.892C146.066 349.027 150.583 361.631 153.968 374.559C157.299 388.41 159.653 402.479 161.013 416.66C162.5 431.171 163.258 445.935 163.819 460.67C164.381 475.406 165.083 490.085 166.093 504.484C167.039 518.524 168.744 532.504 171.201 546.36C171.903 549.7 172.324 552.956 173.194 556.268C174.064 559.58 174.794 562.836 175.58 566.064C177.32 572.211 179.088 578.61 180.941 584.588C184.561 596.629 188.294 607.941 191.943 618.269C199.185 639.039 205.977 656.048 210.945 667.893C215.913 679.737 218.972 686.305 218.972 686.305C219.435 687.519 219.421 688.863 218.932 690.067C218.444 691.27 217.517 692.244 216.339 692.792C215.162 693.34 213.82 693.421 212.585 693.02C211.35 692.618 210.312 691.763 209.682 690.628L209.345 690.684Z" fill="black"/>
<path d="M275.444 581.894C275.192 581.894 279.149 564.633 279.514 563.566C283.836 551.301 299.442 530.11 314.009 530.502C316.428 530.632 318.793 531.27 320.949 532.375C323.105 533.48 325.003 535.027 326.521 536.916C328.039 538.804 329.141 540.991 329.756 543.335C330.371 545.678 330.486 548.124 330.092 550.515C328.773 560.731 319.37 569.236 310.922 574.063C300.873 579.733 275.613 581.894 275.444 581.894Z" fill="black"/>
<path d="M277.072 511.669C276.819 511.669 283.331 495.166 283.864 494.183C290.011 482.676 308.62 464.095 322.963 466.705C325.335 467.201 327.576 468.192 329.54 469.611C331.505 471.031 333.148 472.849 334.363 474.946C335.579 477.043 336.339 479.372 336.594 481.782C336.85 484.193 336.594 486.63 335.846 488.935C333.039 498.843 322.401 505.775 313.392 509.284C302.642 513.382 277.1 511.669 277.072 511.669Z" fill="black"/>
<path d="M295.26 433.613C294.979 433.613 301.491 417.109 302.024 416.127C308.171 404.647 326.808 386.066 341.15 388.648C343.523 389.147 345.765 390.141 347.728 391.564C349.692 392.987 351.333 394.808 352.546 396.908C353.759 399.008 354.516 401.339 354.767 403.751C355.019 406.163 354.759 408.601 354.005 410.906C351.198 420.786 340.561 427.747 331.551 431.255C320.942 435.353 295.26 433.613 295.26 433.613Z" fill="black"/>
<path d="M309.041 359.15C308.76 359.15 315.272 342.675 315.805 341.664C321.952 330.184 340.588 311.604 354.931 314.214C357.303 314.71 359.544 315.7 361.507 317.12C363.471 318.54 365.113 320.358 366.326 322.456C367.539 324.554 368.296 326.884 368.548 329.294C368.799 331.704 368.54 334.14 367.786 336.444C364.979 346.351 354.342 353.284 345.332 356.792C334.554 360.89 309.041 359.15 309.041 359.15Z" fill="black"/>
<path d="M303.231 294.342C302.95 294.342 304.887 276.8 305.139 275.705C307.946 262.99 321.082 240.143 335.621 238.88C338.039 238.736 340.46 239.102 342.728 239.955C344.995 240.807 347.057 242.128 348.781 243.83C350.504 245.532 351.85 247.578 352.731 249.835C353.611 252.091 354.007 254.508 353.893 256.928C353.893 267.229 345.473 276.744 337.558 282.497C328.351 289.262 303.231 294.342 303.231 294.342Z" fill="black"/>
<path d="M268.371 579.985C268.624 579.985 265.817 562.527 265.564 561.461C262.056 548.914 247.882 526.741 233.315 526.18C230.89 526.152 228.486 526.636 226.26 527.6C224.035 528.564 222.037 529.986 220.398 531.774C218.759 533.561 217.515 535.674 216.747 537.975C215.979 540.275 215.704 542.712 215.941 545.125C216.586 555.398 225.428 564.492 233.539 569.853C243.026 576.168 268.343 579.985 268.371 579.985Z" fill="black"/>
<path d="M276.062 501.902C276.342 501.902 270.897 485.061 270.448 483.995C265.059 472.122 247.685 452.363 233.202 454.019C230.803 454.361 228.502 455.205 226.45 456.496C224.398 457.787 222.641 459.495 221.293 461.51C219.945 463.525 219.037 465.802 218.627 468.191C218.218 470.581 218.316 473.029 218.916 475.378C221.105 485.426 231.238 493.089 240.051 497.159C250.352 501.958 276.034 501.902 276.062 501.902Z" fill="black"/>
<path d="M293.463 428.308C293.716 428.308 288.299 411.468 287.85 410.401C282.489 398.557 265.115 378.797 250.632 380.453C248.224 380.791 245.914 381.634 243.854 382.927C241.794 384.22 240.03 385.933 238.679 387.955C237.327 389.977 236.418 392.262 236.011 394.66C235.604 397.057 235.709 399.514 236.318 401.869C238.535 411.945 248.639 419.579 257.481 423.649C267.838 428.365 293.435 428.308 293.463 428.308Z" fill="black"/>
<path d="M306.178 359.768C306.459 359.768 301.013 342.927 300.564 341.861C295.175 330.016 277.83 310.228 263.319 311.912C260.92 312.251 258.62 313.092 256.568 314.38C254.516 315.668 252.758 317.374 251.41 319.387C250.062 321.4 249.154 323.674 248.744 326.062C248.334 328.449 248.432 330.897 249.032 333.244C251.222 343.32 261.354 350.954 270.195 355.024C280.552 359.768 306.178 359.768 306.178 359.768Z" fill="black"/>
<path d="M302.698 296.587C302.978 296.587 295.737 280.392 295.148 279.41C288.496 268.183 269.073 250.472 254.843 253.728C252.494 254.329 250.299 255.419 248.401 256.927C246.502 258.434 244.943 260.325 243.826 262.476C242.708 264.627 242.056 266.989 241.914 269.409C241.771 271.829 242.141 274.252 242.998 276.519C246.282 286.258 257.172 292.742 266.406 295.829C277.24 299.45 302.698 296.587 302.698 296.587Z" fill="black"/>
<path d="M287.373 240.621C287.597 240.621 288.636 223.023 288.552 221.9C287.822 208.877 278.756 184.177 264.638 180.5C262.277 179.955 259.828 179.913 257.449 180.377C255.071 180.841 252.817 181.8 250.834 183.193C248.851 184.586 247.183 186.38 245.939 188.46C244.696 190.54 243.904 192.858 243.615 195.264C242.044 205.452 248.724 216.23 255.488 223.331C263.431 231.415 287.345 240.593 287.373 240.621Z" fill="black"/>
<path d="M273.142 676.061C273.142 676.061 272.188 668.623 271.093 655.712C269.999 642.801 268.679 624.333 268.09 602.131C267.781 590.904 267.669 579.004 267.893 566.261C267.893 559.862 268.23 553.462 268.483 546.614C268.707 543.302 268.96 539.934 269.185 536.566C269.409 533.198 269.97 529.661 270.335 526.181C272.259 512.012 274.948 497.958 278.391 484.079C281.843 469.905 285.773 455.675 289.618 441.473C293.463 427.271 297.252 413.068 300.227 398.922C303.24 385.143 305.275 371.168 306.318 357.102C307.04 343.924 306.589 330.708 304.971 317.611C303.584 305.831 301.504 294.144 298.74 282.61C296.27 271.832 293.379 262.149 290.74 253.589C288.102 245.028 285.38 237.646 283.134 231.64C278.559 219.571 275.444 212.891 275.444 212.891C275.444 212.891 278.7 219.515 283.527 231.471C285.941 237.45 288.72 244.775 291.639 253.28C294.558 261.784 297.589 271.468 300.283 282.217C303.314 293.765 305.666 305.48 307.328 317.302C309.26 330.532 310.011 343.907 309.574 357.27C308.824 371.541 307.07 385.74 304.325 399.764C301.518 414.079 298.15 428.449 294.586 442.764C291.021 457.078 287.429 471.337 284.313 485.427C281.219 499.154 278.876 513.04 277.296 527.023C277.015 530.419 276.51 533.647 276.398 537.071C276.286 540.495 276.061 543.835 275.893 547.147C275.893 553.547 275.696 560.17 275.893 566.43C275.893 579.032 276.314 590.932 276.875 601.907C277.914 623.884 279.682 642.156 281.001 654.87C282.32 667.585 283.443 674.826 283.443 674.826C283.541 675.492 283.506 676.17 283.342 676.822C283.178 677.474 282.886 678.087 282.485 678.627C282.084 679.166 281.58 679.621 281.003 679.966C280.425 680.311 279.786 680.539 279.121 680.636C278.455 680.734 277.777 680.7 277.125 680.535C276.473 680.371 275.86 680.08 275.32 679.678C274.781 679.277 274.326 678.773 273.981 678.196C273.636 677.619 273.408 676.979 273.311 676.314V676.174L273.142 676.061Z" fill="black"/>
<path d="M305.701 861.644H186.863L153.435 667.023H339.13L305.701 861.644Z" fill="black"/>
<path d="M515.028 880.057C657.749 880.057 773.446 764.359 773.446 621.639C773.446 478.918 657.749 363.221 515.028 363.221C372.308 363.221 256.61 478.918 256.61 621.639C256.61 764.359 372.308 880.057 515.028 880.057Z" fill="#FFD95C"/>
<path d="M515.029 881.348C463.663 881.348 413.451 866.116 370.742 837.579C328.033 809.042 294.745 768.481 275.089 721.025C255.432 673.57 250.289 621.351 260.31 570.972C270.331 520.594 295.066 474.318 331.386 437.997C367.707 401.676 413.983 376.941 464.362 366.92C514.74 356.899 566.959 362.042 614.415 381.699C661.87 401.356 702.431 434.643 730.969 477.352C759.506 520.061 774.738 570.273 774.738 621.639C774.656 690.493 747.268 756.504 698.58 805.191C649.893 853.878 583.883 881.266 515.029 881.348ZM515.029 364.484C464.168 364.484 414.45 379.566 372.161 407.822C329.872 436.079 296.912 476.241 277.448 523.23C257.985 570.219 252.892 621.924 262.815 671.807C272.737 721.69 297.229 767.511 333.193 803.475C369.156 839.439 414.977 863.93 464.86 873.853C514.743 883.775 566.448 878.683 613.437 859.219C660.426 839.756 700.588 806.795 728.845 764.507C757.102 722.218 772.183 672.499 772.183 621.639C772.117 553.458 745.002 488.088 696.791 439.877C648.579 391.665 583.21 364.551 515.029 364.484Z" fill="black"/>
<path d="M446.572 791.588C424.711 783.522 404.674 771.185 387.63 755.296C370.435 738.769 357.112 718.64 348.616 696.355C338.981 671.367 334.209 644.769 334.554 617.99C334.37 595.125 338.404 572.422 346.455 551.021C353.733 531.389 364.635 513.299 378.592 497.692C406.174 467.449 441.842 445.738 481.376 435.13C500.773 429.927 520.768 427.284 540.851 427.271C557.514 427.21 574.123 429.189 590.306 433.165C605.944 437.035 620.912 443.233 634.709 451.549C648.344 459.757 660.561 470.117 670.888 482.227C681.693 495.239 689.931 510.182 695.166 526.265C701.227 544.574 704.215 563.761 704.007 583.046C703.798 620.148 690.51 655.987 666.481 684.257C656.094 696.119 643.754 706.116 629.993 713.813C618.151 720.681 604.751 724.41 591.064 724.647C581.669 724.76 572.494 721.804 564.933 716.226C561.115 713.422 558.008 709.763 555.858 705.542C553.709 701.322 552.578 696.656 552.555 691.92C536.538 714.486 514.869 725.769 487.55 725.769C465.302 725.769 447.526 718.163 434.222 702.95C420.918 687.738 414.294 669.026 414.35 646.815C414.411 629.918 417.353 613.155 423.051 597.248C428.626 581.165 436.614 566.022 446.74 552.34C456.791 538.847 469.628 527.676 484.379 519.585C499.089 511.275 515.704 506.924 532.599 506.955C544.337 506.835 555.917 509.663 566.28 515.178C576.377 520.534 584.565 528.889 589.716 539.092L591.906 531.963C592.906 528.968 594.601 526.252 596.851 524.037C599.1 521.821 601.842 520.169 604.852 519.214C607.861 518.259 611.054 518.029 614.17 518.542C617.285 519.055 620.235 520.297 622.78 522.167C624.404 523.493 625.692 525.182 626.541 527.099C627.389 529.015 627.774 531.105 627.664 533.198C627.666 535.204 627.334 537.196 626.681 539.092L591.849 654.871C587.92 668.119 585.955 677.203 585.955 682.124C585.955 690.47 590.212 694.633 598.726 694.614C609.841 694.614 620.759 689.506 631.481 679.289C643.033 667.763 651.948 653.868 657.612 638.563C664.28 621.821 667.691 603.959 667.66 585.937C667.823 570.059 665.503 554.253 660.783 539.092C656.869 526.019 650.622 513.762 642.343 502.913C634.482 493.029 624.99 484.561 614.275 477.877C603.577 471.14 591.904 466.094 579.668 462.917C567.131 459.649 554.228 457.998 541.272 458.005C524.799 458.026 508.409 460.34 492.574 464.881C476.318 469.534 460.822 476.52 446.572 485.623C432.201 494.698 419.188 505.764 407.923 518.49C396.304 531.891 387.246 547.313 381.202 563.988C374.481 582.167 371.115 601.415 371.266 620.797C370.902 643.755 375.07 666.561 383.532 687.906C390.755 706.417 402.224 722.972 417.017 736.239C431.277 748.648 447.751 758.256 465.573 764.559C484.361 771.209 504.165 774.534 524.094 774.382C545.399 774.42 566.583 771.192 586.91 764.811C588.961 764.118 591.116 763.786 593.281 763.829C595.339 763.745 597.39 764.108 599.295 764.893C601.199 765.678 602.91 766.866 604.311 768.376C607.004 771.173 608.503 774.907 608.493 778.789C608.76 781.912 607.886 785.026 606.033 787.554C604.181 790.083 601.475 791.855 598.417 792.542C573.05 800.303 546.692 804.349 520.165 804.555C495.049 804.743 470.11 800.349 446.572 791.588ZM535.265 680.216C545.848 672.58 553.715 661.762 557.719 649.341L580.173 570.359L578.686 567.16C577.258 564.556 575.534 562.126 573.549 559.918C570.865 556.835 567.947 553.963 564.82 551.329C560.804 548.095 556.241 545.605 551.348 543.976C538.64 539.478 524.701 539.959 512.334 545.323C505.61 548.221 499.431 552.245 494.062 557.224C488.459 562.443 483.477 568.292 479.214 574.654C474.765 581.24 471.002 588.266 467.987 595.62C464.966 602.949 462.627 610.541 460.998 618.299C459.391 625.676 458.563 633.202 458.529 640.753C458.499 645.594 458.789 650.432 459.399 655.236C459.92 659.49 460.86 663.683 462.205 667.754C463.393 671.439 465.084 674.943 467.229 678.167C469.21 681.151 471.699 683.763 474.583 685.885C477.652 688.128 481.105 689.793 484.772 690.797C489.083 691.997 493.545 692.573 498.02 692.509C511.454 692.654 524.556 688.329 535.265 680.216Z" fill="black"/>
<path d="M866.462 404.312C866.462 404.312 858.042 419.974 856.807 422.163C855.572 424.353 851.053 436.197 852.401 439.004C853.748 441.811 855.039 443.411 857.705 443.86C860.372 444.309 862.561 449.164 866.968 450.035C869.742 450.584 872.56 450.885 875.388 450.933C876.081 451.442 876.882 451.786 877.728 451.936C878.575 452.087 879.445 452.042 880.272 451.803C882.91 450.933 885.127 449.614 886.896 442.091C887.976 438.366 888.272 434.457 887.766 430.612L886.98 415.427L866.462 404.312Z" fill="white"/>
<path d="M878.7 453.43C877.366 453.412 876.064 453.023 874.939 452.307C872.167 452.232 869.407 451.922 866.687 451.381C864.165 450.694 861.907 449.266 860.203 447.283C859.446 446.378 858.484 445.666 857.397 445.206C855.954 444.884 854.617 444.199 853.512 443.217C852.407 442.235 851.571 440.988 851.081 439.593C849.257 435.972 854.562 423.089 855.544 421.461C856.835 419.3 865.087 403.806 865.171 403.638C865.356 403.314 865.657 403.073 866.013 402.964C866.356 402.827 866.738 402.827 867.08 402.964L887.569 414.051C887.779 414.172 887.956 414.342 888.083 414.548C888.21 414.754 888.285 414.988 888.299 415.23L889.085 430.386C889.599 434.365 889.283 438.408 888.159 442.259C886.419 449.753 884.145 451.83 880.609 453.009C879.998 453.249 879.354 453.391 878.7 453.43ZM867.052 406.22C865.031 409.981 859.137 421.012 858.014 422.892C856.47 425.447 852.766 436.589 853.636 438.33C855.039 441.136 856.106 442.147 857.93 442.455C859.591 442.947 861.068 443.924 862.168 445.262C863.493 446.86 865.261 448.032 867.248 448.63C869.923 449.148 872.636 449.439 875.36 449.5C875.685 449.5 876.001 449.609 876.258 449.809C876.762 450.175 877.341 450.423 877.953 450.534C878.565 450.646 879.194 450.619 879.795 450.455C881.731 449.809 883.752 449.135 885.408 441.754C886.427 438.219 886.723 434.515 886.278 430.864L885.52 416.268L867.052 406.22Z" fill="black"/>
<path d="M915.132 826.027C915.132 826.027 903.147 845.534 903.147 850.25C903.147 854.965 919.651 863.638 926.724 866.781C933.797 869.925 946.371 872.395 956.588 873.854C966.804 875.314 988.023 879.468 981.848 871.497C975.674 863.526 937.726 842.531 936.154 840.033C934.208 837.7 932.026 835.575 929.643 833.69L915.132 826.027Z" fill="white"/>
<path d="M976.74 877.615C970.75 877.372 964.785 876.706 958.889 875.622L956.363 875.229C942.104 873.04 931.944 870.626 926.162 868.044C925.152 867.595 901.743 857.126 901.743 850.249C901.743 845.281 912.69 827.318 913.925 825.269C914.116 824.97 914.411 824.753 914.753 824.66C915.096 824.566 915.46 824.604 915.777 824.764L930.288 832.454C932.893 834.447 935.257 836.736 937.333 839.275C938.007 840.061 944.181 843.934 950.16 847.695C962.902 855.638 978.733 865.546 982.83 870.654C984.318 872.507 984.683 874.107 983.897 875.426C983.111 876.745 980.641 877.615 976.74 877.615ZM915.552 827.879C911.005 835.401 904.466 847.274 904.466 850.333C904.466 853.393 916.479 860.803 927.2 865.574C932.814 868.044 942.694 870.374 956.728 872.535L959.226 872.928C964.39 873.742 980.108 876.24 981.399 874.05C981.399 874.05 981.399 873.489 980.557 872.451C976.768 867.707 960.489 857.519 948.588 849.997C939.017 844.018 935.593 841.829 934.891 840.79C933.029 838.568 930.941 836.546 928.66 834.756L915.552 827.879Z" fill="black"/>
<path d="M933.909 856.761L938.119 863.049C942.647 869.918 948.797 875.567 956.026 879.496C967.253 885.559 984.543 892.491 999.643 888.337C1024.4 881.517 962.088 843.935 962.088 843.935C962.088 843.935 939.887 859.372 933.909 856.761Z" fill="white"/>
<path d="M989.819 891.003C977.357 891.003 964.558 885.782 955.352 880.73C947.932 876.703 941.611 870.921 936.94 863.889L932.73 857.574C932.554 857.334 932.459 857.044 932.459 856.746C932.459 856.449 932.554 856.159 932.73 855.918C932.927 855.684 933.195 855.52 933.493 855.449C933.791 855.378 934.104 855.405 934.386 855.525C938.006 857.097 952.237 849.042 961.19 842.839C961.414 842.687 961.678 842.605 961.948 842.605C962.218 842.605 962.482 842.687 962.706 842.839C967.393 845.646 1008.48 870.906 1006.72 883.705C1006.32 886.512 1003.91 888.645 999.923 889.768C996.626 890.63 993.227 891.046 989.819 891.003ZM936.659 858.332L939.27 862.29C943.683 868.951 949.657 874.433 956.671 878.26C968.123 884.435 984.739 890.975 999.278 886.989C1003.66 885.754 1003.94 883.846 1004.02 883.228C1005.28 874.05 974.915 853.42 962.116 845.618C957.654 848.593 944.237 857.434 936.659 858.332Z" fill="black"/>
<path d="M941.038 859.736C947.858 870.052 958.19 877.542 970.116 880.815C990.465 886.625 996.303 885.166 1000.65 879.356" fill="white"/>
<path d="M989.538 885.923C982.806 885.542 976.153 884.278 969.751 882.162C957.449 878.84 946.799 871.107 939.831 860.438C939.736 860.28 939.674 860.105 939.648 859.923C939.622 859.74 939.632 859.555 939.68 859.377C939.727 859.199 939.809 859.032 939.922 858.886C940.035 858.741 940.175 858.619 940.336 858.529C940.661 858.344 941.045 858.293 941.407 858.387C941.769 858.482 942.08 858.714 942.273 859.035C948.945 868.997 958.96 876.244 970.509 879.468C990.352 885.081 995.769 883.678 999.53 878.513C999.758 878.222 1000.09 878.03 1000.46 877.977C1000.82 877.925 1001.19 878.017 1001.5 878.233C1001.79 878.456 1001.99 878.789 1002.04 879.157C1002.1 879.525 1002 879.9 1001.78 880.198C1000.4 882.124 998.553 883.664 996.409 884.667C994.265 885.67 991.898 886.103 989.538 885.923Z" fill="black"/>
<path d="M904.69 846.656C904.69 846.656 927.144 862.739 938.119 863.048Z" fill="white"/>
<path d="M938.007 864.451C926.78 864.142 904.747 848.452 903.821 847.807C903.525 847.583 903.327 847.253 903.269 846.887C903.212 846.52 903.299 846.146 903.512 845.842C903.616 845.691 903.749 845.563 903.903 845.464C904.057 845.365 904.229 845.298 904.409 845.266C904.59 845.235 904.775 845.24 904.953 845.281C905.131 845.322 905.3 845.398 905.449 845.505C905.673 845.674 927.706 861.363 938.091 861.644C938.466 861.659 938.82 861.82 939.077 862.093C939.334 862.366 939.474 862.729 939.466 863.104C939.459 863.288 939.416 863.469 939.338 863.637C939.261 863.804 939.152 863.955 939.016 864.08C938.88 864.205 938.722 864.302 938.548 864.366C938.375 864.429 938.191 864.458 938.007 864.451Z" fill="black"/>
<path d="M855.937 409.701C855.937 409.701 875.865 442.737 880.131 450.399C884.397 458.062 938.175 519.558 959.506 572.493C980.837 625.428 1001.35 673.199 1000.48 688.58C999.615 703.961 929.586 833.69 929.586 833.69L915.075 826.027C915.075 826.027 937.248 703.933 934.722 691.135C932.196 678.336 853.804 551.134 853.804 551.134C853.804 551.134 817.091 525.536 801.738 495.644" fill="black"/>
<path d="M858.772 492.248C858.772 492.248 847.685 516.133 847.685 519.557C847.685 522.982 909.995 706.515 927.93 748.336C939.283 775.125 949.25 802.481 957.794 830.293C957.794 830.293 964.643 838.714 959.506 847.358C954.37 856.003 933.909 861.869 929.642 854.179C925.376 846.488 883.527 806.464 865.62 766.271C847.713 726.078 822.087 657.846 807.548 632.249C788.396 599.473 771.298 565.539 756.353 530.644C737.548 486.269 718.209 438.161 718.209 438.161C743.555 440.28 769.071 437.419 793.318 429.741C832.613 416.942 849.453 392.439 849.453 392.439C849.453 392.439 859.445 417.981 862 422.921" fill="black"/>
<path d="M864.638 564.325C864.444 564.322 864.255 564.262 864.095 564.152C863.935 564.042 863.812 563.888 863.74 563.707L844.092 512.624C844.025 512.435 844.015 512.229 844.065 512.034C844.115 511.839 844.223 511.664 844.373 511.53L866.378 492.669C866.565 492.495 866.811 492.398 867.066 492.398C867.321 492.398 867.566 492.495 867.753 492.669C867.925 492.851 868.021 493.092 868.021 493.342C868.021 493.593 867.925 493.833 867.753 494.016L846.254 512.456L865.648 562.978C865.741 563.216 865.738 563.482 865.638 563.718C865.539 563.954 865.351 564.141 865.115 564.241L864.638 564.325Z" fill="white"/>
<path d="M844.962 513.214C844.723 513.217 844.491 513.126 844.317 512.961C844.22 512.872 844.142 512.764 844.089 512.643C844.036 512.522 844.008 512.392 844.008 512.26C844.008 512.119 844.008 496.71 837.103 486.999C835.391 484.501 834.016 482.536 832.865 480.936C829.273 475.828 828.178 474.284 827.533 471.73C827.087 468.743 827.087 465.707 827.533 462.72C827.58 462.473 827.719 462.252 827.922 462.101C828.124 461.95 828.376 461.881 828.627 461.907C828.753 461.924 828.874 461.966 828.984 462.03C829.093 462.095 829.188 462.181 829.264 462.283C829.34 462.385 829.395 462.501 829.425 462.624C829.456 462.747 829.461 462.876 829.441 463.001C829.045 465.747 829.045 468.535 829.441 471.281C830.002 473.47 830.957 474.818 834.493 479.842C835.616 481.442 837.019 483.406 838.731 485.904C844.962 494.858 845.833 507.713 845.973 511.39L885.857 509.846C886.111 509.845 886.356 509.94 886.543 510.112C886.73 510.283 886.846 510.519 886.867 510.772C886.875 510.898 886.857 511.025 886.814 511.144C886.77 511.263 886.703 511.372 886.617 511.464C886.53 511.556 886.425 511.629 886.309 511.679C886.193 511.729 886.068 511.755 885.941 511.754L845.075 513.326L844.962 513.214Z" fill="white"/>
<path d="M978.62 694.923C960.853 694.923 938.287 683.415 937.277 682.91C937.053 682.791 936.887 682.588 936.813 682.346C936.739 682.104 936.765 681.842 936.884 681.619C936.94 681.506 937.019 681.405 937.114 681.323C937.21 681.241 937.321 681.178 937.441 681.139C937.561 681.1 937.688 681.085 937.814 681.095C937.94 681.105 938.063 681.14 938.175 681.198C938.427 681.338 964.081 694.418 981.651 692.874C981.779 692.863 981.908 692.877 982.03 692.916C982.152 692.956 982.264 693.019 982.361 693.103C982.458 693.187 982.537 693.289 982.594 693.404C982.65 693.519 982.683 693.644 982.69 693.772C982.702 693.898 982.688 694.024 982.651 694.144C982.613 694.265 982.552 694.376 982.471 694.473C982.39 694.569 982.291 694.649 982.179 694.707C982.068 694.765 981.945 694.8 981.82 694.811C980.781 694.895 979.715 694.923 978.62 694.923Z" fill="white"/>
<path d="M976.234 709.743H976.01C960.264 705.786 942.581 691.303 941.823 690.685C941.652 690.503 941.556 690.262 941.556 690.012C941.556 689.761 941.652 689.52 941.823 689.338C941.902 689.24 942 689.159 942.111 689.098C942.221 689.038 942.343 689.001 942.468 688.988C942.593 688.975 942.72 688.986 942.84 689.022C942.961 689.059 943.073 689.118 943.171 689.198C943.339 689.338 961.274 704.046 976.599 707.863C976.721 707.895 976.836 707.952 976.936 708.029C977.036 708.106 977.12 708.202 977.182 708.311C977.245 708.421 977.285 708.542 977.301 708.667C977.316 708.793 977.307 708.92 977.273 709.042C977.219 709.267 977.083 709.465 976.89 709.595C976.698 709.725 976.464 709.778 976.234 709.743Z" fill="white"/>
<path d="M844.177 498.283C844.024 498.283 843.874 498.247 843.737 498.179C843.601 498.111 843.482 498.012 843.391 497.89C843.317 497.785 843.265 497.667 843.237 497.542C843.21 497.417 843.208 497.288 843.232 497.163C843.255 497.037 843.304 496.917 843.375 496.811C843.445 496.704 843.537 496.613 843.643 496.543C847.432 493.904 853.439 488.824 853.439 486.326C853.439 484.67 851.39 482.705 849.201 480.712C846.778 478.689 844.775 476.209 843.307 473.415C841.875 470.075 836.739 456.967 837.693 453.768C837.731 453.647 837.793 453.536 837.874 453.44C837.956 453.344 838.056 453.265 838.168 453.207C838.28 453.15 838.402 453.115 838.528 453.105C838.654 453.096 838.78 453.111 838.9 453.15C839.145 453.233 839.347 453.41 839.462 453.641C839.578 453.872 839.598 454.139 839.517 454.385C838.928 456.097 841.987 465.612 844.991 472.573C846.363 475.11 848.212 477.359 850.436 479.197C853.046 481.695 855.291 483.828 855.291 486.298C855.291 490.62 845.748 497.328 844.654 498.086C844.514 498.192 844.35 498.26 844.177 498.283Z" fill="white"/>
<path d="M750.656 503.783C750.453 503.791 750.253 503.735 750.085 503.621C749.916 503.508 749.789 503.344 749.72 503.153C749.651 502.962 749.645 502.755 749.702 502.56C749.759 502.365 749.877 502.194 750.038 502.071L757.897 495.784C765.447 489.777 770.107 474.424 770.163 474.256C770.241 474.013 770.41 473.809 770.635 473.688C770.861 473.568 771.124 473.54 771.37 473.61C771.613 473.688 771.817 473.858 771.937 474.083C772.058 474.308 772.086 474.572 772.015 474.817C771.819 475.463 767.104 490.9 759.104 497.271L751.245 503.559C751.081 503.7 750.873 503.779 750.656 503.783Z" fill="white"/>
<path d="M937.248 857.996C937.108 857.991 936.97 857.956 936.844 857.893C936.718 857.83 936.607 857.741 936.519 857.631C926.471 845.313 917.396 832.231 909.377 818.505C898.515 799.082 867.276 745.951 866.939 745.53C864.046 739.136 861.899 732.43 860.54 725.545C860.343 724.479 860.203 723.497 860.063 722.739C859.024 715.666 858.575 712.747 849.172 706.684C839.77 700.621 839.18 690.068 838.395 678.757C838.226 676.09 838.03 673.34 837.721 670.617C836.458 659.39 806.65 608.869 784.898 572.156C779.958 563.736 775.467 556.214 771.818 549.955C752.339 516.442 738.867 472.376 738.727 471.927C738.656 471.681 738.684 471.418 738.805 471.193C738.925 470.967 739.129 470.798 739.372 470.72C739.492 470.682 739.618 470.668 739.743 470.68C739.869 470.692 739.99 470.729 740.1 470.79C740.211 470.85 740.307 470.932 740.385 471.031C740.462 471.13 740.519 471.244 740.551 471.366C740.691 471.815 754.108 515.684 773.474 548.972C777.123 555.232 781.614 562.838 786.554 571.174C808.418 608.083 838.338 658.661 839.629 670.393C839.938 673.2 840.135 676.006 840.331 678.645C841.089 689.872 841.735 699.639 850.211 705.084C860.343 711.596 860.849 714.992 861.971 722.43C861.971 723.356 862.252 724.311 862.42 725.377C863.753 732.058 865.844 738.565 868.651 744.772C868.904 745.249 900.171 798.381 911.061 817.747C919.029 831.362 928.038 844.339 938.006 856.565C938.086 856.662 938.146 856.775 938.182 856.895C938.218 857.016 938.23 857.142 938.217 857.268C938.203 857.393 938.166 857.514 938.106 857.625C938.045 857.735 937.964 857.833 937.866 857.912C937.675 858.006 937.458 858.036 937.248 857.996Z" fill="white"/>
<path d="M718.209 438.162C718.209 438.162 720.006 458.034 727.865 464.321C735.724 470.608 759.3 476.109 791.522 469.934C823.743 463.759 859.109 436.253 862.252 426.71C865.396 417.167 849.397 392.468 849.397 392.468C849.397 392.468 830.816 418.851 778.948 427.496C727.079 436.141 718.209 438.162 718.209 438.162Z" fill="white"/>
<path d="M764.212 474.003C745.21 474.003 732.187 469.597 726.966 465.414C718.742 458.819 716.89 439.143 716.806 438.301C716.776 437.967 716.867 437.632 717.063 437.36C717.259 437.087 717.546 436.893 717.872 436.814C718.237 436.814 727.387 434.54 778.723 425.979C829.244 417.559 848.05 391.793 848.246 391.541C848.378 391.359 848.551 391.211 848.751 391.109C848.951 391.006 849.172 390.952 849.397 390.951C849.627 390.956 849.852 391.018 850.053 391.13C850.254 391.243 850.423 391.403 850.548 391.597C852.232 394.179 866.827 417.25 863.571 427.046C860.119 437.375 823.94 464.909 791.774 471.196C782.698 473.014 773.468 473.954 764.212 474.003ZM719.753 439.284C720.286 443.606 722.56 458.257 728.734 463.225C735.751 468.839 758.233 474.901 791.241 468.446C823.687 462.102 858.126 434.568 860.933 426.148C863.15 419.468 854.084 402.599 849.257 394.796C844.261 400.775 824.22 421.264 779.088 428.758C737.492 435.719 723.514 438.357 719.753 439.284Z" fill="black"/>
<path d="M925.376 245.534C912.549 237.114 812.685 159.31 803.282 155.886C793.88 152.462 775.215 155.886 775.215 155.886C775.215 155.886 717.339 162.959 705.214 167.843C704.063 168.292 677.989 183.28 677.147 184.066C667.744 191.756 626.625 210.674 615.566 234.588C603.02 261.645 713.27 424.549 718.406 438.19C723.542 451.83 750.459 455.199 775.215 451.774C799.97 448.35 821.695 443.354 839.63 422.837C842.881 418.75 845.607 414.271 847.741 409.505C850.304 404.179 850.958 398.134 849.594 392.383C843.194 365.719 826.859 288.842 816.081 238.012C834.044 249.604 871.402 273.152 893.127 281.46C922.148 292.687 944.35 284.885 944.35 275.482C944.35 266.079 938.175 254.066 925.376 245.534Z" fill="white"/>
<path d="M890.713 262.122C873.601 260.433 857.027 255.205 842.044 246.769C842.044 246.769 864.245 236.524 865.087 231.388C865.929 226.252 834.353 230.546 838.619 228.834C842.886 227.122 848.864 222.855 838.619 222.855C830.452 222.318 822.406 220.597 814.734 217.747L815.885 237.928C825.652 244.243 841.145 254.038 856.695 263.02C871.32 270.709 886.381 277.541 901.799 283.481C901.799 283.481 920.577 265.546 890.713 262.122Z" fill="#FFD95C"/>
<g style="mix-blend-mode:multiply">
<path d="M775.018 451.746L778.19 451.296C785.039 447.984 796.63 445.907 807.914 443.101C824.979 438.834 806.202 438.834 778.022 424.324C749.842 409.813 738.727 388.481 713.13 357.747C687.532 327.013 677.287 311.632 682.424 308.236C687.56 304.84 672.179 304.812 666.201 301.388C660.222 297.963 674.621 297.991 686.69 286.035C698.759 274.078 663.618 288.589 660.222 287.747C656.826 286.905 663.618 275.79 663.618 275.79L638.863 301.388L698.619 403.834L702.043 406.388L705.972 412.002L717.199 436.14C717.648 436.982 717.957 437.684 718.154 438.161C723.318 451.83 750.263 455.198 775.018 451.746Z" fill="#FFD95C"/>
</g>
<path d="M661.85 213.06C680.739 210.253 733.394 240.286 733.394 240.286C704.456 220.638 679.139 202.226 661.822 193.918L629.909 216.372L627.72 218.421C631.425 217.691 645.627 215.362 661.85 213.06Z" fill="#FFD95C"/>
<path opacity="0.5" d="M890.713 262.122C873.601 260.433 857.027 255.205 842.044 246.769C842.044 246.769 864.245 236.524 865.087 231.388C865.929 226.252 834.353 230.546 838.619 228.834C842.886 227.122 848.864 222.855 838.619 222.855C830.452 222.318 822.406 220.597 814.734 217.747L815.885 237.928C825.652 244.243 841.145 254.038 856.695 263.02C871.32 270.709 886.381 277.541 901.799 283.481C901.799 283.481 920.577 265.546 890.713 262.122Z" fill="white"/>
<path opacity="0.5" d="M775.018 451.746L778.19 451.296C785.039 447.984 796.63 445.907 807.914 443.101C824.979 438.834 806.202 438.834 778.022 424.324C749.842 409.813 738.727 388.481 713.13 357.747C687.532 327.013 677.287 311.632 682.424 308.236C687.56 304.84 672.179 304.812 666.201 301.388C660.222 297.963 674.621 297.991 686.69 286.035C698.759 274.078 663.618 288.589 660.222 287.747C656.826 286.905 663.618 275.79 663.618 275.79L638.863 301.388L698.619 403.834L702.043 406.388L705.972 412.002L717.199 436.14C717.648 436.982 717.957 437.684 718.154 438.161C723.318 451.83 750.263 455.198 775.018 451.746Z" fill="white"/>
<path opacity="0.5" d="M661.85 213.06C680.739 210.253 733.394 240.286 733.394 240.286C704.456 220.638 679.139 202.226 661.822 193.918L629.909 216.372L627.72 218.421C631.425 217.691 645.627 215.362 661.85 213.06Z" fill="white"/>
<path d="M757.055 454.412C738.138 454.412 721.101 449.893 716.891 438.666C715.656 435.354 707.348 421.826 696.822 404.817C652.111 332.29 605.154 253.252 614.107 233.97C622.528 215.782 647.423 200.766 663.899 190.83C668.097 188.445 672.155 185.821 676.052 182.971C677.063 182.157 703.194 167.113 704.597 166.551C716.778 161.64 772.577 154.791 774.962 154.51C775.664 154.37 794.133 151.058 803.76 154.51C809.991 156.784 852.681 189.09 886.98 215.052C905.561 229.086 921.587 241.267 926.134 244.298C940.449 253.841 945.557 266.584 945.557 275.341C945.454 276.967 944.949 278.541 944.087 279.923C943.224 281.304 942.032 282.45 940.617 283.256C932.337 288.87 914.234 290.975 892.425 282.639C877.184 276.801 851.475 262.402 817.962 240.874C829.189 294.343 844.598 366.364 850.745 391.962C852.192 398.031 851.508 404.413 848.808 410.037C846.615 414.936 843.784 419.522 840.388 423.678C821.639 445.094 798.82 449.809 775.131 453.065C769.144 453.928 763.104 454.378 757.055 454.412ZM791.859 155.773C786.338 155.857 780.83 156.354 775.383 157.261C774.71 157.261 717.48 164.362 705.636 169.134C704.092 169.835 679.084 184.234 677.821 185.16C673.825 188.097 669.654 190.787 665.331 193.216C649.164 202.983 624.745 217.747 616.661 235.317C607.568 254.964 667.183 351.545 699.208 403.498C710.632 422.022 718.182 434.372 719.529 437.824C724.497 451.072 751.666 453.682 774.822 450.483C797.978 447.283 820.263 442.708 838.367 422.022C841.549 418.036 844.209 413.659 846.282 408.999C848.694 403.968 849.308 398.261 848.022 392.832C841.735 366.673 825.905 292.154 814.51 238.46C814.454 238.186 814.481 237.902 814.586 237.642C814.69 237.383 814.869 237.16 815.099 237.001C815.328 236.85 815.596 236.77 815.871 236.77C816.145 236.77 816.414 236.85 816.643 237.001C851.39 259.455 877.942 274.415 893.436 280.309C914.149 288.252 931.607 286.372 939.017 281.263C940.038 280.688 940.908 279.879 941.556 278.904C942.205 277.928 942.614 276.813 942.75 275.65C942.75 267.623 937.979 255.862 924.591 246.937C919.959 243.849 903.905 231.696 885.296 217.606C852.934 193.131 808.643 159.591 802.805 157.457C799.273 156.303 795.575 155.734 791.859 155.773Z" fill="black"/>
<path d="M629.095 217.101C629.095 217.101 618.85 228.328 614.865 233.52C593.477 260.998 525.414 349.046 524.656 356.147C523.898 363.248 527.126 368.02 543.77 374.419C560.414 380.819 671.758 269.25 671.758 269.25" fill="white"/>
<g style="mix-blend-mode:multiply" opacity="0.8">
<path d="M629.263 217.438L627.832 218.365C625.755 220.666 621.264 225.69 617.784 229.816L566.083 297.627C566.083 297.627 564.483 299.424 561.957 302.399C542.563 328.249 525.666 351.573 524.627 355.727C524.627 355.868 524.627 356.008 524.627 356.12C523.954 362.828 527.21 367.937 543.769 374.308C546.717 375.431 552.555 372.905 560.217 367.993C556.324 367.21 552.605 365.726 549.243 363.614C539.84 357.636 547.53 351.658 547.53 351.658C547.53 351.658 559.74 356.541 571.781 359.825C574.279 357.945 576.889 355.924 579.556 353.791C576.991 352.111 574.56 350.234 572.286 348.177C562.041 338.803 553.509 329.4 553.509 329.4L631.761 220.189L629.263 217.438Z" fill="#FFD95C"/>
</g>
<path opacity="0.5" d="M629.263 217.438L627.832 218.365C625.755 220.666 621.264 225.69 617.784 229.816L566.083 297.627C566.083 297.627 564.483 299.424 561.957 302.399C542.563 328.249 525.666 351.573 524.627 355.727C524.627 355.868 524.627 356.008 524.627 356.12C523.954 362.828 527.21 367.937 543.769 374.308C546.717 375.431 552.555 372.905 560.217 367.993C556.324 367.21 552.605 365.726 549.243 363.614C539.84 357.636 547.53 351.658 547.53 351.658C547.53 351.658 559.74 356.541 571.781 359.825C574.279 357.945 576.889 355.924 579.556 353.791C576.991 352.111 574.56 350.234 572.286 348.177C562.041 338.803 553.509 329.4 553.509 329.4L631.761 220.189L629.263 217.438Z" fill="white"/>
<path d="M545.061 376.048C544.43 376.055 543.803 375.951 543.208 375.739C527.715 369.761 522.27 364.512 523.196 356.092C523.954 349.103 580.23 275.819 613.686 232.763C617.672 227.655 627.579 216.736 628 216.287C628.12 216.138 628.269 216.015 628.438 215.926C628.607 215.836 628.793 215.782 628.984 215.767C629.174 215.752 629.366 215.776 629.547 215.838C629.728 215.899 629.895 215.997 630.037 216.126C630.178 216.254 630.293 216.41 630.372 216.584C630.451 216.758 630.494 216.947 630.498 217.138C630.502 217.329 630.466 217.519 630.394 217.696C630.322 217.873 630.214 218.034 630.078 218.168C630.078 218.168 619.805 229.395 615.903 234.503C561.845 304.055 526.536 351.91 526.087 356.401C525.442 362.379 528.22 367.038 544.331 373.241C555.923 377.704 626.316 312.952 670.804 268.353C671.068 268.088 671.426 267.94 671.8 267.94C672.174 267.94 672.532 268.088 672.796 268.353C673.061 268.617 673.209 268.975 673.209 269.349C673.209 269.723 673.061 270.081 672.796 270.345C661.654 281.348 566.561 376.048 545.061 376.048Z" fill="black"/>
<path d="M854.393 211.993L815.885 237.928C821.498 237.142 848.106 227.711 848.106 227.711" fill="white"/>
<path d="M815.885 239.33C815.603 239.335 815.326 239.25 815.095 239.089C814.863 238.928 814.688 238.698 814.594 238.432C814.475 238.14 814.461 237.816 814.553 237.515C814.645 237.213 814.838 236.953 815.099 236.776L853.636 210.842C853.786 210.736 853.956 210.662 854.135 210.623C854.315 210.584 854.5 210.582 854.681 210.616C854.862 210.65 855.033 210.719 855.186 210.821C855.34 210.922 855.471 211.054 855.572 211.207C855.777 211.52 855.85 211.902 855.777 212.269C855.703 212.637 855.489 212.96 855.179 213.171L823.603 234.447C833.287 231.471 847.461 226.475 847.657 226.391C848.029 226.268 848.435 226.298 848.785 226.475C849.135 226.651 849.401 226.959 849.524 227.332C849.647 227.704 849.617 228.109 849.44 228.459C849.264 228.81 848.956 229.075 848.584 229.198C847.489 229.563 821.667 238.685 816.081 239.471L815.885 239.33Z" fill="black"/>
<path d="M852.821 228.328C852.495 228.322 852.181 228.204 851.931 227.995C851.681 227.786 851.51 227.497 851.446 227.177C851.38 226.813 851.462 226.437 851.672 226.132C851.882 225.827 852.205 225.618 852.569 225.549L861.214 223.978C861.582 223.912 861.961 223.992 862.27 224.202C862.58 224.412 862.795 224.734 862.87 225.1C862.906 225.285 862.905 225.475 862.866 225.659C862.828 225.843 862.752 226.018 862.645 226.172C862.538 226.327 862.4 226.458 862.241 226.558C862.082 226.659 861.904 226.726 861.719 226.756L853.074 228.328H852.821Z" fill="black"/>
<path d="M567.515 328.895C561.572 328.718 555.662 329.839 550.197 332.179Z" fill="white"/>
<path d="M550.197 333.666C549.825 333.737 549.44 333.657 549.127 333.443C548.813 333.23 548.598 332.901 548.527 332.529C548.456 332.157 548.536 331.772 548.75 331.459C548.963 331.146 549.292 330.93 549.664 330.859C555.331 328.425 561.463 327.266 567.627 327.463C567.812 327.477 567.991 327.528 568.156 327.612C568.321 327.696 568.468 327.811 568.588 327.952C568.708 328.093 568.799 328.256 568.856 328.432C568.912 328.609 568.933 328.794 568.918 328.979C568.882 329.348 568.704 329.69 568.422 329.931C568.139 330.172 567.773 330.293 567.403 330.27C561.69 330.104 556.01 331.186 550.758 333.441C550.591 333.558 550.399 333.635 550.197 333.666Z" fill="black"/>
<path d="M651.437 290.414C651.437 290.414 673.077 283.79 678.803 279.384Z" fill="white"/>
<path d="M651.437 291.817C651.065 291.869 650.687 291.771 650.387 291.545C650.087 291.319 649.889 290.982 649.837 290.61C649.785 290.238 649.883 289.86 650.109 289.56C650.335 289.26 650.672 289.062 651.044 289.01C651.24 289.01 672.488 282.442 677.961 278.232C678.255 278.006 678.627 277.906 678.995 277.953C679.363 278 679.698 278.192 679.925 278.485C680.145 278.782 680.241 279.152 680.194 279.518C680.147 279.884 679.96 280.218 679.673 280.45C673.779 284.969 652.756 291.424 651.858 291.677C651.729 291.752 651.585 291.8 651.437 291.817Z" fill="black"/>
<path d="M684.107 277.194C684.107 277.194 687.644 274.106 688.963 274.106Z" fill="white"/>
<path d="M684.107 278.597C683.906 278.596 683.708 278.552 683.524 278.47C683.341 278.388 683.176 278.269 683.041 278.12C682.782 277.853 682.637 277.496 682.637 277.124C682.637 276.752 682.782 276.394 683.041 276.127C684.628 274.49 686.624 273.308 688.823 272.703C689.195 272.703 689.552 272.851 689.815 273.114C690.078 273.377 690.226 273.734 690.226 274.107C690.219 274.476 690.069 274.829 689.807 275.091C689.546 275.353 689.193 275.503 688.823 275.51C687.377 276.239 686.052 277.185 684.893 278.317C684.668 278.491 684.393 278.589 684.107 278.597Z" fill="black"/>
<path d="M815.885 239.331C815.537 239.326 815.203 239.196 814.945 238.963C814.687 238.731 814.522 238.413 814.481 238.068L810.973 202.001C810.954 201.817 810.972 201.63 811.026 201.453C811.079 201.276 811.167 201.111 811.285 200.967C811.402 200.824 811.546 200.705 811.71 200.618C811.873 200.53 812.052 200.476 812.236 200.457C812.42 200.439 812.606 200.457 812.784 200.51C812.961 200.564 813.126 200.652 813.269 200.769C813.413 200.886 813.532 201.031 813.619 201.194C813.707 201.357 813.761 201.536 813.78 201.72L817.316 237.815C817.335 237.998 817.318 238.183 817.264 238.359C817.211 238.535 817.123 238.699 817.005 238.84C816.887 238.981 816.742 239.097 816.579 239.182C816.415 239.266 816.236 239.317 816.053 239.331H815.885Z" fill="black"/>
<path d="M524.571 356.513C524.571 356.513 519.603 375.515 551.46 383.402C566.588 387.135 666.705 411.47 666.705 411.47C666.705 411.47 675.659 392.271 670.551 392.271C665.442 392.271 573.128 330.888 573.128 330.888" fill="white"/>
<path d="M539.447 379.22L655.535 408.859L658.622 401.505C658.622 401.505 614.893 392.748 587.583 379.051C560.273 365.354 558.533 369.649 549.159 363.698C539.784 357.748 547.447 351.741 547.447 351.741C547.447 351.741 573.072 361.986 586.741 362.828C600.41 363.67 582.475 357.72 572.23 348.317C567.992 344.444 564.063 340.542 561.003 337.343L524.515 356.485C524.515 356.485 520.979 370.266 539.447 379.22Z" fill="#FFD95C"/>
<path opacity="0.5" d="M539.447 379.22L655.535 408.859L658.622 401.505C658.622 401.505 614.893 392.748 587.583 379.051C560.273 365.354 558.533 369.649 549.159 363.698C539.784 357.748 547.447 351.741 547.447 351.741C547.447 351.741 573.072 361.986 586.741 362.828C600.41 363.67 582.475 357.72 572.23 348.317C567.992 344.444 564.063 340.542 561.003 337.343L524.515 356.485C524.515 356.485 520.979 370.266 539.447 379.22Z" fill="white"/>
<path d="M666.705 413.097H666.369C666.369 413.097 566.252 388.65 551.123 385.029C538.493 381.914 529.932 376.609 525.694 369.564C523.225 365.661 522.342 360.962 523.224 356.429C523.323 356.071 523.557 355.766 523.876 355.578C524.196 355.389 524.576 355.332 524.936 355.418C525.292 355.517 525.595 355.752 525.779 356.072C525.963 356.393 526.013 356.773 525.919 357.13C525.283 360.967 526.083 364.904 528.164 368.189C532.009 374.644 539.98 379.416 551.797 382.223C565.831 385.731 654.861 407.484 665.92 410.122C669.372 402.487 671.533 395.078 670.551 393.927C665.218 393.927 587.892 342.563 572.455 332.178C572.145 331.967 571.931 331.643 571.857 331.276C571.784 330.909 571.857 330.527 572.062 330.214C572.163 330.06 572.294 329.929 572.448 329.828C572.601 329.726 572.772 329.656 572.953 329.622C573.134 329.588 573.319 329.591 573.499 329.63C573.678 329.669 573.848 329.743 573.998 329.849C610.346 354.071 666.088 390.362 670.607 391.064C671.064 391.071 671.513 391.19 671.914 391.41C672.316 391.63 672.657 391.945 672.908 392.327C675.238 396.004 669.709 408.522 667.94 412.283C667.831 412.52 667.657 412.722 667.439 412.866C667.221 413.01 666.967 413.09 666.705 413.097Z" fill="black"/>
<path d="M670.551 392.354C670.551 392.354 703.418 407.736 705.972 412.002C708.526 416.268 714.392 438.441 714.392 445.29C714.392 452.138 713.55 452.11 709.284 452.11C705.018 452.11 693.903 435.887 691.349 432.463C688.795 429.039 682.929 429.039 675.126 424.043C672.952 422.663 671.083 420.854 669.635 418.725C668.187 416.596 667.19 414.194 666.706 411.665L670.551 392.354Z" fill="white"/>
<path d="M709.397 453.514C705.72 453.514 699.657 446.188 691.686 435.186C691.125 434.4 690.676 433.754 690.339 433.333C688.735 431.739 686.726 430.613 684.529 430.078C680.988 428.819 677.607 427.152 674.452 425.11C672.091 423.624 670.06 421.669 668.486 419.366C666.912 417.063 665.828 414.461 665.302 411.721C665.289 411.581 665.289 411.44 665.302 411.3L669.148 392.074C669.191 391.867 669.279 391.672 669.405 391.503C669.531 391.333 669.692 391.193 669.877 391.092C670.069 390.995 670.28 390.945 670.495 390.945C670.709 390.945 670.921 390.995 671.112 391.092C676.726 393.674 704.513 406.866 707.151 411.272C709.789 415.679 715.88 438.245 715.88 445.29C715.88 452.335 714.589 453.514 709.397 453.514ZM668.137 411.609C668.638 413.912 669.593 416.091 670.947 418.019C672.302 419.947 674.028 421.585 676.024 422.836C679.004 424.754 682.197 426.318 685.539 427.495C688.241 428.197 690.686 429.658 692.584 431.705C692.921 432.127 693.398 432.772 693.959 433.586C704.232 447.788 707.993 450.763 709.397 450.763C713.101 450.763 713.101 450.763 713.101 445.346C713.101 438.722 707.263 416.914 704.681 412.76C703.053 409.953 684.108 400.41 671.477 394.432L668.137 411.609Z" fill="black"/>
<path d="M656.517 409.673C656.378 409.7 656.235 409.7 656.096 409.673C655.919 409.619 655.754 409.53 655.612 409.411C655.47 409.292 655.354 409.145 655.27 408.98C655.186 408.815 655.137 408.635 655.124 408.45C655.112 408.265 655.137 408.08 655.198 407.905L660.306 392.047C660.358 391.865 660.446 391.696 660.564 391.549C660.683 391.402 660.83 391.281 660.997 391.193C661.163 391.104 661.346 391.05 661.534 391.034C661.722 391.017 661.911 391.039 662.091 391.098C662.27 391.156 662.436 391.25 662.578 391.374C662.72 391.498 662.836 391.65 662.918 391.82C663.001 391.99 663.048 392.174 663.057 392.363C663.066 392.551 663.038 392.74 662.972 392.917L657.864 408.775C657.757 409.043 657.57 409.272 657.33 409.433C657.089 409.593 656.806 409.677 656.517 409.673Z" fill="black"/>
<path d="M905.729 272.759C905.729 272.759 897.309 301.781 893.772 318.846C890.236 335.911 866.462 404.227 866.462 404.227L886.952 417.026C886.952 417.026 932.197 323.28 940.813 302.735C949.43 282.189 946.792 266.865 938.259 258.332" fill="white"/>
<path d="M886.952 418.514C886.692 418.508 886.44 418.431 886.222 418.29L865.733 405.491C865.461 405.323 865.254 405.068 865.147 404.767C865.04 404.465 865.038 404.137 865.143 403.835C865.368 403.161 889.057 335.434 892.397 318.678C895.737 301.922 904.326 272.759 904.326 272.451C904.43 272.078 904.678 271.763 905.015 271.573C905.351 271.384 905.75 271.336 906.122 271.44C906.494 271.544 906.81 271.792 906.999 272.129C907.189 272.466 907.237 272.864 907.132 273.237C907.132 273.517 898.572 302.399 895.204 319.211C892.004 335.238 871.374 394.685 868.203 403.723L886.419 415.09C892.032 403.274 931.635 321.036 939.494 302.174C947.073 283.958 946.259 268.493 937.249 259.315C936.988 259.054 936.842 258.701 936.842 258.333C936.842 257.964 936.988 257.611 937.249 257.35C937.509 257.09 937.863 256.943 938.231 256.943C938.6 256.943 938.953 257.09 939.214 257.35C949.093 267.202 950.132 283.958 942.02 303.269C933.6 323.562 888.692 416.774 888.215 417.728C888.132 417.906 888.011 418.063 887.86 418.189C887.71 418.315 887.534 418.407 887.345 418.458L886.952 418.514Z" fill="black"/>
<path d="M870.335 394.46C871.879 394.46 891.33 405.182 891.33 405.182Z" fill="black"/>
<path d="M735.724 240.285C731.008 239.499 705.832 222.995 688.542 209.635C671.253 196.275 661.822 193.917 661.822 193.917L650.034 201.776C648.25 196.032 648.815 189.815 651.605 184.487C656.321 175.842 672.824 167.197 689.328 160.91C705.832 154.623 724.693 149.262 736.51 149.262C748.326 149.262 751.442 153.977 751.442 160.264C751.442 166.551 751.442 186.199 747.512 201.131C743.583 216.062 735.724 240.285 735.724 240.285Z" fill="white"/>
<g style="mix-blend-mode:multiply">
<path d="M728.314 158.328C728.314 158.328 721.045 180.109 713.775 186.648C708.162 191.356 702.087 195.484 695.644 198.97C695.644 198.97 691.293 183.729 680.403 183.729C669.513 183.729 652.813 190.999 652.813 190.999C652.813 190.999 652.812 185.189 666.594 177.919L680.403 170.678L712.344 158.328H728.314Z" fill="#FFD95C"/>
</g>
<path opacity="0.5" d="M728.314 158.328C728.314 158.328 721.045 180.109 713.775 186.648C708.162 191.356 702.087 195.484 695.644 198.97C695.644 198.97 691.293 183.729 680.403 183.729C669.513 183.729 652.813 190.999 652.813 190.999C652.813 190.999 652.812 185.189 666.594 177.919L680.403 170.678L712.344 158.328H728.314Z" fill="white"/>
<path d="M735.723 241.688H735.471C730.25 240.818 704.4 223.669 687.756 210.814C673.301 199.587 664.376 196.247 662.102 195.517L650.875 203.011C650.692 203.122 650.488 203.194 650.275 203.223C650.063 203.252 649.847 203.237 649.64 203.18C649.439 203.11 649.255 202.996 649.105 202.845C648.954 202.694 648.84 202.511 648.77 202.31C647.808 199.28 647.459 196.089 647.743 192.923C648.028 189.757 648.94 186.679 650.426 183.869C656.04 173.372 676.978 164.222 688.907 159.647C698.281 156.082 721.69 147.774 736.622 147.774C747.596 147.774 752.957 151.816 752.957 160.18C752.957 166.636 752.957 186.311 748.971 201.412C744.986 216.512 737.239 240.538 737.155 240.706C737.066 241.009 736.874 241.273 736.614 241.452C736.353 241.631 736.039 241.714 735.723 241.688ZM661.822 192.514H662.158C662.551 192.514 672.094 195.096 689.412 208.485C705.663 221.031 728.314 235.963 734.797 238.517C736.481 233.24 742.796 213.256 746.024 200.569C749.926 185.834 749.926 166.439 749.926 160.068C749.926 155.325 748.326 150.469 736.397 150.469C726.237 150.469 709.228 154.735 689.721 162.173C670.214 169.611 656.601 178.003 652.728 185.104C650.405 189.515 649.71 194.603 650.763 199.475L660.923 192.711C661.191 192.544 661.508 192.475 661.822 192.514Z" fill="black"/>
<path d="M665.751 140.533C674.959 150.687 681.422 163.024 684.529 176.375C689.637 198.576 721.746 224.679 729.437 224.679C737.127 224.679 736.594 186.62 734.04 175.533C731.486 164.446 721.241 134.554 721.241 134.554C721.241 134.554 680.375 114.907 665.751 140.533Z" fill="white"/>
<path d="M729.549 226.083C721.297 226.083 688.458 199.251 683.266 176.684C680.187 163.598 673.854 151.501 664.853 141.516C664.637 141.298 664.498 141.016 664.457 140.711C664.417 140.407 664.477 140.098 664.629 139.832C679.617 113.392 721.522 133.067 721.943 133.292C722.113 133.372 722.265 133.485 722.39 133.625C722.515 133.765 722.611 133.928 722.672 134.106C723.093 135.313 732.973 164.166 735.527 175.225C737.745 184.936 738.783 216.849 732.889 224.287C732.51 224.825 732.011 225.268 731.431 225.579C730.851 225.891 730.207 226.064 729.549 226.083ZM667.604 140.337C676.608 150.533 682.926 162.813 685.988 176.067C691.096 198.1 723.009 223.276 729.549 223.276C729.549 223.276 730.082 223.276 730.672 222.519C735.443 216.54 735.134 186.031 732.777 175.842C730.419 165.654 721.55 139.775 720.202 135.565C715.515 133.488 680.852 118.977 667.604 140.337Z" fill="black"/>
<g style="mix-blend-mode:multiply">
<path d="M728.314 158.328C728.314 158.328 721.045 180.109 713.775 186.648C708.162 191.356 702.087 195.484 695.644 198.97C695.644 198.97 691.293 183.729 680.403 183.729C669.513 183.729 652.813 190.999 652.813 190.999C652.813 190.999 652.812 185.189 666.594 177.919L680.403 170.678L712.344 158.328H728.314Z" fill="#FFD95C"/>
</g>
<path opacity="0.5" d="M728.314 158.328C728.314 158.328 721.045 180.109 713.775 186.648C708.162 191.356 702.087 195.484 695.644 198.97C695.644 198.97 691.293 183.729 680.403 183.729C669.513 183.729 652.813 190.999 652.813 190.999C652.813 190.999 652.812 185.189 666.594 177.919L680.403 170.678L712.344 158.328H728.314Z" fill="white"/>
<path d="M665.751 140.533C674.959 150.687 681.422 163.024 684.529 176.375C689.637 198.576 721.746 224.679 729.437 224.679C737.127 224.679 736.594 186.62 734.04 175.533C731.486 164.446 721.241 134.554 721.241 134.554C721.241 134.554 680.375 114.907 665.751 140.533Z" fill="white"/>
<path d="M729.549 226.083C721.297 226.083 688.458 199.251 683.266 176.684C680.187 163.598 673.854 151.501 664.853 141.516C664.637 141.298 664.498 141.016 664.457 140.711C664.417 140.407 664.477 140.098 664.629 139.832C679.617 113.392 721.522 133.067 721.943 133.292C722.113 133.372 722.265 133.485 722.39 133.625C722.515 133.765 722.611 133.928 722.672 134.106C723.093 135.313 732.973 164.166 735.527 175.225C737.745 184.936 738.783 216.849 732.889 224.287C732.51 224.825 732.011 225.268 731.431 225.579C730.851 225.891 730.207 226.064 729.549 226.083ZM667.604 140.337C676.608 150.533 682.926 162.813 685.988 176.067C691.096 198.1 723.009 223.276 729.549 223.276C729.549 223.276 730.082 223.276 730.672 222.519C735.443 216.54 735.134 186.031 732.777 175.842C730.419 165.654 721.55 139.775 720.202 135.565C715.515 133.488 680.852 118.977 667.604 140.337Z" fill="black"/>
<path d="M638.778 99.3855C644.8 115.762 652.248 131.578 661.036 146.651C674.003 167.955 699.039 180.024 712.933 174.466C726.826 168.909 736.285 150.974 732.58 123.187C731.766 117.068 726.433 114.57 724.721 109.153C718.574 89.5057 712.315 70.5601 710.154 63.3468C707.347 54.0564 685.118 44.7941 661.962 51.2777C638.806 57.7613 635.073 77.1279 638.778 99.3855Z" fill="white"/>
<path d="M715.712 82.3771C715.712 82.3771 707.291 88.6361 688.374 85.0154C669.456 81.3947 656.433 82.2087 657.163 87.2047C657.893 92.2007 659.352 98.7966 659.352 98.7966C659.352 98.7966 636.645 79.1493 657.219 73.9287C672.039 70.0835 680.599 75.9215 684.22 76.7355C687.841 77.5495 715.712 82.3771 715.712 82.3771Z" fill="#FFD95C"/>
<path opacity="0.5" d="M715.712 82.3771C715.712 82.3771 707.291 88.6361 688.374 85.0154C669.456 81.3947 656.433 82.2087 657.163 87.2047C657.893 92.2007 659.352 98.7966 659.352 98.7966C659.352 98.7966 636.645 79.1493 657.219 73.9287C672.039 70.0835 680.599 75.9215 684.22 76.7355C687.841 77.5495 715.712 82.3771 715.712 82.3771Z" fill="white"/>
<path d="M705.186 177.329C690.114 177.329 670.495 165.008 659.829 147.465C650.966 132.305 643.453 116.395 637.375 99.9189C637.359 99.8449 637.359 99.7684 637.375 99.6944C632.744 72.0478 640.659 55.7406 661.541 49.9025C685.764 43.1102 708.526 53.1023 711.474 62.8978C712.484 66.294 714.28 72.2443 716.778 79.7384C719.585 88.1586 722.757 98.3472 726.012 108.788C726.827 110.866 728.027 112.77 729.549 114.402C731.819 116.785 733.341 119.78 733.928 123.019C738.082 154.202 726.069 170.733 713.438 175.786C710.811 176.822 708.01 177.346 705.186 177.329ZM640.154 99.0208C646.134 115.264 653.516 130.957 662.215 145.922C675.266 167.337 699.938 178.143 712.428 173.147C724.076 168.488 735.134 152.967 731.177 123.355C730.662 120.65 729.387 118.148 727.5 116.142C725.726 114.197 724.361 111.916 723.486 109.434C720.231 99.0208 716.947 88.8042 714.252 80.412C711.866 73.0022 709.958 67.0238 708.919 63.5715C706.562 55.7687 685.82 45.917 662.439 52.3444C643.129 57.9018 635.86 73.1144 640.154 99.0208Z" fill="black"/>
<path d="M655.479 129.952C655.479 129.952 640.631 123.468 639.705 129.952C638.779 136.436 645.318 141.179 651.746 143.986C653.348 144.862 655.176 145.242 656.995 145.077C658.814 144.913 660.543 144.21 661.962 143.059" fill="white"/>
<path d="M656.433 146.456C654.632 146.433 652.855 146.042 651.212 145.305C642.034 141.376 637.459 135.903 638.329 129.896C638.403 129.209 638.644 128.551 639.031 127.979C639.417 127.407 639.937 126.937 640.547 126.612C645.009 124.114 654.917 128.324 656.04 128.83C656.356 128.996 656.597 129.277 656.713 129.615C656.829 129.952 656.812 130.322 656.665 130.648C656.518 130.973 656.253 131.231 655.923 131.367C655.593 131.504 655.223 131.51 654.889 131.384C651.184 129.756 644.364 127.707 641.894 129.054C641.669 129.177 641.479 129.354 641.342 129.57C641.204 129.786 641.124 130.034 641.108 130.289C640.21 136.548 647.732 140.758 652.335 142.723C653.686 143.474 655.227 143.813 656.768 143.698C658.309 143.583 659.783 143.02 661.008 142.077C661.278 141.849 661.624 141.731 661.977 141.748C662.331 141.764 662.665 141.912 662.913 142.164C663.161 142.416 663.305 142.752 663.316 143.105C663.327 143.459 663.205 143.803 662.973 144.07C661.172 145.663 658.836 146.515 656.433 146.456Z" fill="black"/>
<path d="M716.076 93.296C716.076 93.296 699.545 89.3666 706.618 111.4C708.021 115.75 717.648 120.83 717.648 120.83C717.648 120.83 716.862 127.903 712.933 128.689" fill="white"/>
<path d="M712.905 130.092C712.583 130.087 712.272 129.974 712.022 129.77C711.773 129.566 711.599 129.284 711.529 128.97C711.493 128.787 711.493 128.599 711.53 128.416C711.567 128.234 711.639 128.061 711.744 127.906C711.848 127.752 711.983 127.621 712.138 127.519C712.294 127.417 712.469 127.347 712.652 127.314C714.673 126.893 715.712 123.553 716.105 121.7C713.522 120.241 706.618 116.087 705.298 111.933C702.66 103.737 702.885 97.8989 705.944 94.5869C709.705 90.5171 716.105 92.0046 716.385 92.0608C716.746 92.1474 717.057 92.3732 717.252 92.6887C717.446 93.0042 717.508 93.3839 717.424 93.7448C717.384 93.9252 717.309 94.0958 717.202 94.2464C717.095 94.397 716.959 94.5246 716.802 94.6215C716.645 94.7184 716.47 94.7827 716.287 94.8105C716.105 94.8383 715.918 94.8291 715.74 94.7833C715.74 94.7833 710.631 93.6326 707.993 96.4955C705.355 99.3583 705.691 104.018 707.993 111.063C708.891 113.869 714.813 117.827 718.322 119.679C718.566 119.818 718.764 120.025 718.893 120.274C719.023 120.522 719.078 120.803 719.052 121.083C719.052 121.925 718.013 129.222 713.214 130.177L712.905 130.092Z" fill="black"/>
<path d="M704.26 144.406C704.26 144.406 692.472 146.764 687.756 141.263Z" fill="white"/>
<path d="M698.618 146.456C696.45 146.628 694.271 146.347 692.217 145.632C690.164 144.917 688.281 143.783 686.689 142.302C686.57 142.162 686.479 142 686.422 141.824C686.364 141.649 686.342 141.464 686.357 141.281C686.371 141.097 686.421 140.918 686.505 140.753C686.589 140.589 686.704 140.443 686.844 140.323C686.984 140.203 687.146 140.112 687.321 140.055C687.497 139.998 687.681 139.976 687.865 139.991C688.049 140.005 688.228 140.055 688.392 140.139C688.557 140.222 688.703 140.338 688.823 140.478C692.948 145.305 703.895 143.284 704.007 143.284C704.186 143.244 704.372 143.24 704.552 143.274C704.733 143.307 704.905 143.378 705.057 143.48C705.21 143.583 705.34 143.715 705.439 143.87C705.539 144.024 705.605 144.198 705.635 144.379C705.672 144.56 705.673 144.746 705.638 144.927C705.603 145.108 705.532 145.28 705.431 145.434C705.329 145.588 705.198 145.72 705.045 145.823C704.893 145.926 704.721 145.998 704.54 146.035C702.582 146.345 700.601 146.486 698.618 146.456Z" fill="black"/>
<path d="M686.97 107.47C686.97 107.47 678.325 104.326 673.61 108.256C671.086 110.012 669.134 112.472 667.997 115.329" fill="white"/>
<path d="M668.109 116.704H667.772C667.593 116.658 667.425 116.577 667.278 116.467C667.13 116.356 667.005 116.217 666.912 116.058C666.818 115.899 666.756 115.723 666.73 115.54C666.705 115.357 666.715 115.171 666.762 114.992C667.936 111.863 670.005 109.149 672.712 107.189C677.989 102.81 687.083 106.038 687.448 106.179C687.623 106.238 687.785 106.332 687.923 106.456C688.061 106.579 688.173 106.73 688.251 106.897C688.33 107.065 688.374 107.247 688.381 107.432C688.387 107.617 688.356 107.802 688.29 107.975C688.163 108.325 687.903 108.61 687.566 108.768C687.229 108.926 686.843 108.943 686.493 108.817C686.493 108.817 678.55 106.01 674.508 109.35C672.284 110.964 670.546 113.158 669.484 115.693C669.394 115.987 669.211 116.244 668.964 116.426C668.716 116.608 668.416 116.705 668.109 116.704Z" fill="black"/>
<path d="M686.746 120.914C687.869 123.525 687.644 126.107 686.241 126.696C684.837 127.286 682.816 125.686 681.694 123.075C680.571 120.465 680.824 117.911 682.227 117.294C683.63 116.676 685.651 118.388 686.746 120.914Z" fill="black"/>
<path d="M715.01 107.161C716.132 109.743 715.88 112.326 714.504 112.943C713.129 113.561 711.052 111.905 709.957 109.322C708.863 106.74 709.059 104.13 710.463 103.541C711.866 102.951 713.887 104.579 715.01 107.161Z" fill="black"/>
<path d="M651.353 133.685C651.353 133.685 660.727 126.864 659.015 120.886C657.303 114.907 653.907 114.907 657.331 111.511C660.755 108.115 663.281 106.375 662.439 101.267C661.597 96.1583 647.929 87.5977 652.195 82.4894C656.461 77.3812 654.749 71.2624 689.749 79.9072C724.749 88.552 746.951 74.7989 736.706 62.0001C726.461 49.2013 717.929 47.4892 717.929 47.4892C717.929 47.4892 737.576 39.0689 721.353 30.3961C705.13 21.7232 668.418 21.9758 647.928 38.0866C627.439 54.1973 631.705 67.8662 631.705 67.8662C631.705 67.8662 620.619 69.5783 619.749 86.6715C618.879 103.765 651.353 133.685 651.353 133.685Z" fill="black"/>
<path d="M707.207 76.5108C699.746 76.1975 692.4 74.563 685.511 71.6831C680.112 69.3806 674.36 68.0139 668.502 67.6414C654.945 67.6414 652.138 75.3319 652.026 75.6687C651.988 75.7886 651.927 75.8995 651.845 75.9947C651.763 76.0899 651.662 76.1674 651.549 76.2225C651.436 76.2777 651.313 76.3093 651.188 76.3154C651.062 76.3215 650.937 76.302 650.819 76.2581C650.699 76.2199 650.588 76.1583 650.492 76.0768C650.396 75.9953 650.316 75.8956 650.259 75.7834C650.202 75.6712 650.167 75.5487 650.157 75.423C650.147 75.2974 650.163 75.171 650.202 75.0512C650.342 74.6864 653.486 65.7048 668.502 65.7048C674.585 66.0645 680.559 67.4796 686.156 69.8868C694.885 73.0023 703.951 76.2301 715.347 73.704C721.522 72.3287 725.142 70.1114 726.04 67.1643C727.219 63.3751 723.57 59.4176 723.542 59.3615C723.364 59.1826 723.264 58.9404 723.264 58.6879C723.264 58.4353 723.364 58.1931 723.542 58.0142C723.729 57.8406 723.975 57.7441 724.23 57.7441C724.485 57.7441 724.731 57.8406 724.918 58.0142C725.086 58.2107 729.352 62.8419 727.865 67.6976C726.714 71.3744 722.644 74.0127 715.74 75.5565C712.937 76.1762 710.077 76.4961 707.207 76.5108Z" fill="white"/>
<path d="M644.588 74.1533C644.333 74.1318 644.096 74.0111 643.928 73.817C643.76 73.6229 643.675 73.3709 643.69 73.1148C643.69 72.9183 645.346 54.3937 661.766 50.2398C671.449 47.7979 682.648 49.6223 691.658 51.0818C697.271 52.008 702.295 52.822 704.4 52.008C704.631 51.9585 704.873 51.9939 705.08 52.1079C705.287 52.2218 705.446 52.4066 705.528 52.6283C705.61 52.85 705.609 53.0938 705.525 53.315C705.442 53.5361 705.282 53.7198 705.074 53.8324C702.492 54.7867 697.58 54.0008 691.349 52.9904C682.508 51.5308 671.505 49.7626 662.243 52.0922C647.143 55.9375 645.627 73.0867 645.599 73.2551C645.592 73.3805 645.56 73.5033 645.505 73.6163C645.45 73.7294 645.374 73.8306 645.28 73.914C645.186 73.9974 645.077 74.0615 644.958 74.1026C644.839 74.1437 644.714 74.1609 644.588 74.1533Z" fill="white"/>
<path d="M633.726 103.119C633.536 103.116 633.351 103.057 633.193 102.951C630.673 100.837 628.72 98.1292 627.509 95.0712C626.299 92.0133 625.869 88.7018 626.26 85.4363C627.046 73.0866 636.533 72.9463 636.645 72.9463C636.874 72.9853 637.081 73.104 637.231 73.2812C637.38 73.4584 637.462 73.6828 637.462 73.9146C637.462 74.1465 637.38 74.3709 637.231 74.5481C637.081 74.7253 636.874 74.8439 636.645 74.883C636.309 74.883 628.843 75.0514 628.225 85.5486C627.845 88.4855 628.203 91.4708 629.267 94.2346C630.33 96.9985 632.065 99.4538 634.316 101.379C634.419 101.449 634.508 101.539 634.575 101.644C634.643 101.749 634.689 101.867 634.71 101.99C634.731 102.114 634.727 102.24 634.697 102.361C634.668 102.483 634.615 102.598 634.54 102.698C634.455 102.835 634.334 102.946 634.191 103.02C634.048 103.094 633.887 103.128 633.726 103.119Z" fill="white"/>
<path d="M639.536 95.148C639.352 95.1481 639.173 95.0952 639.018 94.9956C638.864 94.8961 638.742 94.7541 638.666 94.5867C637.973 93.3062 637.563 91.8925 637.461 90.4403C637.359 88.9881 637.569 87.5309 638.077 86.1664C639.315 83.4911 641.521 81.3848 644.251 80.2722C644.367 80.2226 644.492 80.1971 644.618 80.1973C644.743 80.1974 644.868 80.2233 644.984 80.2732C645.099 80.3231 645.203 80.396 645.29 80.4876C645.376 80.5791 645.443 80.6873 645.486 80.8055C645.579 81.0401 645.574 81.3016 645.474 81.533C645.374 81.7643 645.187 81.9468 644.953 82.0405C642.718 82.9871 640.903 84.7124 639.845 86.8962C639.447 88.017 639.292 89.2094 639.389 90.3946C639.486 91.5799 639.832 92.7311 640.406 93.7727C640.512 94.0075 640.521 94.2744 640.431 94.5158C640.342 94.7573 640.162 94.9541 639.929 95.0638C639.805 95.1187 639.671 95.1474 639.536 95.148Z" fill="white"/>
<path d="M641.697 110.361C641.542 110.357 641.39 110.318 641.254 110.244C641.117 110.171 641 110.067 640.911 109.94L637.291 104.887C637.142 104.679 637.082 104.42 637.124 104.167C637.166 103.915 637.307 103.689 637.515 103.54C637.724 103.391 637.983 103.331 638.235 103.373C638.488 103.416 638.714 103.556 638.863 103.765L642.483 108.845C642.626 109.05 642.683 109.304 642.641 109.551C642.599 109.797 642.462 110.018 642.259 110.164C642.1 110.294 641.902 110.363 641.697 110.361Z" fill="white"/>
</svg>
