<svg width="1283" height="1108" viewBox="0 0 1283 1108" fill="none" xmlns="http://www.w3.org/2000/svg">
<path d="M810.041 23.5713C926.687 -31.8142 1076.97 29.846 1127.58 146.489L1128.17 147.864C1141.73 179.748 1144.72 211.443 1143.46 243.674C1142.19 276.09 1136.7 308.509 1133.4 342.545V342.553L1133.4 342.561C1133.06 346.339 1132.74 350.061 1132.45 353.785L1132.45 353.793C1128.38 408.305 1148.11 460.986 1170.65 512.801C1193.3 564.856 1218.73 615.944 1227.12 668.157C1239.92 747.808 1215.71 827.398 1171.04 878.805C1126.81 929.707 1062.74 952.836 994.364 921.567L992.748 920.819C890.328 872.748 796.702 907.877 704.12 950.753C657.689 972.256 611.591 995.678 564.322 1012.05C517.122 1028.39 469.035 1037.59 418.855 1030.72H418.853C357.718 1022.4 270.836 995.652 206.833 950.7C174.848 928.235 148.765 901.357 134.352 870.154C119.981 839.044 117.111 803.432 131.863 763.148L131.865 763.145C138.146 745.907 146.342 727.898 154.565 709.249C162.766 690.652 170.971 671.465 177.143 652.083C189.485 613.32 193.837 573.316 173.464 535.067V535.066C166.053 521.156 156.267 508.974 145.978 497.37C135.592 485.658 124.907 474.753 115.148 462.902C55.4051 390.285 41.6193 275.848 74.0127 188.34L74.7861 186.277C99.1015 122.319 134.385 88.4836 176.18 72.665C218.159 56.7763 267.172 58.8768 319.267 67.8408C345.283 72.3175 371.964 78.485 398.821 84.9121C425.649 91.3321 452.675 98.0164 479.25 103.484C532.352 114.41 584.142 120.595 629.929 110.027V110.026C663.771 102.213 693.758 87.6799 722.766 71.5977C751.891 55.4502 779.789 37.8947 810.038 23.5723L810.041 23.5713Z" fill="#550000" stroke="black" stroke-width="6"/>
<path opacity="0.69" d="M810.041 23.5713C926.687 -31.8142 1076.97 29.846 1127.58 146.489L1128.17 147.864C1141.73 179.748 1144.72 211.443 1143.46 243.674C1142.19 276.09 1136.7 308.509 1133.4 342.545V342.553L1133.4 342.561C1133.06 346.339 1132.74 350.061 1132.45 353.785L1132.45 353.793C1128.38 408.305 1148.11 460.986 1170.65 512.801C1193.3 564.856 1218.73 615.944 1227.12 668.157C1239.92 747.808 1215.71 827.398 1171.04 878.805C1126.81 929.707 1062.74 952.836 994.364 921.567L992.748 920.819C890.328 872.748 796.702 907.877 704.12 950.753C657.689 972.256 611.591 995.678 564.322 1012.05C517.122 1028.39 469.035 1037.59 418.855 1030.72H418.853C357.718 1022.4 270.836 995.652 206.833 950.7C174.848 928.235 148.765 901.357 134.352 870.154C119.981 839.044 117.111 803.432 131.863 763.148L131.865 763.145C138.146 745.907 146.342 727.898 154.565 709.249C162.766 690.652 170.971 671.465 177.143 652.083C189.485 613.32 193.837 573.316 173.464 535.067V535.066C166.053 521.156 156.267 508.974 145.978 497.37C135.592 485.658 124.907 474.753 115.148 462.902C55.4051 390.285 41.6193 275.848 74.0127 188.34L74.7861 186.277C99.1015 122.319 134.385 88.4836 176.18 72.665C218.159 56.7763 267.172 58.8768 319.267 67.8408C345.283 72.3175 371.964 78.485 398.821 84.9121C425.649 91.3321 452.675 98.0164 479.25 103.484C532.352 114.41 584.142 120.595 629.929 110.027V110.026C663.771 102.213 693.758 87.6799 722.766 71.5977C751.891 55.4502 779.789 37.8947 810.038 23.5723L810.041 23.5713Z" fill="white" stroke="black" stroke-width="6"/>
<path d="M168.632 386.703C223.454 386.703 267.897 342.26 267.897 287.437C267.897 232.614 223.454 188.172 168.632 188.172C113.809 188.172 69.3662 232.614 69.3662 287.437C69.3662 342.26 113.809 386.703 168.632 386.703Z" fill="white" stroke="#2E353A" stroke-linecap="round" stroke-linejoin="round"/>
<path d="M161.244 376.842C216.067 376.842 260.509 332.4 260.509 277.577C260.509 222.754 216.067 178.311 161.244 178.311C106.421 178.311 61.9785 222.754 61.9785 277.577C61.9785 332.4 106.421 376.842 161.244 376.842Z" fill="white" stroke="#2E353A" stroke-linecap="round" stroke-linejoin="round"/>
<path d="M161.244 366.982C210.621 366.982 250.649 326.954 250.649 277.577C250.649 228.2 210.621 188.172 161.244 188.172C111.867 188.172 71.8389 228.2 71.8389 277.577C71.8389 326.954 111.867 366.982 161.244 366.982Z" fill="#2E353A" stroke="#2E353A" stroke-linecap="round" stroke-linejoin="round"/>
<path d="M150.751 210.365C150.751 210.365 140.89 185.7 123.642 168.451C106.393 151.202 36.0766 140.077 36.0766 140.077C47.4311 151.029 57.7565 163 66.9227 175.839C82.9351 198.032 135.917 248.599 135.917 248.599C135.917 248.599 110.044 226.406 86.5861 223.934C63.1281 221.461 3.96556 233.794 0.343365 233.794C-3.27883 233.794 22.5365 243.655 41.0499 252.279C59.5634 260.903 131.059 268.32 131.059 268.32C131.059 268.32 100.241 276.944 79.3129 284.361C58.3847 291.778 38.5489 345.996 38.5489 345.996C38.5489 345.996 65.6866 321.331 89.1159 315.179C112.545 309.027 145.835 297.93 145.835 297.93C145.835 297.93 124.878 321.359 119.962 337.4C115.046 353.442 118.726 390.411 118.726 390.411C118.726 390.411 129.822 355.914 143.391 342.316C156.96 328.719 171.708 305.462 171.708 305.462C178.538 316.595 184.719 328.113 190.221 339.959C200.081 360.916 206.233 391.705 206.233 391.705C206.233 391.705 222.275 357.208 221.038 339.959C219.802 322.71 201.318 291.864 201.318 291.864C201.318 291.864 213.65 283.24 232.135 290.628C250.62 298.016 282.702 328.862 282.702 328.862C282.702 328.862 275.285 288.156 262.952 272.143C250.62 256.131 197.609 251.158 197.609 251.158C197.609 251.158 227.219 233.909 245.704 230.201C264.189 226.492 288.825 235.145 288.825 235.145C288.825 235.145 260.48 195.675 238.287 193.203C216.094 190.73 182.804 225.17 182.804 225.17L192.693 175.839C195.137 163.506 190.221 132.718 190.221 132.718C190.221 132.718 176.652 140.106 160.611 163.535C155.916 170.283 152.625 177.906 150.931 185.95C149.237 193.994 149.176 202.297 150.751 210.365Z" fill="#C9A5A7"/>
<path opacity="0.5" d="M150.751 210.365C150.751 210.365 140.89 185.7 123.642 168.451C106.393 151.202 36.0766 140.077 36.0766 140.077C47.4311 151.029 57.7565 163 66.9227 175.839C82.9351 198.032 135.917 248.599 135.917 248.599C135.917 248.599 110.044 226.406 86.5861 223.934C63.1281 221.461 3.96556 233.794 0.343365 233.794C-3.27883 233.794 22.5365 243.655 41.0499 252.279C59.5634 260.903 131.059 268.32 131.059 268.32C131.059 268.32 100.241 276.944 79.3129 284.361C58.3847 291.778 38.5489 345.996 38.5489 345.996C38.5489 345.996 65.6866 321.331 89.1159 315.179C112.545 309.027 145.835 297.93 145.835 297.93C145.835 297.93 124.878 321.359 119.962 337.4C115.046 353.442 118.726 390.411 118.726 390.411C118.726 390.411 129.822 355.914 143.391 342.316C156.96 328.719 171.708 305.462 171.708 305.462C178.538 316.595 184.719 328.113 190.221 339.959C200.081 360.916 206.233 391.705 206.233 391.705C206.233 391.705 222.275 357.208 221.038 339.959C219.802 322.71 201.318 291.864 201.318 291.864C201.318 291.864 213.65 283.24 232.135 290.628C250.62 298.016 282.702 328.862 282.702 328.862C282.702 328.862 275.285 288.156 262.952 272.143C250.62 256.131 197.609 251.158 197.609 251.158C197.609 251.158 227.219 233.909 245.704 230.201C264.189 226.492 288.825 235.145 288.825 235.145C288.825 235.145 260.48 195.675 238.287 193.203C216.094 190.73 182.804 225.17 182.804 225.17L192.693 175.839C195.137 163.506 190.221 132.718 190.221 132.718C190.221 132.718 176.652 140.106 160.611 163.535C155.916 170.283 152.625 177.906 150.931 185.95C149.237 193.994 149.176 202.297 150.751 210.365Z" fill="black"/>
<path d="M175.042 172.821C175.904 169.285 176.853 165.749 177.917 162.27" stroke="#2E353A" stroke-width="0.5" stroke-linecap="round" stroke-linejoin="round"/>
<path d="M92.6807 172.821C104.18 181.244 118.553 192.944 126.085 202.977C139.654 221.462 166.792 260.932 166.792 260.932C166.015 234.421 168.116 207.905 173.059 181.847" stroke="#2E353A" stroke-width="0.5" stroke-linecap="round" stroke-linejoin="round"/>
<path d="M75.5469 161.034C75.5469 161.034 79.1403 163.334 84.5161 167.042" stroke="#2E353A" stroke-width="0.5" stroke-linecap="round" stroke-linejoin="round"/>
<path d="M166.792 260.932C166.792 260.932 213.651 214.073 233.371 210.365C253.092 206.657 270.369 221.462 270.369 221.462" stroke="#2E353A" stroke-width="0.5" stroke-linecap="round" stroke-linejoin="round"/>
<path d="M83.0502 300.115C71.5512 307.359 70.6025 311.614 70.6025 311.614" stroke="#2E353A" stroke-width="0.5" stroke-linecap="round" stroke-linejoin="round"/>
<path d="M269.133 304.082C269.133 304.082 261.745 285.569 235.844 276.944C209.942 268.32 169.293 267.084 169.293 267.084C169.293 267.084 112.229 285.77 91.3584 295.515" stroke="#2E353A" stroke-width="0.5" stroke-linecap="round" stroke-linejoin="round"/>
<path d="M144.34 260.041C158.139 264.065 169.264 267.084 169.264 267.084" stroke="#2E353A" stroke-width="0.5" stroke-linecap="round" stroke-linejoin="round"/>
<path d="M57.4932 238.135C70.8895 238.94 88.1381 240.78 97.7398 244.891C105.559 248.254 120.968 253.113 135.514 257.454" stroke="#2E353A" stroke-width="0.5" stroke-linecap="round" stroke-linejoin="round"/>
<path d="M38.5488 237.503C38.5488 237.503 43.0622 237.503 49.7029 237.761" stroke="#2E353A" stroke-width="0.5" stroke-linecap="round" stroke-linejoin="round"/>
<path d="M166.792 274.472C166.792 274.472 132.295 326.218 129.794 338.608C128.312 345.917 127.485 353.345 127.321 360.801" stroke="#2E353A" stroke-width="0.5" stroke-linecap="round" stroke-linejoin="round"/>
<path d="M182.143 290.772C188.783 299.396 196.746 310.895 200.081 320.094C203.963 331.318 206.849 342.862 208.705 354.591" stroke="#2E353A" stroke-width="0.5" stroke-linecap="round" stroke-linejoin="round"/>
<path d="M171.708 278.18C171.708 278.18 174.583 281.228 178.291 285.914" stroke="#2E353A" stroke-width="0.5" stroke-linecap="round" stroke-linejoin="round"/>
<path d="M135.083 221.002C135.083 221.002 128.73 195.129 132.668 171.125C136.607 147.12 187.289 97.0133 187.289 97.0133C184.472 112.531 183.077 128.273 183.12 144.044C183.12 171.412 169.465 243.396 169.465 243.396C169.465 243.396 177.543 210.279 195.137 194.525C212.73 178.771 268.012 154.278 271.002 152.18C273.991 150.081 258.727 173.137 248.751 190.96C238.776 208.784 184.932 256.591 184.932 256.591C184.932 256.591 215.001 245.609 236.332 239.343C257.663 233.076 305.326 265.675 305.326 265.675C305.326 265.675 268.903 261.478 246.279 270.131C223.655 278.784 190.135 289.191 190.135 289.191C190.135 289.191 220.837 296.004 234.176 306.152C247.515 316.3 266.143 348.583 266.143 348.583C266.143 348.583 236.993 326.994 218.049 323.889C199.104 320.784 173.433 310.406 173.433 310.406C174.406 323.429 176.115 336.386 178.55 349.216C182.775 372.013 195.798 400.645 195.798 400.645C195.798 400.645 162.652 381.959 153.568 367.212C144.484 352.464 141.551 316.645 141.551 316.645C141.551 316.645 126.488 316.817 115.679 333.606C104.87 350.394 96.9065 394.148 96.9065 394.148C96.9065 394.148 79.198 356.776 79.8592 336.653C80.5204 316.53 120.709 281.515 120.709 281.515C120.709 281.515 86.6149 284.764 69.4238 292.526C52.2328 300.287 37.2266 321.704 37.2266 321.704C37.2266 321.704 37.2266 273.121 53.8427 258.172C70.4587 243.223 117.633 251.848 117.633 251.848L80.8366 217.552C71.6374 208.928 57.6661 181.042 57.6661 181.042C57.6661 181.042 73.0173 179.145 99.695 188.833C107.449 191.548 114.578 195.795 120.658 201.321C126.737 206.848 131.643 213.541 135.083 221.002Z" fill="#C9A5A7"/>
<path d="M93.4567 204.673C90.5819 202.287 87.8796 199.987 85.0049 197.745" stroke="#2E353A" stroke-width="0.5" stroke-linecap="round" stroke-linejoin="round"/>
<path d="M160.352 156.636C155.897 170.205 150.923 188.057 150.808 200.591C150.578 223.589 151.556 271.396 151.556 271.396C136.718 249.415 119.531 229.115 100.299 210.854" stroke="#2E353A" stroke-width="0.5" stroke-linecap="round" stroke-linejoin="round"/>
<path d="M167.425 137.059C167.425 137.059 165.815 141.026 163.63 147.149" stroke="#2E353A" stroke-width="0.5" stroke-linecap="round" stroke-linejoin="round"/>
<path d="M151.555 271.396C151.555 271.396 86.1545 260.673 67.9861 269.182C49.8176 277.692 44.4131 299.712 44.4131 299.712" stroke="#2E353A" stroke-width="0.5" stroke-linecap="round" stroke-linejoin="round"/>
<path d="M242.455 254.377C255.938 253.63 259.157 256.361 259.157 256.361" stroke="#2E353A" stroke-width="0.5" stroke-linecap="round" stroke-linejoin="round"/>
<path d="M93.6006 366.148C93.6006 366.148 88.8286 346.801 104.812 324.694C120.796 302.587 153.166 277.864 153.166 277.864C153.166 277.864 210.402 259.725 233.026 255.499" stroke="#2E353A" stroke-width="0.5" stroke-linecap="round" stroke-linejoin="round"/>
<path d="M169.293 257.597C160.439 268.895 153.194 277.864 153.194 277.864" stroke="#2E353A" stroke-width="0.5" stroke-linecap="round" stroke-linejoin="round"/>
<path d="M227.047 189.149C216.64 197.774 203.704 209.273 198.299 218.098C193.901 225.4 184.213 238.221 174.928 250.324" stroke="#2E353A" stroke-width="0.5" stroke-linecap="round" stroke-linejoin="round"/>
<path d="M242.053 177.564C242.053 177.564 238.402 180.209 233.142 184.291" stroke="#2E353A" stroke-width="0.5" stroke-linecap="round" stroke-linejoin="round"/>
<path d="M159.461 282.464C159.461 282.464 217.732 304.37 226.903 312.965C232.371 318.036 237.374 323.588 241.851 329.552" stroke="#2E353A" stroke-width="0.5" stroke-linecap="round" stroke-linejoin="round"/>
<path d="M156.501 304.599C156.098 315.466 156.299 329.409 159.03 338.895C162.419 350.293 166.816 361.366 172.168 371.984" stroke="#2E353A" stroke-width="0.5" stroke-linecap="round" stroke-linejoin="round"/>
<path d="M157.621 288.213C157.621 288.213 157.161 292.296 156.816 298.333" stroke="#2E353A" stroke-width="0.5" stroke-linecap="round" stroke-linejoin="round"/>
<path d="M326.916 352.694H978.537C986.672 352.694 994.474 355.926 1000.23 361.678C1005.98 367.431 1009.21 375.233 1009.21 383.368V805.957C1009.21 810.363 1008.34 814.725 1006.66 818.795C1004.97 822.866 1002.5 826.564 999.384 829.679C996.269 832.795 992.571 835.266 988.501 836.952C984.43 838.638 980.068 839.505 975.662 839.505H329.791C325.385 839.505 321.022 838.638 316.952 836.952C312.882 835.266 309.184 832.795 306.068 829.679C302.953 826.564 300.482 822.866 298.796 818.795C297.11 814.725 296.242 810.363 296.242 805.957V383.368C296.242 375.233 299.474 367.431 305.226 361.678C310.979 355.926 318.781 352.694 326.916 352.694Z" fill="white" stroke="#2E353A" stroke-linecap="round" stroke-linejoin="round"/>
<path d="M565.405 400.616H525.273V426.978H565.405V400.616Z" fill="#2E353A"/>
<path d="M435.38 563.241H398.123V600.211H435.38V563.241Z" fill="#2E353A"/>
<path d="M599.989 433.302H562.444V470.272H599.989V433.302Z" fill="#2E353A"/>
<path d="M518.921 400.616H478.789V426.978H518.921V400.616Z" fill="#2E353A"/>
<path d="M643.858 433.302H606.313V470.272H643.858V433.302Z" fill="#2E353A"/>
<path d="M611.861 400.616H571.729V426.978H611.861V400.616Z" fill="#2E353A"/>
<path d="M412.871 519.919H342.267V556.888H412.871V519.919Z" fill="#2E353A"/>
<path d="M512.222 433.302H474.678V470.272H512.222V433.302Z" fill="#2E353A"/>
<path d="M391.799 563.241H342.267V600.211H391.799V563.241Z" fill="#2E353A"/>
<path d="M658.346 400.616H618.215V426.978H658.346V400.616Z" fill="#2E353A"/>
<path d="M424.456 433.302H386.912V470.272H424.456V433.302Z" fill="#2E353A"/>
<path d="M425.979 400.616H385.848V426.978H425.979V400.616Z" fill="#2E353A"/>
<path d="M472.465 400.616H432.333V426.978H472.465V400.616Z" fill="#2E353A"/>
<path d="M468.325 433.302H430.78V470.272H468.325V433.302Z" fill="#2E353A"/>
<path d="M556.091 433.302H518.547V470.272H556.091V433.302Z" fill="#2E353A"/>
<path d="M844.257 400.616H804.125V426.978H844.257V400.616Z" fill="#2E353A"/>
<path d="M890.713 400.616H850.581V426.978H890.713V400.616Z" fill="#2E353A"/>
<path d="M863.287 433.302H825.743V470.272H863.287V433.302Z" fill="#2E353A"/>
<path d="M907.185 433.302H869.641V470.272H907.185V433.302Z" fill="#2E353A"/>
<path d="M976.611 563.241H921.329V600.211H976.611V563.241Z" fill="#2E353A"/>
<path d="M937.198 400.616H897.066V426.978H937.198V400.616Z" fill="#2E353A"/>
<path d="M380.587 433.302H342.267V470.272H380.587V433.302Z" fill="#2E353A"/>
<path d="M704.831 400.616H664.699V426.978H704.831V400.616Z" fill="#2E353A"/>
<path d="M751.287 400.616H711.155V426.978H751.287V400.616Z" fill="#2E353A"/>
<path d="M731.653 433.302H694.108V470.272H731.653V433.302Z" fill="#2E353A"/>
<path d="M819.419 433.302H781.875V470.272H819.419V433.302Z" fill="#2E353A"/>
<path d="M687.755 433.302H650.211V470.272H687.755V433.302Z" fill="#2E353A"/>
<path d="M775.521 433.302H737.977V470.272H775.521V433.302Z" fill="#2E353A"/>
<path d="M797.772 400.616H757.641V426.978H797.772V400.616Z" fill="#2E353A"/>
<path d="M740.593 563.241H703.336V600.211H740.593V563.241Z" fill="#2E353A"/>
<path d="M936.076 519.919H898.819V556.888H936.076V519.919Z" fill="#2E353A"/>
<path d="M892.467 519.919H855.21V556.888H892.467V519.919Z" fill="#2E353A"/>
<path d="M914.976 563.241H877.719V600.211H914.976V563.241Z" fill="#2E353A"/>
<path d="M871.395 563.241H834.138V600.211H871.395V563.241Z" fill="#2E353A"/>
<path d="M784.175 563.241H746.918V600.211H784.175V563.241Z" fill="#2E353A"/>
<path d="M827.784 563.241H790.527V600.211H827.784V563.241Z" fill="#2E353A"/>
<path d="M848.857 519.919H811.6V556.888H848.857V519.919Z" fill="#2E353A"/>
<path d="M805.275 519.919H768.019V556.888H805.275V519.919Z" fill="#2E353A"/>
<path d="M976.639 400.616H943.551V426.978H976.639V400.616Z" fill="#2E353A"/>
<path d="M379.523 400.616H342.267V426.978H379.523V400.616Z" fill="#2E353A"/>
<path d="M976.639 606.535H342.267V644.971H976.639V606.535Z" fill="#2E353A"/>
<path d="M976.611 433.302H913.51V470.272H976.611V433.302Z" fill="#2E353A"/>
<path d="M976.61 519.919H942.4V556.888H976.61V519.919Z" fill="#2E353A"/>
<path d="M931.879 513.307H925.526V476.625H888.269V513.307H881.945V476.625H844.688V513.307H838.335V476.625H801.078V513.307H794.725V476.625H757.468V513.307H751.143V476.625H713.886V513.307H707.533V476.625H670.276V513.307H663.923V476.625H626.666V513.307H620.342V476.625H583.085V513.307H576.732V476.625H539.475V513.307H533.122V476.625H495.865V513.307H489.54V476.625H452.284V513.307H445.93V476.625H408.673V513.307H402.32V476.625H342.267V513.594H976.61V476.625H931.879V513.307Z" fill="#2E353A"/>
<path d="M630.863 519.919H593.606V556.888H630.863V519.919Z" fill="#2E353A"/>
<path d="M761.665 519.919H724.408V556.888H761.665V519.919Z" fill="#2E353A"/>
<path d="M543.672 519.919H506.415V556.888H543.672V519.919Z" fill="#2E353A"/>
<path d="M566.182 563.241H528.925V600.211H566.182V563.241Z" fill="#2E353A"/>
<path d="M587.254 519.919H549.997V556.888H587.254V519.919Z" fill="#2E353A"/>
<path d="M500.062 519.919H462.806V556.888H500.062V519.919Z" fill="#2E353A"/>
<path d="M478.99 563.241H441.733V600.211H478.99V563.241Z" fill="#2E353A"/>
<path d="M522.571 563.241H485.314V600.211H522.571V563.241Z" fill="#2E353A"/>
<path d="M674.474 519.919H637.217V556.888H674.474V519.919Z" fill="#2E353A"/>
<path d="M696.983 563.241H659.727V600.211H696.983V563.241Z" fill="#2E353A"/>
<path d="M718.055 519.919H680.798V556.888H718.055V519.919Z" fill="#2E353A"/>
<path d="M609.792 563.241H572.535V600.211H609.792V563.241Z" fill="#2E353A"/>
<path d="M653.373 563.241H616.116V600.211H653.373V563.241Z" fill="#2E353A"/>
<path d="M456.452 519.919H419.195V556.888H456.452V519.919Z" fill="#2E353A"/>
<path d="M1049.92 88.2166H251.712C247.798 88.2196 243.936 89.1228 240.427 90.8564C236.917 92.5899 233.853 95.1073 231.472 98.214C229.09 101.321 227.455 104.933 226.693 108.773C225.931 112.612 226.061 116.576 227.075 120.356L285.433 337.63C286.887 343.054 290.089 347.847 294.543 351.267C298.997 354.686 304.454 356.542 310.069 356.546H391.54V371.581H913.855V356.633H991.473C997.088 356.628 1002.55 354.772 1007 351.353C1011.45 347.933 1014.66 343.14 1016.11 337.717L1074.47 120.443C1075.49 116.663 1075.64 112.698 1074.89 108.854C1074.14 105.01 1072.51 101.39 1070.14 98.2744C1067.77 95.1588 1064.71 92.6312 1061.2 90.8871C1057.69 89.143 1053.83 88.2293 1049.92 88.2166Z" fill="#2E353A" stroke="#2E353A" stroke-linecap="round" stroke-linejoin="round"/>
<path d="M959.65 337.372H341.98L280.201 115.067H1021.4L959.65 337.372Z" fill="#FFCDCD" fill-opacity="0.74" stroke="#2E353A" stroke-linecap="round" stroke-linejoin="round"/>
<path d="M382.973 239.802V242.677H372.078V239.802H382.973Z" fill="#2E353A"/>
<path d="M396.542 239.802V242.677H385.618V239.802H396.542Z" fill="#2E353A"/>
<path d="M410.111 239.802V242.677H399.273V239.802H410.111Z" fill="#2E353A"/>
<path d="M423.651 239.802V242.677H412.756V239.802H423.651Z" fill="#2E353A"/>
<path d="M437.22 239.802V242.677H426.296V239.802H437.22Z" fill="#2E353A"/>
<path d="M450.788 239.802V242.677H439.864V239.802H450.788Z" fill="#2E353A"/>
<path d="M464.329 239.802V242.677H453.434V239.802H464.329Z" fill="#2E353A"/>
<path d="M477.754 254.952L465.737 222.928H468.612L480.629 254.952H477.754Z" fill="#2E353A"/>
<path d="M371.992 193.174V196.049H361.097V193.174H371.992Z" fill="#2E353A"/>
<path d="M385.56 193.174V196.049H374.665V193.174H385.56Z" fill="#2E353A"/>
<path d="M399.273 193.174V196.049H388.349V193.174H399.273Z" fill="#2E353A"/>
<path d="M412.698 193.174V196.049H401.774V193.174H412.698Z" fill="#2E353A"/>
<path d="M426.238 193.174V196.049H415.343V193.174H426.238Z" fill="#2E353A"/>
<path d="M449.179 193.174V196.049H438.255V193.174H449.179Z" fill="#2E353A"/>
<path d="M462.719 193.174V196.049H451.823V193.174H462.719Z" fill="#2E353A"/>
<path d="M476.288 193.174V196.049H465.393V193.174H476.288Z" fill="#2E353A"/>
<path d="M489.857 193.174V196.049H478.933V193.174H489.857Z" fill="#2E353A"/>
<path d="M503.397 193.174V196.049H492.502V193.174H503.397Z" fill="#2E353A"/>
<path d="M516.966 193.174V196.049H506.07V193.174H516.966Z" fill="#2E353A"/>
<path d="M530.534 193.174V196.049H519.61V193.174H530.534Z" fill="#2E353A"/>
<path d="M553.446 193.174V196.049H542.551V193.174H553.446Z" fill="#2E353A"/>
<path d="M567.015 193.174V196.049H556.091V193.174H567.015Z" fill="#2E353A"/>
<path d="M580.584 193.174V196.049H569.66V193.174H580.584Z" fill="#2E353A"/>
<path d="M603.381 193.174V196.049H592.485V193.174H603.381Z" fill="#2E353A"/>
<path d="M617.065 193.174V196.049H606.256V193.174H617.065Z" fill="#2E353A"/>
<path d="M630.633 193.174V196.049H619.709V193.174H630.633Z" fill="#2E353A"/>
<path d="M681.632 193.174V196.049H670.736V193.174H681.632Z" fill="#2E353A"/>
<path d="M695.2 193.174V196.049H684.276V193.174H695.2Z" fill="#2E353A"/>
<path d="M708.77 193.174V196.049H697.846V193.174H708.77Z" fill="#2E353A"/>
<path d="M722.309 193.174V196.049H711.414V193.174H722.309Z" fill="#2E353A"/>
<path d="M735.878 193.174V196.049H724.954V193.174H735.878Z" fill="#2E353A"/>
<path d="M758.79 193.174V196.049H747.895V193.174H758.79Z" fill="#2E353A"/>
<path d="M772.359 193.174V196.049H761.492V193.174H772.359Z" fill="#2E353A"/>
<path d="M785.928 193.174V196.049H775.004V193.174H785.928Z" fill="#2E353A"/>
<path d="M808.84 193.174V196.049H797.944V193.174H808.84Z" fill="#2E353A"/>
<path d="M831.781 193.174V196.049H820.856V193.174H831.781Z" fill="#2E353A"/>
<path d="M1013.58 665.64L982.82 784.31L1011.91 792.848L1013.58 665.64Z" fill="white" stroke="#2E353A" stroke-linecap="round" stroke-linejoin="round"/>
<path d="M1027.38 540.215C1023.91 534.881 1022.64 528.41 1023.84 522.161C1025.42 510.461 1039.54 507.787 1039.54 507.787C1039.54 507.787 1042.62 505.459 1053.91 509.742C1065.21 514.026 1152.58 525.87 1208.4 533.43C1264.23 540.991 1282.31 536.104 1281.54 555.278C1280.76 574.453 1231.77 746.536 1231.03 751.94C1230.28 757.345 1027.38 540.215 1027.38 540.215Z" fill="white" stroke="#2E353A" stroke-miterlimit="10"/>
<path d="M1262.2 572.056L1027.36 540.22L989.406 820.162L1224.25 851.998L1262.2 572.056Z" fill="white" stroke="#2E353A" stroke-linecap="round" stroke-linejoin="round"/>
<path d="M1218.55 627.895L1232.21 629.763" stroke="#2E353A" stroke-width="0.5" stroke-linecap="round" stroke-linejoin="round"/>
<path d="M1133.03 616.309L1207.74 626.457" stroke="#2E353A" stroke-width="0.5" stroke-linecap="round" stroke-linejoin="round"/>
<path d="M1042.47 604.034L1122.22 614.843" stroke="#2E353A" stroke-width="0.5" stroke-linecap="round" stroke-linejoin="round"/>
<path d="M1197.16 650.347L1228.84 654.659" stroke="#2E353A" stroke-width="0.5" stroke-linecap="round" stroke-linejoin="round"/>
<path d="M1039.11 628.93L1164.76 645.948" stroke="#2E353A" stroke-width="0.5" stroke-linecap="round" stroke-linejoin="round"/>
<path d="M1102.87 662.909L1225.48 679.525" stroke="#2E353A" stroke-width="0.5" stroke-linecap="round" stroke-linejoin="round"/>
<path d="M1035.72 653.796L1090.25 661.213" stroke="#2E353A" stroke-width="0.5" stroke-linecap="round" stroke-linejoin="round"/>
<path d="M1143.61 693.784L1222.09 704.421" stroke="#2E353A" stroke-width="0.5" stroke-linecap="round" stroke-linejoin="round"/>
<path d="M1077 684.729L1134.61 692.548" stroke="#2E353A" stroke-width="0.5" stroke-linecap="round" stroke-linejoin="round"/>
<path d="M1032.35 678.692L1067.08 683.406" stroke="#2E353A" stroke-width="0.5" stroke-linecap="round" stroke-linejoin="round"/>
<path d="M1190.64 725.493L1218.72 729.287" stroke="#2E353A" stroke-width="0.5" stroke-linecap="round" stroke-linejoin="round"/>
<path d="M1028.99 703.587L1171.75 722.934" stroke="#2E353A" stroke-width="0.5" stroke-linecap="round" stroke-linejoin="round"/>
<path d="M1135.96 743.402L1215.36 754.183" stroke="#2E353A" stroke-width="0.5" stroke-linecap="round" stroke-linejoin="round"/>
<path d="M1025.6 728.454L1122.45 741.591" stroke="#2E353A" stroke-width="0.5" stroke-linecap="round" stroke-linejoin="round"/>
<path d="M1160.48 772.093L1211.97 779.049" stroke="#2E353A" stroke-width="0.5" stroke-linecap="round" stroke-linejoin="round"/>
<path d="M1056.07 757.92L1147.89 770.368" stroke="#2E353A" stroke-width="0.5" stroke-linecap="round" stroke-linejoin="round"/>
<path d="M1022.23 753.349L1045.26 756.454" stroke="#2E353A" stroke-width="0.5" stroke-linecap="round" stroke-linejoin="round"/>
<path d="M1262.22 572.067C1262.22 572.067 1266.24 533.028 1280.62 548.724" stroke="#2E353A" stroke-linecap="round" stroke-linejoin="round"/>
<path d="M1182.59 872.795L1182.33 897.604L1167.87 877.194L1109.83 681.969L1124.55 677.57L1182.59 872.795Z" fill="white" stroke="#2E353A" stroke-linecap="round" stroke-linejoin="round"/>
<path d="M1118.78 685.913L1110.75 688.255L1167.78 883.785L1175.81 881.442L1118.78 685.913Z" fill="#550000" stroke="#2E353A" stroke-width="0.5" stroke-linecap="round" stroke-linejoin="round"/>
<path d="M1182.59 872.853L1167.9 877.222L1182.33 897.604L1182.59 872.853Z" stroke="#2E353A" stroke-linecap="round" stroke-linejoin="round"/>
<path d="M1175.11 887.399L1182.33 897.604L1182.47 885.214L1175.11 887.399Z" fill="#2E353A" stroke="#2E353A" stroke-linecap="round" stroke-linejoin="round"/>
<path d="M1110.69 657.907C1108.74 658.493 1107.1 659.825 1106.14 661.613C1105.17 663.401 1104.94 665.5 1105.51 667.451L1109.83 681.969L1124.55 677.599L1120.23 663.082C1119.65 661.134 1118.32 659.497 1116.53 658.528C1114.74 657.558 1112.64 657.335 1110.69 657.907Z" fill="white" stroke="#2E353A" stroke-linecap="round" stroke-linejoin="round"/>
<path d="M1110.69 657.907C1108.74 658.493 1107.1 659.825 1106.14 661.613C1105.17 663.401 1104.94 665.5 1105.51 667.451L1107.58 674.379L1122.27 670.01L1120.23 663.082C1119.65 661.134 1118.32 659.497 1116.53 658.528C1114.74 657.558 1112.64 657.335 1110.69 657.907Z" fill="#2E353A" stroke="#2E353A" stroke-linecap="round" stroke-linejoin="round"/>
<path d="M386.769 542.601C384.929 545.188 383.118 547.89 381.307 550.736" stroke="white" stroke-linecap="round" stroke-linejoin="round"/>
<path d="M416.838 507.989C408.828 515.413 401.417 523.459 394.674 532.05" stroke="white" stroke-linecap="round" stroke-linejoin="round"/>
<path d="M384.21 523.253C376.356 534.27 369.24 545.794 362.908 557.75" stroke="white" stroke-linecap="round" stroke-linejoin="round"/>
<path d="M586.966 586.469C585.155 589.057 583.315 591.759 581.504 594.576" stroke="white" stroke-linecap="round" stroke-linejoin="round"/>
<path d="M617.036 551.857C609.041 559.288 601.639 567.333 594.9 575.919" stroke="white" stroke-linecap="round" stroke-linejoin="round"/>
<path d="M584.437 567.065C576.587 578.144 569.471 589.725 563.135 601.734" stroke="white" stroke-linecap="round" stroke-linejoin="round"/>
<path d="M873.925 515.319C871.309 513.537 868.549 511.754 865.703 509.972" stroke="white" stroke-linecap="round" stroke-linejoin="round"/>
<path d="M908.996 544.872C901.436 536.997 893.276 529.722 884.59 523.11" stroke="white" stroke-linecap="round" stroke-linejoin="round"/>
<path d="M893.243 512.444C882.056 504.762 870.379 497.819 858.286 491.66" stroke="white" stroke-linecap="round" stroke-linejoin="round"/>
<path d="M578.227 693.554C576.732 704.363 574.489 719.427 572.247 728.367" stroke="#2E353A" stroke-linecap="round" stroke-linejoin="round"/>
<path d="M579.895 680.416C579.895 680.416 579.665 682.458 579.233 685.763" stroke="#2E353A" stroke-linecap="round" stroke-linejoin="round"/>
<path d="M587.57 711.09C584.431 721.562 580.59 731.809 576.071 741.764" stroke="#2E353A" stroke-linecap="round" stroke-linejoin="round"/>
<path d="M731.308 726.413C731.308 726.413 733.234 751.337 746.63 764.762" stroke="#2E353A" stroke-linecap="round" stroke-linejoin="round"/>
<path d="M729.382 751.337C729.382 751.337 735.131 768.585 746.63 776.261" stroke="#2E353A" stroke-linecap="round" stroke-linejoin="round"/>
<g style="mix-blend-mode:multiply">
<path d="M338.903 884.553C338.903 884.553 351.667 874.29 351.667 786.064C351.667 697.837 366.357 633.385 384.468 605.127C402.579 576.868 419.512 565.541 427.446 565.541C435.38 565.541 429.688 575.718 418.39 590.408C407.093 605.098 396.916 613.032 392.374 631.143C387.832 649.254 387.86 671.85 393.524 669.579C399.187 667.308 408.214 622.088 416.119 605.127C424.025 588.165 443.286 566.662 454.584 556.486C465.881 546.309 490.777 515.779 502.074 523.685C513.372 531.59 506.617 542.917 499.832 547.43C493.048 551.944 465.881 579.052 453.462 596.071C441.043 613.09 433.109 656.01 439.894 657.131C446.678 658.252 467.031 594.95 478.329 581.381C489.627 567.812 534.875 530.469 545.052 529.348C555.229 528.227 556.379 544.038 547.323 551.972C538.268 559.907 507.738 593.8 497.561 614.153C487.385 634.507 482.842 671.85 491.812 662.794C500.781 653.739 515.557 616.424 528.005 603.977C540.452 591.529 577.767 551.972 586.822 556.486C595.878 560.999 593.607 572.326 585.701 580.231C577.796 588.137 547.237 631.143 539.331 653.739C531.426 676.334 522.342 739.694 526.884 730.667C531.426 721.64 546.116 675.242 554.021 655.924C561.927 636.605 577.767 627.665 580.038 636.691C582.309 645.718 577.767 650.26 572.104 670.642C566.44 691.024 566.354 745.386 549.508 775.801C532.662 806.216 465.048 871.3 456.021 893.896C449.482 909.459 441.675 924.458 432.678 938.742" fill="#550000"/>
</g>
<g style="mix-blend-mode:multiply">
<path d="M967.182 892.2C967.182 892.2 954.102 874.29 954.102 786.064C954.102 697.837 939.383 633.385 921.301 605.127C903.219 576.868 886.229 565.541 878.323 565.541C870.418 565.541 876.052 575.718 887.379 590.408C898.705 605.098 908.853 613.032 913.252 631.143C917.65 649.254 917.794 671.85 912.13 669.579C906.467 667.308 897.44 622.088 889.506 605.127C881.572 588.165 862.368 566.662 851.071 556.486C839.773 546.309 814.877 515.779 803.551 523.685C792.224 531.59 799.037 542.917 805.822 547.43C812.606 551.944 839.744 579.052 852.192 596.071C864.639 613.09 872.545 656.01 865.76 657.131C858.976 658.252 838.709 594.95 827.411 581.439C816.113 567.927 770.836 530.527 760.659 529.405C750.483 528.284 749.362 544.095 758.417 552.03C767.473 559.964 798.002 593.857 808.179 614.211C818.356 634.564 822.869 671.907 813.929 662.852C804.988 653.796 790.183 616.482 777.764 604.034C765.345 591.586 728.002 552.03 718.947 556.543C709.891 561.057 712.162 572.383 720.068 580.289C727.973 588.194 758.532 631.201 766.438 653.796C774.343 676.392 783.399 739.751 778.885 730.725C774.372 721.698 759.653 675.299 751.748 655.981C743.842 636.663 728.002 627.722 725.731 636.749C723.46 645.776 728.002 650.318 733.637 670.7C739.271 691.082 739.386 745.443 756.261 775.858C773.136 806.273 838.824 865.637 847.88 888.261C856.935 910.886 873.321 946.533 873.321 946.533" fill="#550000"/>
</g>
<path d="M334.592 906.286C334.592 906.286 351.553 850.89 351.553 762.548C351.553 674.207 366.243 609.87 384.354 581.611C402.465 553.352 419.397 542.026 427.331 542.026C435.266 542.026 429.574 552.202 418.276 566.892C406.978 581.582 396.802 589.517 392.259 607.599C387.717 625.681 387.746 648.334 393.409 646.063C399.073 643.792 408.099 598.572 416.005 581.611C423.911 564.65 443.171 543.147 454.469 532.97C465.767 522.794 490.662 492.264 501.96 500.169C513.258 508.075 506.502 519.401 499.718 523.915C492.933 528.428 465.767 555.537 453.348 572.556C440.929 589.574 432.995 632.494 439.779 633.615C446.564 634.737 466.917 571.434 478.215 557.837C489.512 544.239 534.761 506.954 544.938 505.832C555.114 504.711 556.264 520.523 547.209 528.457C538.153 536.391 507.623 570.285 497.447 590.638C487.27 610.991 482.728 648.334 491.697 639.279C500.666 630.223 515.443 592.909 527.89 580.461C540.338 568.013 577.652 528.457 586.708 532.97C595.763 537.484 593.492 548.81 585.587 556.716C577.681 564.621 547.123 607.599 539.217 630.223C531.311 652.848 522.227 716.178 526.769 707.123C531.311 698.067 546.001 651.726 553.907 632.379C561.813 613.032 577.652 604.092 579.924 613.147C582.195 622.203 577.652 626.716 571.989 647.069C566.326 667.423 566.24 721.813 549.394 752.257C532.548 782.7 466.831 865.35 457.775 887.974C448.72 910.598 428.366 960.36 428.366 960.36" fill="white"/>
<path d="M334.592 906.286C334.592 906.286 351.553 850.89 351.553 762.548C351.553 674.207 366.243 609.87 384.354 581.611C402.465 553.352 419.397 542.026 427.331 542.026C435.266 542.026 429.574 552.202 418.276 566.892C406.978 581.582 396.802 589.517 392.259 607.599C387.717 625.681 387.746 648.334 393.409 646.063C399.073 643.792 408.099 598.572 416.005 581.611C423.911 564.65 443.171 543.147 454.469 532.97C465.767 522.794 490.662 492.264 501.96 500.169C513.258 508.075 506.502 519.401 499.718 523.915C492.933 528.428 465.767 555.537 453.348 572.556C440.929 589.574 432.995 632.494 439.779 633.615C446.564 634.737 466.917 571.434 478.215 557.837C489.512 544.239 534.761 506.954 544.938 505.832C555.114 504.711 556.264 520.523 547.209 528.457C538.153 536.391 507.623 570.285 497.447 590.638C487.27 610.991 482.728 648.334 491.697 639.279C500.666 630.223 515.443 592.909 527.89 580.461C540.338 568.013 577.652 528.457 586.708 532.97C595.763 537.484 593.492 548.81 585.587 556.716C577.681 564.621 547.123 607.599 539.217 630.223C531.311 652.848 522.227 716.178 526.769 707.123C531.311 698.067 546.001 651.726 553.907 632.379C561.813 613.032 577.652 604.092 579.924 613.147C582.195 622.203 577.652 626.716 571.989 647.069C566.326 667.423 566.24 721.813 549.394 752.257C532.548 782.7 466.831 865.35 457.775 887.974C448.72 910.598 428.366 960.36 428.366 960.36" stroke="#2E353A" stroke-linecap="round" stroke-linejoin="round"/>
<path d="M971.034 906.286C971.034 906.286 954.073 850.89 954.073 762.548C954.073 674.207 939.354 609.87 921.272 581.611C903.19 553.352 886.2 542.026 878.294 542.026C870.389 542.026 876.023 552.202 887.35 566.892C898.676 581.582 908.824 589.517 913.223 607.599C917.621 625.681 917.765 648.334 912.101 646.063C906.438 643.792 897.411 598.572 889.477 581.611C881.543 564.65 862.339 543.147 851.042 532.97C839.744 522.794 814.848 492.264 803.522 500.169C792.195 508.075 799.008 519.401 805.793 523.915C812.577 528.428 839.715 555.537 852.163 572.556C864.61 589.574 872.516 632.494 865.732 633.615C858.947 634.737 838.594 571.434 827.296 557.837C815.998 544.239 770.721 506.954 760.544 505.832C750.368 504.711 749.246 520.523 758.302 528.457C767.357 536.391 797.887 570.285 808.064 590.638C818.241 610.991 822.754 648.334 813.813 639.279C804.873 630.223 790.068 592.909 777.649 580.461C765.23 568.013 727.887 528.457 718.832 532.97C709.776 537.484 712.047 548.81 719.953 556.716C727.858 564.621 758.417 607.599 766.322 630.223C774.228 652.848 783.284 716.178 778.77 707.123C774.257 698.067 759.538 651.726 751.632 632.379C743.727 613.032 727.887 604.092 725.616 613.147C723.345 622.203 727.887 626.716 733.521 647.069C739.156 667.423 739.271 721.813 756.146 752.257C773.021 782.7 838.709 865.35 847.764 887.974C856.82 910.598 877.173 960.36 877.173 960.36" fill="white"/>
<path d="M971.034 906.286C971.034 906.286 954.073 850.89 954.073 762.548C954.073 674.207 939.354 609.87 921.272 581.611C903.19 553.352 886.2 542.026 878.294 542.026C870.389 542.026 876.023 552.202 887.35 566.892C898.676 581.582 908.824 589.517 913.223 607.599C917.621 625.681 917.765 648.334 912.101 646.063C906.438 643.792 897.411 598.572 889.477 581.611C881.543 564.65 862.339 543.147 851.042 532.97C839.744 522.794 814.848 492.264 803.522 500.169C792.195 508.075 799.008 519.401 805.793 523.915C812.577 528.428 839.715 555.537 852.163 572.556C864.61 589.574 872.516 632.494 865.732 633.615C858.947 634.737 838.594 571.434 827.296 557.837C815.998 544.239 770.721 506.954 760.544 505.832C750.368 504.711 749.246 520.523 758.302 528.457C767.357 536.391 797.887 570.285 808.064 590.638C818.241 610.991 822.754 648.334 813.813 639.279C804.873 630.223 790.068 592.909 777.649 580.461C765.23 568.013 727.887 528.457 718.832 532.97C709.776 537.484 712.047 548.81 719.953 556.716C727.858 564.621 758.417 607.599 766.322 630.223C774.228 652.848 783.284 716.178 778.77 707.123C774.257 698.067 759.538 651.726 751.632 632.379C743.727 613.032 727.887 604.092 725.616 613.147C723.345 622.203 727.887 626.716 733.521 647.069C739.156 667.423 739.271 721.813 756.146 752.257C773.021 782.7 838.709 865.35 847.764 887.974C856.82 910.598 877.173 960.36 877.173 960.36" stroke="#2E353A" stroke-linecap="round" stroke-linejoin="round"/>
<path d="M263.01 1078.77H435.495C437.737 1070.15 440.555 1060.49 444.119 1050.02C457.688 1009.37 501.615 958.549 501.615 958.549C470.132 930.822 433.138 910.072 393.064 897.662C326.944 877.309 278.533 883.288 278.533 883.288C287.445 920.031 288.425 958.252 281.408 995.404C272.784 1037.26 267.034 1063.74 263.01 1078.77Z" fill="#2E353A" stroke="#2E353A" stroke-linecap="round" stroke-linejoin="round"/>
<path d="M869.009 1078.77H1048.22C1042.47 1063.88 1030.05 1031.54 1017.63 999.198C1000.67 955.157 1007.46 895.879 1000.67 895.879C993.888 895.879 917.679 890.791 880.422 902.635C843.165 914.479 800.791 948.373 800.791 948.373C819.973 970.661 836.463 995.13 849.921 1021.28C858.571 1039.6 864.98 1058.91 869.009 1078.77Z" fill="#2E353A" stroke="#2E353A" stroke-linecap="round" stroke-linejoin="round"/>
<path d="M370.756 918.36C369.52 913.473 351.121 920.832 351.121 920.832C351.121 920.832 357.273 897.547 347.47 897.547C337.667 897.547 336.431 914.795 336.431 914.795C336.431 914.795 318.033 907.465 318.033 918.475C318.033 929.485 330.279 929.284 330.279 929.284C330.279 929.284 315.561 947.683 326.6 951.334C337.639 954.985 344.969 941.531 344.969 941.531C344.969 941.531 352.329 953.806 362.218 948.89C372.107 943.974 364.661 932.964 364.661 932.964C364.661 932.964 371.963 923.276 370.756 918.36ZM346.234 936.759C345.309 936.553 344.46 936.09 343.787 935.423C343.113 934.756 342.642 933.912 342.427 932.989C342.212 932.065 342.262 931.1 342.572 930.204C342.881 929.308 343.438 928.518 344.177 927.925C344.916 927.331 345.808 926.959 346.75 926.85C347.692 926.741 348.645 926.901 349.5 927.311C350.355 927.72 351.077 928.363 351.582 929.165C352.088 929.966 352.356 930.895 352.357 931.843C352.15 933.286 351.402 934.596 350.266 935.509C349.129 936.421 347.688 936.868 346.234 936.759ZM397.721 1055.77C396.485 1050.89 378.086 1058.25 378.086 1058.25C378.086 1058.25 384.238 1034.96 374.407 1034.96C364.575 1034.96 363.396 1052.21 363.396 1052.21C363.396 1052.21 344.998 1044.85 344.998 1055.86C344.998 1066.87 357.273 1066.9 357.273 1066.9C357.273 1066.9 342.554 1085.3 353.594 1088.98C364.633 1092.66 371.963 1079.15 371.963 1079.15C371.963 1079.15 379.323 1091.42 389.212 1086.5C399.101 1081.59 391.655 1070.58 391.655 1070.58C391.655 1070.58 398.928 1060.55 397.721 1055.77ZM373.199 1074.17C372.274 1073.97 371.426 1073.5 370.752 1072.84C370.079 1072.17 369.607 1071.33 369.392 1070.4C369.177 1069.48 369.227 1068.51 369.537 1067.62C369.847 1066.72 370.403 1065.93 371.142 1065.34C371.882 1064.74 372.773 1064.37 373.715 1064.26C374.657 1064.15 375.61 1064.31 376.465 1064.72C377.32 1065.13 378.042 1065.78 378.547 1066.58C379.053 1067.38 379.322 1068.31 379.323 1069.26C379.115 1070.69 378.362 1071.98 377.221 1072.87C376.079 1073.76 374.639 1074.18 373.199 1074.03V1074.17ZM289.831 1074.17C288.595 1069.26 270.226 1076.62 270.226 1076.62C270.226 1076.62 276.349 1053.33 266.546 1053.33C256.743 1053.33 255.507 1070.58 255.507 1070.58C255.507 1070.58 237.108 1063.22 237.108 1074.26C237.108 1085.3 249.384 1085.3 249.384 1085.3C249.384 1085.3 234.665 1103.67 245.704 1107.35C256.743 1111.03 264.074 1097.54 264.074 1097.54C264.074 1097.54 271.433 1109.79 281.322 1104.9C291.211 1100.02 283.794 1088.98 283.794 1088.98C283.794 1088.98 291.068 1078.92 289.86 1074.03L289.831 1074.17ZM265.31 1092.54C264.383 1092.34 263.534 1091.87 262.86 1091.2C262.186 1090.53 261.715 1089.69 261.501 1088.76C261.287 1087.84 261.339 1086.87 261.651 1085.98C261.963 1085.08 262.522 1084.29 263.264 1083.7C264.006 1083.11 264.9 1082.74 265.843 1082.63C266.787 1082.53 267.741 1082.69 268.595 1083.1C269.449 1083.52 270.169 1084.16 270.671 1084.97C271.173 1085.77 271.437 1086.71 271.433 1087.65C271.219 1089.08 270.467 1090.36 269.333 1091.24C268.199 1092.13 266.769 1092.54 265.339 1092.4L265.31 1092.54ZM423.421 978.558H436.904C446.707 978.558 452.83 989.597 452.83 989.597C432.017 995.576 423.45 978.414 423.45 978.414L423.421 978.558ZM409.939 1074.17H423.421C433.224 1074.17 439.348 1085.21 439.348 1085.21C418.534 1091.19 409.968 1074.03 409.968 1074.03L409.939 1074.17ZM292.304 1055.77H305.786C315.589 1055.77 321.713 1066.81 321.713 1066.81C300.871 1072.79 292.304 1055.77 292.304 1055.77ZM357.474 969.272L365.351 980.225C371.101 988.217 365.668 999.601 365.668 999.601C348.534 986.118 357.474 969.128 357.474 969.128V969.272ZM290.033 1005.9L296.185 993.909C300.698 985.285 313.289 984.767 313.289 984.767C309.064 1006.1 290.033 1005.9 290.033 1005.9Z" fill="white"/>
<path d="M948.035 941.645C946.799 936.758 928.401 944.118 928.401 944.118C928.401 944.118 934.553 920.832 924.75 920.832C914.947 920.832 913.711 938.081 913.711 938.081C913.711 938.081 895.312 930.75 895.312 941.761C895.312 952.771 907.587 952.8 907.587 952.8C907.587 952.8 892.869 971.198 903.908 974.878C914.947 978.557 922.277 965.046 922.277 965.046C922.277 965.046 929.637 977.321 939.526 972.405C949.415 967.49 941.97 956.479 941.97 956.479C941.97 956.479 949.243 946.533 948.035 941.645ZM923.514 960.044C922.588 959.838 921.74 959.375 921.066 958.708C920.393 958.041 919.921 957.197 919.706 956.274C919.491 955.351 919.542 954.386 919.851 953.49C920.161 952.594 920.717 951.804 921.457 951.21C922.196 950.617 923.088 950.244 924.029 950.136C924.971 950.027 925.924 950.186 926.779 950.596C927.634 951.005 928.356 951.648 928.862 952.45C929.367 953.252 929.636 954.18 929.637 955.128C929.463 956.586 928.725 957.918 927.58 958.837C926.435 959.757 924.975 960.19 923.514 960.044ZM1005.62 1037.26C1004.41 1032.34 986.011 1039.7 986.011 1039.7C986.011 1039.7 992.134 1016.42 982.331 1016.42C972.528 1016.42 971.321 1033.67 971.321 1033.67C971.321 1033.67 952.922 1026.31 952.922 1037.35C952.922 1048.39 965.169 1048.39 965.169 1048.39C965.169 1048.39 950.479 1066.75 961.518 1070.43C972.557 1074.11 979.888 1060.63 979.888 1060.63C979.888 1060.63 987.247 1072.88 997.136 1067.99C1007.03 1063.1 999.58 1052.06 999.58 1052.06C999.58 1052.06 1006.85 1042.15 1005.62 1037.26ZM981.124 1055.77C980.197 1055.57 979.348 1055.1 978.674 1054.43C978 1053.77 977.529 1052.92 977.315 1052C977.101 1051.07 977.153 1050.11 977.465 1049.21C977.777 1048.31 978.336 1047.52 979.078 1046.93C979.82 1046.34 980.714 1045.97 981.657 1045.86C982.601 1045.76 983.555 1045.92 984.409 1046.33C985.263 1046.75 985.983 1047.4 986.485 1048.2C986.987 1049.01 987.251 1049.94 987.247 1050.89C987.067 1052.34 986.325 1053.66 985.181 1054.58C984.037 1055.49 982.58 1055.92 981.124 1055.77ZM944.356 1074.17C943.119 1069.26 924.75 1076.62 924.75 1076.62C924.75 1076.62 930.873 1053.33 921.07 1053.33C911.267 1053.33 910.031 1070.58 910.031 1070.58C910.031 1070.58 891.633 1063.22 891.633 1074.26C891.633 1085.3 903.908 1085.3 903.908 1085.3C903.908 1085.3 889.189 1103.67 900.228 1107.35C911.267 1111.03 918.598 1097.54 918.598 1097.54C918.598 1097.54 925.957 1109.79 935.846 1104.9C945.735 1100.02 938.319 1088.98 938.319 1088.98C938.319 1088.98 945.477 1078.92 944.356 1074.03V1074.17ZM919.834 1092.54C918.907 1092.34 918.058 1091.87 917.384 1091.2C916.71 1090.53 916.239 1089.69 916.025 1088.76C915.811 1087.84 915.863 1086.87 916.175 1085.98C916.487 1085.08 917.046 1084.29 917.788 1083.7C918.53 1083.11 919.424 1082.74 920.368 1082.63C921.311 1082.53 922.265 1082.69 923.119 1083.1C923.973 1083.52 924.693 1084.16 925.195 1084.97C925.698 1085.77 925.962 1086.71 925.957 1087.65C925.743 1089.08 924.987 1090.37 923.847 1091.25C922.706 1092.14 921.269 1092.55 919.834 1092.4V1092.54ZM1000.73 1001.84H1014.21C1024.02 1001.84 1030.14 1012.88 1030.14 1012.88C1009.3 1018.86 1000.73 1001.7 1000.73 1001.7V1001.84ZM856.101 1071.58H869.583C879.386 1071.58 885.509 1082.59 885.509 1082.59C864.667 1088.75 856.101 1071.58 856.101 1071.58ZM934.754 992.529L942.631 1003.48C948.38 1011.47 942.947 1022.86 942.947 1022.86C925.813 1009.4 934.754 992.529 934.754 992.529ZM1014.47 1061.06L1022.32 1072.02C1028.07 1079.98 1022.64 1091.39 1022.64 1091.39C1005.5 1078.02 1014.47 1061.06 1014.47 1061.06ZM867.197 1029.18L873.349 1017.19C877.862 1008.57 890.598 1008.05 890.598 1008.05C886.343 1029.38 867.168 1029.18 867.168 1029.18H867.197Z" fill="white"/>
</svg>
