<svg width="1167" height="1133" viewBox="0 0 1167 1133" fill="none" xmlns="http://www.w3.org/2000/svg">
<path d="M1044.81 171.344L1044.81 171.346C1061.55 209.451 1072 248.852 1081.73 288.655C1083.11 294.306 1084.47 299.966 1085.84 305.632C1094.09 339.808 1102.38 374.189 1114.21 407.926C1120.25 425.152 1126.93 441.246 1133.34 456.718C1134.25 458.916 1135.16 461.102 1136.06 463.277C1143.3 480.793 1150.03 497.588 1155.05 514.639C1165.06 548.623 1168.26 583.607 1154.69 626.756C1143.52 662.22 1127.14 680.685 1108.1 696.297C1102.36 701.005 1096.28 705.511 1089.99 710.178C1075.5 720.927 1059.86 732.53 1044.48 749.424C1026.57 769.095 1015.97 794.967 1005.63 820.209C1004.5 822.959 1003.38 825.702 1002.25 828.428C990.638 856.45 978.367 882.849 955.944 900.227C925.998 923.438 897.344 925.29 868.156 919.869C853.752 917.194 839.277 912.756 824.397 908.194L823.516 907.925C808.387 903.287 792.855 898.562 776.895 895.651L776.891 895.651C742.374 889.4 716.129 891.864 690.494 900.518C667.205 908.38 644.456 921.353 616.637 937.217C614.041 938.698 611.401 940.203 608.712 941.732L608.711 941.733C550.033 975.134 481.633 1008.63 411.753 1023.48C341.925 1038.31 270.836 1034.49 206.465 993.554L206.463 993.553C169.158 969.862 146.131 933.143 128.82 891.967C120.166 871.385 112.971 849.763 106.127 828.174C104.532 823.142 102.955 818.109 101.383 813.092C96.2237 796.624 91.1166 780.324 85.5903 764.784L85.5897 764.782C77.3696 741.717 66.3624 717.152 55.1162 692.055C49.1867 678.823 43.1908 665.442 37.502 652.055C20.9396 613.079 6.87051 573.831 3.76521 536.794C-3.31339 452.375 39.4878 382.575 101.83 330.053C164.193 277.514 245.808 242.559 315.372 227.983L315.376 227.983C340.996 222.581 368.309 220.458 395.925 218.312C403.473 217.725 411.043 217.137 418.608 216.479C453.692 213.43 488.542 208.892 519.396 195.902L519.396 195.902C552.428 181.989 577.24 157.741 600.256 131.929C605.658 125.871 610.953 119.738 616.23 113.627C633.564 93.5493 650.702 73.7008 670.783 57.483L670.784 57.4821C737.757 3.34372 813.495 -8.44748 881.289 13.2819C949.149 35.0321 1009.35 90.4726 1044.81 171.344Z" fill="#FFD95C" stroke="black" stroke-width="6"/>
<g opacity="0.7">
<path d="M1044.81 171.344L1044.81 171.346C1061.55 209.451 1072 248.852 1081.73 288.655C1083.11 294.306 1084.47 299.966 1085.84 305.632C1094.09 339.808 1102.38 374.189 1114.21 407.926C1120.25 425.152 1126.93 441.246 1133.34 456.718C1134.25 458.916 1135.16 461.102 1136.06 463.277C1143.3 480.793 1150.03 497.588 1155.05 514.639C1165.06 548.623 1168.26 583.607 1154.69 626.756C1143.52 662.22 1127.14 680.685 1108.1 696.297C1102.36 701.005 1096.28 705.511 1089.99 710.178C1075.5 720.927 1059.86 732.53 1044.48 749.424C1026.57 769.095 1015.97 794.967 1005.63 820.209C1004.5 822.959 1003.38 825.702 1002.25 828.428C990.638 856.45 978.367 882.849 955.944 900.227C925.998 923.438 897.344 925.29 868.156 919.869C853.752 917.194 839.277 912.756 824.397 908.194L823.516 907.925C808.387 903.287 792.855 898.562 776.895 895.651L776.891 895.651C742.374 889.4 716.129 891.864 690.494 900.518C667.205 908.38 644.456 921.353 616.637 937.217C614.041 938.698 611.401 940.203 608.712 941.732L608.711 941.733C550.033 975.134 481.633 1008.63 411.753 1023.48C341.925 1038.31 270.836 1034.49 206.465 993.554L206.463 993.553C169.158 969.862 146.131 933.143 128.82 891.967C120.166 871.385 112.971 849.763 106.127 828.174C104.532 823.142 102.955 818.109 101.383 813.092C96.2237 796.624 91.1166 780.324 85.5903 764.784L85.5897 764.782C77.3696 741.717 66.3624 717.152 55.1162 692.055C49.1867 678.823 43.1908 665.442 37.502 652.055C20.9396 613.079 6.87051 573.831 3.76521 536.794C-3.31339 452.375 39.4878 382.575 101.83 330.053C164.193 277.514 245.808 242.559 315.372 227.983L315.376 227.983C340.996 222.581 368.309 220.458 395.925 218.312C403.473 217.725 411.043 217.137 418.608 216.479C453.692 213.43 488.542 208.892 519.396 195.902L519.396 195.902C552.428 181.989 577.24 157.741 600.256 131.929C605.658 125.871 610.953 119.738 616.23 113.627C633.564 93.5493 650.702 73.7008 670.783 57.483L670.784 57.4821C737.757 3.34372 813.495 -8.44748 881.289 13.2819C949.149 35.0321 1009.35 90.4726 1044.81 171.344Z" fill="white" stroke="black" stroke-width="6"/>
</g>
<path d="M503.312 1132.26C748.736 1132.26 947.692 1119.87 947.692 1104.58C947.692 1089.29 748.736 1076.9 503.312 1076.9C257.888 1076.9 58.9321 1089.29 58.9321 1104.58C58.9321 1119.87 257.888 1132.26 503.312 1132.26Z" fill="#FFD95C"/>
<path opacity="0.8" d="M503.312 1132.26C748.736 1132.26 947.692 1119.87 947.692 1104.58C947.692 1089.29 748.736 1076.9 503.312 1076.9C257.888 1076.9 58.9321 1089.29 58.9321 1104.58C58.9321 1119.87 257.888 1132.26 503.312 1132.26Z" fill="white"/>
<path d="M837.243 51.8721H390.42C359.571 51.8721 334.563 76.8799 334.563 107.729V1051.05C334.563 1081.9 359.571 1106.91 390.42 1106.91H837.243C868.092 1106.91 893.1 1081.9 893.1 1051.05V107.729C893.1 76.8799 868.092 51.8721 837.243 51.8721Z" fill="black"/>
<path d="M868.262 167.725H359.373V991.055H868.262V167.725Z" fill="white" stroke="black" stroke-width="1.33739" stroke-miterlimit="10"/>
<path d="M691.828 501.115C734.904 458.039 734.904 388.198 691.828 345.121C648.751 302.045 578.91 302.045 535.834 345.121C492.757 388.198 492.757 458.039 535.834 501.115C578.91 544.192 648.751 544.192 691.828 501.115Z" fill="#FFD95C"/>
<path d="M758.648 939.28H469.045C468.393 939.284 467.747 939.159 467.144 938.912C466.54 938.665 465.992 938.302 465.53 937.842C465.068 937.383 464.701 936.836 464.45 936.235C464.2 935.633 464.071 934.987 464.071 934.336C464.068 933.681 464.194 933.033 464.442 932.428C464.691 931.823 465.057 931.273 465.519 930.811C465.982 930.348 466.532 929.982 467.137 929.733C467.742 929.485 468.391 929.359 469.045 929.362H758.648C759.299 929.362 759.945 929.491 760.547 929.741C761.148 929.992 761.695 930.359 762.154 930.821C762.614 931.283 762.977 931.831 763.224 932.435C763.471 933.038 763.596 933.684 763.592 934.336C763.592 935.647 763.071 936.905 762.144 937.832C761.217 938.759 759.959 939.28 758.648 939.28Z" fill="#FFD95C"/>
<path d="M768.077 595.431H459.587C453.22 595.431 448.059 600.592 448.059 606.958V643.324C448.059 649.691 453.22 654.852 459.587 654.852H768.077C774.444 654.852 779.605 649.691 779.605 643.324V606.958C779.605 600.592 774.444 595.431 768.077 595.431Z" fill="#FFD95C"/>
<path d="M768.077 706.569H459.587C453.22 706.569 448.059 711.73 448.059 718.097V754.463C448.059 760.829 453.22 765.991 459.587 765.991H768.077C774.444 765.991 779.605 760.829 779.605 754.463V718.097C779.605 711.73 774.444 706.569 768.077 706.569Z" fill="#FFD95C"/>
<path d="M668.754 478.141L636.298 459.455V444.017C640.998 438.332 644.402 431.69 646.273 424.555C647.39 424.952 648.567 425.156 649.752 425.159C653.777 425.159 656.335 412.683 656.766 403.771C661.452 393.853 655.07 388.046 655.07 388.046C655.07 388.046 657.715 385.401 659.469 374.793C661.222 364.185 653.288 368.612 647.107 358.896C640.926 349.179 636.499 338.6 616.203 338.6C610.611 338.416 605.093 339.919 600.366 342.913C595.639 345.907 591.922 350.254 589.698 355.389C584.646 355.407 579.612 355.995 574.692 357.142C568.482 358.896 566.729 379.22 572.018 387.183C574.386 391.535 575.65 396.402 575.698 401.356C574.29 399.631 572.823 399.171 572.018 403.081C570.265 411.906 577.337 424.268 577.337 424.268L580.988 423.233C582.827 430.858 586.376 437.965 591.366 444.017V459.455L558.91 478.141C555.119 480.329 551.971 483.476 549.781 487.265C547.591 491.055 546.437 495.353 546.433 499.73V510.424C565.736 525.336 589.44 533.425 613.832 533.425C638.224 533.425 661.927 525.336 681.23 510.424V499.73C681.233 495.352 680.08 491.051 677.89 487.261C675.699 483.47 672.548 480.325 668.754 478.141Z" fill="black"/>
<path d="M490.059 751.214C489.315 751.203 488.604 750.904 488.075 750.38C487.792 750.127 487.567 749.817 487.413 749.47C487.259 749.123 487.181 748.747 487.184 748.368C487.193 747.849 487.342 747.343 487.615 746.902L492.79 738.622L482.699 738.939C482.319 738.962 481.938 738.906 481.582 738.772C481.225 738.638 480.9 738.43 480.63 738.162C480.161 737.636 479.902 736.956 479.902 736.251C479.902 735.546 480.161 734.865 480.63 734.339C480.894 734.061 481.217 733.845 481.575 733.706C481.933 733.567 482.317 733.508 482.699 733.534L492.646 733.908L487.529 725.657C487.251 725.208 487.101 724.691 487.098 724.162C487.095 723.783 487.173 723.407 487.327 723.06C487.48 722.713 487.706 722.403 487.989 722.15C488.517 721.626 489.228 721.327 489.973 721.316C490.462 721.32 490.941 721.462 491.354 721.726C491.766 721.991 492.094 722.367 492.301 722.811L497.217 731.694L502.075 722.869C502.306 722.398 502.661 721.999 503.101 721.715C503.542 721.431 504.052 721.274 504.576 721.259C504.94 721.261 505.299 721.339 505.63 721.487C505.962 721.636 506.259 721.852 506.502 722.121C507.03 722.668 507.319 723.402 507.307 724.162C507.306 724.656 507.177 725.141 506.934 725.571L501.73 733.908L511.821 733.534C512.204 733.508 512.588 733.567 512.945 733.706C513.303 733.845 513.626 734.061 513.891 734.339C514.381 734.848 514.649 735.53 514.638 736.236C514.636 736.949 514.37 737.635 513.891 738.162C513.62 738.43 513.295 738.638 512.939 738.772C512.582 738.906 512.201 738.962 511.821 738.939L501.673 738.622L506.732 746.815C507.016 747.273 507.165 747.801 507.164 748.339C507.164 749.101 506.861 749.833 506.322 750.372C505.782 750.911 505.051 751.214 504.289 751.214C503.796 751.207 503.316 751.057 502.907 750.781C502.499 750.505 502.18 750.116 501.989 749.661L497.188 741.037L492.416 749.661C492.204 750.112 491.872 750.496 491.456 750.77C491.04 751.044 490.557 751.197 490.059 751.214Z" fill="black"/>
<path d="M536.688 751.214C535.943 751.203 535.232 750.904 534.704 750.38C534.421 750.127 534.195 749.817 534.042 749.47C533.888 749.123 533.81 748.747 533.813 748.368C533.822 747.849 533.971 747.343 534.244 746.902L539.419 738.622L529.357 738.939C528.973 738.956 528.589 738.896 528.229 738.763C527.869 738.63 527.539 738.425 527.258 738.162C526.877 737.769 526.622 737.269 526.529 736.729C526.435 736.189 526.506 735.633 526.732 735.134C526.958 734.635 527.33 734.215 527.798 733.93C528.266 733.644 528.809 733.506 529.357 733.534L539.275 733.908L534.158 725.657C533.879 725.208 533.73 724.691 533.727 724.162C533.724 723.783 533.802 723.407 533.955 723.06C534.109 722.713 534.335 722.403 534.618 722.15C535.146 721.626 535.857 721.327 536.601 721.316C537.091 721.32 537.57 721.462 537.982 721.726C538.394 721.991 538.723 722.367 538.93 722.811L543.846 731.694L548.704 722.869C548.935 722.398 549.289 721.999 549.73 721.715C550.171 721.431 550.681 721.274 551.205 721.259C551.569 721.257 551.929 721.333 552.261 721.482C552.593 721.631 552.89 721.849 553.131 722.121C553.398 722.39 553.608 722.708 553.751 723.059C553.895 723.409 553.967 723.784 553.965 724.162C553.955 724.659 553.816 725.144 553.562 725.571L548.359 733.908L558.478 733.592C558.857 733.566 559.236 733.625 559.589 733.764C559.942 733.903 560.26 734.119 560.519 734.396C561.009 734.905 561.278 735.587 561.267 736.294C561.265 737.006 560.999 737.693 560.519 738.22C560.254 738.487 559.935 738.695 559.583 738.828C559.231 738.962 558.854 739.019 558.478 738.996L548.302 738.68L553.361 746.873C553.645 747.33 553.794 747.858 553.792 748.397C553.792 749.159 553.489 749.89 552.95 750.429C552.411 750.968 551.68 751.271 550.918 751.271C550.425 751.265 549.944 751.114 549.536 750.839C549.127 750.563 548.808 750.174 548.618 749.719L543.817 741.095L539.045 749.719C538.825 750.159 538.49 750.531 538.074 750.794C537.659 751.058 537.179 751.203 536.688 751.214Z" fill="black"/>
<path d="M583.345 751.214C582.591 751.211 581.868 750.911 581.332 750.38C581.05 750.127 580.824 749.817 580.67 749.47C580.517 749.123 580.439 748.747 580.441 748.368C580.45 747.849 580.599 747.343 580.873 746.902L586.047 738.622L575.985 738.939C575.444 738.96 574.908 738.82 574.446 738.536C573.984 738.252 573.617 737.837 573.392 737.343C573.167 736.85 573.094 736.301 573.182 735.766C573.27 735.231 573.515 734.734 573.887 734.339C574.158 734.062 574.486 733.847 574.848 733.708C575.211 733.569 575.598 733.51 575.985 733.534L585.903 733.908L580.786 725.657C580.508 725.208 580.359 724.691 580.355 724.162C580.364 723.785 580.448 723.413 580.6 723.068C580.753 722.722 580.973 722.41 581.246 722.15C581.782 721.619 582.504 721.32 583.259 721.316C583.743 721.325 584.216 721.47 584.623 721.734C585.03 721.998 585.354 722.372 585.558 722.811L590.474 731.694L595.333 722.869C595.563 722.398 595.918 721.999 596.359 721.715C596.8 721.431 597.31 721.274 597.834 721.259C598.198 721.257 598.558 721.333 598.89 721.482C599.222 721.631 599.518 721.849 599.76 722.121C600.026 722.39 600.237 722.708 600.38 723.059C600.523 723.409 600.596 723.784 600.593 724.162C600.583 724.659 600.444 725.144 600.191 725.571L594.988 733.908L605.107 733.534C605.479 733.497 605.854 733.54 606.209 733.66C606.563 733.78 606.887 733.975 607.159 734.231C607.432 734.487 607.646 734.799 607.788 735.144C607.93 735.49 607.996 735.863 607.981 736.236C607.988 736.945 607.732 737.631 607.263 738.162C606.992 738.43 606.668 738.638 606.311 738.772C605.954 738.906 605.573 738.962 605.193 738.939L595.045 738.622L600.076 746.815C600.359 747.273 600.509 747.801 600.507 748.339C600.498 748.717 600.415 749.089 600.262 749.434C600.109 749.779 599.889 750.091 599.616 750.351C599.366 750.62 599.064 750.836 598.727 750.984C598.391 751.132 598.028 751.21 597.661 751.214C597.172 751.205 596.697 751.054 596.293 750.778C595.889 750.502 595.575 750.114 595.39 749.661L590.56 741.037L585.788 749.661C585.573 750.127 585.228 750.522 584.795 750.797C584.362 751.072 583.858 751.217 583.345 751.214Z" fill="black"/>
<path d="M629.973 751.214C629.219 751.211 628.496 750.911 627.961 750.38C627.419 749.849 627.109 749.126 627.099 748.368C627.09 747.851 627.229 747.342 627.501 746.902L632.676 738.622L622.614 738.939C622.23 738.956 621.847 738.896 621.486 738.763C621.126 738.63 620.795 738.425 620.515 738.162C620.047 737.636 619.788 736.956 619.788 736.251C619.788 735.546 620.047 734.865 620.515 734.339C620.793 734.071 621.122 733.861 621.483 733.723C621.843 733.585 622.228 733.52 622.614 733.534L632.561 733.908L627.472 725.657C627.194 725.208 627.045 724.691 627.041 724.162C627.05 723.785 627.134 723.413 627.286 723.068C627.439 722.722 627.659 722.41 627.932 722.15C628.468 721.619 629.19 721.32 629.945 721.316C630.434 721.32 630.913 721.462 631.325 721.726C631.738 721.991 632.066 722.367 632.273 722.811L637.16 731.694L642.019 722.869C642.249 722.398 642.604 721.999 643.045 721.715C643.486 721.431 643.996 721.274 644.52 721.259C644.883 721.257 645.244 721.333 645.576 721.482C645.908 721.631 646.204 721.849 646.446 722.121C646.712 722.39 646.923 722.708 647.066 723.059C647.209 723.409 647.282 723.784 647.279 724.162C647.269 724.659 647.13 725.144 646.877 725.571L641.674 733.908L651.793 733.534C652.165 733.497 652.54 733.54 652.894 733.66C653.249 733.78 653.573 733.975 653.845 734.231C654.117 734.487 654.332 734.799 654.474 735.144C654.616 735.49 654.682 735.863 654.667 736.236C654.673 736.945 654.418 737.631 653.949 738.162C653.678 738.43 653.354 738.638 652.997 738.772C652.64 738.906 652.259 738.962 651.879 738.939L641.731 738.622L646.762 746.815C647.045 747.273 647.195 747.801 647.193 748.339C647.196 748.719 647.118 749.094 646.964 749.441C646.811 749.788 646.585 750.098 646.302 750.351C646.052 750.62 645.749 750.836 645.413 750.984C645.077 751.132 644.714 751.21 644.347 751.214C643.858 751.205 643.383 751.054 642.979 750.778C642.575 750.502 642.261 750.114 642.076 749.661L637.246 741.037L632.474 749.661C632.255 750.137 631.901 750.537 631.457 750.813C631.012 751.089 630.496 751.228 629.973 751.214Z" fill="black"/>
<path d="M676.602 751.214C675.848 751.211 675.125 750.911 674.59 750.38C674.145 749.929 673.861 749.343 673.783 748.714C673.705 748.085 673.837 747.448 674.159 746.902L679.304 738.622L669.243 738.939C668.859 738.956 668.475 738.896 668.115 738.763C667.755 738.63 667.424 738.425 667.144 738.162C666.675 737.636 666.417 736.956 666.417 736.251C666.417 735.546 666.675 734.865 667.144 734.339C667.422 734.071 667.751 733.861 668.112 733.723C668.472 733.585 668.857 733.52 669.243 733.534L679.189 733.908L674.072 725.657C673.794 725.208 673.645 724.691 673.641 724.162C673.652 723.404 673.962 722.681 674.504 722.15C675.039 721.619 675.762 721.32 676.516 721.316C677.006 721.32 677.485 721.462 677.897 721.726C678.309 721.991 678.638 722.367 678.845 722.811L683.732 731.694L688.59 722.869C688.82 722.398 689.175 721.999 689.616 721.715C690.057 721.431 690.567 721.274 691.091 721.259C691.459 721.257 691.824 721.333 692.16 721.481C692.497 721.63 692.799 721.848 693.046 722.121C693.573 722.668 693.863 723.402 693.851 724.162C693.84 724.659 693.702 725.144 693.448 725.571L688.245 733.908L698.364 733.534C698.736 733.497 699.112 733.54 699.466 733.66C699.82 733.78 700.144 733.975 700.417 734.231C700.689 734.487 700.903 734.799 701.045 735.144C701.187 735.49 701.253 735.863 701.239 736.236C701.245 736.945 700.989 737.631 700.52 738.162C700.249 738.43 699.925 738.638 699.568 738.772C699.212 738.906 698.831 738.962 698.45 738.939L688.302 738.622L693.333 746.815C693.617 747.273 693.766 747.801 693.765 748.339C693.767 748.719 693.689 749.094 693.536 749.441C693.382 749.788 693.156 750.098 692.873 750.351C692.623 750.62 692.321 750.836 691.985 750.984C691.649 751.132 691.286 751.211 690.919 751.214C690.43 751.205 689.954 751.054 689.55 750.778C689.147 750.502 688.833 750.114 688.647 749.661L683.818 741.037L679.046 749.661C678.83 750.127 678.486 750.522 678.052 750.797C677.619 751.072 677.116 751.217 676.602 751.214Z" fill="black"/>
<path d="M723.23 751.214C722.486 751.203 721.775 750.904 721.247 750.38C720.964 750.127 720.738 749.817 720.585 749.47C720.431 749.123 720.353 748.747 720.356 748.368C720.365 747.849 720.514 747.343 720.787 746.902L725.933 738.622L715.871 738.939C715.501 738.967 715.129 738.917 714.779 738.794C714.429 738.67 714.109 738.475 713.838 738.221C713.568 737.966 713.354 737.659 713.209 737.317C713.064 736.975 712.991 736.607 712.996 736.236C712.995 735.885 713.062 735.536 713.195 735.21C713.329 734.885 713.525 734.589 713.772 734.339C714.037 734.061 714.36 733.845 714.718 733.706C715.075 733.567 715.459 733.508 715.842 733.534L725.789 733.908L720.672 725.657C720.394 725.208 720.244 724.691 720.241 724.162C720.251 723.404 720.562 722.681 721.103 722.15C721.639 721.619 722.361 721.32 723.115 721.316C723.605 721.32 724.084 721.462 724.496 721.726C724.909 721.991 725.237 722.367 725.444 722.811L730.331 731.694L735.218 722.869C735.446 722.402 735.797 722.006 736.232 721.722C736.667 721.439 737.171 721.279 737.69 721.259C738.059 721.257 738.423 721.333 738.76 721.481C739.097 721.63 739.398 721.848 739.645 722.121C740.173 722.668 740.462 723.402 740.45 724.162C740.449 724.656 740.32 725.141 740.077 725.571L734.873 733.908L744.964 733.534C745.347 733.508 745.731 733.567 746.088 733.706C746.446 733.845 746.769 734.061 747.033 734.339C747.523 734.848 747.792 735.53 747.781 736.236C747.779 736.949 747.513 737.635 747.033 738.162C746.763 738.43 746.438 738.638 746.082 738.772C745.725 738.906 745.344 738.962 744.964 738.939L734.816 738.622L739.847 746.815C740.13 747.273 740.279 747.801 740.278 748.339C740.267 749.097 739.957 749.821 739.415 750.351C738.892 750.886 738.18 751.196 737.432 751.214C736.943 751.205 736.467 751.054 736.064 750.778C735.66 750.502 735.346 750.114 735.161 749.661L730.331 741.037L725.559 749.661C725.352 750.11 725.025 750.493 724.614 750.767C724.203 751.041 723.724 751.195 723.23 751.214Z" fill="black"/>
<g style="mix-blend-mode:multiply">
<path d="M868.262 168.817H359.373V200.698H868.262V168.817Z" fill="#FFD95C"/>
</g>
<path d="M669.156 110.086H558.478C556.481 110.086 554.565 109.293 553.152 107.88C551.74 106.468 550.946 104.552 550.946 102.554C550.946 100.557 551.74 98.641 553.152 97.2285C554.565 95.816 556.481 95.0225 558.478 95.0225H669.156C671.154 95.0225 673.07 95.816 674.482 97.2285C675.895 98.641 676.688 100.557 676.688 102.554C676.688 104.552 675.895 106.468 674.482 107.88C673.07 109.293 671.154 110.086 669.156 110.086Z" fill="#FFD95C" stroke="black" stroke-width="1.33739" stroke-linecap="round" stroke-linejoin="round"/>
<path d="M644.002 1037.57C644.008 1031.6 642.242 1025.76 638.927 1020.79C635.612 1015.82 630.899 1011.95 625.382 1009.66C619.865 1007.37 613.794 1006.77 607.936 1007.93C602.078 1009.1 596.696 1011.97 592.473 1016.2C588.25 1020.42 585.375 1025.8 584.211 1031.66C583.047 1037.52 583.647 1043.59 585.936 1049.1C588.224 1054.62 592.097 1059.33 597.065 1062.65C602.034 1065.96 607.874 1067.73 613.846 1067.72C621.842 1067.72 629.508 1064.54 635.161 1058.88C640.815 1053.23 643.995 1045.56 644.002 1037.57Z" fill="#FFD95C"/>
<path d="M629.14 1022.27H598.552V1052.86H629.14V1022.27Z" fill="#FFD95C" stroke="black" stroke-width="1.33739" stroke-linecap="round" stroke-linejoin="round"/>
<path d="M978.193 690.47C978.193 690.47 938.119 588.646 973.795 576.543C1010.94 563.923 1009.3 631.164 1007.86 663.936C1004.84 733.965 997.109 746.988 991.331 729.883L978.193 690.47ZM966.148 769.899C977.158 784.273 980.263 769.382 960.398 702.141C951.084 670.519 930.846 606.556 899.799 630.56C869.987 653.558 940.936 736.926 940.936 736.926L966.148 769.899ZM944.875 828.257C955.368 837.571 955.569 825.813 930.645 777.259C918.944 754.519 894.193 708.495 873.926 731.263C854.464 753.226 920.784 806.61 920.784 806.61L944.875 828.257ZM921.877 897.654C932.37 906.997 932.571 895.21 907.647 846.684C895.946 823.945 871.195 777.891 850.928 800.688C831.581 822.709 897.7 876.093 897.7 876.093L921.877 897.654ZM988.284 756.388C971.495 762.942 984.834 770.072 1054.95 769.871C1087.84 769.871 1154.99 768.376 1140.67 731.838C1126.96 696.737 1027.09 741.439 1027.09 741.439L988.284 756.388ZM969.166 803.074C951.4 806.15 963.072 815.809 1031.84 829.551C1064.06 836.019 1130.15 847.949 1123.4 809.427C1116.93 772.285 1010.16 796.261 1010.16 796.261L969.166 803.074ZM947.778 860.081C932.657 862.265 942.316 870.688 1000.13 883.912C1027.24 890.122 1082.86 901.765 1078.03 868.906C1073.43 837.284 982.592 855.165 982.592 855.165L947.778 860.081ZM931.536 912.89C916.731 916.656 927.224 924.015 986.156 931.029C1013.75 934.307 1070.3 939.999 1062.05 907.83C1054.09 876.955 965.659 904.294 965.659 904.294L931.536 912.89ZM1018.18 699.094C1009.56 718.413 1027.47 715.48 1088.35 662.355C1116.87 637.431 1174.08 585.283 1128.77 559.324C1085.28 534.371 1038.51 654.765 1038.51 654.765L1018.18 699.094ZM933.778 981.683C924.665 987.001 933.606 989.071 975.405 980.734C995.01 976.853 1034.88 968.229 1021.4 951.21C1008.35 934.824 954.879 969.321 954.879 969.321L933.778 981.683Z" fill="#FFD95C"/>
<path opacity="0.3" d="M978.193 690.47C978.193 690.47 938.119 588.646 973.795 576.543C1010.94 563.923 1009.3 631.164 1007.86 663.936C1004.84 733.965 997.109 746.988 991.331 729.883L978.193 690.47ZM966.148 769.899C977.158 784.273 980.263 769.382 960.398 702.141C951.084 670.519 930.846 606.556 899.799 630.56C869.987 653.558 940.936 736.926 940.936 736.926L966.148 769.899ZM944.875 828.257C955.368 837.571 955.569 825.813 930.645 777.259C918.944 754.519 894.193 708.495 873.926 731.263C854.464 753.226 920.784 806.61 920.784 806.61L944.875 828.257ZM921.877 897.654C932.37 906.997 932.571 895.21 907.647 846.684C895.946 823.945 871.195 777.891 850.928 800.688C831.581 822.709 897.7 876.093 897.7 876.093L921.877 897.654ZM988.284 756.388C971.495 762.942 984.834 770.072 1054.95 769.871C1087.84 769.871 1154.99 768.376 1140.67 731.838C1126.96 696.737 1027.09 741.439 1027.09 741.439L988.284 756.388ZM969.166 803.074C951.4 806.15 963.072 815.809 1031.84 829.551C1064.06 836.019 1130.15 847.949 1123.4 809.427C1116.93 772.285 1010.16 796.261 1010.16 796.261L969.166 803.074ZM947.778 860.081C932.657 862.265 942.316 870.688 1000.13 883.912C1027.24 890.122 1082.86 901.765 1078.03 868.906C1073.43 837.284 982.592 855.165 982.592 855.165L947.778 860.081ZM931.536 912.89C916.731 916.656 927.224 924.015 986.156 931.029C1013.75 934.307 1070.3 939.999 1062.05 907.83C1054.09 876.955 965.659 904.294 965.659 904.294L931.536 912.89ZM1018.18 699.094C1009.56 718.413 1027.47 715.48 1088.35 662.355C1116.87 637.431 1174.08 585.283 1128.77 559.324C1085.28 534.371 1038.51 654.765 1038.51 654.765L1018.18 699.094ZM933.778 981.683C924.665 987.001 933.606 989.071 975.405 980.734C995.01 976.853 1034.88 968.229 1021.4 951.21C1008.35 934.824 954.879 969.321 954.879 969.321L933.778 981.683Z" fill="white"/>
<path d="M995.873 737.874L988.887 621.648ZM973.766 776.223L929.61 676.268ZM1087.72 747.16L981.902 762.338ZM950.883 830.096L893.589 756.589ZM960.945 807.558L1039.89 811.525ZM942.259 863.932L1002.63 869.912ZM927.684 899.752L897.7 854.647ZM924.234 915.678L995.212 916.339ZM909.86 1048.84C910.336 1048.8 910.778 1048.58 911.09 1048.22C911.402 1047.86 911.559 1047.39 911.528 1046.91C907.014 979.124 933.232 868.101 975.29 776.971C1002.17 718.728 1107.53 604.256 1108.65 603.106C1108.99 602.766 1109.18 602.306 1109.18 601.826C1109.18 601.347 1108.99 600.887 1108.65 600.547C1108.48 600.38 1108.29 600.248 1108.07 600.157C1107.85 600.067 1107.62 600.021 1107.38 600.021C1107.15 600.021 1106.92 600.067 1106.7 600.157C1106.48 600.248 1106.29 600.38 1106.12 600.547C1105.06 601.697 999.265 716.601 972.156 775.361C929.322 868.704 903.45 977.715 908.049 1047.14C908.085 1047.6 908.291 1048.03 908.626 1048.34C908.961 1048.65 909.401 1048.83 909.86 1048.84ZM995.844 739.657C996.32 739.627 996.764 739.411 997.082 739.056C997.399 738.701 997.564 738.235 997.54 737.759L990.67 621.475C990.659 621.239 990.601 621.006 990.499 620.792C990.397 620.578 990.254 620.387 990.077 620.229C989.901 620.071 989.694 619.95 989.47 619.873C989.246 619.795 989.009 619.764 988.772 619.779C988.297 619.809 987.852 620.025 987.535 620.38C987.218 620.735 987.053 621.201 987.076 621.677L994.062 737.903C994.084 738.361 994.282 738.792 994.614 739.108C994.945 739.424 995.386 739.6 995.844 739.599V739.657ZM974.399 777.862C974.829 777.667 975.167 777.311 975.339 776.871C975.51 776.43 975.503 775.94 975.319 775.505L931.134 675.55C930.943 675.115 930.588 674.774 930.145 674.601C929.703 674.429 929.211 674.439 928.776 674.63C928.342 674.82 928.001 675.176 927.828 675.618C927.656 676.06 927.666 676.552 927.856 676.987L972.013 776.942C972.151 777.263 972.38 777.537 972.67 777.731C972.961 777.924 973.302 778.03 973.651 778.035C973.949 778.05 974.245 777.991 974.514 777.862H974.399ZM982.046 764.063L1087.81 748.942C1088.06 748.937 1088.31 748.878 1088.55 748.768C1088.78 748.659 1088.98 748.502 1089.15 748.308C1089.31 748.113 1089.44 747.886 1089.51 747.641C1089.58 747.396 1089.6 747.138 1089.56 746.885C1089.53 746.632 1089.44 746.389 1089.31 746.173C1089.17 745.956 1088.99 745.77 1088.78 745.628C1088.57 745.485 1088.33 745.39 1088.08 745.346C1087.82 745.303 1087.57 745.314 1087.32 745.377L981.557 760.499C981.084 760.529 980.643 760.746 980.33 761.102C980.018 761.458 979.859 761.923 979.889 762.396C979.92 762.869 980.137 763.31 980.493 763.623C980.849 763.935 981.314 764.094 981.787 764.063H982.046ZM951.889 831.534C952.265 831.239 952.509 830.808 952.568 830.334C952.627 829.86 952.497 829.382 952.206 829.004L894.883 755.353C894.589 754.972 894.156 754.723 893.679 754.661C893.202 754.599 892.72 754.729 892.339 755.022C891.958 755.316 891.708 755.749 891.646 756.226C891.584 756.703 891.715 757.185 892.008 757.566L949.446 831.333C949.612 831.547 949.826 831.721 950.07 831.841C950.314 831.96 950.583 832.023 950.854 832.023C951.284 832.001 951.691 831.828 952.004 831.534H951.889ZM1041.47 811.612C1041.48 811.136 1041.31 810.674 1040.99 810.324C1040.66 809.974 1040.22 809.766 1039.74 809.743L960.945 805.747C960.502 805.778 960.086 805.97 959.775 806.287C959.465 806.604 959.281 807.024 959.26 807.467C959.239 807.911 959.381 808.346 959.66 808.692C959.939 809.037 960.334 809.268 960.772 809.341L1039.71 813.337C1040.19 813.352 1040.65 813.18 1041 812.857C1041.35 812.535 1041.56 812.087 1041.58 811.612H1041.47ZM1004.3 870.084C1004.32 869.848 1004.3 869.608 1004.24 869.379C1004.17 869.151 1004.06 868.938 1003.91 868.753C1003.76 868.568 1003.57 868.415 1003.36 868.303C1003.15 868.191 1002.92 868.122 1002.69 868.101L942.316 862.15C942.082 862.126 941.845 862.149 941.62 862.217C941.395 862.286 941.185 862.398 941.003 862.547C940.822 862.697 940.671 862.881 940.561 863.089C940.451 863.298 940.383 863.525 940.362 863.76C940.321 864.231 940.467 864.7 940.768 865.065C941.069 865.431 941.501 865.664 941.971 865.715L1002.34 871.694H1002.51C1002.98 871.726 1003.44 871.576 1003.79 871.275C1004.14 870.974 1004.37 870.547 1004.41 870.084H1004.3ZM928.546 901.247C928.946 900.983 929.224 900.572 929.321 900.103C929.418 899.634 929.325 899.146 929.064 898.746L899.224 853.641C898.951 853.252 898.538 852.984 898.072 852.893C897.605 852.802 897.122 852.895 896.723 853.152C896.324 853.416 896.045 853.827 895.948 854.296C895.851 854.764 895.944 855.252 896.205 855.653L926.045 900.758C926.216 901.005 926.444 901.206 926.709 901.347C926.974 901.487 927.269 901.561 927.569 901.563C927.958 901.584 928.343 901.473 928.661 901.247H928.546ZM997.023 916.339C997.016 915.866 996.827 915.414 996.495 915.076C996.163 914.739 995.714 914.543 995.241 914.528L924.263 913.867C923.79 913.867 923.337 914.055 923.003 914.389C922.668 914.723 922.481 915.176 922.481 915.649C922.473 915.887 922.513 916.123 922.6 916.345C922.686 916.566 922.817 916.768 922.983 916.937C923.15 917.106 923.349 917.24 923.569 917.33C923.789 917.42 924.025 917.464 924.263 917.46L995.241 918.122C995.483 918.133 995.726 918.096 995.954 918.012C996.181 917.928 996.39 917.799 996.567 917.633C996.744 917.466 996.886 917.266 996.984 917.044C997.082 916.822 997.134 916.582 997.138 916.339H997.023ZM901.782 1022.48C901.926 1022.16 914.029 988.812 950.423 980.849C950.892 980.746 951.301 980.461 951.559 980.056C951.818 979.652 951.906 979.162 951.803 978.693C951.687 978.233 951.398 977.836 950.996 977.584C950.595 977.333 950.111 977.246 949.647 977.342C911.269 985.736 898.534 1020.95 898.39 1021.3C898.242 1021.75 898.276 1022.24 898.485 1022.67C898.695 1023.1 899.063 1023.43 899.511 1023.6H900.086C900.469 1023.63 900.851 1023.54 901.178 1023.34C901.504 1023.13 901.756 1022.83 901.897 1022.48H901.782ZM909.86 1048.84C910.336 1048.8 910.778 1048.58 911.09 1048.22C911.402 1047.86 911.559 1047.39 911.528 1046.91C907.014 979.124 933.232 868.101 975.29 776.971C1002.17 718.728 1107.53 604.256 1108.65 603.106C1108.99 602.766 1109.18 602.306 1109.18 601.826C1109.18 601.347 1108.99 600.887 1108.65 600.547C1108.48 600.38 1108.29 600.248 1108.07 600.157C1107.85 600.067 1107.62 600.021 1107.38 600.021C1107.15 600.021 1106.92 600.067 1106.7 600.157C1106.48 600.248 1106.29 600.38 1106.12 600.547C1105.06 601.697 999.265 716.601 972.156 775.361C929.322 868.704 903.45 977.715 908.049 1047.14C908.085 1047.6 908.291 1048.03 908.626 1048.34C908.961 1048.65 909.401 1048.83 909.86 1048.84ZM995.844 739.657C996.32 739.627 996.764 739.411 997.082 739.056C997.399 738.701 997.564 738.235 997.54 737.759L990.67 621.475C990.659 621.239 990.601 621.006 990.499 620.792C990.397 620.578 990.254 620.387 990.077 620.229C989.901 620.071 989.694 619.95 989.47 619.873C989.246 619.795 989.009 619.764 988.772 619.779C988.297 619.809 987.852 620.025 987.535 620.38C987.218 620.735 987.053 621.201 987.076 621.677L994.062 737.903C994.084 738.361 994.282 738.792 994.614 739.108C994.945 739.424 995.386 739.6 995.844 739.599V739.657ZM974.399 777.862C974.829 777.667 975.167 777.311 975.339 776.871C975.51 776.43 975.503 775.94 975.319 775.505L931.134 675.55C930.943 675.115 930.588 674.774 930.145 674.601C929.703 674.429 929.211 674.439 928.776 674.63C928.342 674.82 928.001 675.176 927.828 675.618C927.656 676.06 927.666 676.552 927.856 676.987L972.013 776.942C972.151 777.263 972.38 777.537 972.67 777.731C972.961 777.924 973.302 778.03 973.651 778.035C973.949 778.05 974.245 777.991 974.514 777.862H974.399ZM982.046 764.063L1087.81 748.942C1088.06 748.937 1088.31 748.878 1088.55 748.768C1088.78 748.659 1088.98 748.502 1089.15 748.308C1089.31 748.113 1089.44 747.886 1089.51 747.641C1089.58 747.396 1089.6 747.138 1089.56 746.885C1089.53 746.632 1089.44 746.389 1089.31 746.173C1089.17 745.956 1088.99 745.77 1088.78 745.628C1088.57 745.485 1088.33 745.39 1088.08 745.346C1087.82 745.303 1087.57 745.314 1087.32 745.377L981.557 760.499C981.084 760.529 980.643 760.746 980.33 761.102C980.018 761.458 979.859 761.923 979.889 762.396C979.92 762.869 980.137 763.31 980.493 763.623C980.849 763.935 981.314 764.094 981.787 764.063H982.046ZM951.889 831.534C952.265 831.239 952.509 830.808 952.568 830.334C952.627 829.86 952.497 829.382 952.206 829.004L894.883 755.353C894.738 755.164 894.556 755.006 894.35 754.887C894.143 754.768 893.916 754.691 893.679 754.661C893.443 754.63 893.203 754.646 892.973 754.708C892.743 754.77 892.528 754.877 892.339 755.022C892.15 755.168 891.992 755.349 891.873 755.555C891.754 755.762 891.677 755.99 891.646 756.226C891.616 756.462 891.632 756.702 891.694 756.932C891.756 757.162 891.863 757.378 892.008 757.566L949.446 831.333C949.612 831.547 949.826 831.721 950.07 831.841C950.314 831.96 950.583 832.023 950.854 832.023C951.284 832.001 951.691 831.828 952.004 831.534H951.889ZM1041.47 811.612C1041.48 811.136 1041.31 810.674 1040.99 810.324C1040.66 809.974 1040.22 809.766 1039.74 809.743L960.945 805.747C960.502 805.778 960.086 805.97 959.775 806.287C959.465 806.604 959.281 807.024 959.26 807.467C959.239 807.911 959.381 808.346 959.66 808.692C959.939 809.037 960.334 809.268 960.772 809.341L1039.71 813.337C1040.19 813.352 1040.65 813.18 1041 812.857C1041.35 812.535 1041.56 812.087 1041.58 811.612H1041.47ZM1004.3 870.084C1004.32 869.848 1004.3 869.608 1004.24 869.379C1004.17 869.151 1004.06 868.938 1003.91 868.753C1003.76 868.568 1003.57 868.415 1003.36 868.303C1003.15 868.191 1002.92 868.122 1002.69 868.101L942.316 862.15C942.082 862.126 941.845 862.149 941.62 862.217C941.395 862.286 941.185 862.398 941.003 862.547C940.822 862.697 940.671 862.881 940.561 863.089C940.451 863.298 940.383 863.525 940.362 863.76C940.321 864.231 940.467 864.7 940.768 865.065C941.069 865.431 941.501 865.664 941.971 865.715L1002.34 871.694H1002.51C1002.98 871.726 1003.44 871.576 1003.79 871.275C1004.14 870.974 1004.37 870.547 1004.41 870.084H1004.3ZM928.546 901.247C928.946 900.983 929.224 900.572 929.321 900.103C929.418 899.634 929.325 899.146 929.064 898.746L899.224 853.641C898.951 853.252 898.538 852.984 898.072 852.893C897.605 852.802 897.122 852.895 896.723 853.152C896.324 853.416 896.045 853.827 895.948 854.296C895.851 854.764 895.944 855.252 896.205 855.653L926.045 900.758C926.216 901.005 926.444 901.206 926.709 901.347C926.974 901.487 927.269 901.561 927.569 901.563C927.958 901.584 928.343 901.473 928.661 901.247H928.546ZM997.023 916.339C997.016 915.866 996.827 915.414 996.495 915.076C996.163 914.739 995.714 914.543 995.241 914.528L924.263 913.867C923.79 913.867 923.337 914.055 923.003 914.389C922.668 914.723 922.481 915.176 922.481 915.649C922.473 915.887 922.513 916.123 922.6 916.345C922.686 916.566 922.817 916.768 922.983 916.937C923.15 917.106 923.349 917.24 923.569 917.33C923.789 917.42 924.025 917.464 924.263 917.46L995.241 918.122C995.483 918.133 995.726 918.096 995.954 918.012C996.181 917.928 996.39 917.799 996.567 917.633C996.744 917.466 996.886 917.266 996.984 917.044C997.082 916.822 997.134 916.582 997.138 916.339H997.023ZM901.782 1022.48C901.926 1022.16 914.029 988.812 950.423 980.849C950.892 980.746 951.301 980.461 951.559 980.056C951.818 979.652 951.906 979.162 951.803 978.693C951.687 978.233 951.398 977.836 950.996 977.584C950.595 977.333 950.111 977.246 949.647 977.342C911.269 985.736 898.534 1020.95 898.39 1021.3C898.242 1021.75 898.276 1022.24 898.485 1022.67C898.695 1023.1 899.063 1023.43 899.511 1023.6H900.086C900.469 1023.63 900.851 1023.54 901.178 1023.34C901.504 1023.13 901.756 1022.83 901.897 1022.48H901.782Z" fill="#FFD95C"/>
<path opacity="0.2" d="M995.873 737.874L988.887 621.648ZM973.766 776.223L929.61 676.268ZM1087.72 747.16L981.902 762.338ZM950.883 830.096L893.589 756.589ZM960.945 807.558L1039.89 811.525ZM942.259 863.932L1002.63 869.912ZM927.684 899.752L897.7 854.647ZM924.234 915.678L995.212 916.339ZM909.86 1048.84C910.336 1048.8 910.778 1048.58 911.09 1048.22C911.402 1047.86 911.559 1047.39 911.528 1046.91C907.014 979.124 933.232 868.101 975.29 776.971C1002.17 718.728 1107.53 604.256 1108.65 603.106C1108.99 602.766 1109.18 602.306 1109.18 601.826C1109.18 601.347 1108.99 600.887 1108.65 600.547C1108.48 600.38 1108.29 600.248 1108.07 600.157C1107.85 600.067 1107.62 600.021 1107.38 600.021C1107.15 600.021 1106.92 600.067 1106.7 600.157C1106.48 600.248 1106.29 600.38 1106.12 600.547C1105.06 601.697 999.265 716.601 972.156 775.361C929.322 868.704 903.45 977.715 908.049 1047.14C908.085 1047.6 908.291 1048.03 908.626 1048.34C908.961 1048.65 909.401 1048.83 909.86 1048.84ZM995.844 739.657C996.32 739.627 996.764 739.411 997.082 739.056C997.399 738.701 997.564 738.235 997.54 737.759L990.67 621.475C990.659 621.239 990.601 621.006 990.499 620.792C990.397 620.578 990.254 620.387 990.077 620.229C989.901 620.071 989.694 619.95 989.47 619.873C989.246 619.795 989.009 619.764 988.772 619.779C988.297 619.809 987.852 620.025 987.535 620.38C987.218 620.735 987.053 621.201 987.076 621.677L994.062 737.903C994.084 738.361 994.282 738.792 994.614 739.108C994.945 739.424 995.386 739.6 995.844 739.599V739.657ZM974.399 777.862C974.829 777.667 975.167 777.311 975.339 776.871C975.51 776.43 975.503 775.94 975.319 775.505L931.134 675.55C930.943 675.115 930.588 674.774 930.145 674.601C929.703 674.429 929.211 674.439 928.776 674.63C928.342 674.82 928.001 675.176 927.828 675.618C927.656 676.06 927.666 676.552 927.856 676.987L972.013 776.942C972.151 777.263 972.38 777.537 972.67 777.731C972.961 777.924 973.302 778.03 973.651 778.035C973.949 778.05 974.245 777.991 974.514 777.862H974.399ZM982.046 764.063L1087.81 748.942C1088.06 748.937 1088.31 748.878 1088.55 748.768C1088.78 748.659 1088.98 748.502 1089.15 748.308C1089.31 748.113 1089.44 747.886 1089.51 747.641C1089.58 747.396 1089.6 747.138 1089.56 746.885C1089.53 746.632 1089.44 746.389 1089.31 746.173C1089.17 745.956 1088.99 745.77 1088.78 745.628C1088.57 745.485 1088.33 745.39 1088.08 745.346C1087.82 745.303 1087.57 745.314 1087.32 745.377L981.557 760.499C981.084 760.529 980.643 760.746 980.33 761.102C980.018 761.458 979.859 761.923 979.889 762.396C979.92 762.869 980.137 763.31 980.493 763.623C980.849 763.935 981.314 764.094 981.787 764.063H982.046ZM951.889 831.534C952.265 831.239 952.509 830.808 952.568 830.334C952.627 829.86 952.497 829.382 952.206 829.004L894.883 755.353C894.589 754.972 894.156 754.723 893.679 754.661C893.202 754.599 892.72 754.729 892.339 755.022C891.958 755.316 891.708 755.749 891.646 756.226C891.584 756.703 891.715 757.185 892.008 757.566L949.446 831.333C949.612 831.547 949.826 831.721 950.07 831.841C950.314 831.96 950.583 832.023 950.854 832.023C951.284 832.001 951.691 831.828 952.004 831.534H951.889ZM1041.47 811.612C1041.48 811.136 1041.31 810.674 1040.99 810.324C1040.66 809.974 1040.22 809.766 1039.74 809.743L960.945 805.747C960.502 805.778 960.086 805.97 959.775 806.287C959.465 806.604 959.281 807.024 959.26 807.467C959.239 807.911 959.381 808.346 959.66 808.692C959.939 809.037 960.334 809.268 960.772 809.341L1039.71 813.337C1040.19 813.352 1040.65 813.18 1041 812.857C1041.35 812.535 1041.56 812.087 1041.58 811.612H1041.47ZM1004.3 870.084C1004.32 869.848 1004.3 869.608 1004.24 869.379C1004.17 869.151 1004.06 868.938 1003.91 868.753C1003.76 868.568 1003.57 868.415 1003.36 868.303C1003.15 868.191 1002.92 868.122 1002.69 868.101L942.316 862.15C942.082 862.126 941.845 862.149 941.62 862.217C941.395 862.286 941.185 862.398 941.003 862.547C940.822 862.697 940.671 862.881 940.561 863.089C940.451 863.298 940.383 863.525 940.362 863.76C940.321 864.231 940.467 864.7 940.768 865.065C941.069 865.431 941.501 865.664 941.971 865.715L1002.34 871.694H1002.51C1002.98 871.726 1003.44 871.576 1003.79 871.275C1004.14 870.974 1004.37 870.547 1004.41 870.084H1004.3ZM928.546 901.247C928.946 900.983 929.224 900.572 929.321 900.103C929.418 899.634 929.325 899.146 929.064 898.746L899.224 853.641C898.951 853.252 898.538 852.984 898.072 852.893C897.605 852.802 897.122 852.895 896.723 853.152C896.324 853.416 896.045 853.827 895.948 854.296C895.851 854.764 895.944 855.252 896.205 855.653L926.045 900.758C926.216 901.005 926.444 901.206 926.709 901.347C926.974 901.487 927.269 901.561 927.569 901.563C927.958 901.584 928.343 901.473 928.661 901.247H928.546ZM997.023 916.339C997.016 915.866 996.827 915.414 996.495 915.076C996.163 914.739 995.714 914.543 995.241 914.528L924.263 913.867C923.79 913.867 923.337 914.055 923.003 914.389C922.668 914.723 922.481 915.176 922.481 915.649C922.473 915.887 922.513 916.123 922.6 916.345C922.686 916.566 922.817 916.768 922.983 916.937C923.15 917.106 923.349 917.24 923.569 917.33C923.789 917.42 924.025 917.464 924.263 917.46L995.241 918.122C995.483 918.133 995.726 918.096 995.954 918.012C996.181 917.928 996.39 917.799 996.567 917.633C996.744 917.466 996.886 917.266 996.984 917.044C997.082 916.822 997.134 916.582 997.138 916.339H997.023ZM901.782 1022.48C901.926 1022.16 914.029 988.812 950.423 980.849C950.892 980.746 951.301 980.461 951.559 980.056C951.818 979.652 951.906 979.162 951.803 978.693C951.687 978.233 951.398 977.836 950.996 977.584C950.595 977.333 950.111 977.246 949.647 977.342C911.269 985.736 898.534 1020.95 898.39 1021.3C898.242 1021.75 898.276 1022.24 898.485 1022.67C898.695 1023.1 899.063 1023.43 899.511 1023.6H900.086C900.469 1023.63 900.851 1023.54 901.178 1023.34C901.504 1023.13 901.756 1022.83 901.897 1022.48H901.782ZM909.86 1048.84C910.336 1048.8 910.778 1048.58 911.09 1048.22C911.402 1047.86 911.559 1047.39 911.528 1046.91C907.014 979.124 933.232 868.101 975.29 776.971C1002.17 718.728 1107.53 604.256 1108.65 603.106C1108.99 602.766 1109.18 602.306 1109.18 601.826C1109.18 601.347 1108.99 600.887 1108.65 600.547C1108.48 600.38 1108.29 600.248 1108.07 600.157C1107.85 600.067 1107.62 600.021 1107.38 600.021C1107.15 600.021 1106.92 600.067 1106.7 600.157C1106.48 600.248 1106.29 600.38 1106.12 600.547C1105.06 601.697 999.265 716.601 972.156 775.361C929.322 868.704 903.45 977.715 908.049 1047.14C908.085 1047.6 908.291 1048.03 908.626 1048.34C908.961 1048.65 909.401 1048.83 909.86 1048.84ZM995.844 739.657C996.32 739.627 996.764 739.411 997.082 739.056C997.399 738.701 997.564 738.235 997.54 737.759L990.67 621.475C990.659 621.239 990.601 621.006 990.499 620.792C990.397 620.578 990.254 620.387 990.077 620.229C989.901 620.071 989.694 619.95 989.47 619.873C989.246 619.795 989.009 619.764 988.772 619.779C988.297 619.809 987.852 620.025 987.535 620.38C987.218 620.735 987.053 621.201 987.076 621.677L994.062 737.903C994.084 738.361 994.282 738.792 994.614 739.108C994.945 739.424 995.386 739.6 995.844 739.599V739.657ZM974.399 777.862C974.829 777.667 975.167 777.311 975.339 776.871C975.51 776.43 975.503 775.94 975.319 775.505L931.134 675.55C930.943 675.115 930.588 674.774 930.145 674.601C929.703 674.429 929.211 674.439 928.776 674.63C928.342 674.82 928.001 675.176 927.828 675.618C927.656 676.06 927.666 676.552 927.856 676.987L972.013 776.942C972.151 777.263 972.38 777.537 972.67 777.731C972.961 777.924 973.302 778.03 973.651 778.035C973.949 778.05 974.245 777.991 974.514 777.862H974.399ZM982.046 764.063L1087.81 748.942C1088.06 748.937 1088.31 748.878 1088.55 748.768C1088.78 748.659 1088.98 748.502 1089.15 748.308C1089.31 748.113 1089.44 747.886 1089.51 747.641C1089.58 747.396 1089.6 747.138 1089.56 746.885C1089.53 746.632 1089.44 746.389 1089.31 746.173C1089.17 745.956 1088.99 745.77 1088.78 745.628C1088.57 745.485 1088.33 745.39 1088.08 745.346C1087.82 745.303 1087.57 745.314 1087.32 745.377L981.557 760.499C981.084 760.529 980.643 760.746 980.33 761.102C980.018 761.458 979.859 761.923 979.889 762.396C979.92 762.869 980.137 763.31 980.493 763.623C980.849 763.935 981.314 764.094 981.787 764.063H982.046ZM951.889 831.534C952.265 831.239 952.509 830.808 952.568 830.334C952.627 829.86 952.497 829.382 952.206 829.004L894.883 755.353C894.738 755.164 894.556 755.006 894.35 754.887C894.143 754.768 893.916 754.691 893.679 754.661C893.443 754.63 893.203 754.646 892.973 754.708C892.743 754.77 892.528 754.877 892.339 755.022C892.15 755.168 891.992 755.349 891.873 755.555C891.754 755.762 891.677 755.99 891.646 756.226C891.616 756.462 891.632 756.702 891.694 756.932C891.756 757.162 891.863 757.378 892.008 757.566L949.446 831.333C949.612 831.547 949.826 831.721 950.07 831.841C950.314 831.96 950.583 832.023 950.854 832.023C951.284 832.001 951.691 831.828 952.004 831.534H951.889ZM1041.47 811.612C1041.48 811.136 1041.31 810.674 1040.99 810.324C1040.66 809.974 1040.22 809.766 1039.74 809.743L960.945 805.747C960.502 805.778 960.086 805.97 959.775 806.287C959.465 806.604 959.281 807.024 959.26 807.467C959.239 807.911 959.381 808.346 959.66 808.692C959.939 809.037 960.334 809.268 960.772 809.341L1039.71 813.337C1040.19 813.352 1040.65 813.18 1041 812.857C1041.35 812.535 1041.56 812.087 1041.58 811.612H1041.47ZM1004.3 870.084C1004.32 869.848 1004.3 869.608 1004.24 869.379C1004.17 869.151 1004.06 868.938 1003.91 868.753C1003.76 868.568 1003.57 868.415 1003.36 868.303C1003.15 868.191 1002.92 868.122 1002.69 868.101L942.316 862.15C942.082 862.126 941.845 862.149 941.62 862.217C941.395 862.286 941.185 862.398 941.003 862.547C940.822 862.697 940.671 862.881 940.561 863.089C940.451 863.298 940.383 863.525 940.362 863.76C940.321 864.231 940.467 864.7 940.768 865.065C941.069 865.431 941.501 865.664 941.971 865.715L1002.34 871.694H1002.51C1002.98 871.726 1003.44 871.576 1003.79 871.275C1004.14 870.974 1004.37 870.547 1004.41 870.084H1004.3ZM928.546 901.247C928.946 900.983 929.224 900.572 929.321 900.103C929.418 899.634 929.325 899.146 929.064 898.746L899.224 853.641C898.951 853.252 898.538 852.984 898.072 852.893C897.605 852.802 897.122 852.895 896.723 853.152C896.324 853.416 896.045 853.827 895.948 854.296C895.851 854.764 895.944 855.252 896.205 855.653L926.045 900.758C926.216 901.005 926.444 901.206 926.709 901.347C926.974 901.487 927.269 901.561 927.569 901.563C927.958 901.584 928.343 901.473 928.661 901.247H928.546ZM997.023 916.339C997.016 915.866 996.827 915.414 996.495 915.076C996.163 914.739 995.714 914.543 995.241 914.528L924.263 913.867C923.79 913.867 923.337 914.055 923.003 914.389C922.668 914.723 922.481 915.176 922.481 915.649C922.473 915.887 922.513 916.123 922.6 916.345C922.686 916.566 922.817 916.768 922.983 916.937C923.15 917.106 923.349 917.24 923.569 917.33C923.789 917.42 924.025 917.464 924.263 917.46L995.241 918.122C995.483 918.133 995.726 918.096 995.954 918.012C996.181 917.928 996.39 917.799 996.567 917.633C996.744 917.466 996.886 917.266 996.984 917.044C997.082 916.822 997.134 916.582 997.138 916.339H997.023ZM901.782 1022.48C901.926 1022.16 914.029 988.812 950.423 980.849C950.892 980.746 951.301 980.461 951.559 980.056C951.818 979.652 951.906 979.162 951.803 978.693C951.687 978.233 951.398 977.836 950.996 977.584C950.595 977.333 950.111 977.246 949.647 977.342C911.269 985.736 898.534 1020.95 898.39 1021.3C898.242 1021.75 898.276 1022.24 898.485 1022.67C898.695 1023.1 899.063 1023.43 899.511 1023.6H900.086C900.469 1023.63 900.851 1023.54 901.178 1023.34C901.504 1023.13 901.756 1022.83 901.897 1022.48H901.782Z" fill="black"/>
<path d="M956.805 998.155H875.42V1015H882.521L897.211 1106.91H935.014L949.704 1015H956.805V998.155Z" fill="#FFD95C"/>
<path opacity="0.3" d="M956.805 998.155H875.42V1015H882.521L897.211 1106.91H935.014L949.704 1015H956.805V998.155Z" fill="white"/>
<path d="M224.087 488.749L129.421 457.845L120.998 435.595L101.766 434.991L66.8667 428.379L71.0638 435.595L114.99 467.476L125.828 472.88L224.835 524.597L224.087 488.749Z" fill="white" stroke="black" stroke-width="1.00396" stroke-miterlimit="10"/>
<path d="M120.998 435.594L111.971 430.189L93.9468 436.801L96.9365 440.395L120.998 435.594Z" fill="white" stroke="black" stroke-width="1.00396" stroke-linejoin="round"/>
<path d="M224.087 488.749L129.421 457.845L120.998 435.595L101.766 434.991L66.8667 428.379L71.0638 435.595L114.99 467.476L125.828 472.88L224.835 524.597L224.087 488.749Z" fill="white"/>
<mask id="mask0_1681_2373" style="mask-type:luminance" maskUnits="userSpaceOnUse" x="66" y="428" width="159" height="97">
<path d="M224.087 488.749L129.421 457.845L120.998 435.595L101.766 434.991L66.8667 428.379L71.0638 435.595L114.99 467.476L125.828 472.88L224.835 524.597L224.087 488.749Z" fill="white"/>
</mask>
<g mask="url(#mask0_1681_2373)">
<path opacity="0.5" d="M224.087 488.749L129.421 457.845L120.998 435.595L101.766 434.991L66.8667 428.379L71.0638 435.595L114.99 467.476L125.828 472.88L224.835 524.597L224.087 488.749Z" fill="#FFD95C" stroke="black" stroke-width="1.00396" stroke-miterlimit="10"/>
</g>
<path d="M224.087 488.749L129.421 457.845L120.998 435.595L101.766 434.991L66.8667 428.379L71.0638 435.595L114.99 467.476L125.828 472.88L224.835 524.597L224.087 488.749Z" stroke="black" stroke-width="1.00396" stroke-miterlimit="10"/>
<path d="M120.998 435.594L111.971 430.189L93.9468 436.801L96.9365 440.395L120.998 435.594Z" fill="white"/>
<mask id="mask1_1681_2373" style="mask-type:luminance" maskUnits="userSpaceOnUse" x="93" y="430" width="28" height="11">
<path d="M120.998 435.594L111.971 430.189L93.9468 436.801L96.9365 440.395L120.998 435.594Z" fill="white"/>
</mask>
<g mask="url(#mask1_1681_2373)">
<path opacity="0.5" d="M120.998 435.594L111.971 430.189L93.9468 436.801L96.9365 440.395L120.998 435.594Z" fill="#FFD95C" stroke="black" stroke-width="1.00396" stroke-linejoin="round"/>
</g>
<path d="M120.998 435.594L111.971 430.189L93.9468 436.801L96.9365 440.395L120.998 435.594Z" stroke="black" stroke-width="1.00396" stroke-linejoin="round"/>
<path d="M244.182 288.177C244.182 288.177 242.716 301.114 246.366 309.422C250.017 317.73 270.284 345.874 270.284 345.874L232.453 376.202C232.453 376.202 216.756 344.58 213.767 339.463C210.777 334.346 207.184 312.325 216.929 296.543C226.674 280.76 240.703 276.506 244.182 288.177Z" fill="white"/>
<mask id="mask2_1681_2373" style="mask-type:luminance" maskUnits="userSpaceOnUse" x="210" y="281" width="61" height="96">
<path d="M244.182 288.177C244.182 288.177 242.716 301.114 246.366 309.422C250.017 317.73 270.284 345.874 270.284 345.874L232.453 376.202C232.453 376.202 216.756 344.58 213.767 339.463C210.777 334.346 207.184 312.325 216.929 296.543C226.674 280.76 240.703 276.506 244.182 288.177Z" fill="white"/>
</mask>
<g mask="url(#mask2_1681_2373)">
<g style="mix-blend-mode:multiply" opacity="0.5">
<path d="M224.748 329.746L241.163 363.783L232.424 376.231L215.923 346.765L224.748 329.746Z" fill="#FFD95C"/>
</g>
</g>
<path d="M244.182 288.177C244.182 288.177 242.716 301.114 246.366 309.422C250.017 317.73 270.284 345.874 270.284 345.874L232.453 376.202C232.453 376.202 216.756 344.58 213.767 339.463C210.777 334.346 207.184 312.325 216.929 296.543C226.674 280.76 240.703 276.506 244.182 288.177Z" stroke="black" stroke-width="1.00396" stroke-miterlimit="10"/>
<path d="M255.91 264.489C253.582 250.115 237.109 220.879 210.978 222C194.017 222.748 186.083 226.168 178.723 230.337C172.724 233.871 167.133 238.055 162.05 242.813C149.286 258.136 144.801 262.333 147.273 274.062C147.07 278.74 147.803 283.412 149.429 287.803C153.339 298.239 156.013 305.052 159.405 310.025C158.37 314.883 155.668 327.705 155.524 330.637C155.38 333.569 164.148 331.528 168.575 330.407C176.797 348.806 191.861 361.57 196.547 363.036C204.711 365.594 217.619 352.169 224.46 341.762C231.302 331.356 226.128 319.656 226.157 314.998C226.185 310.341 241.537 300.107 247.229 296.859C252.921 293.61 258.21 278.834 255.91 264.489Z" fill="white"/>
<mask id="mask3_1681_2373" style="mask-type:luminance" maskUnits="userSpaceOnUse" x="146" y="221" width="111" height="143">
<path d="M255.91 264.489C253.582 250.115 237.109 220.879 210.978 222C194.017 222.748 186.083 226.168 178.723 230.337C172.724 233.871 167.133 238.055 162.05 242.813C149.286 258.136 144.801 262.333 147.273 274.062C147.07 278.74 147.803 283.412 149.429 287.803C153.339 298.239 156.013 305.052 159.405 310.025C158.37 314.883 155.668 327.705 155.524 330.637C155.38 333.569 164.148 331.528 168.575 330.407C176.797 348.806 191.861 361.57 196.547 363.036C204.711 365.594 217.619 352.169 224.46 341.762C231.302 331.356 226.128 319.656 226.157 314.998C226.185 310.341 241.537 300.107 247.229 296.859C252.921 293.61 258.21 278.834 255.91 264.489Z" fill="white"/>
</mask>
<g mask="url(#mask3_1681_2373)">
<g style="mix-blend-mode:multiply" opacity="0.5">
<path d="M147.388 274.062C147.185 278.74 147.918 283.412 149.544 287.804C153.454 298.239 156.127 305.052 159.52 310.025C158.485 314.884 155.782 327.705 155.639 330.637C155.495 333.57 164.263 331.529 168.69 330.407C176.912 348.806 191.976 361.57 196.661 363.036C204.826 365.594 217.733 352.169 224.575 341.763C226.285 339.165 227.394 336.219 227.824 333.138C227.45 331.787 227.191 330.954 227.191 330.954C227.191 330.954 223.339 345.759 215.692 343.833C208.045 341.906 196.345 326.584 189.82 321.294C183.294 316.005 185.967 309.048 184.674 301.171C183.38 293.294 164.062 286.366 162.768 281.853C161.474 277.339 165.988 258.653 165.988 258.653C165.988 258.653 173.318 248.879 171.737 252.904C170.62 256.394 170.214 260.072 170.545 263.722C170.876 267.371 171.936 270.917 173.663 274.148C174.875 276.699 176.798 278.844 179.199 280.328C181.601 281.812 184.381 282.571 187.203 282.514L194.218 247.758L179.413 235.512L162.164 242.699C149.285 258.136 144.887 262.333 147.388 274.062Z" fill="#FFD95C"/>
</g>
</g>
<path d="M255.91 264.489C253.582 250.115 237.109 220.879 210.978 222C194.017 222.748 186.083 226.168 178.723 230.337C172.724 233.871 167.133 238.055 162.05 242.813C149.286 258.136 144.801 262.333 147.273 274.062C147.07 278.74 147.803 283.412 149.429 287.803C153.339 298.239 156.013 305.052 159.405 310.025C158.37 314.883 155.668 327.705 155.524 330.637C155.38 333.569 164.148 331.528 168.575 330.407C176.797 348.806 191.861 361.57 196.547 363.036C204.711 365.594 217.619 352.169 224.46 341.762C231.302 331.356 226.128 319.656 226.157 314.998C226.185 310.341 241.537 300.107 247.229 296.859C252.921 293.61 258.21 278.834 255.91 264.489Z" stroke="black" stroke-miterlimit="10"/>
<path d="M162.97 301.344L165.844 309.566C165.844 309.566 172.025 311.607 179.557 303.385" stroke="black" stroke-miterlimit="10" stroke-linecap="round"/>
<path d="M184.214 339.75C184.214 339.75 191.056 339.06 193.816 329.458" stroke="black" stroke-miterlimit="10" stroke-linecap="round"/>
<path d="M158.169 294.473C158.169 294.473 160.21 288.292 172.543 288.292" stroke="black" stroke-miterlimit="10" stroke-linecap="round"/>
<path d="M221.385 210.558C212.423 209.27 203.386 208.578 194.333 208.489C194.333 208.489 167.253 192.879 141.236 209.524C115.22 226.168 127.725 255.318 127.725 262.592C127.725 269.865 119.388 269.893 124.592 279.265C129.795 288.637 147.388 283.462 147.388 283.462C147.574 279.928 148.508 276.473 150.129 273.326C151.749 270.179 154.019 267.412 156.789 265.208C166.16 257.934 173.635 256.353 176.74 258.452C176.74 258.452 174.67 274.062 177.775 280.3C177.775 280.3 188.181 285.503 191.315 285.503C194.448 285.503 189.274 289.902 199.651 293.811C201.542 294.49 203.565 294.722 205.56 294.487C207.555 294.253 209.469 293.559 211.15 292.46C212.674 286.136 216.009 276.62 222.218 278.834C231.331 282.082 239.639 304.505 227.307 312.152C242.14 314.855 260.108 288.608 261.171 264.69C262.235 240.772 236.793 213.261 221.385 210.558Z" fill="black"/>
<path d="M177.2 248.189C177.2 248.189 184.847 244.078 194.218 252.875C203.59 261.672 221.816 273.429 245.964 266.961" stroke="white" stroke-width="0.5" stroke-linecap="round" stroke-linejoin="round"/>
<path d="M176.136 241.146C176.136 241.146 181.397 232.924 190.194 232.924C198.991 232.924 219.545 245.257 235.96 245.257" stroke="white" stroke-width="0.5" stroke-linecap="round" stroke-linejoin="round"/>
<path d="M170.156 256.986C170.156 256.986 160.181 244.682 150.809 254.657C141.438 264.632 147.388 274.062 147.388 274.062" stroke="white" stroke-width="0.5" stroke-linecap="round" stroke-linejoin="round"/>
<path d="M130.284 265.207C136 260.052 139.554 252.924 140.23 245.257C141.409 232.349 159.031 221.195 170.157 231.774" stroke="white" stroke-width="0.5" stroke-linecap="round" stroke-linejoin="round"/>
<path d="M148.452 218.263C148.452 218.263 166.074 201.244 180.736 222.948" stroke="white" stroke-width="0.5" stroke-linecap="round" stroke-linejoin="round"/>
<path d="M291.874 1055.02C291.874 1055.02 302.711 1071.86 301.504 1082.7L300.325 1093.54C300.325 1093.54 260.567 1104.44 252.144 1104.44C243.721 1104.44 199.134 1100.21 199.134 1100.21L197.208 1092.56C197.073 1092 197.137 1091.4 197.388 1090.88C197.639 1090.36 198.063 1089.94 198.588 1089.69L238.346 1071.15L250.88 1057.43L291.874 1055.02Z" fill="white" stroke="black" stroke-width="1.00396" stroke-miterlimit="10"/>
<path d="M258.182 1095.95C268.962 1096.79 289.43 1090.2 301.303 1086.01L300.469 1093.54C300.469 1093.54 260.568 1104.44 252.145 1104.44C243.722 1104.44 199.134 1100.21 199.134 1100.21L197.754 1094.75C204.884 1094.78 243.923 1094.86 258.182 1095.95Z" fill="#FFD95C" stroke="black" stroke-width="1.00396" stroke-miterlimit="10"/>
<path d="M238.403 1071.15L180.535 1096.33C180.535 1096.33 175.59 1108.72 180.535 1111.19C185.479 1113.66 293.282 1111.19 293.282 1111.19C293.282 1111.19 300.728 1091.61 288.97 1078.48C277.213 1065.34 238.403 1071.15 238.403 1071.15Z" fill="white" stroke="black" stroke-width="1.00396" stroke-miterlimit="10"/>
<path d="M293.283 1111.19C293.283 1111.19 185.479 1113.66 180.535 1111.19C178.149 1109.98 178.062 1106.51 178.609 1103.2H295.18C294.799 1105.92 294.164 1108.59 293.283 1111.19Z" fill="#FFD95C" stroke="black" stroke-width="1.00396" stroke-miterlimit="10"/>
<path d="M211.036 633.579C211.036 633.579 195.914 700.59 190.194 742.504C184.473 784.418 181.109 868.389 182.317 878.02C183.524 887.65 243.722 1049.01 243.722 1049.01L249.73 1063.38L291.874 1054.96C291.874 1054.96 272.613 993.556 265.397 959.835C258.182 926.114 242.399 870.718 242.399 861.087C242.399 851.457 279.771 667.53 282.445 655.456C285.118 643.382 297.25 624.84 297.25 624.84L216.555 623.201L211.036 633.579Z" fill="#FFD95C" stroke="black" stroke-width="1.00396" stroke-miterlimit="10"/>
<path d="M211.036 633.579C211.036 633.579 202.182 694.783 205.832 737.329C209.483 779.875 217.331 870.459 217.331 883.942C217.331 897.424 239.093 977.946 240.33 1003.24C242.256 1039.78 239.553 1057.86 239.553 1057.86L238.26 1071.12C238.26 1071.12 263.644 1074.74 269.192 1076.32C275.6 1077.97 282.213 1078.69 288.827 1078.45C288.827 1078.45 298.055 1037.83 298.055 1003.22C298.055 968.603 290.379 897.367 286.556 868.504C282.732 839.642 294.777 728.302 301.619 707.518C308.461 686.733 323.41 642.721 313.348 620.24C303.287 597.76 211.036 633.579 211.036 633.579Z" fill="#FFD95C" stroke="black" stroke-width="1.00396" stroke-miterlimit="10"/>
<path d="M324.531 608.971L323.611 636.338C323.611 636.338 307.225 639.587 285.147 643.41C266.921 646.573 221.155 642.577 205.746 641.082C204.342 640.957 203.044 640.283 202.134 639.207C201.224 638.13 200.776 636.738 200.888 635.332L202.383 610.609L324.531 608.971Z" fill="black"/>
<path d="M260.481 336.156C260.481 336.156 234.609 364.128 224.863 381.52C215.118 398.912 211.266 425.561 207.615 446.547C203.964 467.533 213.853 516.806 211.064 539.43L202.239 610.696C202.239 610.696 200.342 615.525 206.695 620.815C213.048 626.104 244.067 628.03 272.096 629.439C282.33 629.956 312.888 623.373 317.89 623.057C323.927 622.683 324.129 615.008 324.387 608.971C325.595 580.597 330.712 504.962 334.075 472.017C341.003 404.834 303.085 339.98 260.481 336.156Z" fill="white" stroke="black" stroke-width="1.00396" stroke-miterlimit="10"/>
<g style="mix-blend-mode:multiply">
<path d="M330.913 510.224C332.063 495.304 333.213 481.763 334.219 472.018C334.506 469.143 334.679 466.269 334.822 463.394L266.087 474.893L207.04 454.77C207.046 466.988 207.737 479.196 209.109 491.336L267.036 507.55L330.913 510.224Z" fill="#FFD95C"/>
</g>
<g style="mix-blend-mode:multiply">
<path d="M257.923 338.974C254.013 343.315 246.251 352.14 238.863 361.512L282.502 405.869L296.876 400.12L257.923 338.974Z" fill="#FFD95C"/>
</g>
<path d="M260.481 336.156C260.481 336.156 234.609 364.128 224.863 381.52C221.973 386.806 219.633 392.373 217.877 398.136L269.911 338.025C266.837 337.094 263.678 336.468 260.481 336.156Z" fill="black"/>
<g style="mix-blend-mode:multiply">
<path d="M209.627 435.221L266.087 453.792L334.65 445.915C333.576 428.835 329.781 412.036 323.41 396.153L268.128 418.317L218.711 395.923C214.67 408.767 211.633 421.906 209.627 435.221Z" fill="#FFD95C"/>
</g>
<g style="mix-blend-mode:multiply">
<path d="M306.823 580.597C278.186 585.405 248.803 583.004 221.327 573.611L207.557 568.896L203.274 603.394L218.97 607.792C248.809 616.135 279.996 618.537 310.761 614.864L323.439 613.34C324.099 611.943 324.47 610.428 324.531 608.884C324.876 601.209 325.48 590.055 326.256 577.262L306.823 580.597Z" fill="#FFD95C"/>
</g>
<g style="mix-blend-mode:multiply">
<path d="M314.498 533.623C285.861 538.45 256.471 536.039 229.003 526.609L211.467 520.601C211.902 526.864 211.815 533.153 211.208 539.401L209.167 555.989L226.646 560.876C256.473 569.227 287.65 571.64 318.408 567.977L327.032 566.942C327.751 555.443 328.584 543.196 329.476 531.093L314.498 533.623Z" fill="#FFD95C"/>
</g>
<path d="M44.792 412.056L100.376 456.747L102.772 453.767L47.1878 409.076L44.792 412.056Z" fill="black"/>
<path d="M287.246 367.175C287.246 367.175 307.628 381.06 308.088 413.861C308.289 428.235 306.794 441.66 303.488 465.204C300.182 488.748 279.656 565.418 263.673 574.732C247.689 584.046 222.88 566.453 222.88 566.453L102.887 486.793L73.8811 463.364L59.5073 436.226L64.0207 427.602L99.4089 454.74L80.3493 437.118L84.0865 432.374L90.9859 437.175L111.109 444.707L115.508 473.455L121.717 477.709L236.506 519.652C236.506 519.652 235.069 457.873 236.132 446.058C237.196 434.243 238.662 404.547 251.311 383.015" fill="white"/>
<mask id="mask4_1681_2373" style="mask-type:luminance" maskUnits="userSpaceOnUse" x="59" y="367" width="250" height="211">
<path d="M287.246 367.175C287.246 367.175 307.628 381.06 308.088 413.861C308.289 428.235 306.794 441.66 303.488 465.204C300.182 488.748 279.656 565.418 263.673 574.732C247.689 584.046 222.88 566.453 222.88 566.453L102.887 486.793L73.8811 463.364L59.5073 436.226L64.0207 427.602L99.4089 454.74L80.3493 437.118L84.0865 432.374L90.9859 437.175L111.109 444.707L115.508 473.455L121.717 477.709L236.506 519.652C236.506 519.652 235.069 457.873 236.132 446.058C237.196 434.243 238.662 404.547 251.311 383.015" fill="white"/>
</mask>
<g mask="url(#mask4_1681_2373)">
<g style="mix-blend-mode:multiply" opacity="0.5">
<path d="M235.701 472.966C235.701 494.297 236.42 519.652 236.42 519.652L121.746 477.882L115.536 473.627L111.138 444.88L91.0146 437.348L84.144 432.461L80.4068 437.204L99.4089 454.74L64.0207 427.603L59.7373 436.083L74.1111 463.221L103.117 486.794L110.419 491.652L268.962 542.737L235.701 472.966Z" fill="#FFD95C"/>
</g>
</g>
<path d="M287.246 367.175C287.246 367.175 307.628 381.06 308.088 413.861C308.289 428.235 306.794 441.66 303.488 465.204C300.182 488.748 279.656 565.418 263.673 574.732C247.689 584.046 222.88 566.453 222.88 566.453L102.887 486.793L73.8811 463.364L59.5073 436.226L64.0207 427.602L99.4089 454.74L80.3493 437.118L84.0865 432.374L90.9859 437.175L111.109 444.707L115.508 473.455L121.717 477.709L236.506 519.652C236.506 519.652 235.069 457.873 236.132 446.058C237.196 434.243 238.662 404.547 251.311 383.015" stroke="black" stroke-width="1.00396" stroke-miterlimit="10"/>
<path d="M236.506 519.652L280.317 551.274L291.672 531.151C291.672 531.151 299.521 524.97 300.67 520.313C301.82 515.656 300.354 508.096 301.533 503.438C302.712 498.781 308.576 494.412 309.122 483.143C309.668 471.874 309.122 462.473 309.122 462.473C309.122 462.473 318.609 423.463 317.574 406.502C316.539 389.541 300.182 359.557 287.073 358.896C273.964 358.235 256.917 360.218 243.693 380.226C230.469 400.235 233.171 458.65 231.101 462.301C229.032 465.952 231.906 483.976 231.906 483.976C230.757 484.833 229.804 485.925 229.11 487.179C228.416 488.433 227.997 489.821 227.882 491.249C227.652 495.935 232.711 507.463 232.711 507.463L236.506 519.652Z" fill="white" stroke="black" stroke-width="1.00396" stroke-miterlimit="10"/>
<g style="mix-blend-mode:multiply">
<path d="M232.251 447.295C232.341 452.311 231.966 457.325 231.13 462.272C229.29 465.55 231.389 480.355 231.849 483.373C256.49 491.027 282.547 492.993 308.058 489.123C308.606 487.123 308.934 485.07 309.036 482.999C309.611 471.759 309.036 462.33 309.036 462.33C309.036 462.33 309.87 458.851 311.019 453.562C284.599 455.241 258.074 453.131 232.251 447.295Z" fill="#FFD95C"/>
</g>
<g style="mix-blend-mode:multiply">
<path d="M241.91 383.418C237.799 391.669 235.5 404.059 234.177 416.621C260.275 426.581 288.412 430.006 316.137 426.597C317.243 419.948 317.734 413.212 317.603 406.474C317.105 401.147 315.846 395.919 313.866 390.95C289.658 391.515 265.477 388.984 241.91 383.418Z" fill="#FFD95C"/>
</g>
<path d="M232.711 507.779L236.42 519.652L280.231 551.274L291.586 531.151C291.586 531.151 299.435 524.97 300.584 520.313C300.79 519.503 300.915 518.675 300.958 517.841C277.871 517.442 254.932 514.06 232.711 507.779Z" fill="black"/>
<path d="M264.42 1075.95C264.42 1075.95 265.397 1051.05 270.169 1014.66C274.941 978.262 263.471 926.574 261.545 917.95C259.619 909.326 262.522 890.18 260.596 883.453C258.67 876.726 249.356 848.036 254.847 814.746C260.338 781.457 264.793 693.46 264.793 693.46C264.793 693.46 250.966 682.22 246.912 667.588C242.859 652.955 245.964 648.355 245.964 648.355" stroke="black" stroke-width="1.00396" stroke-miterlimit="10"/>
<path d="M270.831 649.706L265.512 679.144" stroke="black" stroke-width="1.00396" stroke-miterlimit="10"/>
</svg>
