<svg width="410" height="389" viewBox="0 0 410 389" fill="none" xmlns="http://www.w3.org/2000/svg">
<g filter="url(#filter0_d_2425_1175)">
<path d="M229.95 19.6846C252.918 1.11839 278.894 -2.92623 302.146 4.52637C325.055 11.8694 345.416 30.4081 357.647 57.4375L358.225 58.7314C363.962 71.7977 367.547 85.308 370.881 98.9541C374.209 112.578 377.291 126.36 382.018 139.842C384.382 146.586 387.03 152.824 389.507 158.816C391.988 164.821 394.298 170.581 396.02 176.428C399.452 188.083 400.548 200.082 395.894 214.882C392.065 227.046 386.445 233.381 379.914 238.736C373.408 244.071 365.664 248.642 358.104 256.947C351.301 264.421 347.575 274.509 343.632 284.024C339.651 293.631 335.442 302.688 327.748 308.651C317.473 316.615 307.641 317.25 297.629 315.391C292.592 314.455 287.529 312.891 282.321 311.295C277.134 309.705 271.811 308.086 266.341 307.088H266.34C254.511 304.946 245.518 305.791 236.734 308.756C228.008 311.702 219.503 316.741 208.702 322.883L208.701 322.884C188.583 334.335 165.131 345.82 141.169 350.911C117.225 355.999 92.8446 354.689 70.7676 340.648L70.1709 340.265C57.7244 332.128 49.9808 319.707 44.1377 305.809C41.1706 298.751 38.7028 291.337 36.3564 283.936C34.0147 276.548 31.788 269.154 29.3164 262.204V262.203L28.9062 261.067C24.6052 249.298 18.3048 236.439 12.8311 223.558C7.15281 210.195 2.32775 196.736 1.2627 184.034C-1.16512 155.08 13.5151 131.142 34.8926 113.132C56.2768 95.1163 84.2614 83.1308 108.114 78.1328H108.116C119.303 75.7742 131.43 75.2385 143.511 74.1885C155.538 73.143 167.482 71.5871 178.056 67.1357C189.374 62.3684 197.877 54.0596 205.768 45.2109C213.702 36.3131 220.967 26.9389 229.949 19.6846H229.95Z" fill="#550000" fill-opacity="0.63" stroke="black" stroke-width="2"/>
<g opacity="0.7">
<path d="M229.95 19.6846C252.918 1.11839 278.894 -2.92623 302.146 4.52637C325.055 11.8694 345.416 30.4081 357.647 57.4375L358.225 58.7314C363.962 71.7977 367.547 85.308 370.881 98.9541C374.209 112.578 377.291 126.36 382.018 139.842C384.382 146.586 387.03 152.824 389.507 158.816C391.988 164.821 394.298 170.581 396.02 176.428C399.452 188.083 400.548 200.082 395.894 214.882C392.065 227.046 386.445 233.381 379.914 238.736C373.408 244.071 365.664 248.642 358.104 256.947C351.301 264.421 347.575 274.509 343.632 284.024C339.651 293.631 335.442 302.688 327.748 308.651C317.473 316.615 307.641 317.25 297.629 315.391C292.592 314.455 287.529 312.891 282.321 311.295C277.134 309.705 271.811 308.086 266.341 307.088H266.34C254.511 304.946 245.518 305.791 236.734 308.756C228.008 311.702 219.503 316.741 208.702 322.883L208.701 322.884C188.583 334.335 165.131 345.82 141.169 350.911C117.225 355.999 92.8446 354.689 70.7676 340.648L70.1709 340.265C57.7244 332.128 49.9808 319.707 44.1377 305.809C41.1706 298.751 38.7028 291.337 36.3564 283.936C34.0147 276.548 31.788 269.154 29.3164 262.204V262.203L28.9062 261.067C24.6052 249.298 18.3048 236.439 12.8311 223.558C7.15281 210.195 2.32775 196.736 1.2627 184.034C-1.16512 155.08 13.5151 131.142 34.8926 113.132C56.2768 95.1163 84.2614 83.1308 108.114 78.1328H108.116C119.303 75.7742 131.43 75.2385 143.511 74.1885C155.538 73.143 167.482 71.5871 178.056 67.1357C189.374 62.3684 197.877 54.0596 205.768 45.2109C213.702 36.3131 220.967 26.9389 229.949 19.6846H229.95Z" fill="white" stroke="black" stroke-width="2"/>
</g>
</g>
<path d="M172.553 388.179C256.693 388.179 324.902 383.93 324.902 378.688C324.902 373.446 256.693 369.197 172.553 369.197C88.4129 369.197 20.2041 373.446 20.2041 378.688C20.2041 383.93 88.4129 388.179 172.553 388.179Z" fill="#550000" fill-opacity="0.63"/>
<path opacity="0.8" d="M172.553 388.179C256.693 388.179 324.902 383.93 324.902 378.688C324.902 373.446 256.693 369.197 172.553 369.197C88.4129 369.197 20.2041 373.446 20.2041 378.688C20.2041 383.93 88.4129 388.179 172.553 388.179Z" fill="white"/>
<path d="M287.036 17.7835H133.85C123.274 17.7835 114.7 26.357 114.7 36.933V360.337C114.7 370.913 123.274 379.486 133.85 379.486H287.036C297.612 379.486 306.186 370.913 306.186 360.337V36.933C306.186 26.357 297.612 17.7835 287.036 17.7835Z" fill="#263238"/>
<path d="M297.671 57.5018H123.206V339.768H297.671V57.5018Z" fill="white" stroke="#263238" stroke-width="1.33739" stroke-miterlimit="10"/>
<path d="M237.183 171.8C251.951 157.031 251.951 133.088 237.183 118.319C222.415 103.551 198.471 103.551 183.703 118.319C168.935 133.088 168.935 157.031 183.703 171.8C198.471 186.568 222.415 186.568 237.183 171.8Z" fill="#550000" fill-opacity="0.63"/>
<path d="M260.091 322.018H160.805C160.582 322.019 160.36 321.976 160.153 321.892C159.947 321.807 159.759 321.682 159.6 321.525C159.442 321.367 159.316 321.18 159.23 320.974C159.144 320.767 159.1 320.546 159.1 320.323C159.099 320.098 159.142 319.876 159.227 319.669C159.312 319.461 159.438 319.273 159.597 319.114C159.755 318.956 159.944 318.83 160.151 318.745C160.359 318.66 160.581 318.616 160.805 318.618H260.091C260.314 318.618 260.536 318.662 260.742 318.748C260.948 318.833 261.136 318.959 261.293 319.118C261.451 319.276 261.575 319.464 261.66 319.671C261.745 319.878 261.788 320.099 261.786 320.323C261.786 320.772 261.608 321.203 261.29 321.521C260.972 321.839 260.541 322.018 260.091 322.018Z" fill="#550000" fill-opacity="0.63"/>
<path d="M263.323 204.134H157.562C155.38 204.134 153.61 205.904 153.61 208.086V220.554C153.61 222.737 155.38 224.506 157.562 224.506H263.323C265.506 224.506 267.276 222.737 267.276 220.554V208.086C267.276 205.904 265.506 204.134 263.323 204.134Z" fill="#550000" fill-opacity="0.63"/>
<path d="M263.323 242.236H157.562C155.38 242.236 153.61 244.006 153.61 246.188V258.656C153.61 260.838 155.38 262.608 157.562 262.608H263.323C265.506 262.608 267.276 260.838 267.276 258.656V246.188C267.276 244.006 265.506 242.236 263.323 242.236Z" fill="#550000" fill-opacity="0.63"/>
<path d="M229.272 163.923L218.145 157.517V152.225C219.756 150.275 220.923 147.998 221.565 145.552C221.948 145.688 222.351 145.758 222.757 145.759C224.137 145.759 225.014 141.482 225.162 138.427C226.769 135.026 224.581 133.036 224.581 133.036C224.581 133.036 225.487 132.129 226.089 128.492C226.69 124.855 223.97 126.373 221.851 123.042C219.732 119.711 218.214 116.084 211.256 116.084C209.339 116.021 207.447 116.536 205.826 117.562C204.206 118.589 202.931 120.079 202.169 121.84C200.437 121.846 198.711 122.047 197.024 122.441C194.895 123.042 194.294 130.01 196.108 132.74C196.92 134.232 197.353 135.9 197.369 137.599C196.886 137.007 196.384 136.85 196.108 138.19C195.507 141.216 197.931 145.454 197.931 145.454L199.183 145.099C199.813 147.713 201.03 150.15 202.741 152.225V157.517L191.614 163.923C190.314 164.673 189.235 165.752 188.484 167.051C187.733 168.351 187.337 169.824 187.336 171.325V174.991C193.954 180.103 202.08 182.877 210.443 182.877C218.805 182.877 226.932 180.103 233.549 174.991V171.325C233.55 169.824 233.155 168.349 232.404 167.05C231.653 165.75 230.573 164.672 229.272 163.923Z" fill="#263238"/>
<path d="M168.01 257.542C167.755 257.538 167.511 257.436 167.33 257.256C167.233 257.17 167.155 257.063 167.103 256.944C167.05 256.825 167.023 256.697 167.024 256.566C167.027 256.389 167.078 256.215 167.172 256.064L168.946 253.225L165.487 253.334C165.356 253.342 165.226 253.322 165.103 253.277C164.981 253.231 164.87 253.16 164.777 253.068C164.616 252.887 164.528 252.654 164.528 252.412C164.528 252.171 164.616 251.937 164.777 251.757C164.868 251.662 164.979 251.588 165.101 251.54C165.224 251.492 165.355 251.472 165.487 251.481L168.897 251.609L167.142 248.78C167.047 248.626 166.996 248.449 166.995 248.268C166.994 248.138 167.02 248.009 167.073 247.89C167.126 247.771 167.203 247.665 167.3 247.578C167.481 247.398 167.725 247.296 167.98 247.292C168.148 247.293 168.312 247.342 168.454 247.433C168.595 247.524 168.708 247.652 168.778 247.805L170.464 250.85L172.129 247.824C172.208 247.663 172.33 247.526 172.481 247.429C172.632 247.332 172.807 247.278 172.987 247.273C173.111 247.273 173.234 247.3 173.348 247.351C173.462 247.402 173.564 247.476 173.647 247.568C173.828 247.756 173.927 248.007 173.923 248.268C173.923 248.437 173.879 248.604 173.795 248.751L172.011 251.609L175.47 251.481C175.602 251.472 175.733 251.492 175.856 251.54C175.979 251.588 176.089 251.662 176.18 251.757C176.348 251.931 176.44 252.165 176.436 252.407C176.436 252.652 176.344 252.887 176.18 253.068C176.087 253.16 175.976 253.231 175.854 253.277C175.731 253.322 175.601 253.342 175.47 253.334L171.991 253.225L173.726 256.034C173.823 256.191 173.874 256.372 173.874 256.557C173.874 256.818 173.77 257.069 173.585 257.253C173.4 257.438 173.15 257.542 172.888 257.542C172.719 257.54 172.555 257.488 172.415 257.394C172.275 257.299 172.165 257.166 172.1 257.01L170.454 254.053L168.818 257.01C168.745 257.164 168.631 257.296 168.489 257.39C168.346 257.484 168.18 257.537 168.01 257.542Z" fill="#263238"/>
<path d="M183.995 257.542C183.74 257.538 183.496 257.436 183.315 257.256C183.218 257.17 183.141 257.063 183.088 256.944C183.035 256.825 183.009 256.697 183.01 256.566C183.013 256.389 183.064 256.215 183.157 256.064L184.931 253.225L181.482 253.334C181.35 253.34 181.219 253.319 181.095 253.274C180.972 253.228 180.859 253.158 180.763 253.068C180.632 252.933 180.545 252.761 180.512 252.576C180.48 252.391 180.504 252.201 180.582 252.029C180.66 251.858 180.787 251.714 180.948 251.616C181.108 251.519 181.294 251.471 181.482 251.481L184.882 251.609L183.128 248.78C183.032 248.626 182.981 248.449 182.98 248.268C182.979 248.138 183.006 248.009 183.059 247.89C183.111 247.771 183.189 247.665 183.286 247.578C183.467 247.398 183.71 247.296 183.966 247.292C184.134 247.293 184.298 247.342 184.439 247.433C184.58 247.524 184.693 247.652 184.764 247.805L186.449 250.85L188.115 247.824C188.194 247.663 188.316 247.526 188.467 247.429C188.618 247.332 188.793 247.278 188.972 247.273C189.097 247.272 189.221 247.298 189.334 247.349C189.448 247.4 189.55 247.475 189.633 247.568C189.724 247.66 189.796 247.769 189.845 247.89C189.894 248.01 189.919 248.138 189.918 248.268C189.915 248.438 189.867 248.605 189.78 248.751L187.997 251.609L191.466 251.501C191.596 251.492 191.726 251.512 191.847 251.56C191.968 251.607 192.077 251.682 192.166 251.777C192.334 251.951 192.426 252.185 192.422 252.427C192.421 252.671 192.33 252.907 192.166 253.087C192.075 253.179 191.965 253.25 191.844 253.296C191.724 253.342 191.595 253.361 191.466 253.353L187.977 253.245L189.711 256.054C189.809 256.211 189.86 256.392 189.859 256.576C189.859 256.838 189.755 257.088 189.571 257.273C189.386 257.458 189.135 257.562 188.874 257.562C188.705 257.56 188.54 257.508 188.4 257.413C188.26 257.319 188.151 257.185 188.085 257.03L186.439 254.073L184.803 257.03C184.728 257.181 184.613 257.308 184.471 257.398C184.328 257.489 184.164 257.538 183.995 257.542Z" fill="#263238"/>
<path d="M199.991 257.542C199.733 257.541 199.485 257.438 199.301 257.256C199.204 257.17 199.127 257.063 199.074 256.944C199.022 256.825 198.995 256.697 198.996 256.566C198.999 256.389 199.05 256.215 199.144 256.064L200.918 253.225L197.468 253.334C197.282 253.341 197.099 253.293 196.94 253.196C196.782 253.098 196.656 252.956 196.579 252.787C196.502 252.618 196.477 252.429 196.507 252.246C196.537 252.063 196.621 251.892 196.749 251.757C196.842 251.662 196.954 251.588 197.078 251.541C197.203 251.493 197.336 251.473 197.468 251.481L200.868 251.609L199.114 248.78C199.019 248.626 198.968 248.449 198.966 248.268C198.969 248.139 198.998 248.011 199.05 247.893C199.103 247.774 199.178 247.667 199.272 247.578C199.455 247.396 199.703 247.293 199.962 247.292C200.128 247.295 200.29 247.345 200.429 247.435C200.569 247.526 200.68 247.654 200.75 247.805L202.436 250.85L204.101 247.824C204.18 247.663 204.302 247.526 204.453 247.429C204.604 247.332 204.779 247.278 204.959 247.273C205.083 247.272 205.207 247.298 205.321 247.349C205.435 247.4 205.536 247.475 205.619 247.568C205.71 247.66 205.783 247.769 205.832 247.89C205.881 248.01 205.905 248.138 205.905 248.268C205.901 248.438 205.854 248.605 205.767 248.751L203.983 251.609L207.452 251.481C207.58 251.468 207.708 251.483 207.83 251.524C207.951 251.565 208.062 251.632 208.156 251.72C208.249 251.808 208.323 251.914 208.371 252.033C208.42 252.152 208.442 252.279 208.438 252.407C208.44 252.65 208.352 252.885 208.191 253.068C208.098 253.16 207.987 253.231 207.865 253.277C207.743 253.322 207.612 253.342 207.482 253.334L204.003 253.225L205.727 256.034C205.825 256.191 205.876 256.372 205.875 256.557C205.872 256.686 205.843 256.814 205.791 256.932C205.739 257.05 205.663 257.157 205.57 257.246C205.484 257.339 205.38 257.412 205.265 257.463C205.15 257.514 205.025 257.541 204.899 257.542C204.732 257.539 204.569 257.487 204.43 257.393C204.292 257.298 204.184 257.165 204.121 257.01L202.465 254.053L200.829 257.01C200.755 257.17 200.637 257.305 200.488 257.399C200.34 257.494 200.167 257.543 199.991 257.542Z" fill="#263238"/>
<path d="M215.977 257.542C215.718 257.541 215.471 257.438 215.287 257.256C215.101 257.074 214.995 256.826 214.991 256.566C214.988 256.389 215.036 256.215 215.129 256.064L216.903 253.225L213.454 253.334C213.322 253.34 213.191 253.319 213.067 253.274C212.944 253.228 212.83 253.158 212.734 253.068C212.574 252.887 212.485 252.654 212.485 252.412C212.485 252.171 212.574 251.937 212.734 251.757C212.83 251.665 212.942 251.593 213.066 251.546C213.19 251.498 213.322 251.476 213.454 251.481L216.864 251.609L215.119 248.78C215.024 248.626 214.973 248.449 214.972 248.268C214.975 248.139 215.003 248.011 215.056 247.893C215.108 247.774 215.183 247.667 215.277 247.578C215.461 247.396 215.708 247.293 215.967 247.292C216.135 247.293 216.299 247.342 216.44 247.433C216.582 247.524 216.694 247.652 216.765 247.805L218.441 250.85L220.106 247.824C220.185 247.663 220.307 247.526 220.458 247.429C220.609 247.332 220.784 247.278 220.964 247.273C221.089 247.272 221.212 247.298 221.326 247.349C221.44 247.4 221.541 247.475 221.624 247.568C221.716 247.66 221.788 247.769 221.837 247.89C221.886 248.01 221.911 248.138 221.91 248.268C221.906 248.438 221.859 248.605 221.772 248.751L219.988 251.609L223.457 251.481C223.585 251.468 223.714 251.483 223.835 251.524C223.956 251.565 224.068 251.632 224.161 251.72C224.254 251.808 224.328 251.914 224.376 252.033C224.425 252.152 224.448 252.279 224.443 252.407C224.445 252.65 224.357 252.885 224.196 253.068C224.104 253.16 223.992 253.231 223.87 253.277C223.748 253.322 223.617 253.342 223.487 253.334L220.008 253.225L221.733 256.034C221.83 256.191 221.881 256.372 221.88 256.557C221.881 256.687 221.855 256.815 221.802 256.934C221.749 257.053 221.672 257.16 221.575 257.246C221.489 257.339 221.385 257.412 221.27 257.463C221.155 257.514 221.031 257.541 220.905 257.542C220.737 257.539 220.574 257.487 220.436 257.393C220.297 257.298 220.19 257.165 220.126 257.01L218.47 254.053L216.834 257.01C216.759 257.173 216.638 257.31 216.485 257.405C216.333 257.499 216.156 257.547 215.977 257.542Z" fill="#263238"/>
<path d="M231.963 257.542C231.705 257.541 231.457 257.438 231.273 257.256C231.121 257.102 231.023 256.901 230.996 256.685C230.97 256.469 231.015 256.251 231.125 256.064L232.89 253.225L229.44 253.334C229.308 253.34 229.177 253.319 229.053 253.274C228.93 253.228 228.817 253.158 228.721 253.068C228.56 252.887 228.471 252.654 228.471 252.412C228.471 252.171 228.56 251.937 228.721 251.757C228.816 251.665 228.929 251.593 229.052 251.546C229.176 251.498 229.308 251.476 229.44 251.481L232.85 251.609L231.096 248.78C231 248.626 230.949 248.449 230.948 248.268C230.952 248.008 231.058 247.76 231.244 247.578C231.427 247.396 231.675 247.293 231.934 247.292C232.101 247.293 232.266 247.342 232.407 247.433C232.548 247.524 232.661 247.652 232.732 247.805L234.407 250.85L236.073 247.824C236.152 247.663 236.274 247.526 236.425 247.429C236.576 247.332 236.751 247.278 236.93 247.273C237.057 247.272 237.181 247.298 237.297 247.349C237.412 247.4 237.516 247.475 237.601 247.568C237.781 247.756 237.881 248.007 237.876 248.268C237.873 248.438 237.825 248.605 237.739 248.751L235.955 251.609L239.424 251.481C239.551 251.468 239.68 251.483 239.802 251.524C239.923 251.565 240.034 251.632 240.127 251.72C240.221 251.808 240.294 251.914 240.343 252.033C240.392 252.152 240.414 252.279 240.409 252.407C240.411 252.65 240.324 252.885 240.163 253.068C240.07 253.16 239.959 253.231 239.837 253.277C239.714 253.322 239.584 253.342 239.453 253.334L235.974 253.225L237.699 256.034C237.796 256.191 237.848 256.372 237.847 256.557C237.848 256.687 237.821 256.815 237.768 256.934C237.716 257.053 237.638 257.16 237.541 257.246C237.456 257.339 237.352 257.412 237.237 257.463C237.122 257.514 236.997 257.541 236.871 257.542C236.704 257.539 236.541 257.487 236.402 257.393C236.264 257.298 236.156 257.165 236.093 257.01L234.437 254.053L232.801 257.01C232.727 257.17 232.609 257.305 232.46 257.399C232.312 257.494 232.139 257.543 231.963 257.542Z" fill="#263238"/>
<path d="M247.949 257.542C247.694 257.538 247.45 257.436 247.269 257.256C247.172 257.17 247.094 257.063 247.042 256.944C246.989 256.825 246.962 256.697 246.963 256.566C246.966 256.389 247.017 256.215 247.111 256.064L248.875 253.225L245.426 253.334C245.299 253.343 245.171 253.326 245.051 253.284C244.932 253.242 244.822 253.175 244.729 253.088C244.636 253 244.563 252.895 244.513 252.778C244.463 252.661 244.439 252.535 244.44 252.407C244.44 252.287 244.463 252.167 244.508 252.056C244.554 251.944 244.621 251.842 244.706 251.757C244.797 251.662 244.908 251.588 245.03 251.54C245.153 251.492 245.285 251.472 245.416 251.481L248.826 251.609L247.072 248.78C246.976 248.626 246.925 248.449 246.924 248.268C246.928 248.008 247.034 247.76 247.22 247.578C247.403 247.396 247.651 247.293 247.909 247.292C248.077 247.293 248.242 247.342 248.383 247.433C248.524 247.524 248.637 247.652 248.708 247.805L250.383 250.85L252.059 247.824C252.137 247.664 252.257 247.529 252.406 247.431C252.556 247.334 252.728 247.279 252.906 247.273C253.033 247.272 253.157 247.298 253.273 247.349C253.388 247.4 253.492 247.475 253.576 247.568C253.757 247.756 253.857 248.007 253.852 248.268C253.852 248.437 253.808 248.604 253.724 248.751L251.94 251.609L255.4 251.481C255.531 251.472 255.663 251.492 255.785 251.54C255.908 251.588 256.019 251.662 256.109 251.757C256.277 251.931 256.37 252.165 256.366 252.407C256.365 252.652 256.274 252.887 256.109 253.068C256.017 253.16 255.905 253.231 255.783 253.277C255.661 253.322 255.53 253.342 255.4 253.334L251.921 253.225L253.645 256.034C253.743 256.191 253.794 256.372 253.793 256.557C253.79 256.817 253.683 257.064 253.498 257.246C253.318 257.43 253.074 257.536 252.818 257.542C252.65 257.539 252.487 257.487 252.349 257.393C252.21 257.298 252.103 257.165 252.039 257.01L250.383 254.053L248.747 257.01C248.676 257.164 248.564 257.295 248.423 257.389C248.282 257.483 248.118 257.536 247.949 257.542Z" fill="#263238"/>
<g style="mix-blend-mode:multiply">
<path d="M297.671 57.8763H123.206V68.8062H297.671V57.8763Z" fill="#550000" fill-opacity="0.63"/>
</g>
<path d="M229.41 37.7412H191.466C190.781 37.7412 190.124 37.4691 189.64 36.9849C189.156 36.5006 188.884 35.8438 188.884 35.159C188.884 34.4742 189.156 33.8174 189.64 33.3331C190.124 32.8489 190.781 32.5768 191.466 32.5768H229.41C230.095 32.5768 230.752 32.8489 231.236 33.3331C231.721 33.8174 231.993 34.4742 231.993 35.159C231.993 35.8438 231.721 36.5006 231.236 36.9849C230.752 37.4691 230.095 37.7412 229.41 37.7412Z" fill="#550000" fill-opacity="0.63" stroke="#263238" stroke-width="1.33739" stroke-linecap="round" stroke-linejoin="round"/>
<path d="M220.787 355.714C220.789 353.667 220.183 351.665 219.047 349.961C217.91 348.258 216.294 346.93 214.403 346.146C212.512 345.361 210.43 345.155 208.422 345.554C206.413 345.953 204.569 346.939 203.121 348.387C201.673 349.835 200.687 351.68 200.288 353.688C199.889 355.696 200.095 357.778 200.879 359.669C201.664 361.561 202.992 363.177 204.695 364.313C206.398 365.449 208.4 366.055 210.448 366.053C213.189 366.05 215.817 364.96 217.756 363.022C219.694 361.084 220.784 358.455 220.787 355.714Z" fill="#550000" fill-opacity="0.63"/>
<path d="M215.691 350.471H205.205V360.958H215.691V350.471Z" fill="#550000" fill-opacity="0.63" stroke="#263238" stroke-width="1.33739" stroke-linecap="round" stroke-linejoin="round"/>
<path d="M335.358 236.717C335.358 236.717 321.62 201.808 333.85 197.659C346.584 193.332 346.022 216.385 345.529 227.62C344.495 251.629 341.843 256.093 339.862 250.229L335.358 236.717ZM331.229 263.948C335.004 268.876 336.068 263.771 329.258 240.718C326.065 229.877 319.126 207.948 308.482 216.178C298.262 224.062 322.585 252.644 322.585 252.644L331.229 263.948ZM323.936 283.955C327.533 287.148 327.602 283.118 319.057 266.471C315.046 258.676 306.56 242.897 299.612 250.702C292.94 258.232 315.677 276.534 315.677 276.534L323.936 283.955ZM316.051 307.747C319.648 310.95 319.717 306.909 311.173 290.273C307.161 282.477 298.676 266.688 291.727 274.504C285.095 282.053 307.763 300.355 307.763 300.355L316.051 307.747ZM338.818 259.316C333.062 261.563 337.635 264.007 361.673 263.938C372.948 263.938 395.971 263.426 391.063 250.899C386.361 238.866 352.123 254.191 352.123 254.191L338.818 259.316ZM332.264 275.322C326.173 276.376 330.174 279.688 353.749 284.399C364.797 286.616 387.455 290.706 385.139 277.5C382.922 264.766 346.318 272.986 346.318 272.986L332.264 275.322ZM324.931 294.865C319.747 295.615 323.059 298.502 342.878 303.036C352.172 305.165 371.243 309.156 369.587 297.891C368.01 287.05 336.866 293.18 336.866 293.18L324.931 294.865ZM319.363 312.97C314.287 314.261 317.884 316.784 338.088 319.189C347.55 320.313 366.936 322.264 364.107 311.236C361.377 300.651 331.061 310.023 331.061 310.023L319.363 312.97ZM349.068 239.674C346.111 246.297 352.251 245.292 373.125 227.078C382.902 218.533 402.515 200.655 386.982 191.756C372.071 183.201 356.036 224.476 356.036 224.476L349.068 239.674ZM320.131 336.555C317.007 338.378 320.072 339.088 334.402 336.23C341.124 334.899 354.794 331.942 350.171 326.108C345.697 320.49 327.365 332.317 327.365 332.317L320.131 336.555Z" fill="#550000" fill-opacity="0.63"/>
<path opacity="0.3" d="M335.358 236.717C335.358 236.717 321.62 201.808 333.85 197.659C346.584 193.332 346.022 216.385 345.529 227.62C344.495 251.629 341.843 256.093 339.862 250.229L335.358 236.717ZM331.229 263.948C335.004 268.876 336.068 263.771 329.258 240.718C326.065 229.877 319.126 207.948 308.482 216.178C298.262 224.062 322.585 252.644 322.585 252.644L331.229 263.948ZM323.936 283.955C327.533 287.148 327.602 283.118 319.057 266.471C315.046 258.676 306.56 242.897 299.612 250.702C292.94 258.232 315.677 276.534 315.677 276.534L323.936 283.955ZM316.051 307.747C319.648 310.95 319.717 306.909 311.173 290.273C307.161 282.477 298.676 266.688 291.727 274.504C285.095 282.053 307.763 300.355 307.763 300.355L316.051 307.747ZM338.818 259.316C333.062 261.563 337.635 264.007 361.673 263.938C372.948 263.938 395.971 263.426 391.063 250.899C386.361 238.866 352.123 254.191 352.123 254.191L338.818 259.316ZM332.264 275.322C326.173 276.376 330.174 279.688 353.749 284.399C364.797 286.616 387.455 290.706 385.139 277.5C382.922 264.766 346.318 272.986 346.318 272.986L332.264 275.322ZM324.931 294.865C319.747 295.615 323.059 298.502 342.878 303.036C352.172 305.165 371.243 309.156 369.587 297.891C368.01 287.05 336.866 293.18 336.866 293.18L324.931 294.865ZM319.363 312.97C314.287 314.261 317.884 316.784 338.088 319.189C347.55 320.313 366.936 322.264 364.107 311.236C361.377 300.651 331.061 310.023 331.061 310.023L319.363 312.97ZM349.068 239.674C346.111 246.297 352.251 245.292 373.125 227.078C382.902 218.533 402.515 200.655 386.982 191.756C372.071 183.201 356.036 224.476 356.036 224.476L349.068 239.674ZM320.131 336.555C317.007 338.378 320.072 339.088 334.402 336.23C341.124 334.899 354.794 331.942 350.171 326.108C345.697 320.49 327.365 332.317 327.365 332.317L320.131 336.555Z" fill="white"/>
<path d="M341.42 252.969L339.025 213.123ZM333.841 266.117L318.703 231.848ZM372.909 256.152L336.63 261.356ZM325.996 284.586L306.353 259.385ZM329.445 276.859L356.509 278.219ZM323.039 296.186L343.736 298.236ZM318.042 308.466L307.763 293.003ZM316.86 313.926L341.193 314.153ZM311.932 359.578C312.095 359.565 312.246 359.489 312.353 359.365C312.46 359.241 312.514 359.081 312.503 358.917C310.956 335.678 319.944 297.615 334.363 266.373C343.578 246.405 379.699 207.16 380.084 206.766C380.2 206.649 380.265 206.492 380.265 206.327C380.265 206.163 380.2 206.005 380.084 205.889C380.027 205.831 379.959 205.786 379.885 205.755C379.81 205.724 379.731 205.708 379.65 205.708C379.569 205.708 379.489 205.724 379.415 205.755C379.341 205.786 379.273 205.831 379.216 205.889C378.852 206.283 342.583 245.676 333.289 265.821C318.604 297.822 309.734 335.195 311.311 358.996C311.323 359.153 311.394 359.3 311.508 359.407C311.623 359.515 311.774 359.576 311.932 359.578ZM341.41 253.58C341.573 253.57 341.725 253.496 341.834 253.374C341.943 253.252 342 253.093 341.991 252.93L339.636 213.064C339.632 212.982 339.612 212.903 339.577 212.829C339.543 212.756 339.493 212.69 339.433 212.636C339.372 212.582 339.301 212.541 339.225 212.514C339.148 212.488 339.067 212.477 338.985 212.482C338.822 212.492 338.67 212.566 338.561 212.688C338.452 212.81 338.396 212.969 338.404 213.133L340.799 252.979C340.806 253.136 340.874 253.284 340.988 253.392C341.102 253.5 341.253 253.561 341.41 253.56V253.58ZM334.058 266.678C334.205 266.611 334.321 266.489 334.38 266.338C334.439 266.187 334.436 266.019 334.373 265.87L319.225 231.602C319.16 231.453 319.038 231.336 318.886 231.277C318.735 231.218 318.566 231.221 318.417 231.287C318.268 231.352 318.151 231.474 318.092 231.625C318.032 231.777 318.036 231.946 318.101 232.095L333.24 266.363C333.287 266.473 333.365 266.567 333.465 266.633C333.565 266.7 333.682 266.736 333.801 266.737C333.903 266.743 334.005 266.722 334.097 266.678H334.058ZM336.679 261.948L372.938 256.764C373.026 256.762 373.112 256.741 373.191 256.704C373.27 256.666 373.341 256.613 373.397 256.546C373.454 256.479 373.497 256.402 373.521 256.318C373.546 256.233 373.552 256.145 373.54 256.058C373.529 255.972 373.498 255.888 373.452 255.814C373.406 255.74 373.344 255.676 373.272 255.627C373.199 255.578 373.117 255.546 373.03 255.531C372.944 255.516 372.855 255.52 372.771 255.541L336.512 260.725C336.35 260.736 336.198 260.81 336.091 260.932C335.984 261.054 335.93 261.214 335.94 261.376C335.951 261.538 336.025 261.689 336.147 261.796C336.269 261.904 336.428 261.958 336.591 261.948H336.679ZM326.341 285.079C326.469 284.978 326.553 284.83 326.573 284.667C326.594 284.505 326.549 284.341 326.449 284.212L306.797 258.961C306.696 258.831 306.548 258.745 306.384 258.724C306.221 258.703 306.055 258.747 305.925 258.848C305.794 258.949 305.709 259.097 305.687 259.261C305.666 259.424 305.711 259.59 305.811 259.72L325.503 285.01C325.56 285.083 325.633 285.143 325.717 285.184C325.801 285.225 325.893 285.246 325.986 285.246C326.133 285.239 326.273 285.18 326.38 285.079H326.341ZM357.051 278.249C357.056 278.086 356.997 277.927 356.887 277.807C356.776 277.687 356.623 277.616 356.46 277.608L329.445 276.238C329.293 276.249 329.151 276.315 329.044 276.423C328.938 276.532 328.875 276.676 328.868 276.828C328.86 276.98 328.909 277.129 329.005 277.248C329.1 277.366 329.236 277.445 329.386 277.47L356.45 278.84C356.613 278.846 356.771 278.787 356.891 278.676C357.011 278.565 357.083 278.412 357.09 278.249H357.051ZM344.307 298.295C344.317 298.214 344.31 298.132 344.288 298.054C344.265 297.975 344.227 297.902 344.175 297.839C344.124 297.775 344.06 297.723 343.988 297.684C343.916 297.646 343.837 297.623 343.756 297.615L323.059 295.575C322.978 295.567 322.897 295.575 322.82 295.598C322.743 295.622 322.671 295.66 322.609 295.711C322.546 295.763 322.495 295.826 322.457 295.897C322.419 295.969 322.396 296.047 322.389 296.127C322.375 296.289 322.425 296.449 322.528 296.575C322.631 296.7 322.779 296.78 322.94 296.797L343.637 298.847H343.696C343.855 298.858 344.012 298.807 344.134 298.704C344.255 298.6 344.332 298.454 344.347 298.295H344.307ZM318.338 308.979C318.475 308.888 318.57 308.747 318.603 308.587C318.637 308.426 318.605 308.259 318.515 308.121L308.285 292.658C308.191 292.525 308.05 292.433 307.89 292.402C307.73 292.37 307.565 292.402 307.428 292.49C307.291 292.581 307.195 292.722 307.162 292.882C307.129 293.043 307.161 293.21 307.25 293.348L317.48 308.811C317.539 308.896 317.617 308.965 317.708 309.013C317.799 309.061 317.9 309.087 318.003 309.087C318.136 309.094 318.268 309.056 318.377 308.979H318.338ZM341.814 314.153C341.812 313.991 341.747 313.836 341.633 313.72C341.519 313.604 341.365 313.537 341.203 313.532L316.869 313.305C316.707 313.305 316.552 313.37 316.437 313.484C316.323 313.599 316.258 313.754 316.258 313.916C316.256 313.998 316.27 314.079 316.299 314.155C316.329 314.231 316.374 314.3 316.431 314.358C316.488 314.416 316.556 314.462 316.632 314.493C316.707 314.524 316.788 314.539 316.869 314.537L341.203 314.764C341.286 314.768 341.369 314.755 341.447 314.726C341.525 314.698 341.597 314.653 341.658 314.596C341.718 314.539 341.767 314.471 341.801 314.395C341.834 314.318 341.852 314.236 341.853 314.153H341.814ZM309.162 350.54C309.212 350.432 313.361 338.999 325.838 336.269C325.999 336.234 326.139 336.136 326.227 335.997C326.316 335.859 326.346 335.691 326.311 335.53C326.271 335.372 326.172 335.236 326.034 335.15C325.897 335.064 325.731 335.034 325.572 335.067C312.415 337.945 308.049 350.018 307.999 350.136C307.949 350.292 307.96 350.461 308.032 350.608C308.104 350.755 308.23 350.869 308.384 350.924H308.581C308.712 350.936 308.843 350.905 308.955 350.835C309.067 350.766 309.153 350.662 309.202 350.54H309.162ZM311.932 359.578C312.095 359.565 312.246 359.489 312.353 359.365C312.46 359.241 312.514 359.081 312.503 358.917C310.956 335.678 319.944 297.615 334.363 266.373C343.578 246.405 379.699 207.16 380.084 206.766C380.2 206.649 380.265 206.492 380.265 206.327C380.265 206.163 380.2 206.005 380.084 205.889C380.027 205.831 379.959 205.786 379.885 205.755C379.81 205.724 379.731 205.708 379.65 205.708C379.569 205.708 379.489 205.724 379.415 205.755C379.341 205.786 379.273 205.831 379.216 205.889C378.852 206.283 342.583 245.676 333.289 265.821C318.604 297.822 309.734 335.195 311.311 358.996C311.323 359.153 311.394 359.3 311.508 359.407C311.623 359.515 311.774 359.576 311.932 359.578ZM341.41 253.58C341.573 253.57 341.725 253.496 341.834 253.374C341.943 253.252 342 253.093 341.991 252.93L339.636 213.064C339.632 212.982 339.612 212.903 339.577 212.829C339.543 212.756 339.493 212.69 339.433 212.636C339.372 212.582 339.301 212.541 339.225 212.514C339.148 212.488 339.067 212.477 338.985 212.482C338.822 212.492 338.67 212.566 338.561 212.688C338.452 212.81 338.396 212.969 338.404 213.133L340.799 252.979C340.806 253.136 340.874 253.284 340.988 253.392C341.102 253.5 341.253 253.561 341.41 253.56V253.58ZM334.058 266.678C334.205 266.611 334.321 266.489 334.38 266.338C334.439 266.187 334.436 266.019 334.373 265.87L319.225 231.602C319.16 231.453 319.038 231.336 318.886 231.277C318.735 231.218 318.566 231.221 318.417 231.287C318.268 231.352 318.151 231.474 318.092 231.625C318.032 231.777 318.036 231.946 318.101 232.095L333.24 266.363C333.287 266.473 333.365 266.567 333.465 266.633C333.565 266.7 333.682 266.736 333.801 266.737C333.903 266.743 334.005 266.722 334.097 266.678H334.058ZM336.679 261.948L372.938 256.764C373.026 256.762 373.112 256.741 373.191 256.704C373.27 256.666 373.341 256.613 373.397 256.546C373.454 256.479 373.497 256.402 373.521 256.318C373.546 256.233 373.552 256.145 373.54 256.058C373.529 255.972 373.498 255.888 373.452 255.814C373.406 255.74 373.344 255.676 373.272 255.627C373.199 255.578 373.117 255.546 373.03 255.531C372.944 255.516 372.855 255.52 372.771 255.541L336.512 260.725C336.35 260.736 336.198 260.81 336.091 260.932C335.984 261.054 335.93 261.214 335.94 261.376C335.951 261.538 336.025 261.689 336.147 261.796C336.269 261.904 336.428 261.958 336.591 261.948H336.679ZM326.341 285.079C326.469 284.978 326.553 284.83 326.573 284.667C326.594 284.505 326.549 284.341 326.449 284.212L306.797 258.961C306.747 258.897 306.685 258.842 306.614 258.802C306.543 258.761 306.465 258.735 306.384 258.724C306.303 258.713 306.221 258.719 306.142 258.74C306.063 258.762 305.989 258.798 305.925 258.848C305.86 258.898 305.806 258.96 305.765 259.031C305.724 259.101 305.698 259.18 305.687 259.261C305.677 259.342 305.682 259.424 305.704 259.503C305.725 259.582 305.761 259.655 305.811 259.72L325.503 285.01C325.56 285.083 325.633 285.143 325.717 285.184C325.801 285.225 325.893 285.246 325.986 285.246C326.133 285.239 326.273 285.18 326.38 285.079H326.341ZM357.051 278.249C357.056 278.086 356.997 277.927 356.887 277.807C356.776 277.687 356.623 277.616 356.46 277.608L329.445 276.238C329.293 276.249 329.151 276.315 329.044 276.423C328.938 276.532 328.875 276.676 328.868 276.828C328.86 276.98 328.909 277.129 329.005 277.248C329.1 277.366 329.236 277.445 329.386 277.47L356.45 278.84C356.613 278.846 356.771 278.787 356.891 278.676C357.011 278.565 357.083 278.412 357.09 278.249H357.051ZM344.307 298.295C344.317 298.214 344.31 298.132 344.288 298.054C344.265 297.975 344.227 297.902 344.175 297.839C344.124 297.775 344.06 297.723 343.988 297.684C343.916 297.646 343.837 297.623 343.756 297.615L323.059 295.575C322.978 295.567 322.897 295.575 322.82 295.598C322.743 295.622 322.671 295.66 322.609 295.711C322.546 295.763 322.495 295.826 322.457 295.897C322.419 295.969 322.396 296.047 322.389 296.127C322.375 296.289 322.425 296.449 322.528 296.575C322.631 296.7 322.779 296.78 322.94 296.797L343.637 298.847H343.696C343.855 298.858 344.012 298.807 344.134 298.704C344.255 298.6 344.332 298.454 344.347 298.295H344.307ZM318.338 308.979C318.475 308.888 318.57 308.747 318.603 308.587C318.637 308.426 318.605 308.259 318.515 308.121L308.285 292.658C308.191 292.525 308.05 292.433 307.89 292.402C307.73 292.37 307.565 292.402 307.428 292.49C307.291 292.581 307.195 292.722 307.162 292.882C307.129 293.043 307.161 293.21 307.25 293.348L317.48 308.811C317.539 308.896 317.617 308.965 317.708 309.013C317.799 309.061 317.9 309.087 318.003 309.087C318.136 309.094 318.268 309.056 318.377 308.979H318.338ZM341.814 314.153C341.812 313.991 341.747 313.836 341.633 313.72C341.519 313.604 341.365 313.537 341.203 313.532L316.869 313.305C316.707 313.305 316.552 313.37 316.437 313.484C316.323 313.599 316.258 313.754 316.258 313.916C316.256 313.998 316.27 314.079 316.299 314.155C316.329 314.231 316.374 314.3 316.431 314.358C316.488 314.416 316.556 314.462 316.632 314.493C316.707 314.524 316.788 314.539 316.869 314.537L341.203 314.764C341.286 314.768 341.369 314.755 341.447 314.726C341.525 314.698 341.597 314.653 341.658 314.596C341.718 314.539 341.767 314.471 341.801 314.395C341.834 314.318 341.852 314.236 341.853 314.153H341.814ZM309.162 350.54C309.212 350.432 313.361 338.999 325.838 336.269C325.999 336.234 326.139 336.136 326.227 335.997C326.316 335.859 326.346 335.691 326.311 335.53C326.271 335.372 326.172 335.236 326.034 335.15C325.897 335.064 325.731 335.034 325.572 335.067C312.415 337.945 308.049 350.018 307.999 350.136C307.949 350.292 307.96 350.461 308.032 350.608C308.104 350.755 308.23 350.869 308.384 350.924H308.581C308.712 350.936 308.843 350.905 308.955 350.835C309.067 350.766 309.153 350.662 309.202 350.54H309.162Z" fill="#550000" fill-opacity="0.63"/>
<path opacity="0.2" d="M341.42 252.969L339.025 213.123ZM333.841 266.117L318.703 231.848ZM372.909 256.152L336.63 261.356ZM325.996 284.586L306.353 259.385ZM329.445 276.859L356.509 278.219ZM323.039 296.186L343.736 298.236ZM318.042 308.466L307.763 293.003ZM316.86 313.926L341.193 314.153ZM311.932 359.578C312.095 359.565 312.246 359.489 312.353 359.365C312.46 359.241 312.514 359.081 312.503 358.917C310.956 335.678 319.944 297.615 334.363 266.373C343.578 246.405 379.699 207.16 380.084 206.766C380.2 206.649 380.265 206.492 380.265 206.327C380.265 206.163 380.2 206.005 380.084 205.889C380.027 205.831 379.959 205.786 379.885 205.755C379.81 205.724 379.731 205.708 379.65 205.708C379.569 205.708 379.489 205.724 379.415 205.755C379.341 205.786 379.273 205.831 379.216 205.889C378.852 206.283 342.583 245.676 333.289 265.821C318.604 297.822 309.734 335.195 311.311 358.996C311.323 359.153 311.394 359.3 311.508 359.407C311.623 359.515 311.774 359.576 311.932 359.578ZM341.41 253.58C341.573 253.57 341.725 253.496 341.834 253.374C341.943 253.252 342 253.093 341.991 252.93L339.636 213.064C339.632 212.982 339.612 212.903 339.577 212.829C339.543 212.756 339.493 212.69 339.433 212.636C339.372 212.582 339.301 212.541 339.225 212.514C339.148 212.488 339.067 212.477 338.985 212.482C338.822 212.492 338.67 212.566 338.561 212.688C338.452 212.81 338.396 212.969 338.404 213.133L340.799 252.979C340.806 253.136 340.874 253.284 340.988 253.392C341.102 253.5 341.253 253.561 341.41 253.56V253.58ZM334.058 266.678C334.205 266.611 334.321 266.489 334.38 266.338C334.439 266.187 334.436 266.019 334.373 265.87L319.225 231.602C319.16 231.453 319.038 231.336 318.886 231.277C318.735 231.218 318.566 231.221 318.417 231.287C318.268 231.352 318.151 231.474 318.092 231.625C318.032 231.777 318.036 231.946 318.101 232.095L333.24 266.363C333.287 266.473 333.365 266.567 333.465 266.633C333.565 266.7 333.682 266.736 333.801 266.737C333.903 266.743 334.005 266.722 334.097 266.678H334.058ZM336.679 261.948L372.938 256.764C373.026 256.762 373.112 256.741 373.191 256.704C373.27 256.666 373.341 256.613 373.397 256.546C373.454 256.479 373.497 256.402 373.521 256.318C373.546 256.233 373.552 256.145 373.54 256.058C373.529 255.972 373.498 255.888 373.452 255.814C373.406 255.74 373.344 255.676 373.272 255.627C373.199 255.578 373.117 255.546 373.03 255.531C372.944 255.516 372.855 255.52 372.771 255.541L336.512 260.725C336.35 260.736 336.198 260.81 336.091 260.932C335.984 261.054 335.93 261.214 335.94 261.376C335.951 261.538 336.025 261.689 336.147 261.796C336.269 261.904 336.428 261.958 336.591 261.948H336.679ZM326.341 285.079C326.469 284.978 326.553 284.83 326.573 284.667C326.594 284.505 326.549 284.341 326.449 284.212L306.797 258.961C306.696 258.831 306.548 258.745 306.384 258.724C306.221 258.703 306.055 258.747 305.925 258.848C305.794 258.949 305.709 259.097 305.687 259.261C305.666 259.424 305.711 259.59 305.811 259.72L325.503 285.01C325.56 285.083 325.633 285.143 325.717 285.184C325.801 285.225 325.893 285.246 325.986 285.246C326.133 285.239 326.273 285.18 326.38 285.079H326.341ZM357.051 278.249C357.056 278.086 356.997 277.927 356.887 277.807C356.776 277.687 356.623 277.616 356.46 277.608L329.445 276.238C329.293 276.249 329.151 276.315 329.044 276.423C328.938 276.532 328.875 276.676 328.868 276.828C328.86 276.98 328.909 277.129 329.005 277.248C329.1 277.366 329.236 277.445 329.386 277.47L356.45 278.84C356.613 278.846 356.771 278.787 356.891 278.676C357.011 278.565 357.083 278.412 357.09 278.249H357.051ZM344.307 298.295C344.317 298.214 344.31 298.132 344.288 298.054C344.265 297.975 344.227 297.902 344.175 297.839C344.124 297.775 344.06 297.723 343.988 297.684C343.916 297.646 343.837 297.623 343.756 297.615L323.059 295.575C322.978 295.567 322.897 295.575 322.82 295.598C322.743 295.622 322.671 295.66 322.609 295.711C322.546 295.763 322.495 295.826 322.457 295.897C322.419 295.969 322.396 296.047 322.389 296.127C322.375 296.289 322.425 296.449 322.528 296.575C322.631 296.7 322.779 296.78 322.94 296.797L343.637 298.847H343.696C343.855 298.858 344.012 298.807 344.134 298.704C344.255 298.6 344.332 298.454 344.347 298.295H344.307ZM318.338 308.979C318.475 308.888 318.57 308.747 318.603 308.587C318.637 308.426 318.605 308.259 318.515 308.121L308.285 292.658C308.191 292.525 308.05 292.433 307.89 292.402C307.73 292.37 307.565 292.402 307.428 292.49C307.291 292.581 307.195 292.722 307.162 292.882C307.129 293.043 307.161 293.21 307.25 293.348L317.48 308.811C317.539 308.896 317.617 308.965 317.708 309.013C317.799 309.061 317.9 309.087 318.003 309.087C318.136 309.094 318.268 309.056 318.377 308.979H318.338ZM341.814 314.153C341.812 313.991 341.747 313.836 341.633 313.72C341.519 313.604 341.365 313.537 341.203 313.532L316.869 313.305C316.707 313.305 316.552 313.37 316.437 313.484C316.323 313.599 316.258 313.754 316.258 313.916C316.256 313.998 316.27 314.079 316.299 314.155C316.329 314.231 316.374 314.3 316.431 314.358C316.488 314.416 316.556 314.462 316.632 314.493C316.707 314.524 316.788 314.539 316.869 314.537L341.203 314.764C341.286 314.768 341.369 314.755 341.447 314.726C341.525 314.698 341.597 314.653 341.658 314.596C341.718 314.539 341.767 314.471 341.801 314.395C341.834 314.318 341.852 314.236 341.853 314.153H341.814ZM309.162 350.54C309.212 350.432 313.361 338.999 325.838 336.269C325.999 336.234 326.139 336.136 326.227 335.997C326.316 335.859 326.346 335.691 326.311 335.53C326.271 335.372 326.172 335.236 326.034 335.15C325.897 335.064 325.731 335.034 325.572 335.067C312.415 337.945 308.049 350.018 307.999 350.136C307.949 350.292 307.96 350.461 308.032 350.608C308.104 350.755 308.23 350.869 308.384 350.924H308.581C308.712 350.936 308.843 350.905 308.955 350.835C309.067 350.766 309.153 350.662 309.202 350.54H309.162ZM311.932 359.578C312.095 359.565 312.246 359.489 312.353 359.365C312.46 359.241 312.514 359.081 312.503 358.917C310.956 335.678 319.944 297.615 334.363 266.373C343.578 246.405 379.699 207.16 380.084 206.766C380.2 206.649 380.265 206.492 380.265 206.327C380.265 206.163 380.2 206.005 380.084 205.889C380.027 205.831 379.959 205.786 379.885 205.755C379.81 205.724 379.731 205.708 379.65 205.708C379.569 205.708 379.489 205.724 379.415 205.755C379.341 205.786 379.273 205.831 379.216 205.889C378.852 206.283 342.583 245.676 333.289 265.821C318.604 297.822 309.734 335.195 311.311 358.996C311.323 359.153 311.394 359.3 311.508 359.407C311.623 359.515 311.774 359.576 311.932 359.578ZM341.41 253.58C341.573 253.57 341.725 253.496 341.834 253.374C341.943 253.252 342 253.093 341.991 252.93L339.636 213.064C339.632 212.982 339.612 212.903 339.577 212.829C339.543 212.756 339.493 212.69 339.433 212.636C339.372 212.582 339.301 212.541 339.225 212.514C339.148 212.488 339.067 212.477 338.985 212.482C338.822 212.492 338.67 212.566 338.561 212.688C338.452 212.81 338.396 212.969 338.404 213.133L340.799 252.979C340.806 253.136 340.874 253.284 340.988 253.392C341.102 253.5 341.253 253.561 341.41 253.56V253.58ZM334.058 266.678C334.205 266.611 334.321 266.489 334.38 266.338C334.439 266.187 334.436 266.019 334.373 265.87L319.225 231.602C319.16 231.453 319.038 231.336 318.886 231.277C318.735 231.218 318.566 231.221 318.417 231.287C318.268 231.352 318.151 231.474 318.092 231.625C318.032 231.777 318.036 231.946 318.101 232.095L333.24 266.363C333.287 266.473 333.365 266.567 333.465 266.633C333.565 266.7 333.682 266.736 333.801 266.737C333.903 266.743 334.005 266.722 334.097 266.678H334.058ZM336.679 261.948L372.938 256.764C373.026 256.762 373.112 256.741 373.191 256.704C373.27 256.666 373.341 256.613 373.397 256.546C373.454 256.479 373.497 256.402 373.521 256.318C373.546 256.233 373.552 256.145 373.54 256.058C373.529 255.972 373.498 255.888 373.452 255.814C373.406 255.74 373.344 255.676 373.272 255.627C373.199 255.578 373.117 255.546 373.03 255.531C372.944 255.516 372.855 255.52 372.771 255.541L336.512 260.725C336.35 260.736 336.198 260.81 336.091 260.932C335.984 261.054 335.93 261.214 335.94 261.376C335.951 261.538 336.025 261.689 336.147 261.796C336.269 261.904 336.428 261.958 336.591 261.948H336.679ZM326.341 285.079C326.469 284.978 326.553 284.83 326.573 284.667C326.594 284.505 326.549 284.341 326.449 284.212L306.797 258.961C306.747 258.897 306.685 258.842 306.614 258.802C306.543 258.761 306.465 258.735 306.384 258.724C306.303 258.713 306.221 258.719 306.142 258.74C306.063 258.762 305.989 258.798 305.925 258.848C305.86 258.898 305.806 258.96 305.765 259.031C305.724 259.101 305.698 259.18 305.687 259.261C305.677 259.342 305.682 259.424 305.704 259.503C305.725 259.582 305.761 259.655 305.811 259.72L325.503 285.01C325.56 285.083 325.633 285.143 325.717 285.184C325.801 285.225 325.893 285.246 325.986 285.246C326.133 285.239 326.273 285.18 326.38 285.079H326.341ZM357.051 278.249C357.056 278.086 356.997 277.927 356.887 277.807C356.776 277.687 356.623 277.616 356.46 277.608L329.445 276.238C329.293 276.249 329.151 276.315 329.044 276.423C328.938 276.532 328.875 276.676 328.868 276.828C328.86 276.98 328.909 277.129 329.005 277.248C329.1 277.366 329.236 277.445 329.386 277.47L356.45 278.84C356.613 278.846 356.771 278.787 356.891 278.676C357.011 278.565 357.083 278.412 357.09 278.249H357.051ZM344.307 298.295C344.317 298.214 344.31 298.132 344.288 298.054C344.265 297.975 344.227 297.902 344.175 297.839C344.124 297.775 344.06 297.723 343.988 297.684C343.916 297.646 343.837 297.623 343.756 297.615L323.059 295.575C322.978 295.567 322.897 295.575 322.82 295.598C322.743 295.622 322.671 295.66 322.609 295.711C322.546 295.763 322.495 295.826 322.457 295.897C322.419 295.969 322.396 296.047 322.389 296.127C322.375 296.289 322.425 296.449 322.528 296.575C322.631 296.7 322.779 296.78 322.94 296.797L343.637 298.847H343.696C343.855 298.858 344.012 298.807 344.134 298.704C344.255 298.6 344.332 298.454 344.347 298.295H344.307ZM318.338 308.979C318.475 308.888 318.57 308.747 318.603 308.587C318.637 308.426 318.605 308.259 318.515 308.121L308.285 292.658C308.191 292.525 308.05 292.433 307.89 292.402C307.73 292.37 307.565 292.402 307.428 292.49C307.291 292.581 307.195 292.722 307.162 292.882C307.129 293.043 307.161 293.21 307.25 293.348L317.48 308.811C317.539 308.896 317.617 308.965 317.708 309.013C317.799 309.061 317.9 309.087 318.003 309.087C318.136 309.094 318.268 309.056 318.377 308.979H318.338ZM341.814 314.153C341.812 313.991 341.747 313.836 341.633 313.72C341.519 313.604 341.365 313.537 341.203 313.532L316.869 313.305C316.707 313.305 316.552 313.37 316.437 313.484C316.323 313.599 316.258 313.754 316.258 313.916C316.256 313.998 316.27 314.079 316.299 314.155C316.329 314.231 316.374 314.3 316.431 314.358C316.488 314.416 316.556 314.462 316.632 314.493C316.707 314.524 316.788 314.539 316.869 314.537L341.203 314.764C341.286 314.768 341.369 314.755 341.447 314.726C341.525 314.698 341.597 314.653 341.658 314.596C341.718 314.539 341.767 314.471 341.801 314.395C341.834 314.318 341.852 314.236 341.853 314.153H341.814ZM309.162 350.54C309.212 350.432 313.361 338.999 325.838 336.269C325.999 336.234 326.139 336.136 326.227 335.997C326.316 335.859 326.346 335.691 326.311 335.53C326.271 335.372 326.172 335.236 326.034 335.15C325.897 335.064 325.731 335.034 325.572 335.067C312.415 337.945 308.049 350.018 307.999 350.136C307.949 350.292 307.96 350.461 308.032 350.608C308.104 350.755 308.23 350.869 308.384 350.924H308.581C308.712 350.936 308.843 350.905 308.955 350.835C309.067 350.766 309.153 350.662 309.202 350.54H309.162Z" fill="black"/>
<path d="M328.026 342.202H300.125V347.978H302.559L307.595 379.486H320.556L325.592 347.978H328.026V342.202Z" fill="#550000" fill-opacity="0.63"/>
<path opacity="0.3" d="M328.026 342.202H300.125V347.978H302.559L307.595 379.486H320.556L325.592 347.978H328.026V342.202Z" fill="white"/>
<path d="M76.8248 167.56L44.3701 156.965L41.4824 149.337L34.889 149.13L22.9242 146.863L24.3631 149.337L39.4226 160.267L43.1382 162.12L77.081 179.85L76.8248 167.56Z" fill="white" stroke="#263238" stroke-width="1.00396" stroke-miterlimit="10"/>
<path d="M41.4827 149.337L38.388 147.484L32.2085 149.751L33.2335 150.983L41.4827 149.337Z" fill="white" stroke="#263238" stroke-width="1.00396" stroke-linejoin="round"/>
<path d="M76.8248 167.56L44.3701 156.965L41.4824 149.337L34.889 149.13L22.9242 146.863L24.3631 149.337L39.4226 160.267L43.1382 162.12L77.081 179.85L76.8248 167.56Z" fill="white"/>
<mask id="mask0_2425_1175" style="mask-type:luminance" maskUnits="userSpaceOnUse" x="22" y="146" width="56" height="34">
<path d="M76.8248 167.56L44.3701 156.965L41.4824 149.337L34.889 149.13L22.9242 146.863L24.3631 149.337L39.4226 160.267L43.1382 162.12L77.081 179.85L76.8248 167.56Z" fill="white"/>
</mask>
<g mask="url(#mask0_2425_1175)">
<path opacity="0.5" d="M76.8248 167.56L44.3701 156.965L41.4824 149.337L34.889 149.13L22.9242 146.863L24.3631 149.337L39.4226 160.267L43.1382 162.12L77.081 179.85L76.8248 167.56Z" fill="#550000" stroke="#263238" stroke-width="1.00396" stroke-miterlimit="10"/>
</g>
<path d="M76.8248 167.56L44.3701 156.965L41.4824 149.337L34.889 149.13L22.9242 146.863L24.3631 149.337L39.4226 160.267L43.1382 162.12L77.081 179.85L76.8248 167.56Z" stroke="#263238" stroke-width="1.00396" stroke-miterlimit="10"/>
<path d="M41.4827 149.337L38.388 147.484L32.2085 149.751L33.2335 150.983L41.4827 149.337Z" fill="white"/>
<mask id="mask1_2425_1175" style="mask-type:luminance" maskUnits="userSpaceOnUse" x="32" y="147" width="10" height="4">
<path d="M41.4827 149.337L38.388 147.484L32.2085 149.751L33.2335 150.983L41.4827 149.337Z" fill="white"/>
</mask>
<g mask="url(#mask1_2425_1175)">
<path opacity="0.5" d="M41.4827 149.337L38.388 147.484L32.2085 149.751L33.2335 150.983L41.4827 149.337Z" fill="#550000" stroke="#263238" stroke-width="1.00396" stroke-linejoin="round"/>
</g>
<path d="M41.4827 149.337L38.388 147.484L32.2085 149.751L33.2335 150.983L41.4827 149.337Z" stroke="#263238" stroke-width="1.00396" stroke-linejoin="round"/>
<path d="M83.7141 98.797C83.7141 98.797 83.2115 103.232 84.4631 106.08C85.7148 108.929 92.6631 118.577 92.6631 118.577L79.693 128.975C79.693 128.975 74.3118 118.134 73.2868 116.379C72.2618 114.625 71.0299 107.076 74.371 101.665C77.712 96.2542 82.5216 94.7956 83.7141 98.797Z" fill="white"/>
<mask id="mask2_2425_1175" style="mask-type:luminance" maskUnits="userSpaceOnUse" x="72" y="96" width="21" height="33">
<path d="M83.7141 98.797C83.7141 98.797 83.2115 103.232 84.4631 106.08C85.7148 108.929 92.6631 118.577 92.6631 118.577L79.693 128.975C79.693 128.975 74.3118 118.134 73.2868 116.379C72.2618 114.625 71.0299 107.076 74.371 101.665C77.712 96.2542 82.5216 94.7956 83.7141 98.797Z" fill="white"/>
</mask>
<g mask="url(#mask2_2425_1175)">
<g style="mix-blend-mode:multiply" opacity="0.5">
<path d="M77.0518 113.048L82.6794 124.717L79.6833 128.985L74.0261 118.883L77.0518 113.048Z" fill="#550000"/>
</g>
</g>
<path d="M83.7141 98.797C83.7141 98.797 83.2115 103.232 84.4631 106.08C85.7148 108.929 92.6631 118.577 92.6631 118.577L79.693 128.975C79.693 128.975 74.3118 118.134 73.2868 116.379C72.2618 114.625 71.0299 107.076 74.371 101.665C77.712 96.2542 82.5216 94.7956 83.7141 98.797Z" stroke="#263238" stroke-width="1.00396" stroke-miterlimit="10"/>
<path d="M87.735 90.6759C86.9367 85.7481 81.2894 75.7249 72.3307 76.1093C66.5158 76.3655 63.7957 77.5383 61.2726 78.9674C59.216 80.1791 57.299 81.6135 55.5563 83.2448C51.1804 88.4978 49.6429 89.9368 50.4905 93.9579C50.421 95.5617 50.6723 97.1634 51.2297 98.6689C52.5701 102.246 53.4866 104.582 54.6496 106.287C54.2948 107.953 53.3684 112.349 53.3191 113.354C53.2698 114.359 56.2758 113.659 57.7936 113.275C60.6123 119.583 65.7766 123.959 67.3831 124.461C70.1821 125.338 74.6073 120.736 76.953 117.168C79.2986 113.6 77.5246 109.589 77.5344 107.992C77.5443 106.396 82.8072 102.887 84.7586 101.773C86.7101 100.66 88.5235 95.5939 87.735 90.6759Z" fill="white"/>
<mask id="mask3_2425_1175" style="mask-type:luminance" maskUnits="userSpaceOnUse" x="50" y="76" width="38" height="49">
<path d="M87.735 90.6759C86.9367 85.7481 81.2894 75.7249 72.3307 76.1093C66.5158 76.3655 63.7957 77.5383 61.2726 78.9674C59.216 80.1791 57.299 81.6135 55.5563 83.2448C51.1804 88.4978 49.6429 89.9368 50.4905 93.9579C50.421 95.5617 50.6723 97.1634 51.2297 98.6689C52.5701 102.246 53.4866 104.582 54.6496 106.287C54.2948 107.953 53.3684 112.349 53.3191 113.354C53.2698 114.359 56.2758 113.659 57.7936 113.275C60.6123 119.583 65.7766 123.959 67.3831 124.461C70.1821 125.338 74.6073 120.736 76.953 117.168C79.2986 113.6 77.5246 109.589 77.5344 107.992C77.5443 106.396 82.8072 102.887 84.7586 101.773C86.7101 100.66 88.5235 95.5939 87.735 90.6759Z" fill="white"/>
</mask>
<g mask="url(#mask3_2425_1175)">
<g style="mix-blend-mode:multiply" opacity="0.5">
<path d="M50.5304 93.9579C50.4609 95.5618 50.7122 97.1634 51.2696 98.6689C52.6099 102.246 53.5265 104.582 54.6895 106.287C54.3347 107.953 53.4083 112.349 53.359 113.354C53.3097 114.359 56.3157 113.659 57.8334 113.275C60.6522 119.583 65.8165 123.959 67.423 124.461C70.222 125.338 74.6472 120.736 76.9928 117.168C77.5789 116.277 77.9593 115.267 78.1065 114.211C77.9784 113.748 77.8897 113.462 77.8897 113.462C77.8897 113.462 76.5691 118.538 73.9474 117.878C71.3258 117.217 67.3146 111.964 65.0774 110.151C62.8401 108.337 63.7567 105.952 63.3132 103.252C62.8697 100.551 56.2467 98.1761 55.8032 96.6288C55.3597 95.0814 56.907 88.6752 56.907 88.6752C56.907 88.6752 59.4202 85.3243 58.8781 86.7041C58.495 87.9005 58.3561 89.1617 58.4695 90.4128C58.5829 91.6639 58.9464 92.8795 59.5385 93.9874C59.9539 94.8617 60.613 95.5974 61.4364 96.1062C62.2599 96.6149 63.2127 96.8751 64.1805 96.8554L66.5853 84.94L61.5096 80.7414L55.5962 83.2054C51.1809 88.4979 49.673 89.9368 50.5304 93.9579Z" fill="#550000"/>
</g>
</g>
<path d="M87.735 90.6759C86.9367 85.7481 81.2894 75.7249 72.3307 76.1093C66.5158 76.3655 63.7957 77.5383 61.2726 78.9674C59.216 80.1791 57.299 81.6135 55.5563 83.2448C51.1804 88.4978 49.6429 89.9368 50.4905 93.9579C50.421 95.5617 50.6723 97.1634 51.2297 98.6689C52.5701 102.246 53.4866 104.582 54.6496 106.287C54.2948 107.953 53.3684 112.349 53.3191 113.354C53.2698 114.359 56.2758 113.659 57.7936 113.275C60.6123 119.583 65.7766 123.959 67.3831 124.461C70.1821 125.338 74.6073 120.736 76.953 117.168C79.2986 113.6 77.5246 109.589 77.5344 107.992C77.5443 106.396 82.8072 102.887 84.7586 101.773C86.7101 100.66 88.5235 95.5939 87.735 90.6759Z" stroke="#263238" stroke-miterlimit="10"/>
<path d="M55.8718 103.311L56.8574 106.13C56.8574 106.13 58.9764 106.829 61.5585 104.011" stroke="#263238" stroke-miterlimit="10" stroke-linecap="round"/>
<path d="M63.1554 116.478C63.1554 116.478 65.501 116.242 66.4472 112.95" stroke="#263238" stroke-miterlimit="10" stroke-linecap="round"/>
<path d="M54.2258 100.955C54.2258 100.955 54.9256 98.8364 59.1537 98.8364" stroke="#263238" stroke-miterlimit="10" stroke-linecap="round"/>
<path d="M75.8988 72.1867C72.8265 71.7449 69.7283 71.5079 66.6246 71.4771C66.6246 71.4771 57.3406 66.1255 48.4212 71.8319C39.5018 77.5383 43.789 87.532 43.789 90.0255C43.789 92.5189 40.9309 92.5288 42.7148 95.7417C44.4986 98.9547 50.5303 97.1807 50.5303 97.1807C50.594 95.9688 50.9143 94.7844 51.4698 93.7055C52.0254 92.6267 52.8036 91.678 53.7531 90.9223C56.966 88.4288 59.5285 87.8868 60.5929 88.6062C60.5929 88.6062 59.8833 93.9579 60.9477 96.0966C60.9477 96.0966 64.5155 97.8804 65.5897 97.8804C66.664 97.8804 64.89 99.3883 68.4479 100.729C69.0961 100.962 69.7894 101.041 70.4735 100.96C71.1575 100.88 71.8136 100.642 72.3901 100.265C72.9125 98.0972 74.0557 94.835 76.1846 95.5939C79.3088 96.7076 82.1571 104.395 77.929 107.017C83.0145 107.943 89.1743 98.9448 89.539 90.7449C89.9036 82.545 81.1814 73.1131 75.8988 72.1867Z" fill="#263238"/>
<path d="M60.7506 85.0878C60.7506 85.0878 63.3722 83.6784 66.5852 86.6942C69.7981 89.7101 76.0466 93.741 84.3253 91.5235" stroke="white" stroke-width="0.5" stroke-linecap="round" stroke-linejoin="round"/>
<path d="M60.3856 82.6731C60.3856 82.6731 62.1892 79.8544 65.205 79.8544C68.2209 79.8544 75.2677 84.0825 80.8952 84.0825" stroke="white" stroke-width="0.5" stroke-linecap="round" stroke-linejoin="round"/>
<path d="M58.3359 88.1036C58.3359 88.1036 54.916 83.8854 51.7031 87.3053C48.4902 90.7252 50.5303 93.9579 50.5303 93.9579" stroke="white" stroke-width="0.5" stroke-linecap="round" stroke-linejoin="round"/>
<path d="M44.666 90.9223C46.6258 89.1549 47.8441 86.7113 48.0761 84.0825C48.4802 79.6573 54.5217 75.8333 58.3358 79.4602" stroke="white" stroke-width="0.5" stroke-linecap="round" stroke-linejoin="round"/>
<path d="M50.8948 74.828C50.8948 74.828 56.9363 68.9935 61.9627 76.4345" stroke="white" stroke-width="0.5" stroke-linecap="round" stroke-linejoin="round"/>
<path d="M100.064 361.697C100.064 361.697 103.78 367.472 103.366 371.188L102.962 374.903C102.962 374.903 89.3315 378.639 86.4438 378.639C83.5561 378.639 68.27 377.19 68.27 377.19L67.6096 374.568C67.5634 374.375 67.5852 374.171 67.6713 373.992C67.7575 373.812 67.9027 373.668 68.0827 373.583L81.7131 367.226L86.0102 362.525L100.064 361.697Z" fill="white" stroke="#263238" stroke-width="1.00396" stroke-miterlimit="10"/>
<path d="M88.5135 375.731C92.2093 376.017 99.2266 373.76 103.297 372.321L103.011 374.903C103.011 374.903 89.3315 378.639 86.4438 378.639C83.5561 378.639 68.2699 377.19 68.2699 377.19L67.7969 375.317C70.2411 375.327 83.6251 375.357 88.5135 375.731Z" fill="#550000" stroke="#263238" stroke-width="1.00396" stroke-miterlimit="10"/>
<path d="M81.7332 367.226L61.8938 375.859C61.8938 375.859 60.1986 380.107 61.8938 380.955C63.589 381.802 100.548 380.955 100.548 380.955C100.548 380.955 103.1 374.243 99.0693 369.739C95.0384 365.235 81.7332 367.226 81.7332 367.226Z" fill="white" stroke="#263238" stroke-width="1.00396" stroke-miterlimit="10"/>
<path d="M100.548 380.955C100.548 380.955 63.5892 381.802 61.894 380.955C61.076 380.541 61.0464 379.348 61.2337 378.215H101.198C101.068 379.146 100.85 380.064 100.548 380.955Z" fill="#550000" stroke="#263238" stroke-width="1.00396" stroke-miterlimit="10"/>
<path d="M72.3508 217.213C72.3508 217.213 67.1667 240.186 65.2054 254.556C63.2442 268.925 62.091 297.714 62.505 301.015C62.9189 304.317 83.5567 359.637 83.5567 359.637L85.6165 364.565L100.065 361.677C100.065 361.677 93.4616 340.625 90.9878 329.065C88.5141 317.504 83.1033 298.512 83.1033 295.21C83.1033 291.909 95.9157 228.852 96.8322 224.713C97.7488 220.574 101.908 214.217 101.908 214.217L74.2431 213.655L72.3508 217.213Z" fill="#550000" stroke="#263238" stroke-width="1.00396" stroke-miterlimit="10"/>
<path d="M72.3502 217.213C72.3502 217.213 69.3146 238.195 70.5663 252.782C71.818 267.368 74.5086 298.423 74.5086 303.046C74.5086 307.668 81.9693 335.274 82.3931 343.947C83.0534 356.473 82.127 362.672 82.127 362.672L81.6835 367.216C81.6835 367.216 90.386 368.458 92.2882 369C94.4851 369.566 96.7524 369.811 99.0196 369.729C99.0196 369.729 102.183 355.803 102.183 343.937C102.183 332.071 99.5518 307.648 98.241 297.753C96.9302 287.858 101.06 249.687 103.405 242.561C105.751 235.436 110.876 220.347 107.426 212.64C103.977 204.933 72.3502 217.213 72.3502 217.213Z" fill="#550000" stroke="#263238" stroke-width="1.00396" stroke-miterlimit="10"/>
<path d="M111.261 208.776L110.945 218.159C110.945 218.159 105.328 219.273 97.7584 220.583C91.5099 221.668 75.8197 220.298 70.5371 219.785C70.0557 219.742 69.6106 219.511 69.2987 219.142C68.9868 218.773 68.8332 218.296 68.8715 217.814L69.384 209.338L111.261 208.776Z" fill="#263238"/>
<path d="M89.302 115.246C89.302 115.246 80.432 124.836 77.0909 130.798C73.7498 136.761 72.4292 145.897 71.1775 153.092C69.9258 160.286 73.3162 177.179 72.3602 184.935L69.3345 209.368C69.3345 209.368 68.684 211.023 70.8621 212.837C73.0402 214.65 83.6745 215.311 93.2837 215.794C96.7924 215.971 107.269 213.714 108.984 213.606C111.053 213.477 111.122 210.846 111.211 208.776C111.625 199.049 113.379 173.119 114.533 161.824C116.908 138.791 103.908 116.557 89.302 115.246Z" fill="white" stroke="#263238" stroke-width="1.00396" stroke-miterlimit="10"/>
<g style="mix-blend-mode:multiply">
<path d="M113.448 174.922C113.842 169.807 114.237 165.165 114.582 161.824C114.68 160.838 114.739 159.853 114.789 158.867L91.2237 162.809L70.9802 155.911C70.9824 160.099 71.2193 164.285 71.6898 168.447L91.549 174.006L113.448 174.922Z" fill="#550000"/>
</g>
<g style="mix-blend-mode:multiply">
<path d="M88.4252 116.212C87.0848 117.7 84.4238 120.726 81.8909 123.939L96.8518 139.146L101.78 137.175L88.4252 116.212Z" fill="#550000"/>
</g>
<path d="M89.3022 115.246C89.3022 115.246 80.4322 124.836 77.0911 130.798C76.1004 132.61 75.2979 134.519 74.6962 136.495L92.5349 115.887C91.481 115.567 90.3982 115.353 89.3022 115.246Z" fill="#263238"/>
<g style="mix-blend-mode:multiply">
<path d="M71.8673 149.209L91.2238 155.575L114.73 152.875C114.361 147.019 113.06 141.26 110.876 135.815L91.9236 143.414L74.9817 135.736C73.5964 140.139 72.5551 144.644 71.8673 149.209Z" fill="#550000"/>
</g>
<g style="mix-blend-mode:multiply">
<path d="M105.19 199.049C95.3723 200.697 85.2988 199.874 75.879 196.654L71.1582 195.038L69.6897 206.864L75.0709 208.372C85.3008 211.232 95.9927 212.056 106.54 210.797L110.886 210.274C111.113 209.795 111.24 209.276 111.261 208.747C111.379 206.115 111.586 202.291 111.852 197.905L105.19 199.049Z" fill="#550000"/>
</g>
<g style="mix-blend-mode:multiply">
<path d="M107.821 182.945C98.0029 184.599 87.927 183.773 78.5101 180.54L72.4982 178.48C72.6473 180.627 72.6176 182.783 72.4095 184.926L71.7097 190.612L77.702 192.288C87.9279 195.151 98.6166 195.978 109.161 194.722L112.118 194.367C112.364 190.425 112.65 186.227 112.956 182.077L107.821 182.945Z" fill="#550000"/>
</g>
<path d="M15.3563 141.267L34.4126 156.589L35.234 155.567L16.1777 140.245L15.3563 141.267Z" fill="#263238"/>
<path d="M98.478 125.88C98.478 125.88 105.466 130.641 105.623 141.886C105.692 146.814 105.18 151.416 104.046 159.488C102.913 167.56 95.8761 193.845 90.3964 197.038C84.9166 200.231 76.4112 194.2 76.4112 194.2L35.2737 166.89L25.3293 158.857L20.4015 149.554L21.9488 146.597L34.0811 155.901L27.5468 149.859L28.8281 148.233L31.1934 149.879L38.0924 152.461L39.6003 162.317L41.7291 163.775L81.0828 178.155C81.0828 178.155 80.59 156.975 80.9546 152.924C81.3193 148.874 81.8219 138.693 86.1584 131.311" fill="white"/>
<mask id="mask4_2425_1175" style="mask-type:luminance" maskUnits="userSpaceOnUse" x="20" y="125" width="86" height="73">
<path d="M98.478 125.88C98.478 125.88 105.466 130.641 105.623 141.886C105.692 146.814 105.18 151.416 104.046 159.488C102.913 167.56 95.8761 193.845 90.3964 197.038C84.9166 200.231 76.4112 194.2 76.4112 194.2L35.2737 166.89L25.3293 158.857L20.4015 149.554L21.9488 146.597L34.0811 155.901L27.5468 149.859L28.8281 148.233L31.1934 149.879L38.0924 152.461L39.6003 162.317L41.7291 163.775L81.0828 178.155C81.0828 178.155 80.59 156.975 80.9546 152.924C81.3193 148.874 81.8219 138.693 86.1584 131.311" fill="white"/>
</mask>
<g mask="url(#mask4_2425_1175)">
<g style="mix-blend-mode:multiply" opacity="0.5">
<path d="M80.8072 162.149C80.8072 169.462 81.0536 178.155 81.0536 178.155L41.7394 163.835L39.6105 162.376L38.1026 152.52L31.2037 149.938L28.8482 148.263L27.5669 149.889L34.0815 155.901L21.9492 146.597L20.4807 149.504L25.4085 158.808L35.3529 166.89L37.8562 168.555L92.2102 186.069L80.8072 162.149Z" fill="#550000"/>
</g>
</g>
<path d="M98.478 125.88C98.478 125.88 105.466 130.641 105.623 141.886C105.692 146.814 105.18 151.416 104.046 159.488C102.913 167.56 95.8761 193.845 90.3964 197.038C84.9166 200.231 76.4112 194.2 76.4112 194.2L35.2737 166.89L25.3293 158.857L20.4015 149.554L21.9488 146.597L34.0811 155.901L27.5468 149.859L28.8281 148.233L31.1934 149.879L38.0924 152.461L39.6003 162.317L41.7291 163.775L81.0828 178.155C81.0828 178.155 80.59 156.975 80.9546 152.924C81.3193 148.874 81.8219 138.693 86.1584 131.311" stroke="#263238" stroke-width="1.00396" stroke-miterlimit="10"/>
<path d="M81.0828 178.155L96.1029 188.996L99.9959 182.097C99.9959 182.097 102.686 179.978 103.081 178.381C103.475 176.785 102.972 174.193 103.376 172.596C103.78 171 105.791 169.502 105.978 165.638C106.165 161.775 105.978 158.552 105.978 158.552C105.978 158.552 109.231 145.178 108.876 139.363C108.521 133.548 102.913 123.269 98.4189 123.042C93.9248 122.815 88.0804 123.495 83.5468 130.355C79.0132 137.214 79.9396 157.241 79.23 158.493C78.5204 159.744 79.5059 165.924 79.5059 165.924C79.112 166.218 78.7853 166.592 78.5474 167.022C78.3094 167.452 78.1658 167.928 78.1261 168.417C78.0473 170.024 79.7819 173.976 79.7819 173.976L81.0828 178.155Z" fill="white" stroke="#263238" stroke-width="1.00396" stroke-miterlimit="10"/>
<g style="mix-blend-mode:multiply">
<path d="M79.6239 153.348C79.6548 155.068 79.5262 156.787 79.2395 158.483C78.6088 159.606 79.3282 164.682 79.4859 165.717C87.934 168.341 96.8671 169.015 105.613 167.688C105.801 167.003 105.914 166.299 105.948 165.589C106.145 161.735 105.948 158.503 105.948 158.503C105.948 158.503 106.234 157.31 106.628 155.497C97.5705 156.072 88.4768 155.349 79.6239 153.348Z" fill="#550000"/>
</g>
<g style="mix-blend-mode:multiply">
<path d="M82.9352 131.449C81.5259 134.277 80.7374 138.525 80.2841 142.832C89.2311 146.247 98.8776 147.421 108.383 146.252C108.762 143.973 108.93 141.663 108.885 139.353C108.715 137.527 108.283 135.735 107.604 134.031C99.3046 134.225 91.0146 133.357 82.9352 131.449Z" fill="#550000"/>
</g>
<path d="M79.7817 174.084L81.0531 178.155L96.0731 188.996L99.9661 182.097C99.9661 182.097 102.657 179.978 103.051 178.381C103.121 178.104 103.164 177.82 103.179 177.534C95.2639 177.397 87.3996 176.238 79.7817 174.084Z" fill="#263238"/>
<path d="M90.6525 368.872C90.6525 368.872 90.9876 360.337 92.6237 347.859C94.2597 335.382 90.3273 317.662 89.667 314.705C89.0067 311.748 90.0021 305.184 89.3417 302.878C88.6814 300.572 85.4882 290.736 87.3706 279.323C89.253 267.91 90.7807 237.742 90.7807 237.742C90.7807 237.742 86.0401 233.889 84.6504 228.872C83.2608 223.855 84.3252 222.279 84.3252 222.279" stroke="#263238" stroke-width="1.00396" stroke-miterlimit="10"/>
<path d="M92.8505 222.742L91.0272 232.834" stroke="#263238" stroke-width="1.00396" stroke-miterlimit="10"/>
<defs>
<filter id="filter0_d_2425_1175" x="0" y="0" width="410" height="364.633" filterUnits="userSpaceOnUse" color-interpolation-filters="sRGB">
<feFlood flood-opacity="0" result="BackgroundImageFix"/>
<feColorMatrix in="SourceAlpha" type="matrix" values="0 0 0 0 0 0 0 0 0 0 0 0 0 0 0 0 0 0 127 0" result="hardAlpha"/>
<feOffset dx="10" dy="10"/>
<feComposite in2="hardAlpha" operator="out"/>
<feColorMatrix type="matrix" values="0 0 0 0 0 0 0 0 0 0 0 0 0 0 0 0 0 0 1 0"/>
<feBlend mode="normal" in2="BackgroundImageFix" result="effect1_dropShadow_2425_1175"/>
<feBlend mode="normal" in="SourceGraphic" in2="effect1_dropShadow_2425_1175" result="shape"/>
</filter>
</defs>
</svg>
