<svg width="151" height="151" viewBox="0 0 151 151" fill="none" xmlns="http://www.w3.org/2000/svg">
<g clip-path="url(#clip0_347_42)">
<path d="M70.2479 45.3494C69.7341 46.3989 69.2157 47.4457 68.6688 48.4803C68.3855 49.0319 68.0943 49.5828 67.8491 50.1517C66.5437 53.1896 65.2738 56.2453 63.8943 59.2513C63.0363 61.0978 62.1591 62.9353 61.2626 64.7638L59.9096 67.5022L58.526 70.225C58.2316 70.7686 57.8939 71.2874 57.5163 71.7763C57.3707 71.9835 57.1776 72.1527 56.953 72.2698C56.7283 72.3869 56.4786 72.4487 56.2244 72.45C55.5205 72.469 55.0864 71.8612 55.314 71.0552C55.4749 70.5346 55.7003 70.0369 55.9852 69.5735C56.6137 68.5052 57.194 67.414 57.726 66.2999C58.2621 65.1877 58.7525 64.0533 59.1971 62.8968C59.4431 62.2586 59.6628 61.577 60.031 61.0201C61.2053 59.2398 61.9721 57.2432 62.991 55.3813C63.7475 53.9968 64.3998 52.5526 65.115 51.1438L67.0248 47.3735C67.6541 46.1132 68.3155 44.8677 68.9491 43.6085C69.2098 43.1252 69.5022 42.6599 69.8244 42.2155C70.1395 41.8029 70.4775 41.4084 70.8366 41.0336C71.1535 40.7014 71.4184 40.8528 71.3493 41.3749C71.2486 42.1236 71.0956 42.8639 70.8917 43.5904C70.8082 43.8888 70.7071 44.1837 70.5936 44.474C70.4685 44.7591 70.3429 45.0451 70.218 45.3295L70.2479 45.3494Z" fill="black"/>
<path d="M95.9483 67.7483L94.7501 68.6399L93.5285 69.5032C93.0973 69.8096 92.6637 70.1173 92.2609 70.4591C91.7223 70.9138 91.1893 71.3752 90.6583 71.8388L89.0579 73.2193L85.8644 75.9863L81.924 79.3833L78.0019 82.8025C77.595 83.1378 77.1643 83.4433 76.7132 83.7165C76.5329 83.8362 76.3269 83.9118 76.1114 83.9373C75.8959 83.9628 75.6771 83.9375 75.4722 83.8634C74.9028 83.6712 74.7408 83.0618 75.1684 82.4808C75.4546 82.1093 75.7876 81.7767 76.1594 81.491C77.8216 80.1604 79.3971 78.7253 80.8766 77.1943C81.261 76.7446 81.6958 76.3406 82.1724 75.9901C83.7135 74.9882 85.0162 73.689 86.4868 72.602C87.5798 71.7955 88.6161 70.9091 89.7066 70.0962C91.6569 68.6541 93.6199 67.2324 95.6351 65.883C96.3947 65.3625 97.2361 64.972 98.1253 64.7272C98.51 64.6205 98.675 64.8822 98.4058 65.2402C98.0163 65.75 97.5937 66.2335 97.1406 66.6875C96.7589 67.0556 96.3557 67.4006 95.9328 67.7206L95.9483 67.7483Z" fill="black"/>
<path d="M104.297 98.6656C103.433 98.7116 102.568 98.7538 101.702 98.7922C101.241 98.7927 100.781 98.8207 100.324 98.8759C99.111 99.0492 97.9016 99.2495 96.6931 99.4498C95.4844 99.6485 94.2754 99.8393 93.0642 100.01C91.573 100.224 90.08 100.423 88.5875 100.624L84.1064 101.204C83.6455 101.246 83.1807 101.231 82.7224 101.159C82.2796 101.107 81.9443 100.757 81.6945 100.272C81.3305 99.5644 81.4593 98.7341 82.0394 98.4587C82.415 98.2949 82.8211 98.2112 83.2321 98.2128C85.0881 98.1555 86.929 97.8797 88.7168 97.391C89.2132 97.2574 89.725 97.0769 90.2315 97.1241C91.8473 97.268 93.4059 96.8874 95.0003 96.8554C96.1839 96.8276 97.3607 96.6886 98.5434 96.6383C99.5979 96.5933 100.653 96.5565 101.707 96.5279L104.876 96.5069C105.702 96.4969 106.521 96.6846 107.263 97.0543C107.341 97.0871 107.406 97.1422 107.452 97.2125C107.498 97.2827 107.523 97.365 107.522 97.4486C107.521 97.5323 107.495 97.6136 107.447 97.682C107.4 97.7505 107.333 97.803 107.255 97.8329C106.737 98.0616 106.206 98.2592 105.664 98.4248C105.215 98.5255 104.758 98.5928 104.298 98.6261L104.297 98.6656Z" fill="black"/>
<path d="M90.2692 120.351C90.053 120.263 89.8339 120.183 89.6227 120.082L88.9896 119.777C88.7686 119.663 88.5386 119.569 88.3021 119.493C87.6642 119.315 87.0176 119.161 86.3839 118.972C85.7477 118.79 85.1126 118.605 84.4858 118.397C83.7135 118.142 82.9461 117.874 82.1881 117.58L79.9136 116.699C79.6819 116.59 79.4722 116.439 79.2953 116.254C79.1116 116.082 79.085 115.723 79.1469 115.29C79.2371 114.66 79.5967 114.085 79.9591 114.055C80.1816 114.045 80.4023 114.105 80.5893 114.228C81.4511 114.737 82.4037 115.07 83.3918 115.208C83.6676 115.25 83.9696 115.252 84.1856 115.433C84.8792 116 85.7347 116.148 86.4876 116.56C87.0455 116.87 87.6526 117.058 88.2182 117.352C89.2289 117.87 90.2484 118.364 91.2456 118.917C91.6616 119.14 91.9992 119.486 92.2116 119.908C92.2367 119.96 92.2502 120.017 92.2511 120.075C92.2519 120.133 92.2402 120.19 92.2167 120.242C92.1931 120.295 92.1583 120.341 92.1148 120.379C92.0712 120.416 92.0199 120.443 91.9645 120.459C91.8046 120.48 91.6432 120.495 91.4823 120.505C91.3247 120.517 91.1662 120.516 91.0085 120.502C90.7616 120.464 90.5185 120.404 90.2822 120.322L90.2692 120.351Z" fill="black"/>
<path d="M36.026 54.5259C36.1543 55.0689 36.2769 55.6121 36.3935 56.1556C36.4481 56.4449 36.5201 56.7308 36.6091 57.0118C36.8777 57.7486 37.1387 58.4897 37.386 59.2365C37.6301 59.9841 37.8456 60.7402 38.0324 61.5049C38.2522 62.4476 38.444 63.3974 38.5952 64.3537C38.7468 65.3099 38.8724 66.2694 38.9718 67.2324C38.9888 67.5319 38.9552 67.8317 38.8724 68.1191C38.8069 68.4012 38.5102 68.6033 38.1103 68.7429C37.5277 68.9457 36.8742 68.8343 36.6885 68.4745C36.5822 68.245 36.5368 67.9924 36.5566 67.7412C36.6011 66.6055 36.4192 65.4702 36.0217 64.4016C35.915 64.1036 35.7619 63.803 35.7877 63.4921C35.8739 62.4949 35.5029 61.5733 35.3795 60.6092C35.3313 60.2506 35.2637 59.8947 35.1771 59.5431C35.0982 59.1897 35.0083 58.8388 34.9333 58.4841C34.6645 57.2198 34.3831 55.9518 34.043 54.6956C33.9167 54.1629 33.9643 53.6052 34.1788 53.1045C34.2624 52.8569 34.5204 52.7708 34.8145 52.9133L35.088 53.0832C35.1319 53.1075 35.1705 53.1401 35.2019 53.1792L35.2959 53.2839C35.4187 53.4229 35.533 53.5691 35.6384 53.7218C35.7218 53.8453 35.7919 53.9771 35.8476 54.1151C35.8968 54.2547 35.94 54.3967 35.9914 54.535L36.026 54.5259Z" fill="black"/>
</g>
<defs>
<clipPath id="clip0_347_42">
<rect width="106.953" height="106.023" fill="white" transform="translate(77.54) rotate(47)"/>
</clipPath>
</defs>
</svg>
