<svg width="82" height="82" viewBox="0 0 82 82" fill="none" xmlns="http://www.w3.org/2000/svg">
<path d="M25.3118 15.106C25.9809 16.213 26.7681 17.2577 27.6898 18.1614C28.149 18.614 28.6328 19.0388 29.1511 19.4176C29.6693 19.7948 30.2121 20.1326 30.7796 20.4229C31.2585 20.6706 31.7587 20.8674 32.2654 21.0412L32.3195 21.0592C32.8607 21.2462 33.1494 21.8366 32.9624 22.3778C32.8673 22.655 32.6639 22.8665 32.4179 22.9813C31.575 23.3716 30.7238 23.716 29.9087 24.067C29.1986 24.3737 28.5164 24.6771 27.8833 25.0231C27.2487 25.3659 26.6697 25.7628 26.1302 26.217C25.9957 26.3302 25.8612 26.445 25.7349 26.5696L25.5414 26.7517C25.4791 26.8124 25.4365 26.8698 25.384 26.9272C25.2823 27.0436 25.1757 27.1486 25.0806 27.2945C24.9838 27.4339 24.8805 27.5586 24.7887 27.7094L24.5131 28.1588C24.4229 28.3113 24.3409 28.4753 24.2557 28.6328L24.1277 28.8706L24.0097 29.1198L23.7735 29.6168C23.1733 30.9714 22.6763 32.4015 22.2598 33.8512C22.0597 34.5778 21.8645 35.3076 21.712 36.039C21.5595 36.7672 21.4217 37.5035 21.3545 38.1989C21.2889 38.8795 20.6837 39.378 20.0031 39.3124C19.4849 39.2616 19.0716 38.8992 18.9339 38.4268L18.9306 38.4121C18.6731 37.5232 18.5107 36.6786 18.3517 35.8406L17.9072 33.3625C17.6645 32.0194 17.4054 30.6942 17.0462 29.4577C16.8625 28.846 16.6477 28.2588 16.3968 27.7521L16.1983 27.4011C16.1196 27.2814 16.0327 27.1584 15.9507 27.037C15.7736 26.7976 15.5899 26.5598 15.3833 26.3335C14.9782 25.8776 14.5239 25.4462 14.0368 25.0412C13.5465 24.641 13.0266 24.2654 12.4854 23.9161C11.403 23.2191 10.2337 22.6287 9.03647 22.1613C8.36407 21.8989 8.03115 21.1396 8.29519 20.4672C8.42967 20.1212 8.69535 19.8653 9.01351 19.7341L9.02499 19.7292C9.97127 19.3422 10.9159 18.9535 11.7966 18.4959C12.6937 18.0564 13.5186 17.5414 14.2779 16.9691L14.8339 16.5263L15.3439 16.0425C15.5227 15.8883 15.667 15.7046 15.8228 15.5308C15.972 15.352 16.1426 15.1897 16.2705 14.9912L16.6821 14.4222C16.8117 14.2254 16.9249 14.0154 17.0479 13.8154L17.2299 13.5103C17.2857 13.4037 17.3349 13.2938 17.3873 13.1872L17.7006 12.5394C18.2369 11.2996 18.7059 9.96792 19.1061 8.62312C19.1946 8.2984 19.2897 8.0032 19.3914 7.73752C19.4423 7.60468 19.4947 7.4784 19.5489 7.35868C19.5636 7.3226 19.5718 7.3144 19.5833 7.298C19.5931 7.28324 19.6046 7.26848 19.6161 7.25536C19.6391 7.22748 19.6637 7.20124 19.6915 7.175C19.7998 7.07004 19.949 6.9618 20.0933 6.81092C20.2393 6.66168 20.3754 6.47636 20.4837 6.2812C20.7985 5.70228 20.8412 5.35624 21.0429 5.58092C21.0921 5.63832 21.1511 5.73508 21.2167 5.88596C21.2823 6.0352 21.3529 6.24348 21.4037 6.50916C21.4545 6.7732 21.4791 7.09136 21.4677 7.42428C21.4644 7.50628 21.4595 7.59484 21.4545 7.67192C21.4496 7.72768 21.4463 7.78508 21.4414 7.84412C21.4316 7.9622 21.4185 8.08356 21.4021 8.20984C21.3627 8.52964 21.3151 8.85436 21.2627 9.184C21.2069 9.51364 21.1216 9.84492 21.0445 10.1778C20.9019 10.8453 20.6608 11.5079 20.4443 12.1475C20.3311 12.4361 20.2065 12.7215 20.0884 13.0085L19.9097 13.4382L19.6997 13.858C19.5554 14.1368 19.4242 14.4205 19.2684 14.6928L18.7748 15.5013C18.0745 16.5574 17.2266 17.5267 16.2672 18.35L15.5292 18.9387C15.2783 19.1257 15.0175 19.293 14.7601 19.4717C14.5059 19.6554 14.2385 19.8046 13.9729 19.9621C13.7072 20.1179 13.4448 20.2835 13.1725 20.4164L12.364 20.8395L11.5473 21.2265L11.1389 21.4184L10.7289 21.5972L9.90731 21.9563L9.89747 19.9194C11.1488 20.377 12.3525 20.933 13.5104 21.5955C14.2631 22.0268 15.0143 22.5074 15.7178 23.065C16.4214 23.6209 17.0757 24.2556 17.6104 24.9739C17.7842 25.2232 17.9663 25.461 18.1237 25.725C18.2041 25.8579 18.2893 25.9743 18.3648 26.1219L18.5895 26.5516C18.6715 26.6959 18.7157 26.8353 18.7797 26.978C18.8371 27.119 18.9027 27.2617 18.9519 27.4011C19.0437 27.6799 19.1553 27.962 19.2307 28.2375C19.5653 29.3462 19.7916 30.4351 19.9999 31.5142C20.2049 32.5934 20.382 33.6643 20.564 34.7172C20.7477 35.7668 20.9314 36.8147 21.1839 37.761L19.0142 37.9512C19.1126 37.0886 19.2848 36.2883 19.4783 35.4912C19.7129 34.54 19.9835 33.6085 20.2836 32.6819C20.5821 31.7553 20.9084 30.8369 21.2856 29.93C21.6628 29.0231 22.0663 28.1227 22.5845 27.2453C22.8453 26.8074 23.1241 26.3728 23.4603 25.9497C23.5013 25.8972 23.539 25.8431 23.5849 25.7906L23.7276 25.6348L24.0162 25.3265C24.113 25.2232 24.2065 25.1494 24.3032 25.0608C24.4 24.9756 24.4918 24.887 24.5919 24.8066C25.115 24.3589 25.6874 23.9604 26.2794 23.6111C26.8715 23.2618 27.4815 22.9682 28.0851 22.7058C29.2954 22.1843 30.4631 21.7579 31.575 21.2347L31.7045 22.8862C30.6221 22.5385 29.5955 22.0449 28.6476 21.4446C27.7046 20.8362 26.8419 20.1228 26.0597 19.3389C25.2823 18.55 24.5886 17.6874 23.9736 16.7756C23.3602 15.8654 22.842 14.8797 22.4057 13.8859C21.8498 12.6083 21.4644 11.3193 21.2151 10.068C20.9625 8.81664 20.8477 7.59976 20.8461 6.4452C20.8477 6.0106 20.9412 5.7482 21.0773 5.67604L20.9281 6.05324C20.892 6.08604 20.8379 6.11556 20.7838 6.12868C20.7297 6.1418 20.6788 6.1418 20.6427 6.13852C20.5689 6.13032 20.5411 6.12048 20.5345 6.13032C20.5312 6.13852 20.5509 6.16968 20.6329 6.20084C20.6739 6.2156 20.7329 6.22872 20.8018 6.22216C20.8707 6.21724 20.9461 6.19264 21.0019 6.1582L21.202 5.65144C21.3791 5.67112 21.5874 5.94828 21.7645 6.48456C22.2942 8.09176 22.842 9.75472 23.4816 11.3373C24.0031 12.6362 24.5476 13.9498 25.2708 15.1077C25.2823 15.1044 25.2938 15.1011 25.3085 15.0978L25.3118 15.106Z" fill="black"/>
<path d="M53.9297 31.7947C54.1511 32.4376 54.3873 33.0755 54.6333 33.7036C54.6956 33.8578 54.7579 34.0218 54.8202 34.1661C54.8825 34.3022 54.9367 34.4433 55.0055 34.5778C55.1384 34.8467 55.2843 35.1108 55.4467 35.3633C56.0978 36.3785 57.0031 37.2477 58.074 37.9266C58.9858 38.5187 60.0174 38.9779 61.0899 39.3256C61.6311 39.501 61.9263 40.0816 61.7525 40.6212C61.6672 40.8852 61.4852 41.0902 61.2605 41.2116L61.2326 41.2263C61.0063 41.3477 60.7767 41.4576 60.5586 41.5953C59.3007 42.3514 58.1707 43.3731 57.1884 44.5194C56.2044 45.6674 55.368 46.9516 54.6956 48.3062C54.0248 49.6608 53.5148 51.0926 53.2458 52.544C52.9785 53.9921 52.9523 55.4664 53.2835 56.8047L50.8449 57.3032C50.5874 55.8797 50.3365 54.466 50.0314 53.0835C49.7575 51.8388 49.4459 50.6137 49.0556 49.4296C48.6637 48.2472 48.1946 47.1041 47.6239 46.0282C47.4796 45.7626 47.3271 45.4969 47.1762 45.2378C47.022 44.9852 46.8629 44.7376 46.6924 44.5014C46.3529 44.0258 45.9823 43.5846 45.5821 43.1976C44.7801 42.4202 43.8535 41.9004 42.904 41.7741C42.1889 41.679 41.6855 41.0213 41.7806 40.3063C41.8363 39.8914 42.0791 39.5486 42.412 39.3518L42.4218 39.3469C43.2894 38.8418 44.0913 38.2399 44.7851 37.5216C44.9655 37.3494 45.1229 37.1542 45.2918 36.9705C45.4476 36.7737 45.6116 36.5851 45.7576 36.3801C46.061 35.98 46.3316 35.5503 46.5825 35.1075C47.5895 33.333 48.193 31.2863 48.5702 29.1838C48.8145 27.8078 49.0507 26.3942 49.2229 24.9887C49.3033 24.3163 49.423 23.7603 49.5722 23.3044C49.646 23.0764 49.7297 22.8731 49.8199 22.6927C49.8641 22.5484 49.9232 22.3876 49.9937 22.2679C50.0642 22.1433 50.1429 22.0514 50.2069 21.994C50.5743 21.7136 50.2922 22.2072 50.7301 22.6074C50.8367 22.6976 50.9925 22.7288 51.0941 22.714C51.145 22.7124 51.1827 22.6943 51.2073 22.7074C51.2303 22.7845 51.2532 22.8649 51.2729 22.9518C51.3582 23.2978 51.4139 23.7259 51.432 24.2277C51.4763 25.4987 51.3746 26.8944 51.1647 28.2047C50.9629 29.4659 50.7038 30.7221 50.3479 31.9652C50.1692 32.5852 49.9707 33.2034 49.7362 33.8102C49.505 34.4187 49.2459 35.0206 48.9474 35.606C48.3586 36.7803 47.6157 37.8988 46.7203 38.8942C46.2693 39.3895 45.7855 39.8553 45.2672 40.285C44.7457 40.7081 44.1963 41.0951 43.6239 41.4461L43.2123 39.3748C44.4013 39.5076 45.5214 39.9914 46.4431 40.6441C47.2188 41.1902 47.9076 41.8479 48.4816 42.5613C48.7735 42.9172 49.0343 43.2878 49.2705 43.6666L49.4427 43.952C49.4951 44.0471 49.546 44.1422 49.5985 44.2374C49.6985 44.4276 49.8018 44.6162 49.8904 44.8081C50.817 46.7679 51.4615 48.8015 51.9683 50.8302C52.4734 52.8621 52.8375 54.8974 53.172 56.9047L53.1753 56.9244C53.2753 57.5296 52.867 58.1036 52.2602 58.2036C51.6763 58.3004 51.122 57.9215 50.9925 57.3508C50.7432 56.2422 50.6759 55.1171 50.7661 54.0265C50.94 51.9831 51.5173 50.038 52.3389 48.2258C53.1687 46.4169 54.2479 44.731 55.5648 43.2402C56.9063 41.7249 58.5004 40.3899 60.3864 39.4797L60.5127 41.1722C59.9157 40.9656 59.3204 40.7524 58.7415 40.4818C58.1609 40.2226 57.5951 39.9176 57.049 39.5748C56.5012 39.237 55.983 38.8418 55.4959 38.4104C55.0088 37.9791 54.5578 37.4986 54.1642 36.9738C53.769 36.4506 53.4246 35.8881 53.1441 35.2961C53.0785 35.1485 53.0031 34.996 52.9441 34.8533L52.7686 34.4285C52.6521 34.1448 52.5423 33.8611 52.4324 33.5757C51.9978 32.4359 51.5993 31.2879 51.2385 30.1235C50.8367 28.8246 50.5267 27.5307 50.3611 26.263C50.2003 25.0002 50.1675 23.7456 50.4185 22.614C50.4972 22.3237 50.5956 22.1302 50.6989 22.0383L50.6759 21.9088C50.6661 21.8497 50.6349 21.7792 50.589 21.7234C50.5431 21.666 50.4906 21.6267 50.4496 21.5988C50.3676 21.543 50.325 21.5135 50.3168 21.4807C50.3119 21.4512 50.3332 21.4102 50.4644 21.4004C50.5283 21.3971 50.63 21.4102 50.7432 21.4709C50.8563 21.5283 50.9613 21.6349 51.0253 21.7349L51.0876 22.0793C51.1417 22.1466 51.1876 22.245 51.2253 22.3696C51.2647 22.4959 51.2795 22.6435 51.3139 22.837C51.3451 23.0305 51.3598 23.2191 51.4025 23.4176C51.4402 23.6144 51.4779 23.8128 51.5173 24.0112C51.6124 24.413 51.6993 24.8148 51.8125 25.2232C52.0273 26.0366 52.2733 26.8616 52.5406 27.6816C52.9736 29.0296 53.3934 30.4351 53.9018 31.7898C53.9149 31.7898 53.9264 31.7898 53.9412 31.7898L53.9297 31.7947Z" fill="black"/>
<path d="M32.7083 55.8371C33.115 57.0031 33.8038 57.9855 34.7927 58.6874C34.8845 58.7645 34.9928 58.8219 35.0961 58.8842L35.4093 59.0728C35.6291 59.1843 35.8587 59.2794 36.085 59.3811L36.1654 59.4172C36.6803 59.6484 36.9099 60.252 36.6787 60.7669C36.5639 61.0244 36.3507 61.2114 36.1063 61.3048C35.9259 61.3737 35.7472 61.4426 35.5733 61.5148C35.2125 61.664 34.8698 61.8132 34.5664 61.974C34.263 62.1363 33.9973 62.3069 33.7595 62.5102C33.2872 62.9137 32.8706 63.4746 32.5197 64.0863C32.172 64.7013 31.8866 65.3638 31.7161 66.0116C31.5422 66.6529 31.5078 67.3007 31.639 67.6959L29.2347 68.2978C29.0494 67.4876 28.8526 66.7004 28.6115 65.9526C28.2409 64.8046 27.7555 63.7501 27.0716 62.9038C26.3893 62.0527 25.5152 61.4049 24.5837 61.154C23.8883 60.967 23.4783 60.252 23.6653 59.5566C23.7571 59.2171 23.9753 58.9449 24.2557 58.7776L24.3147 58.7432L24.6329 58.5546L24.792 58.4611L24.9429 58.3528L25.2479 58.138L25.5365 57.8953L25.6809 57.7739L25.817 57.6411L26.0909 57.3738L26.3467 57.0851L26.4746 56.9408C26.5156 56.8916 26.555 56.8375 26.5943 56.7866C27.2421 55.9699 27.7784 55.0286 28.1999 54.0183C28.4705 53.3836 28.7887 52.7457 29.0625 52.093C29.2019 51.7846 29.3545 51.5353 29.548 51.3451C29.7333 51.1516 29.9449 51.0122 30.1728 50.9154C30.5041 50.7744 30.8042 50.8269 31.0109 51.0565C31.2159 51.2844 31.3372 51.6928 31.2749 52.2258C31.1995 52.8998 30.9863 53.6149 30.7025 54.2594C30.5713 54.5808 30.4139 54.8957 30.2696 55.2122L30.0318 55.6796L29.9121 55.9125L29.7825 56.1421C29.4512 56.7587 29.0609 57.3524 28.6427 57.9264C28.2229 58.5021 27.7374 59.04 27.2159 59.5484C26.6829 60.0486 26.0892 60.4947 25.4496 60.8883L25.2167 58.8104C25.7235 58.9252 26.2155 59.1023 26.678 59.327C27.5915 59.7632 28.4508 60.4061 28.9871 61.1933C29.3512 61.7148 29.6628 62.2659 29.935 62.8153C30.2073 63.3647 30.4336 63.9239 30.6353 64.4815C31.0322 65.6 31.311 66.7185 31.5258 67.814L31.5307 67.8419C31.6488 68.4421 31.2585 69.0259 30.6583 69.144C30.0859 69.2572 29.5283 68.9046 29.3741 68.3519C29.2151 67.7763 29.2101 67.2269 29.2692 66.7218C29.3397 66.1297 29.4873 65.5852 29.6677 65.0686C29.8497 64.552 30.0695 64.0617 30.3204 63.5877C30.5713 63.1154 30.8534 62.6611 31.1814 62.2249C31.5111 61.7903 31.8817 61.3704 32.336 61.0031C32.8149 60.6078 33.3659 60.2995 33.8874 60.0748C34.4139 59.8436 34.9108 59.6747 35.3962 59.4992L35.4159 61.2032C34.1695 60.721 32.9969 59.924 32.1244 58.876C32.0195 58.7432 31.9211 58.6054 31.8194 58.4693L31.6701 58.2643C31.6242 58.1937 31.5832 58.1216 31.5389 58.0494L31.2815 57.6181L31.0633 57.1704L30.9551 56.9473L30.8649 56.7194L30.6861 56.2618L30.5402 55.7977C30.491 55.6436 30.4434 55.4894 30.409 55.332C30.3647 55.1548 30.3237 54.9777 30.2876 54.8022C30.2597 54.6268 30.2335 54.4513 30.2122 54.2774C30.1876 54.1036 30.1761 53.9314 30.1712 53.7608C30.1646 53.5903 30.1597 53.4214 30.163 53.2541C30.1859 52.585 30.2876 51.9486 30.4959 51.355C30.6845 50.8088 31.2306 50.8236 31.393 51.4123C31.6275 52.2471 31.8358 53.0999 32.0687 53.9068C32.254 54.571 32.4065 55.2418 32.664 55.8469C32.6755 55.8436 32.6869 55.842 32.7001 55.8387L32.7083 55.8371Z" fill="black"/>
<path d="M70.8726 15.2372C71.0202 15.7489 71.2219 16.2393 71.4565 16.71C71.5188 16.8248 71.5713 16.9478 71.6418 17.0576L71.8435 17.3955C71.9911 17.6087 72.1354 17.8301 72.3027 18.0269C72.5438 18.3352 72.8242 18.6074 73.1194 18.8584L73.1325 18.8698C73.5753 19.2454 73.6311 19.908 73.2555 20.3524C73.1965 20.4229 73.1243 20.4869 73.0522 20.5377C72.9226 20.6279 72.7931 20.7198 72.6668 20.8132C71.8468 21.4955 71.1695 22.3975 70.6988 23.3962C70.461 23.8932 70.2691 24.413 70.1412 24.9296C70.1133 25.0576 70.0756 25.1871 70.0592 25.3134C70.0379 25.4397 70.0133 25.5676 70.0051 25.6873L69.987 25.8677V26.035L69.9821 26.1186C69.9821 26.1449 69.987 26.1678 69.9887 26.1908C69.9936 26.2384 69.9969 26.2859 69.9985 26.3335L70.0018 26.3909C70.0313 27.0682 69.5065 27.6438 68.8292 27.6734C68.2831 27.698 67.8025 27.3585 67.6221 26.873C67.4483 26.4024 67.3007 25.9333 67.1761 25.4938C67.0498 25.0559 66.9366 24.6279 66.8103 24.2474C66.7808 24.1506 66.7497 24.0572 66.7169 23.9702C66.6841 23.8817 66.6545 23.7898 66.6201 23.7046C66.5479 23.5406 66.4823 23.3684 66.4003 23.2257C66.3282 23.0682 66.2347 22.942 66.1527 22.8026C66.1068 22.7386 66.0559 22.6812 66.01 22.6189L65.9395 22.527L65.8575 22.4467C65.4409 22.0088 64.8719 21.6775 64.1699 21.4528C63.4861 21.2347 63.1089 20.5033 63.327 19.8194C63.427 19.5045 63.6369 19.2552 63.8993 19.0978L63.9633 19.0601L64.2847 18.8682C64.3389 18.8354 64.393 18.8059 64.4455 18.7731L64.5947 18.6632C64.6931 18.5894 64.7981 18.5222 64.8948 18.4451L65.1736 18.204C65.5295 17.8645 65.869 17.5021 66.1363 17.0724C66.4102 16.6509 66.6529 16.1966 66.8366 15.7046C66.9415 15.4668 67.0088 15.2061 67.0957 14.9552L67.1974 14.5648L67.2482 14.3697L67.2876 14.1696C67.4122 13.6202 67.5647 13.0511 67.7091 12.4804C67.7386 12.3426 67.7829 12.218 67.837 12.1032C67.8944 11.9786 67.9518 11.9326 68.0387 11.6834C68.1273 11.4882 68.2421 11.3357 68.3552 11.2455C68.4684 11.1536 68.5733 11.1176 68.6586 11.1176C68.9063 11.1258 68.9653 11.4652 69.2097 11.7408C69.3245 11.8785 69.5016 11.9868 69.659 11.9917C69.7361 11.9966 69.7984 11.9802 69.8361 11.9654L69.8427 11.9622C69.8427 11.9622 69.8476 11.9622 69.8476 11.9704L69.8575 12.0081C69.8624 12.0327 69.8689 12.0589 69.8739 12.0852C69.8837 12.1376 69.8919 12.1918 69.8985 12.2492C69.9132 12.3918 69.9231 12.5394 69.928 12.687C69.928 12.8363 69.9198 12.9872 69.9083 13.138C69.8919 13.4398 69.8329 13.7432 69.7722 14.0368C69.6164 14.7092 69.4458 15.3799 69.2015 16.0392C68.962 16.6968 68.6865 17.3496 68.3208 17.9678C67.6172 19.2126 66.5955 20.336 65.3589 21.1478C65.2884 21.1954 65.2195 21.2446 65.1474 21.2921L64.9539 19.0535C65.3114 19.1618 65.6787 19.2438 66.0346 19.4192C66.2134 19.4996 66.3889 19.58 66.5545 19.6964C66.6381 19.7505 66.7185 19.8063 66.7989 19.8653C66.8792 19.9211 66.9563 19.9818 67.0268 20.0539C67.5123 20.4869 67.9223 21.0117 68.2486 21.548C68.5783 22.0892 68.8029 22.6517 68.9801 23.1847C69.1588 23.7177 69.2966 24.2376 69.4229 24.7214C69.5508 25.2052 69.6754 25.6627 69.8083 26.0924L67.6861 26.5729C67.6812 26.3597 67.6681 26.1318 67.6927 25.9399C67.7304 25.4282 67.8337 24.9723 67.9567 24.5246L68.0518 24.1933L68.1633 23.8702C68.2339 23.6521 68.3241 23.4471 68.4077 23.2372C68.757 22.4057 69.2129 21.6267 69.7738 20.9198C70.3937 20.1474 71.135 19.452 72.0009 18.919L71.9419 20.4016C71.0727 19.6816 70.3511 18.8124 69.8214 17.8612L69.6229 17.5037L69.4458 17.138L69.3573 16.956L69.2802 16.769L69.126 16.3951C68.9407 15.8916 68.7734 15.3832 68.6537 14.865C68.3618 13.6743 68.4257 12.4788 68.8931 11.5013C68.9555 11.3701 69.0473 11.2799 69.1473 11.2373C69.1654 11.2291 69.1736 11.2094 69.1654 11.1914C69.1654 11.1881 69.1621 11.1848 69.1588 11.1815L69.0079 11.0159C68.9456 10.947 68.8325 10.9109 68.7636 10.8978C68.6914 10.883 68.6488 10.8716 68.6324 10.8437C68.6176 10.8174 68.6258 10.7715 68.7078 10.7174C68.7488 10.6912 68.8128 10.6633 68.8981 10.6534C68.9817 10.642 69.0834 10.6534 69.1736 10.6813L69.5213 11.2373C69.6393 11.293 69.7394 11.4078 69.7869 11.5784C69.9788 12.259 70.1609 12.9462 70.3609 13.6104C70.5233 14.1548 70.6414 14.7206 70.8349 15.2536C70.8464 15.2504 70.8579 15.2487 70.871 15.2454L70.8726 15.2372Z" fill="black"/>
<path d="M67.4747 64.9161C67.5058 65.0506 67.537 65.19 67.5714 65.3179C67.5878 65.3852 67.6059 65.4458 67.6223 65.5016C67.6387 65.559 67.6551 65.618 67.6764 65.6738C67.7535 65.9018 67.8502 66.1281 67.9667 66.3364C68.1995 66.7562 68.5046 67.1268 68.8588 67.3942C69.0556 67.5401 69.2672 67.6566 69.4919 67.7304L69.564 67.755C70.1003 67.9321 70.3922 68.511 70.2135 69.0473C70.1298 69.2998 69.9543 69.4999 69.7395 69.6196C69.5099 69.7476 69.2934 69.8935 69.0983 70.0641C68.6932 70.42 68.3553 70.8529 68.0372 71.3564C67.8781 71.6073 67.7223 71.8763 67.5649 72.1567L67.3238 72.5864C67.25 72.7209 67.1877 72.8357 67.127 72.9652C66.8859 73.4687 66.7104 73.9935 66.6366 74.5085C66.5595 75.0234 66.5792 75.5204 66.6973 75.9714L64.2914 76.4929C64.1028 75.6434 63.9011 74.8217 63.6387 74.0526C63.3255 73.1292 62.9269 72.2846 62.389 71.5794C61.8527 70.871 61.1902 70.3035 60.4604 69.9903C59.7995 69.7049 59.4928 68.9374 59.7781 68.2765C59.9044 67.9829 60.1258 67.7599 60.3915 67.627L60.4538 67.5959L60.7507 67.4466L60.8999 67.3745L61.0409 67.2876L61.323 67.1137L61.5887 66.9136L61.7232 66.8152L61.8478 66.7021L62.0971 66.479L62.3267 66.2314C62.3644 66.1904 62.4054 66.151 62.4415 66.1084L62.5465 65.9739C62.617 65.8837 62.6891 65.7968 62.758 65.705L62.9515 65.418C63.0188 65.3245 63.0762 65.2228 63.1336 65.1211C63.191 65.0194 63.2517 64.9194 63.3058 64.8161C63.4042 64.6012 63.519 64.3962 63.601 64.1699C63.6453 64.0584 63.6912 63.9502 63.7338 63.837L63.847 63.4942C64.0143 62.9481 64.2373 62.3987 64.3964 61.828C64.4784 61.559 64.5883 61.3262 64.7457 61.154C64.808 61.1868 64.9327 61.2622 65.0934 61.2491C65.2541 61.2392 65.4017 61.1261 65.4755 60.9834C65.6854 60.5521 65.5083 60.1978 65.7494 60.1552C65.8101 60.1486 65.9068 60.1683 66.0364 60.2618C66.1643 60.352 66.3168 60.534 66.4054 60.762C66.4513 60.8752 66.4825 60.9932 66.5038 61.108C66.512 61.1605 66.5202 61.213 66.5284 61.2671C66.5349 61.2917 66.5415 61.3163 66.5481 61.3426C66.5727 61.4459 66.5891 61.5574 66.5973 61.6788C66.6251 61.9854 66.5923 62.3052 66.5563 62.625C66.5317 62.7841 66.4972 62.9432 66.4628 63.1006C66.4447 63.1794 66.4267 63.2581 66.407 63.3352C66.3824 63.4122 66.3595 63.4893 66.3365 63.5648C65.9445 64.8358 65.3722 66.0592 64.5702 67.1596C64.1684 67.709 63.6961 68.2125 63.1779 68.6734C62.6514 69.1293 62.0627 69.5114 61.4395 69.8443L61.4329 67.7336C61.7019 67.8386 61.9708 67.9501 62.225 68.0846C63.0155 68.488 63.7699 69.0571 64.2291 69.7558C65.5673 71.7828 66.2119 73.9673 66.5759 76.037L66.5874 76.0993C66.6924 76.6962 66.2939 77.267 65.6953 77.3719C65.1049 77.4752 64.5423 77.0866 64.4259 76.5027C64.3751 76.2485 64.339 75.991 64.3275 75.7368C64.275 74.6922 64.4866 73.6934 64.8441 72.7947C65.0229 72.3453 65.2426 71.9107 65.4903 71.5089C65.7084 71.1547 65.9331 70.784 66.1873 70.4118C66.5038 69.9476 66.8662 69.4753 67.2992 69.0489C67.7272 68.6192 68.2291 68.2519 68.7522 67.9567L68.9671 69.5918C68.3701 69.4048 67.8289 69.0932 67.3812 68.7045C66.9302 68.3175 66.5661 67.8616 66.2758 67.3778C66.1282 67.135 66.0052 66.8825 65.8921 66.625C65.7855 66.3692 65.6887 66.0936 65.6198 65.8444C65.4739 65.3376 65.3673 64.8423 65.2738 64.3438C65.1606 63.732 65.1114 63.1302 65.1491 62.5447C65.1869 61.9608 65.3066 61.3901 65.5509 60.885C65.6067 60.7751 65.6805 60.6948 65.7625 60.6488L65.7592 60.6751C65.7756 60.6948 65.7756 60.7423 65.751 60.785C65.7264 60.8292 65.6838 60.862 65.6526 60.8834C65.587 60.926 65.5526 60.9506 65.5477 60.9916C65.5477 61.0277 65.5641 61.0916 65.7018 61.1179C65.7691 61.1294 65.8822 61.1179 65.9954 61.0441C66.1085 60.9736 66.1889 60.8506 66.2201 60.7604L66.2299 60.6685C66.3283 60.7308 66.4021 60.8325 66.4415 60.9818C66.6284 61.6722 66.8252 62.3954 67.0204 63.1154C67.1811 63.7107 67.2713 64.3405 67.4353 64.921C67.4468 64.9194 67.4583 64.9178 67.4714 64.9161H67.4747Z" fill="black"/>
</svg>
