<svg width="424" height="495" viewBox="0 0 424 495" fill="none" xmlns="http://www.w3.org/2000/svg">
<path d="M173.187 14.2925C170.825 16.2274 167.435 15.3711 164.858 14.636C156.627 12.2877 148.902 7.94193 140.597 5.70474C124.96 1.49266 109.063 -0.438367 93.92 7.14748C72.7988 17.7282 47.0141 21.7656 29.2431 40.1243C17.3283 52.4331 7.98596 65.9245 3.80839 84.5055C-2.76761 113.754 9.19801 143.705 29.858 159.665C42.1156 169.134 57.2651 174.564 71.2244 178.902C80.8724 181.899 88.2163 188.189 97.3859 192.505C106.007 196.562 115.406 198.015 124.274 201.092C138.281 205.953 152.135 210.885 166.255 215.313C177.452 218.825 187.979 224.614 199.237 227.817C216.936 232.853 234.164 239.465 251.727 245.061C258.71 247.286 265.901 248.035 272.914 250.076C288.239 254.537 303.457 259.726 318.752 264.366C338.054 270.223 355.966 275.261 372.864 288.275C395.474 305.688 421.721 333.03 421.721 368.587C421.721 378.671 423.011 390.382 420.044 399.983C413.82 420.12 402.501 433.526 389.41 446.563C383.848 452.103 378.256 457.936 372.193 462.639C358.26 473.448 343.137 487.093 327.137 492.593C321.942 494.379 305 490.198 305 481.738" stroke="black" stroke-width="3" stroke-linecap="round" stroke-dasharray="6 6"/>
</svg>
