<svg width="107" height="121" viewBox="0 0 107 121" fill="none" xmlns="http://www.w3.org/2000/svg">
<path d="M51.4672 105.957C50.8847 106.041 50.6433 106.154 50.4572 106.092C35.3537 101.044 23.8507 91.5843 16.8798 76.7535C15.1088 72.9855 14.3401 68.8635 14.4227 64.624C14.601 55.4811 20.2386 47.8772 28.7615 45.3134C33.1744 43.9859 37.5996 43.4298 42.1052 45.0336C42.8973 47.1081 43.551 49.2036 44.4789 51.1619C45.9429 54.2518 48.2172 56.5227 51.5175 57.5069C54.0004 58.2474 56.1196 57.7854 57.0347 56.241C58.1894 54.2923 57.7059 52.2596 56.4188 50.7787C54.6182 48.7071 52.503 46.8886 50.3554 45.1842C48.962 44.0784 47.2709 43.3693 45.747 42.5015C45.0871 33.8391 51.9925 28.4106 62.0682 29.7175C62.637 30.8181 63.1756 32.0344 63.8611 33.1558C66.3284 37.1926 69.7114 39.945 74.438 40.4649C76.2142 40.6602 78.0815 40.4411 79.1652 38.5861C80.0018 37.1542 79.5203 35.0411 77.8815 33.256C75.2783 30.4204 71.9543 28.7803 68.435 27.5183C67.2092 27.0787 65.9543 26.7248 64.768 26.3493C63.2626 13.0048 72.5563 1.11348 84.9045 3.65876C84.5847 2.73605 84.5332 1.88352 84.0955 1.5131C83.6104 1.10258 82.7656 0.96749 82.0892 0.996425C75.7127 1.26933 70.1652 3.34705 66.4718 9.06061C63.7193 13.3186 62.2267 18.065 61.7268 23.1466C61.6555 23.8711 61.5681 24.5942 61.4713 25.3155C61.4572 25.4209 61.3497 25.5128 61.1531 25.8125C60.5127 25.8984 59.7073 26.0494 58.8955 26.1085C48.8711 26.8378 44.4046 30.7232 41.982 41.0727C41.0113 40.9868 39.993 40.9084 38.9771 40.8049C32.978 40.1938 27.3611 41.39 22.1907 44.6007C13.6883 49.8807 9.58691 59.4258 11.29 69.8042C12.2172 75.4541 14.3026 80.6235 17.4359 85.3303C25.0396 96.7529 35.091 104.769 48.2056 108.464C48.8943 108.658 49.5802 108.863 50.2621 109.08C50.3556 109.11 50.4187 109.241 50.8141 109.673C48.505 110.842 46.1192 111.161 43.7888 111.609C41.4957 112.049 39.185 112.394 36.689 112.812C37.3352 114.705 38.5005 115.235 39.8358 115.354C41.3715 115.491 42.9738 115.727 44.456 115.434C48.4267 114.649 52.4025 113.79 56.2731 112.605C59.3541 111.662 59.823 109.727 57.8321 107.456C53.6068 102.638 49.3465 97.8523 45.0669 93.085C44.3965 92.3382 43.5495 91.7589 42.5441 90.8961C41.532 92.8447 42.4099 93.8895 43.1668 94.907C45.8416 98.5023 48.5465 102.074 51.4672 105.957ZM76.4356 36.875C71.3046 37.3658 67.4385 34.8319 66.219 30.2686C70.0795 31.7571 73.7298 33.0287 76.4356 36.875ZM54.6056 54.2093C50.1072 54.2169 47.4409 51.6998 46.859 47.0578C50.1297 48.745 53.0546 50.4396 54.6056 54.2093Z" fill="black"/>
</svg>
